<svg viewBox="0 0 28 28" fill="none" xmlns="http://www.w3.org/2000/svg">
<path d="M14 0C10.2875 0 6.72551 1.47537 4.10023 4.10023C1.47523 6.72524 0 10.2871 0 14C0 17.7129 1.47537 21.2745 4.10023 23.8998C6.72524 26.5248 10.2871 28 14 28C17.7129 28 21.2745 26.5246 23.8998 23.8998C26.5248 21.2748 28 17.7129 28 14C27.996 10.2885 26.5206 6.7293 23.8956 4.10437C21.2706 1.47936 17.7115 0.00413538 14 0ZM20.576 10.3815L13.3969 18.9969C13.1963 19.2271 12.9123 19.3671 12.6067 19.3846C12.3213 19.3846 12.0481 19.2702 11.8462 19.0683L7.53846 14.7606C7.1427 14.3365 7.1548 13.6756 7.56538 13.265C7.97462 12.8558 8.63559 12.8437 9.06095 13.2394L12.5636 16.7139L18.9821 9.00308C19.3792 8.54271 20.0738 8.49153 20.5328 8.88866C20.9932 9.28441 21.0444 9.97905 20.6486 10.4394L20.576 10.3815Z" fill="#2DA771"/>
</svg>
