<svg xmlns="http://www.w3.org/2000/svg" width="24" height="24" viewBox="0 0 24 24" fill="none">
  <path d="M21.375 19.875C21.5821 19.875 21.75 19.7071 21.75 19.5C21.75 19.2929 21.5821 19.125 21.375 19.125C21.1679 19.125 21 19.2929 21 19.5C21 19.7071 21.1679 19.875 21.375 19.875Z" fill="currentColor"/>
  <path d="M3.75 20.625C3.95711 20.625 4.125 20.4571 4.125 20.25C4.125 20.0429 3.95711 19.875 3.75 19.875C3.54289 19.875 3.375 20.0429 3.375 20.25C3.375 20.4571 3.54289 20.625 3.75 20.625Z" fill="currentColor"/>
  <path d="M4.3125 3C3.9375 3.1125 3.8625 3.1875 3.75 3.5625C3.6375 3.1875 3.5625 3.1125 3.1875 3C3.5625 2.8875 3.6375 2.8125 3.75 2.4375C3.8625 2.8125 3.9375 2.8875 4.3125 3ZM18.5625 7.875C18.1875 7.9875 18.1125 8.0625 18 8.4375C17.8875 8.0625 17.8125 7.9875 17.4375 7.875C17.8125 7.7625 17.8875 7.6875 18 7.3125C18.1125 7.6875 18.1875 7.7625 18.5625 7.875Z" fill="currentColor"/>
  <path d="M12 11.1C12.6213 11.1 13.125 10.5963 13.125 9.97498C13.125 9.35366 12.6213 8.84998 12 8.84998C11.3787 8.84998 10.875 9.35366 10.875 9.97498C10.875 10.5963 11.3787 11.1 12 11.1Z" stroke="currentColor" strokeLinecap="round" strokeLinejoin="round"/>
  <path d="M14.6998 14.7375C14.6998 13.3125 13.4623 12.15 11.9998 12.15C10.5373 12.15 9.2998 13.3125 9.2998 14.7375" stroke="currentColor" strokeLinecap="round" strokeLinejoin="round"/>
  <path d="M15.6377 13.4625C15.9002 12.9 16.0502 12.2625 16.0502 11.625C16.0502 9.33752 14.2127 7.46252 12.0002 7.46252C9.78769 7.46252 7.9502 9.33752 7.9502 11.625C7.9502 12.3 8.10019 12.9 8.36269 13.4625M9.30019 14.7375C10.0127 15.4125 10.9502 15.7875 12.0002 15.7875C13.0502 15.7875 13.9877 15.375 14.7002 14.7375" stroke="currentColor" strokeLinecap="round" strokeLinejoin="round"/>
  <path d="M12 3.75C12.6213 3.75 13.125 3.24632 13.125 2.625C13.125 2.00368 12.6213 1.5 12 1.5C11.3787 1.5 10.875 2.00368 10.875 2.625C10.875 3.24632 11.3787 3.75 12 3.75Z" stroke="currentColor" strokeLinecap="round" strokeLinejoin="round"/>
  <path d="M12 22.5C12.6213 22.5 13.125 21.9963 13.125 21.375C13.125 20.7537 12.6213 20.25 12 20.25C11.3787 20.25 10.875 20.7537 10.875 21.375C10.875 21.9963 11.3787 22.5 12 22.5Z" stroke="currentColor" strokeLinecap="round" strokeLinejoin="round"/>
  <path d="M21.375 13.125C21.9963 13.125 22.5 12.6213 22.5 12C22.5 11.3787 21.9963 10.875 21.375 10.875C20.7537 10.875 20.25 11.3787 20.25 12C20.25 12.6213 20.7537 13.125 21.375 13.125Z" stroke="currentColor" strokeLinecap="round" strokeLinejoin="round"/>
  <path d="M2.625 13.125C3.24632 13.125 3.75 12.6213 3.75 12C3.75 11.3787 3.24632 10.875 2.625 10.875C2.00368 10.875 1.5 11.3787 1.5 12C1.5 12.6213 2.00368 13.125 2.625 13.125Z" stroke="currentColor" strokeLinecap="round" strokeLinejoin="round"/>
  <path d="M12 3.75V6M12 17.55V20.25M20.25 12H17.625M3.75 12H6.375" stroke="currentColor" strokeLinecap="round" strokeLinejoin="round"/>
</svg>