<svg width="24" height="24" viewBox="0 0 24 24" fill="none" xmlns="http://www.w3.org/2000/svg">
<g id="ai-assistant (1) 1">
<g id="Group">
<path id="Vector" d="M11 3.5C11.2761 3.5 11.5 3.27614 11.5 3C11.5 2.72386 11.2761 2.5 11 2.5C10.7239 2.5 10.5 2.72386 10.5 3C10.5 3.27614 10.7239 3.5 11 3.5Z" fill="currentColor"/>
<path id="Vector_2" d="M14.7502 7.75V4.75C14.7502 4.47387 14.5266 4.25 14.2502 4.25C13.9738 4.25 13.7502 4.47387 13.7502 4.75V7.75C13.7502 8.02612 13.9738 8.25 14.2502 8.25C14.5266 8.25 14.7502 8.02612 14.7502 7.75ZM9.02655 8.19726C9.27411 8.32055 9.57343 8.22071 9.69745 7.97363L9.80927 7.75H11.6911L11.8029 7.97364C11.8908 8.14893 12.0671 8.25025 12.2507 8.25C12.3259 8.25 12.402 8.23315 12.4738 8.19726C12.7209 8.07373 12.821 7.77343 12.6975 7.52636L11.1975 4.52636C11.0275 4.1875 10.4728 4.1875 10.3029 4.52636L8.80292 7.52636C8.67939 7.77344 8.77948 8.07373 9.02655 8.19726ZM10.7502 5.86792L11.1912 6.75H10.3092L10.7502 5.86792Z" fill="currentColor"/>
<path id="Vector_3" d="M20.5 2.5C20.225 2.5 20 2.72501 20 3V5.5C20 5.775 19.775 6 19.5 6H19.25C19.25 5.17499 18.575 4.5 17.75 4.5H17.25C17.25 3.39499 16.355 2.5 15.25 2.5H13C12.725 2.5 12.5 2.72501 12.5 3C12.5 3.27499 12.725 3.5 13 3.5H15.25C15.8 3.5 16.25 3.94998 16.25 4.5V8C16.25 8.54999 15.8 9 15.25 9H8.75C8.20001 9 7.75 8.54999 7.75 8V4.5C7.75 3.94998 8.20001 3.5 8.75 3.5H9C9.27499 3.5 9.5 3.27499 9.5 3C9.5 2.72501 9.27499 2.5 9 2.5H8.75C7.64499 2.5 6.75 3.39499 6.75 4.5H6.25C5.42499 4.5 4.75 5.17499 4.75 6H4.5C4.22501 6 4 5.775 4 5.5V3C4 2.72501 3.77499 2.5 3.5 2.5C3.22501 2.5 3 2.72501 3 3V5.5C3 6.32498 3.67499 7 4.5 7H4.75C4.75 7.82498 5.42499 8.5 6.25 8.5H6.82C7.04501 9.35998 7.82 10 8.75 10H10.5V11.5C7.46499 11.5 5 13.965 5 17V20C5 20.825 5.67499 21.5 6.5 21.5H17.5C18.325 21.5 19 20.825 19 20V17C19 13.965 16.535 11.5 13.5 11.5V10H15.25C16.18 10 16.955 9.35998 17.18 8.5H17.75C18.575 8.5 19.25 7.82498 19.25 7H19.5C20.325 7 21 6.32498 21 5.5V3C21 2.72501 20.775 2.5 20.5 2.5ZM6.75 7.5H6.25C5.975 7.5 5.75 7.27499 5.75 7V6C5.75 5.725 5.975 5.5 6.25 5.5H6.75V7.5ZM11.5 10H12.5V11.5H11.5V10ZM18 17V20C18 20.275 17.775 20.5 17.5 20.5H6.5C6.225 20.5 6 20.275 6 20V17C6 14.52 8.01999 12.5 10.5 12.5H13.5C15.98 12.5 18 14.52 18 17ZM18.25 7C18.25 7.27499 18.025 7.5 17.75 7.5H17.25V5.5H17.75C18.025 5.5 18.25 5.725 18.25 6V7Z" fill="currentColor"/>
<path id="Vector_4" d="M16 16H15.5V15C15.5 14.725 15.275 14.5 15 14.5H14.5V14C14.5 13.725 14.275 13.5 14 13.5C13.725 13.5 13.5 13.725 13.5 14V14.5H12.5V14C12.5 13.725 12.275 13.5 12 13.5C11.725 13.5 11.5 13.725 11.5 14V14.5H10.5V14C10.5 13.725 10.275 13.5 10 13.5C9.725 13.5 9.5 13.725 9.5 14V14.5H9C8.72501 14.5 8.5 14.725 8.5 15V16H8C7.72501 16 7.5 16.225 7.5 16.5C7.5 16.775 7.72501 17 8 17H8.5V18C8.5 18.275 8.72501 18.5 9 18.5H9.5V19C9.5 19.275 9.725 19.5 10 19.5C10.275 19.5 10.5 19.275 10.5 19V18.5H11.5V19C11.5 19.275 11.725 19.5 12 19.5C12.275 19.5 12.5 19.275 12.5 19V18.5H13.5V19C13.5 19.275 13.725 19.5 14 19.5C14.275 19.5 14.5 19.275 14.5 19V18.5H15C15.275 18.5 15.5 18.275 15.5 18V17H16C16.275 17 16.5 16.775 16.5 16.5C16.5 16.225 16.275 16 16 16ZM14.5 17.5H9.5V15.5H14.5V17.5Z" fill="currentColor"/>
</g>
</g>
</svg>
