<svg width="24" height="24" viewBox="0 0 24 24" fill="none" xmlns="http://www.w3.org/2000/svg">
<g id="ai-text-genrator">
<g id="Group">
<path id="Vector" fill-rule="evenodd" clip-rule="evenodd" d="M12.25 1.5H2.5C2.1025 1.5 1.72 1.658 1.44 1.93925C1.1575 2.22075 1 2.60225 1 3C1 6.603 1 18.897 1 22.5C1 23.3285 1.6725 24 2.5 24H17.5C18.3275 24 19 23.3285 19 22.5C19 19.9673 19 13.5 19 13.5C19 13.224 18.775 13 18.5 13C18.225 13 18 13.224 18 13.5C18 13.5 18 19.9673 18 22.5C18 22.7763 17.7775 23 17.5 23H2.5C2.2225 23 2 22.7763 2 22.5C2 18.897 2 6.603 2 3C2 2.8675 2.05252 2.74025 2.14752 2.6465C2.24002 2.55275 2.3675 2.5 2.5 2.5H12.25C12.525 2.5 12.75 2.276 12.75 2C12.75 1.724 12.525 1.5 12.25 1.5ZM4.875 18.5H15.125C15.4 18.5 15.625 18.276 15.625 18C15.625 17.724 15.4 17.5 15.125 17.5H4.875C4.6 17.5 4.375 17.724 4.375 18C4.375 18.276 4.6 18.5 4.875 18.5ZM4.875 15.75H15.125C15.4 15.75 15.625 15.526 15.625 15.25C15.625 14.974 15.4 14.75 15.125 14.75H4.875C4.6 14.75 4.375 14.974 4.375 15.25C4.375 15.526 4.6 15.75 4.875 15.75ZM9.5 7.25H5C4.725 7.25 4.5 7.474 4.5 7.75C4.5 8.026 4.725 8.25 5 8.25H6.75V13.25C6.75 13.526 6.975 13.75 7.25 13.75C7.525 13.75 7.75 13.526 7.75 13.25V8.25H9.5C9.775 8.25 10 8.026 10 7.75C10 7.474 9.775 7.25 9.5 7.25ZM10.125 13.25H15.125C15.4 13.25 15.625 13.026 15.625 12.75C15.625 12.474 15.4 12.25 15.125 12.25H10.125C9.85 12.25 9.625 12.474 9.625 12.75C9.625 13.026 9.85 13.25 10.125 13.25ZM20.46 6.8265C20.3875 6.63025 20.2 6.5 19.9925 6.5C19.7825 6.5 19.595 6.63025 19.5225 6.8265L18.9275 8.43575L17.3175 9.031C17.1225 9.10375 16.9925 9.29075 16.9925 9.5C16.9925 9.70925 17.1225 9.89625 17.3175 9.969L18.9275 10.5643L19.5225 12.1735C19.595 12.3698 19.7825 12.5 19.9925 12.5C20.2 12.5 20.3875 12.3698 20.46 12.1735L21.055 10.5643L22.665 9.969C22.8625 9.89625 22.9925 9.70925 22.9925 9.5C22.9925 9.29075 22.8625 9.10375 22.665 9.031L21.055 8.43575L20.46 6.8265ZM11.5 10.75H13.5C13.775 10.75 14 10.526 14 10.25C14 9.974 13.775 9.75 13.5 9.75H11.5C11.225 9.75 11 9.974 11 10.25C11 10.526 11.225 10.75 11.5 10.75ZM19.9925 8.44075L20.1975 8.99825C20.2475 9.13525 20.3575 9.243 20.4925 9.29375L21.05 9.5L20.4925 9.70625C20.3575 9.757 20.2475 9.86475 20.1975 10.0018L19.9925 10.5592L19.785 10.0018C19.735 9.86475 19.6275 9.757 19.49 9.70625L18.9325 9.5L19.49 9.29375C19.6275 9.243 19.735 9.13525 19.785 8.99825L19.9925 8.44075ZM15.97 0.3265C15.8975 0.13025 15.71 0 15.5 0C15.29 0 15.1025 0.13025 15.03 0.3265L13.8275 3.578L10.5775 4.781C10.38 4.85375 10.25 5.04075 10.25 5.25C10.25 5.45925 10.38 5.64625 10.5775 5.719L13.8275 6.922L15.03 10.1735C15.1025 10.3698 15.29 10.5 15.5 10.5C15.71 10.5 15.8975 10.3698 15.97 10.1735L17.1725 6.922L20.4225 5.719C20.62 5.64625 20.75 5.45925 20.75 5.25C20.75 5.04075 20.62 4.85375 20.4225 4.781L17.1725 3.578L15.97 0.3265ZM15.5 1.94075L16.315 4.1405C16.365 4.2775 16.4725 4.38525 16.61 4.436L18.81 5.25L16.61 6.064C16.4725 6.11475 16.365 6.2225 16.315 6.3595L15.5 8.55925L14.685 6.3595C14.635 6.2225 14.5275 6.11475 14.39 6.064L12.19 5.25L14.39 4.436C14.5275 4.38525 14.635 4.2775 14.685 4.1405L15.5 1.94075ZM11.5 8.25H12.5C12.775 8.25 13 8.026 13 7.75C13 7.474 12.775 7.25 12.5 7.25H11.5C11.225 7.25 11 7.474 11 7.75C11 8.026 11.225 8.25 11.5 8.25ZM19.5 1.75H19C18.725 1.75 18.5 1.974 18.5 2.25C18.5 2.526 18.725 2.75 19 2.75H19.5V3.25C19.5 3.526 19.725 3.75 20 3.75C20.275 3.75 20.5 3.526 20.5 3.25V2.75H21C21.275 2.75 21.5 2.526 21.5 2.25C21.5 1.974 21.275 1.75 21 1.75H20.5V1.25C20.5 0.974 20.275 0.75 20 0.75C19.725 0.75 19.5 0.974 19.5 1.25V1.75Z" fill="currentColor"/>
</g>
</g>
</svg>
