<svg width="60" height="50" viewBox="0 0 48 32" fill="currentColor" xmlns="http://www.w3.org/2000/svg">
<g id="Group 1171275542" >
<g id="Ai">
<path opacity="0.6" id="Vector" d="M26.5 25.5002C26.1405 25.5049 25.7913 25.3802 25.5159 25.1489C25.2406 24.9177 25.0575 24.5952 25 24.2402L23 11.5902C22.9082 11.0038 22.6098 10.4695 22.1588 10.0836C21.7077 9.69766 21.1336 9.4856 20.54 9.4856C19.9464 9.4856 19.3724 9.69766 18.9213 10.0836C18.4703 10.4695 18.1719 11.0038 18.08 11.5902L16 24.2402C15.9685 24.4372 15.8985 24.6261 15.794 24.796C15.6895 24.9659 15.5526 25.1136 15.391 25.2306C15.2294 25.3476 15.0464 25.4316 14.8523 25.4779C14.6583 25.5242 14.457 25.5318 14.26 25.5002C14.0631 25.4687 13.8742 25.3987 13.7043 25.2942C13.5344 25.1897 13.3867 25.0528 13.2697 24.8912C13.1527 24.7296 13.0686 24.5466 13.0224 24.3525C12.9761 24.1585 12.9685 23.9572 13 23.7602L15.06 11.1102C15.2677 9.82232 15.9272 8.65042 16.9204 7.80456C17.9135 6.9587 19.1755 6.49414 20.48 6.49414C21.7846 6.49414 23.0465 6.9587 24.0397 7.80456C25.0329 8.65042 25.6924 9.82232 25.9 11.1102L28 23.7602C28.0635 24.1527 27.9685 24.5544 27.736 24.8769C27.5035 25.1994 27.1525 25.4164 26.76 25.4802L26.5 25.5002Z"/>
<path opacity="0.6" id="Vector_2" d="M36.31 31.5H10C7.48126 31.4974 5.06643 30.4956 3.28541 28.7146C1.50439 26.9336 0.502647 24.5187 0.5 22V10C0.502647 7.48126 1.50439 5.06643 3.28541 3.28541C5.06643 1.50439 7.48126 0.502647 10 0.5H38C40.5187 0.502647 42.9336 1.50439 44.7146 3.28541C46.4956 5.06643 47.4974 7.48126 47.5 10V22C47.5027 24.3751 46.61 26.6639 45 28.41C44.8769 28.5818 44.7189 28.7256 44.5363 28.8321C44.3537 28.9385 44.1507 29.0052 43.9405 29.0277C43.7304 29.0502 43.5179 29.028 43.3169 28.9627C43.1159 28.8973 42.931 28.7902 42.7743 28.6484C42.6176 28.5066 42.4926 28.3333 42.4076 28.1398C42.3225 27.9463 42.2793 27.737 42.2808 27.5257C42.2823 27.3143 42.3284 27.1057 42.4162 26.9134C42.5039 26.7212 42.6313 26.5496 42.79 26.41C43.8953 25.208 44.506 23.6329 44.5 22V10C44.4974 8.27691 43.8117 6.62514 42.5933 5.40673C41.3749 4.18831 39.7231 3.50264 38 3.5H10C8.27691 3.50264 6.62514 4.18831 5.40673 5.40673C4.18831 6.62514 3.50264 8.27691 3.5 10V22C3.50264 23.7231 4.18831 25.3749 5.40673 26.5933C6.62514 27.8117 8.27691 28.4974 10 28.5H36.31C36.7078 28.5 37.0894 28.658 37.3707 28.9393C37.652 29.2206 37.81 29.6022 37.81 30C37.81 30.3978 37.652 30.7794 37.3707 31.0607C37.0894 31.342 36.7078 31.5 36.31 31.5Z"/>
<path opacity="0.6" id="Vector_3" d="M20.52 18.4602H15.65C15.2522 18.4602 14.8707 18.3021 14.5894 18.0208C14.3081 17.7395 14.15 17.358 14.15 16.9602C14.15 16.5623 14.3081 16.1808 14.5894 15.8995C14.8707 15.6182 15.2522 15.4602 15.65 15.4602H20.52C20.9179 15.4602 21.2994 15.6182 21.5807 15.8995C21.862 16.1808 22.02 16.5623 22.02 16.9602C22.02 17.358 21.862 17.7395 21.5807 18.0208C21.2994 18.3021 20.9179 18.4602 20.52 18.4602ZM33.5 25.5002C33.1022 25.5002 32.7207 25.3421 32.4394 25.0608C32.1581 24.7795 32 24.398 32 24.0002V13.0002C32 12.6023 32.1581 12.2208 32.4394 11.9395C32.7207 11.6582 33.1022 11.5002 33.5 11.5002C33.8979 11.5002 34.2794 11.6582 34.5607 11.9395C34.842 12.2208 35 12.6023 35 13.0002V24.0002C35 24.398 34.842 24.7795 34.5607 25.0608C34.2794 25.3421 33.8979 25.5002 33.5 25.5002ZM33.5 10.3102C33.3037 10.3109 33.1094 10.27 32.93 10.1902C32.7451 10.1209 32.5778 10.0116 32.44 9.87017C32.1605 9.58791 32.0025 9.20743 32 8.81017C32.0004 8.41248 32.1586 8.0312 32.44 7.75017C32.7273 7.4809 33.1063 7.33105 33.5 7.33105C33.8938 7.33105 34.2728 7.4809 34.56 7.75017C34.8414 8.0312 34.9997 8.41248 35 8.81017C34.9975 9.20743 34.8396 9.58791 34.56 9.87017C34.279 10.1516 33.8977 10.3098 33.5 10.3102Z"/>
</g>
</g>
</svg>
