<svg xmlns="http://www.w3.org/2000/svg" width="16" height="17" viewBox="0 0 16 17" fill="none">
  <path d="M7.99991 0.664062C3.67991 0.664062 0.16658 4.1774 0.16658 8.4974C0.16658 12.8174 3.67991 16.3307 7.99991 16.3307C10.0932 16.3307 12.0599 15.5174 13.5399 14.0374C15.0199 12.5574 15.8332 10.5907 15.8332 8.4974C15.8332 4.1774 12.3199 0.664062 7.99991 0.664062ZM14.8166 7.9974H8.49991V1.68073C11.8699 1.9274 14.5699 4.6274 14.8166 7.9974ZM1.16658 8.4974C1.16658 4.8974 3.96325 1.9374 7.49991 1.68073V8.4974C7.49991 8.53073 7.50325 8.56073 7.50991 8.59406V8.5974C7.51325 8.62073 7.52325 8.64073 7.52991 8.66073L7.53991 8.69073C7.54325 8.70073 7.54991 8.71073 7.55325 8.72073C7.55658 8.73073 7.56325 8.7374 7.56658 8.7474C7.56991 8.75073 7.57325 8.7574 7.57325 8.76073C7.57658 8.7674 7.57991 8.77073 7.58325 8.7774C7.60325 8.80406 7.62325 8.83073 7.64658 8.85406L12.4666 13.6707C11.2266 14.7441 9.65991 15.3307 7.99991 15.3307C4.23325 15.3307 1.16658 12.2641 1.16658 8.4974ZM13.1732 12.9641L9.20658 8.9974H14.8132C14.7099 10.4674 14.1399 11.8474 13.1732 12.9641Z" fill="currentColor"/>
</svg>