<svg width="60" height="60" viewBox="0 0 60 60" fill="none" xmlns="http://www.w3.org/2000/svg">
<rect width="60" height="60" rx="20" fill="#FEAB49" fill-opacity="0.2"/>
<path d="M48 29.9999C48 28.0363 46.6091 26.3999 44.7273 25.9908V18.5454C44.7273 17.1545 43.6636 16.0908 42.2727 16.0908C41.0455 16.0908 40.0636 16.9908 39.8182 18.2181C36.5455 21.6545 33.8455 23.3726 30.6545 24.0272C30.2455 24.109 29.9182 24.5181 30 25.009C30.0818 25.4181 30.4091 25.6635 30.8182 25.6635C30.9 25.6635 30.9 25.6635 30.9818 25.6635C34.0909 24.9272 36.7909 23.4545 39.8182 20.509V39.409C36.7909 36.5454 34.0909 34.9908 30.9818 34.3363C29.9182 34.1726 28.7727 34.0908 27.5455 34.0908C27.0545 34.0908 26.7273 34.4181 26.7273 34.909V35.7272H16.0909V33.2726V26.7272V24.2726H26.7273V31.6363C26.7273 32.1272 27.0545 32.4545 27.5455 32.4545C28.0364 32.4545 28.3636 32.1272 28.3636 31.6363V24.2726C28.3636 23.3726 27.6273 22.6363 26.7273 22.6363H16.0909C15.1909 22.6363 14.4545 23.3726 14.4545 24.2726V25.909H13.6364C12.7364 25.909 12 26.6454 12 27.5454V32.4545C12 33.3545 12.7364 34.0908 13.6364 34.0908H14.4545V35.7272C14.4545 36.6272 15.1909 37.3635 16.0909 37.3635H17.7273V42.109C17.7273 43.0908 18.5455 43.909 19.5273 43.909C20.2636 43.909 20.9182 43.4181 21.1636 42.7635L22.5545 38.9999H23.4545C23.9455 38.9999 24.2727 38.6726 24.2727 38.1817V37.3635H26.7273C27.6273 37.3635 28.3636 36.6272 28.3636 35.7272C29.1818 35.7272 29.9182 35.8908 30.6545 35.9726C33.8455 36.6272 36.6273 38.3454 39.8182 41.7817C39.9818 42.9272 41.0455 43.909 42.2727 43.909C43.6636 43.909 44.7273 42.8454 44.7273 41.4545V34.009C46.6091 33.5999 48 31.9635 48 29.9999ZM13.6364 32.4545V27.5454H14.4545V32.4545H13.6364ZM19.6909 42.1908C19.6091 42.2726 19.3636 42.2726 19.3636 42.109V37.3635H21.4909L19.6909 42.1908ZM43.0909 41.4545C43.0909 41.9454 42.7636 42.2726 42.2727 42.2726C41.7818 42.2726 41.4545 41.9454 41.4545 41.4545V18.5454C41.4545 18.0545 41.7818 17.7272 42.2727 17.7272C42.7636 17.7272 43.0909 18.0545 43.0909 18.5454V26.7272V33.2726V41.4545ZM44.7273 32.2908V27.6272C45.7091 27.9545 46.3636 28.8545 46.3636 29.9181C46.3636 30.9817 45.7091 31.9635 44.7273 32.2908Z" fill="black"/>
<path d="M23.4545 31.6364H19.3636C18.8727 31.6364 18.5455 31.9637 18.5455 32.4546C18.5455 32.9455 18.8727 33.2727 19.3636 33.2727H23.4545C23.9455 33.2727 24.2727 32.9455 24.2727 32.4546C24.2727 31.9637 23.9455 31.6364 23.4545 31.6364ZM23.4545 29.1818H19.3636C18.8727 29.1818 18.5455 29.5091 18.5455 30C18.5455 30.4909 18.8727 30.8182 19.3636 30.8182H23.4545C23.9455 30.8182 24.2727 30.4909 24.2727 30C24.2727 29.5091 23.9455 29.1818 23.4545 29.1818ZM23.4545 26.7273H19.3636C18.8727 26.7273 18.5455 27.0546 18.5455 27.5455C18.5455 28.0364 18.8727 28.3637 19.3636 28.3637H23.4545C23.9455 28.3637 24.2727 28.0364 24.2727 27.5455C24.2727 27.0546 23.9455 26.7273 23.4545 26.7273Z" fill="black"/>
</svg>
