<svg width="24" height="24" viewBox="0 0 24 24" fill="none" xmlns="http://www.w3.org/2000/svg">
<g id="automation (4) 1" clip-path="url(#clip0_2038_6385)">
<path id="Vector" d="M18.6122 15.6647L17.6738 14.7287C17.7749 14.5188 17.8639 14.3033 17.9402 14.0831H19.2674C19.3947 14.0831 19.5168 14.0326 19.6068 13.9426C19.6969 13.8525 19.7474 13.7305 19.7474 13.6031V10.3967C19.7474 10.2694 19.6969 10.1474 19.6068 10.0573C19.5168 9.96732 19.3947 9.91675 19.2674 9.91675H17.9402C17.8639 9.69662 17.7749 9.48107 17.6738 9.27115L18.6122 8.33515C18.6569 8.29057 18.6923 8.23763 18.7164 8.17936C18.7406 8.12109 18.753 8.05863 18.753 7.99555C18.753 7.93247 18.7406 7.87001 18.7164 7.81174C18.6923 7.75347 18.6569 7.70053 18.6122 7.65595L16.3442 5.38795C16.2994 5.34346 16.2462 5.30827 16.1877 5.28438C16.1292 5.26049 16.0666 5.24838 16.0034 5.24875C15.8767 5.24865 15.755 5.29869 15.665 5.38795L14.729 6.32635C14.5189 6.22567 14.3034 6.13673 14.0834 6.05995V4.73275C14.0834 4.60544 14.0329 4.48336 13.9428 4.39334C13.8528 4.30332 13.7307 4.25275 13.6034 4.25275H10.397C10.2697 4.25275 10.1476 4.30332 10.0576 4.39334C9.9676 4.48336 9.91703 4.60544 9.91703 4.73275V6.05995C9.69707 6.13673 9.48154 6.22567 9.27143 6.32635L8.33543 5.38795C8.24365 5.30119 8.12213 5.25286 7.99583 5.25286C7.86953 5.25286 7.74802 5.30119 7.65623 5.38795L5.38824 7.65595C5.34361 7.70053 5.3082 7.75347 5.28405 7.81174C5.25989 7.87001 5.24746 7.93247 5.24746 7.99555C5.24746 8.05863 5.25989 8.12109 5.28405 8.17936C5.3082 8.23763 5.34361 8.29057 5.38824 8.33515L6.32663 9.27115C6.22554 9.48107 6.13659 9.69662 6.06023 9.91675H4.73303C4.60573 9.91675 4.48364 9.96732 4.39362 10.0573C4.30361 10.1474 4.25303 10.2694 4.25303 10.3967V13.6031C4.25303 13.7305 4.30361 13.8525 4.39362 13.9426C4.48364 14.0326 4.60573 14.0831 4.73303 14.0831H6.06023C6.13659 14.3033 6.22554 14.5188 6.32663 14.7287L5.38824 15.6647C5.34361 15.7093 5.3082 15.7623 5.28405 15.8205C5.25989 15.8788 5.24746 15.9413 5.24746 16.0043C5.24746 16.0674 5.25989 16.1299 5.28405 16.1882C5.3082 16.2464 5.34361 16.2994 5.38824 16.3439L7.65623 18.6119C7.70109 18.6564 7.75428 18.6916 7.81276 18.7155C7.87124 18.7394 7.93386 18.7515 7.99703 18.7511C8.12379 18.7512 8.24544 18.7012 8.33543 18.6119L9.27143 17.6735C9.48154 17.7742 9.69707 17.8632 9.91703 17.9399V19.2671C9.91703 19.3945 9.9676 19.5165 10.0576 19.6066C10.1476 19.6966 10.2697 19.7471 10.397 19.7471H13.6034C13.7307 19.7471 13.8528 19.6966 13.9428 19.6066C14.0329 19.5165 14.0834 19.3945 14.0834 19.2671V17.9399C14.3034 17.8632 14.5189 17.7742 14.729 17.6735L15.665 18.6119C15.7568 18.6987 15.8783 18.747 16.0046 18.747C16.1309 18.747 16.2524 18.6987 16.3442 18.6119L18.6122 16.3439C18.6569 16.2994 18.6923 16.2464 18.7164 16.1882C18.7406 16.1299 18.753 16.0674 18.753 16.0043C18.753 15.9413 18.7406 15.8788 18.7164 15.8205C18.6923 15.7623 18.6569 15.7093 18.6122 15.6647ZM16.0034 17.5847L15.1586 16.7399C15.0849 16.6666 14.9893 16.6193 14.8863 16.605C14.7832 16.5907 14.6784 16.6103 14.5874 16.6607C14.2341 16.8561 13.8597 17.0107 13.4714 17.1215C13.3713 17.1502 13.2832 17.2106 13.2204 17.2938C13.1576 17.3769 13.1236 17.4782 13.1234 17.5823V18.7823H10.877V17.5823C10.8769 17.4782 10.8429 17.3769 10.7801 17.2938C10.7173 17.2106 10.6292 17.1502 10.529 17.1215C10.1408 17.0107 9.7664 16.8561 9.41303 16.6607C9.3221 16.6103 9.21723 16.5907 9.11422 16.605C9.0112 16.6193 8.91561 16.6666 8.84183 16.7399L7.99703 17.5919L6.40824 16.0031L7.25303 15.1583C7.32633 15.0846 7.37369 14.989 7.38797 14.886C7.40226 14.783 7.3827 14.6781 7.33223 14.5871C7.13647 14.234 6.98186 13.8595 6.87143 13.4711C6.84279 13.371 6.78234 13.2829 6.69922 13.2201C6.61609 13.1573 6.5148 13.1233 6.41063 13.1231H5.21063V10.8767H6.41063C6.5148 10.8766 6.61609 10.8426 6.69922 10.7798C6.78234 10.717 6.84279 10.6289 6.87143 10.5287C6.98186 10.1404 7.13647 9.76591 7.33223 9.41275C7.3827 9.32181 7.40226 9.21694 7.38797 9.11393C7.37369 9.01092 7.32633 8.91533 7.25303 8.84155L6.40824 7.99675L7.99703 6.40795L8.84183 7.25275C8.91561 7.32605 9.0112 7.3734 9.11422 7.38769C9.21723 7.40197 9.3221 7.38241 9.41303 7.33195C9.7664 7.13661 10.1408 6.98203 10.529 6.87115C10.6292 6.8425 10.7173 6.78206 10.7801 6.69893C10.8429 6.61581 10.8769 6.51451 10.877 6.41035V5.21035H13.1234V6.41035C13.1236 6.51451 13.1576 6.61581 13.2204 6.69893C13.2832 6.78206 13.3713 6.8425 13.4714 6.87115C13.8597 6.98203 14.2341 7.13661 14.5874 7.33195C14.6784 7.38241 14.7832 7.40197 14.8863 7.38769C14.9893 7.3734 15.0849 7.32605 15.1586 7.25275L16.0034 6.40795L17.5922 7.99675L16.7474 8.84155C16.6741 8.91533 16.6268 9.01092 16.6125 9.11393C16.5982 9.21694 16.6178 9.32181 16.6682 9.41275C16.864 9.76591 17.0186 10.1404 17.129 10.5287C17.1577 10.6289 17.2181 10.717 17.3013 10.7798C17.3844 10.8426 17.4857 10.8766 17.5898 10.8767H18.7898V13.1231H17.5898C17.4857 13.1233 17.3844 13.1573 17.3013 13.2201C17.2181 13.2829 17.1577 13.371 17.129 13.4711C17.0186 13.8595 16.864 14.234 16.6682 14.5871C16.6178 14.6781 16.5982 14.783 16.6125 14.886C16.6268 14.989 16.6741 15.0846 16.7474 15.1583L17.5922 16.0031L16.0034 17.5847ZM12.0002 7.59595C11.1292 7.59595 10.2777 7.85424 9.5535 8.33816C8.82927 8.82207 8.2648 9.50988 7.93147 10.3146C7.59814 11.1193 7.51093 12.0048 7.68086 12.8591C7.85079 13.7134 8.27023 14.4981 8.88614 15.114C9.50205 15.73 10.2868 16.1494 11.1411 16.3193C11.9953 16.4893 12.8808 16.402 13.6856 16.0687C14.4903 15.7354 15.1781 15.1709 15.662 14.4467C16.1459 13.7224 16.4042 12.871 16.4042 11.9999C16.403 10.8323 15.9386 9.71289 15.1129 8.88725C14.2873 8.06162 13.1679 7.59722 12.0002 7.59595ZM12.0002 15.4439C11.3191 15.4439 10.6532 15.242 10.0869 14.8635C9.52049 14.4851 9.07906 13.9472 8.81839 13.3179C8.55772 12.6886 8.48952 11.9961 8.62241 11.3281C8.7553 10.66 9.08331 10.0463 9.56496 9.56467C10.0466 9.08302 10.6603 8.75501 11.3283 8.62212C11.9964 8.48924 12.6889 8.55744 13.3182 8.81811C13.9475 9.07878 14.4854 9.5202 14.8638 10.0866C15.2422 10.6529 15.4442 11.3188 15.4442 11.9999C15.443 12.913 15.0797 13.7882 14.4341 14.4338C13.7885 15.0794 12.9132 15.4427 12.0002 15.4439ZM23.2802 11.9999C23.2801 9.95197 22.7225 7.94265 21.6671 6.18755C20.6117 4.43245 19.0984 2.99779 17.2895 2.03748C15.4806 1.07717 13.4444 0.627442 11.3993 0.736539C9.35427 0.845636 7.37748 1.50944 5.68103 2.65675C5.27181 2.33165 4.76367 2.15634 4.24103 2.15995C3.80106 2.15928 3.37003 2.28422 2.99861 2.52007C2.62718 2.75592 2.3308 3.09289 2.14428 3.49138C1.95777 3.88987 1.88887 4.33332 1.94569 4.76961C2.00251 5.20591 2.18268 5.61692 2.46503 5.95435C1.07706 8.13207 0.478351 10.7201 0.768911 13.2861C1.05947 15.8522 2.22171 18.2408 4.06147 20.053C5.90124 21.8653 8.30713 22.9914 10.8772 23.2432C13.4474 23.4951 16.0261 22.8574 18.1826 21.4367C18.6262 21.8015 19.1897 21.988 19.7633 21.96C20.3368 21.9319 20.8794 21.6914 21.2853 21.2852C21.6913 20.879 21.9314 20.3362 21.959 19.7626C21.9866 19.189 21.7997 18.6257 21.4346 18.1823C22.6428 16.3471 23.2846 14.1971 23.2802 11.9999ZM4.25303 3.11995C4.61203 3.11995 4.95633 3.26256 5.21017 3.51641C5.46402 3.77026 5.60664 4.11455 5.60664 4.47355C5.60664 4.83255 5.46402 5.17684 5.21017 5.43069C4.95633 5.68454 4.61203 5.82715 4.25303 5.82715C3.89462 5.82526 3.55142 5.68204 3.29798 5.4286C3.04454 5.17516 2.90133 4.83196 2.89943 4.47355C2.90007 4.11475 3.04288 3.77082 3.2966 3.51711C3.55031 3.2634 3.89423 3.12058 4.25303 3.11995ZM12.0002 22.3199C10.1599 22.3202 8.35289 21.8283 6.76657 20.8953C5.18026 19.9622 3.87232 18.6219 2.97828 17.0133C2.08424 15.4047 1.63664 13.5862 1.68186 11.7464C1.72707 9.90658 2.26346 8.11232 3.23543 6.54955H3.25943C3.33023 6.58523 3.40317 6.61649 3.47783 6.64315C3.54983 6.66715 3.62183 6.68875 3.69623 6.70795L3.76583 6.72235C3.82343 6.73355 3.88103 6.74315 3.93863 6.75115H4.00823C4.08787 6.76082 4.16802 6.76563 4.24823 6.76555C4.86164 6.76491 5.44975 6.52096 5.8835 6.08721C6.31724 5.65346 6.5612 5.06536 6.56183 4.45195C6.56183 4.36795 6.56183 4.28395 6.54743 4.19995C6.54743 4.17595 6.54743 4.15195 6.54743 4.12795C6.53783 4.06555 6.52583 4.00315 6.51143 3.94075L6.49703 3.87355C6.47543 3.79435 6.45143 3.71515 6.42263 3.63355L6.40824 3.60235C6.38183 3.53515 6.35063 3.46795 6.31943 3.40315L6.30503 3.37435C8.28088 2.05802 10.6502 1.4632 13.0135 1.69018C15.3767 1.91715 17.5895 2.95204 19.2787 4.62037C20.9679 6.2887 22.0302 8.48843 22.2865 10.8487C22.5428 13.209 21.9775 15.5855 20.6858 17.5775H20.657C20.5916 17.5441 20.5243 17.5144 20.4554 17.4887H20.4338C20.3553 17.4609 20.2751 17.4377 20.1938 17.4191L20.1266 17.4023C20.0666 17.4023 20.0066 17.3783 19.9466 17.3711H19.877C19.7974 17.3618 19.7172 17.3569 19.637 17.3567C19.0236 17.3574 18.4355 17.6013 18.0018 18.0351C17.568 18.4688 17.3241 19.0569 17.3234 19.6703C17.3235 19.7506 17.3283 19.8307 17.3378 19.9103C17.3378 19.9343 17.3378 19.9583 17.3378 19.9823C17.3378 20.0423 17.357 20.1023 17.369 20.1623C17.3735 20.185 17.3791 20.2074 17.3858 20.2295C17.4039 20.3109 17.4271 20.3911 17.4554 20.4695C17.4545 20.4791 17.4545 20.4888 17.4554 20.4983C17.4795 20.5648 17.5076 20.6297 17.5394 20.6927C17.5432 20.7036 17.548 20.714 17.5538 20.7239C15.8935 21.7764 13.966 22.3303 12.0002 22.3199ZM19.6394 20.9951C19.29 20.9804 18.9597 20.8313 18.7177 20.5788C18.4756 20.3263 18.3405 19.9901 18.3405 19.6403C18.3405 19.2906 18.4756 18.9544 18.7177 18.7019C18.9597 18.4494 19.29 18.3003 19.6394 18.2855C19.9587 18.286 20.2677 18.3981 20.513 18.6023C20.7284 18.7808 20.8833 19.0215 20.9565 19.2915C21.0297 19.5614 21.0176 19.8474 20.9219 20.1102C20.8263 20.373 20.6517 20.5998 20.4221 20.7595C20.1925 20.9192 19.9191 21.0041 19.6394 21.0023V20.9951ZM14.2682 10.3199C14.3129 10.3645 14.3483 10.4175 14.3724 10.4757C14.3966 10.534 14.409 10.5965 14.409 10.6595C14.409 10.7226 14.3966 10.7851 14.3724 10.8434C14.3483 10.9016 14.3129 10.9546 14.2682 10.9991L11.5946 13.6799C11.5501 13.7246 11.4971 13.76 11.4388 13.7841C11.3806 13.8083 11.3181 13.8207 11.255 13.8207C11.192 13.8207 11.1295 13.8083 11.0712 13.7841C11.013 13.76 10.96 13.7246 10.9154 13.6799L9.73223 12.4943C9.64217 12.4043 9.59157 12.2821 9.59157 12.1547C9.59157 12.0274 9.64217 11.9052 9.73223 11.8151C9.8223 11.7251 9.94446 11.6745 10.0718 11.6745C10.1992 11.6745 10.3214 11.7251 10.4114 11.8151L11.2538 12.6599L13.589 10.3199C13.6336 10.2753 13.6866 10.2399 13.7448 10.2158C13.8031 10.1916 13.8656 10.1792 13.9286 10.1792C13.9917 10.1792 14.0542 10.1916 14.1124 10.2158C14.1707 10.2399 14.2237 10.2753 14.2682 10.3199Z" fill="currentColor" stroke="currentColor" strokeWidth="0.2"/>
</g>
<defs>
<clip-path id="clip0_2038_6385">
<rect width="24" height="24" fill="white"/>
</clip-path>
</defs>
</svg>
