<svg width="20" height="20" viewBox="0 0 20 20" fill="none" xmlns="http://www.w3.org/2000/svg">
<path d="M14.2249 8.4317C15.666 8.4317 17.1075 8.42867 18.549 8.4317C19.2782 8.43387 19.786 8.80085 19.9515 9.44339C19.9852 9.598 19.9998 9.75618 19.9948 9.91436C19.9974 12.774 19.9974 15.6351 19.9948 18.4979C19.9948 19.2665 19.6265 19.7921 18.9658 19.9541C18.818 19.9851 18.667 19.9983 18.516 19.9936C15.6406 19.9962 12.7649 19.9962 9.88916 19.9936C8.98363 19.9936 8.4325 19.4468 8.43164 18.543C8.42904 15.6606 8.42904 12.7777 8.43164 9.89443C8.43164 8.97286 8.97106 8.43343 9.89653 8.4304C11.3419 8.42823 12.7834 8.4317 14.2249 8.4317ZM9.46369 14.2037C9.46369 15.6307 9.46369 17.0574 9.46369 18.484C9.46369 18.8866 9.54471 18.9684 9.94029 18.9684H18.458C18.8969 18.9684 18.9684 18.8957 18.9684 18.4511C18.9684 15.612 18.9684 12.7728 18.9684 9.93342C18.9684 9.54738 18.8852 9.46202 18.5017 9.46202C15.6421 9.46202 12.7813 9.46202 9.91906 9.46202C9.55208 9.46202 9.46456 9.55171 9.46456 9.92259C9.46369 11.3498 9.4634 12.7768 9.46369 14.2037Z" fill="#14171B"/>
<path d="M0.00141798 7.90647C0.00141798 5.75918 0.00141798 3.61202 0.00141798 1.46502C0.00141798 0.731921 0.374898 0.208528 1.02221 0.0464847C1.16322 0.0150398 1.30759 0.00121386 1.45201 0.0053239C4.26828 0.00272427 7.08455 0.0053239 9.90385 0.000557913C10.1741 -0.00593751 10.4428 0.0443457 10.6924 0.148159C10.9421 0.251971 11.1672 0.407004 11.3531 0.603239C12.2746 1.53651 13.2019 2.46371 14.1352 3.38485C14.5321 3.77479 14.7366 4.23839 14.7383 4.79211C14.7383 5.45459 14.7422 6.11749 14.7383 6.7804C14.7353 7.13438 14.555 7.34755 14.2617 7.36575C13.9497 7.38525 13.7249 7.19244 13.7132 6.86359C13.6993 6.48231 13.7075 6.10016 13.7067 5.71802C13.7067 5.41472 13.7032 5.11143 13.7067 4.80814C13.7106 4.68212 13.6876 4.55672 13.6395 4.4402C13.5913 4.32369 13.519 4.21873 13.4272 4.13224C12.481 3.19464 11.5383 2.25299 10.5993 1.30731C10.5124 1.21619 10.4073 1.14437 10.2909 1.09652C10.1744 1.04867 10.0492 1.02586 9.92335 1.02958C7.10621 1.03276 4.28893 1.03276 1.47151 1.02958C1.13269 1.02958 1.03261 1.12966 1.03261 1.46588C1.03261 5.75268 1.03261 10.0396 1.03261 14.3267C1.03261 14.6542 1.14092 14.7569 1.47844 14.76C1.86145 14.7652 2.08806 14.9619 2.08069 15.2825C2.07332 15.5905 1.84109 15.7838 1.47411 15.7851C0.569004 15.7886 0.000984709 15.2318 0.000984709 14.3224C-0.000459531 12.1849 -0.000315107 10.0463 0.00141798 7.90647Z" fill="#14171B"/>
<path d="M6.06807 16.8067C5.78269 16.5248 5.49702 16.2424 5.21106 15.9596C5.05638 15.8063 5.02865 15.6165 5.08931 15.4202C5.14693 15.2339 5.29121 15.097 5.47925 15.0957C5.63046 15.0957 5.82587 15.139 5.92769 15.2374C6.53947 15.8171 7.13132 16.4181 7.72187 17.019C7.9385 17.2404 7.9359 17.532 7.71753 17.7534C7.13117 18.3484 6.54062 18.9391 5.94588 19.5255C5.72578 19.7421 5.41513 19.7421 5.20932 19.5419C5.00352 19.3418 5.00828 19.016 5.23055 18.7893C5.50525 18.509 5.78774 18.2356 6.06677 17.9592L6.04467 17.9042C5.73228 17.9042 5.41989 17.9072 5.1075 17.9042C4.51652 17.8972 4.00959 17.694 3.61835 17.2408C3.33326 16.9081 3.17034 16.522 3.16731 16.0771C3.16298 15.4722 3.16298 14.8674 3.16731 14.2625C3.16731 13.9263 3.36792 13.714 3.66991 13.711C3.9719 13.7079 4.18983 13.9306 4.19243 14.2742C4.19763 14.8288 4.19243 15.3834 4.19243 15.9376C4.19547 16.5138 4.54338 16.8643 5.1192 16.8721C5.42639 16.8765 5.73315 16.8721 6.03991 16.8721L6.06807 16.8067Z" fill="#14171B"/>
<path d="M5.24958 4.19786C4.39213 4.19786 3.53469 4.20176 2.67768 4.19786C2.25567 4.19526 2.0009 3.85125 2.13955 3.4925C2.22014 3.28236 2.39951 3.17231 2.67291 3.17188C3.80433 3.17188 4.93546 3.17188 6.0663 3.17188C6.64948 3.17188 7.2331 3.17188 7.81671 3.17188C8.18153 3.17188 8.39037 3.35558 8.396 3.6671C8.40163 3.98556 8.17936 4.19656 7.82148 4.1983C6.96404 4.2009 6.10572 4.19786 5.24958 4.19786Z" fill="#14171B"/>
<path d="M5.26586 6.29687C4.45189 6.29687 3.63791 6.29687 2.82394 6.29687C2.72257 6.29933 2.62116 6.29382 2.52065 6.28041C2.40595 6.2611 2.3015 6.20262 2.22509 6.11492C2.14869 6.02722 2.10507 5.91574 2.10167 5.79947C2.09924 5.68316 2.13656 5.56949 2.20746 5.47724C2.27835 5.385 2.37859 5.31969 2.49162 5.29211C2.56156 5.27509 2.63324 5.26622 2.70522 5.26568C4.39816 5.26568 6.09081 5.26568 7.78317 5.26568C7.891 5.26448 7.9982 5.28222 8.09989 5.31811C8.31176 5.39783 8.42485 5.6214 8.39408 5.86403C8.38006 5.96803 8.33285 6.06472 8.25947 6.13974C8.1861 6.21476 8.09047 6.26409 7.98681 6.28041C7.90846 6.29146 7.82935 6.29624 7.75024 6.2947C6.92182 6.2947 6.09341 6.2947 5.26499 6.2947L5.26586 6.29687Z" fill="#14171B"/>
<path d="M11.7082 5.24973C11.4132 5.24973 11.1181 5.25277 10.8226 5.24973C10.4688 5.24757 10.1301 5.10587 9.88016 4.85544C9.63021 4.605 9.48917 4.26605 9.48769 3.91222C9.48206 3.32947 9.48466 2.74629 9.48769 2.1631C9.48769 1.82168 9.6961 1.58988 9.99592 1.58598C10.2957 1.58209 10.5119 1.82125 10.5128 2.17567C10.5128 2.71552 10.5128 3.25581 10.5128 3.79567C10.5128 4.11153 10.6246 4.22071 10.9435 4.22158C11.4833 4.22158 12.0232 4.22158 12.5631 4.22158C12.917 4.22158 13.1527 4.43345 13.148 4.7415C13.1432 5.04956 12.9196 5.2454 12.5722 5.24973C12.284 5.24973 11.9963 5.24973 11.7082 5.24973Z" fill="#14171B"/>
<path d="M4.72417 8.40099C4.04046 8.40099 3.35676 8.40099 2.67262 8.40099C2.33251 8.40099 2.09984 8.18912 2.10157 7.89059C2.10331 7.59207 2.3416 7.37717 2.67826 7.3763C4.04624 7.37457 5.41408 7.37457 6.78178 7.3763C7.11756 7.3763 7.35283 7.5977 7.35153 7.89623C7.35023 8.19475 7.12146 8.40099 6.77614 8.40185C6.09201 8.40272 5.4083 8.40142 4.72417 8.40099Z" fill="#14171B"/>
<path d="M4.72033 10.5182C4.04356 10.5182 3.36722 10.5182 2.69045 10.5182C2.33473 10.5182 2.09687 10.305 2.10163 9.99825C2.10683 9.70016 2.3408 9.49219 2.68395 9.49219C4.04442 9.49219 5.4049 9.49219 6.76537 9.49219C7.12109 9.49219 7.35765 9.70449 7.35289 10.0121C7.34856 10.3115 7.11589 10.5173 6.77404 10.5182C6.0886 10.5195 5.40447 10.5182 4.72033 10.5182Z" fill="#14171B"/>
<path d="M4.72029 11.6004C5.40443 11.6004 6.08813 11.6004 6.77184 11.6004C7.11845 11.6004 7.34765 11.8032 7.34982 12.103C7.35199 12.4028 7.11282 12.6251 6.761 12.6255C5.40746 12.6255 4.05407 12.6255 2.70081 12.6255C2.3451 12.6255 2.09813 12.4163 2.1016 12.1138C2.1042 11.8478 2.3074 11.5861 2.69042 11.5939C3.36849 11.6121 4.04526 11.6004 4.72029 11.6004Z" fill="#14171B"/>
<path d="M9.46897 14.21C9.46897 12.7831 9.46897 11.3562 9.46897 9.92932C9.46897 9.55844 9.55562 9.46918 9.92347 9.46875C12.7831 9.46875 15.644 9.46875 18.5062 9.46875C18.8896 9.46875 18.9728 9.5554 18.9728 9.94015C18.9728 12.7792 18.9728 15.6185 18.9728 18.4578C18.9728 18.9024 18.9013 18.9752 18.4624 18.9752H9.94557C9.54999 18.9752 9.46897 18.8933 9.46897 18.4908C9.46868 17.0636 9.46868 15.6367 9.46897 14.21ZM14.4408 11.7837C14.4265 11.4657 14.4282 11.2343 14.4035 11.0038C14.3407 10.4185 13.9923 10.094 13.4845 10.1334C13.03 10.1681 12.7046 10.5368 12.6925 11.0537C12.6739 11.8335 12.9486 12.5311 13.3078 13.2062C13.3589 13.3019 13.3866 13.4453 13.3554 13.5441C13.1522 14.1801 12.9343 14.8114 12.7055 15.4392C12.6739 15.5259 12.5755 15.6125 12.4889 15.6533C11.8498 15.9631 11.2484 16.3287 10.7484 16.8378C10.5805 17.0042 10.4375 17.1939 10.3238 17.4011C10.1748 17.6832 10.2081 17.9773 10.4213 18.2269C10.6345 18.4765 10.9035 18.5558 11.219 18.4899C11.5695 18.4167 11.8515 18.2204 12.1072 17.9817C12.589 17.5311 12.9065 16.9691 13.1964 16.3859C13.2526 16.2748 13.3453 16.1864 13.459 16.1355C14.0222 15.9245 14.5976 15.7365 15.1669 15.5359C15.3073 15.4865 15.4143 15.509 15.5417 15.5965C16.105 15.9865 16.725 16.2126 17.4238 16.1762C17.9147 16.1511 18.2284 15.9223 18.3216 15.5168C18.4082 15.1268 18.199 14.7109 17.77 14.5203C17.5387 14.4189 17.2726 14.3318 17.0265 14.3422C16.6071 14.3604 16.192 14.4657 15.7735 14.5233C15.6843 14.5359 15.5547 14.5363 15.5023 14.4839C15.1158 14.097 14.7406 13.6988 14.3727 13.2945C14.3203 13.2373 14.2995 13.1264 14.3069 13.0437C14.3485 12.5987 14.4013 12.1485 14.4408 11.7833V11.7837Z" fill="#FCF4DD"/>
<path d="M14.4378 11.7725C14.3984 12.1377 14.3455 12.5879 14.3078 13.0385C14.3004 13.1213 14.3212 13.2322 14.3737 13.2894C14.7415 13.6936 15.1167 14.0918 15.5032 14.4787C15.5556 14.5311 15.6852 14.5307 15.7744 14.5181C16.193 14.4605 16.608 14.3552 17.0275 14.337C17.2736 14.3266 17.5396 14.4137 17.771 14.5151C18.1999 14.7036 18.4113 15.1217 18.3225 15.5116C18.2294 15.9172 17.9157 16.1459 17.4248 16.1711C16.7259 16.2075 16.1068 15.9804 15.5426 15.5913C15.4153 15.5047 15.3082 15.4813 15.1679 15.5307C14.5985 15.7313 14.0249 15.9206 13.4599 16.1303C13.3463 16.1813 13.2536 16.2697 13.1973 16.3808C12.9075 16.964 12.5908 17.5259 12.1081 17.9765C11.8525 18.2152 11.5704 18.4098 11.2199 18.4847C10.9045 18.5506 10.6315 18.467 10.4222 18.2217C10.213 17.9765 10.1757 17.678 10.3247 17.3959C10.4385 17.1887 10.5815 16.999 10.7493 16.8327C11.2493 16.3236 11.8507 15.9579 12.4898 15.6481C12.5765 15.6048 12.6744 15.5212 12.7064 15.4341C12.9335 14.8063 13.1514 14.175 13.3563 13.5389C13.3875 13.4402 13.3598 13.2967 13.3087 13.201C12.9495 12.5259 12.6748 11.8284 12.6934 11.0485C12.706 10.5316 13.031 10.1629 13.4855 10.1282C13.9933 10.0888 14.3416 10.4133 14.4044 10.9987C14.4252 11.2231 14.4235 11.4545 14.4378 11.7725ZM14.6588 14.8236L14.0128 14.2603C13.9291 14.5121 13.8334 14.8002 13.7233 15.1303C14.0504 15.0259 14.3334 14.931 14.6588 14.8236ZM16.5998 15.2005C16.871 15.3591 17.2671 15.4046 17.4594 15.2993C17.2341 15.1212 16.9048 15.0836 16.5998 15.1992V15.2005ZM11.135 17.5822L11.2108 17.6624L11.8715 17.048L11.8065 16.9774L11.135 17.5822Z" fill="#14171B"/>
<path d="M14.662 14.8358C14.3366 14.9433 14.0554 15.036 13.7266 15.1434C13.8366 14.8133 13.9324 14.5252 14.016 14.2734L14.662 14.8358Z" fill="#FCF4DD"/>
<path d="M16.6016 15.2078C16.9049 15.0908 17.2359 15.1285 17.4612 15.3066C17.2688 15.4131 16.8728 15.3677 16.6016 15.2078Z" fill="#FCF4DD"/>
<path d="M11.1328 17.591L11.8061 16.9844L11.8711 17.055L11.2086 17.6694L11.1328 17.591Z" fill="#FCF4DD"/>
</svg>
