<svg width="24" height="24" viewBox="0 0 24 24" fill="none" xmlns="http://www.w3.org/2000/svg">
<g id="bot 1">
<path id="Vector" fill-rule="evenodd" clip-rule="evenodd" d="M12 2.25C11.1715 2.25 10.5 2.92157 10.5 3.75C10.5 4.30521 10.8017 4.78997 11.25 5.04933V5.25H6.75C5.09314 5.25 3.75 6.59314 3.75 8.25V15.75C3.75 17.4068 5.09314 18.75 6.75 18.75V21C6.75 21.4142 7.08579 21.75 7.5 21.75C7.91423 21.75 8.25 21.4142 8.25 21V18.75H15.75V21C15.75 21.4142 16.0858 21.75 16.5 21.75C16.9142 21.75 17.25 21.4142 17.25 21V18.75C18.9068 18.75 20.25 17.4068 20.25 15.75V8.25C20.25 6.59314 18.9068 5.25 17.25 5.25H12.75V5.04933C13.1983 4.78997 13.5 4.30521 13.5 3.75C13.5 2.92157 12.8285 2.25 12 2.25ZM17.25 17.25H16.5H7.5H6.75C5.92157 17.25 5.25 16.5785 5.25 15.75V8.25C5.25 7.42157 5.92157 6.75 6.75 6.75H17.25C18.0785 6.75 18.75 7.42157 18.75 8.25V15.75C18.75 16.5785 18.0785 17.25 17.25 17.25ZM15 8.25C15.4142 8.25 15.75 8.58577 15.75 9V10.5C15.75 10.9142 15.4142 11.25 15 11.25C14.5858 11.25 14.25 10.9142 14.25 10.5V9C14.25 8.58577 14.5858 8.25 15 8.25ZM9.75 9C9.75 8.58577 9.41423 8.25 9 8.25C8.58577 8.25 8.25 8.58577 8.25 9V10.5C8.25 10.9142 8.58577 11.25 9 11.25C9.41423 11.25 9.75 10.9142 9.75 10.5V9ZM9.75 13.5C9.75 13.0858 9.41423 12.75 9 12.75C8.58577 12.75 8.25 13.0858 8.25 13.5V14.25C8.25 15.0785 8.92155 15.75 9.75 15.75H14.25C15.0785 15.75 15.75 15.0785 15.75 14.25V13.5C15.75 13.0858 15.4142 12.75 15 12.75C14.5858 12.75 14.25 13.0858 14.25 13.5V14.25H9.75V13.5Z" fill="currentColor"/>
</g>
</svg>
