<svg width="24" height="24" viewBox="0 0 24 24" fill="none" xmlns="http://www.w3.org/2000/svg">
<g id="Group">
<path id="Vector" d="M16.3223 23.9997H2.66006C1.19328 23.9997 0 23.0259 0 21.8289V2.17081C0 0.973803 1.19328 0 2.66006 0H16.3223C17.789 0 18.9823 0.973803 18.9823 2.17081V15.5542C18.9823 15.6946 18.8432 15.8081 18.6712 15.8081C18.4991 15.8081 18.36 15.6946 18.36 15.5542V2.17081C18.36 1.25388 17.4458 0.50785 16.3223 0.50785H2.66006C1.53648 0.50785 0.62231 1.25388 0.62231 2.17081V21.8289C0.62231 22.7459 1.53648 23.4919 2.66006 23.4919H16.3223C16.6051 23.4919 16.882 23.4444 17.1453 23.3507C17.3036 23.2946 17.4863 23.354 17.5547 23.4822C17.6235 23.6107 17.5513 23.7605 17.3936 23.8164C17.0516 23.938 16.6913 23.9997 16.3223 23.9997Z" fill="currentColor"/>
<path id="Vector_2" d="M11.4539 22.4495H7.5299C7.35815 22.4495 7.21875 22.336 7.21875 22.1956C7.21875 22.0552 7.35815 21.9417 7.5299 21.9417H11.4539C11.6259 21.9417 11.765 22.0552 11.765 22.1956C11.765 22.336 11.6256 22.4495 11.4539 22.4495Z" fill="currentColor"/>
<path id="Vector_3" d="M2.99945 3.38178C2.4039 3.38178 1.91943 2.98642 1.91943 2.5004C1.91943 2.01439 2.4039 1.61877 2.99945 1.61877C3.595 1.61877 4.07947 2.01439 4.07947 2.5004C4.07947 2.98642 3.595 3.38178 2.99945 3.38178ZM2.99945 2.12662C2.74711 2.12662 2.54174 2.29422 2.54174 2.5004C2.54174 2.70634 2.74711 2.87393 2.99945 2.87393C3.2518 2.87393 3.45716 2.70634 3.45716 2.5004C3.45716 2.29422 3.2518 2.12662 2.99945 2.12662Z" fill="currentColor"/>
<path id="Vector_4" d="M18.6702 24C15.7329 24 13.3433 22.0488 13.3433 19.6508C13.3433 17.2524 15.7329 15.3013 18.6702 15.3013C21.6091 15.3013 24 17.2524 24 19.6508C24 22.0488 21.6091 24 18.6702 24ZM18.6702 15.8091C16.0761 15.8091 13.9656 17.5325 13.9656 19.6508C13.9656 21.769 16.0761 23.4921 18.6702 23.4921C21.2659 23.4921 23.3777 21.769 23.3777 19.6508C23.3777 17.5325 21.2659 15.8091 18.6702 15.8091Z" fill="currentColor"/>
<path id="Vector_5" d="M18.6719 21.4318H17.8131C17.641 21.4318 17.502 21.3183 17.502 21.1778C17.502 21.0374 17.641 20.9239 17.8131 20.9239H18.6719C18.974 20.9239 19.2195 20.7236 19.2195 20.477V20.3508C19.2195 20.1042 18.974 19.9039 18.6719 19.9039C18.0269 19.9039 17.502 19.4755 17.502 18.9491V18.8227C17.502 18.2963 18.0269 17.8679 18.6719 17.8679H19.5307C19.7028 17.8679 19.8418 17.9814 19.8418 18.1218C19.8418 18.2623 19.7028 18.3758 19.5307 18.3758H18.6719C18.3698 18.3758 18.1243 18.5761 18.1243 18.8227V18.9491C18.1243 19.1957 18.3698 19.396 18.6719 19.396C19.3169 19.396 19.8418 19.8244 19.8418 20.3508V20.477C19.8418 21.0034 19.3169 21.4318 18.6719 21.4318Z" fill="currentColor"/>
<path id="Vector_6" d="M18.6715 21.8472C18.4994 21.8472 18.3604 21.7337 18.3604 21.5933V21.1774C18.3604 21.037 18.4994 20.9235 18.6715 20.9235C18.8436 20.9235 18.9827 21.037 18.9827 21.1774V21.5933C18.9827 21.7337 18.8436 21.8472 18.6715 21.8472Z" fill="currentColor"/>
<path id="Vector_7" d="M18.6715 18.3761C18.4994 18.3761 18.3604 18.2626 18.3604 18.1222V17.7078C18.3604 17.5674 18.4994 17.4539 18.6715 17.4539C18.8436 17.4539 18.9827 17.5674 18.9827 17.7078V18.1222C18.9827 18.2626 18.8436 18.3761 18.6715 18.3761Z" fill="currentColor"/>
<path id="Vector_8" d="M9.49158 14.9537C6.77831 14.9537 4.57129 13.1523 4.57129 10.9384V9.67153C4.57129 9.53111 4.71069 9.4176 4.88244 9.4176C5.0542 9.4176 5.1936 9.53111 5.1936 9.67153V10.9384C5.1936 12.8725 7.12183 14.4458 9.49158 14.4458C11.8616 14.4458 13.7899 12.8725 13.7899 10.9384V9.67153C13.7899 9.53111 13.929 9.4176 14.101 9.4176C14.2731 9.4176 14.4122 9.53111 14.4122 9.67153V10.9384C14.4122 13.1523 12.2049 14.9537 9.49158 14.9537Z" fill="currentColor"/>
<path id="Vector_9" d="M6.57491 9.9257H3.88342C3.71166 9.9257 3.57227 9.81219 3.57227 9.67177C3.57227 9.53135 3.71166 9.41785 3.88342 9.41785H6.57491C6.74667 9.41785 6.88606 9.53135 6.88606 9.67177C6.88606 9.81219 6.74698 9.9257 6.57491 9.9257Z" fill="currentColor"/>
<path id="Vector_10" d="M15.0985 9.9257H12.4073C12.2353 9.9257 12.0962 9.81219 12.0962 9.67177C12.0962 9.53135 12.2353 9.41785 12.4073 9.41785H15.0985C15.2706 9.41785 15.4097 9.53135 15.4097 9.67177C15.4097 9.81219 15.2706 9.9257 15.0985 9.9257Z" fill="currentColor"/>
<path id="Vector_11" d="M13.0453 17.9345H5.93762C5.76586 17.9345 5.62646 17.821 5.62646 17.6806C5.62646 17.5401 5.76586 17.4266 5.93762 17.4266H13.0453C13.2174 17.4266 13.3565 17.5401 13.3565 17.6806C13.3565 17.821 13.2174 17.9345 13.0453 17.9345Z" fill="currentColor"/>
<path id="Vector_12" d="M9.49146 13.6406C7.71196 13.6406 6.26416 12.4591 6.26416 11.0069V8.69951C6.26416 7.24731 7.71196 6.0658 9.49146 6.0658C11.271 6.0658 12.7188 7.24731 12.7188 8.69951V11.0069C12.7188 12.4591 11.271 13.6406 9.49146 13.6406ZM9.49146 6.57365C8.05517 6.57365 6.88647 7.52739 6.88647 8.69951V11.0069C6.88647 12.179 8.05486 13.1328 9.49146 13.1328C10.9281 13.1328 12.0964 12.179 12.0964 11.0069V8.69951C12.0964 7.52739 10.9277 6.57365 9.49146 6.57365Z" fill="currentColor"/>
<path id="Vector_13" d="M9.49133 17.9345C9.31926 17.9345 9.18018 17.821 9.18018 17.6806V14.6997C9.18018 14.5593 9.31926 14.4458 9.49133 14.4458C9.6634 14.4458 9.80249 14.5593 9.80249 14.6997V17.6806C9.80249 17.821 9.6634 17.9345 9.49133 17.9345Z" fill="currentColor"/>
</g>
</svg>
