<svg xmlns="http://www.w3.org/2000/svg" width="24" height="24" viewBox="0 0 24 24" fill="none">
  <path d="M8.38875 17.25H2.625C2.00625 17.25 1.5 16.7437 1.5 16.125V3C1.5 2.38125 2.00625 1.875 2.625 1.875H16.125C16.7437 1.875 17.25 2.38125 17.25 3V7.95375C17.25 8.16 17.4188 8.32875 17.625 8.32875C17.8312 8.32875 18 8.16 18 7.95375V3C18 1.965 17.16 1.125 16.125 1.125H2.625C1.59 1.125 0.75 1.965 0.75 3V16.125C0.75 17.16 1.59 18 2.625 18H8.38875C8.595 18 8.76375 17.8312 8.76375 17.625C8.76375 17.4188 8.595 17.25 8.38875 17.25Z" fill="currentColor" stroke="currentColor" strokeWidth="0.1"/>
  <path d="M16.5 9.375C12.7762 9.375 9.75 12.4012 9.75 16.125C9.75 19.8488 12.7762 22.875 16.5 22.875C20.2238 22.875 23.25 19.8488 23.25 16.125C23.25 12.4012 20.2238 9.375 16.5 9.375ZM16.5 22.125C13.1925 22.125 10.5 19.4325 10.5 16.125C10.5 12.8175 13.1925 10.125 16.5 10.125C19.8075 10.125 22.5 12.8175 22.5 16.125C22.5 19.4325 19.8075 22.125 16.5 22.125Z" fill="currentColor" stroke="currentColor" strokeWidth="0.1"/>
  <path d="M21 16.5C21.2063 16.5 21.375 16.3313 21.375 16.125C21.375 15.9187 21.2063 15.75 21 15.75H20.25V14.25H21C21.2063 14.25 21.375 14.0812 21.375 13.875C21.375 13.6688 21.2063 13.5 21 13.5H20.25V12.75C20.25 12.5438 20.0813 12.375 19.875 12.375H19.125V11.625C19.125 11.4187 18.9563 11.25 18.75 11.25C18.5437 11.25 18.375 11.4187 18.375 11.625V12.375H16.875V11.625C16.875 11.4187 16.7063 11.25 16.5 11.25C16.2937 11.25 16.125 11.4187 16.125 11.625V12.375H14.625V11.625C14.625 11.4187 14.4562 11.25 14.25 11.25C14.0438 11.25 13.875 11.4187 13.875 11.625V12.375H13.125C12.9188 12.375 12.75 12.5438 12.75 12.75V13.5H12C11.7937 13.5 11.625 13.6688 11.625 13.875C11.625 14.0812 11.7937 14.25 12 14.25H12.75V15.75H12C11.7937 15.75 11.625 15.9187 11.625 16.125C11.625 16.3313 11.7937 16.5 12 16.5H12.75V18H12C11.7937 18 11.625 18.1687 11.625 18.375C11.625 18.5813 11.7937 18.75 12 18.75H12.75V19.5C12.75 19.7063 12.9188 19.875 13.125 19.875H13.875V20.625C13.875 20.8313 14.0438 21 14.25 21C14.4562 21 14.625 20.8313 14.625 20.625V19.875H16.125V20.625C16.125 20.8313 16.2937 21 16.5 21C16.7063 21 16.875 20.8313 16.875 20.625V19.875H18.375V20.625C18.375 20.8313 18.5437 21 18.75 21C18.9563 21 19.125 20.8313 19.125 20.625V19.875H19.875C20.0813 19.875 20.25 19.7063 20.25 19.5V18.75H21C21.2063 18.75 21.375 18.5813 21.375 18.375C21.375 18.1687 21.2063 18 21 18H20.25V16.5H21ZM19.5 19.125H13.5V13.125H19.5V19.125Z" fill="currentColor" stroke="currentColor" strokeWidth="0.1"/>
  <path d="M14.4938 17.9775C14.6888 18.0487 14.9025 17.9512 14.9775 17.7562L15.1688 17.25H16.335L16.5262 17.7562C16.5825 17.9062 16.725 18 16.8787 18C16.9237 18 16.9688 17.9925 17.01 17.9775C17.205 17.9062 17.3025 17.6887 17.2313 17.4937L16.1063 14.4937C16.05 14.3475 15.9112 14.25 15.7537 14.25C15.5962 14.25 15.4575 14.3475 15.4012 14.4937L14.2762 17.4937C14.205 17.6887 14.3025 17.9025 14.4975 17.9775H14.4938ZM15.75 15.6937L16.0538 16.5H15.45L15.7537 15.6937H15.75ZM18 18C18.2063 18 18.375 17.8312 18.375 17.625V14.625C18.375 14.4187 18.2063 14.25 18 14.25C17.7937 14.25 17.625 14.4187 17.625 14.625V17.625C17.625 17.8312 17.7937 18 18 18ZM10.5 9.74997C10.5 9.64497 10.4813 9.54372 10.4513 9.44247C10.8188 8.89497 11.07 8.08497 11.3287 7.22622C11.5125 6.61497 11.7037 5.98872 11.9288 5.53122C12.0638 5.59122 12.2175 5.62497 12.375 5.62497C12.6525 5.62497 12.9038 5.51997 13.0988 5.35122C13.365 5.81622 13.5825 6.53247 13.7963 7.23372C13.9012 7.57872 14.0062 7.92372 14.115 8.24622C14.1675 8.39997 14.3138 8.49747 14.4675 8.49747C14.5088 8.49747 14.55 8.48997 14.5912 8.47497C14.7863 8.40747 14.8912 8.19372 14.8237 7.99872C14.715 7.68747 14.6138 7.34997 14.5125 7.01622C14.22 6.05247 13.9425 5.13747 13.4888 4.60122C13.4888 4.56747 13.5 4.52997 13.5 4.49622C13.5 3.87747 12.9937 3.37122 12.375 3.37122C11.7563 3.37122 11.25 3.87747 11.25 4.49622C11.25 4.67247 11.295 4.83747 11.3663 4.98747C11.0588 5.53122 10.83 6.28122 10.6125 7.00872C10.4137 7.66122 10.2112 8.32872 9.9675 8.79372C9.795 8.68497 9.5925 8.62122 9.375 8.62122C9.1575 8.62122 8.955 8.68497 8.78625 8.79372C8.5425 8.32872 8.34 7.66122 8.14125 7.00872C7.84875 6.04497 7.5675 5.13747 7.1175 4.60122C7.1175 4.56747 7.12875 4.52997 7.12875 4.49622C7.12875 3.87747 6.6225 3.37122 6.00375 3.37122C5.385 3.37122 4.87875 3.87747 4.87875 4.49622C4.87875 4.67247 4.92375 4.83747 4.995 4.98372C4.6875 5.52747 4.45875 6.27747 4.2375 7.00872C3.91875 8.06247 3.52125 9.37122 3.00375 9.37122C2.7975 9.37122 2.62875 9.53997 2.62875 9.74622C2.62875 9.95247 2.7975 10.1212 3.00375 10.1212C4.08 10.1212 4.52625 8.65122 4.9575 7.22622C5.145 6.61497 5.33625 5.98872 5.56125 5.52747C5.69625 5.58747 5.85 5.62122 6.0075 5.62122C6.285 5.62122 6.53625 5.51622 6.73125 5.34747C6.9975 5.80872 7.215 6.52497 7.42875 7.22622C7.6875 8.08122 7.93875 8.89122 8.30625 9.43872C8.28 9.53622 8.2575 9.63747 8.2575 9.74622C8.2575 10.365 8.76375 10.8712 9.3825 10.8712C10.0013 10.8712 10.5075 10.365 10.5075 9.74622L10.5 9.74997ZM12.375 4.12497C12.5813 4.12497 12.75 4.29372 12.75 4.49997C12.75 4.70622 12.5813 4.87497 12.375 4.87497C12.1687 4.87497 12 4.70622 12 4.49997C12 4.29372 12.1687 4.12497 12.375 4.12497ZM6 4.87497C5.79375 4.87497 5.625 4.70622 5.625 4.49997C5.625 4.29372 5.79375 4.12497 6 4.12497C6.20625 4.12497 6.375 4.29372 6.375 4.49997C6.375 4.70622 6.20625 4.87497 6 4.87497ZM9.375 10.125C9.16875 10.125 9 9.95622 9 9.74997C9 9.54372 9.16875 9.37497 9.375 9.37497C9.58125 9.37497 9.75 9.54372 9.75 9.74997C9.75 9.95622 9.58125 10.125 9.375 10.125ZM7.5 11.25H3C2.79375 11.25 2.625 11.4187 2.625 11.625C2.625 11.8312 2.79375 12 3 12H7.5C7.70625 12 7.875 11.8312 7.875 11.625C7.875 11.4187 7.70625 11.25 7.5 11.25ZM7.5 13.125H3C2.79375 13.125 2.625 13.2937 2.625 13.5C2.625 13.7062 2.79375 13.875 3 13.875H7.5C7.70625 13.875 7.875 13.7062 7.875 13.5C7.875 13.2937 7.70625 13.125 7.5 13.125ZM7.5 15H3C2.79375 15 2.625 15.1687 2.625 15.375C2.625 15.5812 2.79375 15.75 3 15.75H7.5C7.70625 15.75 7.875 15.5812 7.875 15.375C7.875 15.1687 7.70625 15 7.5 15Z" fill="currentColor" stroke="currentColor" strokeWidth="0.1"/>
</svg>