<svg width="17" height="17" viewBox="0 0 17 17" fill="none" xmlns="http://www.w3.org/2000/svg">
<g id="SVG" clip-path="url(#clip0_896_31297)">
<path id="Vector" fill-rule="evenodd" clip-rule="evenodd" d="M15.03 8.80078C15.03 12.6668 11.896 15.8008 8.03003 15.8008C4.16404 15.8008 1.03003 12.6668 1.03003 8.80078C1.03003 4.93479 4.16404 1.80078 8.03003 1.80078C11.896 1.80078 15.03 4.93479 15.03 8.80078ZM16.03 8.80078C16.03 13.2191 12.4483 16.8008 8.03003 16.8008C3.61175 16.8008 0.0300293 13.2191 0.0300293 8.80078C0.0300293 4.3825 3.61175 0.800781 8.03003 0.800781C12.4483 0.800781 16.03 4.3825 16.03 8.80078ZM8.53003 5.30078C8.53003 5.02464 8.30617 4.80078 8.03003 4.80078C7.75389 4.80078 7.53003 5.02464 7.53003 5.30078V8.80078C7.53003 8.92014 7.57273 9.03555 7.6504 9.12618L10.6504 12.6262C10.8301 12.8359 11.1457 12.8601 11.3554 12.6804C11.5651 12.5007 11.5893 12.1851 11.4096 11.9754L8.53003 8.61582V5.30078Z" fill="currentColor" fill-opacity="0.95"/>
</g>
<defs>
<clip-path id="clip0_896_31297">
<rect width="16" height="16" fill="white" transform="translate(0.0300293 0.800781)"/>
</clip-path>
</defs>
</svg>
