<svg width="24" height="24" viewBox="0 0 24 24" fill="none" xmlns="http://www.w3.org/2000/svg">
	<g id="forms">
		<path id="Path" d="M12 3C10.3431 3 9 4.34315 9 6V18C9 19.6569 10.3431 21 12 21" stroke="currentColor" strokeWidth="1.5" strokeLinecap="round" strokeLinejoin="round" />
		<path id="Path_2" d="M6 3C7.65685 3 9 4.34315 9 6V18C9 19.6569 7.65685 21 6 21" stroke="currentColor" strokeWidth="1.5" strokeLinecap="round" strokeLinejoin="round" />
		<path id="Path_3" d="M13 7H20C20.5523 7 21 7.44772 21 8V16C21 16.5523 20.5523 17 20 17H13" stroke="currentColor" strokeWidth="1.5" strokeLinecap="round" strokeLinejoin="round" />
		<path id="Path_4" d="M5 7H4C3.44772 7 3 7.44772 3 8V16C3 16.5523 3.44772 17 4 17H5" stroke="currentColor" strokeWidth="1.5" strokeLinecap="round" strokeLinejoin="round" />
		<path id="Path_5" d="M16.9999 12H17.0099" stroke="currentColor" strokeWidth="1.5" strokeLinecap="round" strokeLinejoin="round" />
		<path id="Path_6" d="M12.9999 12H13.0099" stroke="currentColor" strokeWidth="1.5" strokeLinecap="round" strokeLinejoin="round" />
	</g>
</svg>
