<svg xmlns="http://www.w3.org/2000/svg" width="22" height="22" viewBox="0 0 16 17" fill="none">
  <path d="M12.888 3.66114C12.7867 3.1818 12.504 2.77114 12.0933 2.50447L11.534 2.14114C11.1233 1.87447 10.6327 1.7838 10.1547 1.88514C9.67534 1.98714 9.26467 2.2698 8.99867 2.6798L3.39734 11.3058C3.20934 11.5951 3.10667 11.9298 3.102 12.2725L3.072 13.9678C3.06467 14.3725 3.26334 14.7458 3.60334 14.9665C3.79667 15.0918 4.01667 15.1558 4.238 15.1558C4.40534 15.1558 4.574 15.1191 4.732 15.0458L6.26867 14.3291C6.58134 14.1831 6.84467 13.9538 7.032 13.6658L12.632 5.04114C12.8987 4.63047 12.9893 4.1398 12.888 3.66114ZM10.3627 2.8638C10.4207 2.85114 10.4793 2.84514 10.5373 2.84514C10.6967 2.84514 10.8533 2.89114 10.99 2.9798L11.5493 3.34314C11.736 3.46447 11.8647 3.65114 11.9107 3.86914C11.9567 4.08714 11.9153 4.3098 11.794 4.4958L11.7033 4.6358L9.746 3.36514L9.83667 3.22514C9.958 3.03847 10.1447 2.9098 10.3627 2.8638ZM6.19267 13.1211C6.10734 13.2518 5.98734 13.3565 5.84534 13.4225L4.30934 14.1391C4.23667 14.1731 4.17667 14.1458 4.148 14.1278C4.11867 14.1091 4.07067 14.0651 4.072 13.9851L4.102 12.2891C4.10467 12.1338 4.15067 11.9825 4.236 11.8505L9.20134 4.2038L11.1587 5.47447L6.19334 13.1211H6.19267Z" fill="currentColor"/>
</svg>