<svg xmlns="http://www.w3.org/2000/svg" width="22" height="22" viewBox="0 0 16 17" fill="none">
  <path d="M12 10.8333V11.3333H12.5H14.1667C14.303 11.3333 14.3778 11.3766 14.4173 11.4161C14.4567 11.4555 14.5 11.5303 14.5 11.6667C14.5 11.803 14.4567 11.8778 14.4173 11.9173C14.3778 11.9567 14.303 12 14.1667 12H12.5H12V12.5V14.1667C12 14.303 11.9567 14.3778 11.9173 14.4173C11.8778 14.4567 11.803 14.5 11.6667 14.5C11.5303 14.5 11.4555 14.4567 11.4161 14.4173C11.3766 14.3778 11.3333 14.303 11.3333 14.1667V12.5V12H10.8333H9.16667C9.03029 12 8.9555 11.9567 8.91605 11.9173C8.87661 11.8778 8.83333 11.803 8.83333 11.6667C8.83333 11.5303 8.87661 11.4555 8.91605 11.4161C8.9555 11.3766 9.03029 11.3333 9.16667 11.3333H10.8333H11.3333V10.8333V9.16667C11.3333 9.03029 11.3766 8.9555 11.4161 8.91605C11.4555 8.87661 11.5303 8.83333 11.6667 8.83333C11.803 8.83333 11.8778 8.87661 11.9173 8.91605C11.9567 8.9555 12 9.03029 12 9.16667V10.8333ZM0.833333 8.83333H5.83333C5.96971 8.83333 6.0445 8.87661 6.08395 8.91605C6.12339 8.9555 6.16667 9.03029 6.16667 9.16667V14.1667C6.16667 14.303 6.12339 14.3778 6.08395 14.4173C6.0445 14.4567 5.96971 14.5 5.83333 14.5H0.833333C0.696957 14.5 0.622164 14.4567 0.58272 14.4173C0.543276 14.3778 0.5 14.303 0.5 14.1667V9.16667C0.5 9.03029 0.543276 8.9555 0.58272 8.91605C0.622164 8.87661 0.696957 8.83333 0.833333 8.83333ZM0.833333 0.5H5.83333C5.96971 0.5 6.0445 0.543276 6.08395 0.58272C6.12339 0.622164 6.16667 0.696957 6.16667 0.833333V5.83333C6.16667 5.96971 6.12339 6.0445 6.08395 6.08395C6.0445 6.12339 5.96971 6.16667 5.83333 6.16667H0.833333C0.696957 6.16667 0.622164 6.12339 0.58272 6.08395C0.543276 6.0445 0.5 5.96971 0.5 5.83333V0.833333C0.5 0.696957 0.543276 0.622164 0.58272 0.58272C0.622164 0.543276 0.696957 0.5 0.833333 0.5ZM9.16667 0.5H14.1667C14.303 0.5 14.3778 0.543276 14.4173 0.58272C14.4567 0.622164 14.5 0.696957 14.5 0.833333V5.83333C14.5 5.96971 14.4567 6.0445 14.4173 6.08395C14.3778 6.12339 14.303 6.16667 14.1667 6.16667H9.16667C9.03029 6.16667 8.9555 6.12339 8.91605 6.08395C8.87661 6.0445 8.83333 5.96971 8.83333 5.83333V0.833333C8.83333 0.696957 8.87661 0.622164 8.91605 0.58272C8.9555 0.543276 9.03029 0.5 9.16667 0.5Z" stroke="currentColor"/>
</svg>