<svg width="24" height="24" viewBox="0 0 24 24" fill="none" xmlns="http://www.w3.org/2000/svg">
<g id="debugging 1" clip-path="url(#clip0_2058_15192)">
<path id="Vector" d="M23.2726 11.6364H22.2181C22.0363 6.29092 17.709 1.96365 12.3635 1.78183V0.727284C12.3635 0.509102 12.2181 0.363647 11.9999 0.363647C11.7817 0.363647 11.6363 0.509102 11.6363 0.727284V1.78183C6.2908 1.96365 1.96353 6.29092 1.78171 11.6364H0.727162C0.50898 11.6364 0.363525 11.7818 0.363525 12C0.363525 12.2182 0.50898 12.3636 0.727162 12.3636H1.78171C1.96353 17.7091 6.2908 22.0364 11.6363 22.2182V23.2727C11.6363 23.4909 11.7817 23.6364 11.9999 23.6364C12.2181 23.6364 12.3635 23.4909 12.3635 23.2727V22.2182C17.709 22.0364 22.0363 17.7091 22.2181 12.3636H23.2726C23.4908 12.3636 23.6363 12.2182 23.6363 12C23.6363 11.7818 23.4908 11.6364 23.2726 11.6364ZM12.3635 21.4909V20.4364C12.3635 20.2182 12.2181 20.0727 11.9999 20.0727C11.7817 20.0727 11.6363 20.2182 11.6363 20.4364V21.4909C6.6908 21.3091 2.6908 17.3091 2.50898 12.3636H3.56353C3.78171 12.3636 3.92716 12.2182 3.92716 12C3.92716 11.7818 3.78171 11.6364 3.56353 11.6364H2.50898C2.6908 6.69092 6.6908 2.69092 11.6363 2.5091V3.56365C11.6363 3.78183 11.7817 3.92728 11.9999 3.92728C12.2181 3.92728 12.3635 3.78183 12.3635 3.56365V2.5091C17.309 2.69092 21.309 6.69092 21.4908 11.6364H20.4363C20.2181 11.6364 20.0726 11.7818 20.0726 12C20.0726 12.2182 20.2181 12.3636 20.4363 12.3636H21.4908C21.309 17.3091 17.309 21.3091 12.3635 21.4909Z" fill="currentColor"/>
<path id="Vector_2" d="M9.78185 6.18188C10.2546 6.18188 10.7273 6.40006 11.0546 6.76369C10.2546 7.12733 9.78185 7.96369 9.74549 8.80006C9.67276 9.8546 10.4364 10.7637 11.9637 10.7637C13.6 10.7637 14.2182 9.96369 14.2182 8.94551C14.2182 8.00006 13.6728 7.12733 12.9091 6.76369C13.2364 6.40006 13.7091 6.21824 14.1818 6.21824C14.3637 6.21824 14.5455 6.03642 14.5455 5.8546C14.5455 5.63642 14.3637 5.49097 14.1818 5.49097C13.3818 5.49097 12.6182 5.89097 12.1455 6.58188H11.8182C11.3455 5.89097 10.5818 5.49097 9.78185 5.49097C9.56367 5.49097 9.41821 5.63642 9.41821 5.8546C9.41821 6.03642 9.60003 6.18188 9.78185 6.18188Z" fill="currentColor"/>
<path id="Vector_3" d="M17.2728 14.4727C17.3819 14.6545 17.6001 14.6909 17.7819 14.5818C17.9637 14.4727 18.0001 14.2545 17.891 14.0727L17.091 12.7272C17.0183 12.6181 16.9092 12.5454 16.7637 12.5454H15.7819C15.6001 11.6727 15.1637 10.8727 14.6183 10.2545C14.0728 11.1636 13.0546 11.4545 12.0001 11.4545C10.9092 11.4545 10.0365 11.2 9.45463 10.2181C8.87282 10.8363 8.43645 11.6363 8.25463 12.5454H7.27282C7.16372 12.5454 7.01827 12.6181 6.98191 12.7272L6.14554 14.109C6.03645 14.2909 6.10918 14.509 6.25463 14.6181C6.43645 14.7272 6.65463 14.6545 6.76372 14.509L7.491 13.309H8.14554C8.14554 13.4909 8.10918 13.6727 8.10918 13.8181C8.10918 14.3636 8.18191 14.909 8.32736 15.3818H7.27282C7.16372 15.3818 7.01827 15.4545 6.98191 15.5636L6.14554 16.9454C6.03645 17.1272 6.10918 17.3454 6.25463 17.4545C6.43645 17.5636 6.65463 17.4909 6.76372 17.3454L7.491 16.1454H8.61827C9.30918 17.6 10.5819 18.5818 12.0728 18.5818C13.5637 18.5818 14.8365 17.6 15.5274 16.1454H16.6546L17.3819 17.3454C17.491 17.5272 17.7092 17.5636 17.891 17.4545C18.0728 17.3454 18.1092 17.1272 18.0001 16.9454L17.091 15.5636C17.0183 15.4545 16.9092 15.3818 16.7637 15.3818H15.7092C15.8546 14.8727 15.9274 14.3636 15.9274 13.8181C15.9274 13.6363 15.9274 13.4545 15.891 13.309H16.5455L17.2728 14.4727Z" fill="currentColor"/>
</g>
<defs>
<clip-path id="clip0_2058_15192">
<rect width="24" height="24" fill="white"/>
</clip-path>
</defs>
</svg>
