<svg width="20" height="20" viewBox="0 0 17 17" fill="none" xmlns="http://www.w3.org/2000/svg">
<g id="SVG" clip-path="url(#clip0_896_31302)">
<path id="Vector" fill-rule="evenodd" clip-rule="evenodd" d="M12.0254 2.80078C14.2803 2.80079 16.4011 4.67184 16.4011 8.1186V8.58919L8.60296 8.58915C8.68872 10.2306 9.22329 11.242 9.86006 11.8522C10.5639 12.5267 11.4487 12.765 12.1601 12.765C12.9185 12.765 13.5685 12.6383 14.1122 12.3236C14.6493 12.0127 15.1265 11.493 15.498 10.6263H16.401C15.9791 11.8522 15.3258 12.7086 14.5836 13.1382C13.8481 13.5639 13.017 13.7062 12.1601 13.7062C11.2561 13.7062 10.1211 13.4059 9.20889 12.5318C8.8573 12.1949 8.54683 11.7804 8.29737 11.2789C7.37519 13.0364 5.88432 13.741 4.47575 13.8176C3.71362 13.8591 2.97938 13.7174 2.37437 13.4694C1.78185 13.2265 1.25828 12.8582 0.984046 12.401C0.541879 11.6638 0.288798 10.807 0.449946 9.95285C0.614038 9.0831 1.1533 8.58919 2.27627 7.97721C3.39924 7.36524 7.64978 7.64798 7.64978 7.64798V5.96405C7.64978 5.39592 7.36958 4.89921 6.88797 4.51401C6.40157 4.12498 5.72723 3.86803 5.0168 3.80756C4.30751 3.7472 3.59751 3.88541 3.03063 4.24189C2.47403 4.5919 2.0262 5.16952 1.84893 6.05629H0.920531C0.920421 5.1537 1.7481 3.9366 2.52962 3.44515C3.30085 2.96017 4.22361 2.79549 5.09661 2.86978C5.96848 2.94399 6.82597 3.25925 7.47583 3.77902C7.87863 4.10119 8.20792 4.50857 8.40167 4.98696C9.2168 3.55468 10.5941 2.80077 12.0254 2.80078ZM8.60602 7.64798C8.78176 4.9605 10.4637 3.74194 12.0254 3.74195C13.5872 3.74196 15.2691 4.96053 15.4449 7.64801L8.60602 7.64798ZM7.64978 8.58915C7.64978 8.58915 3.41499 8.4478 2.52962 8.91838C1.64424 9.38897 1.47292 9.60727 1.3748 10.1273C1.26943 10.6858 1.42558 11.3074 1.79115 11.9168C1.92078 12.133 2.2385 12.3965 2.73131 12.5985C3.21162 12.7954 3.80675 12.9115 4.42462 12.8778C5.61641 12.813 6.90798 12.1942 7.64978 10.4485V8.58915Z" fill="currentColor" fill-opacity="0.95"/>
</g>
<defs>
<clip-path id="clip0_896_31302">
<rect width="16" height="16" fill="white" transform="translate(0.401123 0.800781)"/>
</clip-path>
</defs>
</svg>
