<svg xmlns="http://www.w3.org/2000/svg" width="24" height="24" viewBox="0 0 24 24" fill="none">
  <path d="M20 6.25H11.4141C11.2827 6.25 11.1538 6.19678 11.0605 6.10352L9.64649 4.68946C9.36328 4.40625 8.98633 4.25 8.58594 4.25H4C3.17285 4.25 2.5 4.92285 2.5 5.75V18.25C2.5 19.0772 3.17285 19.75 4 19.75H20C20.8272 19.75 21.5 19.0772 21.5 18.25V7.75C21.5 6.92285 20.8272 6.25 20 6.25ZM20.5 18.25C20.5 18.5259 20.2759 18.75 20 18.75H4C3.72412 18.75 3.5 18.5259 3.5 18.25V7.75H8.58594C8.71729 7.75 8.8462 7.80322 8.93946 7.89648L10.3535 9.31054C10.6367 9.59375 11.0137 9.75 11.4141 9.75H20.5V18.25ZM20.5 8.75H11.4141C11.2827 8.75 11.1538 8.69677 11.0605 8.60351L9.64649 7.18946C9.36328 6.90625 8.98633 6.75 8.58594 6.75H3.5V5.75C3.5 5.47412 3.72412 5.25 4 5.25H8.58594C8.71729 5.25 8.8462 5.30322 8.93946 5.39648L10.3535 6.81054C10.6367 7.09375 11.0137 7.25 11.4141 7.25H20C20.2759 7.25 20.5 7.47412 20.5 7.75V8.75Z" fill="currentColor"/>
  <path d="M9.5 10.75V10.25C9.5 9.97363 9.27636 9.75 9 9.75C8.72364 9.75 8.5 9.97363 8.5 10.25V10.75H7.5C6.526 10.75 5.71502 11.4502 5.53808 12.3733C4.90207 12.6906 4.5 13.6005 4.5 14.25C4.5 15.0771 5.17285 15.75 6 15.75C6.82715 15.75 7.5 15.0771 7.5 14.25C7.5 13.6339 7.13937 12.7803 6.55963 12.4226C6.69604 12.0325 7.06399 11.75 7.5 11.75H8.5V16.75H7C6.72363 16.75 6.5 16.9736 6.5 17.25C6.5 17.5264 6.72363 17.75 7 17.75H11C11.2764 17.75 11.5 17.5264 11.5 17.25C11.5 16.9736 11.2764 16.75 11 16.75H9.5V11.75H10.5C10.936 11.75 11.304 12.0325 11.4404 12.4226C10.8606 12.7803 10.5 13.6339 10.5 14.25C10.5 15.0771 11.1729 15.75 12 15.75C12.8272 15.75 13.5 15.0771 13.5 14.25C13.5 13.6005 13.0979 12.6906 12.4619 12.3733C12.285 11.4502 11.474 10.75 10.5 10.75H9.5ZM6 14.75C5.72412 14.75 5.5 14.5259 5.5 14.25C5.5 13.8398 5.83985 13.272 5.99854 13.25C6.16016 13.272 6.5 13.8398 6.5 14.25C6.5 14.5259 6.27588 14.75 6 14.75ZM11.9985 13.25C12.1602 13.272 12.5 13.8398 12.5 14.25C12.5 14.5259 12.2759 14.75 12 14.75C11.7241 14.75 11.5 14.5259 11.5 14.25C11.5 13.8398 11.8398 13.272 11.9985 13.25ZM15 17.75H19C19.2764 17.75 19.5 17.5264 19.5 17.25V15.25C19.5 14.9736 19.2764 14.75 19 14.75H15C14.7236 14.75 14.5 14.9736 14.5 15.25V17.25C14.5 17.5264 14.7236 17.75 15 17.75ZM15.5 15.75H18.5V16.75H15.5V15.75ZM15 11.75H19C19.2764 11.75 19.5 11.5264 19.5 11.25C19.5 10.9736 19.2764 10.75 19 10.75H15C14.7236 10.75 14.5 10.9736 14.5 11.25C14.5 11.5264 14.7236 11.75 15 11.75ZM15 13.75H19C19.2764 13.75 19.5 13.5264 19.5 13.25C19.5 12.9736 19.2764 12.75 19 12.75H15C14.7236 12.75 14.5 12.9736 14.5 13.25C14.5 13.5264 14.7236 13.75 15 13.75Z" fill="currentColor"/>
</svg>