<svg xmlns="http://www.w3.org/2000/svg" width="38" height="38" viewBox="0 0 38 38" fill="none">
  <path d="M6.57972 4.62271C10.0282 1.63591 14.4381 -0.0056852 19 1.4794e-05C24.0391 1.4794e-05 28.8718 2.00178 32.435 5.56497C35.9982 9.12816 38 13.9609 38 19C38 23.0584 36.727 26.8204 34.561 29.906L28.5 19H34.2C34.1994 16.0202 33.324 13.106 31.6824 10.6191C30.0389 8.13392 27.702 6.18451 24.9603 5.01601C22.2191 3.8476 19.1951 3.51064 16.264 4.04702C13.3323 4.58282 10.6229 5.9698 8.47398 8.0332L6.57972 4.62271ZM31.4202 33.3773C27.9718 36.3641 23.5619 38.0057 19 38C13.9609 38 9.12814 35.9982 5.56495 32.435C2.00176 28.8718 0 24.0391 0 19C0 14.9416 1.27299 11.1796 3.43899 8.094L9.49999 19H3.8C3.80059 21.9798 4.67597 24.894 6.31752 27.3809C7.96102 29.8661 10.298 31.8155 13.0397 32.984C15.7808 34.1524 18.8049 34.4894 21.736 33.953C24.6677 33.4172 27.3771 32.0302 29.526 29.9668L31.4202 33.3773Z" fill="#034737"/>
  <path fill-rule="evenodd" clip-rule="evenodd" d="M18.8422 9.50781C19.2792 9.50781 19.6326 9.86313 19.6326 10.3001V27.7155C19.6326 28.1525 19.2792 28.5078 18.8422 28.5078C18.4052 28.5078 18.0499 28.1525 18.0499 27.7155V10.3001C18.0499 9.86313 18.4052 9.50781 18.8422 9.50781Z" fill="#034737" stroke="#034737" strokeWidth="1.28667" strokeLinejoin="round"/>
  <path fill-rule="evenodd" clip-rule="evenodd" d="M14.343 13.715C15.0118 13.0462 15.9181 12.6719 16.8624 12.6719H22.7999C23.2369 12.6719 23.5921 13.0252 23.5921 13.4622C23.5921 13.8992 23.2369 14.2546 22.7999 14.2546H16.8624C16.338 14.2546 15.8345 14.4635 15.4621 14.834C15.0897 15.2045 14.8826 15.7081 14.8826 16.2344C14.8823 16.4943 14.9334 16.7518 15.0328 16.992C15.1322 17.2322 15.2781 17.4504 15.462 17.6342C15.6459 17.8179 15.8643 17.9636 16.1046 18.0628C16.3449 18.162 16.6024 18.2127 16.8624 18.2122H20.8201C21.2883 18.211 21.752 18.3023 22.1848 18.4809C22.6176 18.6595 23.0109 18.9218 23.3419 19.2529C23.673 19.584 23.9353 19.9772 24.1139 20.41C24.2925 20.8427 24.3838 21.3066 24.3826 21.7747C24.3838 22.2429 24.2925 22.7068 24.1139 23.1396C23.9353 23.5723 23.673 23.9656 23.3419 24.2966C23.0109 24.6277 22.6176 24.89 22.1848 25.0686C21.752 25.2472 21.2883 25.3385 20.8201 25.3372H14.0922C13.6552 25.3372 13.2999 24.9839 13.2999 24.5469C13.2999 24.1099 13.6552 23.7546 14.0922 23.7546H20.8201C21.0802 23.7551 21.3378 23.7042 21.5783 23.6049C21.8187 23.5056 22.0372 23.3597 22.2211 23.1758C22.4051 22.9918 22.5509 22.7734 22.6502 22.533C22.7495 22.2926 22.8004 22.0349 22.7999 21.7747C22.8001 21.5148 22.7491 21.2573 22.6496 21.0171C22.5502 20.7769 22.4043 20.5587 22.2204 20.3749C22.0365 20.1912 21.8182 20.0455 21.5779 19.9464C21.3376 19.8472 21.08 19.7964 20.8201 19.7969H16.8624C15.9183 19.7944 15.0136 19.4182 14.3461 18.7506C13.6785 18.0831 13.3024 17.1784 13.2999 16.2344C13.2999 15.2882 13.6761 14.3838 14.343 13.715Z" fill="#034737" stroke="#034737" strokeWidth="1.28667" strokeLinejoin="round"/>
</svg>