<svg width="39" height="26" viewBox="0 0 39 26" fill="none" xmlns="http://www.w3.org/2000/svg">
<path d="M36.9097 2.22605L36.9094 2.22567C36.3495 1.59947 35.6398 1.25 34.8122 1.25H4.18766C3.35973 1.25 2.65055 1.59956 2.09045 2.22544L2.09017 2.22575C1.53173 2.85046 1.25 3.6021 1.25 4.44471C1.25 5.28716 1.53171 6.03893 2.09038 6.66337L2.09045 6.66345L17.4028 23.774L17.4031 23.7743C17.9631 24.3994 18.672 24.75 19.5 24.75C20.3277 24.75 21.0373 24.3997 21.5969 23.774C21.5969 23.7739 21.597 23.7739 21.5971 23.7738L36.9092 6.66331L36.9095 6.66301C37.4671 6.03925 37.75 5.28777 37.75 4.44458C37.75 3.60143 37.467 2.85014 36.9097 2.22605Z" stroke="black" strokeWidth="1.5"/>
</svg>
