<svg width="100%" height="100%" viewBox="0 0 16 16" fill="none" xmlns="http://www.w3.org/2000/svg">
<g id="vuesax/linear/edit">
<g id="edit">
<path id="Union" fill-rule="evenodd" clip-rule="evenodd" d="M12.1067 0.42724C12.9483 0.344621 13.7538 0.720225 14.5169 1.48332C15.28 2.24642 15.6556 3.0519 15.573 3.89359C15.4942 4.69593 15.0132 5.34105 14.5169 5.83732L13.7747 6.57956C13.7677 6.58677 13.7607 6.59384 13.7535 6.60075L9.26358 11.0907L9.25489 11.0993L9.25482 11.0993C9.08129 11.2672 8.862 11.4077 8.65757 11.5104C8.45479 11.6124 8.20638 11.7075 7.95932 11.7428L5.95265 12.0294L5.94883 12.03L5.94883 12.03C5.38842 12.1071 4.83339 11.9553 4.43817 11.5617C4.04191 11.1671 3.88852 10.611 3.97097 10.0463L3.9712 10.0447L4.25712 8.04334L4.25731 8.04195C4.29235 7.79243 4.38686 7.54249 4.4898 7.33767C4.59304 7.13227 4.7359 6.91034 4.90959 6.73666L9.40064 2.24561C9.40682 2.2392 9.41312 2.2329 9.41953 2.22671L10.1629 1.48332C10.6592 0.98706 11.3043 0.505998 12.1067 0.42724ZM9.67263 4.09493L5.97025 7.79732C5.94393 7.82363 5.8868 7.89837 5.83004 8.0113C5.77317 8.12443 5.74784 8.21395 5.74272 8.25063L5.74239 8.25305L5.74238 8.25305L5.45571 10.2597L5.4553 10.2626C5.43161 10.424 5.48164 10.4839 5.49667 10.4989C5.51306 10.5152 5.57766 10.5665 5.74271 10.5442L5.74434 10.544L7.74719 10.2579C7.78012 10.2532 7.86838 10.2283 7.98394 10.1702C8.09456 10.1146 8.17387 10.0569 8.20871 10.0242L11.9063 6.32659C10.9597 5.81568 10.1826 5.03961 9.67263 4.09493ZM13.0325 5.20045C12.0115 4.79068 11.2046 3.98328 10.799 2.96854L11.2236 2.54398C11.634 2.13358 11.9689 1.94797 12.2532 1.92007C12.4982 1.89602 12.886 1.97375 13.4563 2.54398C14.0265 3.11422 14.1042 3.50207 14.0802 3.74705C14.0523 4.03138 13.8667 4.36625 13.4563 4.77666L13.0325 5.20045ZM1.88626 1.88665C2.84572 0.927186 4.25928 0.583651 5.99992 0.583651H7.33325C7.74747 0.583651 8.08325 0.919438 8.08325 1.33365C8.08325 1.74786 7.74747 2.08365 7.33325 2.08365H5.99992C4.40722 2.08365 3.48745 2.40678 2.94692 2.94731C2.40638 3.48785 2.08325 4.40762 2.08325 6.00032V10.0003C2.08325 11.593 2.40638 12.5128 2.94692 13.0533C3.48745 13.5939 4.40722 13.917 5.99992 13.917H9.99992C11.5926 13.917 12.5124 13.5939 13.0529 13.0533C13.5935 12.5128 13.9166 11.593 13.9166 10.0003V8.66698C13.9166 8.25277 14.2524 7.91698 14.6666 7.91698C15.0808 7.91698 15.4166 8.25277 15.4166 8.66698V10.0003C15.4166 11.741 15.073 13.1545 14.1136 14.114C13.1541 15.0734 11.7406 15.417 9.99992 15.417H5.99992C4.25928 15.417 2.84572 15.0734 1.88626 14.114C0.926786 13.1545 0.583252 11.741 0.583252 10.0003V6.00032C0.583252 4.25968 0.926786 2.84612 1.88626 1.88665Z" fill="currentColor"/>
</g>
</g>
</svg>
