<svg xmlns="http://www.w3.org/2000/svg" width="22" height="22" viewBox="0 0 16 17" fill="none">
  <path d="M6.10671 7.74683C6.04004 7.74016 5.96004 7.74016 5.88671 7.74683C4.30004 7.6935 3.04004 6.3935 3.04004 4.7935C3.04004 3.16016 4.36004 1.8335 6.00004 1.8335C7.63337 1.8335 8.96004 3.16016 8.96004 4.7935C8.95337 6.3935 7.69337 7.6935 6.10671 7.74683Z" stroke="currentColor" strokeLinecap="round" strokeLinejoin="round"/>
  <path d="M10.9402 3.16699C12.2335 3.16699 13.2735 4.21366 13.2735 5.50033C13.2735 6.76033 12.2735 7.78699 11.0268 7.83366C10.9735 7.82699 10.9135 7.82699 10.8535 7.83366" stroke="currentColor" strokeLinecap="round" strokeLinejoin="round"/>
  <path d="M2.77348 10.207C1.16014 11.287 1.16014 13.047 2.77348 14.1203C4.60681 15.347 7.61348 15.347 9.44681 14.1203C11.0601 13.0403 11.0601 11.2803 9.44681 10.207C7.62014 8.98699 4.61348 8.98699 2.77348 10.207Z" stroke="currentColor" strokeLinecap="round" strokeLinejoin="round"/>
  <path d="M12.2266 13.8335C12.7066 13.7335 13.1599 13.5402 13.5332 13.2535C14.5732 12.4735 14.5732 11.1868 13.5332 10.4068C13.1666 10.1268 12.7199 9.94016 12.2466 9.8335" stroke="currentColor" strokeLinecap="round" strokeLinejoin="round"/>
</svg>