<svg width="13" height="13" viewBox="0 0 13 13" fill="none" xmlns="http://www.w3.org/2000/svg">
<g id="SVG">
<path id="Vector" d="M7.93569 1.39062H3.19747C2.91821 1.39063 2.65039 1.50156 2.45293 1.69902C2.25547 1.89649 2.14453 2.16431 2.14453 2.44356V10.8671C2.14453 11.1463 2.25547 11.4141 2.45293 11.6116C2.65039 11.8091 2.91821 11.92 3.19747 11.92H9.5151C9.79436 11.92 10.0622 11.8091 10.2596 11.6116C10.4571 11.4141 10.568 11.1463 10.568 10.8671V4.02297L7.93569 1.39062Z" stroke="currentColor" strokeWidth="1.05294" strokeLinecap="round" strokeLinejoin="round"/>
<path id="Vector_2" d="M7.41016 1.39062V3.4965C7.41016 3.77576 7.52109 4.04358 7.71855 4.24104C7.91602 4.43851 8.18384 4.54944 8.46309 4.54944H10.569" stroke="currentColor" strokeWidth="1.05294" strokeLinecap="round" strokeLinejoin="round"/>
<path id="Vector_3" d="M6.35742 6.64844V9.80725" stroke="currentColor" strokeWidth="1.05294" strokeLinecap="round" strokeLinejoin="round"/>
<path id="Vector_4" d="M7.93616 8.22785L6.35675 6.64844L4.77734 8.22785" stroke="currentColor" strokeWidth="1.05294" strokeLinecap="round" strokeLinejoin="round"/>
</g>
</svg>
