<svg width="25" height="17" viewBox="0 0 25 17" fill="none" xmlns="http://www.w3.org/2000/svg">
<path d="M16.1997 9.5625L14.1059 11.5793C13.2568 12.3973 11.7629 12.4149 10.8955 11.5793L8.80156 9.5625L1.28125 16.8054C1.56118 16.9297 1.86982 17.0039 2.19795 17.0039H22.8034C23.1315 17.0039 23.4401 16.9298 23.7199 16.8055L16.1997 9.5625Z" fill="#2DA771"/>
<path d="M22.8027 0.125H2.19727C1.86914 0.125 1.5605 0.199156 1.28066 0.323422L9.31665 8.06356C9.31719 8.06408 9.31782 8.06417 9.31836 8.06469C9.31869 8.06502 9.31891 8.06545 9.31899 8.06591L11.9319 10.5826C12.2095 10.8491 12.7906 10.8491 13.0682 10.5826L15.6806 8.06633C15.6806 8.06633 15.6812 8.0652 15.6817 8.06469C15.6817 8.06469 15.6829 8.06408 15.6834 8.06356L23.7192 0.323375C23.4394 0.199063 23.1309 0.125 22.8027 0.125ZM0.233691 1.30681C0.0888672 1.58797 0 1.90006 0 2.23438V14.8906C0 15.2249 0.0887695 15.537 0.233643 15.8182L7.76699 8.56273L0.233691 1.30681ZM24.7663 1.30672L17.2331 8.56273L24.7663 15.8183C24.9111 15.5371 25 15.225 25 14.8906V2.23438C25 1.89997 24.9111 1.58788 24.7663 1.30672Z" fill="#2DA771"/>
</svg>
