<svg width="36" height="36" viewBox="0 0 36 36" fill="none" xmlns="http://www.w3.org/2000/svg">
	<path fill-rule="evenodd" clip-rule="evenodd" d="M6.1875 30.375V5.625C6.1875 4.87908 6.48382 4.16371 7.01126 3.63626C7.53871 3.10882 8.25408 2.8125 9 2.8125H27C27.7459 2.8125 28.4613 3.10882 28.9887 3.63626C29.5162 4.16371 29.8125 4.87908 29.8125 5.625V30.375C29.8125 31.1209 29.5162 31.8363 28.9887 32.3637C28.4613 32.8912 27.7459 33.1875 27 33.1875H9C8.25408 33.1875 7.53871 32.8912 7.01126 32.3637C6.48382 31.8363 6.1875 31.1209 6.1875 30.375ZM28.6875 28.6875H7.3125V30.375C7.31339 30.8223 7.49147 31.251 7.80774 31.5673C8.12402 31.8835 8.55272 32.0616 9 32.0625H27C27.4473 32.0616 27.876 31.8835 28.1923 31.5673C28.5085 31.251 28.6866 30.8223 28.6875 30.375V28.6875ZM15.75 30.9375H20.25C20.3992 30.9375 20.5423 30.8782 20.6477 30.7727C20.7532 30.6673 20.8125 30.5242 20.8125 30.375C20.8125 30.2258 20.7532 30.0827 20.6477 29.9773C20.5423 29.8718 20.3992 29.8125 20.25 29.8125H15.75C15.6008 29.8125 15.4577 29.8718 15.3523 29.9773C15.2468 30.0827 15.1875 30.2258 15.1875 30.375C15.1875 30.5242 15.2468 30.6673 15.3523 30.7727C15.4577 30.8782 15.6008 30.9375 15.75 30.9375ZM28.6875 27.5625V5.625C28.6866 5.17772 28.5085 4.74902 28.1923 4.43274C27.876 4.11647 27.4473 3.93839 27 3.9375H9C8.55272 3.93839 8.12402 4.11647 7.80774 4.43274C7.49147 4.74902 7.31339 5.17772 7.3125 5.625V27.5625H28.6875ZM24.75 23.0625H18C17.8508 23.0625 17.7077 23.1218 17.6023 23.2273C17.4968 23.3327 17.4375 23.4758 17.4375 23.625C17.4375 23.7742 17.4968 23.9173 17.6023 24.0227C17.7077 24.1282 17.8508 24.1875 18 24.1875H24.75C24.8992 24.1875 25.0423 24.1282 25.1477 24.0227C25.2532 23.9173 25.3125 23.7742 25.3125 23.625C25.3125 23.4758 25.2532 23.3327 25.1477 23.2273C25.0423 23.1218 24.8992 23.0625 24.75 23.0625ZM12.375 22.8296L14.2267 20.9767C14.3347 20.8837 14.4739 20.8348 14.6164 20.8401C14.7589 20.8454 14.8941 20.9043 14.9949 21.0051C15.0957 21.1059 15.1546 21.2411 15.1599 21.3836C15.1652 21.5261 15.1163 21.6653 15.0233 21.7733L12.7733 24.0233C12.6674 24.1285 12.5242 24.1876 12.375 24.1876C12.2258 24.1876 12.0826 24.1285 11.9767 24.0233L10.8517 22.8983C10.7587 22.7903 10.7098 22.6511 10.7151 22.5086C10.7204 22.3661 10.7793 22.2309 10.8801 22.1301C10.9809 22.0293 11.1161 21.9704 11.2586 21.9651C11.4011 21.9598 11.5403 22.0087 11.6483 22.1017L12.375 22.8296ZM22.5 20.8125H18C17.8508 20.8125 17.7077 20.8718 17.6023 20.9773C17.4968 21.0827 17.4375 21.2258 17.4375 21.375C17.4375 21.5242 17.4968 21.6673 17.6023 21.7727C17.7077 21.8782 17.8508 21.9375 18 21.9375H22.5C22.6492 21.9375 22.7923 21.8782 22.8977 21.7727C23.0032 21.6673 23.0625 21.5242 23.0625 21.375C23.0625 21.2258 23.0032 21.0827 22.8977 20.9773C22.7923 20.8718 22.6492 20.8125 22.5 20.8125ZM24.75 16.3125H18C17.8508 16.3125 17.7077 16.3718 17.6023 16.4773C17.4968 16.5827 17.4375 16.7258 17.4375 16.875C17.4375 17.0242 17.4968 17.1673 17.6023 17.2727C17.7077 17.3782 17.8508 17.4375 18 17.4375H24.75C24.8992 17.4375 25.0423 17.3782 25.1477 17.2727C25.2532 17.1673 25.3125 17.0242 25.3125 16.875C25.3125 16.7258 25.2532 16.5827 25.1477 16.4773C25.0423 16.3718 24.8992 16.3125 24.75 16.3125ZM12.375 16.0796L14.2267 14.2267C14.3347 14.1337 14.4739 14.0848 14.6164 14.0901C14.7589 14.0954 14.8941 14.1543 14.9949 14.2551C15.0957 14.3559 15.1546 14.4911 15.1599 14.6336C15.1652 14.7761 15.1163 14.9153 15.0233 15.0233L12.7733 17.2733C12.6674 17.3785 12.5242 17.4376 12.375 17.4376C12.2258 17.4376 12.0826 17.3785 11.9767 17.2733L10.8517 16.1483C10.7587 16.0403 10.7098 15.9011 10.7151 15.7586C10.7204 15.6161 10.7793 15.4809 10.8801 15.3801C10.9809 15.2793 11.1161 15.2204 11.2586 15.2151C11.4011 15.2098 11.5403 15.2587 11.6483 15.3517L12.375 16.0796ZM22.5 14.0625H18C17.8508 14.0625 17.7077 14.1218 17.6023 14.2273C17.4968 14.3327 17.4375 14.4758 17.4375 14.625C17.4375 14.7742 17.4968 14.9173 17.6023 15.0227C17.7077 15.1282 17.8508 15.1875 18 15.1875H22.5C22.6492 15.1875 22.7923 15.1282 22.8977 15.0227C23.0032 14.9173 23.0625 14.7742 23.0625 14.625C23.0625 14.4758 23.0032 14.3327 22.8977 14.2273C22.7923 14.1218 22.6492 14.0625 22.5 14.0625ZM24.75 9.5625H18C17.8508 9.5625 17.7077 9.62176 17.6023 9.72725C17.4968 9.83274 17.4375 9.97582 17.4375 10.125C17.4375 10.2742 17.4968 10.4173 17.6023 10.5227C17.7077 10.6282 17.8508 10.6875 18 10.6875H24.75C24.8992 10.6875 25.0423 10.6282 25.1477 10.5227C25.2532 10.4173 25.3125 10.2742 25.3125 10.125C25.3125 9.97582 25.2532 9.83274 25.1477 9.72725C25.0423 9.62176 24.8992 9.5625 24.75 9.5625ZM12.375 9.32963L14.2267 7.47675C14.3347 7.38365 14.4739 7.33484 14.6164 7.3401C14.7589 7.34536 14.8941 7.40432 14.9949 7.50513C15.0957 7.60594 15.1546 7.74115 15.1599 7.88362C15.1652 8.02609 15.1163 8.16528 15.0233 8.27325L12.7733 10.5233C12.6674 10.6285 12.5242 10.6876 12.375 10.6876C12.2258 10.6876 12.0826 10.6285 11.9767 10.5233L10.8517 9.39825C10.7587 9.29028 10.7098 9.15109 10.7151 9.00862C10.7204 8.86615 10.7793 8.73094 10.8801 8.63013C10.9809 8.52932 11.1161 8.47036 11.2586 8.4651C11.4011 8.45984 11.5403 8.50865 11.6483 8.60175L12.375 9.32963ZM22.5 7.3125H18C17.8508 7.3125 17.7077 7.37176 17.6023 7.47725C17.4968 7.58274 17.4375 7.72582 17.4375 7.875C17.4375 8.02418 17.4968 8.16726 17.6023 8.27275C17.7077 8.37824 17.8508 8.4375 18 8.4375H22.5C22.6492 8.4375 22.7923 8.37824 22.8977 8.27275C23.0032 8.16726 23.0625 8.02418 23.0625 7.875C23.0625 7.72582 23.0032 7.58274 22.8977 7.47725C22.7923 7.37176 22.6492 7.3125 22.5 7.3125Z" fill="black" />
</svg>
