<svg xmlns="http://www.w3.org/2000/svg" width="40" height="40" viewBox="0 0 40 40" fill="none">
	<path d="M16.5025 24.7525L16.255 25L16.5025 25.2475L16.8775 25.6225C17.2408 25.9858 17.2408 26.5142 16.8775 26.8775L14.3775 29.3775L14.1991 29.5559L14.312 29.7815C14.9872 31.1321 14.6581 32.847 13.5025 34.0025L11.7525 35.7525L11.7443 35.7608L11.7366 35.7695C10.937 36.6833 9.78857 37.15 8.5 37.15H3.75C3.45454 37.15 3.23551 37.053 3.09124 36.9088C2.94696 36.7645 2.85 36.5455 2.85 36.25V31.5C2.85 30.3457 3.31103 29.1839 4.24749 28.2475L5.99749 26.4975L6.004 26.491L6.01015 26.4841C7.01613 25.3664 8.84828 25.118 10.2404 25.6981L10.4567 25.7882L10.6225 25.6225L13.1225 23.1225C13.4858 22.7592 14.0142 22.7592 14.3775 23.1225L14.7525 23.4975L15 23.745L15.2475 23.4975L22.8725 15.8725L22.975 15.77V15.625C22.975 15.4428 22.9285 15.3037 22.8972 15.2098L22.8945 15.2018C22.8633 15.1082 22.85 15.0626 22.85 15V11.25C22.85 10.9545 22.947 10.7355 23.0912 10.5912C23.2355 10.447 23.4545 10.35 23.75 10.35H26.25C26.3967 10.35 26.5032 10.374 26.5922 10.4136C26.6827 10.4538 26.7732 10.5181 26.8775 10.6225L29.3775 13.1225L29.625 12.875L29.3775 13.1225C29.4819 13.2268 29.5462 13.3173 29.5864 13.4078C29.626 13.4968 29.65 13.6033 29.65 13.75V16.25C29.65 16.5455 29.553 16.7645 29.4088 16.9088C29.2645 17.053 29.0455 17.15 28.75 17.15H25C24.8685 17.15 24.7701 17.1493 24.6901 17.1379C24.6431 17.1312 24.6218 17.123 24.6153 17.1203L24.375 16.88L24.1275 17.1275L16.5025 24.7525ZM25 12.15H24.65V12.5V14.5V14.645L24.7525 14.7475L25.2525 15.2475L25.355 15.35H25.5H27.5H27.85V15V14.25V14.105L27.7475 14.0025L25.9975 12.2525L25.895 12.15H25.75H25ZM6.50251 34.7525L5.90503 35.35H6.75H8.5C9.22075 35.35 9.93394 35.061 10.4975 34.4975L12.2475 32.7475C12.6405 32.3545 12.8188 31.7882 12.8188 31.25C12.8188 30.7118 12.6405 30.1455 12.2475 29.7525L10.2475 27.7525C9.8545 27.3595 9.28822 27.1812 8.75 27.1812C8.21178 27.1812 7.6455 27.3595 7.25251 27.7525L7.25237 27.7524L7.24413 27.7612L5.49813 29.6319C4.93747 30.1948 4.65 30.9061 4.65 31.625V33.25V34.095L5.24749 33.4975L6.87249 31.8725C7.2358 31.5092 7.7642 31.5092 8.12751 31.8725C8.49083 32.2358 8.49083 32.7642 8.12751 33.1275L6.50251 34.7525ZM12.8775 27.8725L13.125 28.12L13.3725 27.8725L14.7475 26.4975L14.995 26.25L14.7475 26.0025L13.9975 25.2525L13.75 25.005L13.5025 25.2525L12.1275 26.6275L11.88 26.875L12.1275 27.1225L12.8775 27.8725Z" fill="#14171B" stroke="white" strokeWidth="0.7" />
	<path d="M22.5 32.85H22.85V32.5V23.75C22.85 23.6033 22.874 23.4968 22.9136 23.4078C22.9538 23.3173 23.0181 23.2268 23.1225 23.1225L26.8725 19.3725C26.9768 19.2681 27.0673 19.2038 27.1578 19.1636C27.2468 19.124 27.3533 19.1 27.5 19.1H36.25C36.5455 19.1 36.7645 19.197 36.9088 19.3412C37.053 19.4855 37.15 19.7045 37.15 20V36.25C37.15 36.5455 37.053 36.7645 36.9088 36.9088C36.7645 37.053 36.5455 37.15 36.25 37.15H23.75C23.4545 37.15 23.2355 37.053 23.0912 36.9088C22.947 36.7645 22.85 36.5455 22.85 36.25V35V34.65H22.5H21.25C20.9545 34.65 20.7355 34.553 20.5912 34.4088C20.447 34.2645 20.35 34.0455 20.35 33.75C20.35 33.4545 20.447 33.2355 20.5912 33.0912C20.7355 32.947 20.9545 32.85 21.25 32.85H22.5ZM27.85 21.75V20.905L27.2525 21.5025L25.2525 23.5025L24.655 24.1H25.5H27.5H27.85V23.75V21.75ZM35 35.35H35.35V35V21.25V20.9H35H30H29.65V21.25V25C29.65 25.2955 29.553 25.5145 29.4088 25.6588C29.2645 25.803 29.0455 25.9 28.75 25.9H25H24.65V26.25V35V35.35H25H35Z" fill="#14171B" stroke="white" strokeWidth="0.7" />
	<path d="M7.50499 18.8L7.1327 18.6511L7.03545 19.0401C6.98779 19.2307 6.89714 19.3801 6.77594 19.4811C6.6574 19.5799 6.48888 19.65 6.25 19.65C5.95454 19.65 5.73551 19.553 5.59124 19.4088C5.44696 19.2645 5.35 19.0455 5.35 18.75V17.375V17.2382L5.25718 17.1376C3.80682 15.5664 2.85 13.5232 2.85 11.25C2.85 6.5683 6.5683 2.85 11.25 2.85C15.9317 2.85 19.65 6.5683 19.65 11.25C19.65 15.9317 15.9317 19.65 11.25 19.65C9.93983 19.65 8.738 19.2932 7.50499 18.8ZM5.94364 13.9068L5.24191 13.7665L5.56195 14.4065C6.09807 15.4788 7.02797 16.402 8.20503 17.056L9.06558 17.534L8.69997 16.62C8.46489 16.0323 8.34466 15.439 8.22024 14.6925L8.17914 14.4459L7.93254 14.4048C7.57834 14.3457 7.25065 14.2567 6.92428 14.1635C6.88391 14.1519 6.8434 14.1403 6.80276 14.1286C6.5205 14.0474 6.23216 13.9645 5.94364 13.9068ZM10.9588 17.5691L11.25 18.006L11.5412 17.5691C11.8197 17.1514 12.2104 16.3576 12.4682 15.0686L12.5519 14.65H12.125H10.375H9.94807L10.0318 15.0686C10.2896 16.3576 10.6803 17.1514 10.9588 17.5691ZM15.0686 10.0318L14.65 9.94807V10.375V12.125V12.5519L15.0686 12.4682C16.3576 12.2104 17.1514 11.8197 17.5691 11.5412L17.9244 11.3044L17.6225 11.0025C17.4412 10.8212 17.0985 10.6436 16.6881 10.4858C16.2609 10.3215 15.7102 10.1601 15.0686 10.0318ZM16.5564 8.5932L17.2581 8.73355L16.938 8.09348C16.4019 7.02123 15.472 6.09797 14.295 5.44405L13.4344 4.96596L13.8 5.87999C14.0351 6.46769 14.1553 7.06098 14.2798 7.80754L14.3209 8.05414L14.5675 8.09524C14.9217 8.15427 15.2493 8.24328 15.5757 8.33653C15.6161 8.34807 15.6566 8.35972 15.6973 8.37141C15.9795 8.45258 16.2679 8.5355 16.5564 8.5932ZM14.6925 14.4048L14.4542 14.4445L14.4068 14.6814C14.363 14.9006 14.3202 15.1289 14.278 15.354C14.196 15.7913 14.1163 16.2166 14.0354 16.5401L13.8509 17.2784L14.5315 16.938C15.6147 16.3964 16.4069 15.4593 17.0468 14.4355L17.6145 13.5273L16.62 13.925C16.0323 14.1601 15.439 14.2803 14.6925 14.4048ZM11.5412 4.93086L11.25 4.49403L10.9588 4.93086C10.6803 5.34857 10.2896 6.14239 10.0318 7.43136L9.94807 7.85H10.375H12.125H12.5519L12.4682 7.43136C12.2104 6.14239 11.8197 5.34857 11.5412 4.93086ZM10 9.65H9.65V10V12.5V12.85H10H12.5H12.85V12.5V10V9.65H12.5H10ZM8.5932 5.94364L8.73355 5.24191L8.09348 5.56195C7.02574 6.09582 6.09582 7.02574 5.56195 8.09348L5.09238 9.03262L6.03152 8.56305C6.46596 8.34583 7.15651 8.225 7.75 8.225H8.04649L8.09524 7.93254C8.15427 7.57834 8.24328 7.25065 8.33653 6.92428C8.34807 6.8839 8.35972 6.84339 8.37141 6.80275C8.45258 6.52048 8.5355 6.23215 8.5932 5.94364ZM7.85 10.375V9.94807L7.43136 10.0318C6.14239 10.2896 5.34857 10.6803 4.93086 10.9588L4.49403 11.25L4.93086 11.5412C5.34857 11.8197 6.14239 12.2104 7.43136 12.4682L7.85 12.5519V12.125V10.375ZM27.5 29.65C27.2045 29.65 26.9855 29.553 26.8412 29.4088C26.697 29.2645 26.6 29.0455 26.6 28.75C26.6 28.4545 26.697 28.2355 26.8412 28.0912C26.9855 27.947 27.2045 27.85 27.5 27.85H32.5C32.7955 27.85 33.0145 27.947 33.1588 28.0912C33.303 28.2355 33.4 28.4545 33.4 28.75C33.4 29.0455 33.303 29.2645 33.1588 29.4088C33.0145 29.553 32.7955 29.65 32.5 29.65H27.5ZM27.5 31.6H32.5C32.7955 31.6 33.0145 31.697 33.1588 31.8412C33.303 31.9855 33.4 32.2045 33.4 32.5C33.4 32.7955 33.303 33.0145 33.1588 33.1588C33.0145 33.303 32.7955 33.4 32.5 33.4H27.5C27.2045 33.4 26.9855 33.303 26.8412 33.1588C26.697 33.0145 26.6 32.7955 26.6 32.5C26.6 32.2045 26.697 31.9855 26.8412 31.8412C26.9855 31.697 27.2045 31.6 27.5 31.6ZM5.35 22.5C5.35 22.2045 5.44696 21.9855 5.59124 21.8412C5.73551 21.697 5.95454 21.6 6.25 21.6C6.54546 21.6 6.76449 21.697 6.90876 21.8412C7.05304 21.9855 7.15 22.2045 7.15 22.5V23.75C7.15 24.0455 7.05304 24.2645 6.90876 24.4088C6.76449 24.553 6.54546 24.65 6.25 24.65C5.95454 24.65 5.73551 24.553 5.59124 24.4088C5.44696 24.2645 5.35 24.0455 5.35 23.75V22.5ZM16.25 32.85H17.5C17.7955 32.85 18.0145 32.947 18.1588 33.0912C18.303 33.2355 18.4 33.4545 18.4 33.75C18.4 34.0455 18.303 34.2645 18.1588 34.4088C18.0145 34.553 17.7955 34.65 17.5 34.65H16.25C15.9545 34.65 15.7355 34.553 15.5912 34.4088C15.447 34.2645 15.35 34.0455 15.35 33.75C15.35 33.4545 15.447 33.2355 15.5912 33.0912C15.7355 32.947 15.9545 32.85 16.25 32.85Z" fill="#14171B" stroke="white" strokeWidth="0.7" />
</svg>
