<svg width="20" height="20" viewBox="0 0 17 17" fill="none" xmlns="http://www.w3.org/2000/svg">
<g id="SVG" clip-path="url(#clip0_896_31281)">
<path id="Vector" fill-rule="evenodd" clip-rule="evenodd" d="M14.2559 3.17453C14.4788 3.01155 14.7917 3.06013 14.9547 3.28305C15.365 3.84426 15.6257 4.52543 15.6739 5.26944C15.6917 5.545 15.4828 5.78285 15.2072 5.80069C14.9316 5.81852 14.6938 5.60959 14.676 5.33402C14.6405 4.78539 14.4489 4.28555 14.1474 3.87326C13.9844 3.65034 14.033 3.33751 14.2559 3.17453Z" fill="currentColor" fill-opacity="0.95"/>
<path id="Vector_2" fill-rule="evenodd" clip-rule="evenodd" d="M6.60586 1.2044C6.71741 1.45701 6.60306 1.75222 6.35045 1.86377C5.88325 2.07007 5.46742 2.40714 5.16236 2.86454C5.00914 3.09427 4.6987 3.1563 4.46896 3.00308C4.23923 2.84986 4.1772 2.53941 4.33042 2.30968C4.7441 1.68941 5.31048 1.22984 5.9465 0.948984C6.19911 0.837437 6.49432 0.951792 6.60586 1.2044Z" fill="currentColor" fill-opacity="0.95"/>
<path id="Vector_3" fill-rule="evenodd" clip-rule="evenodd" d="M5.97336 3.72195C6.2112 2.83431 7.12358 2.30756 8.01121 2.54539C8.89884 2.78324 9.42561 3.69561 9.18778 4.58325L8.32672 7.79673C8.25525 8.06346 7.98108 8.22175 7.71435 8.15028C7.44762 8.07881 7.28933 7.80464 7.3608 7.53791L8.22185 4.32444C8.31674 3.97027 8.10657 3.60623 7.7524 3.51132M5.97336 3.72195L4.64729 8.67089L4.41237 8.20882C4.03505 7.46666 3.13499 7.16043 2.38334 7.51852C1.69279 7.8475 1.3497 8.63459 1.57875 9.36441L2.54572 12.4455C2.7225 13.0089 3.01035 13.5312 3.3923 13.9814L3.87268 14.5478C4.05129 14.7584 4.36681 14.7843 4.57741 14.6057C4.78801 14.4271 4.81394 14.1116 4.63532 13.901L4.15495 13.3346C3.85943 12.9862 3.63664 12.5821 3.49984 12.1461L2.53286 9.06497C2.453 8.81049 2.57263 8.53603 2.81343 8.4213C3.07553 8.29644 3.38938 8.40322 3.52096 8.66202L4.34698 10.2867C4.44083 10.4713 4.63877 10.579 4.84473 10.5574C5.05069 10.5359 5.22205 10.3896 5.27565 10.1895L6.93928 3.98077C7.03418 3.62661 7.39822 3.41643 7.7524 3.51132" fill="currentColor" fill-opacity="0.95"/>
<path id="Vector_4" fill-rule="evenodd" clip-rule="evenodd" d="M10.3605 2.78479C10.0058 2.68973 9.64115 2.90025 9.54611 3.25498L8.22162 8.19807C8.15014 8.4648 7.87598 8.62309 7.60924 8.55162C7.34251 8.48015 7.18422 8.20598 7.25569 7.93925L8.58018 2.99617C8.81817 2.10797 9.73114 1.58087 10.6193 1.81886C11.5075 2.05685 12.0346 2.96983 11.7966 3.85802L10.4721 8.8011C10.4007 9.06782 10.1265 9.22611 9.85977 9.15464C9.59304 9.08318 9.43474 8.809 9.50622 8.54227L10.8307 3.5992C10.9258 3.24446 10.7152 2.87983 10.3605 2.78479Z" fill="currentColor" fill-opacity="0.95"/>
<path id="Vector_5" fill-rule="evenodd" clip-rule="evenodd" d="M11.4381 5.18858L10.5773 8.40104C10.5059 8.66777 10.2317 8.82606 9.96496 8.75459C9.69822 8.68312 9.53993 8.40895 9.6114 8.14222L10.4722 4.92976C10.7102 4.04157 11.6232 3.51447 12.5113 3.75246C13.3996 3.99045 13.9267 4.90341 13.6887 5.7916L12.8279 9.00407C12.7564 9.2708 12.4822 9.42909 12.2155 9.35762C11.9488 9.28615 11.7905 9.01198 11.8619 8.74524L12.7227 5.53279C12.8178 5.17807 12.6073 4.81344 12.2525 4.71838C11.8978 4.62334 11.5332 4.83385 11.4381 5.18858Z" fill="currentColor" fill-opacity="0.95"/>
<path id="Vector_6" fill-rule="evenodd" clip-rule="evenodd" d="M4.40546 9.97443C4.47142 9.70628 4.74227 9.54238 5.01042 9.60834C5.30522 9.68086 5.75507 9.84177 6.19479 10.0976C6.62908 10.3503 7.10518 10.7255 7.38126 11.2498C7.50991 11.4942 7.41612 11.7966 7.17177 11.9252C6.92743 12.0538 6.62506 11.9601 6.49641 11.7157C6.34419 11.4266 6.04843 11.1694 5.69191 10.9619C5.34083 10.7577 4.98091 10.6309 4.77155 10.5794C4.5034 10.5134 4.3395 10.2426 4.40546 9.97443Z" fill="currentColor" fill-opacity="0.95"/>
<path id="Vector_7" fill-rule="evenodd" clip-rule="evenodd" d="M13.9011 7.22679C13.5978 7.1455 13.2859 7.32556 13.2047 7.62885L12.7203 9.43673C12.6488 9.70346 12.3746 9.86175 12.1079 9.79028C11.8412 9.7188 11.6829 9.44463 11.7544 9.1779L12.2388 7.37015C12.4629 6.53326 13.3232 6.03665 14.16 6.26087C14.9969 6.4851 15.4934 7.34527 15.2692 8.18213L13.5407 14.6327C13.3169 15.4683 12.7175 16.1525 11.9186 16.4844L11.6335 16.6028C11.3785 16.7088 11.0859 16.5879 10.98 16.3329C10.8741 16.0779 10.9949 15.7853 11.2499 15.6793L11.5349 15.5609C12.0471 15.3482 12.4313 14.9096 12.5748 14.374L14.3032 7.92328C14.3845 7.61992 14.2046 7.30809 13.9011 7.22679Z" fill="currentColor" fill-opacity="0.95"/>
</g>
<defs>
<clip-path id="clip0_896_31281">
<rect width="16" height="16" fill="white" transform="translate(0.840088 0.800781)"/>
</clip-path>
</defs>
</svg>
