<svg width="23" height="30" viewBox="0 0 23 30" fill="none" xmlns="http://www.w3.org/2000/svg">
<path d="M22.3438 8.22851L22.3437 28.0332C22.3437 29.0996 21.4824 29.9609 20.416 29.9609L2.5918 29.9609C1.52539 29.9609 0.664062 29.0996 0.664062 28.0332L0.664062 1.95898C0.664062 0.892578 1.52539 0.03125 2.5918 0.03125L14.1465 0.03125L22.3438 8.22851Z" fill="#23A566"/>
<path d="M16.2441 14.9375L6.76367 14.9375C6.42383 14.9375 6.14844 15.2129 6.14844 15.5527L6.14844 23.8086C6.14844 24.1484 6.42383 24.4238 6.76367 24.4238H16.25C16.5898 24.4238 16.8652 24.1484 16.8652 23.8086V15.5586C16.8594 15.2188 16.584 14.9375 16.2441 14.9375ZM7.37891 18.8984H10.8887V20.4629H7.37891V18.8984ZM12.1191 18.8984H15.6289L15.6289 20.4629H12.1191V18.8984ZM15.6289 17.668H12.1191V16.1738H15.6289V17.668ZM10.8887 16.1738V17.668H7.37891V16.1738H10.8887ZM7.37891 21.6992H10.8887V23.1934H7.37891L7.37891 21.6992ZM12.1191 23.1934V21.6992H15.6289V23.1934H12.1191Z" fill="white"/>
<path d="M15.25 7.93164L22.3457 13.6797V8.2832L18.3203 5.94531L15.25 7.93164Z" fill="black" fill-opacity="0.0980392"/>
<path d="M22.3379 8.22852L16.0684 8.22852C15.002 8.22852 14.1406 7.36719 14.1406 6.30078L14.1406 0.03125L22.3379 8.22852Z" fill="#8ED1B1"/>
</svg>
