<svg width="34" height="34" viewBox="0 0 34 34" fill="none" xmlns="http://www.w3.org/2000/svg">
<path d="M6.375 14.2731V3.58594C6.375 2.48565 7.2669 1.59375 8.36719 1.59375H31.0117C32.112 1.59375 33.0039 2.48565 33.0039 3.58594V25.1016C33.0039 26.2018 32.112 27.0938 31.0117 27.0938H21.599" stroke="black" strokeWidth="1.99219" stroke-miterlimit="10" strokeLinecap="round" strokeLinejoin="round"/>
<path d="M19.2617 32.4062H2.99219C1.8919 32.4062 1 31.5143 1 30.4141V16.3359C1 15.2357 1.8919 14.3438 2.99219 14.3438H19.2617C20.362 14.3438 21.2539 15.2357 21.2539 16.3359V30.4141C21.2539 31.5143 20.362 32.4062 19.2617 32.4062Z" stroke="black" strokeWidth="1.99219" stroke-miterlimit="10" strokeLinecap="round" strokeLinejoin="round"/>
<path d="M1 29.2188L6.91016 24.4375L11.1602 27.625L17.0039 22.3125L21.2539 26.5625" stroke="black" strokeWidth="1.99219" stroke-miterlimit="10" strokeLinecap="round" strokeLinejoin="round"/>
<path d="M11.1562 22.3125C12.3299 22.3125 13.2812 21.3611 13.2812 20.1875C13.2812 19.0139 12.3299 18.0625 11.1562 18.0625C9.98264 18.0625 9.03125 19.0139 9.03125 20.1875C9.03125 21.3611 9.98264 22.3125 11.1562 22.3125Z" stroke="black" strokeWidth="1.99219" stroke-miterlimit="10" strokeLinecap="round" strokeLinejoin="round"/>
<path d="M24.9688 5.84375H28.6875V9.5625M28.1562 6.375L23.9062 10.625" stroke="black" strokeWidth="1.99219" stroke-miterlimit="10" strokeLinecap="round" strokeLinejoin="round"/>
</svg>
