<svg  viewBox="0 0 33 33" fill="none" xmlns="http://www.w3.org/2000/svg">
<path d="M16.9995 3C13.287 3 9.72503 4.47537 7.09975 7.10023C4.47474 9.72524 2.99951 13.2871 2.99951 17C2.99951 20.7129 4.47488 24.2745 7.09975 26.8998C9.72475 29.5248 13.2866 31 16.9995 31C20.7124 31 24.274 29.5246 26.8993 26.8998C29.5243 24.2748 30.9995 20.7129 30.9995 17C30.9955 13.2885 29.5201 9.7293 26.8951 7.10437C24.2701 4.47936 20.711 3.00414 16.9995 3ZM23.5755 13.3815L16.3964 21.9969C16.1959 22.2271 15.9118 22.3671 15.6062 22.3846C15.3208 22.3846 15.0476 22.2702 14.8457 22.0683L10.538 17.7606C10.1422 17.3365 10.1543 16.6756 10.5649 16.265C10.9741 15.8558 11.6351 15.8437 12.0605 16.2394L15.5631 19.7139L21.9816 12.0031C22.3787 11.5427 23.0733 11.4915 23.5324 11.8887C23.9927 12.2844 24.0439 12.9791 23.6481 13.4394L23.5755 13.3815Z" fill="#F6828F"/>
<circle cx="16.9995" cy="17" r="10" fill="#F6828F"/>
<path d="M11.6875 11.6875L21.3126 21.3126" stroke="white" strokeWidth="1.75" strokeLinecap="round" strokeLinejoin="round"/>
<path d="M11.6875 21.3125L21.3126 11.6874" stroke="white" strokeWidth="1.75" strokeLinecap="round" strokeLinejoin="round"/>
</svg>
