<svg width="21" height="20" viewBox="0 0 21 20" fill="none" xmlns="http://www.w3.org/2000/svg">
<g id="info (3) 1">
<path id="Vector" d="M11.9967 18.3691H5.2467C4.58366 18.3716 3.94678 18.1106 3.47618 17.6435C3.00559 17.1765 2.73981 16.5416 2.73732 15.8785C2.73484 15.2155 2.99584 14.5786 3.46293 14.108C3.93001 13.6374 4.56491 13.3716 5.22795 13.3691H13.8717C14.0375 13.3691 14.1964 13.435 14.3136 13.5522C14.4308 13.6694 14.4967 13.8284 14.4967 13.9941V15.8691C14.4967 16.5322 14.2333 17.1681 13.7645 17.6369C13.2956 18.1057 12.6597 18.3691 11.9967 18.3691Z" fill="#034737"/>
<path id="Vector_2" d="M5.23484 14.6055C4.94618 14.6092 4.6677 14.7126 4.44668 14.8983C4.22565 15.084 4.07572 15.3405 4.02234 15.6242C4.02234 15.6992 4.02234 15.7805 3.99734 15.868C3.97234 15.9555 3.99734 15.9617 3.98171 16.0055C3.73796 18.2742 5.24734 18.3742 5.24734 18.3742H11.9973C12.6604 18.3742 13.2963 18.1108 13.7651 17.642C14.2339 17.1731 14.4973 16.5373 14.4973 15.8742V14.6242L5.23484 14.6055Z" fill="#034737"/>
<path id="Vector_3" d="M18.8096 4.80664V12.1066C18.8096 12.7697 18.5462 13.4056 18.0773 13.8744C17.6085 14.3432 16.9726 14.6066 16.3096 14.6066H5.23457C4.94591 14.6103 4.66743 14.7138 4.44641 14.8995C4.22539 15.0852 4.07545 15.3417 4.02207 15.6254C4.00577 15.7056 3.9974 15.7873 3.99707 15.8691C3.99707 15.916 3.99707 15.9629 3.98145 16.0066C3.7377 18.2754 5.24707 18.3754 5.24707 18.3754C4.58403 18.3754 3.94814 18.112 3.4793 17.6432C3.01046 17.1743 2.74707 16.5384 2.74707 15.8754V4.80664C2.74707 4.1436 3.01046 3.50771 3.4793 3.03887C3.94814 2.57003 4.58403 2.30664 5.24707 2.30664H16.3096C16.9726 2.30664 17.6085 2.57003 18.0773 3.03887C18.5462 3.50771 18.8096 4.1436 18.8096 4.80664Z" fill="white"/>
<path id="Vector_4" d="M12.1781 6.02422C12.5958 6.02422 12.9344 5.68563 12.9344 5.26797C12.9344 4.8503 12.5958 4.51172 12.1781 4.51172C11.7605 4.51172 11.4219 4.8503 11.4219 5.26797C11.4219 5.68563 11.7605 6.02422 12.1781 6.02422Z" fill="#034737"/>
<path id="Vector_5" d="M5.94434 2.30664H7.19434V14.6066H5.94434V2.30664Z" fill="#D8D8FF"/>
<path id="Vector_6" d="M13.0161 12.5005C12.7076 12.5008 12.4068 12.4049 12.1553 12.2262C11.9038 12.0476 11.7143 11.795 11.613 11.5037C11.5907 11.4372 11.5791 11.3675 11.5786 11.2974V7.65365C11.5558 7.62489 11.527 7.60143 11.4942 7.58491C11.466 7.57313 11.4357 7.56707 11.4052 7.56707C11.3746 7.56707 11.3443 7.57313 11.3161 7.58491C11.1595 7.63919 10.9877 7.62903 10.8385 7.55665C10.6894 7.48427 10.5751 7.35561 10.5208 7.19897C10.4665 7.04232 10.4767 6.87053 10.549 6.72138C10.6214 6.57223 10.7501 6.45794 10.9067 6.40366C11.2768 6.27717 11.6819 6.30251 12.0334 6.47413C12.3848 6.64575 12.6539 6.94965 12.7817 7.31928C12.808 7.3945 12.8197 7.47405 12.8161 7.55366V11.1787C12.8461 11.2176 12.8876 11.246 12.9348 11.26C12.9819 11.2741 13.0322 11.2729 13.0786 11.2568C13.2352 11.2025 13.407 11.2127 13.5562 11.285C13.7053 11.3574 13.8196 11.4861 13.8739 11.6427C13.9282 11.7994 13.918 11.9712 13.8457 12.1203C13.7733 12.2695 13.6446 12.3837 13.488 12.438C13.3352 12.4845 13.1758 12.5057 13.0161 12.5005Z" fill="#034737"/>
</g>
</svg>
