<svg xmlns="http://www.w3.org/2000/svg" width="22" height="22" viewBox="0 0 16 17" fill="none">
  <path d="M13.3961 11.5627H2.60419C2.29477 11.5627 1.99801 11.4398 1.77922 11.221C1.56042 11.0022 1.4375 10.7055 1.4375 10.396V3.10419C1.4375 2.79477 1.56042 2.49801 1.77922 2.27922C1.99801 2.06042 2.29477 1.9375 2.60419 1.9375H5.8126L6.97929 3.10419H13.3961C13.7055 3.10419 14.0023 3.22711 14.2211 3.44591C14.4399 3.66471 14.5628 3.96146 14.5628 4.27089V10.396C14.5628 10.7055 14.4399 11.0022 14.2211 11.221C14.0023 11.4398 13.7055 11.5627 13.3961 11.5627Z" fill="#F3F3F1"/>
  <path d="M7.99994 9.22888C8.40265 9.22888 8.72912 8.90241 8.72912 8.49969C8.72912 8.09697 8.40265 7.77051 7.99994 7.77051C7.59722 7.77051 7.27075 8.09697 7.27075 8.49969C7.27075 8.90241 7.59722 9.22888 7.99994 9.22888Z" fill="#2FDF84"/>
  <path d="M3.91693 9.22888C4.31964 9.22888 4.64611 8.90241 4.64611 8.49969C4.64611 8.09697 4.31964 7.77051 3.91693 7.77051C3.51421 7.77051 3.18774 8.09697 3.18774 8.49969C3.18774 8.90241 3.51421 9.22888 3.91693 9.22888Z" fill="#2FDF84"/>
  <path d="M12.0837 9.22888C12.4864 9.22888 12.8129 8.90241 12.8129 8.49969C12.8129 8.09697 12.4864 7.77051 12.0837 7.77051C11.681 7.77051 11.3545 8.09697 11.3545 8.49969C11.3545 8.90241 11.681 9.22888 12.0837 9.22888Z" fill="#2FDF84"/>
  <path d="M8.5837 8.49969C8.5837 8.38886 8.61229 8.28677 8.65662 8.19285C8.59877 8.06729 8.50629 7.96085 8.39004 7.88604C8.27379 7.81123 8.1386 7.77115 8.00036 7.77051C7.80696 7.77051 7.62149 7.84733 7.48475 7.98408C7.348 8.12083 7.27117 8.3063 7.27117 8.49969C7.27117 8.69308 7.348 8.87855 7.48475 9.0153C7.62149 9.15205 7.80696 9.22888 8.00036 9.22888C8.29203 9.22888 8.53995 9.05445 8.65662 8.80653C8.60973 8.71097 8.58481 8.60613 8.5837 8.49969ZM4.50027 8.49969C4.50027 8.38886 4.52886 8.28677 4.57319 8.19285C4.51534 8.06729 4.42286 7.96085 4.30661 7.88604C4.19036 7.81123 4.05517 7.77115 3.91693 7.77051C3.72354 7.77051 3.53807 7.84733 3.40132 7.98408C3.26457 8.12083 3.18774 8.3063 3.18774 8.49969C3.18774 8.69308 3.26457 8.87855 3.40132 9.0153C3.53807 9.15205 3.72354 9.22888 3.91693 9.22888C4.2086 9.22888 4.45652 9.05445 4.57319 8.80653C4.5263 8.71097 4.50139 8.60613 4.50027 8.49969ZM12.6671 8.49969C12.6671 8.38886 12.6957 8.28677 12.74 8.19285C12.6822 8.06729 12.5897 7.96085 12.4735 7.88604C12.3572 7.81123 12.222 7.77115 12.0838 7.77051C11.8904 7.77051 11.7049 7.84733 11.5682 7.98408C11.4314 8.12083 11.3546 8.3063 11.3546 8.49969C11.3546 8.69308 11.4314 8.87855 11.5682 9.0153C11.7049 9.15205 11.8904 9.22888 12.0838 9.22888C12.3755 9.22888 12.6234 9.05445 12.74 8.80653C12.6932 8.71097 12.6682 8.60613 12.6671 8.49969Z" fill="#00B871"/>
  <path d="M2.75003 10.396V3.10419C2.75003 2.79477 2.87295 2.49801 3.09175 2.27922C3.31054 2.06042 3.6073 1.9375 3.91672 1.9375H2.60419C2.29477 1.9375 1.99801 2.06042 1.77922 2.27922C1.56042 2.49801 1.4375 2.79477 1.4375 3.10419V10.396C1.4375 10.7055 1.56042 11.0022 1.77922 11.221C1.99801 11.4398 2.29477 11.5627 2.60419 11.5627H3.91672C3.6073 11.5627 3.31054 11.4398 3.09175 11.221C2.87295 11.0022 2.75003 10.7055 2.75003 10.396Z" fill="#D5DBE1"/>
  <path d="M8.00043 9.66737C7.357 9.66737 6.83374 9.14411 6.83374 8.50068C6.83374 7.85725 7.357 7.33398 8.00043 7.33398C8.64387 7.33398 9.16713 7.85725 9.16713 8.50068C9.16713 9.14411 8.64387 9.66737 8.00043 9.66737ZM8.00043 8.209C7.96205 8.20908 7.92407 8.21672 7.88864 8.23147C7.85321 8.24623 7.82103 8.26782 7.79395 8.29502C7.76686 8.32221 7.7454 8.35447 7.73078 8.38996C7.71617 8.42545 7.70868 8.46347 7.70876 8.50185C7.70884 8.54022 7.71647 8.57821 7.73123 8.61364C7.74599 8.64907 7.76758 8.68125 7.79477 8.70833C7.82197 8.73542 7.85423 8.75688 7.88971 8.77149C7.9252 8.78611 7.96322 8.7936 8.0016 8.79352C8.07911 8.79336 8.15339 8.76242 8.20809 8.70751C8.26279 8.65259 8.29343 8.57819 8.29327 8.50068C8.29312 8.42317 8.26218 8.34889 8.20726 8.29419C8.15234 8.23949 8.07795 8.20885 8.00043 8.209Z" fill="currentColor"/>
  <path d="M7.56268 8.9375H8.4377V15.5002H7.56268V8.9375ZM6.54182 15.5002H5.6668V13.3569L3.61808 11.4447C3.57427 11.4038 3.53934 11.3543 3.51546 11.2993C3.49158 11.2443 3.47925 11.185 3.47925 11.1251V8.9375H4.35427V10.9349L6.40298 12.8471C6.44679 12.888 6.48172 12.9375 6.50561 12.9925C6.52949 13.0475 6.54182 13.1068 6.54182 13.1668V15.5002Z" fill="currentColor"/>
  <path d="M3.91669 9.66737C3.27326 9.66737 2.75 9.14411 2.75 8.50068C2.75 7.85725 3.27326 7.33398 3.91669 7.33398C4.56013 7.33398 5.08339 7.85725 5.08339 8.50068C5.08339 9.14411 4.56013 9.66737 3.91669 9.66737ZM3.91669 8.209C3.83918 8.20916 3.76491 8.2401 3.71021 8.29502C3.65551 8.34993 3.62487 8.42433 3.62502 8.50185C3.62517 8.57936 3.65611 8.65363 3.71103 8.70833C3.76595 8.76303 3.84035 8.79367 3.91786 8.79352C3.99537 8.79336 4.06965 8.76242 4.12435 8.70751C4.17905 8.65259 4.20969 8.57819 4.20953 8.50068C4.20938 8.42317 4.17844 8.34889 4.12352 8.29419C4.0686 8.23949 3.9942 8.20885 3.91669 8.209ZM10.3335 15.5008H9.45849V13.1675C9.45849 13.1075 9.47082 13.0482 9.4947 12.9932C9.51859 12.9382 9.55352 12.8887 9.59733 12.8478L11.646 10.9356V8.93819H12.5211V11.1257C12.5211 11.1857 12.5087 11.245 12.4848 11.3C12.461 11.355 12.426 11.4045 12.3822 11.4454L10.3335 13.3576V15.5008Z" fill="currentColor"/>
  <path d="M12.0834 9.66737C11.44 9.66737 10.9167 9.14411 10.9167 8.50068C10.9167 7.85725 11.44 7.33398 12.0834 7.33398C12.7269 7.33398 13.2501 7.85725 13.2501 8.50068C13.2501 9.14411 12.7269 9.66737 12.0834 9.66737ZM12.0834 8.209C12.0451 8.20908 12.0071 8.21672 11.9716 8.23147C11.9362 8.24623 11.904 8.26782 11.877 8.29502C11.8499 8.32221 11.8284 8.35447 11.8138 8.38996C11.7992 8.42545 11.7917 8.46347 11.7918 8.50185C11.7918 8.54022 11.7995 8.57821 11.8142 8.61364C11.829 8.64907 11.8506 8.68125 11.8778 8.70833C11.905 8.73542 11.9372 8.75688 11.9727 8.77149C12.0082 8.78611 12.0462 8.7936 12.0846 8.79352C12.1621 8.79336 12.2364 8.76242 12.2911 8.70751C12.3458 8.65259 12.3764 8.57819 12.3763 8.50068C12.3761 8.42317 12.3452 8.34889 12.2903 8.29419C12.2354 8.23949 12.161 8.20885 12.0834 8.209Z" fill="currentColor"/>
  <path d="M13.7826 12.0113L13.3615 11.2442L13.7453 11.0342C13.8598 10.9716 13.9553 10.8794 14.022 10.7672C14.0887 10.6551 14.1241 10.5271 14.1245 10.3966V4.27148C14.1245 3.86956 13.7972 3.5423 13.3953 3.5423H6.97848C6.92103 3.54234 6.86414 3.53103 6.81108 3.509C6.75802 3.48698 6.70983 3.45468 6.6693 3.41396L5.63095 2.3756H2.60396C2.41067 2.3756 2.22529 2.45235 2.08856 2.58897C1.95182 2.72559 1.87493 2.91091 1.87478 3.1042V10.396C1.87478 10.6609 2.02003 10.9047 2.25395 11.0336L2.63779 11.2436L2.21662 12.0107L1.83394 11.8002C1.58166 11.6625 1.37108 11.4596 1.2243 11.2125C1.07752 10.9654 0.999958 10.6834 0.999756 10.396V3.1042C1.00006 2.67884 1.16918 2.27098 1.46996 1.9702C1.77074 1.66942 2.17859 1.50031 2.60396 1.5H5.81237C5.92845 1.5 6.03987 1.54608 6.12154 1.62834L7.16048 2.66669H13.3959C13.8212 2.667 14.2291 2.83612 14.5299 3.1369C14.8307 3.43768 14.9998 3.84553 15.0001 4.2709V10.396C14.9999 10.6834 14.9223 10.9654 14.7755 11.2125C14.6288 11.4596 14.4182 11.6625 14.1659 11.8002L13.7826 12.0113Z" fill="currentColor"/>
</svg>