<svg width="20" height="20" viewBox="0 0 17 17" fill="none" xmlns="http://www.w3.org/2000/svg">
<g id="SVG" clip-path="url(#clip0_896_31292)">
<path id="Vector" fill-rule="evenodd" clip-rule="evenodd" d="M7.09462 0.870832C7.24636 0.780751 7.43436 0.777331 7.58928 0.861834L13.0893 3.86183C13.25 3.94945 13.3499 4.11781 13.3499 4.30078C13.3499 4.48375 13.25 4.65211 13.0893 4.73973L7.84985 7.5976V10.8508C8.82942 11.0496 9.601 11.8212 9.79984 12.8008H15.1428L13.4963 11.1544C13.3011 10.9591 13.3011 10.6425 13.4963 10.4472C13.6916 10.252 14.0082 10.252 14.2035 10.4472L16.7035 12.9472C16.8987 13.1425 16.8987 13.4591 16.7035 13.6544L14.2035 16.1544C14.0082 16.3496 13.6916 16.3496 13.4963 16.1544C13.3011 15.9591 13.3011 15.6425 13.4963 15.4472L15.1428 13.8008H9.79984C9.56821 14.9419 8.55933 15.8008 7.34985 15.8008C6.14037 15.8008 5.13149 14.9419 4.89986 13.8008H1.34985C1.07371 13.8008 0.849854 13.5769 0.849854 13.3008C0.849854 13.0247 1.07371 12.8008 1.34985 12.8008H4.89986C5.0987 11.8212 5.87028 11.0496 6.84985 10.8508V1.30078C6.84985 1.12431 6.94287 0.960913 7.09462 0.870832ZM5.84985 13.3008C5.84985 14.1292 6.52142 14.8008 7.34985 14.8008C8.17828 14.8008 8.84985 14.1292 8.84985 13.3008C8.84985 12.4724 8.17828 11.8008 7.34985 11.8008C6.52142 11.8008 5.84985 12.4724 5.84985 13.3008ZM7.84985 6.45851L11.8057 4.30078L7.84985 2.14305V6.45851Z" fill="currentColor" fill-opacity="0.95"/>
</g>
<defs>
<clip-path id="clip0_896_31292">
<rect width="16" height="16" fill="white" transform="translate(0.849854 0.800781)"/>
</clip-path>
</defs>
</svg>
