<svg width="20" height="20" viewBox="0 0 17 17" fill="none" xmlns="http://www.w3.org/2000/svg">
<g id="SVG" clip-path="url(#clip0_896_31869)">
<g id="Clip path group">
<mask id="mask0_896_31869" style="mask-type:luminance" maskUnits="userSpaceOnUse" x="0" y="0" width="17" height="17">
<g id="clip0_2_1132">
<path id="Vector" d="M16.3594 0.800781H0.359375V16.8008H16.3594V0.800781Z" fill="currentColor"/>
</g>
</mask>
<g mask="url(#mask0_896_31869)">
<g id="Group">
<path id="Vector_2" fill-rule="evenodd" clip-rule="evenodd" d="M0.359375 2.30078C0.359375 1.47235 1.03095 0.800781 1.85938 0.800781H14.8594C15.6878 0.800781 16.3594 1.47235 16.3594 2.30078V11.4917L16.5303 11.5772L16.3594 11.919V15.3008C16.3594 16.1292 15.6878 16.8008 14.8594 16.8008H11.359H10.3589H1.85938C1.03095 16.8008 0.359375 16.1292 0.359375 15.3008V9.33541L0.300781 8.86666L0.359375 8.85934V2.30078ZM15.3594 2.30078V11.0992C15.3183 11.0881 15.2754 11.0769 15.2307 11.0657C14.6923 10.9311 13.9016 10.8008 12.8595 10.8008C11.7731 10.8008 10.947 11.073 10.3859 11.3536C10.1061 11.4935 9.89318 11.6349 9.74695 11.7446C9.7246 11.7613 9.70378 11.7774 9.68451 11.7925C9.27633 11.2891 8.76835 10.8062 8.13628 10.3848C6.53968 9.32035 4.69688 8.93171 3.27921 8.80284C2.56646 8.73804 1.95096 8.738 1.51231 8.75425C1.45868 8.75624 1.40766 8.75847 1.35938 8.76086V2.30078C1.35938 2.02464 1.58324 1.80078 1.85938 1.80078H14.8594C15.1355 1.80078 15.3594 2.02464 15.3594 2.30078ZM1.35938 15.3008V9.76219C1.41762 9.75904 1.48107 9.75609 1.54931 9.75356C1.95441 9.73856 2.52642 9.73852 3.18866 9.79873C4.521 9.91985 6.17819 10.2812 7.58158 11.2168C8.96354 12.1381 9.65864 13.406 10.0096 14.4589C10.185 14.9852 10.2727 15.453 10.3163 15.7873L10.318 15.8008H1.85938C1.58324 15.8008 1.35938 15.5769 1.35938 15.3008ZM11.3079 15.658C11.3144 15.7081 11.3201 15.7558 11.3251 15.8008H14.8594C15.1355 15.8008 15.3594 15.5769 15.3594 15.3008V12.1426C15.2615 12.1102 15.1377 12.0733 14.9882 12.0359C14.5266 11.9205 13.8174 11.8008 12.8595 11.8008C11.9459 11.8008 11.2719 12.0286 10.8331 12.248C10.6128 12.3581 10.4507 12.4667 10.347 12.5445C10.3102 12.5721 10.2809 12.5957 10.259 12.6141C10.5743 13.1399 10.7988 13.6641 10.9583 14.1427C11.1579 14.7414 11.2577 15.2736 11.3079 15.658ZM12.3594 6.30078C12.3594 7.12921 11.6878 7.80078 10.8594 7.80078C10.0309 7.80078 9.35938 7.12921 9.35938 6.30078C9.35938 5.47235 10.0309 4.80078 10.8594 4.80078C11.6878 4.80078 12.3594 5.47235 12.3594 6.30078ZM13.3594 6.30078C13.3594 7.68149 12.2401 8.80078 10.8594 8.80078C9.47867 8.80078 8.35938 7.68149 8.35938 6.30078C8.35938 4.92007 9.47867 3.80078 10.8594 3.80078C12.2401 3.80078 13.3594 4.92007 13.3594 6.30078Z" fill="currentColor"/>
</g>
</g>
</g>
</g>
<defs>
<clip-path id="clip0_896_31869">
<rect width="16" height="16" fill="currentColor" transform="translate(0.359375 0.800781)"/>
</clip-path>
</defs>
</svg>
