<svg width="16" height="16" viewBox="0 0 16 16" fill="none" xmlns="http://www.w3.org/2000/svg">
<g id="vuesax/linear/message">
<g id="vuesax/linear/message_2">
<g id="message">
<path id="Vector" d="M5.66665 12.6663H5.33331C2.66665 12.6663 1.33331 11.9997 1.33331 8.66634V5.33301C1.33331 2.66634 2.66665 1.33301 5.33331 1.33301H10.6666C13.3333 1.33301 14.6666 2.66634 14.6666 5.33301V8.66634C14.6666 11.333 13.3333 12.6663 10.6666 12.6663H10.3333C10.1266 12.6663 9.92665 12.7663 9.79998 12.933L8.79998 14.2663C8.35998 14.853 7.63998 14.853 7.19998 14.2663L6.19998 12.933C6.09331 12.7863 5.84665 12.6663 5.66665 12.6663Z" stroke="currentColor" strokeWidth="1.5" stroke-miterlimit="10" strokeLinecap="round" strokeLinejoin="round"/>
<path id="Vector_2" d="M10.6643 7.33333H10.6703" stroke="currentColor" strokeWidth="2" strokeLinecap="round" strokeLinejoin="round"/>
<path id="Vector_3" d="M7.99697 7.33333H8.00296" stroke="currentColor" strokeWidth="2" strokeLinecap="round" strokeLinejoin="round"/>
<path id="Vector_4" d="M5.32967 7.33333H5.33566" stroke="currentColor" strokeWidth="2" strokeLinecap="round" strokeLinejoin="round"/>
</g>
</g>
</g>
</svg>
