<svg width="24" height="24" viewBox="0 0 24 24" fill="none" xmlns="http://www.w3.org/2000/svg">
<g id="multi-direction 1" clip-path="url(#clip0_2058_15180)">
<path id="Vector" d="M12.1875 6.09375C8.82741 6.09375 6.09375 8.82741 6.09375 12.1875C6.09375 15.5476 8.82741 18.2812 12.1875 18.2812C15.5476 18.2812 18.2812 15.5476 18.2812 12.1875C18.2812 8.82741 15.5476 6.09375 12.1875 6.09375ZM12.1875 17.3438C9.34434 17.3438 7.03125 15.0307 7.03125 12.1875C7.03125 9.34434 9.34434 7.03125 12.1875 7.03125C15.0307 7.03125 17.3438 9.34434 17.3438 12.1875C17.3438 15.0307 15.0307 17.3438 12.1875 17.3438Z" fill="currentColor"/>
<path id="Vector_2" d="M12.1876 8.33558C10.0637 8.33558 8.3357 10.0635 8.3357 12.1875C8.3357 14.3114 10.0637 16.0394 12.1876 16.0394C14.3116 16.0394 16.0395 14.3114 16.0395 12.1875C16.0395 10.0635 14.3116 8.33558 12.1876 8.33558ZM12.1876 15.1019C10.5806 15.1019 9.2732 13.7945 9.2732 12.1875C9.2732 10.5805 10.5806 9.27308 12.1876 9.27308C13.7946 9.27308 15.102 10.5805 15.102 12.1875C15.102 13.7945 13.7946 15.1019 12.1876 15.1019ZM10.5939 3.18748L11.7189 2.34373V4.68748C11.7189 4.94637 11.9287 5.15623 12.1876 5.15623C12.4464 5.15623 12.6564 4.94637 12.6564 4.68748V2.34373L13.7814 3.18748C13.9873 3.34189 14.2813 3.30204 14.4376 3.09373C14.5929 2.88664 14.5509 2.59278 14.3439 2.43748C12.3422 0.936872 12.4516 1.01417 12.3972 0.986982C12.2199 0.902138 12.0325 0.935372 11.9064 1.03123L10.0314 2.43748C9.82426 2.59278 9.78231 2.88664 9.9376 3.09373C10.0929 3.30083 10.3867 3.34283 10.5939 3.18748ZM13.7814 21.1875L12.6564 22.0312V19.6875C12.6564 19.4286 12.4464 19.2187 12.1876 19.2187C11.9287 19.2187 11.7189 19.4286 11.7189 19.6875V22.0312L10.5939 21.1875C10.3868 21.0321 10.0929 21.0741 9.9376 21.2812C9.78231 21.4883 9.82426 21.7822 10.0314 21.9375L11.9064 23.3437C11.9569 23.3818 12.0204 23.4117 12.0893 23.4267C12.1686 23.4438 12.226 23.4387 12.2944 23.4252C12.3552 23.411 12.4164 23.3829 12.4689 23.3438L14.3439 21.9375C14.5509 21.7822 14.5929 21.4884 14.4376 21.2813C14.2823 21.0742 13.9885 21.0322 13.7814 21.1875ZM17.1732 7.21564C17.3563 7.39868 17.653 7.39868 17.8362 7.21564L19.4934 5.55837L19.6923 6.95051C19.7288 7.20565 19.9651 7.385 20.2226 7.34825C20.4789 7.31164 20.657 7.07422 20.6203 6.81795C20.2913 4.5515 20.2975 4.49787 20.2696 4.41579C20.2195 4.26837 20.1046 4.16037 19.9628 4.1165C19.9091 4.09986 20.0867 4.12808 17.571 3.76854C17.3147 3.7317 17.0772 3.91001 17.0407 4.16628C17.0041 4.42254 17.1821 4.66001 17.4384 4.69658L18.8305 4.89547L17.1732 6.55273C16.9902 6.73578 16.9902 7.03259 17.1732 7.21564ZM7.22954 17.1593C7.0465 16.9763 6.74968 16.9763 6.56664 17.1593L4.90937 18.8165L4.71048 17.4244C4.67387 17.1681 4.43612 16.99 4.18018 17.0267C3.92392 17.0633 3.74579 17.3008 3.78245 17.557L4.1139 19.8772C4.14254 20.0605 4.26657 20.1996 4.42628 20.2542C4.49842 20.2792 4.36098 20.2512 6.83186 20.6065C7.0876 20.6429 7.3255 20.4655 7.36215 20.2087C7.39876 19.9525 7.22068 19.715 6.96442 19.6784L5.57232 19.4795L7.22959 17.8223C7.41264 17.6392 7.41259 17.3424 7.22954 17.1593ZM23.345 11.9081C23.2673 11.807 23.7257 12.4157 21.9376 10.0312C21.7823 9.82414 21.4885 9.78214 21.2814 9.93748C21.0743 10.0928 21.0323 10.3866 21.1876 10.5937L22.0314 11.7187H19.6876C19.4288 11.7187 19.2189 11.9286 19.2189 12.1875C19.2189 12.4463 19.4288 12.6562 19.6876 12.6562H22.0314L21.1876 13.7812C20.9531 14.0938 21.1829 14.5313 21.5622 14.5313C21.7047 14.5313 21.8455 14.4665 21.9376 14.3437C23.4294 12.3525 23.3775 12.4411 23.4125 12.3385C23.4642 12.1833 23.4314 12.0243 23.345 11.9081ZM2.34386 12.6562H4.6876C4.9465 12.6562 5.15635 12.4463 5.15635 12.1875C5.15635 11.9286 4.9465 11.7187 4.6876 11.7187H2.34386L3.1876 10.5937C3.3429 10.3866 3.30095 10.0928 3.09385 9.93748C2.88676 9.78218 2.59295 9.82414 2.43761 10.0312C0.95073 12.0162 1.02653 11.9066 0.997418 11.9588C0.909714 12.1141 0.91848 12.3093 1.02507 12.4595C1.04837 12.4919 2.11257 13.9102 2.43761 14.3437C2.52971 14.4665 2.67043 14.5313 2.81298 14.5313C3.19178 14.5313 3.42254 14.0945 3.1876 13.7812L2.34386 12.6562ZM20.2226 17.0267C19.9664 16.9903 19.729 17.1682 19.6923 17.4244L19.4935 18.8165L17.8362 17.1593C17.6532 16.9763 17.3565 16.9763 17.1733 17.1593C16.9902 17.3423 16.9902 17.6391 17.1733 17.8222L18.8305 19.4795L17.4384 19.6784C17.1821 19.715 17.0041 19.9525 17.0407 20.2087C17.0741 20.4425 17.2746 20.6112 17.5042 20.6112C17.5672 20.6112 17.446 20.6226 19.8912 20.275C20.1158 20.239 20.261 20.0676 20.2885 19.8793C20.3085 19.7197 20.1885 20.5792 20.6205 17.557C20.657 17.3008 20.4789 17.0634 20.2226 17.0267ZM4.24707 7.35298C4.47657 7.35298 4.6771 7.18423 4.71053 6.95047L4.90937 5.55837L6.56664 7.21564C6.65818 7.30719 6.77814 7.35293 6.89809 7.35293C7.01804 7.35293 7.13804 7.30719 7.22954 7.21564C7.41259 7.03259 7.41259 6.73578 7.22954 6.55268L5.57228 4.89542L6.96437 4.69653C7.22064 4.65992 7.39876 4.4225 7.36211 4.16623C7.3255 3.90992 7.0877 3.73189 6.83181 3.7685C4.37575 4.1195 4.50845 4.0954 4.44095 4.11612C4.26142 4.17139 4.13837 4.3242 4.11386 4.49773L3.7824 6.81795C3.74209 7.10009 3.961 7.35298 4.24707 7.35298Z" fill="currentColor"/>
</g>
<defs>
<clip-path id="clip0_2058_15180">
<rect width="24" height="24" fill="white"/>
</clip-path>
</defs>
</svg>
