<svg width="24" height="24" viewBox="0 0 24 24" fill="none" xmlns="http://www.w3.org/2000/svg">
<g id="multiple-stars (2) 1">
<path id="Vector" d="M6.89443 2.55279C6.72504 2.214 6.37877 2 6 2C5.62123 2 5.27496 2.214 5.10557 2.55279L4.70186 3.36022C4.37746 4.00902 4.30469 4.1281 4.21639 4.21639C4.1281 4.30469 4.00902 4.37746 3.36022 4.70186L2.55279 5.10557C2.214 5.27496 2 5.62123 2 6C2 6.37877 2.214 6.72504 2.55279 6.89443L3.36022 7.29814C4.00902 7.62254 4.1281 7.69531 4.21639 7.78361C4.30469 7.8719 4.37746 7.99098 4.70186 8.63978L5.10557 9.44721C5.27496 9.786 5.62123 10 6 10C6.37877 10 6.72504 9.786 6.89443 9.44721L7.29814 8.63978C7.62254 7.99098 7.69531 7.8719 7.78361 7.78361C7.8719 7.69531 7.99098 7.62254 8.63978 7.29814L9.44721 6.89443C9.786 6.72504 10 6.37877 10 6C10 5.62123 9.786 5.27496 9.44721 5.10557L8.63978 4.70186C7.99098 4.37746 7.8719 4.30469 7.78361 4.21639C7.69531 4.1281 7.62254 4.00902 7.29814 3.36022L6.89443 2.55279Z" fill="currentColor"/>
<path id="Vector_2" d="M16.8944 4.55279C16.725 4.214 16.3788 4 16 4C15.6212 4 15.275 4.214 15.1056 4.55279L14.2981 6.16765C13.6782 7.4075 13.4577 7.82211 13.1399 8.1399C12.8221 8.45768 12.4075 8.67822 11.1676 9.29814L9.55279 10.1056C9.214 10.275 9 10.6212 9 11C9 11.3788 9.214 11.725 9.55279 11.8944L11.1676 12.7019C12.4075 13.3218 12.8221 13.5423 13.1399 13.8601C13.4577 14.1779 13.6782 14.5925 14.2981 15.8324L15.1056 17.4472C15.275 17.786 15.6212 18 16 18C16.3788 18 16.725 17.786 16.8944 17.4472L17.7019 15.8324C18.3218 14.5925 18.5423 14.1779 18.8601 13.8601C19.1779 13.5423 19.5925 13.3218 20.8324 12.7019L22.4472 11.8944C22.786 11.725 23 11.3788 23 11C23 10.6212 22.786 10.275 22.4472 10.1056L20.8324 9.29814C19.5925 8.67822 19.1779 8.45768 18.8601 8.1399C18.5423 7.82211 18.3218 7.4075 17.7019 6.16765L16.8944 4.55279Z" fill="currentColor"/>
<path id="Vector_3" d="M6.89443 12.5528C6.72504 12.214 6.37877 12 6 12C5.62123 12 5.27496 12.214 5.10557 12.5528L4.96481 12.8343C4.34488 14.0742 4.12435 14.4888 3.80656 14.8066C3.48878 15.1243 3.07417 15.3449 1.83431 15.9648L1.55279 16.1056C1.214 16.275 1 16.6212 1 17C1 17.3788 1.214 17.725 1.55279 17.8944L1.83431 18.0352C3.07417 18.6551 3.48878 18.8757 3.80656 19.1934C4.12435 19.5112 4.34488 19.9258 4.96481 21.1657L5.10557 21.4472C5.27496 21.786 5.62123 22 6 22C6.37877 22 6.72504 21.786 6.89443 21.4472L7.03519 21.1657C7.65512 19.9258 7.87565 19.5112 8.19344 19.1934C8.51122 18.8757 8.92583 18.6551 10.1657 18.0352L10.4472 17.8944C10.786 17.725 11 17.3788 11 17C11 16.6212 10.786 16.275 10.4472 16.1056L10.1657 15.9648C8.92583 15.3449 8.51122 15.1243 8.19344 14.8066C7.87565 14.4888 7.65512 14.0742 7.03519 12.8343L6.89443 12.5528Z" fill="currentColor"/>
</g>
</svg>
