<!-- 
<svg xmlns="http://www.w3.org/2000/svg" width="22" height="22" viewBox="0 0 16 17" fill="none">

  <g clip-path="url(#clip0_993_9306)">

  <g clipPath="url(#clip0_993_9306)"> -->

<svg xmlns="http://www.w3.org/2000/svg" width="26" height="26" viewBox="0 0 16 17" fill="none">
  <g clip-path="url(#clip0_993_9306)">

    <path fill-rule="evenodd" clip-rule="evenodd" d="M2.5 3V2.5C2.5 2.224 2.724 2 3 2C3.276 2 3.5 2.224 3.5 2.5V3C3.898 3 4.2795 3.158 4.5605 3.4395C4.5805 3.459 4.5995 3.4795 4.618 3.5H13.5C13.898 3.5 14.2795 3.658 14.5605 3.9395C14.842 4.2205 15 4.602 15 5V12C15 12.398 14.842 12.7795 14.5605 13.0605C14.2795 13.342 13.898 13.5 13.5 13.5H4.618C4.5995 13.5205 4.5805 13.541 4.5605 13.5605C4.2795 13.842 3.898 14 3.5 14V14.5C3.5 14.776 3.276 15 3 15C2.724 15 2.5 14.776 2.5 14.5V14C2.102 14 1.7205 13.842 1.4395 13.5605C1.158 13.2795 1 12.898 1 12.5C1 10.584 1 6.416 1 4.5C1 4.102 1.158 3.7205 1.4395 3.4395C1.7205 3.158 2.102 3 2.5 3ZM4 4.5C4 4.3675 3.9475 4.24 3.8535 4.1465C3.76 4.0525 3.6325 4 3.5 4C3.178 4 2.822 4 2.5 4C2.3675 4 2.24 4.0525 2.1465 4.1465C2.0525 4.24 2 4.3675 2 4.5C2 6.416 2 10.584 2 12.5C2 12.6325 2.0525 12.76 2.1465 12.8535C2.24 12.9475 2.3675 13 2.5 13C2.822 13 3.178 13 3.5 13C3.6325 13 3.76 12.9475 3.8535 12.8535C3.9475 12.76 4 12.6325 4 12.5V4.5ZM5 4.5V12.5H13.5C13.6325 12.5 13.76 12.4475 13.8535 12.3535C13.9475 12.26 14 12.1325 14 12V5C14 4.8675 13.9475 4.74 13.8535 4.6465C13.76 4.5525 13.6325 4.5 13.5 4.5H5ZM7 11H10C10.276 11 10.5 10.776 10.5 10.5C10.5 10.224 10.276 10 10 10H7C6.724 10 6.5 10.224 6.5 10.5C6.5 10.776 6.724 11 7 11ZM7 9H11C11.276 9 11.5 8.776 11.5 8.5C11.5 8.224 11.276 8 11 8H7C6.724 8 6.5 8.224 6.5 8.5C6.5 8.776 6.724 9 7 9ZM7 7H12C12.276 7 12.5 6.776 12.5 6.5C12.5 6.224 12.276 6 12 6H7C6.724 6 6.5 6.224 6.5 6.5C6.5 6.776 6.724 7 7 7Z" fill="currentColor"/>
  </g>
  <defs>
    <clip-path id="clip0_993_9306">
      <rect width="16" height="16" fill="white" transform="translate(0 0.5)"/>
    </clip-path>
  </defs>
</svg>