<svg width="60" height="50" viewBox="0 0 47 28" fill="currentColor" xmlns="http://www.w3.org/2000/svg">
<g id="Group 1171275544">
<path id="Vector" opacity="0.6" d="M13.2661 6.82258H7.95968C7.55757 6.82258 7.17194 6.98232 6.88761 7.26664C6.60328 7.55097 6.44355 7.93661 6.44355 8.33871V18.9516C6.44355 19.3537 6.60328 19.7393 6.88761 20.0237C7.17194 20.308 7.55757 20.4677 7.95968 20.4677C8.36178 20.4677 8.74741 20.308 9.03174 20.0237C9.31607 19.7393 9.47581 19.3537 9.47581 18.9516V15.1613H13.2661C14.0703 15.1613 14.8416 14.8418 15.4103 14.2732C15.9789 13.7045 16.2984 12.9332 16.2984 12.129V9.85484C16.2984 9.05063 15.9789 8.27937 15.4103 7.71071C14.8416 7.14205 14.0703 6.82258 13.2661 6.82258ZM13.2661 12.129H9.47581V9.85484H13.2661V12.129ZM25.3952 6.82258H20.0887C19.6866 6.82258 19.301 6.98232 19.0166 7.26664C18.7323 7.55097 18.5726 7.93661 18.5726 8.33871V18.9516C18.5726 19.3537 18.7323 19.7393 19.0166 20.0237C19.301 20.308 19.6866 20.4677 20.0887 20.4677C20.4908 20.4677 20.8764 20.308 21.1608 20.0237C21.4451 19.7393 21.6048 19.3537 21.6048 18.9516V15.1613H25.3952C26.1994 15.1613 26.9706 14.8418 27.5393 14.2732C28.108 13.7045 28.4274 12.9332 28.4274 12.129V9.85484C28.4274 9.05063 28.108 8.27937 27.5393 7.71071C26.9706 7.14205 26.1994 6.82258 25.3952 6.82258ZM25.3952 12.129H21.6048V9.85484H25.3952V12.129ZM40.5564 8.33871C40.5564 8.74081 40.3967 9.12644 40.1124 9.41077C39.8281 9.6951 39.4424 9.85484 39.0403 9.85484H37.1452V18.9516C37.1452 19.3537 36.9854 19.7393 36.7011 20.0237C36.4168 20.308 36.0311 20.4677 35.629 20.4677C35.2269 20.4677 34.8413 20.308 34.557 20.0237C34.2726 19.7393 34.1129 19.3537 34.1129 18.9516V9.85484H32.2177C31.8156 9.85484 31.43 9.6951 31.1457 9.41077C30.8613 9.12644 30.7016 8.74081 30.7016 8.33871C30.7016 7.93661 30.8613 7.55097 31.1457 7.26664C31.43 6.98232 31.8156 6.82258 32.2177 6.82258H39.0403C39.4424 6.82258 39.8281 6.98232 40.1124 7.26664C40.3967 7.55097 40.5564 7.93661 40.5564 8.33871ZM38.6613 0H8.33871C6.12795 0.0026081 4.00848 0.881986 2.44523 2.44523C0.881986 4.00848 0.0026081 6.12795 0 8.33871V18.9516C0.0026081 21.1624 0.881986 23.2818 2.44523 24.8451C4.00848 26.4083 6.12795 27.2877 8.33871 27.2903H38.6613C40.8721 27.2877 42.9915 26.4083 44.5548 24.8451C46.118 23.2818 46.9974 21.1624 47 18.9516V8.33871C46.9974 6.12795 46.118 4.00848 44.5548 2.44523C42.9915 0.881986 40.8721 0.0026081 38.6613 0ZM43.9677 18.9516C43.9661 20.3585 43.4066 21.7073 42.4117 22.7021C41.4169 23.6969 40.0682 24.2565 38.6613 24.2581H33.7142C33.1234 23.5445 32.382 22.9705 31.5432 22.5773C30.7044 22.1841 29.7889 21.9814 28.8625 21.9839H8.33871C6.93184 21.9823 5.58306 21.4227 4.58825 20.4279C3.59345 19.4331 3.03386 18.0843 3.03226 16.6774V8.33871C3.03386 6.93184 3.59345 5.58306 4.58825 4.58825C5.58306 3.59345 6.93184 3.03386 8.33871 3.03226H38.6613C40.0682 3.03386 41.4169 3.59345 42.4117 4.58825C43.4066 5.58306 43.9661 6.93184 43.9677 8.33871V18.9516Z"/>
</g>
</svg>
