<svg width="24" height="24" viewBox="0 0 24 24" fill="none" xmlns="http://www.w3.org/2000/svg">
<g id="Component 20">
<path id="Vector" fill-rule="evenodd" clip-rule="evenodd" d="M22 6.74997C22 6.3078 21.825 5.88358 21.5125 5.57108C21.2 5.25858 20.775 5.0828 20.3336 5.0828H16.3398L14.3773 3.12188C14.3 3.04375 14.1938 3 14.0836 3H9.91641C9.80626 3 9.70001 3.04375 9.62265 3.12188L7.66017 5.0828H3.66639C3.22499 5.0828 2.8 5.25858 2.4875 5.57108C2.175 5.88358 2 6.3078 2 6.74997V18.4163C2 18.8585 2.175 19.2827 2.4875 19.5952C2.8 19.9077 3.22499 20.0827 3.66639 20.0827H20.3327C20.7741 20.0827 21.1991 19.9069 21.5116 19.5944C21.8249 19.2827 21.9999 18.8585 21.9999 18.4163L22 6.74997ZM21.1664 6.74997V18.4163C21.1664 18.6374 21.0789 18.8491 20.9226 19.0054C20.7664 19.1616 20.5539 19.2499 20.3336 19.2499H3.66649C3.44617 19.2499 3.23367 19.1616 3.07743 19.0054C2.92119 18.8491 2.83367 18.6374 2.83367 18.4163V6.74997C2.83367 6.52887 2.92117 6.31716 3.07743 6.16092C3.23368 6.00389 3.44619 5.91638 3.66649 5.91638H7.83287C7.94302 5.91638 8.04926 5.87263 8.12662 5.7945L10.0899 3.83279H13.9109L15.8734 5.79372C15.9499 5.87263 16.0562 5.91638 16.1663 5.91638H20.3327C20.5538 5.91638 20.7663 6.00388 20.9225 6.16092C21.0788 6.31717 21.1664 6.52887 21.1664 6.74997ZM16.7688 12.1031C16.7837 12.261 16.7915 12.4211 16.7915 12.5828C16.7915 15.2274 14.6439 17.375 12.0001 17.375C9.35633 17.375 7.20874 15.2274 7.20874 12.5828C7.20874 9.93824 9.35633 7.79145 12.0001 7.79145C12.2353 7.79145 12.4689 7.80863 12.6962 7.84145C12.9236 7.87426 13.1337 7.71645 13.1673 7.48911C13.2001 7.26177 13.0415 7.05005 12.815 7.01723C12.5478 6.97817 12.2775 6.95786 12.0001 6.95786C8.89615 6.95786 6.37517 9.47824 6.37517 12.5828C6.37517 15.6874 8.89615 18.2078 12.0001 18.2078C15.1041 18.2078 17.6251 15.6874 17.6251 12.5828C17.6251 12.393 17.6149 12.2055 17.5978 12.0211C17.5751 11.7922 17.3704 11.625 17.1415 11.6477C16.9126 11.6703 16.7454 11.875 16.7688 12.1031ZM11.1415 11.6055C11.0813 11.4414 10.9251 11.3328 10.7501 11.3328C10.5751 11.3328 10.4188 11.4414 10.3587 11.6047L9.86257 12.9461L8.52274 13.4422C8.35868 13.5031 8.25008 13.6586 8.25008 13.8328C8.25008 14.007 8.35868 14.1633 8.52274 14.2234L9.86257 14.7195L10.3587 16.0609C10.4188 16.2242 10.5751 16.3328 10.7501 16.3328C10.9251 16.3328 11.0813 16.2242 11.1415 16.0609L11.6376 14.7195L12.9774 14.2234C13.1415 14.1633 13.2501 14.0078 13.2501 13.8328C13.2501 13.6586 13.1415 13.5031 12.9774 13.4422L11.6376 12.9461L11.1415 11.6055ZM10.7501 12.9508L10.9227 13.4156C10.9641 13.5297 11.054 13.6195 11.1688 13.6617L11.6337 13.8328L11.1688 14.0047C11.054 14.0469 10.9649 14.1367 10.9227 14.2508L10.7501 14.7156L10.579 14.2508C10.5352 14.1367 10.4454 14.0469 10.3313 14.0047L9.86648 13.8328L10.3313 13.661C10.4462 13.6188 10.5352 13.5289 10.579 13.4149L10.7501 12.9508ZM14.8836 6.18844C14.8227 6.02516 14.6665 5.91656 14.4938 5.91656C14.3188 5.91656 14.1626 6.02515 14.1024 6.18844L13.1001 8.89782L10.3899 9.90015C10.2274 9.96109 10.1188 10.1166 10.1188 10.2908C10.1188 10.465 10.2274 10.6212 10.3899 10.6814L13.1001 11.6837L14.1024 14.3931C14.1626 14.5564 14.3188 14.665 14.4938 14.665C14.6665 14.665 14.8227 14.5564 14.8836 14.3931L15.8875 11.6837L18.5961 10.6814C18.761 10.6205 18.8688 10.465 18.8688 10.2908C18.8688 10.1166 18.7602 9.96031 18.5961 9.90015L15.8875 8.89782L14.8836 6.18844ZM14.4938 7.53375L15.1711 9.36656C15.2149 9.48062 15.3047 9.57046 15.4188 9.61266L17.25 10.2916L15.4188 10.9697C15.304 11.0119 15.2149 11.1017 15.1711 11.2158L14.4938 13.0486L13.8149 11.2158C13.7735 11.1017 13.6837 11.0119 13.5688 10.9697L11.7352 10.2916L13.5688 9.61344C13.6837 9.57125 13.7727 9.48141 13.8149 9.36734L14.4938 7.53375ZM17.625 7.37516H17.2086C16.9797 7.37516 16.7922 7.56187 16.7922 7.79155C16.7922 8.02123 16.9797 8.20795 17.2086 8.20795H17.625V8.62435C17.625 8.85403 17.8125 9.04075 18.0414 9.04075C18.2703 9.04075 18.4578 8.85403 18.4578 8.62435V8.20795H18.8742C19.1031 8.20795 19.2906 8.02123 19.2906 7.79155C19.2906 7.56187 19.1031 7.37516 18.8742 7.37516H18.4578V6.95876C18.4578 6.72908 18.2703 6.54236 18.0414 6.54236C17.8125 6.54236 17.625 6.72908 17.625 6.95876V7.37516Z" fill="currentColor"/>
</g>
</svg>
