<svg width="24" height="24" viewBox="0 0 24 24" fill="none" xmlns="http://www.w3.org/2000/svg">
<g id="quick 1">
<path id="Vector" d="M14.0693 20.6953C14.0611 20.6953 14.0543 20.7 14.046 20.7H7.25738C7.09825 20.7 6.94564 20.6368 6.83311 20.5243C6.72059 20.4117 6.65738 20.2591 6.65738 20.1C6.65738 19.9409 6.72059 19.7882 6.83311 19.6757C6.94564 19.5632 7.09825 19.5 7.25738 19.5H14.0286L14.046 19.4965C15.2819 19.4966 16.4905 19.1336 17.5217 18.4525C18.553 17.7715 19.3614 16.8025 19.8466 15.6658C20.3317 14.5292 20.4722 13.2751 20.2505 12.0593C20.0289 10.8435 19.4549 9.71957 18.5999 8.82725C17.7448 7.93493 16.6465 7.31351 15.4412 7.04019C14.236 6.76687 12.977 6.8537 11.8207 7.2899C10.6644 7.7261 9.66176 8.49243 8.93733 9.49369C8.21291 10.4949 7.79865 11.687 7.74602 12.9217C7.73699 13.079 7.66647 13.2264 7.54968 13.3321C7.43289 13.4379 7.2792 13.4934 7.1218 13.4868C6.9644 13.4802 6.81592 13.4119 6.70842 13.2968C6.60092 13.1816 6.54301 13.0288 6.54722 12.8713C6.61488 11.1994 7.24104 9.59844 8.32562 8.32427L7.96562 7.96427C7.90831 7.90892 7.8626 7.84271 7.83116 7.76951C7.79971 7.69631 7.78316 7.61758 7.78247 7.53791C7.78178 7.45824 7.79696 7.37923 7.82713 7.3055C7.85729 7.23176 7.90185 7.16477 7.95818 7.10843C8.01452 7.0521 8.08151 7.00754 8.15525 6.97737C8.22898 6.94721 8.30799 6.93202 8.38766 6.93272C8.46733 6.93341 8.54606 6.94996 8.61926 6.98141C8.69246 7.01285 8.75867 7.05856 8.81402 7.11587L9.17702 7.47851C10.0963 6.69378 11.1916 6.14264 12.3696 5.87195C13.5476 5.60127 14.7735 5.61904 15.9432 5.92376C17.1129 6.22847 18.1916 6.81112 19.0878 7.62217C19.984 8.43322 20.6711 9.44868 21.0907 10.5822C21.5103 11.7158 21.65 12.9339 21.4979 14.1329C21.3457 15.332 20.9063 16.4767 20.2169 17.4695C19.5276 18.4624 18.6087 19.2741 17.5383 19.8356C16.468 20.3972 15.278 20.6923 14.0693 20.6953ZM16.8099 10.4297C16.6973 10.3172 16.5448 10.254 16.3857 10.254C16.2266 10.254 16.074 10.3172 15.9615 10.4297L14.2229 12.168C14.1651 12.1507 14.1059 12.1387 14.046 12.132C13.8361 12.132 13.631 12.1942 13.4565 12.3108C13.2819 12.4274 13.1459 12.5932 13.0656 12.7871C12.9853 12.981 12.9643 13.1944 13.0053 13.4002C13.0462 13.6061 13.1473 13.7951 13.2957 13.9435C13.4441 14.0919 13.6332 14.193 13.8391 14.2339C14.0449 14.2749 14.2583 14.2538 14.4522 14.1735C14.6461 14.0932 14.8118 13.9571 14.9284 13.7826C15.045 13.6081 15.1072 13.4029 15.1072 13.193C15.1005 13.1331 15.0884 13.0739 15.0712 13.0161L16.8097 11.2776C16.9221 11.1651 16.9852 11.0126 16.9852 10.8537C16.9853 10.6947 16.9222 10.5422 16.8099 10.4297ZM13.071 4.49999H15.0216C15.1807 4.49999 15.3334 4.43677 15.4459 4.32425C15.5584 4.21173 15.6216 4.05912 15.6216 3.89999C15.6216 3.74086 15.5584 3.58825 15.4459 3.47572C15.3334 3.3632 15.1807 3.29999 15.0216 3.29999H13.071C12.9119 3.29999 12.7593 3.3632 12.6468 3.47572C12.5342 3.58825 12.471 3.74086 12.471 3.89999C12.471 4.05912 12.5342 4.21173 12.6468 4.32425C12.7593 4.43677 12.9119 4.49999 13.071 4.49999ZM12.6421 17.7C12.6421 17.5409 12.5789 17.3882 12.4664 17.2757C12.3539 17.1632 12.2013 17.1 12.0421 17.1H4.5743C4.41517 17.1 4.26256 17.1632 4.15003 17.2757C4.03751 17.3882 3.9743 17.5409 3.9743 17.7C3.9743 17.8591 4.03751 18.0117 4.15003 18.1243C4.26256 18.2368 4.41517 18.3 4.5743 18.3H12.0421C12.2013 18.3 12.3539 18.2368 12.4664 18.1243C12.5789 18.0117 12.6421 17.8591 12.6421 17.7ZM12.8788 15.3C12.8788 15.1409 12.8156 14.9882 12.703 14.8757C12.5905 14.7632 12.4379 14.7 12.2788 14.7H3.04214C2.88301 14.7 2.7304 14.7632 2.61787 14.8757C2.50535 14.9882 2.44214 15.1409 2.44214 15.3C2.44214 15.4591 2.50535 15.6117 2.61787 15.7243C2.7304 15.8368 2.88301 15.9 3.04214 15.9H12.2788C12.4379 15.9 12.5905 15.8368 12.703 15.7243C12.8156 15.6117 12.8788 15.4591 12.8788 15.3Z" fill="currentColor"/>
</g>
</svg>
