<svg width="24" height="24" viewBox="0 0 24 24" fill="none" xmlns="http://www.w3.org/2000/svg">
<g id="reputation 1">
<g id="Group">
<path id="Vector" d="M18.4106 12.1301C18.259 11.7326 17.9698 11.3978 17.5811 11.2C16.8113 10.7981 15.8472 11.0264 15.3398 11.7334L14.0343 13.5561C13.8015 13.2953 13.4934 13.0975 13.1309 13.0071L10.2378 12.2864C9.08643 11.999 7.87207 12.2314 6.90772 12.9238L3.84326 15.1221C3.7124 15.2161 3.63477 15.3672 3.63477 15.5283V20.5C3.63477 20.7761 3.85864 21 4.13477 21H6.29761C6.38867 21 6.47803 20.9751 6.55615 20.928L8.88452 19.522L14.7319 19.311C14.844 19.3069 14.9514 19.2654 15.0369 19.1929L19.7449 15.2078C20.4619 14.6011 20.5737 13.5437 19.9995 12.8005C19.6165 12.3047 19.006 12.0683 18.4106 12.1301ZM16.1526 12.3159C16.3713 12.012 16.7859 11.9131 17.1226 12.0886C17.2887 12.1731 17.4079 12.3174 17.4733 12.4864L15.0503 13.8551L16.1526 12.3159ZM19.0989 14.4446L14.5229 18.3179L8.719 18.5271C8.63404 18.5303 8.55127 18.5549 8.47852 18.5989L6.15845 20H4.63477V15.7849L7.49072 13.7363C8.21655 13.2158 9.12988 13.041 9.99609 13.2566L12.8889 13.9773C13.2969 14.0791 13.5574 14.4797 13.4822 14.8897C13.4055 15.3064 13.0129 15.5891 12.5872 15.5361L11.1934 15.3567C10.9204 15.3201 10.6687 15.5144 10.6335 15.7886C10.5981 16.0625 10.7917 16.3132 11.0654 16.3484L12.4595 16.5278C13.302 16.6367 14.0886 16.1475 14.3787 15.3831L18.2214 13.2122C18.552 13.0264 18.9763 13.1111 19.208 13.4119C19.4543 13.7307 19.4065 14.1843 19.0989 14.4446ZM7.68311 6.10938C7.5979 5.84717 7.31592 5.70313 7.05298 5.78833L6.65552 5.91748V5.49951C6.65552 5.22339 6.43165 4.99951 6.15552 4.99951C5.8794 4.99951 5.65552 5.22339 5.65552 5.49951V5.91742L5.25831 5.78833C4.99586 5.70313 4.71339 5.84717 4.62818 6.10938C4.54298 6.37207 4.68653 6.65406 4.94923 6.7395L5.34641 6.86856L5.10084 7.20654C4.93848 7.42993 4.98804 7.74268 5.21146 7.90505C5.43212 8.06507 5.74913 8.01536 5.90992 7.79443L6.15552 7.45642L6.40113 7.79443C6.555 8.0062 6.87912 8.06494 7.09961 7.90502C7.323 7.74267 7.37256 7.42992 7.21021 7.20654L6.96466 6.86862L7.36206 6.7395C7.62476 6.65406 7.76831 6.37207 7.68311 6.10938ZM12.7412 6.7395L13.1386 6.86862L12.8931 7.20654C12.7307 7.42993 12.7803 7.74268 13.0037 7.90504C13.2253 8.06579 13.5413 8.01575 13.7021 7.79443L13.9478 7.45642C13.9478 7.45642 14.1923 7.79302 14.1934 7.79443C14.3517 8.01238 14.675 8.06233 14.8918 7.90503C15.1152 7.74267 15.1648 7.42993 15.0024 7.20654L14.7569 6.86862L15.1543 6.7395C15.417 6.65405 15.5605 6.37207 15.4753 6.10938C15.3901 5.84717 15.1084 5.70313 14.8452 5.78833L14.4478 5.91748V5.49951C14.4478 5.22339 14.2239 4.99951 13.9478 4.99951C13.6716 4.99951 13.4478 5.22339 13.4478 5.49951V5.91748L13.0503 5.78833C12.7871 5.70313 12.5056 5.84717 12.4202 6.10938C12.335 6.37207 12.4785 6.65406 12.7412 6.7395ZM10.0518 4.99951C9.77563 4.99951 9.55176 5.22339 9.55176 5.49951V5.91748L9.1543 5.78833C8.89136 5.70313 8.60938 5.84717 8.52417 6.10938C8.43897 6.37207 8.58252 6.65406 8.84522 6.7395L9.24262 6.86862L8.99707 7.20654C8.83473 7.42992 8.88427 7.74264 9.10763 7.905C9.32002 8.05939 9.64515 8.01566 9.80616 7.79443L10.0518 7.45642L10.2974 7.79443C10.4515 8.00659 10.7703 8.06896 10.9959 7.90502C11.2192 7.74267 11.2688 7.42992 11.1064 7.20654L10.8609 6.86862L11.2583 6.7395C11.521 6.65405 11.6646 6.37207 11.5793 6.10937C11.4941 5.84717 11.2126 5.70312 10.9492 5.78833L10.5518 5.91748V5.49951C10.5518 5.22339 10.3279 4.99951 10.0518 4.99951ZM17.844 4.99951C17.5679 4.99951 17.344 5.22339 17.344 5.49951V5.91748L16.9465 5.78833C16.6838 5.70313 16.4016 5.84717 16.3164 6.10938C16.2312 6.37207 16.3748 6.65406 16.6375 6.7395L17.0349 6.86862L16.7893 7.20654C16.627 7.42992 16.6765 7.74264 16.8999 7.905C17.1117 8.05899 17.4351 8.01887 17.5984 7.79443L17.844 7.45642L18.0896 7.79443C18.2438 8.00664 18.5634 8.06802 18.7881 7.90503C19.0115 7.74267 19.061 7.42993 18.8987 7.20654L18.6531 6.86856L19.0503 6.7395C19.313 6.65405 19.4565 6.37207 19.3713 6.10938C19.2859 5.84717 19.0051 5.70313 18.7412 5.78833L18.344 5.91742V5.49951C18.344 5.22339 18.1201 4.99951 17.844 4.99951Z" fill="currentColor"/>
<path id="Vector_2" d="M20 3H14C13.7239 3 13.5 3.22387 13.5 3.5C13.5 3.77613 13.7239 4 14 4H20C20.2756 4 20.5 4.22436 20.5 4.5V8.5C20.5 8.77563 20.2756 9 20 9H13.04C12.8916 9 12.7507 9.06592 12.6558 9.18017L12 9.96826L11.3442 9.18017C11.2493 9.06592 11.1084 9 10.96 9H4C3.72436 9 3.5 8.77563 3.5 8.5V4.5C3.5 4.22436 3.72436 4 4 4H10C10.2761 4 10.5 3.77613 10.5 3.5C10.5 3.22387 10.2761 3 10 3H4C3.17285 3 2.5 3.67285 2.5 4.5V8.5C2.5 9.32715 3.17285 10 4 10H10.7256C10.7256 10 11.6146 11.0685 11.6157 11.0698C11.8133 11.3072 12.1869 11.3073 12.3843 11.0698L13.2744 10H20C20.8272 10 21.5 9.32715 21.5 8.5V4.5C21.5 3.67285 20.8272 3 20 3Z" fill="currentColor"/>
<path id="Vector_3" d="M12 4C12.2761 4 12.5 3.77614 12.5 3.5C12.5 3.22386 12.2761 3 12 3C11.7239 3 11.5 3.22386 11.5 3.5C11.5 3.77614 11.7239 4 12 4Z" fill="currentColor"/>
</g>
</g>
</svg>
