<svg width="17" height="17" viewBox="0 0 17 17" fill="none" xmlns="http://www.w3.org/2000/svg">
<g id="SVG" clip-path="url(#clip0_896_31218)">
<g id="Group">
<path id="Vector" fill-rule="evenodd" clip-rule="evenodd" d="M8.34775 2.63281C5.86204 2.63281 3.80643 4.47291 3.46838 6.86555C1.66182 7.20004 0.293945 8.78337 0.293945 10.6866C0.293945 12.8329 2.03384 14.5728 4.18013 14.5728C4.45627 14.5728 4.68013 14.3489 4.68013 14.0728C4.68013 13.7967 4.45627 13.5728 4.18013 13.5728C2.58613 13.5728 1.29394 12.2806 1.29394 10.6866C1.29394 9.1655 2.47097 7.91887 3.96355 7.80843C4.21401 7.7899 4.41186 7.58846 4.42588 7.33771C4.54135 5.27234 6.25326 3.63281 8.34775 3.63281C10.4423 3.63281 12.1542 5.27234 12.2697 7.33772C12.2851 7.61343 12.5211 7.82444 12.7968 7.80902C13.0725 7.7936 13.2835 7.55759 13.2681 7.28188C13.1232 4.68974 10.9759 2.63281 8.34775 2.63281ZM16.1726 9.27647C16.3481 9.06332 16.3176 8.74821 16.1045 8.57265C15.8913 8.3971 15.5762 8.42758 15.4007 8.64073L10.378 14.7391L8.33971 12.7976C8.13977 12.6071 7.82328 12.6148 7.63281 12.8148C7.44235 13.0147 7.45004 13.3312 7.64999 13.5217L10.0774 15.8339C10.1779 15.9297 10.3138 15.9793 10.4524 15.9709C10.591 15.9626 10.7199 15.8969 10.8082 15.7897L16.1726 9.27647Z" fill="currentColor"/>
</g>
</g>
<defs>
<clip-path id="clip0_896_31218">
<rect width="16" height="16" fill="currentColor" transform="translate(0.290039 0.800781)"/>
</clip-path>
</defs>
</svg>
