<svg  viewBox="0 0 28 28" fill="none" xmlns="http://www.w3.org/2000/svg">
<g opacity="0.3">
<path d="M15.7544 24.4911C8.99144 24.4911 3.50889 19.0086 3.50889 12.2455C3.50889 5.48243 8.99138 0 15.7544 0C22.5175 0 28 5.48249 28 12.2456C28 19.0086 22.5175 24.4911 15.7544 24.4911ZM15.7544 3.49875C10.9237 3.49875 7.00763 7.41481 7.00763 12.2456C7.00763 17.0763 10.9237 20.9924 15.7544 20.9924C20.5852 20.9924 24.5013 17.0763 24.5013 12.2456C24.5013 7.41481 20.5851 3.49875 15.7544 3.49875Z" fill="#878787"/>
<path d="M1.75951 27.9898C1.29451 27.9925 0.847592 27.81 0.51747 27.4825C-0.168521 26.8021 -0.173043 25.6945 0.50734 25.0085C0.510717 25.0052 0.514093 25.0018 0.51747 24.9984L7.09507 18.4208C7.80518 17.7348 8.93694 17.7544 9.62293 18.4645C10.3089 19.1747 10.2893 20.3064 9.57922 20.9924L3.00156 27.4825C2.67143 27.81 2.22452 27.9925 1.75951 27.9898Z" fill="#878787"/>
</g>
</svg>
