<svg xmlns="http://www.w3.org/2000/svg" width="24" height="24" viewBox="0 0 24 24" fill="none">
  <circle cx="5" cy="5" r="2" stroke="currentColor" strokeWidth="1.3" strokeLinecap="round" strokeLinejoin="round"/>
  <circle cx="19" cy="19" r="2" stroke="currentColor" strokeWidth="1.3" strokeLinecap="round" strokeLinejoin="round"/>
  <circle cx="19" cy="5" r="2" stroke="currentColor" strokeWidth="1.3" strokeLinecap="round" strokeLinejoin="round"/>
  <circle cx="5" cy="19" r="2" stroke="currentColor" strokeWidth="1.3" strokeLinecap="round" strokeLinejoin="round"/>
  <path d="M6.04038 17.0404C5.78654 17.2942 5.78654 17.7058 6.04038 17.9596C6.29422 18.2135 6.70578 18.2135 6.95962 17.9596L6.04038 17.0404ZM17.9596 6.95962C18.2135 6.70578 18.2135 6.29422 17.9596 6.04038C17.7058 5.78654 17.2942 5.78654 17.0404 6.04038L17.9596 6.95962ZM5.65 7C5.65 6.64101 5.35899 6.35 5 6.35C4.64101 6.35 4.35 6.64101 4.35 7H5.65ZM4.35 17C4.35 17.359 4.64101 17.65 5 17.65C5.35899 17.65 5.65 17.359 5.65 17H4.35ZM19.65 7C19.65 6.64101 19.359 6.35 19 6.35C18.641 6.35 18.35 6.64101 18.35 7H19.65ZM18.35 17C18.35 17.359 18.641 17.65 19 17.65C19.359 17.65 19.65 17.359 19.65 17H18.35ZM6.95962 17.9596L17.9596 6.95962L17.0404 6.04038L6.04038 17.0404L6.95962 17.9596ZM4.35 7V17H5.65V7H4.35ZM18.35 7V17H19.65V7H18.35Z" fill="currentColor"/>
</svg>