<svg width="20" height="20" viewBox="0 0 17 17" fill="none" xmlns="http://www.w3.org/2000/svg">
<g id="SVG" clip-path="url(#clip0_896_31864)">
<path id="Vector" fill-rule="evenodd" clip-rule="evenodd" d="M1.01562 6.30078C1.01562 3.8155 3.03034 1.80078 5.51562 1.80078C7.8319 1.80078 9.73944 3.5508 9.98816 5.80078H6.51562C5.68719 5.80078 5.01562 6.47235 5.01562 7.30078V10.7733C2.76565 10.5246 1.01562 8.61706 1.01562 6.30078ZM5.01562 11.7784C2.21237 11.5258 0.015625 9.1698 0.015625 6.30078C0.015625 3.26321 2.47806 0.800781 5.51562 0.800781C8.38465 0.800781 10.7406 2.99753 10.9932 5.80078H14.5156C15.344 5.80078 16.0156 6.47235 16.0156 7.30078V15.3008C16.0156 16.1292 15.344 16.8008 14.5156 16.8008H6.51562C5.68719 16.8008 5.01562 16.1292 5.01562 15.3008V11.7784ZM6.01562 7.30078C6.01562 7.02464 6.23948 6.80078 6.51562 6.80078H14.5156C14.7917 6.80078 15.0156 7.02464 15.0156 7.30078V15.3008C15.0156 15.5769 14.7917 15.8008 14.5156 15.8008H6.51562C6.23948 15.8008 6.01562 15.5769 6.01562 15.3008V7.30078Z" fill="currentColor"/>
</g>
<defs>
<clip-path id="clip0_896_31864">
<rect width="16" height="16" fill="currentColor" transform="translate(0.015625 0.800781)"/>
</clip-path>
</defs>
</svg>
