<svg width="14" height="13" viewBox="0 0 14 13" fill="none" xmlns="http://www.w3.org/2000/svg">
<g id="SVG">
<path id="Vector" d="M9.74856 11.8497H9.22209C8.66357 11.8497 8.12794 11.6278 7.73301 11.2329C7.33808 10.838 7.11621 10.3023 7.11621 9.74382V3.42619C7.11621 2.86768 7.33808 2.33204 7.73301 1.93711C8.12794 1.54218 8.66357 1.32031 9.22209 1.32031H9.74856" stroke="currentColor" strokeWidth="1.05294" strokeLinecap="round" strokeLinejoin="round"/>
<path id="Vector_2" d="M4.48438 11.8433H5.01084C5.56936 11.8433 6.105 11.6214 6.49992 11.2265C6.89485 10.8316 7.11672 10.2959 7.11672 9.73741V9.21094" stroke="currentColor" strokeWidth="1.05294" strokeLinecap="round" strokeLinejoin="round"/>
<path id="Vector_3" d="M4.48438 1.32031H5.01084C5.56936 1.32031 6.105 1.54218 6.49992 1.93711C6.89485 2.33204 7.11672 2.86768 7.11672 3.42619V3.95266" stroke="currentColor" strokeWidth="1.05294" strokeLinecap="round" strokeLinejoin="round"/>
</g>
</svg>
