<svg width="24" height="24" viewBox="0 0 24 24" fill="none" xmlns="http://www.w3.org/2000/svg">
<g id="survey 1">
<path id="Vector" d="M10.5 8.25V10.5H3V3H8.625M8.625 13.5H3V21H10.5V13.5H8.625Z" stroke="currentColor" strokeWidth="1.5" strokeLinecap="round" strokeLinejoin="round"/>
<path id="Vector_2" d="M6 6.75L7.5 8.25L11.25 3.75" stroke="currentColor" strokeWidth="1.5" strokeLinecap="round" strokeLinejoin="round"/>
<path id="Vector_3" d="M18 10.5C20.0711 10.5 21.75 8.82107 21.75 6.75C21.75 4.67893 20.0711 3 18 3C15.9289 3 14.25 4.67893 14.25 6.75C14.25 8.82107 15.9289 10.5 18 10.5Z" stroke="currentColor" strokeWidth="1.5" strokeLinecap="round" strokeLinejoin="round"/>
<path id="Vector_4" d="M18 21C20.0711 21 21.75 19.3211 21.75 17.25C21.75 15.1789 20.0711 13.5 18 13.5C15.9289 13.5 14.25 15.1789 14.25 17.25C14.25 19.3211 15.9289 21 18 21Z" stroke="currentColor" strokeWidth="1.5" strokeLinecap="round" strokeLinejoin="round"/>
</g>
</svg>
