<svg width="25" height="24" viewBox="0 0 25 24" fill="none" xmlns="http://www.w3.org/2000/svg">
<g id="Icon">
<path id="Vector" d="M21.4521 11.5781L12.4521 2.57812C12.0771 2.20312 11.5615 2.01562 11.0459 2.01562H4.01465C2.93652 2.01562 2.0459 2.90625 2.0459 3.98438V11.0156C2.0459 11.5312 2.2334 12.0469 2.6084 12.4219L11.6084 21.4219C11.9834 21.7969 12.499 21.9844 13.0146 21.9844C13.5771 21.9844 14.0928 21.7969 14.4209 21.4219L21.4521 14.3906C21.8271 14.0625 22.0146 13.5469 22.0146 12.9844C22.0146 12.4688 21.7803 11.9531 21.4521 11.5781ZM13.0146 20.0156L4.01465 11.0156V3.98438H11.0459L20.0459 12.9844L13.0146 20.0156ZM5.0459 6.51562C5.0459 5.67188 5.70215 5.01562 6.5459 5.01562C7.34277 5.01562 8.0459 5.67188 8.0459 6.51562C8.0459 7.3125 7.34277 8.01562 6.5459 8.01562C5.70215 8.01562 5.0459 7.3125 5.0459 6.51562Z" fill="currentColor"/>
</g>
</svg>
