<svg width="20" height="20" viewBox="0 0 17 17" fill="none" xmlns="http://www.w3.org/2000/svg">
<g clip-path="">
<path fill-rule="evenodd" clip-rule="evenodd" d="M2.82812 1.80078C2.55199 1.80078 2.32812 2.02464 2.32812 2.30078V4.30078C2.32812 4.57692 2.10426 4.80078 1.82812 4.80078C1.55198 4.80078 1.32812 4.57692 1.32812 4.30078V2.30078C1.32812 1.47235 1.9997 0.800781 2.82812 0.800781H13.8281C14.6565 0.800781 15.3281 1.47235 15.3281 2.30078V4.30078C15.3281 4.57692 15.1042 4.80078 14.8281 4.80078C14.552 4.80078 14.3281 4.57692 14.3281 4.30078V2.30078C14.3281 2.02464 14.1042 1.80078 13.8281 1.80078H8.82812V15.8008H11.8281C12.1042 15.8008 12.3281 16.0247 12.3281 16.3008C12.3281 16.5769 12.1042 16.8008 11.8281 16.8008H4.82812C4.55199 16.8008 4.32812 16.5769 4.32812 16.3008C4.32812 16.0247 4.55199 15.8008 4.82812 15.8008H7.82812V1.80078H2.82812Z" fill="currentColor"/>
</g>
<defs>
<clip-path id="">
<rect width="30" height="30" fill="currentColor" transform="translate(0.328125 0.800781)"/>
</clip-path>
</defs>
</svg>
