<svg width="26" height="16" viewBox="0 0 26 16" fill="none" xmlns="http://www.w3.org/2000/svg">
<g id="Group 1437252944">
<g id="Group 1437252942">
<path id="Path" d="M1.85718 7.99998H5.28575" stroke="currentColor" strokeWidth="1.3" strokeLinecap="round" strokeLinejoin="round"/>
<path id="Path_2" d="M1 1.14282C2.42016 1.14282 3.57143 2.29409 3.57143 3.71425V12.2857C3.57143 13.7058 2.42016 14.8571 1 14.8571" stroke="currentColor" strokeWidth="1.3" strokeLinecap="round" strokeLinejoin="round"/>
<path id="Path_3" d="M6.14284 1.14282C4.72268 1.14282 3.57141 2.29409 3.57141 3.71425V12.2857C3.57141 13.7058 4.72268 14.8571 6.14284 14.8571" stroke="currentColor" strokeWidth="1.3" strokeLinecap="round" strokeLinejoin="round"/>
</g>
<g id="Group 1437252943">
<path id="Path_4" fill-rule="evenodd" clip-rule="evenodd" d="M19.8572 6.28589L23.7597 4.33503C24.0254 4.20229 24.3408 4.2165 24.5934 4.37258C24.846 4.52865 24.9999 4.80437 25 5.10132V10.899C24.9999 11.196 24.846 11.4717 24.5934 11.6278C24.3408 11.7838 24.0254 11.7981 23.7597 11.6653L19.8572 9.71446V6.28589Z" stroke="currentColor" strokeWidth="1.3" strokeLinecap="round" strokeLinejoin="round"/>
<rect id="Rectangle" x="9.57141" y="2.85718" width="10.2857" height="10.2857" rx="1.71429" stroke="currentColor" strokeWidth="1.3" strokeLinecap="round" strokeLinejoin="round"/>
</g>
</g>
</svg>
