<svg xmlns="http://www.w3.org/2000/svg" width="38" height="22" viewBox="0 0 38 22" fill="none">
	<path d="M2.98438 10.8583H7.91295" stroke="#14171B" strokeWidth="1.86875" strokeLinecap="round" strokeLinejoin="round" />
	<path d="M1.75 1C3.79148 1 5.44643 2.65495 5.44643 4.69643V17.0179C5.44643 19.0593 3.79148 20.7143 1.75 20.7143" stroke="#14171B" strokeWidth="1.86875" strokeLinecap="round" strokeLinejoin="round" />
	<path d="M9.14174 1C7.10026 1 5.44531 2.65495 5.44531 4.69643V17.0179C5.44531 19.0593 7.10026 20.7143 9.14174 20.7143" stroke="#14171B" strokeWidth="1.86875" strokeLinecap="round" strokeLinejoin="round" />
	<path fill-rule="evenodd" clip-rule="evenodd" d="M28.8594 8.39134L34.4693 5.58698C34.8512 5.39617 35.3046 5.41659 35.6677 5.64096C36.0309 5.86532 36.252 6.26165 36.2522 6.68852V15.0227C36.252 15.4496 36.0309 15.8459 35.6677 16.0703C35.3046 16.2947 34.8512 16.3151 34.4693 16.1243L28.8594 13.3199V8.39134Z" stroke="#14171B" strokeWidth="1.86875" strokeLinecap="round" strokeLinejoin="round" />
	<rect x="14.0703" y="3.46484" width="14.7857" height="14.7857" rx="2.46429" stroke="#14171B" strokeWidth="1.86875" strokeLinecap="round" strokeLinejoin="round" />
</svg>
