<svg width="24" height="24" viewBox="0 0 24 24" fill="none" xmlns="http://www.w3.org/2000/svg">
<g id="trident">
<path id="Path" d="M21 18L19 20L19 17C19 13.134 15.866 10 12 10C8.13401 10 5 13.134 5 17L5 20L3 18" stroke="currentColor" strokeWidth="1.3" strokeLinecap="round" strokeLinejoin="round"/>
<path id="Shape" d="M12.65 3C12.65 2.64101 12.359 2.35 12 2.35C11.641 2.35 11.35 2.64101 11.35 3L12.65 3ZM12 21L11.35 21C11.35 21.2629 11.5084 21.4999 11.7513 21.6005C11.9941 21.7011 12.2737 21.6455 12.4596 21.4596L12 21ZM14.4596 19.4596C14.7135 19.2058 14.7135 18.7942 14.4596 18.5404C14.2058 18.2865 13.7942 18.2865 13.5404 18.5404L14.4596 19.4596ZM10.4596 18.5404C10.2058 18.2865 9.79422 18.2865 9.54038 18.5404C9.28654 18.7942 9.28654 19.2058 9.54038 19.4596L10.4596 18.5404ZM11.5404 21.4596C11.7942 21.7135 12.2058 21.7135 12.4596 21.4596C12.7135 21.2058 12.7135 20.7942 12.4596 20.5404L11.5404 21.4596ZM11.35 3L11.35 21L12.65 21L12.65 3L11.35 3ZM12.4596 21.4596L14.4596 19.4596L13.5404 18.5404L11.5404 20.5404L12.4596 21.4596ZM9.54038 19.4596L11.5404 21.4596L12.4596 20.5404L10.4596 18.5404L9.54038 19.4596Z" fill="currentColor"/>
</g>
</svg>
