<svg width="60" height="50" viewBox="0 0 47 36" fill="currentColor" xmlns="http://www.w3.org/2000/svg">
<g opacity="0.7">
<path d="M4.07618 0.0712891C3.00425 0.0738525 1.97696 0.500811 1.21899 1.25878C0.461016 2.01675 0.0340576 3.04404 0.0314941 4.11597V31.6198C0.0314941 33.846 1.84837 35.6645 4.07618 35.6645H5.54197C5.59374 35.6758 5.63904 35.7147 5.69405 35.7147C5.73935 35.7147 5.80083 35.6726 5.84451 35.6645H11.5071C11.5588 35.6758 11.6058 35.7147 11.6592 35.7147C11.7061 35.7147 11.7659 35.6726 11.8112 35.6645H17.4236C17.4754 35.6758 17.5207 35.7147 17.5757 35.7147C17.6356 35.7147 17.7197 35.6791 17.7763 35.6645H23.3386C23.3904 35.6758 23.4357 35.7147 23.4907 35.7147C23.536 35.7147 23.5974 35.6726 23.6411 35.6645H29.3037C29.3555 35.6758 29.4024 35.7147 29.4558 35.7147C29.5027 35.7147 29.5625 35.6726 29.6078 35.6645H35.2203C35.272 35.6758 35.3173 35.7147 35.3707 35.7147C35.4322 35.7147 35.5163 35.6791 35.5729 35.6645H41.1352C41.187 35.6758 41.2323 35.7147 41.2873 35.7147C41.3326 35.7147 41.3941 35.6726 41.4377 35.6645H42.9052C45.1313 35.6645 46.9498 33.846 46.9498 31.6198V29.2933C46.9612 29.2432 47 29.1963 47 29.1429C47 29.0895 46.9612 29.0426 46.9498 28.9908V4.11597C46.9498 1.88978 45.1313 0.0712891 42.9052 0.0712891H4.07618ZM4.07618 1.68916H4.88512V6.54278H1.64937V4.11597C1.64937 2.75696 2.71716 1.68916 4.07618 1.68916ZM6.50299 1.68916H10.8502V6.54278H6.50461L6.50299 1.68916ZM12.4681 1.68916H16.7652V6.54278H12.4681V1.68916ZM18.383 1.68916H22.6817V6.54278H18.383V1.68916ZM24.2996 1.68916H28.6468V6.54278H24.3012L24.2996 1.68916ZM30.2647 1.68916H34.5634V6.54278H30.2647V1.68916ZM36.1813 1.68916H40.4783V6.54278H36.1797L36.1813 1.68916ZM42.0962 1.68916H42.9052C44.2642 1.68916 45.332 2.75696 45.332 4.11597V6.54278H42.0962V1.68916ZM1.64937 8.16066H5.54197C5.59374 8.17198 5.63904 8.21081 5.69405 8.21081C5.73935 8.21081 5.80083 8.16875 5.84451 8.16066H11.5071C11.5588 8.17198 11.6058 8.21081 11.6592 8.21081C11.7061 8.21081 11.7659 8.16875 11.8112 8.16066H17.4236C17.4754 8.17198 17.5207 8.21081 17.5757 8.21081C17.6356 8.21081 17.7197 8.17522 17.7763 8.16066H23.3386C23.3904 8.17198 23.4357 8.21081 23.4907 8.21081C23.536 8.21081 23.5974 8.16875 23.6411 8.16066H29.3037C29.3555 8.17198 29.4024 8.21081 29.4558 8.21081C29.5027 8.21081 29.5625 8.16875 29.6078 8.16066H35.2203C35.272 8.17198 35.3173 8.21081 35.3707 8.21081C35.4322 8.21081 35.5163 8.17522 35.5729 8.16066H41.1352C41.187 8.17198 41.2323 8.21081 41.2873 8.21081C41.3326 8.21081 41.3941 8.16875 41.4377 8.16066H45.332V28.3339H1.64937V8.16066ZM20.2031 11.3964C20.0434 11.4479 19.903 11.5544 19.8031 11.7002C19.7031 11.8459 19.6488 12.0231 19.6482 12.2053V23.5305C19.646 23.6859 19.6831 23.8391 19.7553 23.973C19.8274 24.107 19.9319 24.2166 20.0573 24.2898C20.1827 24.3631 20.3241 24.3971 20.466 24.3881C20.6079 24.3792 20.7448 24.3276 20.8616 24.2391L29.8101 18.5765C29.9097 18.5105 29.9945 18.4206 30.0579 18.3137C30.1214 18.2068 30.1619 18.0855 30.1765 17.9591C30.1912 17.8326 30.1795 17.7041 30.1424 17.5833C30.1052 17.4624 30.0436 17.3523 29.9622 17.2612C29.9026 17.1991 29.8343 17.1477 29.7599 17.1091L20.8098 11.4983C20.7204 11.4369 20.6205 11.3962 20.5161 11.3787C20.4118 11.3612 20.3053 11.3672 20.2031 11.3964ZM21.2143 13.6711L27.8379 17.8177L21.2159 22.0647L21.2143 13.6711ZM1.65099 29.9534H4.88673V34.0466H4.0778C2.71878 34.0466 1.65099 32.9788 1.65099 31.6198V29.9534ZM6.50461 29.9534H10.8518V34.0466H6.50461V29.9534ZM12.4697 29.9534H16.7668V34.0466H12.4697V29.9534ZM18.3847 29.9534H22.6833V34.0466H18.3847V29.9534ZM24.3012 29.9534H28.6484V34.0466H24.3012V29.9534ZM30.2663 29.9534H34.565V34.0466H30.2663V29.9534ZM36.1829 29.9534H40.48V34.0466H36.1813V29.9518L36.1829 29.9534ZM42.0978 29.9534H45.3336V31.6198C45.3336 32.9788 44.2658 34.0466 42.9068 34.0466H42.0978V29.9534Z"/>
</g>
</svg>
