<svg xmlns="http://www.w3.org/2000/svg" width="41" height="28" viewBox="0 0 41 28" fill="none">
	<path d="M38.0404 0H2.94219C1.36795 0 0.0859375 1.28197 0.0859375 2.85625V25.1513C0.0859375 26.7256 1.36791 28.0076 2.94219 28.0076H38.0404C39.6147 28.0076 40.8967 26.7256 40.8967 25.1513V2.85625C40.8967 1.28202 39.6147 0 38.0404 0ZM2.94219 0.84028H38.0404C39.1514 0.84028 40.0564 1.7453 40.0564 2.85625V3.61848H0.925962V2.85625C0.925962 1.7453 1.83124 0.84028 2.94219 0.84028ZM38.0404 27.1676H2.94219C1.82958 27.1676 0.926217 26.2626 0.926217 25.1516V4.45876H40.0567V25.1516C40.0567 26.2626 39.1514 27.1676 38.0404 27.1676ZM33.0122 2.3116C33.0056 2.28503 33.0039 2.25846 33.0039 2.23023C33.0039 2.11897 33.0471 2.00937 33.1268 1.93298C33.145 1.91305 33.1666 1.89645 33.1899 1.8815C33.2115 1.86656 33.2364 1.85327 33.2613 1.84331C33.2862 1.83168 33.3128 1.82504 33.341 1.8184C33.3941 1.80844 33.4506 1.80844 33.5037 1.8184C33.5303 1.82504 33.5569 1.83168 33.5834 1.84331C33.6083 1.85327 33.6333 1.86656 33.6548 1.8815C33.6781 1.89645 33.6997 1.91305 33.7196 1.93298C33.7395 1.95125 33.7561 1.97283 33.7711 1.99608C33.7877 2.01767 33.7993 2.04258 33.8093 2.06749C33.8209 2.0924 33.8292 2.11897 33.8342 2.1472C33.8392 2.17377 33.8425 2.20034 33.8425 2.23023C33.8425 2.33983 33.7977 2.44942 33.7179 2.52581C33.6997 2.54574 33.6781 2.56235 33.6532 2.57729C33.6316 2.59224 33.6067 2.60552 33.5818 2.61548C33.5569 2.62711 33.5303 2.63375 33.5021 2.64039C33.4755 2.64538 33.4489 2.64704 33.4207 2.64704C33.3925 2.64704 33.3659 2.64538 33.3377 2.64039C33.3111 2.63375 33.2845 2.62711 33.258 2.61548C33.233 2.60552 33.2081 2.59224 33.1866 2.57729C33.1633 2.56235 33.1417 2.54574 33.1234 2.52581C33.1035 2.50755 33.0869 2.48596 33.072 2.46271C33.057 2.44112 33.0437 2.41621 33.0338 2.38964C33.0255 2.36474 33.0172 2.33817 33.0122 2.3116ZM35.1876 2.52582C35.1095 2.44777 35.0647 2.33983 35.0647 2.23023C35.0647 2.11897 35.1095 2.00937 35.1876 1.93298C35.2075 1.91306 35.2274 1.89645 35.2507 1.88151C35.2739 1.86656 35.2972 1.85328 35.3238 1.84331C35.3487 1.83335 35.3752 1.82505 35.4035 1.82006C35.5396 1.79183 35.6858 1.83667 35.7837 1.93465C35.8618 2.01269 35.9066 2.12063 35.9066 2.23189C35.9066 2.34149 35.8618 2.45109 35.7837 2.52748C35.704 2.60719 35.5978 2.65202 35.4865 2.65202C35.3736 2.65036 35.2673 2.60553 35.1876 2.52582ZM37.1355 2.3116C37.1305 2.28503 37.1272 2.25846 37.1272 2.23023C37.1272 2.11897 37.172 2.00937 37.25 1.93298C37.3497 1.835 37.4941 1.79017 37.6303 1.81674C37.6569 1.82338 37.6835 1.83002 37.71 1.84165C37.7349 1.85161 37.7582 1.86489 37.7831 1.87984C37.8063 1.89478 37.8263 1.91139 37.8462 1.93132C37.9242 2.00936 37.9691 2.1173 37.9691 2.22856C37.9691 2.25513 37.9674 2.2817 37.9608 2.30994C37.9558 2.3365 37.9475 2.36307 37.9375 2.38964C37.9276 2.41455 37.9143 2.43946 37.8993 2.46271C37.8844 2.48596 37.8661 2.50755 37.8479 2.52581C37.8279 2.54574 37.808 2.56235 37.7847 2.57729C37.7615 2.59223 37.7383 2.60552 37.7117 2.61548C37.6868 2.62711 37.6602 2.63541 37.632 2.64039C37.6054 2.64537 37.5788 2.6487 37.5489 2.6487C37.4377 2.6487 37.3297 2.60386 37.2517 2.52415C37.2334 2.50588 37.2152 2.4843 37.2002 2.46105C37.1853 2.43946 37.172 2.41455 37.162 2.38798C37.1487 2.36473 37.1404 2.33817 37.1355 2.3116ZM33.8425 23.4478V24.4558C33.8425 24.6883 33.6548 24.8759 33.4223 24.8759H32.4144C32.1819 24.8759 31.9942 24.6883 31.9942 24.4558C31.9942 24.2233 32.1819 24.0357 32.4144 24.0357H33.0022V23.4478C33.0022 23.2154 33.1899 23.0277 33.4223 23.0277C33.6548 23.0277 33.8425 23.2153 33.8425 23.4478ZM17.6601 24.4558C17.6601 24.6883 17.4725 24.8759 17.24 24.8759H15.0729C14.8404 24.8759 14.6527 24.6883 14.6527 24.4558C14.6527 24.2233 14.8404 24.0357 15.0729 24.0357H17.24C17.4708 24.0357 17.6601 24.2233 17.6601 24.4558ZM21.9958 24.4558C21.9958 24.6883 21.8082 24.8759 21.5757 24.8759H19.4086C19.1761 24.8759 18.9885 24.6883 18.9885 24.4558C18.9885 24.2233 19.1761 24.0357 19.4086 24.0357H21.5757C21.8065 24.0357 21.9958 24.2233 21.9958 24.4558ZM30.6673 24.4558C30.6673 24.6883 30.4797 24.8759 30.2472 24.8759H28.0801C27.8476 24.8759 27.6599 24.6883 27.6599 24.4558C27.6599 24.2233 27.8476 24.0357 28.0801 24.0357H30.2472C30.478 24.0357 30.6673 24.2233 30.6673 24.4558ZM26.3316 24.4558C26.3316 24.6883 26.1439 24.8759 25.9114 24.8759H23.7443C23.5118 24.8759 23.3242 24.6883 23.3242 24.4558C23.3242 24.2233 23.5119 24.0357 23.7443 24.0357H25.9114C26.1423 24.0357 26.3316 24.2233 26.3316 24.4558ZM13.3239 24.4558C13.3239 24.6883 13.1363 24.8759 12.9038 24.8759H10.7367C10.5042 24.8759 10.3166 24.6883 10.3166 24.4558C10.3166 24.2233 10.5042 24.0357 10.7367 24.0357H12.9038C13.1346 24.0357 13.3239 24.2233 13.3239 24.4558ZM8.9882 24.4558C8.9882 24.6883 8.80055 24.8759 8.56807 24.8759H7.56008C7.3276 24.8759 7.13995 24.6883 7.13995 24.4558V23.4478C7.13995 23.2153 7.3276 23.0277 7.56008 23.0277C7.79257 23.0277 7.98022 23.2153 7.98022 23.4478V24.0357H8.56806C8.79889 24.0357 8.9882 24.2233 8.9882 24.4558ZM7.13993 16.9032V14.7229C7.13993 14.4904 7.32758 14.3028 7.56007 14.3028C7.79255 14.3028 7.9802 14.4904 7.9802 14.7229V16.9032C7.9802 17.1357 7.79255 17.3234 7.56007 17.3234C7.32758 17.3234 7.13993 17.1357 7.13993 16.9032ZM7.13993 12.5407V10.3604C7.13993 10.1279 7.32758 9.94023 7.56007 9.94023C7.79255 9.94023 7.9802 10.1279 7.9802 10.3604V12.5407C7.9802 12.7732 7.79255 12.9609 7.56007 12.9609C7.32758 12.9609 7.13993 12.7732 7.13993 12.5407ZM7.13993 21.2653V19.085C7.13993 18.8525 7.32758 18.6648 7.56007 18.6648C7.79255 18.6648 7.9802 18.8525 7.9802 19.085V21.2653C7.9802 21.4978 7.79255 21.6855 7.56007 21.6855C7.32758 21.6855 7.13993 21.4978 7.13993 21.2653ZM8.9882 7.17027C8.9882 7.40275 8.80055 7.5904 8.56807 7.5904H7.98022V8.17824C7.98022 8.41073 7.79257 8.59838 7.56009 8.59838C7.32761 8.59838 7.13996 8.41073 7.13996 8.17824V7.17026C7.13996 6.93777 7.32761 6.75013 7.56009 6.75013H8.56808C8.7989 6.75013 8.9882 6.93944 8.9882 7.17027ZM30.6673 7.17027C30.6673 7.40275 30.4797 7.5904 30.2472 7.5904H28.0801C27.8476 7.5904 27.6599 7.40275 27.6599 7.17027C27.6599 6.93778 27.8476 6.75013 28.0801 6.75013H30.2472C30.478 6.75013 30.6673 6.93944 30.6673 7.17027ZM14.6507 7.17027C14.6507 6.93778 14.8384 6.75013 15.0708 6.75013H17.238C17.4704 6.75013 17.6581 6.93778 17.6581 7.17027C17.6581 7.40275 17.4704 7.5904 17.238 7.5904H15.0708C14.84 7.5904 14.6507 7.40275 14.6507 7.17027ZM13.3239 7.17027C13.3239 7.40275 13.1362 7.5904 12.9038 7.5904H10.7367C10.5042 7.5904 10.3165 7.40275 10.3165 7.17027C10.3165 6.93778 10.5042 6.75013 10.7367 6.75013H12.9038C13.1346 6.75013 13.3239 6.93944 13.3239 7.17027ZM26.3315 7.17027C26.3315 7.40275 26.1439 7.5904 25.9114 7.5904H23.7443C23.5118 7.5904 23.3242 7.40275 23.3242 7.17027C23.3242 6.93778 23.5118 6.75013 23.7443 6.75013H25.9114C26.1422 6.75013 26.3315 6.93944 26.3315 7.17027ZM18.9868 7.17027C18.9868 6.93778 19.1745 6.75013 19.407 6.75013H21.5741C21.8066 6.75013 21.9942 6.93778 21.9942 7.17027C21.9942 7.40275 21.8066 7.5904 21.5741 7.5904H19.407C19.1761 7.5904 18.9868 7.40275 18.9868 7.17027ZM33.8424 7.17027V8.17825C33.8424 8.41074 33.6548 8.59838 33.4223 8.59838C33.1898 8.59838 33.0022 8.41074 33.0022 8.17825V7.59041H32.4143C32.1818 7.59041 31.9942 7.40276 31.9942 7.17027C31.9942 6.93779 32.1818 6.75014 32.4143 6.75014H33.4223C33.6548 6.75014 33.8424 6.93944 33.8424 7.17027ZM33.8424 19.0849V21.2653C33.8424 21.4978 33.6548 21.6854 33.4223 21.6854C33.1898 21.6854 33.0022 21.4978 33.0022 21.2653V19.0849C33.0022 18.8524 33.1898 18.6648 33.4223 18.6648C33.6548 18.6648 33.8424 18.8524 33.8424 19.0849ZM33.8424 10.3603V12.5407C33.8424 12.7732 33.6548 12.9608 33.4223 12.9608C33.1898 12.9608 33.0022 12.7732 33.0022 12.5407V10.3603C33.0022 10.1278 33.1898 9.94019 33.4223 9.94019C33.6548 9.94019 33.8424 10.1278 33.8424 10.3603ZM33.8424 14.7228V16.9032C33.8424 17.1357 33.6548 17.3233 33.4223 17.3233C33.1898 17.3233 33.0022 17.1357 33.0022 16.9032V14.7228C33.0022 14.4904 33.1898 14.3027 33.4223 14.3027C33.6548 14.3027 33.8424 14.4904 33.8424 14.7228ZM23.746 17.594C23.565 17.0527 23.2179 16.5993 22.7679 16.3187C22.2913 16.0214 21.7599 15.9467 21.2684 16.1111C21.2086 16.131 21.1521 16.1543 21.1007 16.1792L22.547 11.84C22.6201 11.6192 22.5022 11.3817 22.2813 11.3087C22.0605 11.2356 21.823 11.3535 21.7499 11.5744L20.4912 15.3489L19.2325 11.5727C19.1594 11.3535 18.922 11.2339 18.7011 11.307C18.4802 11.3801 18.3623 11.6175 18.4354 11.8384L19.8834 16.1775C19.8303 16.1526 19.7738 16.1294 19.714 16.1094C19.2225 15.945 18.6911 16.0198 18.2145 16.317C17.7645 16.5993 17.4175 17.051 17.2364 17.5924C17.0554 18.1337 17.0621 18.705 17.253 19.1998C17.454 19.7229 17.8359 20.1015 18.3274 20.2659C18.4769 20.3157 18.6214 20.3406 18.7592 20.3406C19.1029 20.3406 19.4118 20.1878 19.6659 19.8873C19.9515 19.5502 20.1408 19.052 20.2886 18.6103C20.3068 18.5538 20.3268 18.4957 20.345 18.4376C20.3467 18.4326 20.35 18.4276 20.3517 18.4226L20.4912 18.0042L20.6307 18.4226C20.6323 18.426 20.634 18.4293 20.634 18.4326C20.6539 18.4957 20.6738 18.5571 20.6921 18.6119C20.8399 19.0553 21.0292 19.5535 21.3148 19.8889C21.5689 20.1895 21.8777 20.3423 22.2215 20.3423C22.3593 20.3423 22.5038 20.3174 22.6532 20.2676C23.638 19.9388 24.1279 18.7398 23.746 17.594ZM19.4914 18.3463C19.3769 18.6917 19.2191 19.1168 19.0248 19.3459C18.892 19.502 18.7824 19.5336 18.5931 19.4705C18.344 19.3875 18.1463 19.1849 18.0368 18.8992C17.9155 18.5854 17.9155 18.2167 18.0334 17.8597C18.153 17.5027 18.3755 17.2088 18.6595 17.0294C18.8322 16.9215 19.0149 16.865 19.1909 16.865C19.2789 16.865 19.3636 16.8783 19.4466 16.9065C19.6376 16.9696 19.7057 17.061 19.7173 17.2652C19.7356 17.5641 19.606 17.9992 19.4898 18.3446L19.4914 18.3463ZM22.3892 19.4705C22.1982 19.5336 22.0886 19.502 21.9574 19.3459C21.7632 19.1168 21.6071 18.6916 21.4908 18.3462C21.0956 17.1605 21.2766 16.9928 21.534 16.9081C21.617 16.8799 21.7017 16.8666 21.7897 16.8666C21.9657 16.8666 22.1484 16.9214 22.3211 17.031C22.6067 17.2087 22.8292 17.5043 22.9472 17.8613C23.1846 18.5654 22.9339 19.2878 22.3892 19.4705Z" fill="black" />
</svg>
