<svg width="24" height="24" viewBox="0 0 24 24" fill="none" xmlns="http://www.w3.org/2000/svg">
<g id="automation (3) 1" clip-path="url(#clip0_1551_9049)">
<g id="Group">
<path id="Vector" d="M23.5 9.5H20.64C20.4544 8.86006 20.1978 8.24289 19.875 7.66L21.875 5.66C21.9681 5.56632 22.0204 5.43959 22.0204 5.3075C22.0204 5.17541 21.9681 5.04868 21.875 4.955L19.07 2.1C18.9763 2.00687 18.8496 1.9546 18.7175 1.9546C18.5854 1.9546 18.4587 2.00687 18.365 2.1L16.365 4.1C15.7731 3.78409 15.1475 3.53586 14.5 3.36V0.5C14.5 0.367392 14.4473 0.240215 14.3536 0.146447C14.2598 0.0526784 14.1326 0 14 0L10 0C9.86739 0 9.74021 0.0526784 9.64645 0.146447C9.55268 0.240215 9.5 0.367392 9.5 0.5V3.36C8.86006 3.5456 8.24289 3.80219 7.66 4.125L5.66 2.125C5.56632 2.03187 5.43959 1.9796 5.3075 1.9796C5.17541 1.9796 5.04868 2.03187 4.955 2.125L2.1 4.93C2.00687 5.02368 1.9546 5.15041 1.9546 5.2825C1.9546 5.41459 2.00687 5.54132 2.1 5.635L4.1 7.635C3.78409 8.22691 3.53586 8.85252 3.36 9.5H0.5C0.367392 9.5 0.240215 9.55268 0.146447 9.64645C0.0526784 9.74021 0 9.86739 0 10L0 14C0 14.1326 0.0526784 14.2598 0.146447 14.3536C0.240215 14.4473 0.367392 14.5 0.5 14.5H3.36C3.5456 15.1399 3.80219 15.7571 4.125 16.34L2.125 18.34C2.03187 18.4337 1.9796 18.5604 1.9796 18.6925C1.9796 18.8246 2.03187 18.9513 2.125 19.045L4.93 21.9C5.02368 21.9931 5.15041 22.0454 5.2825 22.0454C5.41459 22.0454 5.54132 21.9931 5.635 21.9L7.635 19.9C8.22691 20.2159 8.85252 20.4641 9.5 20.64V23.5C9.5 23.6326 9.55268 23.7598 9.64645 23.8536C9.74021 23.9473 9.86739 24 10 24H14C14.1326 24 14.2598 23.9473 14.3536 23.8536C14.4473 23.7598 14.5 23.6326 14.5 23.5V20.64C15.1399 20.4544 15.7571 20.1978 16.34 19.875L18.34 21.875C18.4337 21.9681 18.5604 22.0204 18.6925 22.0204C18.8246 22.0204 18.9513 21.9681 19.045 21.875L21.875 19.045C21.9681 18.9513 22.0204 18.8246 22.0204 18.6925C22.0204 18.5604 21.9681 18.4337 21.875 18.34L19.875 16.34C20.1978 15.7571 20.4544 15.1399 20.64 14.5H23.5C23.6326 14.5 23.7598 14.4473 23.8536 14.3536C23.9473 14.2598 24 14.1326 24 14V10C24 9.86739 23.9473 9.74021 23.8536 9.64645C23.7598 9.55268 23.6326 9.5 23.5 9.5ZM23 13.5H20.255C20.1401 13.4969 20.0277 13.5335 19.9366 13.6037C19.8455 13.6738 19.7814 13.7731 19.755 13.885C19.5606 14.6896 19.2418 15.4588 18.81 16.165C18.7515 16.261 18.7272 16.3739 18.7408 16.4855C18.7544 16.5971 18.8052 16.7008 18.885 16.78L20.83 18.72L18.71 20.84L16.765 18.895C16.6858 18.8152 16.5821 18.7644 16.4705 18.7508C16.3589 18.7372 16.246 18.7615 16.15 18.82C15.4438 19.2518 14.6746 19.5706 13.87 19.765C13.7581 19.7914 13.6588 19.8555 13.5887 19.9466C13.5185 20.0377 13.4819 20.1501 13.485 20.265V23H10.5V20.255C10.5031 20.1401 10.4665 20.0277 10.3963 19.9366C10.3262 19.8455 10.2269 19.7814 10.115 19.755C9.31044 19.5606 8.54117 19.2418 7.835 18.81C7.73898 18.7515 7.62607 18.7272 7.51448 18.7408C7.4029 18.7544 7.29916 18.8052 7.22 18.885L5.275 20.83L3.16 18.715L5.105 16.775C5.18481 16.6958 5.23563 16.5921 5.24923 16.4805C5.26284 16.3689 5.23845 16.256 5.18 16.16C4.74823 15.4538 4.42939 14.6846 4.235 13.88C4.20861 13.7681 4.14448 13.6688 4.05341 13.5987C3.96234 13.5285 3.8499 13.4919 3.735 13.495H1V10.5H3.745C3.8599 10.5031 3.97234 10.4665 4.06341 10.3963C4.15448 10.3262 4.21861 10.2269 4.245 10.115C4.43939 9.31044 4.75823 8.54117 5.19 7.835C5.24845 7.73898 5.27284 7.62607 5.25923 7.51448C5.24563 7.4029 5.19481 7.29916 5.115 7.22L3.16 5.28L5.28 3.16L7.225 5.105C7.30416 5.18481 7.4079 5.23563 7.51948 5.24923C7.63107 5.26284 7.74398 5.23845 7.84 5.18C8.54617 4.74823 9.31544 4.42939 10.12 4.235C10.2319 4.20861 10.3312 4.14448 10.4013 4.05341C10.4715 3.96234 10.5081 3.8499 10.505 3.735V1H13.505V3.745C13.5019 3.8599 13.5385 3.97234 13.6087 4.06341C13.6788 4.15448 13.7781 4.21861 13.89 4.245C14.6946 4.43939 15.4638 4.75823 16.17 5.19C16.266 5.24845 16.3789 5.27284 16.4905 5.25923C16.6021 5.24563 16.7058 5.19481 16.785 5.115L18.73 3.17L20.85 5.29L18.905 7.235C18.8252 7.31416 18.7744 7.4179 18.7608 7.52948C18.7472 7.64107 18.7715 7.75398 18.83 7.85C19.2618 8.55617 19.5806 9.32544 19.775 10.13C19.8014 10.2419 19.8655 10.3412 19.9566 10.4113C20.0477 10.4815 20.1601 10.5181 20.275 10.515H23V13.5Z" fill="currentColor"/>
<path id="Vector_2" d="M12.295 7.50002L11.15 8.64502L11.855 9.35002L13.855 7.35002C13.9481 7.25634 14.0004 7.12961 14.0004 6.99752C14.0004 6.86543 13.9481 6.7387 13.855 6.64502L11.855 4.64502L11.15 5.35002L12.295 6.50002H12C10.5413 6.50002 9.14236 7.07948 8.11091 8.11093C7.07946 9.14238 6.5 10.5413 6.5 12H7.5C7.5 10.8065 7.97411 9.66195 8.81802 8.81804C9.66193 7.97413 10.8065 7.50002 12 7.50002H12.295ZM12 16.5H11.705L12.85 15.355L12.145 14.65L10.145 16.65C10.0519 16.7437 9.9996 16.8704 9.9996 17.0025C9.9996 17.1346 10.0519 17.2613 10.145 17.355L12.145 19.355L12.85 18.65L11.705 17.5H12C13.4587 17.5 14.8576 16.9206 15.8891 15.8891C16.9205 14.8577 17.5 13.4587 17.5 12H16.5C16.5 13.1935 16.0259 14.3381 15.182 15.182C14.3381 16.0259 13.1935 16.5 12 16.5ZM12 10C11.6044 10 11.2178 10.1173 10.8889 10.3371C10.56 10.5568 10.3036 10.8692 10.1522 11.2347C10.0009 11.6001 9.96126 12.0022 10.0384 12.3902C10.1156 12.7782 10.3061 13.1345 10.5858 13.4142C10.8655 13.6939 11.2219 13.8844 11.6098 13.9616C11.9978 14.0388 12.3999 13.9992 12.7654 13.8478C13.1308 13.6964 13.4432 13.4401 13.6629 13.1112C13.8827 12.7823 14 12.3956 14 12C14 11.4696 13.7893 10.9609 13.4142 10.5858C13.0391 10.2107 12.5304 10 12 10ZM12 13C11.8022 13 11.6089 12.9414 11.4444 12.8315C11.28 12.7216 11.1518 12.5654 11.0761 12.3827C11.0004 12.2 10.9806 11.9989 11.0192 11.8049C11.0578 11.6109 11.153 11.4328 11.2929 11.2929C11.4327 11.1531 11.6109 11.0578 11.8049 11.0192C11.9989 10.9806 12.2 11.0005 12.3827 11.0761C12.5654 11.1518 12.7216 11.28 12.8315 11.4444C12.9414 11.6089 13 11.8022 13 12C13 12.2652 12.8946 12.5196 12.7071 12.7071C12.5196 12.8947 12.2652 13 12 13Z" fill="currentColor"/>
</g>
</g>
<defs>
<clip-path id="clip0_1551_9049">
<rect width="24" height="24" fill="white"/>
</clip-path>
</defs>
</svg>
