<svg width="25" height="24" viewBox="0 0 25 24" fill="none" xmlns="http://www.w3.org/2000/svg">
<g id="Icon">
<path id="Vector" d="M22.5942 9V6.98438H20.6255V5.01562C20.6255 3.89062 19.688 3 18.6099 3H4.59424C3.51611 3 2.62549 3.89062 2.62549 5.01562V18.9844C2.62549 20.1094 3.51611 21 4.59424 21H18.6099C19.688 21 20.6255 20.1094 20.6255 18.9844V17.0156H22.5942V15H20.6255V12.9844H22.5942V11.0156H20.6255V9H22.5942ZM18.6099 18.9844H4.59424V5.01562H18.6099V18.9844ZM6.60986 12.9844H11.6255V17.0156H6.60986V12.9844ZM12.6099 6.98438H16.5942V9.98438H12.6099V6.98438ZM6.60986 6.98438H11.6255V12H6.60986V6.98438ZM12.6099 11.0156H16.5942V17.0156H12.6099V11.0156Z" fill="currentColor"/>
</g>
</svg>
