<svg xmlns="http://www.w3.org/2000/svg" width="28" height="28" viewBox="0 0 28 28" fill="none">
	<path d="M11.5964 9.16636C11.4636 9.0872 11.3122 9.04464 11.1576 9.04302C11.003 9.04139 10.8508 9.08076 10.7163 9.1571C10.5819 9.23345 10.4701 9.34405 10.3923 9.47766C10.3145 9.61126 10.2735 9.76309 10.2734 9.91769V18.0844C10.2734 18.7669 11.0178 19.1799 11.5964 18.8369L18.4436 14.7594C18.5737 14.6817 18.6814 14.5716 18.7562 14.4399C18.8311 14.3082 18.8705 14.1593 18.8706 14.0078C18.8707 13.8563 18.8315 13.7073 18.7569 13.5755C18.6823 13.4436 18.5747 13.3334 18.4448 13.2555L11.5964 9.16636ZM12.0234 16.5455V11.4589L16.2876 14.0057L12.0234 16.5455Z" fill="black" />
	<path d="M23.2213 3.81556C17.7928 3.0094 10.2095 3.0094 4.77867 3.81556C2.60633 4.13756 0.894833 5.84323 0.5215 8.05756C-0.173833 12.1677 -0.173833 15.8322 0.5215 19.9412C0.894833 22.1567 2.60633 23.8612 4.77867 24.1832C7.49933 24.5869 10.7567 24.7887 14.0128 24.7887C17.2632 24.7887 20.5123 24.5881 23.2225 24.1844C25.3925 23.8624 27.1028 22.1579 27.4785 19.9424C28.1738 15.8322 28.1738 12.1666 27.4785 8.0564C27.1052 5.84323 25.3937 4.13756 23.2213 3.81556ZM25.753 19.6507C25.5045 21.1161 24.3845 22.2431 22.9647 22.4531C17.6937 23.2359 10.3203 23.2359 5.03533 22.4519C3.61433 22.2407 2.49317 21.1149 2.24583 19.6496C1.57617 15.6899 1.57617 12.3101 2.24583 8.34806C2.49433 6.88273 3.61433 5.75806 5.0365 5.54573C7.6755 5.1549 10.8383 4.9589 13.9988 4.9589C17.1617 4.9589 20.3245 5.1549 22.9635 5.54573C24.3845 5.7569 25.5057 6.88273 25.753 8.34806C26.4227 12.3101 26.4227 15.6899 25.753 19.6507Z" fill="black" />
</svg>
