<svg width="135" height="64" viewBox="0 0 135 64" fill="none" xmlns="http://www.w3.org/2000/svg">
<rect width="135" height="64" rx="10" fill="white"/>
<g clip-path="url(#clip0_9160_16675)">
<path d="M47.2749 17H41.8203V22.5844H47.2749V17Z" fill="black"/>
<path d="M50.0014 17H44.5469V22.5844H50.0014V17Z" fill="#F7D046"/>
<path d="M25.4545 17H20V22.5844H25.4545V17Z" fill="black"/>
<path d="M25.4545 22.585H20V28.1693H25.4545V22.585Z" fill="black"/>
<path d="M25.4545 28.1699H20V33.7543H25.4545V28.1699Z" fill="black"/>
<path d="M25.4545 33.752H20V39.3363H25.4545V33.752Z" fill="black"/>
<path d="M25.4545 39.3369H20V44.9213H25.4545V39.3369Z" fill="black"/>
<path d="M28.1811 17H22.7266V22.5844H28.1811V17Z" fill="#F7D046"/>
<path d="M50.0014 22.585H44.5469V28.1693H50.0014V22.585Z" fill="#F2A73B"/>
<path d="M28.1811 22.585H22.7266V28.1693H28.1811V22.585Z" fill="#F2A73B"/>
<path d="M41.8178 22.585H36.3633V28.1693H41.8178V22.585Z" fill="black"/>
<path d="M44.5444 22.585H39.0898V28.1693H44.5444V22.585Z" fill="#F2A73B"/>
<path d="M33.6381 22.585H28.1836V28.1693H33.6381V22.585Z" fill="#F2A73B"/>
<path d="M39.0913 28.1699H33.6367V33.7543H39.0913V28.1699Z" fill="#EE792F"/>
<path d="M44.5444 28.1699H39.0898V33.7543H44.5444V28.1699Z" fill="#EE792F"/>
<path d="M33.6381 28.1699H28.1836V33.7543H33.6381V28.1699Z" fill="#EE792F"/>
<path d="M36.3647 33.752H30.9102V39.3363H36.3647V33.752Z" fill="black"/>
<path d="M39.0913 33.752H33.6367V39.3363H39.0913V33.752Z" fill="#EB5829"/>
<path d="M50.0014 28.1699H44.5469V33.7543H50.0014V28.1699Z" fill="#EE792F"/>
<path d="M28.1811 28.1699H22.7266V33.7543H28.1811V28.1699Z" fill="#EE792F"/>
<path d="M47.2749 33.752H41.8203V39.3363H47.2749V33.752Z" fill="black"/>
<path d="M50.0014 33.752H44.5469V39.3363H50.0014V33.752Z" fill="#EB5829"/>
<path d="M47.2749 39.3369H41.8203V44.9213H47.2749V39.3369Z" fill="black"/>
<path d="M28.1811 33.752H22.7266V39.3363H28.1811V33.752Z" fill="#EB5829"/>
<path d="M50.0014 39.3369H44.5469V44.9213H50.0014V39.3369Z" fill="#EA3326"/>
<path d="M28.1811 39.3369H22.7266V44.9213H28.1811V39.3369Z" fill="#EA3326"/>
</g>
<path d="M72.912 25.8575V36.9775H71.088V29.3615L67.696 36.9775H66.432L63.024 29.3615V36.9775H61.2V25.8575H63.168L67.072 34.5775L70.96 25.8575H72.912ZM76.2854 26.9935C75.9547 26.9935 75.6774 26.8815 75.4534 26.6575C75.2294 26.4335 75.1174 26.1562 75.1174 25.8255C75.1174 25.4949 75.2294 25.2175 75.4534 24.9935C75.6774 24.7695 75.9547 24.6575 76.2854 24.6575C76.6054 24.6575 76.8774 24.7695 77.1014 24.9935C77.3254 25.2175 77.4374 25.4949 77.4374 25.8255C77.4374 26.1562 77.3254 26.4335 77.1014 26.6575C76.8774 26.8815 76.6054 26.9935 76.2854 26.9935ZM77.1814 28.1615V36.9775H75.3574V28.1615H77.1814ZM82.8241 37.1215C82.1308 37.1215 81.5068 36.9989 80.9521 36.7535C80.4081 36.4975 79.9761 36.1562 79.6561 35.7295C79.3361 35.2922 79.1655 34.8069 79.1441 34.2735H81.0321C81.0641 34.6469 81.2401 34.9615 81.5601 35.2175C81.8908 35.4629 82.3015 35.5855 82.7921 35.5855C83.3041 35.5855 83.6988 35.4895 83.9761 35.2975C84.2641 35.0949 84.4081 34.8389 84.4081 34.5295C84.4081 34.1989 84.2481 33.9535 83.9281 33.7935C83.6188 33.6335 83.1228 33.4575 82.4401 33.2655C81.7788 33.0842 81.2401 32.9082 80.8241 32.7375C80.4081 32.5669 80.0455 32.3055 79.7361 31.9535C79.4375 31.6015 79.2881 31.1375 79.2881 30.5615C79.2881 30.0922 79.4268 29.6655 79.7041 29.2815C79.9815 28.8869 80.3761 28.5775 80.8881 28.3535C81.4108 28.1295 82.0081 28.0175 82.6801 28.0175C83.6828 28.0175 84.4881 28.2735 85.0961 28.7855C85.7148 29.2869 86.0455 29.9749 86.0881 30.8495H84.2641C84.2321 30.4549 84.0721 30.1402 83.7841 29.9055C83.4961 29.6709 83.1068 29.5535 82.6161 29.5535C82.1361 29.5535 81.7681 29.6442 81.5121 29.8255C81.2561 30.0069 81.1281 30.2469 81.1281 30.5455C81.1281 30.7802 81.2135 30.9775 81.3841 31.1375C81.5548 31.2975 81.7628 31.4255 82.0081 31.5215C82.2535 31.6069 82.6161 31.7189 83.0961 31.8575C83.7361 32.0282 84.2588 32.2042 84.6641 32.3855C85.0801 32.5562 85.4375 32.8122 85.7361 33.1535C86.0348 33.4949 86.1895 33.9482 86.2001 34.5135C86.2001 35.0149 86.0615 35.4629 85.7841 35.8575C85.5068 36.2522 85.1121 36.5615 84.6001 36.7855C84.0988 37.0095 83.5068 37.1215 82.8241 37.1215ZM90.347 29.6495V34.5295C90.347 34.8602 90.4217 35.1002 90.571 35.2495C90.731 35.3882 90.9977 35.4575 91.371 35.4575H92.491V36.9775H91.051C90.2297 36.9775 89.6003 36.7855 89.163 36.4015C88.7257 36.0175 88.507 35.3935 88.507 34.5295V29.6495H87.467V28.1615H88.507V25.9695H90.347V28.1615H92.491V29.6495H90.347ZM96.0441 29.4415C96.3108 28.9935 96.6628 28.6469 97.1001 28.4015C97.5481 28.1455 98.0761 28.0175 98.6841 28.0175V29.9055H98.2201C97.5055 29.9055 96.9615 30.0869 96.5881 30.4495C96.2255 30.8122 96.0441 31.4415 96.0441 32.3375V36.9775H94.2201V28.1615H96.0441V29.4415ZM99.8008 32.5295C99.8008 31.6442 99.9821 30.8602 100.345 30.1775C100.718 29.4949 101.219 28.9669 101.849 28.5935C102.489 28.2095 103.193 28.0175 103.961 28.0175C104.654 28.0175 105.257 28.1562 105.769 28.4335C106.291 28.7002 106.707 29.0362 107.017 29.4415V28.1615H108.857V36.9775H107.017V35.6655C106.707 36.0815 106.286 36.4282 105.753 36.7055C105.219 36.9829 104.611 37.1215 103.929 37.1215C103.171 37.1215 102.478 36.9295 101.849 36.5455C101.219 36.1509 100.718 35.6069 100.345 34.9135C99.9821 34.2095 99.8008 33.4149 99.8008 32.5295ZM107.017 32.5615C107.017 31.9535 106.889 31.4255 106.633 30.9775C106.387 30.5295 106.062 30.1882 105.657 29.9535C105.251 29.7189 104.814 29.6015 104.345 29.6015C103.875 29.6015 103.438 29.7189 103.033 29.9535C102.627 30.1775 102.297 30.5135 102.041 30.9615C101.795 31.3989 101.673 31.9215 101.673 32.5295C101.673 33.1375 101.795 33.6709 102.041 34.1295C102.297 34.5882 102.627 34.9402 103.033 35.1855C103.449 35.4202 103.886 35.5375 104.345 35.5375C104.814 35.5375 105.251 35.4202 105.657 35.1855C106.062 34.9509 106.387 34.6095 106.633 34.1615C106.889 33.7029 107.017 33.1695 107.017 32.5615ZM113.124 25.1375V36.9775H111.3V25.1375H113.124Z" fill="#14171B"/>
<defs>
<clip-path id="clip0_9160_16675">
<rect width="30" height="27.9545" fill="white" transform="translate(20 17)"/>
</clip-path>
</defs>
</svg>
