<svg width="334" height="64" viewBox="0 0 334 64" fill="none" xmlns="http://www.w3.org/2000/svg">
<rect width="334" height="64" rx="10" fill="white"/>
<path d="M25.8849 36.9623L31.7882 33.65L31.8873 33.3623L31.7882 33.2023H31.5005L30.5138 33.1415L27.141 33.0504L24.2156 32.9289L21.3816 32.7769L20.6685 32.625L20 31.7438L20.0689 31.3042L20.6685 30.901L21.5274 30.976L23.4256 31.1056L26.2739 31.3021L28.3402 31.4236L31.4012 31.7417H31.8873L31.9563 31.5452L31.7901 31.4236L31.6605 31.3021L28.713 29.3047L25.5223 27.1938L23.851 25.9783L22.9475 25.3625L22.4917 24.7852L22.2952 23.5251L23.1157 22.6216L24.2177 22.6965L24.4993 22.7715L25.6155 23.6304L27.9999 25.476L31.1135 27.7691L31.5693 28.1479L31.7517 28.0183L31.7739 27.9271L31.5693 27.5848L29.8758 24.5238L28.0688 21.4102L27.2645 20.1197L27.0518 19.3459C26.9768 19.0278 26.9221 18.7604 26.9221 18.4343L27.856 17.1661L28.3726 17L29.6184 17.1661L30.1432 17.6219L30.917 19.3925L32.171 22.1799L34.1158 25.9702L34.685 27.0945L34.9888 28.1358L35.1023 28.4539H35.2989V28.2715L35.4588 26.1364L35.7547 23.5149L36.0422 20.142L36.1415 19.1919L36.6115 18.0534L37.5454 17.4376L38.2748 17.786L38.8744 18.6449L38.7913 19.2L38.4348 21.5175L37.7359 25.1478L37.2801 27.5787H37.5454L37.8493 27.2749L39.079 25.642L41.1452 23.0591L42.0569 22.0341L43.1204 20.9017L43.8032 20.3628H45.0936L46.0436 21.7748L45.6182 23.2334L44.2893 24.9188L43.1873 26.3471L41.6071 28.4741L40.6206 30.1757L40.7118 30.3115L40.9467 30.2892L44.5161 29.5295L46.4448 29.1812L48.7461 28.7861L49.7873 29.2723L49.9007 29.7665L49.4915 30.7774L47.0302 31.3852L44.1434 31.9625L39.8447 32.9794L39.792 33.018L39.8528 33.0929L41.7895 33.2753L42.618 33.3198H44.6458L48.4219 33.6014L49.4085 34.2538L50 35.0519L49.9007 35.6596L48.3814 36.4335L46.3313 35.9473L41.5464 34.8087L39.9055 34.3995H39.6786V34.5353L41.046 35.8724L43.552 38.1351L46.6898 41.0523L46.8499 41.7735L46.4468 42.3427L46.0214 42.282L43.2643 40.2075L42.2007 39.2737L39.792 37.2459H39.6319V37.4585L40.187 38.2708L43.1184 42.677L43.2703 44.0282L43.0576 44.4678L42.2979 44.7331L41.4633 44.5813L39.7474 42.1726L37.977 39.46L36.5487 37.029L36.3745 37.1283L35.5318 46.206L35.1368 46.6698L34.2252 47.0183L33.4655 46.4409L33.0624 45.507L33.4655 43.6615L33.9516 41.2528L34.3467 39.3385L34.7032 36.9602L34.9159 36.1701L34.9018 36.1174L34.7276 36.1398L32.9347 38.601L30.208 42.2859L28.0505 44.5954L27.534 44.8L26.6385 44.3361L26.7216 43.5076L27.2219 42.7702L30.208 38.9718L32.009 36.6178L33.1718 35.2585L33.1636 35.062H33.0948L25.1637 40.2116L23.7518 40.3939L23.144 39.8247L23.219 38.8908L23.5066 38.5868L25.891 36.946L25.8829 36.9541L25.8849 36.9623Z" fill="#D97757"/>
<path d="M60.592 32.4248C60.592 31.3368 60.8427 30.3608 61.344 29.4968C61.856 28.6328 62.544 27.9608 63.408 27.4808C64.2827 26.9901 65.2373 26.7448 66.272 26.7448C67.456 26.7448 68.5067 27.0381 69.424 27.6248C70.352 28.2008 71.024 29.0221 71.44 30.0888H69.248C68.96 29.5021 68.56 29.0648 68.048 28.7768C67.536 28.4888 66.944 28.3448 66.272 28.3448C65.536 28.3448 64.88 28.5101 64.304 28.8408C63.728 29.1715 63.2747 29.6461 62.944 30.2648C62.624 30.8835 62.464 31.6035 62.464 32.4248C62.464 33.2461 62.624 33.9661 62.944 34.5848C63.2747 35.2035 63.728 35.6835 64.304 36.0248C64.88 36.3555 65.536 36.5208 66.272 36.5208C66.944 36.5208 67.536 36.3768 68.048 36.0888C68.56 35.8008 68.96 35.3635 69.248 34.7768H71.44C71.024 35.8435 70.352 36.6648 69.424 37.2408C68.5067 37.8168 67.456 38.1048 66.272 38.1048C65.2267 38.1048 64.272 37.8648 63.408 37.3848C62.544 36.8941 61.856 36.2168 61.344 35.3528C60.8427 34.4888 60.592 33.5128 60.592 32.4248ZM75.447 26.1688V38.0088H73.623V26.1688H75.447ZM77.2818 33.5608C77.2818 32.6755 77.4631 31.8915 77.8258 31.2088C78.1991 30.5261 78.7004 29.9981 79.3298 29.6248C79.9698 29.2408 80.6738 29.0488 81.4418 29.0488C82.1351 29.0488 82.7378 29.1875 83.2498 29.4648C83.7724 29.7315 84.1884 30.0675 84.4978 30.4728V29.1928H86.3378V38.0088H84.4978V36.6968C84.1884 37.1128 83.7671 37.4595 83.2338 37.7368C82.7004 38.0141 82.0924 38.1528 81.4098 38.1528C80.6524 38.1528 79.9591 37.9608 79.3298 37.5768C78.7004 37.1821 78.1991 36.6381 77.8258 35.9448C77.4631 35.2408 77.2818 34.4461 77.2818 33.5608ZM84.4978 33.5928C84.4978 32.9848 84.3698 32.4568 84.1138 32.0088C83.8684 31.5608 83.5431 31.2195 83.1378 30.9848C82.7324 30.7501 82.2951 30.6328 81.8258 30.6328C81.3564 30.6328 80.9191 30.7501 80.5138 30.9848C80.1084 31.2088 79.7778 31.5448 79.5218 31.9928C79.2764 32.4301 79.1538 32.9528 79.1538 33.5608C79.1538 34.1688 79.2764 34.7021 79.5218 35.1608C79.7778 35.6195 80.1084 35.9715 80.5138 36.2168C80.9298 36.4515 81.3671 36.5688 81.8258 36.5688C82.2951 36.5688 82.7324 36.4515 83.1378 36.2168C83.5431 35.9821 83.8684 35.6408 84.1138 35.1928C84.3698 34.7341 84.4978 34.2008 84.4978 33.5928ZM96.7655 29.1928V38.0088H94.9415V36.9688C94.6535 37.3315 94.2748 37.6195 93.8055 37.8328C93.3468 38.0355 92.8562 38.1368 92.3335 38.1368C91.6402 38.1368 91.0162 37.9928 90.4615 37.7048C89.9175 37.4168 89.4855 36.9901 89.1655 36.4248C88.8562 35.8595 88.7015 35.1768 88.7015 34.3768V29.1928H90.5095V34.1048C90.5095 34.8941 90.7068 35.5021 91.1015 35.9288C91.4962 36.3448 92.0348 36.5528 92.7175 36.5528C93.4002 36.5528 93.9388 36.3448 94.3335 35.9288C94.7388 35.5021 94.9415 34.8941 94.9415 34.1048V29.1928H96.7655ZM98.6121 33.5608C98.6121 32.6755 98.7935 31.8915 99.1561 31.2088C99.5295 30.5261 100.031 29.9981 100.66 29.6248C101.3 29.2408 102.009 29.0488 102.788 29.0488C103.364 29.0488 103.929 29.1768 104.484 29.4328C105.049 29.6781 105.497 30.0088 105.828 30.4248V26.1688H107.668V38.0088H105.828V36.6808C105.529 37.1075 105.113 37.4595 104.58 37.7368C104.057 38.0141 103.455 38.1528 102.772 38.1528C102.004 38.1528 101.3 37.9608 100.66 37.5768C100.031 37.1821 99.5295 36.6381 99.1561 35.9448C98.7935 35.2408 98.6121 34.4461 98.6121 33.5608ZM105.828 33.5928C105.828 32.9848 105.7 32.4568 105.444 32.0088C105.199 31.5608 104.873 31.2195 104.468 30.9848C104.063 30.7501 103.625 30.6328 103.156 30.6328C102.687 30.6328 102.249 30.7501 101.844 30.9848C101.439 31.2088 101.108 31.5448 100.852 31.9928C100.607 32.4301 100.484 32.9528 100.484 33.5608C100.484 34.1688 100.607 34.7021 100.852 35.1608C101.108 35.6195 101.439 35.9715 101.844 36.2168C102.26 36.4515 102.697 36.5688 103.156 36.5688C103.625 36.5688 104.063 36.4515 104.468 36.2168C104.873 35.9821 105.199 35.6408 105.444 35.1928C105.7 34.7341 105.828 34.2008 105.828 33.5928ZM118.192 33.3848C118.192 33.7155 118.171 34.0141 118.128 34.2808H111.392C111.445 34.9848 111.707 35.5501 112.176 35.9768C112.645 36.4035 113.221 36.6168 113.904 36.6168C114.885 36.6168 115.579 36.2061 115.984 35.3848H117.952C117.685 36.1955 117.2 36.8621 116.496 37.3848C115.803 37.8968 114.939 38.1528 113.904 38.1528C113.061 38.1528 112.304 37.9661 111.632 37.5928C110.971 37.2088 110.448 36.6755 110.064 35.9928C109.691 35.2995 109.504 34.4995 109.504 33.5928C109.504 32.6861 109.685 31.8915 110.048 31.2088C110.421 30.5155 110.939 29.9821 111.6 29.6088C112.272 29.2355 113.04 29.0488 113.904 29.0488C114.736 29.0488 115.477 29.2301 116.128 29.5928C116.779 29.9555 117.285 30.4675 117.648 31.1288C118.011 31.7795 118.192 32.5315 118.192 33.3848ZM116.288 32.8088C116.277 32.1368 116.037 31.5981 115.568 31.1928C115.099 30.7875 114.517 30.5848 113.824 30.5848C113.195 30.5848 112.656 30.7875 112.208 31.1928C111.76 31.5875 111.493 32.1261 111.408 32.8088H116.288ZM123.967 29.2248C124.031 28.2328 124.41 27.4595 125.103 26.9048C125.807 26.3501 126.703 26.0728 127.791 26.0728C128.538 26.0728 129.183 26.2061 129.727 26.4728C130.271 26.7395 130.682 27.1021 130.959 27.5608C131.236 28.0195 131.375 28.5368 131.375 29.1128C131.375 29.7741 131.199 30.3395 130.847 30.8088C130.495 31.2781 130.074 31.5928 129.583 31.7528V31.8168C130.212 32.0088 130.703 32.3608 131.055 32.8728C131.407 33.3741 131.583 34.0195 131.583 34.8088C131.583 35.4381 131.439 35.9981 131.151 36.4888C130.863 36.9795 130.436 37.3688 129.871 37.6568C129.306 37.9341 128.628 38.0728 127.839 38.0728C126.687 38.0728 125.738 37.7795 124.991 37.1928C124.255 36.5955 123.86 35.7421 123.807 34.6328H125.567C125.61 35.1981 125.828 35.6621 126.223 36.0248C126.618 36.3768 127.151 36.5528 127.823 36.5528C128.474 36.5528 128.975 36.3768 129.327 36.0248C129.679 35.6621 129.855 35.1981 129.855 34.6328C129.855 33.8861 129.615 33.3581 129.135 33.0488C128.666 32.7288 127.94 32.5688 126.959 32.5688H126.543V31.0648H126.975C127.839 31.0541 128.495 30.9101 128.943 30.6328C129.402 30.3555 129.631 29.9181 129.631 29.3208C129.631 28.8088 129.466 28.4035 129.135 28.1048C128.804 27.7955 128.335 27.6408 127.727 27.6408C127.13 27.6408 126.666 27.7955 126.335 28.1048C126.004 28.4035 125.807 28.7768 125.743 29.2248H123.967ZM142.023 40.9848C140.978 39.9821 140.173 38.7075 139.607 37.1608C139.053 35.6141 138.775 33.9555 138.775 32.1848C138.775 30.3715 139.074 28.6595 139.671 27.0488C140.279 25.4381 141.17 24.1101 142.343 23.0648H144.231V23.2408C143.005 24.3715 142.082 25.7261 141.463 27.3048C140.845 28.8835 140.535 30.5101 140.535 32.1848C140.535 33.7955 140.823 35.3528 141.399 36.8568C141.975 38.3608 142.813 39.6781 143.911 40.8088V40.9848H142.023ZM149.578 38.1208C148.832 38.1208 148.16 37.9928 147.562 37.7368C146.965 37.4701 146.496 37.0968 146.154 36.6168C145.813 36.1368 145.642 35.5768 145.642 34.9368H147.594C147.637 35.4168 147.824 35.8115 148.154 36.1208C148.496 36.4301 148.97 36.5848 149.578 36.5848C150.208 36.5848 150.698 36.4355 151.05 36.1368C151.402 35.8275 151.578 35.4328 151.578 34.9528C151.578 34.5795 151.466 34.2755 151.242 34.0408C151.029 33.8061 150.757 33.6248 150.426 33.4968C150.106 33.3688 149.658 33.2301 149.082 33.0808C148.357 32.8888 147.765 32.6968 147.306 32.5048C146.858 32.3021 146.474 31.9928 146.154 31.5768C145.834 31.1608 145.674 30.6061 145.674 29.9128C145.674 29.2728 145.834 28.7128 146.154 28.2328C146.474 27.7528 146.922 27.3848 147.498 27.1288C148.074 26.8728 148.741 26.7448 149.498 26.7448C150.576 26.7448 151.456 27.0168 152.138 27.5608C152.832 28.0941 153.216 28.8301 153.29 29.7688H151.274C151.242 29.3635 151.05 29.0168 150.698 28.7288C150.346 28.4408 149.882 28.2968 149.306 28.2968C148.784 28.2968 148.357 28.4301 148.026 28.6968C147.696 28.9635 147.53 29.3475 147.53 29.8488C147.53 30.1901 147.632 30.4728 147.834 30.6968C148.048 30.9101 148.314 31.0808 148.634 31.2088C148.954 31.3368 149.392 31.4755 149.946 31.6248C150.682 31.8275 151.28 32.0301 151.738 32.2328C152.208 32.4355 152.602 32.7501 152.922 33.1768C153.253 33.5928 153.418 34.1528 153.418 34.8568C153.418 35.4221 153.264 35.9555 152.954 36.4568C152.656 36.9581 152.213 37.3635 151.626 37.6728C151.05 37.9715 150.368 38.1208 149.578 38.1208ZM159.443 38.1528C158.611 38.1528 157.859 37.9661 157.187 37.5928C156.515 37.2088 155.987 36.6755 155.603 35.9928C155.219 35.2995 155.027 34.4995 155.027 33.5928C155.027 32.6968 155.224 31.9021 155.619 31.2088C156.013 30.5155 156.552 29.9821 157.235 29.6088C157.917 29.2355 158.68 29.0488 159.523 29.0488C160.365 29.0488 161.128 29.2355 161.811 29.6088C162.493 29.9821 163.032 30.5155 163.427 31.2088C163.821 31.9021 164.019 32.6968 164.019 33.5928C164.019 34.4888 163.816 35.2835 163.411 35.9768C163.005 36.6701 162.451 37.2088 161.747 37.5928C161.053 37.9661 160.285 38.1528 159.443 38.1528ZM159.443 36.5688C159.912 36.5688 160.349 36.4568 160.755 36.2328C161.171 36.0088 161.507 35.6728 161.763 35.2248C162.019 34.7768 162.147 34.2328 162.147 33.5928C162.147 32.9528 162.024 32.4141 161.779 31.9768C161.533 31.5288 161.208 31.1928 160.803 30.9688C160.397 30.7448 159.96 30.6328 159.491 30.6328C159.021 30.6328 158.584 30.7448 158.179 30.9688C157.784 31.1928 157.469 31.5288 157.235 31.9768C157 32.4141 156.883 32.9528 156.883 33.5928C156.883 34.5421 157.123 35.2781 157.603 35.8008C158.093 36.3128 158.707 36.5688 159.443 36.5688ZM170.318 29.0488C171.011 29.0488 171.63 29.1928 172.174 29.4808C172.728 29.7688 173.16 30.1955 173.47 30.7608C173.779 31.3261 173.934 32.0088 173.934 32.8088V38.0088H172.126V33.0808C172.126 32.2915 171.928 31.6888 171.534 31.2728C171.139 30.8461 170.6 30.6328 169.918 30.6328C169.235 30.6328 168.691 30.8461 168.286 31.2728C167.891 31.6888 167.694 32.2915 167.694 33.0808V38.0088H165.87V29.1928H167.694V30.2008C167.992 29.8381 168.371 29.5555 168.83 29.3528C169.299 29.1501 169.795 29.0488 170.318 29.0488ZM180.756 29.0488C181.45 29.0488 182.068 29.1928 182.612 29.4808C183.167 29.7688 183.599 30.1955 183.908 30.7608C184.218 31.3261 184.372 32.0088 184.372 32.8088V38.0088H182.564V33.0808C182.564 32.2915 182.367 31.6888 181.972 31.2728C181.578 30.8461 181.039 30.6328 180.356 30.6328C179.674 30.6328 179.13 30.8461 178.724 31.2728C178.33 31.6888 178.132 32.2915 178.132 33.0808V38.0088H176.308V29.1928H178.132V30.2008C178.431 29.8381 178.81 29.5555 179.268 29.3528C179.738 29.1501 180.234 29.0488 180.756 29.0488ZM194.827 33.3848C194.827 33.7155 194.806 34.0141 194.763 34.2808H188.027C188.08 34.9848 188.342 35.5501 188.811 35.9768C189.28 36.4035 189.856 36.6168 190.539 36.6168C191.52 36.6168 192.214 36.2061 192.619 35.3848H194.587C194.32 36.1955 193.835 36.8621 193.131 37.3848C192.438 37.8968 191.574 38.1528 190.539 38.1528C189.696 38.1528 188.939 37.9661 188.267 37.5928C187.606 37.2088 187.083 36.6755 186.699 35.9928C186.326 35.2995 186.139 34.4995 186.139 33.5928C186.139 32.6861 186.32 31.8915 186.683 31.2088C187.056 30.5155 187.574 29.9821 188.235 29.6088C188.907 29.2355 189.675 29.0488 190.539 29.0488C191.371 29.0488 192.112 29.2301 192.763 29.5928C193.414 29.9555 193.92 30.4675 194.283 31.1288C194.646 31.7795 194.827 32.5315 194.827 33.3848ZM192.923 32.8088C192.912 32.1368 192.672 31.5981 192.203 31.1928C191.734 30.7875 191.152 30.5848 190.459 30.5848C189.83 30.5848 189.291 30.7875 188.843 31.1928C188.395 31.5875 188.128 32.1261 188.043 32.8088H192.923ZM198.798 30.6808V35.5608C198.798 35.8915 198.873 36.1315 199.022 36.2808C199.182 36.4195 199.449 36.4888 199.822 36.4888H200.942V38.0088H199.502C198.681 38.0088 198.051 37.8168 197.614 37.4328C197.177 37.0488 196.958 36.4248 196.958 35.5608V30.6808H195.918V29.1928H196.958V27.0008H198.798V29.1928H200.942V30.6808H198.798ZM204.671 35.8168L202.735 40.2328H201.551L202.687 35.8168H204.671ZM215.589 38.1208C214.554 38.1208 213.6 37.8808 212.725 37.4008C211.861 36.9101 211.173 36.2328 210.661 35.3688C210.16 34.4941 209.909 33.5128 209.909 32.4248C209.909 31.3368 210.16 30.3608 210.661 29.4968C211.173 28.6328 211.861 27.9608 212.725 27.4808C213.6 26.9901 214.554 26.7448 215.589 26.7448C216.634 26.7448 217.589 26.9901 218.453 27.4808C219.328 27.9608 220.016 28.6328 220.517 29.4968C221.018 30.3608 221.269 31.3368 221.269 32.4248C221.269 33.5128 221.018 34.4941 220.517 35.3688C220.016 36.2328 219.328 36.9101 218.453 37.4008C217.589 37.8808 216.634 38.1208 215.589 38.1208ZM215.589 36.5368C216.325 36.5368 216.981 36.3715 217.557 36.0408C218.133 35.6995 218.581 35.2195 218.901 34.6008C219.232 33.9715 219.397 33.2461 219.397 32.4248C219.397 31.6035 219.232 30.8835 218.901 30.2648C218.581 29.6461 218.133 29.1715 217.557 28.8408C216.981 28.5101 216.325 28.3448 215.589 28.3448C214.853 28.3448 214.197 28.5101 213.621 28.8408C213.045 29.1715 212.592 29.6461 212.261 30.2648C211.941 30.8835 211.781 31.6035 211.781 32.4248C211.781 33.2461 211.941 33.9715 212.261 34.6008C212.592 35.2195 213.045 35.6995 213.621 36.0408C214.197 36.3715 214.853 36.5368 215.589 36.5368ZM224.936 30.4888C225.245 30.0835 225.667 29.7421 226.2 29.4648C226.733 29.1875 227.336 29.0488 228.008 29.0488C228.776 29.0488 229.475 29.2408 230.104 29.6248C230.744 29.9981 231.245 30.5261 231.608 31.2088C231.971 31.8915 232.152 32.6755 232.152 33.5608C232.152 34.4461 231.971 35.2408 231.608 35.9448C231.245 36.6381 230.744 37.1821 230.104 37.5768C229.475 37.9608 228.776 38.1528 228.008 38.1528C227.336 38.1528 226.739 38.0195 226.216 37.7528C225.693 37.4755 225.267 37.1341 224.936 36.7288V42.2008H223.112V29.1928H224.936V30.4888ZM230.296 33.5608C230.296 32.9528 230.168 32.4301 229.912 31.9928C229.667 31.5448 229.336 31.2088 228.92 30.9848C228.515 30.7501 228.077 30.6328 227.608 30.6328C227.149 30.6328 226.712 30.7501 226.296 30.9848C225.891 31.2195 225.56 31.5608 225.304 32.0088C225.059 32.4568 224.936 32.9848 224.936 33.5928C224.936 34.2008 225.059 34.7341 225.304 35.1928C225.56 35.6408 225.891 35.9821 226.296 36.2168C226.712 36.4515 227.149 36.5688 227.608 36.5688C228.077 36.5688 228.515 36.4515 228.92 36.2168C229.336 35.9715 229.667 35.6195 229.912 35.1608C230.168 34.7021 230.296 34.1688 230.296 33.5608ZM241.988 29.1928V38.0088H240.164V36.9688C239.876 37.3315 239.497 37.6195 239.028 37.8328C238.569 38.0355 238.078 38.1368 237.556 38.1368C236.862 38.1368 236.238 37.9928 235.684 37.7048C235.14 37.4168 234.708 36.9901 234.388 36.4248C234.078 35.8595 233.924 35.1768 233.924 34.3768V29.1928H235.732V34.1048C235.732 34.8941 235.929 35.5021 236.324 35.9288C236.718 36.3448 237.257 36.5528 237.94 36.5528C238.622 36.5528 239.161 36.3448 239.556 35.9288C239.961 35.5021 240.164 34.8941 240.164 34.1048V29.1928H241.988ZM247.642 38.1528C246.949 38.1528 246.325 38.0301 245.77 37.7848C245.226 37.5288 244.794 37.1875 244.474 36.7608C244.154 36.3235 243.984 35.8381 243.962 35.3048H245.85C245.882 35.6781 246.058 35.9928 246.378 36.2488C246.709 36.4941 247.12 36.6168 247.61 36.6168C248.122 36.6168 248.517 36.5208 248.794 36.3288C249.082 36.1261 249.226 35.8701 249.226 35.5608C249.226 35.2301 249.066 34.9848 248.746 34.8248C248.437 34.6648 247.941 34.4888 247.258 34.2968C246.597 34.1155 246.058 33.9395 245.642 33.7688C245.226 33.5981 244.864 33.3368 244.554 32.9848C244.256 32.6328 244.106 32.1688 244.106 31.5928C244.106 31.1235 244.245 30.6968 244.522 30.3128C244.8 29.9181 245.194 29.6088 245.706 29.3848C246.229 29.1608 246.826 29.0488 247.498 29.0488C248.501 29.0488 249.306 29.3048 249.914 29.8168C250.533 30.3181 250.864 31.0061 250.906 31.8808H249.082C249.05 31.4861 248.89 31.1715 248.602 30.9368C248.314 30.7021 247.925 30.5848 247.434 30.5848C246.954 30.5848 246.586 30.6755 246.33 30.8568C246.074 31.0381 245.946 31.2781 245.946 31.5768C245.946 31.8115 246.032 32.0088 246.202 32.1688C246.373 32.3288 246.581 32.4568 246.826 32.5528C247.072 32.6381 247.434 32.7501 247.914 32.8888C248.554 33.0595 249.077 33.2355 249.482 33.4168C249.898 33.5875 250.256 33.8435 250.554 34.1848C250.853 34.5261 251.008 34.9795 251.018 35.5448C251.018 36.0461 250.88 36.4941 250.602 36.8888C250.325 37.2835 249.93 37.5928 249.418 37.8168C248.917 38.0408 248.325 38.1528 247.642 38.1528ZM255.037 35.8168L253.101 40.2328H251.917L253.053 35.8168H255.037ZM269.763 26.8888V38.0088H267.939V33.1448H262.707V38.0088H260.883V26.8888H262.707V31.6568H267.939V26.8888H269.763ZM271.604 33.5608C271.604 32.6755 271.786 31.8915 272.148 31.2088C272.522 30.5261 273.023 29.9981 273.652 29.6248C274.292 29.2408 274.996 29.0488 275.764 29.0488C276.458 29.0488 277.06 29.1875 277.572 29.4648C278.095 29.7315 278.511 30.0675 278.82 30.4728V29.1928H280.66V38.0088H278.82V36.6968C278.511 37.1128 278.09 37.4595 277.556 37.7368C277.023 38.0141 276.415 38.1528 275.732 38.1528C274.975 38.1528 274.282 37.9608 273.652 37.5768C273.023 37.1821 272.522 36.6381 272.148 35.9448C271.786 35.2408 271.604 34.4461 271.604 33.5608ZM278.82 33.5928C278.82 32.9848 278.692 32.4568 278.436 32.0088C278.191 31.5608 277.866 31.2195 277.46 30.9848C277.055 30.7501 276.618 30.6328 276.148 30.6328C275.679 30.6328 275.242 30.7501 274.836 30.9848C274.431 31.2088 274.1 31.5448 273.844 31.9928C273.599 32.4301 273.476 32.9528 273.476 33.5608C273.476 34.1688 273.599 34.7021 273.844 35.1608C274.1 35.6195 274.431 35.9715 274.836 36.2168C275.252 36.4515 275.69 36.5688 276.148 36.5688C276.618 36.5688 277.055 36.4515 277.46 36.2168C277.866 35.9821 278.191 35.6408 278.436 35.1928C278.692 34.7341 278.82 34.2008 278.82 33.5928ZM284.032 28.0248C283.702 28.0248 283.424 27.9128 283.2 27.6888C282.976 27.4648 282.864 27.1875 282.864 26.8568C282.864 26.5261 282.976 26.2488 283.2 26.0248C283.424 25.8008 283.702 25.6888 284.032 25.6888C284.352 25.6888 284.624 25.8008 284.848 26.0248C285.072 26.2488 285.184 26.5261 285.184 26.8568C285.184 27.1875 285.072 27.4648 284.848 27.6888C284.624 27.9128 284.352 28.0248 284.032 28.0248ZM284.928 29.1928V38.0088H283.104V29.1928H284.928ZM290.859 33.6088L294.923 38.0088H292.459L289.195 34.2168V38.0088H287.371V26.1688H289.195V33.0488L292.395 29.1928H294.923L290.859 33.6088ZM304.262 29.1928V38.0088H302.438V36.9688C302.15 37.3315 301.772 37.6195 301.302 37.8328C300.844 38.0355 300.353 38.1368 299.83 38.1368C299.137 38.1368 298.513 37.9928 297.958 37.7048C297.414 37.4168 296.982 36.9901 296.662 36.4248C296.353 35.8595 296.198 35.1768 296.198 34.3768V29.1928H298.006V34.1048C298.006 34.8941 298.204 35.5021 298.598 35.9288C298.993 36.3448 299.532 36.5528 300.214 36.5528C300.897 36.5528 301.436 36.3448 301.83 35.9288C302.236 35.5021 302.438 34.8941 302.438 34.1048V29.1928H304.262ZM306.269 40.9848V40.8088C307.368 39.6781 308.205 38.3608 308.781 36.8568C309.357 35.3528 309.645 33.7955 309.645 32.1848C309.645 30.5101 309.336 28.8835 308.717 27.3048C308.098 25.7261 307.176 24.3715 305.949 23.2408V23.0648H307.837C309.01 24.1101 309.896 25.4381 310.493 27.0488C311.101 28.6595 311.405 30.3715 311.405 32.1848C311.405 33.9555 311.122 35.6141 310.557 37.1608C310.002 38.7075 309.202 39.9821 308.157 40.9848H306.269Z" fill="#14171B"/>
</svg>
