<svg width="230" height="64" viewBox="0 0 230 64" fill="none" xmlns="http://www.w3.org/2000/svg">
<rect width="230" height="64" rx="10" fill="white"/>
<g clip-path="url(#clip0_9160_16583)">
<path d="M47.8517 29.2763C48.1871 28.2662 48.3031 27.1961 48.192 26.1375C48.0808 25.0789 47.745 24.0563 47.2071 23.1378C46.4095 21.7496 45.1917 20.6505 43.7293 19.999C42.2668 19.3475 40.6353 19.1773 39.0698 19.5128C38.1805 18.5235 37.0464 17.7857 35.7816 17.3734C34.5169 16.961 33.1658 16.8888 31.8643 17.1638C30.5627 17.4389 29.3565 18.0515 28.3667 18.9403C27.3768 19.8291 26.6383 20.9627 26.2252 22.2272C25.1823 22.4411 24.197 22.8751 23.3353 23.5002C22.4735 24.1253 21.7551 24.9272 21.2281 25.8522C20.4219 27.2381 20.0773 28.8445 20.2442 30.4391C20.4111 32.0338 21.0808 33.534 22.1564 34.723C21.8198 35.7326 21.7026 36.8026 21.8128 37.8612C21.9229 38.9198 22.2579 39.9426 22.7952 40.8613C23.5937 42.2501 24.8126 43.3494 26.2761 44.0009C27.7396 44.6524 29.3721 44.8224 30.9384 44.4865C31.645 45.2822 32.5132 45.918 33.4851 46.3514C34.4569 46.7848 35.5101 47.0059 36.5742 47C38.1787 47.0014 39.7422 46.493 41.039 45.5481C42.3358 44.6031 43.2988 43.2706 43.7889 41.7427C44.8317 41.5285 45.8169 41.0943 46.6786 40.4692C47.5403 39.8441 48.2587 39.0424 48.7861 38.1176C49.5827 36.7337 49.9214 35.1334 49.7536 33.5454C49.5857 31.9574 48.92 30.4631 47.8517 29.2763ZM36.5742 45.0365C35.2601 45.0385 33.9872 44.578 32.9787 43.7355L33.1561 43.635L39.1289 40.1872C39.2776 40.1 39.401 39.9757 39.4871 39.8264C39.5731 39.6771 39.6189 39.5079 39.6198 39.3356V30.9145L42.1448 32.3752C42.1573 32.3815 42.1681 32.3907 42.1764 32.402C42.1846 32.4133 42.1901 32.4264 42.1923 32.4402V39.4185C42.1891 40.9075 41.5962 42.3346 40.5433 43.3875C39.4904 44.4404 38.0632 45.0333 36.5742 45.0365ZM24.4983 39.8797C23.8393 38.7417 23.6027 37.4078 23.8301 36.1126L24.0076 36.2191L29.9863 39.6668C30.1343 39.7537 30.3027 39.7994 30.4742 39.7994C30.6457 39.7994 30.8141 39.7537 30.9621 39.6668L38.2656 35.4562V38.3717C38.2649 38.3868 38.2608 38.4016 38.2536 38.4149C38.2464 38.4282 38.2363 38.4397 38.2241 38.4486L32.1743 41.9377C30.8832 42.6815 29.3498 42.8825 27.9106 42.4967C26.4714 42.1108 25.2442 41.1696 24.4983 39.8797ZM22.9253 26.8695C23.5889 25.7242 24.6364 24.8506 25.8822 24.4035V31.5C25.8799 31.6714 25.9238 31.8403 26.009 31.9891C26.0943 32.1378 26.218 32.2609 26.3671 32.3456L33.6351 36.5385L31.1099 37.9991C31.0963 38.0063 31.081 38.0101 31.0656 38.0101C31.0501 38.0101 31.0349 38.0063 31.0212 37.9991L24.9833 34.516C23.6946 33.769 22.7545 32.5418 22.3688 31.1031C21.9831 29.6644 22.1832 28.1314 22.9253 26.84V26.8695ZM43.6707 31.6892L36.3791 27.455L38.8983 26C38.912 25.9927 38.9272 25.9889 38.9427 25.9889C38.9582 25.9889 38.9734 25.9927 38.9871 26L45.0249 29.4891C45.9481 30.0218 46.7007 30.8061 47.1949 31.7505C47.6891 32.6949 47.9044 33.7603 47.8157 34.8225C47.727 35.8846 47.3381 36.8996 46.6942 37.749C46.0503 38.5984 45.178 39.2471 44.1793 39.6193V32.5228C44.1741 32.3517 44.1244 32.1848 44.0352 32.0387C43.946 31.8925 43.8205 31.7722 43.6707 31.6892ZM46.1841 27.9103L46.0066 27.8038L40.0397 24.3266C39.8909 24.2392 39.7214 24.1932 39.5488 24.1932C39.3762 24.1932 39.2068 24.2392 39.0579 24.3266L31.7606 28.5371V25.6217C31.759 25.6069 31.7615 25.5919 31.7677 25.5784C31.774 25.5649 31.7838 25.5533 31.7961 25.5448L37.8339 22.0616C38.7593 21.5285 39.8174 21.2699 40.8844 21.316C41.9513 21.3622 42.9831 21.7112 43.859 22.3222C44.7349 22.9332 45.4187 23.781 45.8305 24.7664C46.2423 25.7518 46.3649 26.834 46.1842 27.8866L46.1841 27.9103ZM30.3824 33.0787L27.8574 31.624C27.8448 31.6164 27.834 31.6061 27.8258 31.5938C27.8176 31.5816 27.8122 31.5677 27.8099 31.5531V24.5927C27.8113 23.5249 28.1167 22.4796 28.6903 21.579C29.2638 20.6783 30.082 19.9596 31.049 19.5068C32.016 19.054 33.092 18.8858 34.151 19.0219C35.2101 19.1581 36.2085 19.5929 37.0296 20.2756L36.8521 20.3762L30.8793 23.8237C30.7307 23.9109 30.6072 24.0353 30.5212 24.1846C30.4351 24.3339 30.3894 24.503 30.3884 24.6753L30.3824 33.0787ZM31.7544 30.122L35.0069 28.2472L38.2656 30.122V33.8712L35.0188 35.7458L31.7604 33.8712L31.7544 30.122Z" fill="#034737"/>
</g>
<path d="M60.592 32.416C60.592 31.328 60.8427 30.352 61.344 29.488C61.856 28.624 62.544 27.952 63.408 27.472C64.2827 26.9813 65.2373 26.736 66.272 26.736C67.456 26.736 68.5067 27.0293 69.424 27.616C70.352 28.192 71.024 29.0133 71.44 30.08H69.248C68.96 29.4933 68.56 29.056 68.048 28.768C67.536 28.48 66.944 28.336 66.272 28.336C65.536 28.336 64.88 28.5013 64.304 28.832C63.728 29.1627 63.2747 29.6373 62.944 30.256C62.624 30.8747 62.464 31.5947 62.464 32.416C62.464 33.2373 62.624 33.9573 62.944 34.576C63.2747 35.1947 63.728 35.6747 64.304 36.016C64.88 36.3467 65.536 36.512 66.272 36.512C66.944 36.512 67.536 36.368 68.048 36.08C68.56 35.792 68.96 35.3547 69.248 34.768H71.44C71.024 35.8347 70.352 36.656 69.424 37.232C68.5067 37.808 67.456 38.096 66.272 38.096C65.2267 38.096 64.272 37.856 63.408 37.376C62.544 36.8853 61.856 36.208 61.344 35.344C60.8427 34.48 60.592 33.504 60.592 32.416ZM78.183 29.04C78.855 29.04 79.4523 29.184 79.975 29.472C80.5083 29.76 80.9243 30.1867 81.223 30.752C81.5323 31.3173 81.687 32 81.687 32.8V38H79.879V33.072C79.879 32.2827 79.6817 31.68 79.287 31.264C78.8923 30.8373 78.3537 30.624 77.671 30.624C76.9883 30.624 76.4443 30.8373 76.039 31.264C75.6443 31.68 75.447 32.2827 75.447 33.072V38H73.623V26.16H75.447V30.208C75.7563 29.8347 76.1457 29.5467 76.615 29.344C77.095 29.1413 77.6177 29.04 78.183 29.04ZM83.4536 33.552C83.4536 32.6667 83.635 31.8827 83.9976 31.2C84.371 30.5173 84.8723 29.9893 85.5016 29.616C86.1416 29.232 86.8456 29.04 87.6136 29.04C88.307 29.04 88.9096 29.1787 89.4216 29.456C89.9443 29.7227 90.3603 30.0587 90.6696 30.464V29.184H92.5096V38H90.6696V36.688C90.3603 37.104 89.939 37.4507 89.4056 37.728C88.8723 38.0053 88.2643 38.144 87.5816 38.144C86.8243 38.144 86.131 37.952 85.5016 37.568C84.8723 37.1733 84.371 36.6293 83.9976 35.936C83.635 35.232 83.4536 34.4373 83.4536 33.552ZM90.6696 33.584C90.6696 32.976 90.5416 32.448 90.2856 32C90.0403 31.552 89.715 31.2107 89.3096 30.976C88.9043 30.7413 88.467 30.624 87.9976 30.624C87.5283 30.624 87.091 30.7413 86.6856 30.976C86.2803 31.2 85.9496 31.536 85.6936 31.984C85.4483 32.4213 85.3256 32.944 85.3256 33.552C85.3256 34.16 85.4483 34.6933 85.6936 35.152C85.9496 35.6107 86.2803 35.9627 86.6856 36.208C87.1016 36.4427 87.539 36.56 87.9976 36.56C88.467 36.56 88.9043 36.4427 89.3096 36.208C89.715 35.9733 90.0403 35.632 90.2856 35.184C90.5416 34.7253 90.6696 34.192 90.6696 33.584ZM97.0814 30.672V35.552C97.0814 35.8827 97.156 36.1227 97.3054 36.272C97.4654 36.4107 97.732 36.48 98.1054 36.48H99.2254V38H97.7854C96.964 38 96.3347 37.808 95.8974 37.424C95.46 37.04 95.2414 36.416 95.2414 35.552V30.672H94.2014V29.184H95.2414V26.992H97.0814V29.184H99.2254V30.672H97.0814ZM109.003 30.08C108.715 29.5253 108.315 29.1093 107.803 28.832C107.291 28.544 106.699 28.4 106.027 28.4C105.291 28.4 104.635 28.5653 104.059 28.896C103.483 29.2267 103.029 29.696 102.699 30.304C102.379 30.912 102.219 31.616 102.219 32.416C102.219 33.216 102.379 33.9253 102.699 34.544C103.029 35.152 103.483 35.6213 104.059 35.952C104.635 36.2827 105.291 36.448 106.027 36.448C107.019 36.448 107.824 36.1707 108.443 35.616C109.061 35.0613 109.44 34.3093 109.579 33.36H105.403V31.904H111.531V33.328C111.413 34.192 111.104 34.9867 110.603 35.712C110.112 36.4373 109.467 37.0187 108.667 37.456C107.877 37.8827 106.997 38.096 106.027 38.096C104.981 38.096 104.027 37.856 103.163 37.376C102.299 36.8853 101.611 36.208 101.099 35.344C100.597 34.48 100.347 33.504 100.347 32.416C100.347 31.328 100.597 30.352 101.099 29.488C101.611 28.624 102.299 27.952 103.163 27.472C104.037 26.9813 104.992 26.736 106.027 26.736C107.211 26.736 108.261 27.0293 109.179 27.616C110.107 28.192 110.779 29.0133 111.195 30.08H109.003ZM121.154 30.192C121.154 30.7573 121.02 31.2907 120.754 31.792C120.487 32.2933 120.06 32.704 119.474 33.024C118.887 33.3333 118.135 33.488 117.218 33.488H115.202V38H113.378V26.88H117.218C118.071 26.88 118.791 27.0293 119.378 27.328C119.975 27.616 120.418 28.0107 120.706 28.512C121.004 29.0133 121.154 29.5733 121.154 30.192ZM117.218 32C117.911 32 118.428 31.8453 118.77 31.536C119.111 31.216 119.282 30.768 119.282 30.192C119.282 28.976 118.594 28.368 117.218 28.368H115.202V32H117.218ZM130.125 26.88V28.368H127.165V38H125.341V28.368H122.365V26.88H130.125ZM135.953 29.216C136.017 28.224 136.395 27.4507 137.089 26.896C137.793 26.3413 138.689 26.064 139.777 26.064C140.523 26.064 141.169 26.1973 141.713 26.464C142.257 26.7307 142.667 27.0933 142.945 27.552C143.222 28.0107 143.361 28.528 143.361 29.104C143.361 29.7653 143.185 30.3307 142.833 30.8C142.481 31.2693 142.059 31.584 141.569 31.744V31.808C142.198 32 142.689 32.352 143.041 32.864C143.393 33.3653 143.569 34.0107 143.569 34.8C143.569 35.4293 143.425 35.9893 143.137 36.48C142.849 36.9707 142.422 37.36 141.857 37.648C141.291 37.9253 140.614 38.064 139.825 38.064C138.673 38.064 137.723 37.7707 136.977 37.184C136.241 36.5867 135.846 35.7333 135.793 34.624H137.553C137.595 35.1893 137.814 35.6533 138.209 36.016C138.603 36.368 139.137 36.544 139.809 36.544C140.459 36.544 140.961 36.368 141.313 36.016C141.665 35.6533 141.841 35.1893 141.841 34.624C141.841 33.8773 141.601 33.3493 141.121 33.04C140.651 32.72 139.926 32.56 138.945 32.56H138.529V31.056H138.961C139.825 31.0453 140.481 30.9013 140.929 30.624C141.387 30.3467 141.617 29.9093 141.617 29.312C141.617 28.8 141.451 28.3947 141.121 28.096C140.79 27.7867 140.321 27.632 139.713 27.632C139.115 27.632 138.651 27.7867 138.321 28.096C137.99 28.3947 137.793 28.768 137.729 29.216H135.953ZM146.509 38.112C146.178 38.112 145.901 38 145.677 37.776C145.453 37.552 145.341 37.2747 145.341 36.944C145.341 36.6133 145.453 36.336 145.677 36.112C145.901 35.888 146.178 35.776 146.509 35.776C146.829 35.776 147.101 35.888 147.325 36.112C147.549 36.336 147.661 36.6133 147.661 36.944C147.661 37.2747 147.549 37.552 147.325 37.776C147.101 38 146.829 38.112 146.509 38.112ZM156.96 27.904H151.6V31.088C151.824 30.7893 152.155 30.5387 152.592 30.336C153.04 30.1333 153.515 30.032 154.016 30.032C154.912 30.032 155.637 30.224 156.192 30.608C156.757 30.992 157.157 31.4773 157.392 32.064C157.637 32.6507 157.76 33.2693 157.76 33.92C157.76 34.7093 157.605 35.4133 157.296 36.032C156.997 36.64 156.544 37.12 155.936 37.472C155.339 37.824 154.603 38 153.728 38C152.565 38 151.632 37.712 150.928 37.136C150.224 36.56 149.803 35.7973 149.664 34.848H151.44C151.557 35.3493 151.819 35.7493 152.224 36.048C152.629 36.336 153.136 36.48 153.744 36.48C154.501 36.48 155.067 36.2507 155.44 35.792C155.824 35.3333 156.016 34.7253 156.016 33.968C156.016 33.2 155.824 32.6133 155.44 32.208C155.056 31.792 154.491 31.584 153.744 31.584C153.221 31.584 152.779 31.7173 152.416 31.984C152.064 32.24 151.808 32.592 151.648 33.04H149.92V26.304H156.96V27.904ZM171.335 26.88V28.368H168.375V38H166.551V28.368H163.575V26.88H171.335ZM181.214 29.184V38H179.39V36.96C179.102 37.3227 178.724 37.6107 178.254 37.824C177.796 38.0267 177.305 38.128 176.782 38.128C176.089 38.128 175.465 37.984 174.91 37.696C174.366 37.408 173.934 36.9813 173.614 36.416C173.305 35.8507 173.15 35.168 173.15 34.368V29.184H174.958V34.096C174.958 34.8853 175.156 35.4933 175.55 35.92C175.945 36.336 176.484 36.544 177.166 36.544C177.849 36.544 178.388 36.336 178.782 35.92C179.188 35.4933 179.39 34.8853 179.39 34.096V29.184H181.214ZM185.493 30.464C185.76 30.016 186.112 29.6693 186.549 29.424C186.997 29.168 187.525 29.04 188.133 29.04V30.928H187.669C186.954 30.928 186.41 31.1093 186.037 31.472C185.674 31.8347 185.493 32.464 185.493 33.36V38H183.669V29.184H185.493V30.464ZM191.682 30.496C191.991 30.0693 192.412 29.7227 192.946 29.456C193.49 29.1787 194.092 29.04 194.754 29.04C195.532 29.04 196.236 29.2267 196.866 29.6C197.495 29.9733 197.991 30.5067 198.354 31.2C198.716 31.8827 198.898 32.6667 198.898 33.552C198.898 34.4373 198.716 35.232 198.354 35.936C197.991 36.6293 197.49 37.1733 196.85 37.568C196.22 37.952 195.522 38.144 194.754 38.144C194.071 38.144 193.463 38.0107 192.93 37.744C192.407 37.4773 191.991 37.136 191.682 36.72V38H189.858V26.16H191.682V30.496ZM197.042 33.552C197.042 32.944 196.914 32.4213 196.658 31.984C196.412 31.536 196.082 31.2 195.666 30.976C195.26 30.7413 194.823 30.624 194.354 30.624C193.895 30.624 193.458 30.7413 193.042 30.976C192.636 31.2107 192.306 31.552 192.05 32C191.804 32.448 191.682 32.976 191.682 33.584C191.682 34.192 191.804 34.7253 192.05 35.184C192.306 35.632 192.636 35.9733 193.042 36.208C193.458 36.4427 193.895 36.56 194.354 36.56C194.823 36.56 195.26 36.4427 195.666 36.208C196.082 35.9627 196.412 35.6107 196.658 35.152C196.914 34.6933 197.042 34.16 197.042 33.552ZM204.573 38.144C203.741 38.144 202.989 37.9573 202.317 37.584C201.645 37.2 201.117 36.6667 200.733 35.984C200.349 35.2907 200.157 34.4907 200.157 33.584C200.157 32.688 200.355 31.8933 200.749 31.2C201.144 30.5067 201.683 29.9733 202.365 29.6C203.048 29.2267 203.811 29.04 204.653 29.04C205.496 29.04 206.259 29.2267 206.941 29.6C207.624 29.9733 208.163 30.5067 208.557 31.2C208.952 31.8933 209.149 32.688 209.149 33.584C209.149 34.48 208.947 35.2747 208.541 35.968C208.136 36.6613 207.581 37.2 206.877 37.584C206.184 37.9573 205.416 38.144 204.573 38.144ZM204.573 36.56C205.043 36.56 205.48 36.448 205.885 36.224C206.301 36 206.637 35.664 206.893 35.216C207.149 34.768 207.277 34.224 207.277 33.584C207.277 32.944 207.155 32.4053 206.909 31.968C206.664 31.52 206.339 31.184 205.933 30.96C205.528 30.736 205.091 30.624 204.621 30.624C204.152 30.624 203.715 30.736 203.309 30.96C202.915 31.184 202.6 31.52 202.365 31.968C202.131 32.4053 202.013 32.944 202.013 33.584C202.013 34.5333 202.253 35.2693 202.733 35.792C203.224 36.304 203.837 36.56 204.573 36.56Z" fill="#14171B"/>
<defs>
<clip-path id="clip0_9160_16583">
<rect width="30" height="30" fill="white" transform="translate(20 17)"/>
</clip-path>
</defs>
</svg>
