<svg width="209" height="64" viewBox="0 0 209 64" fill="none" xmlns="http://www.w3.org/2000/svg">
<rect width="209" height="64" rx="10" fill="white"/>
<g clip-path="url(#clip0_9160_16670)">
<path d="M47.8517 29.2763C48.1871 28.2662 48.3031 27.1961 48.192 26.1375C48.0808 25.0789 47.745 24.0563 47.2071 23.1378C46.4095 21.7496 45.1917 20.6505 43.7293 19.999C42.2668 19.3475 40.6353 19.1773 39.0698 19.5128C38.1805 18.5235 37.0464 17.7857 35.7816 17.3734C34.5169 16.961 33.1658 16.8888 31.8643 17.1638C30.5627 17.4389 29.3565 18.0515 28.3667 18.9403C27.3768 19.8291 26.6383 20.9627 26.2252 22.2272C25.1823 22.4411 24.197 22.8751 23.3353 23.5002C22.4735 24.1253 21.7551 24.9272 21.2281 25.8522C20.4219 27.2381 20.0773 28.8445 20.2442 30.4391C20.4111 32.0338 21.0808 33.534 22.1564 34.723C21.8198 35.7326 21.7026 36.8026 21.8128 37.8612C21.9229 38.9198 22.2579 39.9426 22.7952 40.8613C23.5937 42.2501 24.8126 43.3494 26.2761 44.0009C27.7396 44.6524 29.3721 44.8224 30.9384 44.4865C31.645 45.2822 32.5132 45.918 33.4851 46.3514C34.4569 46.7848 35.5101 47.0059 36.5742 47C38.1787 47.0014 39.7422 46.493 41.039 45.5481C42.3358 44.6031 43.2988 43.2706 43.7889 41.7427C44.8317 41.5285 45.8169 41.0943 46.6786 40.4692C47.5403 39.8441 48.2587 39.0424 48.7861 38.1176C49.5827 36.7337 49.9214 35.1334 49.7536 33.5454C49.5857 31.9574 48.92 30.4631 47.8517 29.2763ZM36.5742 45.0365C35.2601 45.0385 33.9872 44.578 32.9787 43.7355L33.1561 43.635L39.1289 40.1872C39.2776 40.1 39.401 39.9757 39.4871 39.8264C39.5731 39.6771 39.6189 39.5079 39.6198 39.3356V30.9145L42.1448 32.3752C42.1573 32.3815 42.1681 32.3907 42.1764 32.402C42.1846 32.4133 42.1901 32.4264 42.1923 32.4402V39.4185C42.1891 40.9075 41.5962 42.3346 40.5433 43.3875C39.4904 44.4404 38.0632 45.0333 36.5742 45.0365ZM24.4983 39.8797C23.8393 38.7417 23.6027 37.4078 23.8301 36.1126L24.0076 36.2191L29.9863 39.6668C30.1343 39.7537 30.3027 39.7994 30.4742 39.7994C30.6457 39.7994 30.8141 39.7537 30.9621 39.6668L38.2656 35.4562V38.3717C38.2649 38.3868 38.2608 38.4016 38.2536 38.4149C38.2464 38.4282 38.2363 38.4397 38.2241 38.4486L32.1743 41.9377C30.8832 42.6815 29.3498 42.8825 27.9106 42.4967C26.4714 42.1108 25.2442 41.1696 24.4983 39.8797ZM22.9253 26.8695C23.5889 25.7242 24.6364 24.8506 25.8822 24.4035V31.5C25.8799 31.6714 25.9238 31.8403 26.009 31.9891C26.0943 32.1378 26.218 32.2609 26.3671 32.3456L33.6351 36.5385L31.1099 37.9991C31.0963 38.0063 31.081 38.0101 31.0656 38.0101C31.0501 38.0101 31.0349 38.0063 31.0212 37.9991L24.9833 34.516C23.6946 33.769 22.7545 32.5418 22.3688 31.1031C21.9831 29.6644 22.1832 28.1314 22.9253 26.84V26.8695ZM43.6707 31.6892L36.3791 27.455L38.8983 26C38.912 25.9927 38.9272 25.9889 38.9427 25.9889C38.9582 25.9889 38.9734 25.9927 38.9871 26L45.0249 29.4891C45.9481 30.0218 46.7007 30.8061 47.1949 31.7505C47.6891 32.6949 47.9044 33.7603 47.8157 34.8225C47.727 35.8846 47.3381 36.8996 46.6942 37.749C46.0503 38.5984 45.178 39.2471 44.1793 39.6193V32.5228C44.1741 32.3517 44.1244 32.1848 44.0352 32.0387C43.946 31.8925 43.8205 31.7722 43.6707 31.6892ZM46.1841 27.9103L46.0066 27.8038L40.0397 24.3266C39.8909 24.2392 39.7214 24.1932 39.5488 24.1932C39.3762 24.1932 39.2068 24.2392 39.0579 24.3266L31.7606 28.5371V25.6217C31.759 25.6069 31.7615 25.5919 31.7677 25.5784C31.774 25.5649 31.7838 25.5533 31.7961 25.5448L37.8339 22.0616C38.7593 21.5285 39.8174 21.2699 40.8844 21.316C41.9513 21.3622 42.9831 21.7112 43.859 22.3222C44.7349 22.9332 45.4187 23.781 45.8305 24.7664C46.2423 25.7518 46.3649 26.834 46.1842 27.8866L46.1841 27.9103ZM30.3824 33.0787L27.8574 31.624C27.8448 31.6164 27.834 31.6061 27.8258 31.5938C27.8176 31.5816 27.8122 31.5677 27.8099 31.5531V24.5927C27.8113 23.5249 28.1167 22.4796 28.6903 21.579C29.2638 20.6783 30.082 19.9596 31.049 19.5068C32.016 19.054 33.092 18.8858 34.151 19.0219C35.2101 19.1581 36.2085 19.5929 37.0296 20.2756L36.8521 20.3762L30.8793 23.8237C30.7307 23.9109 30.6072 24.0353 30.5212 24.1846C30.4351 24.3339 30.3894 24.503 30.3884 24.6753L30.3824 33.0787ZM31.7544 30.122L35.0069 28.2472L38.2656 30.122V33.8712L35.0188 35.7458L31.7604 33.8712L31.7544 30.122Z" fill="#034737"/>
</g>
<path d="M69.248 30.08C68.96 29.5253 68.56 29.1093 68.048 28.832C67.536 28.544 66.944 28.4 66.272 28.4C65.536 28.4 64.88 28.5653 64.304 28.896C63.728 29.2267 63.2747 29.696 62.944 30.304C62.624 30.912 62.464 31.616 62.464 32.416C62.464 33.216 62.624 33.9253 62.944 34.544C63.2747 35.152 63.728 35.6213 64.304 35.952C64.88 36.2827 65.536 36.448 66.272 36.448C67.264 36.448 68.0693 36.1707 68.688 35.616C69.3067 35.0613 69.6853 34.3093 69.824 33.36H65.648V31.904H71.776V33.328C71.6587 34.192 71.3493 34.9867 70.848 35.712C70.3573 36.4373 69.712 37.0187 68.912 37.456C68.1227 37.8827 67.2427 38.096 66.272 38.096C65.2267 38.096 64.272 37.856 63.408 37.376C62.544 36.8853 61.856 36.208 61.344 35.344C60.8427 34.48 60.592 33.504 60.592 32.416C60.592 31.328 60.8427 30.352 61.344 29.488C61.856 28.624 62.544 27.952 63.408 27.472C64.2827 26.9813 65.2373 26.736 66.272 26.736C67.456 26.736 68.5067 27.0293 69.424 27.616C70.352 28.192 71.024 29.0133 71.44 30.08H69.248ZM81.399 30.192C81.399 30.7573 81.2657 31.2907 80.999 31.792C80.7323 32.2933 80.3057 32.704 79.719 33.024C79.1323 33.3333 78.3803 33.488 77.463 33.488H75.447V38H73.623V26.88H77.463C78.3163 26.88 79.0363 27.0293 79.623 27.328C80.2203 27.616 80.663 28.0107 80.951 28.512C81.2497 29.0133 81.399 29.5733 81.399 30.192ZM77.463 32C78.1563 32 78.6737 31.8453 79.015 31.536C79.3563 31.216 79.527 30.768 79.527 30.192C79.527 28.976 78.839 28.368 77.463 28.368H75.447V32H77.463ZM90.3706 26.88V28.368H87.4106V38H85.5866V28.368H82.6106V26.88H90.3706ZM99.0339 31.44V32.976H92.4579V31.44H99.0339ZM101.209 35.568V34.192L106.585 26.48H108.793V33.984H110.281V35.568H108.793V38H107.001V35.568H101.209ZM107.081 28.336L103.305 33.984H107.081V28.336ZM122.205 22.896L117.853 40.8H116.061L120.397 22.896H122.205ZM136.804 30.08C136.516 29.5253 136.116 29.1093 135.604 28.832C135.092 28.544 134.5 28.4 133.828 28.4C133.092 28.4 132.436 28.5653 131.86 28.896C131.284 29.2267 130.831 29.696 130.5 30.304C130.18 30.912 130.02 31.616 130.02 32.416C130.02 33.216 130.18 33.9253 130.5 34.544C130.831 35.152 131.284 35.6213 131.86 35.952C132.436 36.2827 133.092 36.448 133.828 36.448C134.82 36.448 135.625 36.1707 136.244 35.616C136.863 35.0613 137.241 34.3093 137.38 33.36H133.204V31.904H139.332V33.328C139.215 34.192 138.905 34.9867 138.404 35.712C137.913 36.4373 137.268 37.0187 136.468 37.456C135.679 37.8827 134.799 38.096 133.828 38.096C132.783 38.096 131.828 37.856 130.964 37.376C130.1 36.8853 129.412 36.208 128.9 35.344C128.399 34.48 128.148 33.504 128.148 32.416C128.148 31.328 128.399 30.352 128.9 29.488C129.412 28.624 130.1 27.952 130.964 27.472C131.839 26.9813 132.793 26.736 133.828 26.736C135.012 26.736 136.063 27.0293 136.98 27.616C137.908 28.192 138.58 29.0133 138.996 30.08H136.804ZM148.955 30.192C148.955 30.7573 148.822 31.2907 148.555 31.792C148.288 32.2933 147.862 32.704 147.275 33.024C146.688 33.3333 145.936 33.488 145.019 33.488H143.003V38H141.179V26.88H145.019C145.872 26.88 146.592 27.0293 147.179 27.328C147.776 27.616 148.219 28.0107 148.507 28.512C148.806 29.0133 148.955 29.5733 148.955 30.192ZM145.019 32C145.712 32 146.23 31.8453 146.571 31.536C146.912 31.216 147.083 30.768 147.083 30.192C147.083 28.976 146.395 28.368 145.019 28.368H143.003V32H145.019ZM157.927 26.88V28.368H154.967V38H153.143V28.368H150.167V26.88H157.927ZM166.59 31.44V32.976H160.014V31.44H166.59ZM168.765 35.568V34.192L174.141 26.48H176.349V33.984H177.837V35.568H176.349V38H174.557V35.568H168.765ZM174.637 28.336L170.861 33.984H174.637V28.336ZM183.461 38.144C182.629 38.144 181.877 37.9573 181.205 37.584C180.533 37.2 180.005 36.6667 179.621 35.984C179.237 35.2907 179.045 34.4907 179.045 33.584C179.045 32.688 179.242 31.8933 179.637 31.2C180.031 30.5067 180.57 29.9733 181.253 29.6C181.935 29.2267 182.698 29.04 183.541 29.04C184.383 29.04 185.146 29.2267 185.829 29.6C186.511 29.9733 187.05 30.5067 187.445 31.2C187.839 31.8933 188.037 32.688 188.037 33.584C188.037 34.48 187.834 35.2747 187.429 35.968C187.023 36.6613 186.469 37.2 185.765 37.584C185.071 37.9573 184.303 38.144 183.461 38.144ZM183.461 36.56C183.93 36.56 184.367 36.448 184.773 36.224C185.189 36 185.525 35.664 185.781 35.216C186.037 34.768 186.165 34.224 186.165 33.584C186.165 32.944 186.042 32.4053 185.797 31.968C185.551 31.52 185.226 31.184 184.821 30.96C184.415 30.736 183.978 30.624 183.509 30.624C183.039 30.624 182.602 30.736 182.197 30.96C181.802 31.184 181.487 31.52 181.253 31.968C181.018 32.4053 180.901 32.944 180.901 33.584C180.901 34.5333 181.141 35.2693 181.621 35.792C182.111 36.304 182.725 36.56 183.461 36.56Z" fill="#14171B"/>
<defs>
<clip-path id="clip0_9160_16670">
<rect width="30" height="30" fill="white" transform="translate(20 17)"/>
</clip-path>
</defs>
</svg>
