<svg width="20" height="20" viewBox="0 0 20 20" fill="none" xmlns="http://www.w3.org/2000/svg">
<path d="M9.69537 0.0086238C9.64061 0.0211133 9.58697 0.0453269 9.53566 0.0807081L0.425372 6.2319C0.300091 6.31606 0.192436 6.46377 0.116527 6.65565C0.0406181 6.84754 0 7.07463 0 7.30716C0 7.53968 0.0406181 7.76678 0.116527 7.95866C0.192436 8.15054 0.300091 8.29825 0.425372 8.38242L3.55703 10.4969V15.7711C3.55703 16.6827 3.88407 17.3956 4.25836 17.8855C4.63265 18.3755 5.09762 18.7346 5.64712 19.0389C6.74613 19.6473 8.18707 20 9.7787 20C11.3703 20 12.8113 19.6473 13.9103 19.0389C14.4598 18.7346 14.9247 18.3755 15.299 17.8855C15.6733 17.3956 16.0004 16.6827 16.0004 15.7711V10.4969L18.2224 8.99513V16.552C17.9558 16.9031 17.778 17.4534 17.778 18.0778C17.778 19.1394 18.2754 20 18.889 20C19.5026 20 20 19.1394 20 18.0778C20 17.4534 19.8221 16.9031 19.5556 16.552V7.31317C19.5564 7.07998 19.5164 6.85183 19.4408 6.6588C19.3652 6.46577 19.2575 6.31693 19.132 6.2319L10.0217 0.0807081C9.91813 0.00988399 9.80593 -0.0148988 9.69537 0.0086238ZM9.7787 2.39942L17.0558 7.31317L9.7787 12.2149L2.50157 7.31317L9.7787 2.39942ZM4.89025 11.3979L9.53566 14.5336C9.69191 14.6394 9.86548 14.6394 10.0217 14.5336L14.6671 11.3979V15.759C14.6624 15.7703 14.6345 15.8629 14.4936 16.0474C14.3056 16.2934 13.9563 16.6 13.5006 16.8523C12.5891 17.357 11.255 17.6933 9.7787 17.6933C8.30235 17.6933 6.96834 17.357 6.05681 16.8523C5.60105 16.6 5.25176 16.2934 5.06384 16.0474C4.93375 15.8771 4.89834 15.7938 4.89025 15.7711V11.3979Z" fill="#C38EC7"/>
</svg>
