<svg width="20" height="20" viewBox="0 0 20 20" fill="none" xmlns="http://www.w3.org/2000/svg">
<g id="Group 1171275623">
<path id="Vector" fill-rule="evenodd" clip-rule="evenodd" d="M17.8947 0C18.4531 0 18.9886 0.221804 19.3834 0.616617C19.7782 1.01143 20 1.54691 20 2.10526V13.6842C20 17.1721 17.1721 20 13.6842 20H6.31579C2.82789 20 0 17.1721 0 13.6842V2.10526C0 1.54691 0.221804 1.01143 0.616617 0.616617C1.01143 0.221804 1.54691 0 2.10526 0H17.8947ZM4.73684 4.21053C4.45767 4.21053 4.18993 4.32143 3.99252 4.51884C3.79511 4.71624 3.68421 4.98398 3.68421 5.26316V7.89474C3.68421 8.17391 3.79511 8.44165 3.99252 8.63906C4.18993 8.83647 4.45767 8.94737 4.73684 8.94737H7.36842C7.6476 8.94737 7.91534 8.83647 8.11274 8.63906C8.31015 8.44165 8.42105 8.17391 8.42105 7.89474V5.26316C8.42105 4.98398 8.31015 4.71624 8.11274 4.51884C7.91534 4.32143 7.6476 4.21053 7.36842 4.21053H4.73684ZM10.7895 4.21053C10.5801 4.21053 10.3793 4.2937 10.2312 4.44176C10.0832 4.58981 10 4.79062 10 5C10 5.20938 10.0832 5.41019 10.2312 5.55824C10.3793 5.7063 10.5801 5.78947 10.7895 5.78947H15.5263C15.7357 5.78947 15.9365 5.7063 16.0846 5.55824C16.2326 5.41019 16.3158 5.20938 16.3158 5C16.3158 4.79062 16.2326 4.58981 16.0846 4.44176C15.9365 4.2937 15.7357 4.21053 15.5263 4.21053H10.7895ZM10.7895 7.36842C10.5801 7.36842 10.3793 7.4516 10.2312 7.59965C10.0832 7.74771 10 7.94851 10 8.1579C10 8.36728 10.0832 8.56808 10.2312 8.71614C10.3793 8.86419 10.5801 8.94737 10.7895 8.94737H13.9474C14.1568 8.94737 14.3576 8.86419 14.5056 8.71614C14.6537 8.56808 14.7368 8.36728 14.7368 8.1579C14.7368 7.94851 14.6537 7.74771 14.5056 7.59965C14.3576 7.4516 14.1568 7.36842 13.9474 7.36842H10.7895ZM4.73684 11.0526C4.45767 11.0526 4.18993 11.1635 3.99252 11.3609C3.79511 11.5583 3.68421 11.8261 3.68421 12.1053V14.7368C3.68421 15.016 3.79511 15.2838 3.99252 15.4812C4.18993 15.6786 4.45767 15.7895 4.73684 15.7895H7.36842C7.6476 15.7895 7.91534 15.6786 8.11274 15.4812C8.31015 15.2838 8.42105 15.016 8.42105 14.7368V12.1053C8.42105 11.8261 8.31015 11.5583 8.11274 11.3609C7.91534 11.1635 7.6476 11.0526 7.36842 11.0526H4.73684ZM10.7895 11.0526C10.5801 11.0526 10.3793 11.1358 10.2312 11.2839C10.0832 11.4319 10 11.6327 10 11.8421C10 12.0515 10.0832 12.2523 10.2312 12.4003C10.3793 12.5484 10.5801 12.6316 10.7895 12.6316H15.5263C15.7357 12.6316 15.9365 12.5484 16.0846 12.4003C16.2326 12.2523 16.3158 12.0515 16.3158 11.8421C16.3158 11.6327 16.2326 11.4319 16.0846 11.2839C15.9365 11.1358 15.7357 11.0526 15.5263 11.0526H10.7895ZM10.7895 14.2105C10.5801 14.2105 10.3793 14.2937 10.2312 14.4418C10.0832 14.5898 10 14.7906 10 15C10 15.2094 10.0832 15.4102 10.2312 15.5582C10.3793 15.7063 10.5801 15.7895 10.7895 15.7895H13.9474C14.1568 15.7895 14.3576 15.7063 14.5056 15.5582C14.6537 15.4102 14.7368 15.2094 14.7368 15C14.7368 14.7906 14.6537 14.5898 14.5056 14.4418C14.3576 14.2937 14.1568 14.2105 13.9474 14.2105H10.7895Z" fill="white"/>
</g>
</svg>
