<svg width="20" height="20" viewBox="0 0 20 20" fill="none" xmlns="http://www.w3.org/2000/svg">
<g id="quote 1">
<g id="Group">
<path id="Vector" d="M16.9375 1.21875H16.6562V1.15625C16.6562 0.53125 16.125 0 15.5 0H3.09375C2.46875 0 1.9375 0.53125 1.9375 1.15625V17.4688C1.9375 18.0938 2.46875 18.625 3.09375 18.625H3.28125V18.875C3.28125 19.5 3.78125 20 4.40625 20H16.9375C17.5625 20 18.0625 19.5 18.0625 18.875V2.34375C18.0625 1.71875 17.5625 1.21875 16.9375 1.21875ZM2.71875 17.4688V1.15625C2.71875 0.9375 2.875 0.78125 3.09375 0.78125H15.5C15.7187 0.78125 15.875 0.96875 15.875 1.15625V17.4688C15.875 17.6875 15.6875 17.8438 15.5 17.8438H3.09375C2.875 17.875 2.71875 17.6875 2.71875 17.4688Z" fill="#DD504E"/>
<path id="Vector_2" d="M3.875 5.28125H15.1562C15.3125 5.28125 15.4375 5.15625 15.4375 5V3.0625C15.4375 2.90625 15.3125 2.78125 15.1562 2.78125H3.875C3.71875 2.78125 3.59375 2.90625 3.59375 3.0625V5C3.59375 5.15625 3.71875 5.28125 3.875 5.28125ZM5.8125 6.1875H3.9375C3.78125 6.1875 3.65625 6.3125 3.65625 6.46875V8.34375C3.65625 8.5 3.78125 8.625 3.9375 8.625H5.8125C5.96875 8.625 6.09375 8.5 6.09375 8.34375V6.46875C6.09375 6.3125 5.96875 6.1875 5.8125 6.1875ZM3.65625 11.4375C3.65625 11.5938 3.78125 11.7188 3.9375 11.7188H5.8125C5.96875 11.7188 6.09375 11.5938 6.09375 11.4375V9.5625C6.09375 9.40625 5.96875 9.28125 5.8125 9.28125H3.9375C3.78125 9.28125 3.65625 9.40625 3.65625 9.5625V11.4375ZM14.5938 6.3125H7.90625C7.75 6.3125 7.625 6.4375 7.625 6.59375C7.625 6.75 7.75 6.875 7.90625 6.875H14.625C14.7812 6.875 14.9062 6.75 14.9062 6.59375C14.875 6.4375 14.75 6.3125 14.5938 6.3125ZM7.90625 8.5H12.25C12.4062 8.5 12.5312 8.375 12.5312 8.21875C12.5312 8.0625 12.4062 7.9375 12.25 7.9375H7.90625C7.75 7.9375 7.625 8.0625 7.625 8.21875C7.625 8.375 7.75 8.5 7.90625 8.5ZM14.5938 9.40625H7.90625C7.75 9.40625 7.625 9.53125 7.625 9.6875C7.625 9.84375 7.75 9.96875 7.90625 9.96875H14.625C14.7812 9.96875 14.9062 9.84375 14.9062 9.6875C14.875 9.53125 14.75 9.40625 14.5938 9.40625ZM12.25 11.5938C12.4062 11.5938 12.5312 11.4688 12.5312 11.3125C12.5312 11.1562 12.4062 11.0312 12.25 11.0312H7.90625C7.75 11.0312 7.625 11.1562 7.625 11.3125C7.625 11.4688 7.75 11.5938 7.90625 11.5938H12.25ZM3.65625 14.8438C3.65625 15 3.78125 15.125 3.9375 15.125H8.71875C8.875 15.125 9 15 9 14.8438C9 14.6875 8.875 14.5625 8.71875 14.5625H3.9375C3.78125 14.5625 3.65625 14.6875 3.65625 14.8438ZM9.5 16.0625H3.9375C3.78125 16.0625 3.65625 16.1875 3.65625 16.3438C3.65625 16.5 3.78125 16.625 3.9375 16.625H9.53125C9.6875 16.625 9.8125 16.5 9.8125 16.3438C9.8125 16.1875 9.65625 16.0625 9.5 16.0625Z" fill="#DD504E"/>
</g>
</g>
</svg>
