<svg width="20" height="20" viewBox="0 0 20 20" fill="none" xmlns="http://www.w3.org/2000/svg">
<path d="M17.7138 9.72754V17.2575C17.7138 17.4939 17.5331 17.6855 17.3119 17.6855H2.68689C2.46564 17.6855 2.28564 17.4939 2.28564 17.2575V9.9572L3.84939 10.5434V13.5296C3.67939 13.7158 3.57439 13.9695 3.57439 14.2493V14.8968C3.57439 15.4663 4.00814 15.929 4.54064 15.929H4.66002C5.19314 15.929 5.62564 15.4663 5.62564 14.8968V14.2493C5.62564 13.9689 5.52064 13.7132 5.35064 13.5276V11.1062L8.82752 12.408V12.7491C8.82752 13.4368 9.35127 13.9962 9.99502 13.9962C10.6381 13.9962 11.1619 13.4368 11.1619 12.7491V12.3806L14.6356 10.974V13.5276C14.4663 13.7132 14.3619 13.9689 14.3619 14.2493V14.8968C14.3619 15.4663 14.7931 15.929 15.3275 15.929H15.4456C15.9794 15.929 16.4119 15.4663 16.4119 14.8968V14.2493C16.4119 13.9695 16.3069 13.7158 16.1381 13.5296V10.3664L17.7138 9.72754Z" fill="black"/>
<path d="M20 8.80176V18.3586C20 19.2639 19.3112 20.0003 18.4644 20.0003H1.53563C0.6875 20.0003 0 19.2639 0 18.3586V9.10085L1.53563 9.67566V17.2577C1.53563 17.9353 2.0525 18.4868 2.68687 18.4868H17.3119C17.9469 18.4868 18.4644 17.9353 18.4644 17.2577V9.42397L20 8.80176Z" fill="black"/>
<path d="M20 6.22985V8.13588L11.1444 11.7196C11.05 11.1335 10.57 10.6862 9.99438 10.6862C9.40813 10.6862 8.92187 11.1481 8.83937 11.7517L0 8.44098V6.22919C0 5.32391 0.6875 4.58887 1.53563 4.58887H18.4637C19.3112 4.58953 20 5.32391 20 6.22985Z" fill="black"/>
<path d="M12.6345 0H8.01947C7.10822 0 6.36572 0.793121 6.36572 1.7665V3.87481H7.44947V1.76716C7.44947 1.43202 7.70572 1.15897 8.01885 1.15897H8.48635C8.54947 1.37327 8.73635 1.53016 8.95885 1.53016H11.6945C11.9163 1.53016 12.1045 1.37394 12.167 1.15897H12.6345C12.9482 1.15897 13.2038 1.43202 13.2038 1.76716V3.87548H14.287V1.76716C14.287 0.793121 13.5457 0 12.6345 0Z" fill="black"/>
<path d="M4.93382 13.7405V10.9479L4.26694 10.6982V13.7405C4.10319 13.842 3.99194 14.033 3.99194 14.2486V14.8962C3.99194 15.218 4.23944 15.483 4.54069 15.483H4.66007C4.96194 15.483 5.20882 15.2186 5.20882 14.8962V14.2486C5.20882 14.0316 5.09757 13.8427 4.93382 13.7405Z" fill="black"/>
<path d="M15.7187 13.7414V10.5342L15.0525 10.8039V13.7407C14.8875 13.8415 14.7781 14.0318 14.7781 14.2481V14.8957C14.7781 15.2181 15.0256 15.4825 15.3262 15.4825H15.4456C15.7468 15.4825 15.9943 15.2181 15.9943 14.8957V14.2481C15.9943 14.0331 15.8831 13.8442 15.7187 13.7414Z" fill="black"/>
<path d="M9.99428 13.55C9.58115 13.55 9.24365 13.1888 9.24365 12.7482V11.9317C9.24365 11.4911 9.58178 11.1299 9.99428 11.1299C10.4074 11.1299 10.7443 11.4911 10.7443 11.9317V12.7482C10.7443 13.1888 10.4074 13.55 9.99428 13.55Z" fill="black"/>
</svg>
