<svg width="21" height="20" viewBox="0 0 21 20" fill="none" xmlns="http://www.w3.org/2000/svg">
<g id="Group 1171275625">
<path id="Vector" d="M19.04 0.771484H2.6114C2.13803 0.77224 1.68426 0.96062 1.34954 1.29534C1.01482 1.63007 0.826439 2.08383 0.825684 2.5572V4.80363H20.8257V2.5572C20.8249 2.08383 20.6365 1.63007 20.3018 1.29534C19.9671 0.96062 19.5133 0.77224 19.04 0.771484ZM3.87568 4.38934C3.54606 4.38934 3.22993 4.2584 2.99685 4.02532C2.76377 3.79224 2.63283 3.47611 2.63283 3.14648C2.63283 2.81686 2.76377 2.50073 2.99685 2.26765C3.22993 2.03457 3.54606 1.90363 3.87568 1.90363C4.20531 1.90363 4.52144 2.03457 4.75452 2.26765C4.9876 2.50073 5.11854 2.81686 5.11854 3.14648C5.11854 3.47611 4.9876 3.79224 4.75452 4.02532C4.52144 4.2584 4.20531 4.38934 3.87568 4.38934ZM7.42568 4.38934C7.09606 4.38934 6.77993 4.2584 6.54685 4.02532C6.31377 3.79224 6.18283 3.47611 6.18283 3.14648C6.18283 2.81686 6.31377 2.50073 6.54685 2.26765C6.77993 2.03457 7.09606 1.90363 7.42568 1.90363C7.75531 1.90363 8.07144 2.03457 8.30452 2.26765C8.5376 2.50073 8.66854 2.81686 8.66854 3.14648C8.66854 3.47611 8.5376 3.79224 8.30452 4.02532C8.07144 4.2584 7.75531 4.38934 7.42568 4.38934ZM10.9721 4.38934C10.6425 4.38934 10.3264 4.2584 10.0933 4.02532C9.8602 3.79224 9.72926 3.47611 9.72926 3.14648C9.72926 2.81686 9.8602 2.50073 10.0933 2.26765C10.3264 2.03457 10.6425 1.90363 10.9721 1.90363C11.3017 1.90363 11.6179 2.03457 11.8509 2.26765C12.084 2.50073 12.215 2.81686 12.215 3.14648C12.215 3.47611 12.084 3.79224 11.8509 4.02532C11.6179 4.2584 11.3017 4.38934 10.9721 4.38934ZM0.825684 5.51791V17.4429C0.826439 17.9163 1.01482 18.37 1.34954 18.7048C1.68426 19.0395 2.13803 19.2279 2.6114 19.2286H19.04C19.5133 19.2279 19.9671 19.0395 20.3018 18.7048C20.6365 18.37 20.8249 17.9163 20.8257 17.4429V5.51791H0.825684ZM18.2757 14.6893C18.2752 15.2575 18.0493 15.8023 17.6475 16.204C17.2458 16.6058 16.701 16.8317 16.1328 16.8322H5.51854C4.95036 16.8317 4.4056 16.6058 4.00383 16.204C3.60207 15.8023 3.37616 15.2575 3.37568 14.6893V9.33934C3.37672 8.77134 3.60282 8.2269 4.00446 7.82526C4.4061 7.42362 4.95054 7.19752 5.51854 7.19648H16.1328C16.7008 7.19752 17.2453 7.42362 17.6469 7.82526C18.0485 8.2269 18.2746 8.77134 18.2757 9.33934V14.6893Z" fill="#7243D5"/>
<path id="Vector_2" d="M3.87569 2.61719C3.73551 2.61719 3.60106 2.67288 3.50194 2.772C3.40281 2.87113 3.34712 3.00557 3.34712 3.14576C3.34712 3.28594 3.40281 3.42039 3.50194 3.51952C3.60106 3.61864 3.73551 3.67433 3.87569 3.67433C4.01588 3.67433 4.15032 3.61864 4.24945 3.51952C4.34858 3.42039 4.40427 3.28594 4.40427 3.14576C4.40427 3.00557 4.34858 2.87113 4.24945 2.772C4.15032 2.67288 4.01588 2.61719 3.87569 2.61719ZM7.42569 2.61719C7.28551 2.61719 7.15106 2.67288 7.05194 2.772C6.95281 2.87113 6.89712 3.00557 6.89712 3.14576C6.89712 3.28594 6.95281 3.42039 7.05194 3.51952C7.15106 3.61864 7.28551 3.67433 7.42569 3.67433C7.56588 3.67433 7.70032 3.61864 7.79945 3.51952C7.89858 3.42039 7.95426 3.28594 7.95426 3.14576C7.95426 3.00557 7.89858 2.87113 7.79945 2.772C7.70032 2.67288 7.56588 2.61719 7.42569 2.61719ZM10.9721 2.61719C10.8319 2.61719 10.6975 2.67288 10.5984 2.772C10.4992 2.87113 10.4436 3.00557 10.4436 3.14576C10.4436 3.28594 10.4992 3.42039 10.5984 3.51952C10.6975 3.61864 10.8319 3.67433 10.9721 3.67433C11.1123 3.67433 11.2468 3.61864 11.3459 3.51952C11.445 3.42039 11.5007 3.28594 11.5007 3.14576C11.5007 3.00557 11.445 2.87113 11.3459 2.772C11.2468 2.67288 11.1123 2.61719 10.9721 2.61719ZM16.1328 7.91004H5.51855C5.13981 7.91052 4.77673 8.06118 4.50892 8.32899C4.24111 8.59679 4.09045 8.95988 4.08998 9.33862V14.6886C4.08993 14.8762 4.12685 15.062 4.19863 15.2354C4.2704 15.4087 4.37563 15.5662 4.50829 15.6989C4.64096 15.8315 4.79846 15.9368 4.9718 16.0085C5.14515 16.0803 5.33093 16.1172 5.51855 16.1172H16.1328C16.3205 16.1172 16.5062 16.0803 16.6796 16.0085C16.8529 15.9368 17.0104 15.8315 17.1431 15.6989C17.2758 15.5662 17.381 15.4087 17.4528 15.2354C17.5245 15.062 17.5615 14.8762 17.5614 14.6886V9.33862C17.5609 8.95988 17.4103 8.59679 17.1425 8.32899C16.8747 8.06118 16.5116 7.91052 16.1328 7.91004ZM16.2578 9.43862L11.8293 12.76C11.5391 12.9757 11.1872 13.0922 10.8257 13.0922C10.4642 13.0922 10.1123 12.9757 9.82212 12.76L5.39355 9.43862C5.35603 9.41048 5.32442 9.37522 5.30052 9.33486C5.27663 9.29451 5.26092 9.24984 5.25428 9.20341C5.24765 9.15698 5.25023 9.1097 5.26187 9.06427C5.27351 9.01883 5.29398 8.97614 5.32212 8.93862C5.35026 8.9011 5.38552 8.86949 5.42587 8.84559C5.46623 8.82169 5.5109 8.80598 5.55733 8.79935C5.60376 8.79272 5.65104 8.79529 5.69647 8.80693C5.74191 8.81857 5.7846 8.83905 5.82212 8.86719L10.2507 12.1886C10.4163 12.3138 10.6181 12.3815 10.8257 12.3815C11.0332 12.3815 11.2351 12.3138 11.4007 12.1886L15.8293 8.86719C15.905 8.81036 16.0003 8.78595 16.0941 8.79935C16.1878 8.81274 16.2724 8.86284 16.3293 8.93862C16.3861 9.01439 16.4105 9.10964 16.3971 9.20341C16.3837 9.29718 16.3336 9.38178 16.2578 9.43862Z" fill="#7243D5"/>
</g>
</svg>
