<svg width="21" height="20" viewBox="0 0 21 20" fill="none" xmlns="http://www.w3.org/2000/svg">
<g id="Group 1171275626">
<path id="Vector" d="M16.0834 0H5.56799C5.01936 0 4.57294 0.446432 4.57294 0.995052V7.05495H17.0784V0.995052C17.0784 0.446432 16.632 0 16.0834 0ZM8.59643 4.73475C8.68227 4.82047 8.68227 4.95975 8.59643 5.04547C8.55357 5.08846 8.49725 5.1099 8.44107 5.1099C8.38489 5.1099 8.32857 5.08846 8.28572 5.04547L7.26374 4.02349C7.1779 3.93777 7.1779 3.79849 7.26374 3.71277L8.28572 2.69079C8.37144 2.60495 8.51072 2.60495 8.59644 2.69079C8.68228 2.77651 8.68228 2.91579 8.59644 3.00151L7.72995 3.86813L8.59643 4.73475ZM12.003 3.00151L9.95906 5.04547C9.9162 5.08846 9.85988 5.1099 9.8037 5.1099C9.74739 5.1099 9.6912 5.08846 9.64835 5.04547C9.56251 4.95975 9.56251 4.82047 9.64835 4.73475L11.6923 2.69079C11.7782 2.60495 11.9173 2.60495 12.003 2.69079C12.0889 2.77651 12.0889 2.91579 12.003 3.00151ZM14.3876 4.02349L13.3657 5.04547C13.3228 5.08846 13.2665 5.1099 13.2103 5.1099C13.154 5.1099 13.0978 5.08846 13.055 5.04547C12.9691 4.95975 12.9691 4.82047 13.055 4.73475L13.9214 3.86813L13.055 3.00151C12.9691 2.91579 12.9691 2.77651 13.055 2.69079C13.1407 2.60495 13.28 2.60495 13.3657 2.69079L14.3876 3.71277C14.4289 3.75398 14.4521 3.80988 14.4521 3.86813C14.4521 3.92637 14.4288 3.98228 14.3876 4.02349ZM18.4345 7.4945C18.3562 8.39217 17.6005 9.09891 16.6828 9.09891H4.96854C4.05081 9.09891 3.29519 8.39217 3.21702 7.4945H18.4345ZM0.825684 13.6264V17.956H5.15536V13.6264H0.825684ZM4.16786 15.2652L2.80522 16.6279C2.764 16.6691 2.70811 16.6923 2.64986 16.6923C2.59162 16.6923 2.53571 16.6691 2.49451 16.6279L1.8132 15.9466C1.72735 15.8609 1.72735 15.7216 1.8132 15.6359C1.89891 15.55 2.0382 15.55 2.12391 15.6359L2.64988 16.1617L3.85715 14.9545C3.943 14.8687 4.08215 14.8687 4.16787 14.9545C4.2537 15.0402 4.2537 15.1795 4.16786 15.2652ZM8.66085 15.6703V20H12.9905V15.6703H8.66085ZM12.003 17.3092L10.6404 18.6718C10.5975 18.7148 10.5412 18.7363 10.485 18.7363C10.4288 18.7363 10.3725 18.7148 10.3297 18.6718L9.64835 17.9905C9.56251 17.9048 9.56251 17.7655 9.64835 17.6798C9.7342 17.594 9.87335 17.594 9.95907 17.6798L10.485 18.2056L11.6923 16.9985C11.778 16.9126 11.9173 16.9126 12.003 16.9985C12.0889 17.0842 12.0889 17.2235 12.003 17.3092ZM16.496 13.6264V17.956H20.8257V13.6264H16.496ZM19.8382 15.2652L18.4755 16.6279C18.4343 16.6691 18.3784 16.6923 18.3202 16.6923C18.2619 16.6923 18.206 16.6691 18.1648 16.6279L17.4835 15.9466C17.3977 15.8609 17.3977 15.7216 17.4835 15.6359C17.5694 15.55 17.7085 15.55 17.7942 15.6359L18.3202 16.1617L19.5275 14.9545C19.6132 14.8687 19.7525 14.8687 19.8382 14.9545C19.924 15.0402 19.924 15.1795 19.8382 15.2652Z" fill="#E6A55B"/>
<g id="Group">
<path id="Vector_2" d="M18.8806 11.3632V13.1874H18.4411V11.583H11.0455V15.2314H10.6059V11.583H3.21031V13.1874H2.77075V11.3632C2.77075 11.2418 2.8691 11.1435 2.99053 11.1435H10.6059V9.53906H11.0455V11.1435H18.6609C18.7823 11.1434 18.8806 11.2418 18.8806 11.3632Z" fill="#E6A55B"/>
</g>
</g>
</svg>
