<svg width="26" height="20" viewBox="0 0 26 20" fill="none" xmlns="http://www.w3.org/2000/svg">
<g id="Group 1171275627">
<path id="Vector" d="M0.825684 5.21212V10.4452C0.825909 11.1364 1.1 11.7993 1.58796 12.2889C2.07591 12.7785 2.73797 13.0548 3.42918 13.0573H7.76835V2.59994H3.42918C2.73797 2.60246 2.07591 2.87876 1.58796 3.36834C1.1 3.85792 0.825909 4.5209 0.825684 5.21212ZM17.0368 0.447713C16.6856 0.208903 16.281 0.0602334 15.8587 0.0148278C15.4365 -0.0305779 15.0095 0.0286774 14.6156 0.187363L9.50402 2.22677V13.4739L14.6156 15.5133C14.9224 15.6337 15.2492 15.6956 15.5789 15.6955C15.9211 15.6967 16.2601 15.6301 16.5765 15.4997C16.8929 15.3693 17.1804 15.1775 17.4224 14.9356C17.6643 14.6936 17.8561 14.4061 17.9865 14.0897C18.1169 13.7733 18.1835 13.4343 18.1824 13.092V2.59994C18.1823 2.17481 18.0779 1.75619 17.8781 1.38091C17.6784 1.00562 17.3895 0.685162 17.0368 0.447713ZM2.56135 17.3965C2.56135 18.087 2.83565 18.7492 3.3239 19.2375C3.81215 19.7257 4.47436 20 5.16485 20C5.85534 20 6.51755 19.7257 7.0058 19.2375C7.49406 18.7492 7.76835 18.087 7.76835 17.3965V14.7496H2.56135V17.3965ZM24.2572 6.98076H21.6537C21.4235 6.98076 21.2028 7.0722 21.04 7.23495C20.8773 7.3977 20.7859 7.61843 20.7859 7.8486C20.7859 8.07876 20.8773 8.2995 21.04 8.46225C21.2028 8.625 21.4235 8.71643 21.6537 8.71643H24.2572C24.4874 8.71643 24.7081 8.625 24.8708 8.46225C25.0336 8.2995 25.125 8.07876 25.125 7.8486C25.125 7.61843 25.0336 7.3977 24.8708 7.23495C24.7081 7.0722 24.4874 6.98076 24.2572 6.98076ZM21.6537 2.6416C21.7881 2.64161 21.9207 2.6101 22.0407 2.54961L23.7764 1.68177C23.8793 1.63137 23.9711 1.56111 24.0467 1.47505C24.1222 1.38898 24.18 1.2888 24.2167 1.18029C24.2534 1.07179 24.2682 0.957096 24.2603 0.842832C24.2524 0.728568 24.222 0.616993 24.1708 0.514538C24.1196 0.412084 24.0487 0.320777 23.962 0.245883C23.8754 0.170989 23.7747 0.113989 23.6659 0.0781697C23.5572 0.04235 23.4424 0.0284194 23.3282 0.0371808C23.214 0.0459423 23.1026 0.0772223 23.0006 0.129218L21.2649 0.997051C21.0897 1.08436 20.9492 1.22833 20.8661 1.40558C20.7831 1.58283 20.7624 1.78294 20.8075 1.97343C20.8525 2.16391 20.9606 2.33358 21.1142 2.45488C21.2678 2.57617 21.458 2.64198 21.6537 2.6416ZM23.7773 14.0146L22.0416 13.1467C21.9396 13.0947 21.8282 13.0634 21.714 13.0547C21.5998 13.0459 21.485 13.0599 21.3762 13.0957C21.2674 13.1315 21.1668 13.1885 21.0802 13.2634C20.9935 13.3383 20.9225 13.4296 20.8713 13.532C20.8201 13.6345 20.7897 13.7461 20.7819 13.8603C20.774 13.9746 20.7888 14.0893 20.8255 14.1978C20.8621 14.3063 20.9199 14.4065 20.9955 14.4925C21.0711 14.5786 21.1629 14.6489 21.2658 14.6993L23.0014 15.5671C23.1215 15.6276 23.2541 15.6591 23.3885 15.6591C23.5842 15.6595 23.7743 15.5937 23.928 15.4724C24.0816 15.3511 24.1897 15.1814 24.2347 14.9909C24.2798 14.8004 24.2591 14.6003 24.176 14.4231C24.093 14.2458 23.9525 14.1019 23.7773 14.0146Z" fill="#DD504E"/>
</g>
</svg>
