<svg xmlns="http://www.w3.org/2000/svg" enable-background="new 0 0 512 512" viewBox="0 0 512 512" id="mydocumentsfolder"><polygon fill="#23221f" points="440 216 440 160 408 160 408 149.97 313.853 57 104 57 104 136 72 136 72 216 26.725 216 76.325 464 435.676 464 485.275 216" class="color231f20 svgShape"></polygon><polygon fill="#eab50e" points="416 240 96 240 96 160 232 160 256 184 416 184" class="coloreaaa0e svgShape"></polygon><rect width="136" height="8" x="96" y="160" fill="#ffde76" class="colorffd576 svgShape"></rect><rect width="160" height="8" x="256" y="184" fill="#ffde76" class="colorffd576 svgShape"></rect><polygon fill="#ffde76" points="232 168 256 192 256 184 232 160" class="colorffd576 svgShape"></polygon><polygon fill="#ffce32" points="456 240 56 240 96 440 416 440" class="colorf0c23b svgShape"></polygon><polygon fill="#ffde76" points="57.6 248 454.4 248 456 240 56 240" class="colorffd576 svgShape"></polygon><polygon fill="#ffde76" points="91.2 416 420.8 416 422.4 408 89.6 408" class="colorffd576 svgShape"></polygon><polygon fill="#d1a20d" points="88 400.002 89.6 408 422.4 408 424 400 424 400 88 400" class="colord1940d svgShape"></polygon><polygon fill="#ffffff" points="384 240 128 240 128 81 304 81 384 160" class="colorffffff svgShape"></polygon><polygon fill="#71706d" points="304 80 304 160 384 160" class="color6d6e71 svgShape"></polygon><polygon fill="#e8e8e6" points="384 240 384 160 304 160" class="colore6e7e8 svgShape"></polygon><rect width="32" height="8" x="384" y="232" fill="#bc920c" class="colorbc810c svgShape"></rect><rect width="32" height="8" x="384" y="224" fill="#d3a513" class="colord39313 svgShape"></rect><rect width="32" height="8" x="384" y="216" fill="#e0af12" class="colore0a112 svgShape"></rect><rect width="32" height="8" x="96" y="232" fill="#bc920c" class="colorbc810c svgShape"></rect><rect width="32" height="8" x="96" y="224" fill="#d3a513" class="colord39313 svgShape"></rect><rect width="32" height="8" x="96" y="216" fill="#e0af12" class="colore0a112 svgShape"></rect><rect width="256" height="8" x="128" y="232" fill="#e8e8e6" class="colore6e7e8 svgShape"></rect><g fill="#000000" class="color000000 svgShape"><rect width="96" height="16" x="176" y="144" fill="#9e9d9a" class="color9a9b9e svgShape"></rect></g><g fill="#000000" class="color000000 svgShape"><rect width="160" height="16" x="176" y="192" fill="#9e9d9a" class="color9a9b9e svgShape"></rect></g></svg>