<svg width="17" height="20" viewBox="0 0 17 20" fill="none" xmlns="http://www.w3.org/2000/svg">
<g id="Group 1171275624">
<path id="Vector" d="M9.71453 0V0.718567C9.71374 0.797887 9.68604 0.874588 9.63596 0.936108C9.58588 0.997628 9.5164 1.04032 9.43889 1.05719C9.00421 1.15638 8.58934 1.3281 8.21171 1.56513C8.14863 1.60091 8.07596 1.61609 8.00384 1.60856C7.93172 1.60103 7.86375 1.57117 7.80942 1.52314L7.28048 1.0152L6.43392 1.86177L6.94186 2.39071C6.99456 2.44673 7.02731 2.51858 7.03502 2.59511C7.04274 2.67164 7.02498 2.74858 6.98452 2.81399C6.74777 3.1842 6.57598 3.59213 6.47658 4.02018C6.45971 4.09769 6.41702 4.16717 6.3555 4.21725C6.29398 4.26733 6.21728 4.29503 6.13795 4.29582H5.41803V5.07873C5.41826 5.08595 5.41826 5.09318 5.41803 5.1004H15.2382C15.238 5.0934 15.238 5.0864 15.2382 5.07941V4.2965H14.5183C14.439 4.29571 14.3623 4.268 14.3008 4.21793C14.2392 4.16785 14.1965 4.09837 14.1797 4.02086C14.0805 3.58618 13.9088 3.17131 13.6717 2.79367C13.636 2.73053 13.621 2.65782 13.6286 2.58569C13.6363 2.51357 13.6663 2.44564 13.7144 2.39138L14.2223 1.86245L13.3758 1.01588L12.8468 1.52382C12.7907 1.57642 12.7188 1.60904 12.6423 1.61663C12.5658 1.62423 12.4889 1.60636 12.4236 1.56581C12.0531 1.32899 11.645 1.1572 11.2167 1.05787C11.1393 1.04086 11.07 0.998114 11.02 0.936606C10.9701 0.875099 10.9425 0.798471 10.9417 0.719244V0.000677286L9.71453 0ZM10.3281 2.20108C11.8201 2.20108 13.0371 3.4181 13.0371 4.91009C13.0371 4.96834 13.0195 5.02184 13.0161 5.07941H12.3389C12.3436 5.02252 12.3599 4.96834 12.3599 4.91009C12.3599 3.78382 11.4544 2.87833 10.3281 2.87833C9.20185 2.87833 8.29636 3.78382 8.29636 4.91009C8.29636 4.96834 8.31262 5.02252 8.31736 5.07941H7.6401C7.63672 5.02184 7.61911 4.96834 7.61911 4.91009C7.61911 3.4181 8.83614 2.20108 10.3281 2.20108ZM0 3.06864V3.74589H2.34939L4.69811 13.6297C4.7083 13.6598 4.72267 13.6883 4.74078 13.7144V13.7354C4.74687 13.7503 4.73265 13.7645 4.74078 13.7781L5.33338 16.3381L5.35031 16.336V16.3428H14.8996V15.6656H5.87721L5.46002 13.9047L5.29071 13.2275H14.561L14.9842 11.8729H10.8361V11.1957H15.1746L15.5978 9.84118H9.48156V9.16393H15.7888L16.2121 7.80942H8.12705V7.13216H16.4234L16.8257 5.77766H3.53459L3.36528 5.1004L2.94199 3.32261C2.8851 3.11266 2.79367 3.06864 2.49704 3.06864H0.423961H0ZM5.90498 16.9104C5.70204 16.9099 5.50102 16.9495 5.31343 17.027C5.12585 17.1044 4.9554 17.2181 4.81187 17.3616C4.66834 17.5051 4.55456 17.6755 4.47704 17.863C4.39952 18.0506 4.35981 18.2516 4.36016 18.4545C4.35963 18.6574 4.39917 18.8585 4.47652 19.0461C4.55387 19.2337 4.66751 19.4042 4.81091 19.5478C4.95432 19.6914 5.12467 19.8053 5.31218 19.8829C5.4997 19.9605 5.70069 20.0003 5.90363 20C6.10673 20.0006 6.30796 19.9611 6.49575 19.8837C6.68353 19.8063 6.85417 19.6926 6.99785 19.549C7.14153 19.4054 7.25542 19.2349 7.33298 19.0472C7.41055 18.8595 7.45024 18.6583 7.4498 18.4552C7.45033 18.2521 7.41074 18.051 7.33331 17.8633C7.25587 17.6756 7.14211 17.505 6.99857 17.3614C6.85502 17.2178 6.68451 17.1039 6.49684 17.0264C6.30917 16.9489 6.10803 16.9099 5.90498 16.9104ZM13.3548 16.9104C13.1518 16.9098 12.9507 16.9494 12.763 17.0268C12.5754 17.1042 12.4048 17.2179 12.2612 17.3614C12.1176 17.5048 12.0038 17.6753 11.9262 17.8628C11.8487 18.0504 11.8089 18.2515 11.8093 18.4545C11.8087 18.6577 11.8484 18.8589 11.9259 19.0467C12.0034 19.2345 12.1173 19.4051 12.261 19.5488C12.4047 19.6924 12.5753 19.8062 12.7632 19.8836C12.951 19.9611 13.1523 20.0006 13.3555 20C13.5584 20.0003 13.7594 19.9606 13.9469 19.8831C14.1345 19.8056 14.3049 19.6918 14.4484 19.5483C14.5918 19.4048 14.7055 19.2343 14.783 19.0467C14.8604 18.8591 14.9 18.6581 14.8996 18.4552C14.9001 18.2521 14.8605 18.051 14.7831 17.8633C14.7057 17.6756 14.5919 17.505 14.4484 17.3614C14.3048 17.2178 14.1343 17.1039 13.9466 17.0264C13.759 16.9489 13.5578 16.9099 13.3548 16.9104ZM5.90498 17.4183C6.46168 17.4183 6.92086 17.8768 6.92086 18.4342C6.92086 18.9909 6.46168 19.4501 5.90498 19.4501C5.3476 19.4501 4.8891 18.9909 4.8891 18.4342C4.8891 17.8768 5.3476 17.4183 5.90498 17.4183ZM13.3548 17.4183C13.9115 17.4183 14.3707 17.8768 14.3707 18.4342C14.3707 18.9909 13.9115 19.4501 13.3548 19.4501C12.7974 19.4501 12.3389 18.9909 12.3389 18.4342C12.3389 17.8768 12.7974 17.4183 13.3548 17.4183ZM5.90498 18.0956C5.71399 18.0956 5.56635 18.2425 5.56635 18.4342C5.56635 18.6252 5.71399 18.7728 5.90498 18.7728C6.09596 18.7728 6.24361 18.6252 6.24361 18.4342C6.24361 18.2425 6.09596 18.0956 5.90498 18.0956ZM13.3548 18.0956C13.1638 18.0956 13.0161 18.2425 13.0161 18.4342C13.0161 18.6252 13.1638 18.7728 13.3548 18.7728C13.5458 18.7728 13.6934 18.6252 13.6934 18.4342C13.6934 18.2425 13.5458 18.0956 13.3548 18.0956Z" fill="#CC63D4"/>
</g>
</svg>
