<svg width="22" height="20" viewBox="0 0 22 20" fill="none" xmlns="http://www.w3.org/2000/svg">
<g id="Group 1171275628">
<path id="Vector" d="M5.93809 15.6069C5.98587 15.6512 6.02382 15.7051 6.0495 15.765C6.07517 15.8249 6.088 15.8895 6.08714 15.9547C6.08835 16.0198 6.07476 16.0844 6.04739 16.1435C6.02644 16.2056 5.98859 16.2607 5.93809 16.3025C5.89325 16.3496 5.83931 16.3871 5.77952 16.4128C5.71973 16.4384 5.65535 16.4517 5.5903 16.4517C5.52524 16.4517 5.46086 16.4384 5.40107 16.4128C5.34129 16.3871 5.28734 16.3496 5.2425 16.3025C5.192 16.2607 5.15415 16.2056 5.1332 16.1435C5.10583 16.0844 5.09224 16.0198 5.09345 15.9547C5.09123 15.8895 5.10487 15.8247 5.1332 15.7659C5.18643 15.6464 5.282 15.5508 5.40149 15.4976C5.52246 15.4479 5.65813 15.4479 5.7791 15.4976C5.84122 15.5185 5.89628 15.5564 5.93809 15.6069ZM18.9157 13.7586C19.3047 14.0827 19.6176 14.4883 19.8322 14.9469C20.0469 15.4054 20.158 15.9055 20.1578 16.4118C20.1305 17.3702 19.7315 18.2804 19.0453 18.95C18.3591 19.6196 17.4394 19.9961 16.4807 20C15.5219 20.0038 14.5992 19.6347 13.9076 18.9707C13.216 18.3067 12.8098 17.3997 12.7747 16.4416V16.4317L11.0556 14.9511V16.9484C11.0556 17.3437 10.8986 17.7228 10.619 18.0023C10.3395 18.2819 9.96037 18.4389 9.56506 18.4389H1.61554C1.22022 18.4389 0.841097 18.2819 0.561568 18.0023C0.282038 17.7228 0.125 17.3437 0.125 16.9484V3.03671C0.125 2.64139 0.282038 2.26227 0.561568 1.98274C0.841097 1.70321 1.22022 1.54617 1.61554 1.54617H9.56506C9.96037 1.54617 10.3395 1.70321 10.619 1.98274C10.8986 2.26227 11.0556 2.64139 11.0556 3.03671V6.05753L13.2616 4.61668C13.1339 4.2562 13.07 3.87622 13.0728 3.49381C13.0732 2.80215 13.2787 2.12615 13.6635 1.55136C14.0482 0.976571 14.5947 0.528821 15.234 0.264772C15.8733 0.000722884 16.5765 -0.0677563 17.2547 0.0679998C17.9329 0.203756 18.5556 0.537646 19.044 1.02742C19.5324 1.51719 19.8645 2.14083 19.9983 2.81941C20.1322 3.498 20.0617 4.20104 19.7958 4.83955C19.5299 5.47807 19.0806 6.02337 18.5048 6.40645C17.9289 6.78953 17.2523 6.99317 16.5606 6.9916C15.8062 6.98465 15.0729 6.74138 14.4639 6.29601L14.3348 6.31589H14.3248L11.0556 6.77298V9.44601L12.3375 9.01872C12.4168 8.47428 12.6245 7.95654 12.9436 7.50831L14.2453 7.32945C14.4089 7.42862 14.5781 7.51821 14.7521 7.59775L14.7322 7.61762C14.6824 7.66081 14.6424 7.71422 14.615 7.77423C14.5875 7.83424 14.5734 7.89944 14.5734 7.96541C14.5734 8.03139 14.5875 8.09659 14.615 8.1566C14.6424 8.2166 14.6824 8.27001 14.7322 8.3132C14.7682 8.36539 14.8207 8.40391 14.8813 8.42251C14.9401 8.45083 15.0049 8.46447 15.0701 8.46226C15.1352 8.46347 15.1998 8.44988 15.2589 8.42251C15.3228 8.39932 15.3805 8.36194 15.4278 8.3132C15.5178 8.21986 15.5677 8.09505 15.5669 7.96541C15.5681 7.93199 15.5648 7.89857 15.557 7.86604C15.8857 7.94485 16.2226 7.98487 16.5606 7.98528C17.5988 7.98109 18.6046 7.62363 19.4125 6.97172C19.4978 6.91285 19.5747 6.84265 19.6411 6.76305C20.0666 7.07492 20.4138 7.48144 20.6552 7.95052C20.8966 8.41959 21.0257 8.93836 21.0322 9.46588C20.982 10.3488 20.6314 11.1879 20.0385 11.8441C19.4457 12.5002 18.6462 12.9338 17.7729 13.073C17.4121 13.1617 17.0415 13.2051 16.6699 13.2022C16.2298 13.2034 15.7917 13.1431 15.3682 13.0233H15.3583C14.8087 12.8884 14.2916 12.6448 13.8377 12.3069C13.3837 11.969 13.002 11.5436 12.7151 11.0558L11.0556 10.6384V13.8182L13.5696 14.2455C13.7419 14.0253 13.9386 13.8253 14.1559 13.6493C14.4598 13.79 14.7757 13.9031 15.0999 13.9872L15.1794 14.007C15.6659 14.1345 16.167 14.198 16.6699 14.1958C17.1117 14.2017 17.5524 14.1516 17.9816 14.0468C18.3007 13.9778 18.6132 13.8814 18.9157 13.7586ZM16.1731 10.9465C16.1714 11.0114 16.1827 11.0759 16.2064 11.1363C16.2302 11.1967 16.2658 11.2518 16.3112 11.2981C16.3567 11.3445 16.4109 11.3812 16.4709 11.4062C16.5308 11.4311 16.5951 11.4437 16.66 11.4433C16.7918 11.4433 16.9181 11.391 17.0113 11.2978C17.1045 11.2046 17.1568 11.0783 17.1568 10.9465V9.66462C17.1568 9.43607 17.5643 9.43607 17.5643 9.66462V10.9465C17.5643 11.0783 17.6166 11.2046 17.7098 11.2978C17.803 11.391 17.9293 11.4433 18.0611 11.4433C18.1929 11.4433 18.3193 11.391 18.4124 11.2978C18.5056 11.2046 18.558 11.0783 18.558 10.9465V9.66462C18.558 9.34837 18.4323 9.04507 18.2087 8.82145C17.9851 8.59782 17.6818 8.47219 17.3655 8.47219C17.0493 8.47219 16.746 8.59782 16.5224 8.82145C16.2987 9.04507 16.1731 9.34837 16.1731 9.66462V10.9465ZM14.5733 10.9465C14.5733 11.0783 14.6256 11.2046 14.7188 11.2978C14.812 11.391 14.9383 11.4433 15.0701 11.4433C15.1358 11.4448 15.201 11.433 15.262 11.4086C15.3229 11.3841 15.3783 11.3476 15.4247 11.3011C15.4712 11.2547 15.5077 11.1993 15.5322 11.1384C15.5566 11.0774 15.5684 11.0121 15.5669 10.9465V9.37645C15.5669 9.24468 15.5146 9.11831 15.4214 9.02513C15.3282 8.93195 15.2019 8.87961 15.0701 8.87961C14.939 8.88166 14.8138 8.93466 14.721 9.0274C14.6283 9.12013 14.5753 9.24532 14.5733 9.37645V10.9465ZM15.5669 4.98434C15.5669 5.11611 15.6193 5.24249 15.7125 5.33566C15.8056 5.42884 15.932 5.48119 16.0638 5.48119C16.1294 5.48268 16.1947 5.47085 16.2557 5.44641C16.3166 5.42197 16.372 5.38543 16.4184 5.33899C16.4649 5.29255 16.5014 5.23719 16.5259 5.17623C16.5503 5.11527 16.5621 5.05 16.5606 4.98434V3.99065H17.0575C17.1893 3.99065 17.3156 3.93831 17.4088 3.84513C17.502 3.75195 17.5543 3.62558 17.5543 3.49381C17.5543 3.36204 17.502 3.23566 17.4088 3.14248C17.3156 3.04931 17.1893 2.99696 17.0575 2.99696H16.5606V2.79822C16.5606 2.75908 16.5683 2.72031 16.5833 2.68414C16.5983 2.64797 16.6203 2.61511 16.6479 2.58743C16.6756 2.55975 16.7085 2.53779 16.7447 2.52281C16.7808 2.50783 16.8196 2.50012 16.8587 2.50012H17.3953C17.5271 2.50012 17.6535 2.44777 17.7467 2.35459C17.8398 2.26142 17.8922 2.13504 17.8922 2.00327C17.8922 1.8715 17.8398 1.74513 17.7467 1.65195C17.6535 1.55877 17.5271 1.50643 17.3953 1.50643H16.8587C16.5161 1.50643 16.1876 1.64253 15.9453 1.88479C15.703 2.12704 15.5669 2.45562 15.5669 2.79822V4.98434ZM10.0619 14.1014L9.40606 13.54L10.0619 13.6503V10.39L9.02846 10.1267L10.0619 9.77691V6.9121L9.66442 6.96874L10.0619 6.71336V3.03671C10.0619 2.90494 10.0096 2.77856 9.91638 2.68539C9.8232 2.59221 9.69683 2.53986 9.56506 2.53986H7.07487C7.06757 2.66555 7.01283 2.78379 6.92171 2.87067C6.83059 2.95755 6.70988 3.00659 6.58399 3.00789H4.59661C4.47071 3.00659 4.35 2.95755 4.25888 2.87067C4.16776 2.78379 4.11302 2.66555 4.10572 2.53986H1.61554C1.48376 2.53986 1.35739 2.59221 1.26421 2.68539C1.17104 2.77856 1.11869 2.90494 1.11869 3.03671V16.9484C1.11869 17.0801 1.17104 17.2065 1.26421 17.2997C1.35739 17.3929 1.48376 17.4452 1.61554 17.4452H9.56506C9.69683 17.4452 9.8232 17.3929 9.91638 17.2997C10.0096 17.2065 10.0619 17.0801 10.0619 16.9484V14.1014ZM17.8922 17.9023C17.8922 17.7705 17.8398 17.6442 17.7467 17.551C17.6535 17.4578 17.5271 17.4055 17.3953 17.4055H16.8587C16.8196 17.4055 16.7808 17.3978 16.7447 17.3828C16.7085 17.3678 16.6756 17.3458 16.6479 17.3182C16.6203 17.2905 16.5983 17.2576 16.5833 17.2214C16.5683 17.1853 16.5606 17.1465 16.5606 17.1074V16.4118H17.0575C17.1893 16.4118 17.3156 16.3594 17.4088 16.2663C17.502 16.1731 17.5543 16.0467 17.5543 15.9149C17.5543 15.7832 17.502 15.6568 17.4088 15.5636C17.3156 15.4704 17.1893 15.4181 17.0575 15.4181H16.5606V14.9312C16.5621 14.8655 16.5503 14.8002 16.5259 14.7393C16.5014 14.6783 16.4649 14.623 16.4184 14.5765C16.372 14.5301 16.3166 14.4935 16.2557 14.4691C16.1947 14.4447 16.1294 14.4328 16.0638 14.4343C15.932 14.4343 15.8056 14.4867 15.7125 14.5799C15.6193 14.673 15.5669 14.7994 15.5669 14.9312V17.1074C15.5669 17.277 15.6004 17.445 15.6653 17.6017C15.7302 17.7584 15.8253 17.9008 15.9453 18.0208C16.0653 18.1408 16.2077 18.2359 16.3644 18.3008C16.5211 18.3657 16.6891 18.3992 16.8587 18.3992H17.3953C17.5271 18.3992 17.6535 18.3468 17.7467 18.2536C17.8398 18.1605 17.8922 18.0341 17.8922 17.9023Z" fill="#5ABE86"/>
</g>
</svg>
