<svg width="21" height="20" viewBox="0 0 21 20" fill="none" xmlns="http://www.w3.org/2000/svg">
<g id="Group 1171275629">
<path id="Vector" d="M18.9822 2.82144V15.2857C18.9822 17.3071 17.3394 18.95 15.318 18.95H2.85366C3.24651 19.5786 3.9465 20 4.74649 20H17.7965C19.0251 20 20.0322 18.9928 20.0322 17.7643V4.71427C20.0322 3.91427 19.6108 3.21429 18.9822 2.82144ZM17.5537 2.23572C17.5537 1.00712 16.5537 0 15.318 0H2.26794C1.03935 0 0.0322266 1.00712 0.0322266 2.23572V4.02143H17.5537V2.23572Z" fill="#CC63D4"/>
<path id="Vector_2" d="M17.5537 15.2854V5.44971H0.0322266V15.2854C0.0322266 16.5211 1.03935 17.5211 2.26794 17.5211H15.318C16.5537 17.5211 17.5537 16.5211 17.5537 15.2854Z" fill="#CC63D4"/>
</g>
</svg>
