<svg width="16" height="16" viewBox="0 0 16 16" fill="none" xmlns="http://www.w3.org/2000/svg">
<g id="google-gemini-icon 1" clip-path="url(#clip0_654_14806)">
<path id="Vector" d="M16 8.016C13.9242 8.14339 11.9666 9.02545 10.496 10.496C9.02545 11.9666 8.14339 13.9242 8.016 16H7.984C7.85682 13.9241 6.97483 11.9664 5.5042 10.4958C4.03358 9.02518 2.07588 8.14318 0 8.016L0 7.984C2.07588 7.85682 4.03358 6.97483 5.5042 5.5042C6.97483 4.03358 7.85682 2.07588 7.984 0L8.016 0C8.14339 2.07581 9.02545 4.03339 10.496 5.50397C11.9666 6.97455 13.9242 7.85661 16 7.984V8.016Z" fill="currentColor"/>
</g>
<defs>
<clip-path id="clip0_654_14806">
<rect width="16" height="16" fill="white"/>
</clip-path>
</defs>
</svg>
