<svg width="286" height="199" viewBox="0 0 286 199" fill="none" xmlns="http://www.w3.org/2000/svg">
<path fill-rule="evenodd" clip-rule="evenodd" d="M136.416 26.5871C183.788 111.142 177.138 54.6392 217.917 67.6508C257.973 80.4303 257.866 136.22 220.562 158.543C199.492 171.148 165.471 168.386 129.061 168.242C86.2561 168.081 39.7421 135.914 39.3469 93.1105C39.1628 73.0854 59.5952 75.1807 61.0053 54.7632C63.9197 12.5369 120.91 -1.09852 136.416 26.5871Z" fill="#ACD8CE"/>
<path fill-rule="evenodd" clip-rule="evenodd" d="M138.23 17.0794C135.123 22.483 154.805 51.0866 170.733 53.1388C177.397 53.9974 183.514 51.2711 189.836 49.6913C197.349 47.812 204.727 47.3926 212.159 49.9881C220.557 52.9201 226.233 59.9304 232.125 66.1603C233.975 68.1159 237.563 72.3124 240.742 70.8687C244.029 69.3747 243.208 63.8552 242.314 61.2134C239.835 53.8892 233.297 49.7618 225.878 48.8322C211.064 46.9758 195.926 52.2573 181.672 46.0328C169.166 40.5686 161.783 29.6393 151.935 20.7986C148.792 17.9762 140.736 12.7262 138.23 17.0794Z" fill="#ACD8CE"/>
<path fill-rule="evenodd" clip-rule="evenodd" d="M35.1158 115.465C37.7294 115.962 38.4164 128.841 40.2711 132.396C49.7688 150.604 70.4032 156.963 88.5858 162.971C95.2184 165.167 110.644 170.296 107.334 180.148C103.324 192.102 81.4995 187.836 74.1394 182.676C65.3063 176.484 58.6243 169.11 52.8987 160.461C49.2074 154.893 43.8501 151.035 39.4448 146.114C31.2853 137 33.4139 115.141 35.1158 115.465Z" fill="#ACD8CE"/>
<path fill-rule="evenodd" clip-rule="evenodd" d="M245.553 71.4083C244.03 72.0885 241.735 74.7054 241.786 76.1139C241.866 78.3907 244.217 79.8548 246.253 80.1611C250.108 80.7423 255.012 74.8332 250.926 72.0354C250.375 71.6567 247.076 70.7281 245.553 71.4083Z" fill="#ACD8CE"/>
<path fill-rule="evenodd" clip-rule="evenodd" d="M130.608 122.674C130.608 112.307 126.974 102.364 120.512 95.0334C114.045 87.7027 105.28 83.5845 96.1371 83.5845H78.5011C69.3584 83.5845 60.5933 87.7027 54.1266 95.0334C47.6645 102.364 45.8867 109.311 45.8867 119.678C45.8867 138.332 58.2628 143.555 58.2628 143.555L130.608 159.638V122.674Z" fill="#034737"/>
<path fill-rule="evenodd" clip-rule="evenodd" d="M142.904 152.528L86.1932 156.495C86.1932 156.495 85.3388 158.997 86.2167 159.415C91.4465 161.908 117.577 171.447 117.577 171.447L142.904 152.528Z" fill="#0D0D0D"/>
<path fill-rule="evenodd" clip-rule="evenodd" d="M93.7374 156.701C93.4886 156.532 93.3477 156.007 93.2444 155.748C92.836 154.664 92.6388 153.495 92.7891 152.34C92.9674 151.007 93.6904 149.758 94.3852 148.636C95.803 146.34 97.5446 144.167 99.9154 142.812C99.7135 142.825 99.2817 142.312 99.108 142.201C98.2582 141.664 97.3381 141.213 96.4368 140.776C93.4416 139.328 88.8362 137.787 85.5688 139.335C82.4844 140.792 80.569 144.852 79.9399 148.026C79.7522 148.979 79.6771 149.997 79.7616 150.974C79.785 151.213 79.8695 151.772 80.1934 151.824C80.6723 151.899 80.8225 150.434 80.8742 150.171C81.2263 148.275 81.4704 146.444 82.2919 144.669C83.1886 142.749 84.6017 141.774 86.0993 140.415C86.5875 139.974 86.9255 139.444 86.3715 138.918C85.1979 137.801 82.5642 138.035 81.0807 137.843C76.7851 137.29 71.438 137.66 67.7434 135.016C63.1615 131.736 65.0205 124.725 64.8984 120.003C64.8562 118.473 64.6403 116.881 63.8704 115.532C63.6497 115.142 63.307 114.485 62.7718 114.501C61.7624 114.532 62.631 116.44 62.7953 116.862C63.7389 119.35 65.612 121.344 66.0064 124.052C66.2927 126.016 65.4195 127.696 64.1896 129.166C63.1004 130.47 61.5277 131.508 62.4713 133.351C62.4619 133.339 62.9643 133.391 63.0441 133.395C63.4291 133.415 63.814 133.437 64.199 133.509C65.3491 133.728 66.5275 134.004 67.6542 134.332C69.1987 134.781 70.6681 135.414 72.2361 135.816C74.0858 136.292 76.0669 136.462 77.9729 136.509C82.5689 136.623 87.5405 136.915 91.9816 138.101C93.8735 138.607 95.8312 139.326 97.6104 140.15C99.4413 141 101.075 142.011 103.089 142.42C106.281 143.068 109.755 142.214 112.924 141.741C112.915 141.788 114.929 142.298 115.051 142.327C117.633 142.927 120.586 142.45 123.177 142.181C124.675 142.025 126.163 141.765 127.642 141.472C128.792 141.244 129.937 140.983 131.083 140.718C132.026 140.499 132.965 140.266 133.904 140.034C136.81 139.315 142.491 139.001 142.552 134.898C142.632 129.578 139.392 124.326 137.125 119.72C134.942 115.281 132.928 110.628 130.228 106.473C129.252 104.971 128.313 103.329 127.008 102.08C123.778 98.9869 119.107 97.9621 114.966 96.7142C111.394 95.6368 107.896 94.1191 104.286 93.1867C103.699 93.0365 103.103 93.2403 102.699 93.5041C101.357 94.3806 100.314 95.5214 99.277 96.7302C96.2583 100.244 93.3712 103.873 89.1085 105.945C87.841 106.563 85.5218 107.572 84.1838 106.674C82.6722 105.663 84.3576 104.101 85.5218 103.815C87.1274 103.419 88.7705 103.857 90.3666 104.061C91.8877 104.255 93.39 104.224 94.8969 103.934C97.0424 103.521 99.0422 102.47 100.39 100.726C101.023 99.9061 101.835 97.4133 103.141 97.4757C104.263 97.5297 105.094 98.5761 105.709 99.4024C106.868 100.954 107.943 102.506 109.511 103.686C110.028 104.072 110.812 104.68 111.497 104.653C111.863 104.638 112.356 104.379 112.328 103.949C112.272 103.133 111.206 102.975 110.6 102.791C108.657 102.205 106.544 102.313 104.629 102.941C102.643 103.589 100.84 104.656 99.0516 105.71C95.1504 108.016 91.4887 110.645 90.2164 115.207C88.7893 120.327 92.7703 125.942 92.0943 131.317C91.9628 132.364 91.5872 133.498 90.6671 134.108C89.2305 135.056 87.2447 133.939 86.963 132.329C86.5124 129.758 88.8315 127.425 89.9441 125.317C91.8877 121.635 93.0895 117.354 91.8548 113.218C91.1272 110.787 89.1977 109.357 86.8645 108.611C84.658 107.904 81.907 107.468 81.461 104.695C81.0995 102.431 82.2919 100.081 81.5596 97.8508C80.6488 95.0655 77.9025 93.251 76.8086 90.4657C76.311 89.2005 76.1608 87.9508 76.0434 86.6105C76.0106 86.2556 76.0012 85.4543 75.4895 85.4359C74.4426 85.3984 73.5835 88.0264 73.3018 88.7114C72.2079 91.3976 71.4192 94.4163 70.8136 97.2523C70.593 98.2677 70.3348 99.8549 71.0672 100.744C71.6775 101.48 72.7384 100.938 73.344 100.482C75.0388 99.209 75.9026 97.0818 77.7757 95.9899C79.0949 95.219 81.3061 96.5377 80.1794 98.0546C79.4658 99.0137 77.4987 98.2222 76.5035 98.6428C74.5599 99.4653 72.6398 103.789 70.1846 101.012C69.9123 100.703 69.7104 100.326 69.5836 99.9352C68.9546 98.0236 69.8982 96.379 70.3911 94.5834C70.4991 94.1848 70.9545 92.9055 70.4099 92.6225C69.5179 92.1614 67.349 93.5595 66.612 93.9031C62.8281 95.665 58.6453 97.2053 55.4154 99.8972C51.1949 103.415 48.4815 108.568 48.2937 114.075C48.2092 116.553 48.012 120.344 47.5613 122.799C46.3736 129.287 41.8245 132.99 42.1766 139.936C42.4442 145.331 46.0825 150.368 50.9555 152.603C56.8425 155.307 63.9924 155.687 70.3583 156.166C72.4802 156.326 74.6022 156.476 76.7195 156.683C80.785 157.082 89.6578 157.002 93.7374 156.701Z" fill="white"/>
<path fill-rule="evenodd" clip-rule="evenodd" d="M103.535 143.341C97.6102 142.498 93.4133 150.448 93.5635 153.382C93.8311 158.485 98.2439 154.241 100.507 158.119C101.422 159.692 101.169 162.682 103.535 162.668C105.075 162.654 105.952 161.354 106.013 159.936C106.056 158.978 105.718 158.039 105.478 157.124C105.056 155.5 104.333 153.242 103.488 153.054C103.22 152.997 102.751 152.927 102.568 153.199C102.206 153.744 103.455 154.171 103.788 154.312C104.516 154.622 106.051 154.885 106.929 155.899C107.966 157.105 109.178 158.077 109.807 159.537C110.159 160.358 110.379 161.236 110.891 161.983C111.375 162.692 112.3 163.664 113.121 162.865C113.882 162.133 114.168 160.95 114.398 159.959C115.224 156.359 114.891 154.739 112.53 152.04C111.652 151.035 110.708 150.063 109.473 149.514C108.962 149.284 108.262 149.054 107.732 149.368C107.337 149.603 108.182 149.969 108.323 150.026C109.201 150.397 110.131 150.462 111.032 150.744C112.342 151.157 115.384 154.148 116.018 154.096C118.229 153.903 118.586 152.678 117.919 151.157C116.501 147.937 111.178 143.078 108.182 143.209C106.633 143.275 105.089 143.369 103.535 143.341Z" fill="#7CA69C"/>
<mask id="mask0_415_21873" style="mask-type:luminance" maskUnits="userSpaceOnUse" x="93" y="143" width="26" height="21">
<path d="M103.535 143.341C97.6102 142.498 93.4133 150.448 93.5635 153.382C93.8311 158.485 98.2439 154.241 100.507 158.119C101.422 159.692 101.169 162.682 103.535 162.668C105.075 162.654 105.952 161.354 106.013 159.936C106.056 158.978 105.718 158.039 105.478 157.124C105.056 155.5 104.333 153.242 103.488 153.054C103.22 152.997 102.751 152.927 102.568 153.199C102.206 153.744 103.455 154.171 103.788 154.312C104.516 154.622 106.051 154.885 106.929 155.899C107.966 157.105 109.178 158.077 109.807 159.537C110.159 160.358 110.379 161.236 110.891 161.983C111.375 162.692 112.3 163.664 113.121 162.865C113.882 162.133 114.168 160.95 114.398 159.959C115.224 156.359 114.891 154.739 112.53 152.04C111.652 151.035 110.708 150.063 109.473 149.514C108.962 149.284 108.262 149.054 107.732 149.368C107.337 149.603 108.182 149.969 108.323 150.026C109.201 150.397 110.131 150.462 111.032 150.744C112.342 151.157 115.384 154.148 116.018 154.096C118.229 153.903 118.586 152.678 117.919 151.157C116.501 147.937 111.178 143.078 108.182 143.209C106.633 143.275 105.089 143.369 103.535 143.341Z" fill="white"/>
</mask>
<g mask="url(#mask0_415_21873)">
<path fill-rule="evenodd" clip-rule="evenodd" d="M102.343 142.573C102.234 142.521 101.847 142.824 101.757 142.88C101.134 143.272 100.53 143.73 99.9724 144.207C97.8617 146.02 95.7228 148.693 96.5491 151.668C96.8466 152.725 97.6445 153.542 98.655 153.953C99.741 154.392 100.855 154.496 101.649 155.469C102.003 155.903 102.281 156.427 102.432 156.97C102.678 157.858 102.702 158.698 103.618 159.171C104.227 159.492 104.789 159.279 105.27 158.854C105.511 158.642 105.927 158.141 106.271 158.448C106.658 158.798 106.673 159.539 106.668 160.011C106.64 161.843 105.19 163.335 103.419 163.614C101.682 163.888 99.9158 163.274 98.3953 162.485C94.0607 160.238 90.9537 154.855 91.2134 149.963C91.4353 145.765 97.909 142.621 102.343 142.573Z" fill="#45655D"/>
<path fill-rule="evenodd" clip-rule="evenodd" d="M115.564 158.033C115.253 158.458 114.936 158.821 114.511 159.138C114.195 159.374 113.85 159.581 113.482 159.723C112.495 160.101 111.622 159.591 110.965 158.859C109.756 157.518 109.081 155.766 107.773 154.505C106.952 153.717 105.96 153.268 104.827 153.146C104.482 153.108 103.821 153.079 103.665 153.5C103.543 153.844 103.925 154.213 104.166 154.392C104.487 154.633 104.855 154.803 105.167 155.053C105.682 155.464 106.078 156.012 106.404 156.574C107.594 158.623 108.17 161.045 109.96 162.712C110.314 163.047 110.715 163.349 111.164 163.548C111.485 163.689 111.829 163.779 112.174 163.812C114.502 164.058 115.172 160.016 115.564 158.033ZM107.721 149.481C108.061 148.57 109.912 148.329 110.696 148.608C112.67 149.321 113.907 151.28 115.829 152.093C116.008 152.168 116.192 152.234 116.386 152.272C117.425 152.451 117.788 151.455 118.454 150.898C118.964 150.473 119.597 150.44 119.97 151.068C120.806 152.48 119.819 154.151 118.369 154.652C116.962 155.138 115.314 154.68 114.219 153.722C113.751 153.316 113.312 152.839 112.953 152.333C112.665 151.918 112.226 151.512 111.829 151.181C111.031 150.511 108.699 149.765 107.721 149.481Z" fill="#45655D"/>
</g>
<path fill-rule="evenodd" clip-rule="evenodd" d="M202.903 119.328C203.23 117.619 202.778 115.854 201.669 114.514C200.561 113.173 198.915 112.397 197.175 112.397H128.459C125.661 112.397 123.252 114.385 122.726 117.135L113.611 164.766C113.284 166.475 113.736 168.241 114.844 169.583C115.954 170.92 117.604 171.7 119.344 171.7H188.059C190.858 171.7 193.262 169.708 193.788 166.962L202.903 119.328Z" fill="#034737"/>
<path fill-rule="evenodd" clip-rule="evenodd" d="M107.14 58.0419C107.117 58.056 107.727 59.0423 107.755 59.1113C108.075 59.8681 108.248 60.7704 108.492 61.5554C109.267 64.0642 109.948 66.6194 110.004 69.2596C110.046 71.0286 109.765 72.6952 109.192 74.3702C108.84 75.3988 108.3 76.3626 108.028 77.4193C107.521 79.3878 107.624 81.4389 107.046 83.4012C105.84 87.5038 102.99 91.6994 99.9435 94.6663C97.0094 97.5239 92.4275 100.533 88.2212 98.5859C86.4278 97.7535 85.0382 96.2963 83.7331 94.8499C80.9069 91.7313 78.3719 88.1352 77.7381 83.8899C77.3437 81.2806 77.9963 78.6028 77.4048 76.0232C77.1513 74.9331 76.6208 73.5505 75.4565 73.1435C74.3204 72.7463 74.6209 73.9754 74.2923 74.8476C73.6491 76.5414 73.0107 78.739 74.5927 80.0934C75.4378 80.8173 75.7758 80.8487 75.8321 79.892C76.0105 76.7358 74.8275 77.8878 75.0153 76.5203C75.0622 76.1616 75.4472 75.6837 75.8368 75.3316C76.9494 74.3317 77.0668 76.7508 77.0292 77.055C76.879 78.2202 75.7664 78.7108 75.8321 79.892C75.865 80.5004 76.5457 81.9548 75.8086 82.3632C75.0528 82.7862 74.0387 81.752 73.6256 81.2544C72.3017 79.6577 71.5365 77.1095 71.8698 75.0603C72.6867 69.9939 78.9681 70.9295 82.597 69.1728C85.4466 67.7931 87.6672 65.4556 89.9769 63.352C92.5026 61.0493 95.5025 58.7978 98.7699 57.6945C101.634 56.7284 105.676 56.472 107.755 59.1113" fill="#7CA69C"/>
<mask id="mask1_415_21873" style="mask-type:luminance" maskUnits="userSpaceOnUse" x="71" y="57" width="40" height="43">
<path d="M107.14 58.0419C107.117 58.056 107.727 59.0423 107.755 59.1113C108.075 59.8681 108.248 60.7704 108.492 61.5554C109.267 64.0642 109.948 66.6194 110.004 69.2596C110.046 71.0286 109.765 72.6952 109.192 74.3702C108.84 75.3988 108.3 76.3626 108.028 77.4193C107.521 79.3878 107.624 81.4389 107.046 83.4012C105.84 87.5038 102.99 91.6994 99.9435 94.6663C97.0094 97.5239 92.4275 100.533 88.2212 98.5859C86.4278 97.7535 85.0382 96.2963 83.7331 94.8499C80.9069 91.7313 78.3719 88.1352 77.7381 83.8899C77.3437 81.2806 77.9963 78.6028 77.4048 76.0232C77.1513 74.9331 76.6208 73.5505 75.4565 73.1435C74.3204 72.7463 74.6209 73.9754 74.2923 74.8476C73.6491 76.5414 73.0107 78.739 74.5927 80.0934C75.4378 80.8173 75.7758 80.8487 75.8321 79.892C76.0105 76.7358 74.8275 77.8878 75.0153 76.5203C75.0622 76.1616 75.4472 75.6837 75.8368 75.3316C76.9494 74.3317 77.0668 76.7508 77.0292 77.055C76.879 78.2202 75.7664 78.7108 75.8321 79.892C75.865 80.5004 76.5457 81.9548 75.8086 82.3632C75.0528 82.7862 74.0387 81.752 73.6256 81.2544C72.3017 79.6577 71.5365 77.1095 71.8698 75.0603C72.6867 69.9939 78.9681 70.9295 82.597 69.1728C85.4466 67.7931 87.6672 65.4556 89.9769 63.352C92.5026 61.0493 95.5025 58.7978 98.7699 57.6945C101.634 56.7284 105.676 56.472 107.755 59.1113" fill="white"/>
</mask>
<g mask="url(#mask1_415_21873)">
<path fill-rule="evenodd" clip-rule="evenodd" d="M111.692 63.0742C105.903 68.6171 98.5461 72.7053 90.5284 73.9334C87.8511 74.3433 85.1692 74.3995 82.506 73.8924C81.9536 73.7871 80.1735 73.1666 79.8052 73.9051C79.5549 74.4056 79.909 75.1002 80.1404 75.5379C80.7779 76.7344 81.9583 77.785 82.3172 79.1123C82.7799 80.8278 81.9064 82.988 81.9205 84.7431C81.9489 88.5102 83.7432 92.6361 86.4629 95.2426C88.21 96.9212 90.5803 97.8183 92.9413 98.1894C93.6968 98.3079 94.4522 98.3991 95.2172 98.4392C95.4155 98.4496 96.3693 98.3438 96.3032 98.4298C95.6752 99.275 93.7015 99.4676 92.7807 99.5871C88.9938 100.079 85.2116 98.791 82.4305 96.1869C78.4122 92.4265 77.1987 87.181 77.1987 81.8633C77.1987 79.9722 77.7842 77.981 77.4489 76.1074C77.0665 73.9415 74.8047 72.8059 75.1258 70.4072C75.1967 69.8717 75.3477 69.3368 75.5602 68.8405C76.9815 65.5357 80.5229 63.2815 83.5165 61.5877C91.0242 57.3381 104.396 56.1463 111.692 63.0742Z" fill="#45655D"/>
</g>
<path fill-rule="evenodd" clip-rule="evenodd" d="M88.1413 99.1257C83.1087 97.345 78.0854 88.4013 78.0526 88.4929C77.9962 88.6605 77.9305 88.8262 77.8648 88.9896C77.6864 89.414 77.2263 90.1951 77.6113 90.6055C78.0666 91.0946 78.6347 91.4721 79.1042 91.9486C80.0102 92.8673 80.874 93.9274 81.5547 95.0231C82.6204 96.7343 82.9725 98.4783 82.7143 100.473C82.6063 101.323 81.9115 103.24 82.7753 103.907C83.1509 104.193 83.6908 103.94 84.0335 103.74C84.855 103.265 85.5733 102.549 86.47 102.219C87.5638 101.818 88.8126 102.296 89.9393 102.241C92.2866 102.125 95.2066 100.696 96.4413 98.6041C97.0094 97.6431 95.1127 98.7543 94.8874 98.8619C94.5485 99.0207 94.2005 99.1591 93.8452 99.2764C91.9721 99.8768 89.9862 99.7782 88.1413 99.1257Z" fill="#45655D"/>
<mask id="mask2_415_21873" style="mask-type:luminance" maskUnits="userSpaceOnUse" x="77" y="88" width="20" height="17">
<path d="M88.1413 99.1257C83.1087 97.345 78.0854 88.4013 78.0526 88.4929C77.9962 88.6605 77.9305 88.8262 77.8648 88.9896C77.6864 89.414 77.2263 90.1951 77.6113 90.6055C78.0666 91.0946 78.6347 91.4721 79.1042 91.9486C80.0102 92.8673 80.874 93.9274 81.5547 95.0231C82.6204 96.7343 82.9725 98.4783 82.7143 100.473C82.6063 101.323 81.9115 103.24 82.7753 103.907C83.1509 104.193 83.6908 103.94 84.0335 103.74C84.855 103.265 85.5733 102.549 86.47 102.219C87.5638 101.818 88.8126 102.296 89.9393 102.241C92.2866 102.125 95.2066 100.696 96.4413 98.6041C97.0094 97.6431 95.1127 98.7543 94.8874 98.8619C94.5485 99.0207 94.2005 99.1591 93.8452 99.2764C91.9721 99.8768 89.9862 99.7782 88.1413 99.1257Z" fill="white"/>
</mask>
<g mask="url(#mask2_415_21873)">
<path fill-rule="evenodd" clip-rule="evenodd" d="M77.8222 87.6157C77.9497 88.6007 78.0111 89.5725 78.5541 90.4484C78.9791 91.1245 79.5882 91.6042 80.1406 92.1619C81.052 93.0765 81.9727 94.1323 82.4968 95.3194C83.139 96.7789 83.1107 98.2724 83.3845 99.8089C83.4884 100.399 83.6631 101.224 84.3478 101.375C85.3677 101.598 86.4112 100.865 87.4028 100.751C88.8241 100.588 90.1934 101.146 91.6241 100.778C92.5968 100.528 93.5176 100.042 94.3628 99.5109C94.9483 99.1431 95.5007 98.678 96.1618 98.4429C96.8653 98.1921 97.5878 98.4367 97.1014 99.2786C96.3271 100.614 94.5706 101.48 93.2626 102.167C90.557 103.591 87.4028 104.747 84.3336 104.972C82.8179 105.082 81.2267 104.941 79.8951 104.154C76.3632 102.069 77.3312 96.4677 75.5463 93.1889C74.9089 92.0216 72.8879 90.9366 77.8222 87.6157Z" fill="#7CA69C"/>
</g>
<path fill-rule="evenodd" clip-rule="evenodd" d="M94.9678 66.4255C107.695 54.8505 109.192 63.8655 108.784 66.487C107.948 71.8219 104.92 73.4139 105.704 79.2206C105.967 81.1539 105.906 86.7601 105.906 86.7601C105.906 86.7601 111.695 86.3029 115.248 82.8772C118.539 79.7093 124.746 77.8226 123.45 72.0637C123.276 71.3004 122.938 70.6013 122.492 69.9601C121.891 69.085 121.107 68.3325 120.309 67.6381C122.051 64.6566 120.882 60.2902 119.802 57.2692C116.69 48.5349 107.939 41.009 98.4511 44.8665C98.1037 44.0544 96.5498 43.5342 95.8316 43.2539C92.9632 42.139 89.6911 41.7197 86.6349 41.9019C81.5319 42.2052 76.6119 44.2356 73.0534 47.9574C68.3541 52.8722 66.833 59.8953 71.5183 65.2505C69.3118 66.0185 67.9692 67.8762 66.8988 69.8958C64.6454 74.1448 73.5651 82.3909 73.0863 78.2704C73.3961 77.8728 74.49 76.7649 74.7669 76.2983C75.7012 74.7119 76.6213 72.1891 78.4475 71.9534C84.6866 71.1483 87.2029 73.4852 94.9678 66.4255Z" fill="#0D0D0D"/>
<path fill-rule="evenodd" clip-rule="evenodd" d="M232.187 24.0529C232.187 22.2981 231.489 20.6145 230.249 19.3734C229.007 18.1324 227.324 17.4351 225.568 17.4351H191.535C189.779 17.4351 188.096 18.1324 186.856 19.3734C185.614 20.6145 184.916 22.2981 184.916 24.0529V76.0528C184.916 77.8081 185.614 79.4916 186.856 80.7327C188.096 81.9737 189.779 82.6711 191.535 82.6711H225.568C227.324 82.6711 229.007 81.9737 230.249 80.7327C231.489 79.4916 232.187 77.8081 232.187 76.0528V24.0529Z" fill="#7CA69C"/>
<path d="M194.297 33.7057C197.363 33.7057 199.849 31.2197 199.849 28.1531C199.849 25.0866 197.363 22.6006 194.297 22.6006C191.23 22.6006 188.744 25.0866 188.744 28.1531C188.744 31.2197 191.23 33.7057 194.297 33.7057Z" fill="white"/>
<path d="M194.297 47.8629C197.363 47.8629 199.849 45.3769 199.849 42.3104C199.849 39.2438 197.363 36.7578 194.297 36.7578C191.23 36.7578 188.744 39.2438 188.744 42.3104C188.744 45.3769 191.23 47.8629 194.297 47.8629Z" fill="white"/>
<path d="M194.297 62.0206C197.363 62.0206 199.849 59.5347 199.849 56.4681C199.849 53.4015 197.363 50.9155 194.297 50.9155C191.23 50.9155 188.744 53.4015 188.744 56.4681C188.744 59.5347 191.23 62.0206 194.297 62.0206Z" fill="white"/>
<path d="M194.297 76.1778C197.363 76.1778 199.849 73.6919 199.849 70.6253C199.849 67.5587 197.363 65.0728 194.297 65.0728C191.23 65.0728 188.744 67.5587 188.744 70.6253C188.744 73.6919 191.23 76.1778 194.297 76.1778Z" fill="white"/>
<path d="M208.553 33.7057C211.619 33.7057 214.105 31.2197 214.105 28.1531C214.105 25.0866 211.619 22.6006 208.553 22.6006C205.486 22.6006 203 25.0866 203 28.1531C203 31.2197 205.486 33.7057 208.553 33.7057Z" fill="white"/>
<path d="M208.553 47.8629C211.619 47.8629 214.105 45.3769 214.105 42.3104C214.105 39.2438 211.619 36.7578 208.553 36.7578C205.486 36.7578 203 39.2438 203 42.3104C203 45.3769 205.486 47.8629 208.553 47.8629Z" fill="white"/>
<path d="M208.553 62.0206C211.619 62.0206 214.105 59.5347 214.105 56.4681C214.105 53.4015 211.619 50.9155 208.553 50.9155C205.486 50.9155 203 53.4015 203 56.4681C203 59.5347 205.486 62.0206 208.553 62.0206Z" fill="white"/>
<path d="M208.553 76.1778C211.619 76.1778 214.105 73.6919 214.105 70.6253C214.105 67.5587 211.619 65.0728 208.553 65.0728C205.486 65.0728 203 67.5587 203 70.6253C203 73.6919 205.486 76.1778 208.553 76.1778Z" fill="white"/>
<path d="M222.807 33.7057C225.874 33.7057 228.36 31.2197 228.36 28.1531C228.36 25.0866 225.874 22.6006 222.807 22.6006C219.741 22.6006 217.255 25.0866 217.255 28.1531C217.255 31.2197 219.741 33.7057 222.807 33.7057Z" fill="white"/>
<path d="M222.807 47.8629C225.874 47.8629 228.36 45.3769 228.36 42.3104C228.36 39.2438 225.874 36.7578 222.807 36.7578C219.741 36.7578 217.255 39.2438 217.255 42.3104C217.255 45.3769 219.741 47.8629 222.807 47.8629Z" fill="white"/>
<path d="M222.807 62.0206C225.874 62.0206 228.36 59.5347 228.36 56.4681C228.36 53.4015 225.874 50.9155 222.807 50.9155C219.741 50.9155 217.255 53.4015 217.255 56.4681C217.255 59.5347 219.741 62.0206 222.807 62.0206Z" fill="white"/>
<path d="M222.807 76.1778C225.874 76.1778 228.36 73.6919 228.36 70.6253C228.36 67.5587 225.874 65.0728 222.807 65.0728C219.741 65.0728 217.255 67.5587 217.255 70.6253C217.255 73.6919 219.741 76.1778 222.807 76.1778Z" fill="white"/>
<path d="M194.938 31.3561H193.67V26.4615L192.152 26.9317V25.8992L194.8 24.9502H194.938V31.3561Z" fill="#45655D"/>
<path d="M195.609 43.1058H196.333V44.1298H195.609V45.5136H194.341V44.1298H191.716L191.66 43.3299L194.328 39.1162H195.609V43.1058ZM192.925 43.1058H194.341V40.8474L194.255 40.9925L192.925 43.1058Z" fill="#45655D"/>
<path d="M196.202 53.9855L193.728 59.6708H192.388L194.865 54.3017H191.687V53.2734H196.202V53.9855Z" fill="#45655D"/>
<path d="M210.494 31.3558H206.109V30.4858L208.177 28.2802C208.462 27.9699 208.672 27.6988 208.809 27.4675C208.944 27.2362 209.013 27.0163 209.013 26.8082C209.013 26.5241 208.94 26.301 208.796 26.1384C208.655 25.9756 208.449 25.8943 208.184 25.8943C207.895 25.8943 207.669 25.9932 207.502 26.1908C207.338 26.3888 207.256 26.6486 207.256 26.9711H205.981C205.981 26.5815 206.073 26.2256 206.26 25.9031C206.446 25.5809 206.72 25.3181 207.05 25.1452C207.387 24.962 207.774 24.8706 208.203 24.8706C208.862 24.8706 209.376 25.0289 209.74 25.3451C210.104 25.6616 210.287 26.1083 210.287 26.6853C210.287 27.0015 210.205 27.324 210.041 27.652C209.878 27.98 209.596 28.3624 209.196 28.7989L207.744 30.3321H210.494V31.3558Z" fill="#45655D"/>
<path d="M206.295 42.3678L206.666 39.1162H210.25V40.1753H207.708L207.55 41.5506C207.845 41.3908 208.175 41.3076 208.51 41.3087C209.12 41.3087 209.598 41.4978 209.942 41.8756C210.29 42.2535 210.463 42.7824 210.463 43.462C210.463 43.8749 210.375 44.2448 210.201 44.5712C210.024 44.8979 209.775 45.1512 209.451 45.3314C209.127 45.5116 208.743 45.6017 208.301 45.6017C207.914 45.6017 207.554 45.5231 207.223 45.3665C206.892 45.2098 206.633 44.9893 206.439 44.7052C206.246 44.4211 206.145 44.0973 206.135 43.7343H207.39C207.416 44.0007 207.511 44.2081 207.668 44.3559C207.829 44.504 208.039 44.5777 208.294 44.5777C208.583 44.5777 208.802 44.4745 208.959 44.2681C209.113 44.0616 209.192 43.7693 209.192 43.3915C209.192 43.0284 209.104 42.7499 208.923 42.5566C208.746 42.3632 208.491 42.2666 208.163 42.2666C207.862 42.2666 207.619 42.3459 207.429 42.5038L207.308 42.6182L206.295 42.3678Z" fill="#45655D"/>
<path d="M210.277 54.9737C210.277 55.2844 210.201 55.5596 210.044 55.7998C209.89 56.04 209.677 56.232 209.402 56.3756C209.713 56.525 209.959 56.7308 210.142 56.9929C210.323 57.2551 210.414 57.5634 210.414 57.9177C210.414 58.4862 210.221 58.9348 209.834 59.2644C209.448 59.5941 208.92 59.7589 208.255 59.7589C207.593 59.7589 207.062 59.5934 206.675 59.2621C206.285 58.9312 206.089 58.4832 206.089 57.9177C206.089 57.5634 206.181 57.2544 206.364 56.9906C206.544 56.7272 206.79 56.522 207.095 56.3756C206.823 56.232 206.61 56.04 206.456 55.7998C206.302 55.5596 206.226 55.2844 206.226 54.9737C206.226 54.4291 206.407 53.9949 206.77 53.6712C207.134 53.3474 207.629 53.1855 208.252 53.1855C208.871 53.1855 209.366 53.3461 209.729 53.6666C210.093 53.9874 210.277 54.4232 210.277 54.9737ZM209.14 57.8256C209.14 57.5474 209.058 57.3245 208.897 57.1577C208.737 56.9906 208.52 56.9071 208.248 56.9071C207.976 56.9071 207.763 56.99 207.603 57.1554C207.439 57.3209 207.36 57.5444 207.36 57.8256C207.36 58.0979 207.439 58.3177 207.596 58.4845C207.757 58.6517 207.976 58.7349 208.255 58.7349C208.53 58.7349 208.746 58.6546 208.904 58.4934C209.061 58.3322 209.14 58.1097 209.14 57.8256ZM209.009 55.0353C209.009 54.7863 208.94 54.5864 208.809 54.4357C208.678 54.2849 208.491 54.2092 208.252 54.2092C208.016 54.2092 207.829 54.2826 207.698 54.4291C207.567 54.5756 207.501 54.7778 207.501 55.0353C207.501 55.2903 207.567 55.4954 207.698 55.6504C207.829 55.8057 208.016 55.8834 208.255 55.8834C208.497 55.8834 208.681 55.8057 208.812 55.6504C208.943 55.4954 209.009 55.2903 209.009 55.0353Z" fill="#45655D"/>
<path d="M210.414 71.1834C210.414 72.0681 210.231 72.7448 209.864 73.2134C209.497 73.682 208.963 73.9166 208.255 73.9166C207.56 73.9166 207.026 73.6866 206.656 73.2265C206.289 72.7668 206.099 72.1078 206.089 71.2493V70.0719C206.089 69.1786 206.276 68.5003 206.646 68.0376C207.016 67.5746 207.55 67.3433 208.248 67.3433C208.943 67.3433 209.477 67.5726 209.847 68.0311C210.214 68.4895 210.404 69.1478 210.414 70.006V71.1834ZM209.143 69.8917C209.143 69.3615 209.071 68.9755 208.927 68.734C208.782 68.4925 208.556 68.3715 208.248 68.3715C207.95 68.3715 207.727 68.4866 207.586 68.7163C207.445 68.9463 207.37 69.3058 207.36 69.795V71.3505C207.36 71.8719 207.432 72.2592 207.573 72.5128C207.714 72.7661 207.944 72.8926 208.255 72.8926C208.566 72.8926 208.789 72.771 208.93 72.5279C209.067 72.2848 209.136 71.9128 209.143 71.4121V69.8917Z" fill="#45655D"/>
<path d="M221.655 27.595H222.33C222.654 27.595 222.894 27.5144 223.048 27.3531C223.202 27.1919 223.28 26.9783 223.28 26.7116C223.28 26.454 223.205 26.2531 223.051 26.1096C222.897 25.9661 222.684 25.8943 222.415 25.8943C222.173 25.8943 221.97 25.9611 221.806 26.0942C221.639 26.2275 221.557 26.4012 221.557 26.6149H220.289C220.289 26.281 220.377 25.9815 220.557 25.7164C220.738 25.4513 220.99 25.2442 221.314 25.0947C221.639 24.9453 221.996 24.8706 222.383 24.8706C223.061 24.8706 223.592 25.0325 223.975 25.3562C224.358 25.68 224.552 26.126 224.552 26.6942C224.552 26.9871 224.46 27.2565 224.283 27.5026C224.102 27.7501 223.859 27.9456 223.579 28.0695C223.939 28.1982 224.208 28.3916 224.385 28.6495C224.562 28.907 224.65 29.2118 224.65 29.5634C224.65 30.1316 224.444 30.5871 224.031 30.9298C223.615 31.2726 223.067 31.444 222.383 31.444C221.747 31.444 221.223 31.2755 220.819 30.9387C220.413 30.6018 220.21 30.1565 220.21 29.6027H221.478C221.478 29.8429 221.57 30.0392 221.75 30.1916C221.93 30.3439 222.15 30.4199 222.415 30.4199C222.717 30.4199 222.953 30.3403 223.123 30.1807C223.297 30.0208 223.382 29.8095 223.382 29.5457C223.382 28.907 223.031 28.5879 222.327 28.5879H221.655V27.595Z" fill="#45655D"/>
<path d="M223.808 39.0503V40.0959H223.683C223.11 40.1048 222.648 40.2542 222.297 40.5442C221.95 40.8342 221.737 41.2369 221.668 41.7527C222.009 41.407 222.438 41.234 222.956 41.234C223.513 41.234 223.955 41.4332 224.283 41.8317C224.611 42.2301 224.775 42.7544 224.775 43.4046C224.775 43.8207 224.683 44.1969 224.506 44.5338C224.332 44.8645 224.065 45.1376 223.739 45.3202C223.411 45.508 223.038 45.6017 222.622 45.6017C221.947 45.6017 221.403 45.3671 220.99 44.8985C220.574 44.4299 220.367 43.8043 220.367 43.0225V42.5654C220.367 41.8713 220.498 41.2582 220.76 40.7267C221.023 40.1949 221.399 39.7833 221.891 39.492C222.379 39.2004 222.949 39.0532 223.598 39.0503H223.808ZM222.569 42.2534C222.363 42.2534 222.179 42.3068 222.012 42.414C221.849 42.5153 221.72 42.663 221.642 42.838V43.2243C221.642 43.6493 221.724 43.981 221.891 44.2198C222.058 44.4584 222.294 44.5777 222.595 44.5777C222.867 44.5777 223.087 44.4702 223.257 44.2549C223.425 44.0396 223.51 43.7604 223.51 43.4177C223.51 43.0693 223.425 42.7882 223.254 42.5742C223.084 42.3602 222.854 42.2534 222.569 42.2534Z" fill="#45655D"/>
<path d="M223.332 57.1138C223.002 57.4389 222.615 57.6014 222.172 57.6014C221.609 57.6014 221.153 57.4074 220.816 57.0191C220.475 56.6312 220.305 56.1075 220.305 55.4485C220.305 55.0294 220.396 54.645 220.58 54.2951C220.763 53.9451 221.019 53.6725 221.347 53.4779C221.674 53.2829 222.045 53.1855 222.454 53.1855C222.877 53.1855 223.251 53.2911 223.578 53.5021C223.906 53.7128 224.162 54.0159 224.342 54.4114C224.525 54.8069 224.617 55.2595 224.62 55.769V56.2392C224.62 57.3055 224.355 58.1434 223.824 58.7526C223.293 59.3617 222.543 59.6871 221.57 59.7281L221.258 59.7324V58.6736L221.54 58.669C222.644 58.6192 223.241 58.1008 223.332 57.1138ZM222.484 56.6305C222.69 56.6305 222.867 56.5777 223.015 56.4722C223.162 56.3667 223.273 56.2393 223.352 56.0898V55.5672C223.352 55.1366 223.267 54.8027 223.103 54.5651C222.939 54.3279 222.72 54.2092 222.444 54.2092C222.192 54.2092 221.982 54.3259 221.815 54.5585C221.651 54.7915 221.57 55.0838 221.57 55.4351C221.57 55.7838 221.651 56.0702 221.809 56.2943C221.969 56.5184 222.195 56.6305 222.484 56.6305Z" fill="#45655D"/>
<path fill-rule="evenodd" clip-rule="evenodd" d="M159.337 56.5587L158.539 58.1307L160.374 59.0618L161.172 57.4898L161.902 57.8602L161.104 59.4322L162.939 60.3634L163.737 58.7914L169.441 61.6856C169.161 63.8451 170.242 66.0459 172.295 67.0876C174.9 68.4091 178.086 67.3686 179.408 64.7634C180.73 62.1583 179.688 58.9719 177.084 57.6504C175.031 56.6088 172.616 57.0354 171.039 58.5366L159.147 52.5025L157.549 55.6515L159.337 56.5587ZM172.33 61.1717C171.67 62.4731 172.19 64.0675 173.492 64.7283C174.794 65.389 176.389 64.8676 177.049 63.5663C177.709 62.2649 177.189 60.6704 175.887 60.0097C174.584 59.3489 172.99 59.8704 172.33 61.1717Z" fill="#7CA69C"/>
<path fill-rule="evenodd" clip-rule="evenodd" d="M223.224 95.7692C223.224 94.6758 222.789 93.6274 222.016 92.8546C221.243 92.0814 220.194 91.6475 219.102 91.6475H158.395C157.303 91.6475 156.254 92.0814 155.481 92.8546C154.709 93.6274 154.273 94.6758 154.273 95.7692V100.025C154.273 101.118 154.709 102.167 155.481 102.939C156.254 103.713 157.303 104.147 158.395 104.147H219.102C220.194 104.147 221.243 103.713 222.016 102.939C222.789 102.167 223.224 101.118 223.224 100.025V95.7692Z" fill="#45655D"/>
<path fill-rule="evenodd" clip-rule="evenodd" d="M222.652 94.6286C222.652 93.5352 222.217 92.4867 221.444 91.714C220.671 90.9408 219.623 90.5068 218.531 90.5068H157.823C156.732 90.5068 155.683 90.9408 154.91 91.714C154.137 92.4867 153.702 93.5352 153.702 94.6286V98.8843C153.702 99.9777 154.137 101.026 154.91 101.799C155.683 102.572 156.732 103.006 157.823 103.006H218.531C219.623 103.006 220.671 102.572 221.444 101.799C222.217 101.026 222.652 99.9777 222.652 98.8843V94.6286Z" fill="#7CA69C"/>
<path fill-rule="evenodd" clip-rule="evenodd" d="M164.765 99.9355L163.754 99.2019L165.22 97.1827L162.847 96.4114L163.235 95.2243L165.608 95.9957V93.4995H166.855V95.9957L169.228 95.2243L169.616 96.4114L167.243 97.1827L168.709 99.2019L167.698 99.9355L166.232 97.9163L164.765 99.9355Z" fill="white"/>
<path fill-rule="evenodd" clip-rule="evenodd" d="M174.662 99.9355L173.65 99.2019L175.117 97.1827L172.743 96.4114L173.132 95.2243L175.505 95.9957V93.4995H176.751V95.9957L179.125 95.2243L179.513 96.4114L177.139 97.1827L178.606 99.2019L177.595 99.9355L176.128 97.9163L174.662 99.9355Z" fill="white"/>
<path fill-rule="evenodd" clip-rule="evenodd" d="M184.558 99.9355L183.547 99.2019L185.013 97.1827L182.64 96.4114L183.028 95.2243L185.401 95.9957V93.4995H186.648V95.9957L189.021 95.2243L189.409 96.4114L187.036 97.1827L188.502 99.2019L187.491 99.9355L186.025 97.9163L184.558 99.9355Z" fill="white"/>
<path fill-rule="evenodd" clip-rule="evenodd" d="M194.457 99.9355L193.446 99.2019L194.913 97.1827L192.539 96.4114L192.927 95.2243L195.301 95.9957V93.4995H196.547V95.9957L198.92 95.2243L199.309 96.4114L196.935 97.1827L198.402 99.2019L197.391 99.9355L195.924 97.9163L194.457 99.9355Z" fill="white"/>
<path fill-rule="evenodd" clip-rule="evenodd" d="M204.354 99.9355L203.343 99.2019L204.809 97.1827L202.436 96.4114L202.824 95.2243L205.197 95.9957V93.4995H206.444V95.9957L208.817 95.2243L209.205 96.4114L206.832 97.1827L208.298 99.2019L207.287 99.9355L205.82 97.9163L204.354 99.9355Z" fill="white"/>
<path fill-rule="evenodd" clip-rule="evenodd" d="M147.946 38.4685C147.211 43.4415 143.494 47.229 139.028 47.229C134.033 47.229 129.977 42.4935 129.977 36.6604C129.977 30.8273 134.033 26.0918 139.028 26.0918C143.545 26.0918 147.29 29.9616 147.969 35.015H144.958C144.321 31.8794 141.905 29.5443 139.028 29.5443C135.664 29.5443 132.932 32.733 132.932 36.6604C132.932 40.5879 135.664 43.7765 139.028 43.7765C141.858 43.7765 144.238 41.5214 144.925 38.4685H147.946Z" fill="#7CA69C"/>
<path fill-rule="evenodd" clip-rule="evenodd" d="M152.07 38.9771C152.07 38.6964 151.842 38.4688 151.56 38.4688H126.495C126.217 38.4688 125.989 38.6964 125.989 38.9771V62.0446C125.989 62.3253 126.217 62.553 126.495 62.553H151.56C151.842 62.553 152.07 62.3253 152.07 62.0446V38.9771Z" fill="#7CA69C"/>
<path fill-rule="evenodd" clip-rule="evenodd" d="M137.463 50.1587C136.84 49.8627 136.313 49.3962 135.945 48.8132C135.577 48.2303 135.381 47.5547 135.381 46.8651C135.381 44.8525 137.017 43.2188 139.029 43.2188C141.041 43.2188 142.672 44.8525 142.672 46.8651C142.672 47.5541 142.476 48.2291 142.109 48.812C141.741 49.3948 141.216 49.8617 140.595 50.1587V55.9602C140.594 56.3666 140.432 56.7561 140.145 57.0433C139.857 57.3305 139.467 57.4918 139.061 57.4918H138.996C138.59 57.4918 138.2 57.3305 137.912 57.0433C137.625 56.7561 137.463 56.3666 137.463 55.9602V50.1587Z" fill="white"/>
</svg>
