<svg width="1501" height="622" viewBox="0 0 1501 622" fill="none" xmlns="http://www.w3.org/2000/svg">
<g opacity="0.4">
<mask id="mask0_8_632" style="mask-type:alpha" maskUnits="userSpaceOnUse" x="-1" y="0" width="1503" height="622">
<rect x="-0.5" y="0.5" width="1502" height="621" rx="30.5" fill="#FAFAFA" stroke="#DFDFDF"/>
</mask>
<g mask="url(#mask0_8_632)">
<mask id="mask1_8_632" style="mask-type:luminance" maskUnits="userSpaceOnUse" x="0" y="-171" width="1501" height="974">
<path d="M1500.62 -170.697H0.207031V802.036H1500.62V-170.697Z" fill="white"/>
</mask>
<g mask="url(#mask1_8_632)">
<path d="M0.207031 801.693H1499.93M0.207031 773.915H1499.93M0.207031 746.143H1499.93M0.207031 718.372H1499.93M0.207031 690.6H1499.93M0.207031 662.829H1499.93M0.207031 635.057H1499.93M0.207031 607.286H1499.93M0.207031 579.507H1499.93M0.207031 551.736H1499.93M0.207031 523.965H1499.93M0.207031 496.194H1499.93M0.207031 468.421H1499.93M0.207031 440.649H1499.93M0.207031 412.876H1499.93M0.207031 385.104H1499.93M0.207031 357.331H1499.93M0.207031 329.558H1499.93M0.207031 301.785H1499.93M0.207031 274.013H1499.93M0.207031 246.241H1499.93M0.207031 218.468H1499.93M0.207031 190.696H1499.93M0.207031 162.923H1499.93M0.207031 135.151H1499.93M0.207031 107.378H1499.93M0.207031 79.604H1499.93M0.207031 51.831H1499.93M0.207031 24.0588H1499.93M0.207031 -3.71416H1499.93M0.207031 -31.4864H1499.93M0.207031 -59.2593H1499.93M0.207031 -87.0316H1499.93M0.207031 -114.804H1499.93M0.207031 -142.577H1499.93M0.207031 -170.35H1499.93M0.554349 -170.002V802.041M28.3268 -170.002V802.041M56.0993 -170.002V802.041M83.872 -170.002V802.041M111.645 -170.002V802.041M139.417 -170.002V802.041M167.19 -170.002V802.041M194.962 -170.002V802.041M222.735 -170.002V802.041M250.507 -170.002V802.041M278.28 -170.002V802.041M306.053 -170.002V802.041M333.826 -170.002V802.041M361.598 -170.002V802.041M389.371 -170.002V802.041M417.143 -170.002V802.041M444.917 -170.002V802.041M472.69 -170.002V802.041M500.462 -170.002V802.041M528.235 -170.002V802.041M556.008 -170.002V802.041M583.78 -170.002V802.041M611.553 -170.002V802.041M639.325 -170.002V802.041M667.098 -170.002V802.041M694.869 -170.002V802.041M722.641 -170.002V802.041M750.414 -170.002V802.041M778.186 -170.002V802.041M805.957 -170.002V802.041M833.729 -170.002V802.041M861.507 -170.002V802.041M889.279 -170.002V802.041M917.05 -170.002V802.041M944.822 -170.002V802.041M972.593 -170.002V802.041M1000.36 -170.002V802.041M1028.14 -170.002V802.041M1055.92 -170.002V802.041M1083.69 -170.002V802.041M1111.46 -170.002V802.041M1139.23 -170.002V802.041M1167 -170.002V802.041M1194.77 -170.002V802.041M1222.55 -170.002V802.041M1250.32 -170.002V802.041M1278.09 -170.002V802.041M1305.87 -170.002V802.041M1333.64 -170.002V802.041M1361.41 -170.002V802.041M1389.18 -170.002V802.041M1416.96 -170.002V802.041M1444.73 -170.002V802.041M1472.5 -170.002V802.041M1500.27 -170.002V802.041" stroke="#E0E0E0" strokeWidth="0.999537"/>
<path d="M916.703 191.041H944.474V218.814H916.703V191.041ZM694.521 191.041H722.294V218.814H694.521V191.041ZM694.521 496.54H722.294V524.312H694.521V496.54ZM500.114 274.359H527.886V302.132H500.114V274.359ZM55.752 -114.457H83.5245V-86.6846H55.752V-114.457ZM638.976 -114.457H666.749V-86.6846H638.976V-114.457ZM1055.57 -3.36645H1083.34V24.4058H1055.57V-3.36645ZM694.521 -3.36645H722.294V24.4058H694.521V-3.36645ZM777.839 79.951H805.61V107.724H777.839V79.951ZM1027.8 107.724H1055.57V135.496H1027.8V107.724ZM555.659 -31.1394H583.431V-3.36645H555.659V-31.1394ZM166.842 218.814H194.615V246.587H166.842V218.814ZM1000.02 302.132H1027.8V329.905H1000.02V302.132ZM1111.11 496.54H1138.88V524.312H1111.11V496.54ZM1194.43 246.587H1222.2V274.359H1194.43V246.587ZM1305.52 385.45H1333.29V413.222H1305.52V385.45ZM1249.98 -31.1394H1277.75V-3.36645H1249.98V-31.1394ZM55.752 79.951H83.5245V107.724H55.752V79.951ZM55.752 524.312H83.5245V552.083H55.752V524.312ZM333.478 -58.9116H361.25V-31.1394H333.478V-58.9116ZM222.388 52.1787H250.16V79.951H222.388V52.1787ZM389.023 218.814H416.795V246.587H389.023V218.814ZM389.023 663.176H416.795V690.948H389.023V663.176ZM389.023 468.767H416.795V496.54H389.023V468.767ZM944.474 -58.9116H972.246V-31.1394H944.474V-58.9116Z" fill="#E8E8E8"/>
</g>
</g>
</g>
</svg>
