<svg width="15" height="16" viewBox="0 0 15 16" fill="none" xmlns="http://www.w3.org/2000/svg">
<path d="M3.89746 3.99386C3.59873 4.0337 3.2889 4.12059 2.97659 4.25696C2.00899 4.67949 1.32397 5.58951 1.32397 7.00466V8.202H1.85314V7.00466C1.85314 5.74945 2.37895 5.09573 3.18846 4.7422C4.28016 4.26547 5.15697 4.49414 5.60175 5.15716C5.65071 5.23095 5.73334 5.27539 5.82189 5.2755C6.11538 5.2755 6.28166 5.37624 6.41049 5.55507C6.53931 5.7339 6.61564 6.01249 6.61564 6.3401V8.202H7.14481V6.3401C7.14481 5.93372 7.0576 5.54768 6.83992 5.24553C6.64659 4.97716 6.33619 4.79118 5.96348 4.75305C5.50034 4.14329 4.72782 3.86622 3.89746 3.99386Z" fill="black"/>
<path d="M6.35022 13.7554V15.6076H6.87932V13.7554H6.35022Z" fill="black"/>
<path d="M3.17203 11.114C3.13961 11.1145 3.10756 11.1209 3.07747 11.133L1.09335 11.9279L1.10369 11.9241C0.832349 12.0198 0.561214 12.1667 0.348272 12.3826C0.135327 12.5985 -0.0172219 12.9001 0.00156353 13.2456L0.00103869 13.231V14.0238V15.6104C0.0010507 15.6806 0.0289262 15.7479 0.0785372 15.7976C0.128148 15.8472 0.195432 15.875 0.26559 15.875H8.20212C8.27228 15.875 8.33956 15.8472 8.38917 15.7976C8.43878 15.7479 8.46666 15.6806 8.46667 15.6104V14.0238V13.231C8.46667 12.8929 8.31884 12.5994 8.11067 12.384C7.9025 12.1686 7.63732 12.0203 7.36454 11.9241L7.37489 11.9278L5.39075 11.1329C5.34265 11.1136 5.28991 11.1088 5.23912 11.1192C5.18832 11.1296 5.14169 11.1546 5.10502 11.1913L4.23386 12.0617L3.3627 11.1913C3.33771 11.1663 3.30796 11.1466 3.27522 11.1332C3.24247 11.1199 3.20738 11.1135 3.17203 11.114ZM3.1121 11.6892L3.85925 12.4359L3.24799 13.0468L2.65947 11.8706L3.1121 11.6892ZM5.35561 11.6892L5.80824 11.8706L5.21972 13.0468L4.60846 12.4359L5.35561 11.6892ZM2.16653 12.068L2.93901 13.6122C2.95776 13.6497 2.98514 13.6822 3.01892 13.707C3.05269 13.7318 3.09188 13.7483 3.13326 13.755C3.17464 13.7617 3.21701 13.7585 3.2569 13.7456C3.29679 13.7327 3.33305 13.7105 3.3627 13.6809L4.23386 12.8107L5.10502 13.6809C5.13466 13.7105 5.17092 13.7327 5.21081 13.7456C5.2507 13.7585 5.29307 13.7617 5.33445 13.755C5.37583 13.7483 5.41502 13.7318 5.44879 13.707C5.48257 13.6822 5.50996 13.6497 5.52871 13.6122L6.30118 12.068L7.17802 12.4194C7.18144 12.4207 7.18489 12.4219 7.18837 12.4231C7.39931 12.4975 7.59652 12.6138 7.73038 12.7523C7.86424 12.8908 7.93759 13.0408 7.93759 13.2314V14.0241V15.3462H0.530149V14.0241V13.2314C0.530282 13.2265 0.530282 13.2217 0.530149 13.2168C0.520227 13.0344 0.588679 12.8925 0.724945 12.7543C0.861211 12.6162 1.06751 12.498 1.27989 12.423C1.28336 12.4219 1.28681 12.4206 1.29023 12.4193L2.16653 12.068Z" fill="black"/>
<path d="M1.58838 13.7563V15.6086H2.11748V13.7563H1.58838Z" fill="black"/>
<path d="M2.91113 10.3184V11.3768H3.44023V10.3184H2.91113Z" fill="black"/>
<path d="M5.02747 10.3184V11.3768H5.55657V10.3184H5.02747Z" fill="black"/>
<path d="M4.76097 6.34717C4.69654 6.34699 4.63424 6.37044 4.58579 6.4128C3.87041 6.87649 3.16476 6.87951 2.38231 6.87951C2.23619 6.87953 2.11774 6.99796 2.11772 7.14409V7.40867C1.68249 7.40867 1.32397 7.76716 1.32397 8.20242C1.32397 8.43489 1.42514 8.63268 1.54722 8.80239C1.64903 8.94391 1.7749 9.05181 1.90068 9.14759C2.1717 9.68233 2.49214 10.1546 2.8722 10.5057C3.25424 10.8586 3.70523 11.0921 4.20339 11.1108C4.21214 11.1108 4.22093 11.1135 4.22974 11.1135C4.23337 11.1136 4.23696 11.1136 4.24058 11.1135C4.24461 11.1134 4.24847 11.1135 4.25247 11.1135C4.25326 11.1135 4.25379 11.1135 4.25459 11.1135H4.2567C4.7584 11.0973 5.21287 10.8623 5.59719 10.5073C5.97724 10.1562 6.29718 9.68395 6.56819 9.1492C6.69398 9.05342 6.81984 8.94553 6.92165 8.804C7.04373 8.6343 7.1449 8.4365 7.1449 8.20404C7.1449 7.76877 6.78638 7.41029 6.35115 7.41029V7.1457C6.35113 6.99958 6.23268 6.88115 6.08656 6.88112C5.82198 6.88112 5.65706 6.8779 5.50882 6.82835C5.3663 6.78083 5.21004 6.68276 4.97707 6.45421C4.90732 6.37732 4.83353 6.34665 4.76097 6.34717ZM4.7279 6.94307C4.94389 7.13643 5.13914 7.26115 5.3413 7.32851C5.50166 7.38198 5.6622 7.37437 5.82189 7.38019V7.67326C5.82191 7.81939 5.94036 7.93781 6.08647 7.93784H6.35106C6.50032 7.93784 6.61564 8.05315 6.61564 8.20242C6.61564 8.26225 6.57385 8.37975 6.49213 8.49336C6.41041 8.60695 6.29481 8.71571 6.2043 8.77603C6.16598 8.80143 6.13498 8.83664 6.11438 8.87783C5.85991 9.38681 5.56022 9.81942 5.23795 10.1171C4.91757 10.4131 4.58526 10.5734 4.23439 10.5832C3.88353 10.5732 3.55173 10.4131 3.23135 10.1171C2.90908 9.81942 2.60887 9.38681 2.3544 8.87783C2.33379 8.83664 2.30281 8.80156 2.26449 8.77603C2.17397 8.71571 2.05837 8.60695 1.97665 8.49336C1.89493 8.37975 1.85314 8.26225 1.85314 8.20242C1.85314 8.05315 1.96846 7.93784 2.11772 7.93784H2.38231C2.52843 7.93781 2.64688 7.81939 2.64689 7.67326V7.39317C3.31287 7.38788 4.01933 7.3491 4.7279 6.94307Z" fill="black"/>
<path d="M3.62726 13.042L3.25317 13.4161L4.04683 14.2099C4.09644 14.2595 4.16372 14.2874 4.23387 14.2874C4.30402 14.2874 4.3713 14.2595 4.42092 14.2099L5.21457 13.4161L4.84048 13.042L4.23387 13.6487L3.62726 13.042Z" fill="black"/>
<path d="M3.99727 13.9048L3.20361 15.4924L3.6769 15.7291L4.47057 14.1415L3.99727 13.9048Z" fill="black"/>
<path d="M4.47049 13.9048L3.99719 14.1415L4.79085 15.7291L5.26414 15.4924L4.47049 13.9048Z" fill="black"/>
<path d="M8.99588 0C7.44454 0 6.04093 0.147858 5.00594 0.394291C4.48845 0.517508 4.06366 0.663321 3.74659 0.841809C3.42952 1.02032 3.17505 1.25471 3.17505 1.5875V3.17506H3.70422V2.30529C3.71893 2.31402 3.73157 2.32438 3.74659 2.33274C4.06366 2.51123 4.48845 2.65704 5.00594 2.78026C6.04093 3.02672 7.44454 3.17506 8.99588 3.17506C10.5472 3.17506 11.9508 3.02672 12.9858 2.78026C13.5033 2.65704 13.9281 2.51123 14.2452 2.33274C14.2602 2.32427 14.2728 2.31391 14.2875 2.30529V5.2918C14.2875 5.32431 14.231 5.43796 13.9858 5.57602C13.7405 5.7141 13.3513 5.85359 12.8633 5.96979C11.8874 6.20217 10.5132 6.35013 8.99588 6.35013H8.46672V6.87936H8.99588C10.5472 6.87936 11.9508 6.73095 12.9858 6.48449C13.5033 6.36127 13.9281 6.21546 14.2452 6.03697C14.2602 6.0285 14.2728 6.01821 14.2875 6.00958V8.99603C14.2875 9.02854 14.231 9.14219 13.9858 9.28025C13.7405 9.41833 13.3513 9.55788 12.8633 9.67409C11.8874 9.90647 10.5132 10.0544 8.99588 10.0544H8.46672V10.5836H8.99588C10.5472 10.5836 11.9508 10.4352 12.9858 10.1888C13.5033 10.0656 13.9281 9.91975 14.2452 9.74127C14.2602 9.7328 14.2728 9.7225 14.2875 9.71388V12.7003C14.2875 12.7328 14.231 12.8465 13.9858 12.9845C13.7405 13.1226 13.3513 13.2622 12.8633 13.3784C11.8874 13.6108 10.5132 13.7587 8.99588 13.7587V14.2879C10.5472 14.2879 11.9508 14.1395 12.9858 13.893C13.5033 13.7698 13.9281 13.624 14.2452 13.4456C14.5622 13.2671 14.8167 13.0331 14.8167 12.7003C14.8167 8.99605 14.8167 5.29177 14.8167 1.5875C14.8167 1.25471 14.5622 1.02032 14.2452 0.841809C13.9281 0.663321 13.5033 0.517508 12.9858 0.394291C11.9508 0.147858 10.5472 0 8.99588 0ZM8.99588 0.529167C10.5132 0.529167 11.8874 0.677122 12.8633 0.909505C13.3513 1.02571 13.7405 1.1647 13.9858 1.30276C14.231 1.44082 14.2875 1.55498 14.2875 1.5875C14.2875 1.62002 14.231 1.7337 13.9858 1.87178C13.7405 2.00984 13.3513 2.14935 12.8633 2.26556C11.8874 2.49794 10.5132 2.6459 8.99588 2.6459C7.47859 2.6459 6.1044 2.49794 5.12842 2.26556C4.64043 2.14935 4.25127 2.00984 4.00601 1.87178C3.76075 1.7337 3.70422 1.62002 3.70422 1.5875C3.70422 1.55498 3.76075 1.44082 4.00601 1.30276C4.25127 1.1647 4.64043 1.02571 5.12842 0.909505C6.1044 0.677122 7.47859 0.529167 8.99588 0.529167Z" fill="black"/>
</svg>