<svg width="36" height="36" viewBox="0 0 36 36" fill="none" xmlns="http://www.w3.org/2000/svg">
<path d="M4.5 31.5H31.5" stroke="#034737" strokeWidth="1.3" strokeLinecap="round" strokeLinejoin="round"/>
<path d="M5.15 10.5C5.15 10.141 4.85899 9.85 4.5 9.85C4.14101 9.85 3.85 10.141 3.85 10.5H5.15ZM14.15 10.5C14.15 10.141 13.859 9.85 13.5 9.85C13.141 9.85 12.85 10.141 12.85 10.5H14.15ZM14.15 12C14.15 11.641 13.859 11.35 13.5 11.35C13.141 11.35 12.85 11.641 12.85 12H14.15ZM23.15 10.5C23.15 10.141 22.859 9.85 22.5 9.85C22.141 9.85 21.85 10.141 21.85 10.5H23.15ZM23.15 12C23.15 11.641 22.859 11.35 22.5 11.35C22.141 11.35 21.85 11.641 21.85 12H23.15ZM31.5 10.5H32.15C32.15 10.141 31.859 9.85 31.5 9.85V10.5ZM4.5 10.5L3.91862 10.2093C3.81788 10.4108 3.82864 10.6501 3.94708 10.8417C4.06551 11.0334 4.27472 11.15 4.5 11.15V10.5ZM7.5 4.5V3.85C7.2538 3.85 7.02873 3.9891 6.91862 4.20931L7.5 4.5ZM28.5 4.5L29.0814 4.20931C28.9713 3.9891 28.7462 3.85 28.5 3.85V4.5ZM30.9186 10.7907C31.0792 11.1118 31.4696 11.2419 31.7907 11.0814C32.1118 10.9208 32.2419 10.5304 32.0814 10.2093L30.9186 10.7907ZM3.85 10.5V12H5.15V10.5H3.85ZM3.85 12C3.85 14.8443 6.15573 17.15 9 17.15V15.85C6.8737 15.85 5.15 14.1263 5.15 12H3.85ZM9 17.15C11.8443 17.15 14.15 14.8443 14.15 12H12.85C12.85 14.1263 11.1263 15.85 9 15.85V17.15ZM14.15 12V10.5H12.85V12H14.15ZM12.85 12C12.85 14.8443 15.1557 17.15 18 17.15V15.85C15.8737 15.85 14.15 14.1263 14.15 12H12.85ZM18 17.15C20.8443 17.15 23.15 14.8443 23.15 12H21.85C21.85 14.1263 20.1263 15.85 18 15.85V17.15ZM23.15 12V10.5H21.85V12H23.15ZM21.85 12C21.85 14.8443 24.1557 17.15 27 17.15V15.85C24.8737 15.85 23.15 14.1263 23.15 12H21.85ZM27 17.15C29.8443 17.15 32.15 14.8443 32.15 12H30.85C30.85 14.1263 29.1263 15.85 27 15.85V17.15ZM32.15 12V10.5H30.85V12H32.15ZM31.5 9.85H4.5V11.15H31.5V9.85ZM5.08138 10.7907L8.08138 4.79069L6.91862 4.20931L3.91862 10.2093L5.08138 10.7907ZM7.5 5.15H28.5V3.85H7.5V5.15ZM27.9186 4.79069L30.9186 10.7907L32.0814 10.2093L29.0814 4.20931L27.9186 4.79069Z" fill="#034737"/>
<path d="M7.5 31.4984V16.2734" stroke="#034737" strokeWidth="1.3" strokeLinecap="round" strokeLinejoin="round"/>
<path d="M28.5 31.4984V16.2734" stroke="#034737" strokeWidth="1.3" strokeLinecap="round" strokeLinejoin="round"/>
<path d="M13.5 31.5V25.5C13.5 23.8431 14.8431 22.5 16.5 22.5H19.5C21.1569 22.5 22.5 23.8431 22.5 25.5V31.5" stroke="#034737" strokeWidth="1.3" strokeLinecap="round" strokeLinejoin="round"/>
</svg>
