<svg width="15" height="17" viewBox="0 0 15 17" fill="none" xmlns="http://www.w3.org/2000/svg">
<path fill-rule="evenodd" clip-rule="evenodd" d="M3.80448 6.96855C3.8589 6.91412 3.9235 6.87095 3.99459 6.84149C4.06569 6.81204 4.1419 6.79688 4.21886 6.79688C4.29582 6.79688 4.37202 6.81204 4.44312 6.84149C4.51422 6.87095 4.57882 6.91412 4.63323 6.96855L7.50011 9.83542L10.367 6.96855C10.4214 6.91413 10.486 6.87096 10.5571 6.84151C10.6282 6.81206 10.7044 6.79691 10.7814 6.79691C10.8583 6.79691 10.9345 6.81206 11.0056 6.84151C11.0767 6.87096 11.1413 6.91413 11.1957 6.96855C11.2502 7.02296 11.2933 7.08756 11.3228 7.15866C11.3522 7.22976 11.3674 7.30597 11.3674 7.38292C11.3674 7.45988 11.3522 7.53608 11.3228 7.60718C11.2933 7.67828 11.2502 7.74288 11.1957 7.7973L7.91448 11.0785C7.86007 11.133 7.79547 11.1761 7.72437 11.2056C7.65327 11.2351 7.57707 11.2502 7.50011 11.2502C7.42315 11.2502 7.34694 11.2351 7.27584 11.2056C7.20475 11.1761 7.14015 11.133 7.08573 11.0785L3.80448 7.7973C3.75006 7.74289 3.70689 7.67829 3.67743 7.60719C3.64797 7.53609 3.63281 7.45988 3.63281 7.38292C3.63281 7.30596 3.64797 7.22976 3.67743 7.15866C3.70689 7.08756 3.75006 7.02296 3.80448 6.96855Z" fill="#9FA4AB"/>
</svg>
