<svg width="18" height="18" viewBox="0 0 18 18" fill="none" xmlns="http://www.w3.org/2000/svg">
<path fill-rule="evenodd" clip-rule="evenodd" d="M11.7435 6.25553C10.9172 5.42925 9.72072 5.15527 8.325 5.15527H6.84377C6.84631 3.93822 7.09658 3.30193 7.44975 2.94877C7.80472 2.5938 8.44572 2.34277 9.675 2.34277H12.825C14.0543 2.34277 14.6953 2.5938 15.0503 2.94877C15.4052 3.30374 15.6562 3.94474 15.6562 5.17402V8.32402C15.6562 9.5533 15.4052 10.1943 15.0503 10.5493C14.6971 10.9024 14.0608 11.1527 12.8437 11.1553V9.67402C12.8437 8.2783 12.5698 7.0818 11.7435 6.25553ZM12.8437 12.8428C14.2314 12.8403 15.4209 12.5651 16.2435 11.7425C17.0698 10.9162 17.3437 9.71974 17.3437 8.32402V5.17402C17.3437 3.7783 17.0698 2.5818 16.2435 1.75553C15.4172 0.92925 14.2207 0.655273 12.825 0.655273H9.675C8.27928 0.655273 7.08278 0.92925 6.2565 1.75553C5.43392 2.57811 5.15871 3.7676 5.15627 5.15529C3.76857 5.15774 2.57908 5.43295 1.7565 6.25553C0.930226 7.0818 0.65625 8.2783 0.65625 9.67402V12.824C0.65625 14.2197 0.930226 15.4162 1.7565 16.2425C2.58278 17.0688 3.77928 17.3428 5.175 17.3428H8.325C9.72072 17.3428 10.9172 17.0688 11.7435 16.2425C12.5661 15.4199 12.8413 14.2304 12.8437 12.8428ZM6 6.84277L5.175 6.84277C3.94572 6.84277 3.30472 7.0938 2.94975 7.44877C2.59477 7.80374 2.34375 8.44474 2.34375 9.67402V12.824C2.34375 14.0533 2.59477 14.6943 2.94975 15.0493C3.30472 15.4042 3.94572 15.6553 5.175 15.6553H8.325C9.55428 15.6553 10.1953 15.4042 10.5503 15.0493C10.9052 14.6943 11.1562 14.0533 11.1562 12.824V11.999V9.67402C11.1562 8.44474 10.9052 7.80374 10.5503 7.44877C10.1953 7.0938 9.55428 6.84277 8.325 6.84277H6Z" fill="black" fill-opacity="0.44"/>
</svg>
