<svg width="20" height="20" viewBox="0 0 20 20" fill="none" xmlns="http://www.w3.org/2000/svg">
<path fill-rule="evenodd" clip-rule="evenodd" d="M15.1338 0.534539C16.1859 0.431265 17.1928 0.90077 18.1466 1.85464C19.1005 2.80851 19.57 3.81537 19.4667 4.86747C19.3683 5.8704 18.767 6.67681 18.1466 7.29713L17.2412 8.20256C17.2193 8.22687 17.1962 8.24994 17.1721 8.27171L11.58 13.8638L11.569 13.8746C11.3521 14.0845 11.078 14.2601 10.8224 14.3885C10.569 14.5159 10.2585 14.6348 9.94964 14.679L7.4413 15.0373L7.43653 15.038L7.43653 15.038C6.73601 15.1344 6.04223 14.9447 5.5482 14.4526C5.05288 13.9593 4.86115 13.2643 4.9642 12.5584L4.96449 12.5564L5.32188 10.0547L5.32213 10.0529C5.36593 9.74101 5.48406 9.4286 5.61274 9.17258C5.74179 8.91582 5.92037 8.63841 6.13747 8.42131L12.7041 1.85464C13.3245 1.23431 14.1309 0.632986 15.1338 0.534539ZM16.2918 6.50032L16.8208 5.97131C17.3338 5.4583 17.5658 5.03971 17.6007 4.6843C17.6308 4.37808 17.5336 3.89326 16.8208 3.18047C16.108 2.46767 15.6232 2.37051 15.317 2.40057C14.9616 2.43546 14.543 2.66746 14.03 3.18047L13.5007 3.70978C14.0074 4.97835 15.0157 5.98782 16.2918 6.50032ZM12.0926 5.11786C12.7298 6.29883 13.7011 7.26907 14.8842 7.90789L10.2614 12.5307C10.2178 12.5716 10.1187 12.6437 9.98041 12.7132C9.83596 12.7858 9.72564 12.8169 9.68447 12.8228L7.18091 13.1805L7.17896 13.1807C6.97259 13.2087 6.89182 13.1445 6.87133 13.1241C6.85253 13.1054 6.79 13.0305 6.81961 12.8287L6.82013 12.8251L7.17846 10.3168L7.17889 10.3138C7.18529 10.2679 7.21695 10.156 7.28803 10.0146C7.35898 9.87345 7.43041 9.78003 7.4633 9.74713L12.0926 5.11786ZM2.35922 2.35941C3.55856 1.16008 5.3255 0.730658 7.5013 0.730658H9.16797C9.68574 0.730658 10.1055 1.15039 10.1055 1.66816C10.1055 2.18592 9.68574 2.60566 9.16797 2.60566H7.5013C5.51043 2.60566 4.36071 3.00957 3.68505 3.68524C3.00938 4.3609 2.60547 5.51062 2.60547 7.50149V12.5015C2.60547 14.4924 3.00938 15.6421 3.68505 16.3177C4.36071 16.9934 5.51043 17.3973 7.5013 17.3973H12.5013C14.4922 17.3973 15.6419 16.9934 16.3176 16.3177C16.9932 15.6421 17.3971 14.4924 17.3971 12.5015V10.8348C17.3971 10.3171 17.8169 9.89732 18.3346 9.89732C18.8524 9.89732 19.2721 10.3171 19.2721 10.8348V12.5015C19.2721 14.6773 18.8427 16.4442 17.6434 17.6436C16.444 18.8429 14.6771 19.2723 12.5013 19.2723H7.5013C5.3255 19.2723 3.55856 18.8429 2.35922 17.6436C1.15989 16.4442 0.730469 14.6773 0.730469 12.5015V7.50149C0.730469 5.32569 1.15989 3.55875 2.35922 2.35941Z" fill="black" fill-opacity="0.54"/>
</svg>
