<svg width="14" height="14" viewBox="0 0 14 14" fill="none" xmlns="http://www.w3.org/2000/svg">
<path d="M11.9069 9.25051C11.9107 9.15272 11.8944 9.05519 11.8591 8.96395C11.8237 8.87271 11.77 8.78969 11.7012 8.72004C11.4748 8.50129 11.0822 8.40723 10.3887 8.42035C9.67491 8.45139 8.96558 8.54953 8.27014 8.71348C7.83299 8.80878 7.402 8.93041 6.97952 9.07769C6.65139 9.18707 6.42498 9.26473 6.16139 9.26473H6.15155C6.06708 9.26929 5.98281 9.25267 5.90641 9.21638C5.83 9.18009 5.76387 9.12527 5.71405 9.05691C5.66645 8.98137 5.63808 8.89532 5.63141 8.80628C5.62474 8.71724 5.63996 8.62793 5.67577 8.54613C5.85046 8.06942 5.91733 7.55991 5.87155 7.05426C5.79936 6.34879 5.44827 5.94301 4.90686 5.93863C4.82227 5.93344 4.73754 5.94615 4.65819 5.97593C4.57885 6.0057 4.50668 6.05188 4.44639 6.11144C4.24842 6.31707 4.24514 6.62988 4.25936 6.9591C4.27139 7.25879 3.94545 7.56394 3.75077 7.7466C3.31327 8.16004 2.97639 8.76379 2.90311 9.28441C2.89217 9.36207 2.88452 9.43316 2.87686 9.50316C2.87533 9.61901 2.85118 9.73345 2.80577 9.84004C2.58749 10.0368 2.35777 10.2205 2.1178 10.3902C2.09458 10.4074 2.07499 10.429 2.06016 10.4537C2.04533 10.4785 2.03555 10.506 2.03139 10.5346C2.03139 10.5619 1.9428 11.2061 2.59467 12.0341C3.0617 12.628 3.72889 12.896 4.15873 12.896H4.17405C4.23845 12.902 4.30335 12.8926 4.36344 12.8686C4.42352 12.8447 4.47706 12.8068 4.51967 12.7582C4.62905 12.6061 5.05233 12.1468 5.21967 12.0571C5.64295 11.8285 6.06952 11.6196 6.45342 11.45C7.36123 11.4325 9.67889 11.4172 10.2039 11.5474C10.2919 11.5694 10.3823 11.5805 10.473 11.5802C10.8678 11.5802 11.279 11.3822 11.4059 10.9797C11.4494 10.8648 11.4681 10.742 11.461 10.6193C11.4538 10.4966 11.4209 10.3768 11.3644 10.2677C11.3227 10.1938 11.2695 10.127 11.2069 10.0697C11.7701 9.8816 11.9047 9.53379 11.9069 9.25051ZM10.9892 10.8485C10.9126 11.0902 10.5692 11.1875 10.31 11.123C9.87905 11.0136 8.54577 10.9983 7.55373 11.0016L7.65655 10.9633C8.5915 10.6081 9.56168 10.3536 10.5506 10.2043C10.7694 10.2677 10.9159 10.3618 10.9805 10.4788C11.0071 10.5365 11.0216 10.5991 11.0231 10.6627C11.0246 10.7263 11.0131 10.7895 10.9892 10.8485ZM10.753 9.73394C8.9953 10.003 8.06233 10.3508 7.50452 10.5586L7.33936 10.6089C6.54042 10.9087 5.76279 11.2624 5.01186 11.6677C4.75702 11.8044 4.33373 12.2879 4.1992 12.4541C4.02092 12.4793 3.39092 12.336 2.93811 11.7596C2.53233 11.2444 2.46998 10.8408 2.46342 10.6757C2.66905 10.5214 3.05842 10.2229 3.15358 10.1004C3.26295 9.95269 3.28811 9.77222 3.31436 9.54472C3.32092 9.48347 3.32858 9.41676 3.33842 9.34348C3.39858 8.92129 3.68514 8.40723 4.05264 8.06379C4.28561 7.84504 4.71983 7.43816 4.69795 6.93832C4.69139 6.78519 4.67936 6.50082 4.76358 6.41332C4.77342 6.40348 4.80186 6.37394 4.90248 6.37394C5.20764 6.37394 5.38702 6.61894 5.43514 7.09691C5.47677 7.53584 5.42036 7.97854 5.26998 8.39301C5.20876 8.54078 5.18472 8.70132 5.19997 8.86055C5.21523 9.01977 5.26931 9.17283 5.35748 9.30629C5.44708 9.43264 5.56635 9.53504 5.70482 9.60447C5.84329 9.67389 5.9967 9.70821 6.15155 9.70441C6.4928 9.70441 6.75639 9.61801 7.1217 9.49551C7.53184 9.35174 7.95044 9.23339 8.37514 9.14113C9.04175 8.98317 9.72181 8.88868 10.4062 8.85894C10.9378 8.8491 11.2703 8.90707 11.3972 9.03285C11.4246 9.06174 11.4453 9.09633 11.4577 9.13415C11.4702 9.17196 11.4742 9.21207 11.4694 9.2516C11.4683 9.3391 11.4661 9.62457 10.753 9.73394Z" fill="#034737"/>
<path d="M4.125 4.81187C4.14141 4.81187 5.81156 5.06125 6.50062 5.75031C7.18969 6.43937 7.43687 8.10734 7.43687 8.12375C7.43687 8.18177 7.45992 8.23741 7.50095 8.27843C7.54197 8.31945 7.59761 8.3425 7.65562 8.3425C7.71364 8.3425 7.76928 8.31945 7.8103 8.27843C7.85133 8.23741 7.87437 8.18177 7.87437 8.12375C7.87437 8.10734 8.12375 6.43719 8.81281 5.74813C9.50187 5.05906 11.1698 4.81187 11.1862 4.81187C11.2443 4.81187 11.2999 4.78883 11.3409 4.7478C11.382 4.70678 11.405 4.65114 11.405 4.59312C11.405 4.53511 11.382 4.47947 11.3409 4.43845C11.2999 4.39742 11.2443 4.37437 11.1862 4.37437C11.1698 4.37437 9.49969 4.125 8.81062 3.43594C8.12156 2.74688 7.87437 1.07891 7.87437 1.0625C7.87437 1.00448 7.85133 0.948844 7.8103 0.90782C7.76928 0.866797 7.71364 0.84375 7.65562 0.84375C7.59761 0.84375 7.54197 0.866797 7.50095 0.90782C7.45992 0.948844 7.43687 1.00448 7.43687 1.0625C7.43687 1.07891 7.1875 2.74906 6.49844 3.43813C5.80937 4.12719 4.14141 4.37437 4.125 4.37437C4.06698 4.37437 4.01134 4.39742 3.97032 4.43845C3.9293 4.47947 3.90625 4.53511 3.90625 4.59312C3.90625 4.65114 3.9293 4.70678 3.97032 4.7478C4.01134 4.78883 4.06698 4.81187 4.125 4.81187ZM6.81016 3.74984C7.22359 3.33641 7.49266 2.65609 7.65562 2.09719C7.81859 2.65938 8.09313 3.33641 8.50109 3.74984C8.90906 4.16328 9.59484 4.43234 10.1537 4.59531C9.59047 4.75828 8.91453 5.03281 8.50109 5.44078C8.08766 5.84875 7.81859 6.52906 7.65562 7.09125C7.49266 6.52906 7.21812 5.85203 6.81016 5.43859C6.40219 5.02516 5.71641 4.75609 5.1575 4.59312C5.72078 4.43016 6.39672 4.16109 6.81016 3.74766V3.74984Z" fill="#034737"/>
<path d="M9.62088 2.84354C9.6788 2.84329 9.73427 2.82009 9.7751 2.77901L10.2126 2.34151C10.2484 2.29966 10.2672 2.24583 10.265 2.19078C10.2629 2.13572 10.2401 2.0835 10.2011 2.04454C10.1622 2.00558 10.1099 1.98276 10.0549 1.98063C9.99984 1.97851 9.94601 1.99723 9.90416 2.03307L9.46666 2.47057C9.43625 2.50116 9.41557 2.54005 9.4072 2.58237C9.39884 2.62468 9.40317 2.66852 9.41965 2.70838C9.43613 2.74823 9.46403 2.78233 9.49983 2.80638C9.53564 2.83043 9.57775 2.84336 9.62088 2.84354ZM9.46666 6.40807C9.42592 6.44905 9.40305 6.5045 9.40305 6.56229C9.40305 6.62008 9.42592 6.67552 9.46666 6.71651L9.90416 7.15401C9.94601 7.18984 9.99984 7.20857 10.0549 7.20644C10.1099 7.20432 10.1622 7.18149 10.2011 7.14254C10.2401 7.10358 10.2629 7.05135 10.265 6.9963C10.2672 6.94125 10.2484 6.88742 10.2126 6.84557L9.7751 6.40807C9.73412 6.36733 9.67867 6.34446 9.62088 6.34446C9.56309 6.34446 9.50765 6.36733 9.46666 6.40807ZM5.52916 2.77901C5.57101 2.81484 5.62484 2.83357 5.67989 2.83144C5.73495 2.82932 5.78717 2.80649 5.82613 2.76754C5.86509 2.72858 5.88791 2.67635 5.89004 2.6213C5.89216 2.56625 5.87344 2.51242 5.8376 2.47057L5.4001 2.03307C5.35825 1.99723 5.30442 1.97851 5.24937 1.98063C5.19432 1.98276 5.14209 2.00558 5.10313 2.04454C5.06417 2.0835 5.04135 2.13572 5.03923 2.19078C5.0371 2.24583 5.05583 2.29966 5.09166 2.34151L5.52916 2.77901Z" fill="#034737"/>
</svg>
