<svg width="32" height="32" viewBox="0 0 32 32" fill="none" xmlns="http://www.w3.org/2000/svg">
<path fill-rule="evenodd" clip-rule="evenodd" d="M10.5 6.75C9.24022 6.75 8.03204 7.25045 7.14124 8.14124C6.25044 9.03204 5.75 10.2402 5.75 11.5V20.5C5.75 21.1238 5.87286 21.7415 6.11157 22.3177C6.35028 22.894 6.70016 23.4177 7.14124 23.8588C8.03204 24.7496 9.24022 25.25 10.5 25.25H21.5C22.1238 25.25 22.7415 25.1271 23.3177 24.8884C23.894 24.6497 24.4177 24.2998 24.8588 23.8588C25.2998 23.4177 25.6497 22.894 25.8884 22.3177C26.1271 21.7415 26.25 21.1238 26.25 20.5V11.5C26.25 10.2402 25.7496 9.03204 24.8588 8.14124C23.968 7.25045 22.7598 6.75 21.5 6.75H10.5ZM7.25 11.5C7.25 10.638 7.59241 9.8114 8.2019 9.2019C8.8114 8.59241 9.63805 8.25 10.5 8.25H21.5C22.362 8.25 23.1886 8.59241 23.7981 9.2019C24.4076 9.8114 24.75 10.638 24.75 11.5V20.5C24.75 21.362 24.4076 22.1886 23.7981 22.7981C23.1886 23.4076 22.362 23.75 21.5 23.75H10.5C9.63805 23.75 8.8114 23.4076 8.2019 22.7981C7.59241 22.1886 7.25 21.362 7.25 20.5V11.5ZM11.5 10.75C10.7707 10.75 10.0712 11.0397 9.55546 11.5555C9.03973 12.0712 8.75 12.7707 8.75 13.5V18.5C8.75 19.2293 9.03973 19.9288 9.55546 20.4445C10.0712 20.9603 10.7707 21.25 11.5 21.25H12C12.7293 21.25 13.4288 20.9603 13.9445 20.4445C14.4603 19.9288 14.75 19.2293 14.75 18.5V17C14.75 16.31 14.19 15.75 13.5 15.75H12.5C12.3011 15.75 12.1103 15.829 11.9697 15.9697C11.829 16.1103 11.75 16.3011 11.75 16.5C11.75 16.6989 11.829 16.8897 11.9697 17.0303C12.1103 17.171 12.3011 17.25 12.5 17.25H13.25V18.5C13.25 19.19 12.69 19.75 12 19.75H11.5C10.81 19.75 10.25 19.19 10.25 18.5V13.5C10.25 12.81 10.81 12.25 11.5 12.25H12C12.69 12.25 13.25 12.81 13.25 13.5V14C13.25 14.1989 13.329 14.3897 13.4697 14.5303C13.6103 14.671 13.8011 14.75 14 14.75C14.1989 14.75 14.3897 14.671 14.5303 14.5303C14.671 14.3897 14.75 14.1989 14.75 14V13.5C14.75 12.7707 14.4603 12.0712 13.9445 11.5555C13.4288 11.0397 12.7293 10.75 12 10.75H11.5ZM18.25 12C18.25 11.31 18.81 10.75 19.5 10.75H22C22.69 10.75 23.25 11.31 23.25 12V12.5C23.25 12.6989 23.171 12.8897 23.0303 13.0303C22.8897 13.171 22.6989 13.25 22.5 13.25C22.3011 13.25 22.1103 13.171 21.9697 13.0303C21.829 12.8897 21.75 12.6989 21.75 12.5V12.25H19.75V15.75H21.5C21.6989 15.75 21.8897 15.829 22.0303 15.9697C22.171 16.1103 22.25 16.3011 22.25 16.5C22.25 16.6989 22.171 16.8897 22.0303 17.0303C21.8897 17.171 21.6989 17.25 21.5 17.25H19.75V20.5C19.75 20.6989 19.671 20.8897 19.5303 21.0303C19.3897 21.171 19.1989 21.25 19 21.25C18.8011 21.25 18.6103 21.171 18.4697 21.0303C18.329 20.8897 18.25 20.6989 18.25 20.5V12ZM17.25 11.5C17.25 11.3011 17.171 11.1103 17.0303 10.9697C16.8897 10.829 16.6989 10.75 16.5 10.75C16.3011 10.75 16.1103 10.829 15.9697 10.9697C15.829 11.1103 15.75 11.3011 15.75 11.5V20.5C15.75 20.6989 15.829 20.8897 15.9697 21.0303C16.1103 21.171 16.3011 21.25 16.5 21.25C16.6989 21.25 16.8897 21.171 17.0303 21.0303C17.171 20.8897 17.25 20.6989 17.25 20.5V11.5Z" fill="#034737"/>
</svg>
