<svg width="235" height="235" viewBox="0 0 235 235" fill="none" xmlns="http://www.w3.org/2000/svg">
<path d="M168.73 141C169.67 133.245 170.375 125.49 170.375 117.5C170.375 109.51 169.67 101.755 168.73 94H208.445C210.325 101.52 211.5 109.392 211.5 117.5C211.5 125.608 210.325 133.48 208.445 141M147.932 206.33C154.982 193.287 160.388 179.188 164.148 164.5H198.81C187.426 184.102 169.366 198.951 147.932 206.33ZM144.995 141H90.005C88.83 133.245 88.125 125.49 88.125 117.5C88.125 109.51 88.83 101.637 90.005 94H144.995C146.052 101.637 146.875 109.51 146.875 117.5C146.875 125.49 146.052 133.245 144.995 141ZM117.5 211.03C107.748 196.93 99.875 181.302 95.0575 164.5H139.943C135.125 181.302 127.252 196.93 117.5 211.03ZM70.5 70.5H36.19C47.454 50.8426 65.5022 35.9696 86.95 28.67C79.9 41.7125 74.6125 55.8125 70.5 70.5ZM36.19 164.5H70.5C74.6125 179.188 79.9 193.287 86.95 206.33C65.5446 198.955 47.5204 184.101 36.19 164.5ZM26.555 141C24.675 133.48 23.5 125.608 23.5 117.5C23.5 109.392 24.675 101.52 26.555 94H66.27C65.33 101.755 64.625 109.51 64.625 117.5C64.625 125.49 65.33 133.245 66.27 141M117.5 23.8525C127.252 37.9525 135.125 53.6975 139.943 70.5H95.0575C99.875 53.6975 107.748 37.9525 117.5 23.8525ZM198.81 70.5H164.148C160.464 55.9489 155.019 41.9017 147.932 28.67C169.552 36.0725 187.53 50.995 198.81 70.5ZM117.5 0C52.5225 0 0 52.875 0 117.5C0 148.663 12.3794 178.55 34.415 200.585C45.3258 211.496 58.2789 220.151 72.5347 226.056C86.7904 231.961 102.07 235 117.5 235C148.663 235 178.55 222.621 200.585 200.585C222.621 178.55 235 148.663 235 117.5C235 102.07 231.961 86.7904 226.056 72.5347C220.151 58.2789 211.496 45.3258 200.585 34.415C189.674 23.5041 176.721 14.8491 162.465 8.94416C148.21 3.03923 132.93 0 117.5 0Z" fill="#2DA771"/>
</svg>
