<svg width="32" height="32" viewBox="0 0 32 32" fill="none" xmlns="http://www.w3.org/2000/svg">
<path fill-rule="evenodd" clip-rule="evenodd" d="M6.75 11.5C6.75 10.2402 7.25045 9.03204 8.14124 8.14124C9.03204 7.25045 10.2402 6.75 11.5 6.75H20.5C21.1238 6.75 21.7415 6.87286 22.3177 7.11157C22.894 7.35028 23.4177 7.70016 23.8588 8.14124C24.2998 8.58232 24.6497 9.10596 24.8884 9.68225C25.1271 10.2586 25.25 10.8762 25.25 11.5V20.5C25.25 21.1238 25.1271 21.7415 24.8884 22.3177C24.6497 22.894 24.2998 23.4177 23.8588 23.8588C23.4177 24.2998 22.894 24.6497 22.3177 24.8884C21.7415 25.1271 21.1238 25.25 20.5 25.25H11.5C10.2402 25.25 9.03204 24.7496 8.14124 23.8588C7.25045 22.968 6.75 21.7598 6.75 20.5V11.5ZM11.5 8.25C10.638 8.25 9.8114 8.59241 9.2019 9.2019C8.59241 9.8114 8.25 10.638 8.25 11.5V20.5C8.25 21.126 8.427 21.71 8.733 22.206L15.556 15.384C16.0717 14.8683 16.7712 14.5786 17.5005 14.5786C18.2298 14.5786 18.9293 14.8683 19.445 15.384L23.75 19.689V11.5C23.75 10.638 23.4076 9.8114 22.7981 9.2019C22.1886 8.59241 21.362 8.25 20.5 8.25H11.5ZM11.5 23.75C10.874 23.75 10.29 23.573 9.794 23.267L16.616 16.445C16.7321 16.3289 16.8699 16.2368 17.0216 16.1739C17.1732 16.1111 17.3358 16.0788 17.5 16.0788C17.6642 16.0788 17.8268 16.1111 17.9784 16.1739C18.1301 16.2368 18.2679 16.3289 18.384 16.445L23.554 21.615C23.3253 22.2411 22.9097 22.7817 22.3634 23.1637C21.8171 23.5456 21.1666 23.7503 20.5 23.75H11.5ZM12 14C12.5304 14 13.0391 13.7893 13.4142 13.4142C13.7893 13.0391 14 12.5304 14 12C14 11.4696 13.7893 10.9609 13.4142 10.5858C13.0391 10.2107 12.5304 10 12 10C11.4696 10 10.9609 10.2107 10.5858 10.5858C10.2107 10.9609 10 11.4696 10 12C10 12.5304 10.2107 13.0391 10.5858 13.4142C10.9609 13.7893 11.4696 14 12 14Z" fill="#034737"/>
</svg>
