<svg width="32" height="32" viewBox="0 0 32 32" fill="none" xmlns="http://www.w3.org/2000/svg">
<path fill-rule="evenodd" clip-rule="evenodd" d="M10.5 7.25C9.63805 7.25 8.8114 7.59241 8.2019 8.2019C7.59241 8.8114 7.25 9.63805 7.25 10.5V18.5C7.25 19.0967 7.48705 19.669 7.90901 20.091C8.33097 20.5129 8.90326 20.75 9.5 20.75H10C10.1989 20.75 10.3897 20.829 10.5303 20.9697C10.671 21.1103 10.75 21.3011 10.75 21.5C10.75 21.6989 10.671 21.8897 10.5303 22.0303C10.3897 22.171 10.1989 22.25 10 22.25H9.5C8.50544 22.25 7.55161 21.8549 6.84835 21.1517C6.14509 20.4484 5.75 19.4946 5.75 18.5V10.5C5.75 9.24022 6.25044 8.03204 7.14124 7.14124C8.03204 6.25045 9.24022 5.75 10.5 5.75H13.058C13.6353 5.74974 14.1981 5.93118 14.6665 6.26861C15.135 6.60603 15.4854 7.08233 15.668 7.63L15.756 7.895C15.926 8.405 16.403 8.75 16.941 8.75H22.5C23.4946 8.75 24.4484 9.14509 25.1517 9.84835C25.8549 10.5516 26.25 11.5054 26.25 12.5V13C26.25 13.1989 26.171 13.3897 26.0303 13.5303C25.8897 13.671 25.6989 13.75 25.5 13.75C25.3011 13.75 25.1103 13.671 24.9697 13.5303C24.829 13.3897 24.75 13.1989 24.75 13V12.5C24.75 11.9033 24.5129 11.331 24.091 10.909C23.669 10.4871 23.0967 10.25 22.5 10.25H16.942C16.3647 10.2503 15.8019 10.0688 15.3335 9.7314C14.865 9.39397 14.5146 8.91767 14.332 8.37L14.244 8.105C14.1611 7.85603 14.0019 7.63948 13.789 7.48602C13.5762 7.33256 13.3204 7.24999 13.058 7.25H10.5ZM16.5 20C16.8978 20 17.2794 19.842 17.5607 19.5607C17.842 19.2794 18 18.8978 18 18.5C18 18.1022 17.842 17.7206 17.5607 17.4393C17.2794 17.158 16.8978 17 16.5 17C16.1022 17 15.7206 17.158 15.4393 17.4393C15.158 17.7206 15 18.1022 15 18.5C15 18.8978 15.158 19.2794 15.4393 19.5607C15.7206 19.842 16.1022 20 16.5 20ZM21.116 20.944C21.2321 20.8279 21.3699 20.7358 21.5216 20.6729C21.6732 20.6101 21.8358 20.5778 22 20.5778C22.1642 20.5778 22.3268 20.6101 22.4784 20.6729C22.6301 20.7358 22.7679 20.8279 22.884 20.944L24.554 22.614C24.3255 23.2403 23.9099 23.7811 23.3636 24.1632C22.8173 24.5453 22.1667 24.7502 21.5 24.75H17.31L21.116 20.944ZM15.386 24.554C14.7597 24.3255 14.2189 23.9099 13.8368 23.3636C13.4547 22.8173 13.2498 22.1667 13.25 21.5V18.5C13.25 17.638 13.5924 16.8114 14.2019 16.2019C14.8114 15.5924 15.638 15.25 16.5 15.25H21.5C22.362 15.25 23.1886 15.5924 23.7981 16.2019C24.4076 16.8114 24.75 17.638 24.75 18.5V20.69L23.945 19.884C23.6896 19.6285 23.3864 19.4258 23.0527 19.2875C22.7189 19.1493 22.3612 19.0781 22 19.0781C21.6388 19.0781 21.2811 19.1493 20.9473 19.2875C20.6136 19.4258 20.3104 19.6285 20.055 19.884L15.386 24.554ZM16.5 13.75C15.2402 13.75 14.032 14.2504 13.1412 15.1412C12.2504 16.032 11.75 17.2402 11.75 18.5V21.5C11.75 22.7598 12.2504 23.968 13.1412 24.8588C14.032 25.7496 15.2402 26.25 16.5 26.25H21.5C22.7598 26.25 23.968 25.7496 24.8588 24.8588C25.7496 23.968 26.25 22.7598 26.25 21.5V18.5C26.25 17.2402 25.7496 16.032 24.8588 15.1412C23.968 14.2504 22.7598 13.75 21.5 13.75H16.5Z" fill="#034737"/>
</svg>
