<svg width="25" height="24" viewBox="0 0 25 24" fill="none" xmlns="http://www.w3.org/2000/svg">
<path fill-rule="evenodd" clip-rule="evenodd" d="M21.3321 3.46976C20.2632 2.40112 18.8136 1.80078 17.3021 1.80078C15.7906 1.80078 14.341 2.40112 13.2721 3.46976L10.2721 6.46976C9.65584 7.08596 9.18909 7.83525 8.90771 8.66004C8.62633 9.48483 8.53781 10.3632 8.64897 11.2275C8.76013 12.0919 9.068 12.9192 9.54891 13.646C10.0298 14.3727 10.671 14.9795 11.4231 15.4198C11.5947 15.5204 11.7992 15.5488 11.9917 15.4986C12.0871 15.4738 12.1766 15.4304 12.2551 15.371C12.3337 15.3115 12.3998 15.2372 12.4496 15.1523C12.4994 15.0673 12.532 14.9733 12.5456 14.8758C12.5591 14.7782 12.5533 14.6789 12.5284 14.5836C12.5036 14.4883 12.4602 14.3988 12.4008 14.3202C12.3414 14.2417 12.2671 14.1756 12.1821 14.1258C11.6283 13.8009 11.1563 13.3536 10.8022 12.818C10.4481 12.2825 10.2214 11.673 10.1393 11.0362C10.0572 10.3995 10.1221 9.75241 10.3288 9.1446C10.5356 8.53679 10.8788 7.9844 11.3321 7.52976L14.3321 4.52976C14.7221 4.13974 15.1851 3.83035 15.6947 3.61927C16.2043 3.40819 16.7505 3.29955 17.3021 3.29955C17.8537 3.29955 18.3999 3.40819 18.9094 3.61927C19.419 3.83035 19.8821 4.13974 20.2721 4.52976C20.6621 4.91979 20.9715 5.38282 21.1826 5.89241C21.3937 6.40201 21.5023 6.94818 21.5023 7.49976C21.5023 8.05134 21.3937 8.59752 21.1826 9.10712C20.9715 9.61671 20.6621 10.0797 20.2721 10.4698L19.2721 11.4698L18.7721 11.9698C18.6396 12.1119 18.5675 12.3 18.5709 12.4943C18.5743 12.6886 18.6531 12.874 18.7905 13.0114C18.9279 13.1488 19.1133 13.2275 19.3076 13.2309C19.5019 13.2344 19.6899 13.1622 19.8321 13.0298L20.3321 12.5298L21.3321 11.5298C22.4007 10.4608 23.0011 9.01125 23.0011 7.49976C23.0011 5.98828 22.4007 4.53868 21.3321 3.46976ZM14.1821 8.57976C14.0971 8.52993 14.0032 8.49731 13.9056 8.48379C13.808 8.47026 13.7088 8.47608 13.6134 8.50092C13.5181 8.52576 13.4286 8.56913 13.3501 8.62856C13.2715 8.68798 13.2054 8.7623 13.1556 8.84726C13.1058 8.93223 13.0731 9.02618 13.0596 9.12375C13.0461 9.22132 13.0519 9.3206 13.0767 9.41592C13.1016 9.51123 13.145 9.60073 13.2044 9.67929C13.2638 9.75784 13.3381 9.82393 13.4231 9.87376C13.7271 10.0511 14.0104 10.2698 14.2731 10.5298C14.6631 10.9198 14.9726 11.3828 15.1837 11.8924C15.3947 12.402 15.5034 12.9482 15.5034 13.4998C15.5034 14.0514 15.3947 14.5975 15.1837 15.1071C14.9726 15.6167 14.6631 16.0798 14.2731 16.4698L11.2731 19.4698C10.8831 19.8598 10.42 20.1692 9.91045 20.3803C9.40085 20.5913 8.85467 20.7 8.30309 20.7C7.75151 20.7 7.20533 20.5913 6.69574 20.3803C6.18615 20.1692 5.72312 19.8598 5.33309 19.4698C4.94307 19.0797 4.63368 18.6167 4.4226 18.1071C4.21152 17.5975 4.10288 17.0513 4.10288 16.4998C4.10288 15.9482 4.21152 15.402 4.4226 14.8924C4.63368 14.3828 4.94307 13.9198 5.33309 13.5298L6.83309 12.0298C6.90678 11.9611 6.96588 11.8783 7.00687 11.7863C7.04787 11.6943 7.06991 11.595 7.07169 11.4943C7.07346 11.3936 7.05494 11.2936 7.01722 11.2002C6.9795 11.1068 6.92335 11.0219 6.85213 10.9507C6.78091 10.8795 6.69608 10.8234 6.60269 10.7856C6.5093 10.7479 6.40927 10.7294 6.30857 10.7312C6.20787 10.7329 6.10855 10.755 6.01656 10.796C5.92456 10.837 5.84176 10.8961 5.77309 10.9698L4.27309 12.4698C3.72998 12.9959 3.29698 13.6248 2.99931 14.3199C2.70164 15.015 2.54525 15.7624 2.53924 16.5185C2.53324 17.2746 2.67774 18.0244 2.96433 18.7242C3.25092 19.4239 3.67387 20.0596 4.20855 20.5943C4.74324 21.129 5.37896 21.5519 6.0787 21.8385C6.77844 22.1251 7.52821 22.2696 8.28434 22.2636C9.04047 22.2576 9.78785 22.1012 10.483 21.8035C11.178 21.5059 11.807 21.0729 12.3331 20.5298L15.3331 17.5298C15.9493 16.9136 16.4161 16.1643 16.6975 15.3395C16.9789 14.5147 17.0674 13.6364 16.9562 12.772C16.8451 11.9077 16.5372 11.0803 16.0563 10.3535C15.5754 9.62679 14.9342 9.01998 14.1821 8.57976Z" fill="#034737"/>
</svg>
