<svg width="469" height="685" viewBox="0 0 469 685" fill="none" xmlns="http://www.w3.org/2000/svg">
<path fill-rule="evenodd" clip-rule="evenodd" d="M338.399 642.739C305.593 626.971 287.294 609.095 280.829 586.478C273.107 559.493 280.471 530.894 287.588 503.263C288.378 500.237 289.152 497.23 289.904 494.224C311.171 409.385 306.652 340.414 276.075 283.377C246.534 228.256 195.675 194.149 146.492 161.172C96.496 127.653 44.8004 92.9975 15.7008 36.2782C9.69146 24.5812 4.54461 12.4122 0 0V7.19269C3.98977 17.5116 8.4103 27.6348 13.4472 37.4615C42.8404 94.773 94.8214 129.596 145.074 163.312C194.013 196.116 244.599 230.032 273.846 284.587C304.102 341.039 308.549 409.405 287.442 493.609C286.691 496.595 285.914 499.591 285.14 502.617C278.267 529.3 270.472 559.513 278.378 587.174C287.17 617.912 316.221 634.9 337.302 645.029C376.45 663.812 417.677 677.411 458.894 688.447H468.919C424.722 676.997 380.342 662.854 338.399 642.739Z" fill="#F0F3F7"/>
<path fill-rule="evenodd" clip-rule="evenodd" d="M193.902 309.313C168.717 255.988 120.754 221.881 74.3772 188.904C48.6914 170.629 22.5233 152.009 0 129.99V133.489C22.2378 154.914 47.8036 173.116 72.9125 190.972C119.029 223.778 166.713 257.693 191.612 310.403C243.159 419.554 131.296 520.04 57.2742 586.529L48.2959 594.64C31.55 609.731 14.9624 625.721 0 643.405V647.39C15.3811 628.898 32.584 612.223 49.9826 596.536L58.9609 588.456C133.549 521.442 246.261 420.189 193.902 309.313Z" fill="#F0F3F7"/>
<path fill-rule="evenodd" clip-rule="evenodd" d="M121.297 356.897C118.795 310.594 89.2902 276.678 63.8616 252.316C44.6764 233.946 23.2627 216.806 0 201.089V204.196C22.5969 219.57 43.4204 236.266 62.1133 254.172C87.1969 278.232 116.321 311.623 118.76 357.049C120.976 398.268 101.729 433.222 85.1895 455.265C61.2892 487.132 30.2305 512.867 0 537.673V540.972C30.8589 515.681 62.7156 489.473 87.2101 456.788C104.006 434.403 123.549 398.913 121.297 356.897Z" fill="#F0F3F7"/>
<path fill-rule="evenodd" clip-rule="evenodd" d="M0 281.611C19.3839 299.88 32.0039 321.458 36.3034 344.378C43.6171 383.328 22.7079 418.938 0 444.773V448.607C23.8146 422.166 46.5003 384.942 38.8032 343.914C34.2707 319.754 20.7609 297.096 0 278.131V281.611Z" fill="#F0F3F7"/>
</svg>
