<svg width="254" height="101" viewBox="0 0 254 101" fill="none" xmlns="http://www.w3.org/2000/svg">
<g filter="url(#filter0_dd_5828_44532)">
<rect x="19" width="216.195" height="64.0577" rx="11.0099" fill="black"/>
<path d="M128.115 34.831C124.348 34.831 121.279 37.696 121.279 41.642C121.279 45.5639 124.348 48.4529 128.115 48.4529C131.883 48.4529 134.953 45.5639 134.953 41.642C134.952 37.696 131.882 34.831 128.115 34.831ZM128.115 45.7721C126.051 45.7721 124.272 44.0698 124.272 41.6436C124.272 39.1918 126.052 37.5151 128.115 37.5151C130.179 37.5151 131.959 39.1918 131.959 41.6436C131.959 44.0682 130.179 45.7721 128.115 45.7721ZM113.199 34.831C109.433 34.831 106.363 37.696 106.363 41.642C106.363 45.5639 109.433 48.4529 113.199 48.4529C116.967 48.4529 120.037 45.5639 120.037 41.642C120.037 37.696 116.967 34.831 113.199 34.831ZM113.199 45.7721C111.135 45.7721 109.356 44.0698 109.356 41.6436C109.356 39.1918 111.137 37.5151 113.199 37.5151C115.264 37.5151 117.043 39.1918 117.043 41.6436C117.044 44.0682 115.264 45.7721 113.199 45.7721ZM95.4585 36.9225V39.8115H102.373C102.167 41.437 101.626 42.6237 100.799 43.4484C99.7936 44.4541 98.2193 45.5639 95.4585 45.5639C91.2018 45.5639 87.874 42.132 87.874 37.8754C87.874 33.6187 91.2018 30.1869 95.4585 30.1869C97.7549 30.1869 99.4316 31.0901 100.67 32.2511L102.708 30.2125C100.979 28.5614 98.6838 27.2979 95.4585 27.2979C89.6276 27.2979 84.7256 32.0445 84.7256 37.8754C84.7256 43.7062 89.6276 48.4529 95.4585 48.4529C98.6053 48.4529 100.98 47.42 102.836 45.4854C104.745 43.5765 105.339 40.8925 105.339 38.7257C105.339 38.0563 105.288 37.4366 105.184 36.9209H95.4585V36.9225ZM168.017 39.1661C167.45 37.6448 165.72 34.831 162.186 34.831C158.677 34.831 155.761 37.5919 155.761 41.642C155.761 45.4598 158.651 48.4529 162.521 48.4529C165.642 48.4529 167.448 46.544 168.198 45.4342L165.876 43.8856C165.102 45.021 164.043 45.7689 162.521 45.7689C160.999 45.7689 159.915 45.0723 159.218 43.7046L168.326 39.938L168.017 39.1661ZM158.728 41.437C158.651 38.8042 160.767 37.4638 162.29 37.4638C163.477 37.4638 164.482 38.0579 164.819 38.9083L158.728 41.437ZM151.325 48.0413H154.316V28.0217H151.325V48.0413ZM146.421 36.354H146.319C145.648 35.5533 144.357 34.831 142.733 34.831C139.327 34.831 136.206 37.8241 136.206 41.6692C136.206 45.487 139.327 48.4545 142.733 48.4545C144.359 48.4545 145.648 47.7323 146.319 46.9075H146.421V47.8876C146.421 50.4932 145.028 51.8864 142.784 51.8864C140.952 51.8864 139.817 50.5716 139.352 49.4618L136.747 50.546C137.495 52.3508 139.481 54.5704 142.784 54.5704C146.293 54.5704 149.261 52.5062 149.261 47.4744V35.2458H146.423V36.354H146.421ZM142.991 45.7721C140.927 45.7721 139.199 44.0425 139.199 41.6692C139.199 39.2686 140.927 37.5151 142.991 37.5151C145.028 37.5151 146.628 39.2686 146.628 41.6692C146.628 44.0425 145.028 45.7721 142.991 45.7721ZM182.036 28.0217H174.876V48.0413H177.862V40.4569H182.034C185.346 40.4569 188.603 38.0595 188.603 34.2401C188.603 30.4207 185.347 28.0217 182.036 28.0217ZM182.113 37.6704H177.862V30.8082H182.113C184.347 30.8082 185.615 32.6579 185.615 34.2401C185.615 35.7903 184.347 37.6704 182.113 37.6704ZM200.58 34.7958C198.417 34.7958 196.176 35.7487 195.249 37.861L197.901 38.9676C198.468 37.861 199.525 37.499 200.632 37.499C202.177 37.499 203.748 38.4263 203.774 40.0742V40.2807C203.232 39.9717 202.073 39.5089 200.657 39.5089C197.799 39.5089 194.887 41.0799 194.887 44.0153C194.887 46.6945 197.232 48.4193 199.858 48.4193C201.866 48.4193 202.975 47.5177 203.67 46.4607H203.772V48.0061H206.658V40.3304C206.659 36.7784 204.004 34.7958 200.58 34.7958ZM200.218 45.7673C199.242 45.7673 197.876 45.2773 197.876 44.0666C197.876 42.5212 199.576 41.9286 201.045 41.9286C202.356 41.9286 202.976 42.2121 203.774 42.598C203.541 44.4541 201.945 45.7673 200.218 45.7673ZM217.167 35.233L213.741 43.9128H213.639L210.083 35.233H206.864L212.196 47.3639L209.156 54.1124H212.273L220.49 35.233H217.167ZM190.253 48.0413H193.239V28.0217H190.253V48.0413Z" fill="white"/>
<path d="M94.938 16.4047C94.938 17.7467 94.5408 18.8149 93.7449 19.6124C92.8417 20.5605 91.663 21.0345 90.2153 21.0345C88.8285 21.0345 87.6482 20.5541 86.6793 19.5932C85.7089 18.6307 85.2236 17.4392 85.2236 16.0172C85.2236 14.5935 85.7089 13.402 86.6793 12.4411C87.6482 11.4787 88.8285 10.9982 90.2153 10.9982C90.904 10.9982 91.5621 11.1328 92.1867 11.4002C92.8129 11.6693 93.3141 12.0264 93.6889 12.4732L92.8449 13.3187C92.2091 12.5581 91.3331 12.1785 90.2137 12.1785C89.2016 12.1785 88.3272 12.534 87.589 13.2451C86.8507 13.9561 86.4824 14.8801 86.4824 16.0156C86.4824 17.151 86.8507 18.075 87.589 18.7861C88.3272 19.4971 89.2016 19.8526 90.2137 19.8526C91.2867 19.8526 92.1819 19.4955 92.8977 18.7797C93.3622 18.3136 93.6312 17.6651 93.7033 16.8339H90.2137V15.6793H94.8691C94.9172 15.9307 94.938 16.1725 94.938 16.4047Z" fill="white"/>
<path d="M102.321 12.3916H97.9457V15.4375H101.892V16.5922H97.9457V19.6381H102.321V20.82H96.7109V11.2113H102.321V12.3916Z" fill="white"/>
<path d="M107.527 20.82H106.292V12.3916H103.608V11.2113H110.211V12.3916H107.527V20.82Z" fill="white"/>
<path d="M114.988 20.82V11.2113H116.223V20.82H114.988Z" fill="white"/>
<path d="M121.698 20.82H120.464V12.3916H117.78V11.2113H124.382V12.3916H121.698V20.82Z" fill="white"/>
<path d="M136.881 19.5789C135.936 20.5493 134.762 21.0346 133.358 21.0346C131.954 21.0346 130.78 20.5493 129.836 19.5789C128.892 18.6084 128.421 17.4201 128.421 16.0156C128.421 14.6112 128.892 13.4229 129.836 12.4524C130.78 11.482 131.954 10.9951 133.358 10.9951C134.754 10.9951 135.927 11.4836 136.875 12.4588C137.823 13.4341 138.297 14.6192 138.297 16.0156C138.297 17.4201 137.824 18.6084 136.881 19.5789ZM130.748 18.7733C131.459 19.494 132.328 19.8527 133.358 19.8527C134.388 19.8527 135.259 19.4924 135.968 18.7733C136.679 18.0527 137.037 17.1334 137.037 16.0156C137.037 14.8978 136.679 13.9786 135.968 13.258C135.259 12.5373 134.388 12.1786 133.358 12.1786C132.328 12.1786 131.459 12.5389 130.748 13.258C130.038 13.9786 129.681 14.8978 129.681 16.0156C129.681 17.1334 130.038 18.0527 130.748 18.7733Z" fill="white"/>
<path d="M140.03 20.82V11.2113H141.532L146.202 18.6853H146.254L146.202 16.834V11.2113H147.436V20.82H146.147L141.261 12.9825H141.208L141.261 14.8338V20.82H140.03Z" fill="white"/>
<path d="M94.938 16.4047C94.938 17.7467 94.5408 18.8149 93.7449 19.6124C92.8417 20.5605 91.663 21.0345 90.2153 21.0345C88.8285 21.0345 87.6482 20.5541 86.6793 19.5932C85.7089 18.6307 85.2236 17.4392 85.2236 16.0172C85.2236 14.5935 85.7089 13.402 86.6793 12.4411C87.6482 11.4787 88.8285 10.9982 90.2153 10.9982C90.904 10.9982 91.5621 11.1328 92.1867 11.4002C92.8129 11.6693 93.3141 12.0264 93.6889 12.4732L92.8449 13.3187C92.2091 12.5581 91.3331 12.1785 90.2137 12.1785C89.2016 12.1785 88.3272 12.534 87.589 13.2451C86.8507 13.9561 86.4824 14.8801 86.4824 16.0156C86.4824 17.151 86.8507 18.075 87.589 18.7861C88.3272 19.4971 89.2016 19.8526 90.2137 19.8526C91.2867 19.8526 92.1819 19.4955 92.8977 18.7797C93.3622 18.3136 93.6312 17.6651 93.7033 16.8339H90.2137V15.6793H94.8691C94.9172 15.9307 94.938 16.1725 94.938 16.4047Z" stroke="white" strokeWidth="0.320289" stroke-miterlimit="10"/>
<path d="M102.321 12.3916H97.9457V15.4375H101.892V16.5922H97.9457V19.6381H102.321V20.82H96.7109V11.2113H102.321V12.3916Z" stroke="white" strokeWidth="0.320289" stroke-miterlimit="10"/>
<path d="M107.527 20.82H106.292V12.3916H103.608V11.2113H110.211V12.3916H107.527V20.82Z" stroke="white" strokeWidth="0.320289" stroke-miterlimit="10"/>
<path d="M114.988 20.82V11.2113H116.223V20.82H114.988Z" stroke="white" strokeWidth="0.320289" stroke-miterlimit="10"/>
<path d="M121.698 20.82H120.464V12.3916H117.78V11.2113H124.382V12.3916H121.698V20.82Z" stroke="white" strokeWidth="0.320289" stroke-miterlimit="10"/>
<path d="M136.881 19.5789C135.936 20.5493 134.762 21.0346 133.358 21.0346C131.954 21.0346 130.78 20.5493 129.836 19.5789C128.892 18.6084 128.421 17.4201 128.421 16.0156C128.421 14.6112 128.892 13.4229 129.836 12.4524C130.78 11.482 131.954 10.9951 133.358 10.9951C134.754 10.9951 135.927 11.4836 136.875 12.4588C137.823 13.4341 138.297 14.6192 138.297 16.0156C138.297 17.4201 137.824 18.6084 136.881 19.5789ZM130.748 18.7733C131.459 19.494 132.328 19.8527 133.358 19.8527C134.388 19.8527 135.259 19.4924 135.968 18.7733C136.679 18.0527 137.037 17.1334 137.037 16.0156C137.037 14.8978 136.679 13.9786 135.968 13.258C135.259 12.5373 134.388 12.1786 133.358 12.1786C132.328 12.1786 131.459 12.5389 130.748 13.258C130.038 13.9786 129.681 14.8978 129.681 16.0156C129.681 17.1334 130.038 18.0527 130.748 18.7733Z" stroke="white" strokeWidth="0.320289" stroke-miterlimit="10"/>
<path d="M140.03 20.82V11.2113H141.532L146.202 18.6853H146.254L146.202 16.834V11.2113H147.436V20.82H146.147L141.261 12.9825H141.208L141.261 14.8338V20.82H140.03Z" stroke="white" strokeWidth="0.320289" stroke-miterlimit="10"/>
<g filter="url(#filter1_ii_5828_44532)">
<path d="M35.7112 12.07C35.2452 12.5633 34.9697 13.3288 34.9697 14.3201V49.7376C34.9697 50.7305 35.2452 51.4944 35.7112 51.9876L35.8297 52.1029L55.67 32.2626V32.0288V31.795L35.8297 11.9531L35.7112 12.07Z" fill="url(#paint0_linear_5828_44532)"/>
<path d="M62.2823 38.8798L55.6699 32.2642V32.0304V31.7966L62.2839 25.1826L62.4328 25.2675L70.2687 29.7195C72.5059 30.9911 72.5059 33.0713 70.2687 34.3445L62.4328 38.7965L62.2823 38.8798Z" fill="url(#paint1_linear_5828_44532)"/>
<g filter="url(#filter2_i_5828_44532)">
<path d="M62.4326 38.7928L55.6681 32.0283L35.7109 51.9871C36.4476 52.7686 37.6663 52.8647 39.0387 52.0864L62.4326 38.7928Z" fill="url(#paint2_linear_5828_44532)"/>
</g>
<path d="M62.4326 25.2648L39.0387 11.9728C37.6663 11.1929 36.4476 11.2906 35.7109 12.0721L55.6697 32.0309L62.4326 25.2648Z" fill="url(#paint3_linear_5828_44532)"/>
</g>
</g>
<defs>
<filter id="filter0_dd_5828_44532" x="0.561014" y="0" width="253.073" height="100.936" filterUnits="userSpaceOnUse" color-interpolation-filters="sRGB">
<feFlood flood-opacity="0" result="BackgroundImageFix"/>
<feColorMatrix in="SourceAlpha" type="matrix" values="0 0 0 0 0 0 0 0 0 0 0 0 0 0 0 0 0 0 127 0" result="hardAlpha"/>
<feOffset dy="7.67288"/>
<feGaussianBlur stdDeviation="3.83644"/>
<feColorMatrix type="matrix" values="0 0 0 0 0 0 0 0 0 0 0 0 0 0 0 0 0 0 0.0337375 0"/>
<feBlend mode="normal" in2="BackgroundImageFix" result="effect1_dropShadow_5828_44532"/>
<feColorMatrix in="SourceAlpha" type="matrix" values="0 0 0 0 0 0 0 0 0 0 0 0 0 0 0 0 0 0 127 0" result="hardAlpha"/>
<feOffset dy="18.439"/>
<feGaussianBlur stdDeviation="9.21949"/>
<feColorMatrix type="matrix" values="0 0 0 0 0 0 0 0 0 0 0 0 0 0 0 0 0 0 0.0484671 0"/>
<feBlend mode="normal" in2="effect1_dropShadow_5828_44532" result="effect2_dropShadow_5828_44532"/>
<feBlend mode="normal" in="SourceGraphic" in2="effect2_dropShadow_5828_44532" result="shape"/>
</filter>
<filter id="filter1_ii_5828_44532" x="34.9697" y="11.4346" width="36.9766" height="41.1895" filterUnits="userSpaceOnUse" color-interpolation-filters="sRGB">
<feFlood flood-opacity="0" result="BackgroundImageFix"/>
<feBlend mode="normal" in="SourceGraphic" in2="BackgroundImageFix" result="shape"/>
<feColorMatrix in="SourceAlpha" type="matrix" values="0 0 0 0 0 0 0 0 0 0 0 0 0 0 0 0 0 0 127 0" result="hardAlpha"/>
<feOffset dy="-0.240216"/>
<feComposite in2="hardAlpha" operator="arithmetic" k2="-1" k3="1"/>
<feColorMatrix type="matrix" values="0 0 0 0 0 0 0 0 0 0 0 0 0 0 0 0 0 0 0.12 0"/>
<feBlend mode="normal" in2="shape" result="effect1_innerShadow_5828_44532"/>
<feColorMatrix in="SourceAlpha" type="matrix" values="0 0 0 0 0 0 0 0 0 0 0 0 0 0 0 0 0 0 127 0" result="hardAlpha"/>
<feOffset dy="0.240216"/>
<feComposite in2="hardAlpha" operator="arithmetic" k2="-1" k3="1"/>
<feColorMatrix type="matrix" values="0 0 0 0 1 0 0 0 0 1 0 0 0 0 1 0 0 0 0.25 0"/>
<feBlend mode="normal" in2="effect1_innerShadow_5828_44532" result="effect2_innerShadow_5828_44532"/>
</filter>
<filter id="filter2_i_5828_44532" x="35.7109" y="32.0283" width="26.7217" height="20.5957" filterUnits="userSpaceOnUse" color-interpolation-filters="sRGB">
<feFlood flood-opacity="0" result="BackgroundImageFix"/>
<feBlend mode="normal" in="SourceGraphic" in2="BackgroundImageFix" result="shape"/>
<feColorMatrix in="SourceAlpha" type="matrix" values="0 0 0 0 0 0 0 0 0 0 0 0 0 0 0 0 0 0 127 0" result="hardAlpha"/>
<feOffset dy="-0.240216"/>
<feComposite in2="hardAlpha" operator="arithmetic" k2="-1" k3="1"/>
<feColorMatrix type="matrix" values="0 0 0 0 0 0 0 0 0 0 0 0 0 0 0 0 0 0 0.08 0"/>
<feBlend mode="normal" in2="shape" result="effect1_innerShadow_5828_44532"/>
</filter>
<linearGradient id="paint0_linear_5828_44532" x1="53.9113" y1="13.9453" x2="27.0359" y2="40.8207" gradientUnits="userSpaceOnUse">
<stop stopColor="#00A0FF"/>
<stop offset="0.0066" stopColor="#00A1FF"/>
<stop offset="0.2601" stopColor="#00BEFF"/>
<stop offset="0.5122" stopColor="#00D2FF"/>
<stop offset="0.7604" stopColor="#00DFFF"/>
<stop offset="1" stopColor="#00E3FF"/>
</linearGradient>
<linearGradient id="paint1_linear_5828_44532" x1="73.1809" y1="32.0304" x2="34.4325" y2="32.0304" gradientUnits="userSpaceOnUse">
<stop stopColor="#FFE000"/>
<stop offset="0.4087" stopColor="#FFBD00"/>
<stop offset="0.7754" stopColor="#FFA500"/>
<stop offset="1" stopColor="#FF9C00"/>
</linearGradient>
<linearGradient id="paint2_linear_5828_44532" x1="58.7591" y1="35.7019" x2="22.3126" y2="72.1483" gradientUnits="userSpaceOnUse">
<stop stopColor="#FF3A44"/>
<stop offset="1" stopColor="#C31162"/>
</linearGradient>
<linearGradient id="paint3_linear_5828_44532" x1="30.6846" y1="0.28192" x2="46.959" y2="16.5563" gradientUnits="userSpaceOnUse">
<stop stopColor="#32A071"/>
<stop offset="0.0685" stopColor="#2DA771"/>
<stop offset="0.4762" stopColor="#15CF74"/>
<stop offset="0.8009" stopColor="#06E775"/>
<stop offset="1" stopColor="#00F076"/>
</linearGradient>
</defs>
</svg>
