<svg width="42" height="48" viewBox="0 0 42 48" fill="none" xmlns="http://www.w3.org/2000/svg">
<path d="M41.9907 16.6252L25.5435 7.13187V11.8785L41.9907 21.3719V35.5882L21.4258 23.7452V18.9867L37.873 28.4919V23.7571L21.4258 14.2519V0L41.9907 11.8785V16.6252Z" fill="#63B299"/>
<path d="M37.8796 28.4926V23.7578H29.6797L37.8796 28.4926Z" fill="#157F66"/>
<path d="M9.09415 16.6225L4.98828 14.2492L21.4355 4.75586V9.49066L9.09415 16.6225Z" fill="#14171B"/>
<path d="M25.5508 7.13086L41.998 16.6257L35.8273 17.8109L25.5508 11.8783V7.13086Z" fill="#14171B"/>
<path d="M17.3135 16.627V21.3736L15.2605 22.5722L9.08984 21.3736L11.1428 20.1988L17.3135 16.627Z" fill="#14171B"/>
<path d="M37.873 23.7552L21.4258 14.25V18.9848L31.7142 24.93L37.873 23.7552Z" fill="#14171B"/>
<path d="M33.7602 40.3216V35.5711L21.4545 28.4668L9.125 35.5796V40.3097L21.4545 33.2135L33.7602 40.3216Z" fill="#14171B"/>
<path d="M21.432 23.7461L37.8792 33.2178L41.9969 35.589L37.8792 37.9505L21.4557 28.469L5.02038 37.9505L0.878906 35.589L5.02038 33.2038L21.432 23.7461Z" fill="#034737"/>
<path d="M21.4545 37.9516L13.2309 42.6864L9.125 40.3131L13.2309 37.9516L21.4545 33.2168L29.6543 37.9533L33.7602 40.3249L29.6543 42.6864L21.4545 37.9516Z" fill="#13745D"/>
<path d="M21.4545 37.9516L13.2309 42.6864L9.125 40.3131L13.2309 37.9516L21.4545 33.2168L29.6543 37.9533L33.7602 40.3249L29.6543 42.6864L21.4545 37.9516Z" fill="#034737"/>
<path d="M25.5594 45.0569L21.4535 42.6836L17.3477 45.0569L21.4535 47.4184L25.5594 45.0569Z" fill="#034737"/>
<path d="M21.4535 42.684L17.3477 45.0574L17.3595 40.3107L21.4535 37.9492L25.5594 40.3226V45.0574L21.4535 42.684Z" fill="#14171B"/>
<path d="M4.98478 14.2519L21.432 4.75854V0L0.878906 11.8785V35.5882L21.432 23.7452V9.49334L11.1436 15.4385L9.09065 16.6252V21.3719L11.1436 20.1971L17.3143 16.6252V21.3719L4.98478 28.5008V14.2519Z" fill="#157F66"/>
<path d="M11.1471 15.4367L4.98828 14.25V28.5019L17.3178 21.37L11.1471 20.1952V15.4367Z" fill="#63B299"/>
</svg>
