<svg width="18" height="18" viewBox="0 0 18 18" fill="none" xmlns="http://www.w3.org/2000/svg">
<path fill-rule="evenodd" clip-rule="evenodd" d="M8.99922 2.1752C5.22988 2.1752 2.17422 5.23085 2.17422 9.0002C2.17422 12.7695 5.22988 15.8252 8.99922 15.8252C12.7686 15.8252 15.8242 12.7695 15.8242 9.0002C15.8242 5.23085 12.7686 2.1752 8.99922 2.1752ZM0.824219 9.0002C0.824219 4.48527 4.48429 0.825195 8.99922 0.825195C13.5141 0.825195 17.1742 4.48527 17.1742 9.0002C17.1742 13.5151 13.5141 17.1752 8.99922 17.1752C4.48429 17.1752 0.824219 13.5151 0.824219 9.0002ZM12.5906 8.83461C12.9596 8.88787 13.2155 9.23015 13.1623 9.59912C13.0384 10.4573 12.6563 11.3077 11.9815 11.9825L11.9802 11.9838C10.4952 13.4608 8.18499 13.6101 6.53909 12.4266V12.8852C6.53909 13.258 6.23688 13.5602 5.86409 13.5602C5.49129 13.5602 5.18909 13.258 5.18909 12.8852V10.8827C5.18909 10.5099 5.49129 10.2077 5.86409 10.2077H5.99602C6.00271 10.2076 6.0094 10.2076 6.01609 10.2077H7.86657C8.23937 10.2077 8.54157 10.5099 8.54157 10.8827C8.54157 11.2555 8.23937 11.5577 7.86657 11.5577H7.702C8.77582 12.1007 10.1243 11.9251 11.0275 11.0273C11.4774 10.5772 11.74 10.0028 11.8261 9.40627C11.8794 9.0373 12.2216 8.78136 12.5906 8.83461ZM11.9814 7.79268H10.1316C9.75882 7.79268 9.45662 7.49047 9.45662 7.11768C9.45662 6.74489 9.75882 6.44268 10.1316 6.44268H10.293C9.21446 5.89894 7.86722 6.07671 6.97148 6.97246C6.52033 7.42361 6.25841 7.991 6.17239 8.59316C6.11967 8.9622 5.77776 9.21863 5.40872 9.16591C5.03967 9.11319 4.78324 8.77128 4.83596 8.40224C4.95994 7.53439 5.34303 6.69172 6.01688 6.01787C7.49751 4.53724 9.80887 4.39135 11.4591 5.57518V5.11519C11.4591 4.7424 11.7613 4.44019 12.1341 4.44019C12.5069 4.44019 12.8091 4.7424 12.8091 5.11519V7.11768C12.8091 7.49047 12.5069 7.79268 12.1341 7.79268H12.0032C11.996 7.7928 11.9887 7.7928 11.9814 7.79268Z" fill="#000" fill-opacity="0.44"/>
</svg>
