<svg width="361" height="322" viewBox="0 0 361 322" fill="none" xmlns="http://www.w3.org/2000/svg">
<path d="M159.454 12C112.515 12 82.0619 43.5539 46.0517 54.4459C31.455 58.8916 15.4781 65.0224 12.5143 68.1344C9.55045 71.2463 20.727 148.245 12.5143 79.3612C22.2606 183.53 37.6049 269.174 134.299 304.332C144.672 308.111 149.859 310 159.454 310C168.976 310 174.199 308.111 184.573 304.332C281.267 269.137 285.167 215.688 303.236 113.042C306.624 93.7958 308.793 63.3228 303.236 63.3228C300.272 60.2108 287.38 58.8916 272.746 54.4459C236.773 43.5539 206.357 12 159.454 12Z" stroke="#2DA771" strokeWidth="24" strokeLinecap="round" strokeLinejoin="round"/>
<path fill-rule="evenodd" clip-rule="evenodd" d="M112.684 157.657C112.684 153.568 114.308 149.645 117.2 146.754C120.092 143.862 124.014 142.237 128.103 142.237H189.783C193.872 142.237 197.794 143.862 200.686 146.754C203.578 149.645 205.202 153.568 205.202 157.657V193.637C205.202 197.726 203.578 201.648 200.686 204.54C197.794 207.432 193.872 209.056 189.783 209.056H128.103C124.014 209.056 120.092 207.432 117.2 204.54C114.308 201.648 112.684 197.726 112.684 193.637V157.657ZM164.083 167.937C164.083 166.574 163.541 165.266 162.578 164.303C161.614 163.339 160.306 162.797 158.943 162.797C157.58 162.797 156.272 163.339 155.309 164.303C154.345 165.266 153.803 166.574 153.803 167.937V183.357C153.803 184.72 154.345 186.027 155.309 186.991C156.272 187.955 157.58 188.497 158.943 188.497C160.306 188.497 161.614 187.955 162.578 186.991C163.541 186.027 164.083 184.72 164.083 183.357V167.937Z" fill="#2DA771"/>
<path d="M138.395 147.376V131.956C138.395 126.503 140.561 121.274 144.416 117.418C148.272 113.563 153.501 111.396 158.954 111.396C164.407 111.396 169.637 113.563 173.492 117.418C177.348 121.274 179.514 126.503 179.514 131.956V147.376" stroke="#2DA771" strokeWidth="8.03899" strokeLinecap="round" strokeLinejoin="round"/>
<path d="M270.29 74.3666H270.355H270.29ZM296.06 74.3666H296.124H296.06ZM321.829 74.3666H321.894H321.829ZM354.041 74.3666C354.041 104.503 328.078 128.937 296.06 128.937C286.581 128.963 277.217 126.752 268.647 122.464L238.078 128.937L247.065 103.562C241.377 95.1172 238.078 85.1034 238.078 74.3666C238.078 44.2299 264.041 19.7959 296.06 19.7959C328.078 19.7959 354.041 44.2299 354.041 74.3666Z" fill="white"/>
<path d="M270.29 74.3666H270.355M296.06 74.3666H296.124M321.829 74.3666H321.894M354.041 74.3666C354.041 104.503 328.078 128.937 296.06 128.937C286.581 128.963 277.217 126.752 268.647 122.464L238.078 128.937L247.065 103.562C241.377 95.1172 238.078 85.1034 238.078 74.3666C238.078 44.23 264.041 19.7959 296.06 19.7959C328.078 19.7959 354.041 44.23 354.041 74.3666Z" stroke="#2DA771" strokeWidth="13.6427" strokeLinecap="round" strokeLinejoin="round"/>
</svg>
