<svg width="19" height="18" viewBox="0 0 19 18" fill="none" xmlns="http://www.w3.org/2000/svg">
<path d="M14 10L14 2C14 1.44771 14.4477 1 15 1L17 1C17.5523 1 18 1.44772 18 2L18 9C18 9.55228 17.5523 10 17 10L14 10C11.7909 10 10 11.7909 10 14L10 15C10 16.1046 9.10457 17 8 17C6.89543 17 6 16.1046 6 15L6 10L3 10C1.89543 10 1 9.10457 1 8L2 3C2.29544 1.73974 3.11083 0.924353 4 0.999999L11 0.999999C12.6569 1 14 2.34315 14 4" stroke="#5B5D60" strokeWidth="1.3" strokeLinecap="round" strokeLinejoin="round"/>
</svg>
