<svg width="100%" height="100%" viewBox="0 0 30 30" fill="none" xmlns="http://www.w3.org/2000/svg">
<g id="workflow (1) 2" clip-path="url(#clip0_2710_13174)">
<path id="Vector" d="M27.8109 20.6119H24.5109V18.6449C24.5103 18.0439 24.2713 17.4676 23.8463 17.0426C23.4213 16.6176 22.845 16.3786 22.2439 16.3779H15.7617V13.2203H19.0617C19.6421 13.2197 20.1985 12.9889 20.6089 12.5785C21.0193 12.1681 21.2502 11.6116 21.2508 11.0312V2.90781C21.2502 2.32743 21.0193 1.77099 20.6089 1.3606C20.1985 0.950202 19.6421 0.71937 19.0617 0.71875H10.9383C10.3579 0.71937 9.80146 0.950202 9.39107 1.3606C8.98067 1.77099 8.74984 2.32743 8.74922 2.90781V11.0312C8.74984 11.6116 8.98067 12.1681 9.39107 12.5785C9.80146 12.9889 10.3579 13.2197 10.9383 13.2203H14.2383V16.3779H7.75547C7.15442 16.3786 6.57816 16.6176 6.15315 17.0426C5.72814 17.4676 5.4891 18.0439 5.48848 18.6449V20.6119H2.18906C1.60868 20.6125 1.05224 20.8434 0.641847 21.2538C0.231452 21.6642 0.000620401 22.2206 0 22.801L0 27.0883C0.000620401 27.6687 0.231452 28.2251 0.641847 28.6355C1.05224 29.0459 1.60868 29.2767 2.18906 29.2773H10.3125C10.8929 29.2767 11.4493 29.0459 11.8597 28.6355C12.2701 28.2251 12.5009 27.6687 12.5016 27.0883V22.801C12.5009 22.2206 12.2701 21.6642 11.8597 21.2538C11.4493 20.8434 10.8929 20.6125 10.3125 20.6119H7.0125V18.6449C7.01266 18.4478 7.09104 18.2587 7.23045 18.1193C7.36986 17.9799 7.5589 17.9015 7.75605 17.9014H22.2445C22.4417 17.9015 22.6307 17.9799 22.7701 18.1193C22.9095 18.2587 22.9879 18.4478 22.9881 18.6449V20.6119H19.6875C19.1071 20.6125 18.5507 20.8434 18.1403 21.2538C17.7299 21.6642 17.4991 22.2206 17.4984 22.801V27.0883C17.4992 27.6686 17.7301 28.2249 18.1405 28.6351C18.5509 29.0454 19.1072 29.2761 19.6875 29.2768H27.8109C28.3912 29.2761 28.9476 29.0454 29.3579 28.6351C29.7683 28.2249 29.9992 27.6686 30 27.0883V22.801C29.9994 22.2206 29.7685 21.6642 29.3582 21.2538C28.9478 20.8434 28.3913 20.6125 27.8109 20.6119ZM10.2727 11.0312V2.90781C10.2728 2.73133 10.343 2.56211 10.4678 2.43732C10.5926 2.31252 10.7618 2.24234 10.9383 2.24219H19.0617C19.2382 2.24234 19.4074 2.31252 19.5322 2.43732C19.657 2.56211 19.7272 2.73133 19.7273 2.90781V11.0312C19.7272 11.2077 19.657 11.377 19.5322 11.5017C19.4074 11.6265 19.2382 11.6967 19.0617 11.6969H10.9383C10.7618 11.6967 10.5926 11.6265 10.4678 11.5017C10.343 11.377 10.2728 11.2077 10.2727 11.0312ZM10.9758 22.801V27.0883C10.9755 27.2643 10.9055 27.433 10.7813 27.5576C10.657 27.6822 10.4885 27.7525 10.3125 27.7533H2.18906C2.01268 27.7532 1.84355 27.6831 1.71877 27.5584C1.59399 27.4337 1.52375 27.2647 1.52344 27.0883V22.801C1.52359 22.6245 1.59377 22.4553 1.71857 22.3305C1.84336 22.2057 2.01258 22.1355 2.18906 22.1354H10.3125C10.4889 22.1357 10.6579 22.2059 10.7826 22.3307C10.9073 22.4555 10.9774 22.6246 10.9775 22.801H10.9758ZM28.4766 27.0883C28.4764 27.2648 28.4062 27.434 28.2814 27.5588C28.1566 27.6836 27.9874 27.7538 27.8109 27.7539H19.6875C19.511 27.7538 19.3418 27.6836 19.217 27.5588C19.0922 27.434 19.022 27.2648 19.0219 27.0883V22.801C19.022 22.6245 19.0922 22.4553 19.217 22.3305C19.3418 22.2057 19.511 22.1355 19.6875 22.1354H27.8109C27.9874 22.1355 28.1566 22.2057 28.2814 22.3305C28.4062 22.4553 28.4764 22.6245 28.4766 22.801V27.0883Z" fill="currentColor"/>
<path id="Vector_2" d="M25.7725 24.182H21.7266C21.5245 24.182 21.3308 24.2623 21.1879 24.4051C21.0451 24.548 20.9648 24.7417 20.9648 24.9437C20.9648 25.1458 21.0451 25.3395 21.1879 25.4824C21.3308 25.6252 21.5245 25.7055 21.7266 25.7055H25.7725C25.9745 25.7055 26.1682 25.6252 26.3111 25.4824C26.4539 25.3395 26.5342 25.1458 26.5342 24.9437C26.5342 24.7417 26.4539 24.548 26.3111 24.4051C26.1682 24.2623 25.9745 24.182 25.7725 24.182ZM4.22754 25.7055H8.27344C8.47546 25.7055 8.6692 25.6252 8.81205 25.4824C8.9549 25.3395 9.03516 25.1458 9.03516 24.9437C9.03516 24.7417 8.9549 24.548 8.81205 24.4051C8.6692 24.2623 8.47546 24.182 8.27344 24.182H4.22754C4.02552 24.182 3.83177 24.2623 3.68892 24.4051C3.54607 24.548 3.46582 24.7417 3.46582 24.9437C3.46582 25.1458 3.54607 25.3395 3.68892 25.4824C3.83177 25.6252 4.02552 25.7055 4.22754 25.7055ZM17.0232 7.99258H12.9768C12.7747 7.99258 12.581 8.07283 12.4381 8.21568C12.2953 8.35853 12.215 8.55228 12.215 8.7543C12.215 8.95632 12.2953 9.15006 12.4381 9.29291C12.581 9.43576 12.7747 9.51602 12.9768 9.51602H17.0227C17.2247 9.51602 17.4184 9.43576 17.5613 9.29291C17.7041 9.15006 17.7844 8.95632 17.7844 8.7543C17.7844 8.55228 17.7041 8.35853 17.5613 8.21568C17.4184 8.07283 17.2247 7.99258 17.0227 7.99258H17.0232ZM17.0232 4.42188H12.9768C12.7747 4.42188 12.581 4.50213 12.4381 4.64498C12.2953 4.78783 12.215 4.98157 12.215 5.18359C12.215 5.38561 12.2953 5.57936 12.4381 5.72221C12.581 5.86506 12.7747 5.94531 12.9768 5.94531H17.0227C17.2247 5.94531 17.4184 5.86506 17.5613 5.72221C17.7041 5.57936 17.7844 5.38561 17.7844 5.18359C17.7844 4.98157 17.7041 4.78783 17.5613 4.64498C17.4184 4.50213 17.2247 4.42188 17.0227 4.42188H17.0232Z" fill="currentColor"/>
</g>
<defs>
<clip-path id="clip0_2710_13174">
<rect width="30" height="30" fill="white"/>
</clip-path>
</defs>
</svg>
