<svg width="100%" height="100%" viewBox="0 0 30 30" fill="none" xmlns="http://www.w3.org/2000/svg">
<g id="workflow 1">
<path id="Vector" d="M24.375 20.625C23.5458 20.6277 22.7408 20.9052 22.086 21.4141C21.4312 21.923 20.9636 22.6346 20.7563 23.4375H9.37503C8.38046 23.4375 7.42664 23.0424 6.72338 22.3392C6.02011 21.6359 5.62503 20.6821 5.62503 19.6875C5.62503 18.6929 6.02011 17.7391 6.72338 17.0359C7.42664 16.3326 8.38046 15.9375 9.37503 15.9375H11.3813C11.5972 16.7319 12.0685 17.4332 12.7225 17.9332C13.3765 18.4332 14.1768 18.7041 15 18.7041C15.8232 18.7041 16.6236 18.4332 17.2776 17.9332C17.9316 17.4332 18.4029 16.7319 18.6188 15.9375H20.625C22.1169 15.9375 23.5476 15.3449 24.6025 14.29C25.6574 13.2351 26.25 11.8044 26.25 10.3125C26.25 8.82067 25.6574 7.38993 24.6025 6.33503C23.5476 5.28014 22.1169 4.68751 20.625 4.68751H9.24378C9.01559 3.80377 8.47294 3.03358 7.71752 2.52132C6.9621 2.00906 6.04579 1.78989 5.14034 1.9049C4.23489 2.01991 3.40246 2.46119 2.7991 3.14604C2.19573 3.83089 1.86285 4.71228 1.86285 5.62501C1.86285 6.53773 2.19573 7.41913 2.7991 8.10398C3.40246 8.78883 4.23489 9.23011 5.14034 9.34512C6.04579 9.46013 6.9621 9.24096 7.71752 8.7287C8.47294 8.21644 9.01559 7.44625 9.24378 6.56251H20.625C21.6196 6.56251 22.5734 6.9576 23.2767 7.66086C23.9799 8.36412 24.375 9.31795 24.375 10.3125C24.375 11.3071 23.9799 12.2609 23.2767 12.9642C22.5734 13.6674 21.6196 14.0625 20.625 14.0625H18.6188C18.4029 13.2681 17.9316 12.5668 17.2776 12.0668C16.6236 11.5668 15.8232 11.2959 15 11.2959C14.1768 11.2959 13.3765 11.5668 12.7225 12.0668C12.0685 12.5668 11.5972 13.2681 11.3813 14.0625H9.37503C7.88318 14.0625 6.45244 14.6551 5.39755 15.71C4.34266 16.7649 3.75003 18.1957 3.75003 19.6875C3.75003 21.1794 4.34266 22.6101 5.39755 23.665C6.45244 24.7199 7.88318 25.3125 9.37503 25.3125H20.7563C20.9318 25.9921 21.2944 26.6088 21.8031 27.0925C22.3117 27.5762 22.9459 27.9074 23.6335 28.0485C24.321 28.1895 25.0344 28.1348 25.6924 27.8905C26.3504 27.6462 26.9266 27.2222 27.3556 26.6666C27.7845 26.111 28.0489 25.4462 28.1186 24.7477C28.1884 24.0493 28.0607 23.3453 27.7502 22.7159C27.4397 22.0864 26.9587 21.5568 26.362 21.1871C25.7654 20.8175 25.0769 20.6227 24.375 20.625ZM5.62503 7.50001C5.25419 7.50001 4.89167 7.39004 4.58333 7.18401C4.27499 6.97799 4.03467 6.68515 3.89275 6.34254C3.75084 5.99993 3.71371 5.62293 3.78605 5.25921C3.8584 4.8955 4.03698 4.56141 4.2992 4.29918C4.56142 4.03696 4.89552 3.85838 5.25923 3.78604C5.62295 3.71369 5.99995 3.75082 6.34256 3.89273C6.68517 4.03465 6.978 4.27497 7.18403 4.58332C7.39006 4.89166 7.50003 5.25417 7.50003 5.62501C7.50003 6.12229 7.30248 6.5992 6.95085 6.95083C6.59922 7.30247 6.12231 7.50001 5.62503 7.50001ZM15 13.125C15.3709 13.125 15.7334 13.235 16.0417 13.441C16.3501 13.647 16.5904 13.9399 16.7323 14.2825C16.8742 14.6251 16.9113 15.0021 16.839 15.3658C16.7667 15.7295 16.5881 16.0636 16.3259 16.3258C16.0636 16.5881 15.7295 16.7666 15.3658 16.839C15.0021 16.9113 14.6251 16.8742 14.2825 16.7323C13.9399 16.5904 13.647 16.35 13.441 16.0417C13.235 15.7334 13.125 15.3708 13.125 15C13.125 14.5027 13.3226 14.0258 13.6742 13.6742C14.0258 13.3226 14.5027 13.125 15 13.125ZM24.375 26.25C24.0042 26.25 23.6417 26.14 23.3333 25.934C23.025 25.728 22.7847 25.4352 22.6428 25.0925C22.5008 24.7499 22.4637 24.3729 22.5361 24.0092C22.6084 23.6455 22.787 23.3114 23.0492 23.0492C23.3114 22.787 23.6455 22.6084 24.0092 22.536C24.3729 22.4637 24.7499 22.5008 25.0926 22.6427C25.4352 22.7847 25.728 23.025 25.934 23.3333C26.1401 23.6417 26.25 24.0042 26.25 24.375C26.25 24.8723 26.0525 25.3492 25.7009 25.7008C25.3492 26.0525 24.8723 26.25 24.375 26.25Z" fill="currentColor"/>
</g>
</svg>
