<svg width="88" height="91" viewBox="0 0 88 91" fill="none" xmlns="http://www.w3.org/2000/svg">
<g filter="url(#filter0_bd_8_3248)">
<rect x="12" y="5" width="64" height="67.8193" rx="20" fill="url(#paint0_radial_8_3248)" fill-opacity="0.7" shape-rendering="crispEdges"/>
<rect x="11.5" y="4.5" width="65" height="68.8193" rx="20.5" stroke="#EAEAEA" shape-rendering="crispEdges"/>
</g>
<g filter="url(#filter1_bd_8_3248)">
<rect x="12" y="5" width="64" height="67.8193" rx="20" fill="url(#paint1_radial_8_3248)" fill-opacity="0.7" shape-rendering="crispEdges"/>
<rect x="11.5" y="4.5" width="65" height="68.8193" rx="20.5" stroke="#EAEAEA" shape-rendering="crispEdges"/>
</g>
<path d="M33.5566 27.6657H38.3333V22.1348C37.9022 22.2729 37.5182 22.5279 37.2253 22.8739L34.0393 26.6974C33.8071 26.9797 33.6417 27.3105 33.5566 27.6657Z" fill="#034737"/>
<path d="M28.6196 55.9999H39.9518C40.8458 55.9999 41.5713 55.2744 41.5713 54.3803V40.6196C41.5713 39.7255 40.8458 39 39.9518 39H28.6196C27.7255 39 27 39.7255 27 40.6196V54.3803C27 55.2744 27.7255 55.9999 28.6196 55.9999ZM34.6909 53.1661H33.8804C33.4342 53.1661 33.0714 52.8048 33.0714 52.3571C33.0714 51.9093 33.4342 51.5481 33.8804 51.5481H34.6909C35.1372 51.5481 35.4999 51.9093 35.4999 52.3571C35.4999 52.8048 35.1372 53.1661 34.6909 53.1661ZM34.6909 50.3322H33.8819L33.8804 50.3337C33.4342 50.3337 33.0714 49.971 33.0714 49.5232C33.0714 49.077 33.4342 48.7142 33.8804 48.7142H34.6909C35.1372 48.7142 35.4999 49.077 35.4999 49.5232C35.4999 49.971 35.1372 50.3337 34.6909 50.3337L34.6909 50.3322ZM38.3338 53.1661H37.5233C37.077 53.1661 36.7143 52.8048 36.7143 52.3571C36.7143 51.9093 37.077 51.5481 37.5233 51.5481H38.3338C38.78 51.5481 39.1428 51.9093 39.1428 52.3571C39.1428 52.8048 38.78 53.1661 38.3338 53.1661ZM39.1428 49.5232C39.1428 49.7388 39.0578 49.9452 38.906 50.097C38.7542 50.2488 38.5478 50.3338 38.3337 50.3338H37.5232C37.077 50.3338 36.7142 49.971 36.7142 49.5233C36.7142 49.077 37.077 48.7143 37.5232 48.7143H38.3337C38.5478 48.7143 38.7542 48.7993 38.906 48.951C39.0578 49.1028 39.1428 49.3092 39.1428 49.5232ZM29.8338 41.8338H38.7391L38.7375 46.2857H29.8339L29.8338 41.8338ZM30.2376 48.7142H31.0481C31.4943 48.7142 31.8571 49.077 31.8571 49.5232C31.8571 49.971 31.4943 50.3337 31.0481 50.3337H30.2376C29.7914 50.3337 29.4286 49.971 29.4286 49.5232C29.4286 49.077 29.7914 48.7142 30.2376 48.7142ZM30.2376 51.5481H31.0481C31.4943 51.5481 31.8571 51.9093 31.8571 52.3571C31.8571 52.8048 31.4943 53.1661 31.0481 53.1661H30.2376C29.7914 53.1661 29.4286 52.8048 29.4286 52.3571C29.4286 51.9093 29.7914 51.5481 30.2376 51.5481Z" fill="#034737"/>
<path d="M58.5712 22H39.9517V27.6662C39.9502 28.5602 39.2262 29.2827 38.3337 29.2857H33.4766V37.7857H39.9532H39.9517C41.5166 37.7872 42.784 39.0546 42.7855 40.6195V54.3803C42.7871 54.655 42.7461 54.9282 42.6641 55.1908H58.5714C59.9116 55.1862 60.9954 54.101 60.9999 52.7622V24.4286C60.9954 23.0883 59.9114 22.0046 58.5712 22ZM55.3336 50.7374H47.2374C46.7911 50.7374 46.4284 50.3762 46.4284 49.9284C46.4284 49.4807 46.7911 49.1194 47.2374 49.1194H55.3336C55.7798 49.1194 56.1426 49.4807 56.1426 49.9284C56.1426 50.3762 55.7798 50.7374 55.3336 50.7374ZM55.3336 47.0946H47.2374C46.7911 47.0946 46.4284 46.7333 46.4284 46.2856C46.4284 45.8378 46.7911 45.4766 47.2374 45.4766H55.3336C55.7798 45.4766 56.1426 45.8378 56.1426 46.2856C56.1426 46.7333 55.7798 47.0946 55.3336 47.0946ZM55.3336 43.4518H47.2374C46.7911 43.4518 46.4284 43.0905 46.4284 42.6428C46.4284 42.195 46.7911 41.8338 47.2374 41.8338H55.3336C55.7798 41.8338 56.1426 42.195 56.1426 42.6428C56.1426 43.0905 55.7798 43.4518 55.3336 43.4518ZM55.3336 39.8089H47.2374C46.7911 39.8089 46.4284 39.4477 46.4284 38.9999C46.4284 38.5522 46.7911 38.1909 47.2374 38.1909H55.3336C55.7798 38.1909 56.1426 38.5522 56.1426 38.9999C56.1426 39.4477 55.7798 39.8089 55.3336 39.8089ZM55.3336 36.1661H39.9517C39.5055 36.1661 39.1427 35.8048 39.1427 35.3571C39.1427 34.9093 39.5055 34.5481 39.9517 34.5481H55.3336C55.7798 34.5481 56.1426 34.9093 56.1426 35.3571C56.1426 35.8048 55.7798 36.1661 55.3336 36.1661ZM55.3336 32.5233H39.9517C39.5055 32.5233 39.1427 32.162 39.1427 31.7143C39.1427 31.2665 39.5055 30.9053 39.9517 30.9053H55.3336C55.7798 30.9053 56.1426 31.2665 56.1426 31.7143C56.1426 32.162 55.7798 32.5233 55.3336 32.5233ZM55.3336 28.8804H43.9998C43.5521 28.8804 43.1908 28.5192 43.1908 28.0714C43.1908 27.6237 43.5521 27.2624 43.9998 27.2624H55.3336C55.7798 27.2624 56.1426 27.6237 56.1426 28.0714C56.1426 28.5192 55.7798 28.8804 55.3336 28.8804Z" fill="#034737"/>
<defs>
<filter id="filter0_bd_8_3248" x="-31.1333" y="-38.1333" width="150.267" height="154.086" filterUnits="userSpaceOnUse" color-interpolation-filters="sRGB">
<feFlood flood-opacity="0" result="BackgroundImageFix"/>
<feGaussianBlur in="BackgroundImageFix" stdDeviation="21.0667"/>
<feComposite in2="SourceAlpha" operator="in" result="effect1_backgroundBlur_8_3248"/>
<feColorMatrix in="SourceAlpha" type="matrix" values="0 0 0 0 0 0 0 0 0 0 0 0 0 0 0 0 0 0 127 0" result="hardAlpha"/>
<feOffset dy="6.4"/>
<feGaussianBlur stdDeviation="5.06667"/>
<feComposite in2="hardAlpha" operator="out"/>
<feColorMatrix type="matrix" values="0 0 0 0 0.0867708 0 0 0 0 0.115317 0 0 0 0 0.141667 0 0 0 0.08 0"/>
<feBlend mode="normal" in2="effect1_backgroundBlur_8_3248" result="effect2_dropShadow_8_3248"/>
<feBlend mode="normal" in="SourceGraphic" in2="effect2_dropShadow_8_3248" result="shape"/>
</filter>
<filter id="filter1_bd_8_3248" x="-31.1333" y="-38.1333" width="150.267" height="154.086" filterUnits="userSpaceOnUse" color-interpolation-filters="sRGB">
<feFlood flood-opacity="0" result="BackgroundImageFix"/>
<feGaussianBlur in="BackgroundImageFix" stdDeviation="21.0667"/>
<feComposite in2="SourceAlpha" operator="in" result="effect1_backgroundBlur_8_3248"/>
<feColorMatrix in="SourceAlpha" type="matrix" values="0 0 0 0 0 0 0 0 0 0 0 0 0 0 0 0 0 0 127 0" result="hardAlpha"/>
<feOffset dy="6.4"/>
<feGaussianBlur stdDeviation="5.06667"/>
<feComposite in2="hardAlpha" operator="out"/>
<feColorMatrix type="matrix" values="0 0 0 0 0.0867708 0 0 0 0 0.115317 0 0 0 0 0.141667 0 0 0 0.08 0"/>
<feBlend mode="normal" in2="effect1_backgroundBlur_8_3248" result="effect2_dropShadow_8_3248"/>
<feBlend mode="normal" in="SourceGraphic" in2="effect2_dropShadow_8_3248" result="shape"/>
</filter>
<radialGradient id="paint0_radial_8_3248" cx="0" cy="0" r="1" gradientUnits="userSpaceOnUse" gradientTransform="translate(44 38.9097) rotate(90) scale(33.9097 32)">
<stop stopColor="white"/>
<stop offset="1" stopColor="white"/>
</radialGradient>
<radialGradient id="paint1_radial_8_3248" cx="0" cy="0" r="1" gradientUnits="userSpaceOnUse" gradientTransform="translate(44 38.9097) rotate(90) scale(33.9097 32)">
<stop stopColor="white"/>
<stop offset="1" stopColor="white"/>
</radialGradient>
</defs>
</svg>
