<svg width="88" height="91" viewBox="0 0 88 91" fill="none" xmlns="http://www.w3.org/2000/svg">
<g filter="url(#filter0_bd_8_2592)">
<rect x="12" y="5" width="64" height="67.8193" rx="20" fill="url(#paint0_radial_8_2592)" fill-opacity="0.7" shape-rendering="crispEdges"/>
<rect x="11.5" y="4.5" width="65" height="68.8193" rx="20.5" stroke="#EAEAEA" shape-rendering="crispEdges"/>
</g>
<g filter="url(#filter1_bd_8_2592)">
<rect x="12" y="5" width="64" height="67.8193" rx="20" fill="url(#paint1_radial_8_2592)" fill-opacity="0.7" shape-rendering="crispEdges"/>
<rect x="11.5" y="4.5" width="65" height="68.8193" rx="20.5" stroke="#EAEAEA" shape-rendering="crispEdges"/>
</g>
<path d="M60.2608 30.1309H39.5652L49.913 38.2613L60.2608 30.1309Z" fill="#034737"/>
<path d="M50.4304 39.8873C50.2826 40.0352 50.1347 40.0352 49.913 40.0352C49.6913 40.0352 49.5434 39.9612 49.3956 39.8873L38.826 31.5352V47.1308C38.826 47.5743 39.1217 47.8699 39.5652 47.8699H60.2608C60.7043 47.8699 61 47.5743 61 47.1308V31.5352L50.4304 39.8873Z" fill="#034737"/>
<path d="M35.1304 31.6094H27.7391C27.2957 31.6094 27 31.905 27 32.3485C27 32.792 27.2957 33.0876 27.7391 33.0876H35.1304C35.5739 33.0876 35.8696 32.792 35.8696 32.3485C35.8696 31.905 35.5739 31.6094 35.1304 31.6094Z" fill="#034737"/>
<path d="M35.1304 36.0439H27.7391C27.2957 36.0439 27 36.3396 27 36.7831C27 37.2266 27.2957 37.5222 27.7391 37.5222H35.1304C35.5739 37.5222 35.8696 37.2266 35.8696 36.7831C35.8696 36.3396 35.5739 36.0439 35.1304 36.0439Z" fill="#034737"/>
<path d="M35.1304 40.4785H27.7391C27.2957 40.4785 27 40.7742 27 41.2176C27 41.6611 27.2957 41.9568 27.7391 41.9568H35.1304C35.5739 41.9568 35.8696 41.6611 35.8696 41.2176C35.8696 40.7742 35.5739 40.4785 35.1304 40.4785Z" fill="#034737"/>
<path d="M35.1304 44.9131H27.7391C27.2957 44.9131 27 45.2087 27 45.6522C27 46.0957 27.2957 46.3913 27.7391 46.3913H35.1304C35.5739 46.3913 35.8696 46.0957 35.8696 45.6522C35.8696 45.2087 35.5739 44.9131 35.1304 44.9131Z" fill="#034737"/>
<defs>
<filter id="filter0_bd_8_2592" x="-31.1333" y="-38.1333" width="150.267" height="154.086" filterUnits="userSpaceOnUse" color-interpolation-filters="sRGB">
<feFlood flood-opacity="0" result="BackgroundImageFix"/>
<feGaussianBlur in="BackgroundImageFix" stdDeviation="21.0667"/>
<feComposite in2="SourceAlpha" operator="in" result="effect1_backgroundBlur_8_2592"/>
<feColorMatrix in="SourceAlpha" type="matrix" values="0 0 0 0 0 0 0 0 0 0 0 0 0 0 0 0 0 0 127 0" result="hardAlpha"/>
<feOffset dy="6.4"/>
<feGaussianBlur stdDeviation="5.06667"/>
<feComposite in2="hardAlpha" operator="out"/>
<feColorMatrix type="matrix" values="0 0 0 0 0.0867708 0 0 0 0 0.115317 0 0 0 0 0.141667 0 0 0 0.08 0"/>
<feBlend mode="normal" in2="effect1_backgroundBlur_8_2592" result="effect2_dropShadow_8_2592"/>
<feBlend mode="normal" in="SourceGraphic" in2="effect2_dropShadow_8_2592" result="shape"/>
</filter>
<filter id="filter1_bd_8_2592" x="-31.1333" y="-38.1333" width="150.267" height="154.086" filterUnits="userSpaceOnUse" color-interpolation-filters="sRGB">
<feFlood flood-opacity="0" result="BackgroundImageFix"/>
<feGaussianBlur in="BackgroundImageFix" stdDeviation="21.0667"/>
<feComposite in2="SourceAlpha" operator="in" result="effect1_backgroundBlur_8_2592"/>
<feColorMatrix in="SourceAlpha" type="matrix" values="0 0 0 0 0 0 0 0 0 0 0 0 0 0 0 0 0 0 127 0" result="hardAlpha"/>
<feOffset dy="6.4"/>
<feGaussianBlur stdDeviation="5.06667"/>
<feComposite in2="hardAlpha" operator="out"/>
<feColorMatrix type="matrix" values="0 0 0 0 0.0867708 0 0 0 0 0.115317 0 0 0 0 0.141667 0 0 0 0.08 0"/>
<feBlend mode="normal" in2="effect1_backgroundBlur_8_2592" result="effect2_dropShadow_8_2592"/>
<feBlend mode="normal" in="SourceGraphic" in2="effect2_dropShadow_8_2592" result="shape"/>
</filter>
<radialGradient id="paint0_radial_8_2592" cx="0" cy="0" r="1" gradientUnits="userSpaceOnUse" gradientTransform="translate(44 38.9097) rotate(90) scale(33.9097 32)">
<stop stopColor="white"/>
<stop offset="1" stopColor="white"/>
</radialGradient>
<radialGradient id="paint1_radial_8_2592" cx="0" cy="0" r="1" gradientUnits="userSpaceOnUse" gradientTransform="translate(44 38.9097) rotate(90) scale(33.9097 32)">
<stop stopColor="white"/>
<stop offset="1" stopColor="white"/>
</radialGradient>
</defs>
</svg>
