<svg width="87" height="91" viewBox="0 0 87 91" fill="none" xmlns="http://www.w3.org/2000/svg">
<g filter="url(#filter0_bd_8_6657)">
<rect x="11.5586" y="5" width="64" height="67.8193" rx="20" fill="url(#paint0_radial_8_6657)" fill-opacity="0.7" shape-rendering="crispEdges"/>
<rect x="11.0586" y="4.5" width="65" height="68.8193" rx="20.5" stroke="#EAEAEA" shape-rendering="crispEdges"/>
</g>
<path d="M42.1419 25.9587C42.5331 25.9587 42.8503 25.6415 42.8503 25.2503C42.8503 24.8591 42.5331 24.542 42.1419 24.542C41.7507 24.542 41.4336 24.8591 41.4336 25.2503C41.4336 25.6415 41.7507 25.9587 42.1419 25.9587Z" fill="#034737"/>
<path d="M47.4544 31.9788V27.7288C47.4544 27.3377 47.1376 27.0205 46.746 27.0205C46.3545 27.0205 46.0377 27.3377 46.0377 27.7288V31.9788C46.0377 32.37 46.3545 32.6872 46.746 32.6872C47.1376 32.6872 47.4544 32.37 47.4544 31.9788ZM39.3459 32.6125C39.6966 32.7871 40.1206 32.6457 40.2963 32.2957L40.4547 31.9788H43.1207L43.2791 32.2957C43.4036 32.544 43.6533 32.6875 43.9134 32.6872C44.0199 32.6872 44.1278 32.6633 44.2295 32.6125C44.5795 32.4375 44.7213 32.012 44.5463 31.662L42.4213 27.412C42.1806 26.932 41.3948 26.932 41.1541 27.412L39.0291 31.662C38.8541 32.012 38.9959 32.4375 39.3459 32.6125ZM41.7877 29.3126L42.4124 30.5622H41.163L41.7877 29.3126Z" fill="#034737"/>
<path d="M55.6003 24.542C55.2107 24.542 54.8919 24.8607 54.8919 25.2503V28.792C54.8919 29.1816 54.5732 29.5003 54.1836 29.5003H53.8294C53.8294 28.3316 52.8732 27.3753 51.7044 27.3753H50.9961C50.9961 25.8099 49.7282 24.542 48.1628 24.542H44.9753C44.5857 24.542 44.2669 24.8607 44.2669 25.2503C44.2669 25.6399 44.5857 25.9587 44.9753 25.9587H48.1628C48.9419 25.9587 49.5794 26.5961 49.5794 27.3753V32.3337C49.5794 33.1128 48.9419 33.7503 48.1628 33.7503H38.9544C38.1753 33.7503 37.5378 33.1128 37.5378 32.3337V27.3753C37.5378 26.5961 38.1753 25.9587 38.9544 25.9587H39.3086C39.6982 25.9587 40.0169 25.6399 40.0169 25.2503C40.0169 24.8607 39.6982 24.542 39.3086 24.542H38.9544C37.389 24.542 36.1211 25.8099 36.1211 27.3753H35.4128C34.244 27.3753 33.2878 28.3316 33.2878 29.5003H32.9336C32.544 29.5003 32.2253 29.1816 32.2253 28.792V25.2503C32.2253 24.8607 31.9065 24.542 31.5169 24.542C31.1274 24.542 30.8086 24.8607 30.8086 25.2503V28.792C30.8086 29.9607 31.7648 30.917 32.9336 30.917H33.2878C33.2878 32.0857 34.244 33.042 35.4128 33.042H36.2203C36.539 34.2603 37.6369 35.167 38.9544 35.167H41.4336V37.292C37.134 37.292 33.6419 40.7841 33.6419 45.0837V49.3337C33.6419 50.5024 34.5982 51.4587 35.7669 51.4587H51.3503C52.519 51.4587 53.4753 50.5024 53.4753 49.3337V45.0837C53.4753 40.7841 49.9832 37.292 45.6836 37.292V35.167H48.1628C49.4803 35.167 50.5782 34.2603 50.8969 33.042H51.7044C52.8732 33.042 53.8294 32.0857 53.8294 30.917H54.1836C55.3524 30.917 56.3086 29.9607 56.3086 28.792V25.2503C56.3086 24.8607 55.9898 24.542 55.6003 24.542ZM36.1211 31.6253H35.4128C35.0232 31.6253 34.7044 31.3066 34.7044 30.917V29.5003C34.7044 29.1107 35.0232 28.792 35.4128 28.792H36.1211V31.6253ZM42.8503 35.167H44.2669V37.292H42.8503V35.167ZM52.0586 45.0837V49.3337C52.0586 49.7232 51.7398 50.042 51.3503 50.042H35.7669C35.3774 50.042 35.0586 49.7232 35.0586 49.3337V45.0837C35.0586 41.5703 37.9202 38.7087 41.4336 38.7087H45.6836C49.1969 38.7087 52.0586 41.5703 52.0586 45.0837ZM52.4128 30.917C52.4128 31.3066 52.094 31.6253 51.7044 31.6253H50.9961V28.792H51.7044C52.094 28.792 52.4128 29.1107 52.4128 29.5003V30.917Z" fill="#034737"/>
<path d="M49.2253 43.6667H48.5169V42.25C48.5169 41.8604 48.1982 41.5417 47.8086 41.5417H47.1003V40.8333C47.1003 40.4438 46.7815 40.125 46.3919 40.125C46.0024 40.125 45.6836 40.4438 45.6836 40.8333V41.5417H44.2669V40.8333C44.2669 40.4438 43.9482 40.125 43.5586 40.125C43.169 40.125 42.8503 40.4438 42.8503 40.8333V41.5417H41.4336V40.8333C41.4336 40.4438 41.1148 40.125 40.7253 40.125C40.3357 40.125 40.0169 40.4438 40.0169 40.8333V41.5417H39.3086C38.919 41.5417 38.6003 41.8604 38.6003 42.25V43.6667H37.8919C37.5024 43.6667 37.1836 43.9854 37.1836 44.375C37.1836 44.7646 37.5024 45.0833 37.8919 45.0833H38.6003V46.5C38.6003 46.8896 38.919 47.2083 39.3086 47.2083H40.0169V47.9167C40.0169 48.3062 40.3357 48.625 40.7253 48.625C41.1148 48.625 41.4336 48.3062 41.4336 47.9167V47.2083H42.8503V47.9167C42.8503 48.3062 43.169 48.625 43.5586 48.625C43.9482 48.625 44.2669 48.3062 44.2669 47.9167V47.2083H45.6836V47.9167C45.6836 48.3062 46.0024 48.625 46.3919 48.625C46.7815 48.625 47.1003 48.3062 47.1003 47.9167V47.2083H47.8086C48.1982 47.2083 48.5169 46.8896 48.5169 46.5V45.0833H49.2253C49.6148 45.0833 49.9336 44.7646 49.9336 44.375C49.9336 43.9854 49.6148 43.6667 49.2253 43.6667ZM47.1003 45.7917H40.0169V42.9583H47.1003V45.7917Z" fill="#034737"/>
<defs>
<filter id="filter0_bd_8_6657" x="-31.5747" y="-38.1333" width="150.267" height="154.086" filterUnits="userSpaceOnUse" color-interpolation-filters="sRGB">
<feFlood flood-opacity="0" result="BackgroundImageFix"/>
<feGaussianBlur in="BackgroundImageFix" stdDeviation="21.0667"/>
<feComposite in2="SourceAlpha" operator="in" result="effect1_backgroundBlur_8_6657"/>
<feColorMatrix in="SourceAlpha" type="matrix" values="0 0 0 0 0 0 0 0 0 0 0 0 0 0 0 0 0 0 127 0" result="hardAlpha"/>
<feOffset dy="6.4"/>
<feGaussianBlur stdDeviation="5.06667"/>
<feComposite in2="hardAlpha" operator="out"/>
<feColorMatrix type="matrix" values="0 0 0 0 0.0867708 0 0 0 0 0.115317 0 0 0 0 0.141667 0 0 0 0.08 0"/>
<feBlend mode="normal" in2="effect1_backgroundBlur_8_6657" result="effect2_dropShadow_8_6657"/>
<feBlend mode="normal" in="SourceGraphic" in2="effect2_dropShadow_8_6657" result="shape"/>
</filter>
<radialGradient id="paint0_radial_8_6657" cx="0" cy="0" r="1" gradientUnits="userSpaceOnUse" gradientTransform="translate(43.5586 38.9097) rotate(90) scale(33.9097 32)">
<stop stopColor="white"/>
<stop offset="1" stopColor="white"/>
</radialGradient>
</defs>
</svg>
