<svg width="88" height="91" viewBox="0 0 88 91" fill="none" xmlns="http://www.w3.org/2000/svg">
<g filter="url(#filter0_bd_8_2951)">
<rect x="12" y="5" width="64" height="67.8193" rx="20" fill="url(#paint0_radial_8_2951)" fill-opacity="0.7" shape-rendering="crispEdges"/>
<rect x="11.5" y="4.5" width="65" height="68.8193" rx="20.5" stroke="#EAEAEA" shape-rendering="crispEdges"/>
</g>
<circle cx="32.9167" cy="27.9167" r="3.16667" stroke="#034737" strokeWidth="2.05833" strokeLinecap="round" strokeLinejoin="round"/>
<circle cx="55.0832" cy="50.0837" r="3.16667" stroke="#034737" strokeWidth="2.05833" strokeLinecap="round" strokeLinejoin="round"/>
<circle cx="55.0832" cy="27.9167" r="3.16667" stroke="#034737" strokeWidth="2.05833" strokeLinecap="round" strokeLinejoin="round"/>
<circle cx="32.9167" cy="50.0837" r="3.16667" stroke="#034737" strokeWidth="2.05833" strokeLinecap="round" strokeLinejoin="round"/>
<path d="M34.5643 46.98C34.1623 47.3819 34.1623 48.0335 34.5643 48.4354C34.9662 48.8373 35.6178 48.8373 36.0197 48.4354L34.5643 46.98ZM53.4364 31.0187C53.8383 30.6168 53.8383 29.9652 53.4364 29.5633C53.0345 29.1614 52.3828 29.1614 51.9809 29.5633L53.4364 31.0187ZM33.9462 31.0827C33.9462 30.5143 33.4854 30.0535 32.917 30.0535C32.3486 30.0535 31.8878 30.5143 31.8878 31.0827H33.9462ZM31.8878 46.916C31.8878 47.4844 32.3486 47.9452 32.917 47.9452C33.4854 47.9452 33.9462 47.4844 33.9462 46.916H31.8878ZM56.1128 31.0827C56.1128 30.5143 55.6521 30.0535 55.0837 30.0535C54.5153 30.0535 54.0545 30.5143 54.0545 31.0827H56.1128ZM54.0545 46.916C54.0545 47.4844 54.5153 47.9452 55.0837 47.9452C55.6521 47.9452 56.1128 47.4844 56.1128 46.916H54.0545ZM36.0197 48.4354L53.4364 31.0187L51.9809 29.5633L34.5643 46.98L36.0197 48.4354ZM31.8878 31.0827V46.916H33.9462V31.0827H31.8878ZM54.0545 31.0827V46.916H56.1128V31.0827H54.0545Z" fill="#034737"/>
<defs>
<filter id="filter0_bd_8_2951" x="-31.1333" y="-38.1333" width="150.267" height="154.086" filterUnits="userSpaceOnUse" color-interpolation-filters="sRGB">
<feFlood flood-opacity="0" result="BackgroundImageFix"/>
<feGaussianBlur in="BackgroundImageFix" stdDeviation="21.0667"/>
<feComposite in2="SourceAlpha" operator="in" result="effect1_backgroundBlur_8_2951"/>
<feColorMatrix in="SourceAlpha" type="matrix" values="0 0 0 0 0 0 0 0 0 0 0 0 0 0 0 0 0 0 127 0" result="hardAlpha"/>
<feOffset dy="6.4"/>
<feGaussianBlur stdDeviation="5.06667"/>
<feComposite in2="hardAlpha" operator="out"/>
<feColorMatrix type="matrix" values="0 0 0 0 0.0867708 0 0 0 0 0.115317 0 0 0 0 0.141667 0 0 0 0.08 0"/>
<feBlend mode="normal" in2="effect1_backgroundBlur_8_2951" result="effect2_dropShadow_8_2951"/>
<feBlend mode="normal" in="SourceGraphic" in2="effect2_dropShadow_8_2951" result="shape"/>
</filter>
<radialGradient id="paint0_radial_8_2951" cx="0" cy="0" r="1" gradientUnits="userSpaceOnUse" gradientTransform="translate(44 38.9097) rotate(90) scale(33.9097 32)">
<stop stopColor="white"/>
<stop offset="1" stopColor="white"/>
</radialGradient>
</defs>
</svg>
