<svg width="88" height="91" viewBox="0 0 88 91" fill="none" xmlns="http://www.w3.org/2000/svg">
<g filter="url(#filter0_bd_8_6676)">
<rect x="12" y="5" width="64" height="67.8193" rx="20" fill="#7243D5"/>
<rect x="11.5" y="4.5" width="65" height="68.8193" rx="20.5" stroke="#EAEAEA"/>
</g>
<path d="M43.9999 27.8494C38.763 27.8494 34.494 32.1422 34.494 37.4206C34.494 39.9916 35.4974 42.4081 37.3143 44.2309C38.3771 45.2819 38.9887 46.7663 38.9887 48.2981V49.0284C38.9887 49.26 39.1787 49.4619 39.4162 49.4619H48.6134L48.6312 49.4559H48.7202L48.8034 49.4025C48.9399 49.3253 49.0171 49.1828 49.0171 49.0284V47.7459C49.0171 46.4991 49.5337 45.3056 50.4421 44.4625C52.3955 42.6516 53.5118 40.0747 53.5118 37.3969C53.494 32.1362 49.2249 27.8494 43.9999 27.8494ZM43.1568 35.8709C43.3943 36.1084 43.709 36.2391 44.0415 36.2391C45.3359 36.2688 46.3749 37.3494 46.3749 38.6497C46.3749 39.2969 46.1255 39.9025 45.6624 40.3597C45.3655 40.6566 45.0093 40.8584 44.6174 40.9713V41.6006C44.6174 41.9272 44.3562 42.1825 44.0355 42.1825C43.709 42.1825 43.4537 41.9272 43.4537 41.6006V41.0128C42.3612 40.7812 41.5418 39.8075 41.5418 38.6497C41.5418 38.3291 41.803 38.0678 42.1237 38.0678C42.4502 38.0678 42.7055 38.3291 42.7055 38.6497C42.7055 39.3384 43.2637 39.8966 43.9584 39.8966C44.2909 39.8966 44.6055 39.7659 44.8371 39.5284C45.0687 39.2969 45.2052 38.9822 45.2052 38.6497C45.2052 37.9728 44.6768 37.4147 44.0237 37.4028C43.3884 37.4028 42.7827 37.1534 42.3255 36.6963C41.8684 36.2331 41.619 35.6275 41.619 34.9862C41.619 34.3391 41.8684 33.7334 42.3255 33.2763C42.6402 32.9616 43.0262 32.7478 43.4477 32.6469V32.0294C43.4477 31.7087 43.709 31.4534 44.0296 31.4534C44.3502 31.4534 44.6115 31.7088 44.6115 32.0353V32.6469C45.0449 32.7537 45.4249 32.9734 45.7277 33.2822C46.173 33.7156 46.4402 34.3212 46.4402 34.9862C46.4402 35.3069 46.179 35.5681 45.8584 35.5681C45.5377 35.5681 45.2765 35.3069 45.2765 34.9862C45.2765 34.6537 45.1459 34.3391 44.9084 34.1075C44.6768 33.87 44.3621 33.7394 44.0296 33.7394C43.6971 33.7394 43.3824 33.87 43.1449 34.1016C42.9134 34.3391 42.7827 34.6537 42.7827 34.9862C42.7946 35.3247 42.9193 35.6394 43.1568 35.8709ZM43.5309 25.6228C44.0474 25.6228 44.463 25.2072 44.463 24.6906V20.9322C44.463 20.4156 44.0474 20 43.5309 20C43.0143 20 42.5987 20.4156 42.5987 20.9322V24.6906C42.5987 25.2072 43.0202 25.6228 43.5309 25.6228ZM37.3084 26.4006C37.4627 26.7272 37.7952 26.9409 38.1515 26.9409C38.288 26.9409 38.4187 26.9113 38.5434 26.8519C39.0065 26.6322 39.2143 26.08 38.9946 25.6109L37.4093 22.2088C37.2549 21.8822 36.9224 21.6684 36.5662 21.6684C36.4296 21.6684 36.299 21.6981 36.1743 21.7575C35.7112 21.9772 35.5034 22.5294 35.723 22.9984L37.3084 26.4006ZM34.7612 29.3931C34.7374 29.1438 34.6246 28.9181 34.4346 28.7578L31.5549 26.3413C31.3887 26.1988 31.1749 26.1216 30.9552 26.1216C30.6762 26.1216 30.4209 26.2403 30.2427 26.4541C30.0824 26.6441 30.0052 26.8875 30.029 27.1369C30.0527 27.3863 30.1655 27.6119 30.3555 27.7722L33.2352 30.1888C33.4015 30.3313 33.6152 30.4084 33.8349 30.4084C34.114 30.4084 34.3693 30.2897 34.5474 30.0759C34.7077 29.8859 34.7849 29.6425 34.7612 29.3931ZM31.6262 33.5434L27.9924 32.5697C27.9152 32.5459 27.8321 32.54 27.749 32.54C27.3274 32.54 26.9593 32.825 26.8524 33.2288C26.7871 33.4663 26.8227 33.7216 26.9474 33.9353C27.0721 34.1491 27.274 34.3034 27.5115 34.3688L31.1452 35.3425C31.2224 35.3663 31.3055 35.3722 31.3887 35.3722C31.8102 35.3722 32.1784 35.0872 32.2912 34.6834C32.3565 34.4459 32.3209 34.1906 32.1962 33.9769C32.0655 33.7631 31.8696 33.6087 31.6262 33.5434ZM49.4505 26.8519C49.5752 26.9113 49.7059 26.9409 49.8424 26.9409C50.2046 26.9409 50.5371 26.7272 50.6855 26.4006L52.2768 22.9925C52.4965 22.5234 52.2887 21.9713 51.8255 21.7516C51.7009 21.6922 51.5702 21.6625 51.4337 21.6625C51.0715 21.6625 50.739 21.8763 50.5905 22.2028L48.9993 25.6109C48.7855 26.08 48.9874 26.6381 49.4505 26.8519ZM57.9768 27.1428C58.0005 26.8934 57.9234 26.65 57.763 26.46C57.5849 26.2463 57.3237 26.1275 57.0505 26.1275C56.8309 26.1275 56.6171 26.2047 56.4509 26.3472L53.5712 28.7638C53.3812 28.9241 53.2624 29.1497 53.2387 29.3991C53.2149 29.6484 53.2921 29.8919 53.4524 30.0819C53.6305 30.2956 53.8918 30.4144 54.1649 30.4144C54.3846 30.4144 54.5984 30.3372 54.7646 30.1947L57.6443 27.7781C57.8343 27.6119 57.953 27.3863 57.9768 27.1428ZM61.1474 33.2288C61.0405 32.8191 60.6665 32.5341 60.2449 32.5341C60.1618 32.5341 60.0787 32.5459 60.0015 32.5638L56.3677 33.5375C56.1243 33.6028 55.9284 33.7572 55.8037 33.9709C55.679 34.1847 55.6434 34.44 55.7087 34.6775C55.8155 35.0872 56.1896 35.3662 56.6112 35.3662C56.6943 35.3662 56.7774 35.3544 56.8546 35.3366L60.4884 34.3628C60.7318 34.2975 60.9277 34.1431 61.0524 33.9294C61.1771 33.7216 61.2127 33.4663 61.1474 33.2288ZM39.624 52.8106L39.6299 52.8403V52.87L39.6537 53.0066C39.6596 53.06 39.6655 53.1075 39.6774 53.1609V53.2025L39.7071 53.2678C39.719 53.2916 39.7249 53.3153 39.7368 53.3688C39.9327 53.9447 40.3305 54.39 40.859 54.6097C41.0787 54.7106 41.334 54.7759 41.6249 54.7878L41.6724 54.7938H46.3155L46.3512 54.7878C47.224 54.7759 47.9959 54.2 48.2809 53.3688L48.2868 53.3391L48.3284 53.2916V53.1906C48.3462 53.0956 48.3521 53.0363 48.3462 53.0363L48.364 52.9175C48.3699 52.8878 48.3818 52.7275 48.3818 52.7275V49.9131H39.624V52.8106ZM46.3749 55.2628C46.3452 55.2628 46.3155 55.2628 46.2859 55.2687H41.7021C41.6605 55.2687 41.6071 55.2628 41.5655 55.2569L41.4765 55.245L40.9659 55.1619L41.0787 55.6666C41.3934 57.0441 42.5927 58 43.9999 58C45.4071 58 46.6065 57.0441 46.9152 55.6784L47.0221 55.2094L46.5412 55.2569C46.4877 55.2569 46.4284 55.2628 46.3749 55.2628Z" fill="white"/>
<defs>
<filter id="filter0_bd_8_6676" x="-31.1333" y="-38.1333" width="150.267" height="154.086" filterUnits="userSpaceOnUse" color-interpolation-filters="sRGB">
<feFlood flood-opacity="0" result="BackgroundImageFix"/>
<feGaussianBlur in="BackgroundImageFix" stdDeviation="21.0667"/>
<feComposite in2="SourceAlpha" operator="in" result="effect1_backgroundBlur_8_6676"/>
<feColorMatrix in="SourceAlpha" type="matrix" values="0 0 0 0 0 0 0 0 0 0 0 0 0 0 0 0 0 0 127 0" result="hardAlpha"/>
<feOffset dy="6.4"/>
<feGaussianBlur stdDeviation="5.06667"/>
<feComposite in2="hardAlpha" operator="out"/>
<feColorMatrix type="matrix" values="0 0 0 0 0.0867708 0 0 0 0 0.115317 0 0 0 0 0.141667 0 0 0 0.08 0"/>
<feBlend mode="normal" in2="effect1_backgroundBlur_8_6676" result="effect2_dropShadow_8_6676"/>
<feBlend mode="normal" in="SourceGraphic" in2="effect2_dropShadow_8_6676" result="shape"/>
</filter>
</defs>
</svg>
