<svg width="88" height="91" viewBox="0 0 88 91" fill="none" xmlns="http://www.w3.org/2000/svg">
<g filter="url(#filter0_bd_8_3244)">
<rect x="12" y="5" width="64" height="67.8193" rx="20" fill="url(#paint0_radial_8_3244)" fill-opacity="0.7" shape-rendering="crispEdges"/>
<rect x="11.5" y="4.5" width="65" height="68.8193" rx="20.5" stroke="#EAEAEA" shape-rendering="crispEdges"/>
</g>
<g filter="url(#filter1_bd_8_3244)">
<rect x="12" y="5" width="64" height="67.8193" rx="20" fill="url(#paint1_radial_8_3244)" fill-opacity="0.7" shape-rendering="crispEdges"/>
<rect x="11.5" y="4.5" width="65" height="68.8193" rx="20.5" stroke="#EAEAEA" shape-rendering="crispEdges"/>
</g>
<path d="M42.4007 25.0623H43.8532V54.7191H42.4007V25.0623ZM56.4043 30.9194C56.1972 32.2349 55.3368 33.4643 54.0548 34.2242C53.9615 34.2796 53.8594 34.3058 53.7573 34.3058C53.5575 34.3058 53.3635 34.2037 53.2556 34.02C53.0908 33.7429 53.1827 33.3856 53.4598 33.2208C54.5696 32.5631 55.2872 31.4197 55.2872 30.3084C55.2872 27.4791 52.9858 25.1778 50.1566 25.1778H48.8207C46.7278 25.1778 45.0259 26.8797 45.0259 28.9725H45.023V30.5199H45.4489C45.9287 30.5199 46.3604 30.7824 46.5762 31.2053C46.7424 31.5305 46.8679 31.8878 46.9481 32.267C46.9554 32.3006 46.9845 32.3312 47.0239 32.3443C47.285 32.4362 47.5446 32.5441 47.794 32.6637C47.826 32.6798 47.864 32.6768 47.8931 32.6579C48.2256 32.4406 48.5786 32.2758 48.9417 32.165C49.388 32.0293 49.8707 32.1518 50.2032 32.4829L51.6383 33.918C51.9767 34.2563 52.0963 34.7478 51.9504 35.1999C51.8381 35.5485 51.6733 35.8898 51.4619 36.215C51.4429 36.2441 51.4429 36.2864 51.4619 36.3244C51.5814 36.5737 51.6894 36.8333 51.7812 37.0944C51.7929 37.1279 51.8206 37.1527 51.8542 37.16C52.2421 37.2417 52.6096 37.3744 52.9436 37.5538C53.3549 37.774 53.6101 38.2013 53.6101 38.6709V40.6996C53.6101 41.1794 53.3476 41.6111 52.9247 41.8269C52.5995 41.9932 52.2421 42.1186 51.8615 42.1988C51.8279 42.2061 51.7973 42.2353 51.7842 42.2746C51.6923 42.5357 51.5844 42.7953 51.4648 43.0447C51.4488 43.0768 51.4517 43.1147 51.4706 43.1438C51.6879 43.4764 51.8527 43.8293 51.9636 44.1924C52.0992 44.6387 51.9767 45.1229 51.6456 45.454L50.2105 46.889C49.8722 47.2274 49.3807 47.347 48.9286 47.2011C48.5815 47.0888 48.2402 46.924 47.9135 46.7126C47.8844 46.6936 47.8421 46.6936 47.8042 46.7126C47.5548 46.8322 47.2952 46.9401 47.0341 47.032C47.0006 47.0436 46.9758 47.0713 46.9685 47.1049C46.8868 47.4943 46.7541 47.8603 46.5747 48.1943C46.3545 48.6056 45.9272 48.8608 45.4576 48.8608H45.0215V50.3236H45.0244C45.0244 52.4383 46.8635 54.7191 49.8328 54.7191C52.4842 54.7191 54.6412 52.5621 54.6412 49.9107C54.6412 49.5723 54.6047 49.2311 54.5333 48.8956C54.3218 47.9739 53.6714 47.0931 52.8342 46.5957C52.5571 46.4309 52.4667 46.0736 52.6315 45.7965C52.7963 45.5194 53.1536 45.429 53.4307 45.5938C54.3509 46.1407 55.0991 47.0449 55.4841 48.0395C57.4719 47.2987 58.8181 45.3955 58.8181 43.2326C58.8181 42.5122 58.6693 41.8136 58.3776 41.1573C57.4734 39.8346 56.3927 39.1593 55.0729 39.0966C54.7506 39.082 54.5026 38.8079 54.5172 38.4856C54.5332 38.1633 54.8074 37.9168 55.1283 37.9299C56.6581 38.0028 57.9663 38.7204 59.0253 40.0665C60.2708 39.0966 61 37.6222 61 36.0223C61 33.3739 58.983 31.1878 56.4033 30.9194L56.4043 30.9194ZM48.5408 39.6902C48.5408 37.6251 47.008 35.913 45.0202 35.6285V43.7519C47.008 43.4675 48.5408 41.7553 48.5408 39.6902ZM45.5453 47.6444C45.6736 47.4038 45.7655 47.1486 45.8253 46.8627C45.9157 46.434 46.2292 46.0781 46.6434 45.9308C46.8651 45.852 47.0853 45.7616 47.2968 45.6595C47.6993 45.4656 48.1777 45.4947 48.5467 45.7339C48.7873 45.89 49.0352 46.0095 49.2861 46.0912C49.3182 46.1014 49.3561 46.0912 49.3838 46.065L50.8189 44.6299C50.8451 44.6036 50.8554 44.5657 50.8451 44.5322C50.7664 44.2711 50.6497 44.0261 50.4907 43.7811C50.2516 43.4136 50.2209 42.9396 50.4105 42.5429C50.5126 42.33 50.603 42.1097 50.6818 41.8881C50.8291 41.4666 51.1879 41.1487 51.6166 41.0582C51.8966 40.9984 52.1577 40.908 52.391 40.7884C52.4217 40.7724 52.4406 40.7388 52.4406 40.7009V38.6723C52.4406 38.6344 52.4202 38.5994 52.391 38.5833C52.1533 38.4564 51.8908 38.3616 51.6093 38.3033C51.1806 38.2129 50.8247 37.8993 50.6774 37.4851C50.5986 37.2635 50.5082 37.0432 50.4061 36.8318C50.2122 36.4293 50.2413 35.9509 50.4805 35.5819C50.6366 35.3413 50.7562 35.0933 50.8378 34.8425C50.848 34.8104 50.8378 34.7725 50.8116 34.7448L49.3765 33.3097C49.3502 33.2834 49.3123 33.2732 49.2788 33.2834C49.0177 33.3622 48.7712 33.4789 48.5277 33.6378C48.1602 33.877 47.6862 33.9076 47.2895 33.718C47.0766 33.616 46.8578 33.5255 46.6347 33.4468C46.2132 33.2995 45.8953 32.9407 45.8048 32.5119C45.7451 32.2319 45.6546 31.9709 45.535 31.7375C45.519 31.7069 45.4855 31.688 45.4475 31.688H45.0217V34.4546C47.6541 34.7462 49.7091 36.9834 49.7091 39.6916C49.7091 42.3997 47.6542 44.637 45.0217 44.9286V47.6952H45.4578C45.4957 47.6952 45.5307 47.6748 45.5467 47.6456L45.5453 47.6444ZM30.41 36.9106C30.4158 36.8537 30.4187 36.7954 30.4187 36.737C30.4187 35.7949 29.6516 35.0278 28.7095 35.0278C27.7674 35.0278 27.0002 35.7949 27.0002 36.737C27.0002 37.6791 27.7674 38.4463 28.7095 38.4463C29.1733 38.4463 29.5933 38.2611 29.901 37.9606L32.233 39.0865C32.3117 39.1244 32.3992 39.1448 32.4867 39.1448H41.2344V37.9781H32.6197L30.41 36.9106ZM34.3709 32.5267C34.4992 32.2875 34.5721 32.0133 34.5721 31.7231C34.5721 30.781 33.805 30.0139 32.8629 30.0139C31.9208 30.0139 31.1536 30.781 31.1536 31.7231C31.1536 32.6652 31.9208 33.4324 32.8629 33.4324C33.0904 33.4324 33.3062 33.3872 33.5046 33.3069L35.5114 35.5354C35.6222 35.6579 35.7797 35.7279 35.9445 35.7279H41.2356V34.5612H36.204L34.3708 32.5253L34.3709 32.5267ZM37.6771 28.3164C38.3333 28.0772 38.8029 27.4472 38.8029 26.7092C38.8029 25.7671 38.0358 25 37.0937 25C36.1516 25 35.3845 25.7671 35.3845 26.7092C35.3845 27.4472 35.8541 28.0772 36.5118 28.3164V31.3266C36.5118 31.6489 36.7729 31.9099 37.0952 31.9099H41.2356V30.7432H37.6786V28.3149L37.6771 28.3164ZM32.1817 40.7244L29.7753 42.1959C29.4822 41.9625 29.1118 41.8211 28.7092 41.8211C27.7671 41.8211 27 42.5882 27 43.5303C27 44.4724 27.7671 45.2396 28.7092 45.2396C29.6514 45.2396 30.4185 44.4724 30.4185 43.5303C30.4185 43.4137 30.4068 43.2999 30.3849 43.1905L32.6513 41.805H41.2354V40.6383H32.4878C32.3798 40.6383 32.2748 40.6675 32.183 40.7244L32.1817 40.7244ZM36.5103 48.4554V51.9497C35.8541 52.1889 35.383 52.8189 35.383 53.5569C35.383 54.499 36.1501 55.2661 37.0922 55.2661C38.0344 55.2661 38.8015 54.499 38.8015 53.5569C38.8015 52.8189 38.3319 52.1889 37.6756 51.9497V49.0373H41.2326V47.8705H37.0922C36.7699 47.8705 36.5088 48.1316 36.5088 48.4539L36.5103 48.4554ZM35.4894 44.2712L33.3602 46.9095C33.2027 46.8613 33.035 46.8351 32.8614 46.8351C31.9193 46.8351 31.1522 47.6022 31.1522 48.5443C31.1522 49.4864 31.9193 50.2536 32.8614 50.2536C33.8035 50.2536 34.5707 49.4864 34.5707 48.5443C34.5707 48.2001 34.4686 47.8793 34.2921 47.6109L36.2216 45.2206H41.2342V44.0539H35.9431C35.7666 44.0539 35.6003 44.1341 35.4894 44.2712Z" fill="#034737"/>
<defs>
<filter id="filter0_bd_8_3244" x="-31.1333" y="-38.1333" width="150.267" height="154.086" filterUnits="userSpaceOnUse" color-interpolation-filters="sRGB">
<feFlood flood-opacity="0" result="BackgroundImageFix"/>
<feGaussianBlur in="BackgroundImageFix" stdDeviation="21.0667"/>
<feComposite in2="SourceAlpha" operator="in" result="effect1_backgroundBlur_8_3244"/>
<feColorMatrix in="SourceAlpha" type="matrix" values="0 0 0 0 0 0 0 0 0 0 0 0 0 0 0 0 0 0 127 0" result="hardAlpha"/>
<feOffset dy="6.4"/>
<feGaussianBlur stdDeviation="5.06667"/>
<feComposite in2="hardAlpha" operator="out"/>
<feColorMatrix type="matrix" values="0 0 0 0 0.0867708 0 0 0 0 0.115317 0 0 0 0 0.141667 0 0 0 0.08 0"/>
<feBlend mode="normal" in2="effect1_backgroundBlur_8_3244" result="effect2_dropShadow_8_3244"/>
<feBlend mode="normal" in="SourceGraphic" in2="effect2_dropShadow_8_3244" result="shape"/>
</filter>
<filter id="filter1_bd_8_3244" x="-31.1333" y="-38.1333" width="150.267" height="154.086" filterUnits="userSpaceOnUse" color-interpolation-filters="sRGB">
<feFlood flood-opacity="0" result="BackgroundImageFix"/>
<feGaussianBlur in="BackgroundImageFix" stdDeviation="21.0667"/>
<feComposite in2="SourceAlpha" operator="in" result="effect1_backgroundBlur_8_3244"/>
<feColorMatrix in="SourceAlpha" type="matrix" values="0 0 0 0 0 0 0 0 0 0 0 0 0 0 0 0 0 0 127 0" result="hardAlpha"/>
<feOffset dy="6.4"/>
<feGaussianBlur stdDeviation="5.06667"/>
<feComposite in2="hardAlpha" operator="out"/>
<feColorMatrix type="matrix" values="0 0 0 0 0.0867708 0 0 0 0 0.115317 0 0 0 0 0.141667 0 0 0 0.08 0"/>
<feBlend mode="normal" in2="effect1_backgroundBlur_8_3244" result="effect2_dropShadow_8_3244"/>
<feBlend mode="normal" in="SourceGraphic" in2="effect2_dropShadow_8_3244" result="shape"/>
</filter>
<radialGradient id="paint0_radial_8_3244" cx="0" cy="0" r="1" gradientUnits="userSpaceOnUse" gradientTransform="translate(44 38.9097) rotate(90) scale(33.9097 32)">
<stop stopColor="white"/>
<stop offset="1" stopColor="white"/>
</radialGradient>
<radialGradient id="paint1_radial_8_3244" cx="0" cy="0" r="1" gradientUnits="userSpaceOnUse" gradientTransform="translate(44 38.9097) rotate(90) scale(33.9097 32)">
<stop stopColor="white"/>
<stop offset="1" stopColor="white"/>
</radialGradient>
</defs>
</svg>
