<svg width="85" height="89" viewBox="0 0 85 89" fill="none" xmlns="http://www.w3.org/2000/svg">
<g filter="url(#filter0_bd_8_446)">
<rect x="10.5586" y="3.97266" width="64" height="67.8193" rx="21.3333" fill="url(#paint0_radial_8_446)" fill-opacity="0.7" shape-rendering="crispEdges"/>
<rect x="11.6253" y="5.03932" width="61.8667" height="65.686" rx="20.2667" stroke="white" strokeWidth="2.13333" shape-rendering="crispEdges"/>
</g>
<path d="M37.6973 22.365L28.1896 26.1032C24.472 27.5648 22.9979 31.1578 24.5242 35.0399L28.0468 43.9993C29.5688 47.8704 33.0953 49.4974 36.8128 48.0357L46.3206 44.2975C50.0382 42.8359 51.5014 39.2472 49.9793 35.3761L46.4567 26.4166C44.9304 22.5345 41.4149 20.9033 37.6973 22.365Z" fill="url(#paint1_linear_8_446)"/>
<g opacity="0.5" filter="url(#filter1_f_8_446)">
<path d="M48.1311 35.2259L45.7453 29.1513C44.8798 26.9479 42.8836 26.2512 40.3264 27.2556L31.6655 30.6572C29.0664 31.678 28.1114 33.5339 28.9768 35.7373L31.3626 41.8119C32.242 44.0508 34.1905 44.7245 36.7896 43.7036L45.4505 40.302C48.0077 39.2976 49.0104 37.4648 48.1311 35.2259Z" fill="#FF624D"/>
</g>
<g filter="url(#filter2_b_8_446)">
<path d="M55.9778 32.6718L55.8205 32.3263C55.3961 31.4313 54.9088 30.3949 54.6101 29.7981C53.8869 28.3848 52.645 27.5997 51.1201 27.584H43.7157C42.1907 27.5997 40.9645 28.3848 40.2414 29.7981C39.927 30.4263 39.3925 31.5569 38.9523 32.4834L38.858 32.6718C38.8108 32.7974 38.685 32.8603 38.5593 32.8603C34.7706 32.8603 31.7051 35.9381 31.7051 39.7069V49.0346C31.7051 52.8033 34.7706 55.8811 38.5593 55.8811H56.2922C60.0651 55.8811 63.1464 52.8033 63.1464 49.0346V39.7069C63.1464 35.9381 60.0651 32.8603 56.2922 32.8603C56.1507 32.8603 56.0406 32.7817 55.9778 32.6718Z" fill="#FFAC95" fill-opacity="0.4"/>
<path d="M55.9958 32.2466L55.9958 32.2466L55.9945 32.2439C55.9221 32.0912 55.8478 31.9342 55.7728 31.776C55.4093 31.0081 55.0308 30.2087 54.7822 29.712L54.7814 29.7105C54.0272 28.2364 52.7217 27.408 51.1221 27.3915V27.3915H51.1201L43.7157 27.3915L43.7137 27.3915C42.1131 27.408 40.8238 28.2372 40.07 29.7104L40.0693 29.712C39.7926 30.2647 39.3466 31.204 38.9447 32.0507C38.8885 32.169 38.8332 32.2856 38.7793 32.399L38.6858 32.5857C38.6828 32.5917 38.6801 32.5979 38.6778 32.6042C38.6662 32.6349 38.6282 32.6678 38.5593 32.6678C34.6642 32.6678 31.5126 35.8319 31.5126 39.7069V49.0346C31.5126 52.9095 34.6642 56.0736 38.5593 56.0736H56.2922C60.1712 56.0736 63.3389 52.9098 63.3389 49.0346V39.7069C63.3389 35.8316 60.1712 32.6678 56.2922 32.6678C56.2324 32.6678 56.1827 32.6381 56.1487 32.5828L55.9958 32.2466Z" stroke="url(#paint2_linear_8_446)" strokeWidth="0.384995" strokeLinecap="round" strokeLinejoin="round"/>
</g>
<g filter="url(#filter3_bd_8_446)">
<mask id="path-7-inside-1_8_446" fill="white">
<path fill-rule="evenodd" clip-rule="evenodd" d="M54.83 38.7015C54.83 39.4866 55.4588 40.1147 56.2449 40.1147C57.0309 40.1147 57.6754 39.4866 57.6754 38.7015C57.6754 37.9163 57.0309 37.2725 56.2449 37.2725C55.4588 37.2725 54.83 37.9163 54.83 38.7015ZM51.7802 48.1862C50.664 49.3011 49.1234 49.9921 47.4256 49.9921C45.7749 49.9921 44.2343 49.3483 43.0552 48.1862C41.8919 47.0085 41.2474 45.4696 41.2474 43.8207C41.2316 42.1876 41.8762 40.6487 43.0395 39.4709C44.2186 38.2932 45.7749 37.6494 47.4256 37.6494C49.0762 37.6494 50.6326 38.2932 51.7959 39.4552C52.9592 40.633 53.6038 42.1876 53.6038 43.8207C53.5881 45.5324 52.8963 47.0713 51.7802 48.1862ZM47.4255 40.005C46.4037 40.005 45.4447 40.3976 44.7058 41.1357C43.9827 41.858 43.5897 42.8159 43.6054 43.8052V43.8209C43.6054 44.8416 43.9984 45.7995 44.7216 46.5218C45.4447 47.2442 46.4037 47.6368 47.4255 47.6368C49.5321 47.6368 51.2299 45.9251 51.2456 43.8209C51.2456 42.8002 50.8526 41.8423 50.1295 41.1199C49.4063 40.3976 48.4474 40.005 47.4255 40.005Z"/>
</mask>
<path fill-rule="evenodd" clip-rule="evenodd" d="M54.83 38.7015C54.83 39.4866 55.4588 40.1147 56.2449 40.1147C57.0309 40.1147 57.6754 39.4866 57.6754 38.7015C57.6754 37.9163 57.0309 37.2725 56.2449 37.2725C55.4588 37.2725 54.83 37.9163 54.83 38.7015ZM51.7802 48.1862C50.664 49.3011 49.1234 49.9921 47.4256 49.9921C45.7749 49.9921 44.2343 49.3483 43.0552 48.1862C41.8919 47.0085 41.2474 45.4696 41.2474 43.8207C41.2316 42.1876 41.8762 40.6487 43.0395 39.4709C44.2186 38.2932 45.7749 37.6494 47.4256 37.6494C49.0762 37.6494 50.6326 38.2932 51.7959 39.4552C52.9592 40.633 53.6038 42.1876 53.6038 43.8207C53.5881 45.5324 52.8963 47.0713 51.7802 48.1862ZM47.4255 40.005C46.4037 40.005 45.4447 40.3976 44.7058 41.1357C43.9827 41.858 43.5897 42.8159 43.6054 43.8052V43.8209C43.6054 44.8416 43.9984 45.7995 44.7216 46.5218C45.4447 47.2442 46.4037 47.6368 47.4255 47.6368C49.5321 47.6368 51.2299 45.9251 51.2456 43.8209C51.2456 42.8002 50.8526 41.8423 50.1295 41.1199C49.4063 40.3976 48.4474 40.005 47.4255 40.005Z" fill="url(#paint3_linear_8_446)"/>
<path d="M51.7802 48.1862L51.8346 48.2407L51.7802 48.1862ZM43.0552 48.1862L43.0004 48.2403L43.0012 48.2411L43.0552 48.1862ZM41.2474 43.8207H41.3244L41.3243 43.82L41.2474 43.8207ZM43.0395 39.4709L42.9851 39.4165L42.9847 39.4168L43.0395 39.4709ZM51.7959 39.4552L51.8507 39.4011L51.8503 39.4008L51.7959 39.4552ZM53.6038 43.8207L53.6808 43.8214V43.8207H53.6038ZM44.7058 41.1357L44.6514 41.0812L44.7058 41.1357ZM43.6054 43.8052H43.6824L43.6824 43.804L43.6054 43.8052ZM44.7216 46.5218L44.776 46.4674L44.7216 46.5218ZM51.2456 43.8209L51.3226 43.8215V43.8209H51.2456ZM56.2449 40.0377C55.5013 40.0377 54.907 39.444 54.907 38.7015H54.753C54.753 39.5292 55.4164 40.1917 56.2449 40.1917V40.0377ZM57.5984 38.7015C57.5984 39.4429 56.9896 40.0377 56.2449 40.0377V40.1917C57.0722 40.1917 57.7524 39.5303 57.7524 38.7015H57.5984ZM56.2449 37.3495C56.9884 37.3495 57.5984 37.9589 57.5984 38.7015H57.7524C57.7524 37.8737 57.0733 37.1955 56.2449 37.1955V37.3495ZM54.907 38.7015C54.907 37.9578 55.5024 37.3495 56.2449 37.3495V37.1955C55.4153 37.1955 54.753 37.8748 54.753 38.7015H54.907ZM47.4256 50.0691C49.1447 50.0691 50.7046 49.3694 51.8346 48.2407L51.7258 48.1317C50.6234 49.2329 49.1021 49.9151 47.4256 49.9151V50.0691ZM43.0012 48.2411C44.1943 49.417 45.7542 50.0691 47.4256 50.0691V49.9151C45.7955 49.9151 44.2742 49.2795 43.1093 48.1314L43.0012 48.2411ZM41.1704 43.8207C41.1704 45.4903 41.8232 47.0485 43.0004 48.2403L43.11 48.1321C41.9606 46.9685 41.3244 45.4489 41.3244 43.8207H41.1704ZM42.9847 39.4168C41.8076 40.6086 41.1544 42.167 41.1704 43.8215L41.3243 43.82C41.3088 42.2082 41.9448 40.6888 43.0943 39.5251L42.9847 39.4168ZM47.4256 37.5724C45.7544 37.5724 44.1785 38.2244 42.9851 39.4165L43.0939 39.5254C44.2586 38.362 45.7954 37.7264 47.4256 37.7264V37.5724ZM51.8503 39.4008C50.6725 38.2243 49.0966 37.5724 47.4256 37.5724V37.7264C49.0559 37.7264 50.5926 38.3621 51.7415 39.5097L51.8503 39.4008ZM53.6808 43.8207C53.6808 42.167 53.028 40.593 51.8507 39.4011L51.7411 39.5094C52.8905 40.6729 53.5268 42.2082 53.5268 43.8207H53.6808ZM51.8346 48.2407C52.9646 47.1119 53.6649 45.5538 53.6808 43.8214L53.5268 43.82C53.5113 45.5109 52.8281 47.0307 51.7258 48.1317L51.8346 48.2407ZM44.7603 41.1901C45.4847 40.4665 46.4241 40.082 47.4255 40.082V39.928C46.3832 39.928 45.4047 40.3287 44.6514 41.0812L44.7603 41.1901ZM43.6824 43.804C43.667 42.8361 44.0514 41.8982 44.7603 41.1901L44.6514 41.0812C43.914 41.8178 43.5123 42.7956 43.5284 43.8064L43.6824 43.804ZM43.6824 43.8209V43.8052H43.5284V43.8209H43.6824ZM44.776 46.4674C44.0674 45.7596 43.6824 44.8214 43.6824 43.8209H43.5284C43.5284 44.8618 43.9294 45.8394 44.6671 46.5763L44.776 46.4674ZM47.4255 47.5598C46.4239 47.5598 45.4845 47.1751 44.776 46.4674L44.6671 46.5763C45.4049 47.3132 46.3835 47.7138 47.4255 47.7138V47.5598ZM51.1686 43.8203C51.1532 45.8829 49.4891 47.5598 47.4255 47.5598V47.7138C49.575 47.7138 51.3066 45.9673 51.3226 43.8215L51.1686 43.8203ZM50.075 41.1744C50.7836 41.8822 51.1686 42.8204 51.1686 43.8209H51.3226C51.3226 42.78 50.9216 41.8024 50.1839 41.0655L50.075 41.1744ZM47.4255 40.082C48.4272 40.082 49.3665 40.4667 50.075 41.1744L50.1839 41.0655C49.4461 40.3285 48.4675 39.928 47.4255 39.928V40.082Z" fill="url(#paint4_linear_8_446)" fill-opacity="0.5" mask="url(#path-7-inside-1_8_446)"/>
</g>
<path d="M60.3237 19.8838H56.7569C56.6756 19.8838 56.603 19.9349 56.5756 20.0115L54.7882 25.0165C54.7434 25.1418 54.8363 25.2737 54.9694 25.2737H57.3089C57.4425 25.2737 57.5355 25.4065 57.4898 25.532L56.3665 28.6211C56.2949 28.8182 56.5451 28.9715 56.6881 28.8183L61.1315 24.0576C61.2463 23.9345 61.159 23.7337 60.9907 23.7337H58.6937C58.5441 23.7337 58.4517 23.5705 58.5287 23.4422L60.4888 20.1753C60.5658 20.047 60.4734 19.8838 60.3237 19.8838Z" fill="url(#paint5_linear_8_446)"/>
<defs>
<filter id="filter0_bd_8_446" x="-31.5747" y="-38.1607" width="148.267" height="152.086" filterUnits="userSpaceOnUse" color-interpolation-filters="sRGB">
<feFlood flood-opacity="0" result="BackgroundImageFix"/>
<feGaussianBlur in="BackgroundImageFix" stdDeviation="21.0667"/>
<feComposite in2="SourceAlpha" operator="in" result="effect1_backgroundBlur_8_446"/>
<feColorMatrix in="SourceAlpha" type="matrix" values="0 0 0 0 0 0 0 0 0 0 0 0 0 0 0 0 0 0 127 0" result="hardAlpha"/>
<feOffset dy="6.4"/>
<feGaussianBlur stdDeviation="5.06667"/>
<feComposite in2="hardAlpha" operator="out"/>
<feColorMatrix type="matrix" values="0 0 0 0 0.0867708 0 0 0 0 0.115317 0 0 0 0 0.141667 0 0 0 0.08 0"/>
<feBlend mode="normal" in2="effect1_backgroundBlur_8_446" result="effect2_dropShadow_8_446"/>
<feBlend mode="normal" in="SourceGraphic" in2="effect2_dropShadow_8_446" result="shape"/>
</filter>
<filter id="filter1_f_8_446" x="22.1211" y="20.2607" width="32.8672" height="30.4531" filterUnits="userSpaceOnUse" color-interpolation-filters="sRGB">
<feFlood flood-opacity="0" result="BackgroundImageFix"/>
<feBlend mode="normal" in="SourceGraphic" in2="BackgroundImageFix" result="shape"/>
<feGaussianBlur stdDeviation="3.27246" result="effect1_foregroundBlur_8_446"/>
</filter>
<filter id="filter2_b_8_446" x="25.5454" y="21.4243" width="43.7608" height="40.6172" filterUnits="userSpaceOnUse" color-interpolation-filters="sRGB">
<feFlood flood-opacity="0" result="BackgroundImageFix"/>
<feGaussianBlur in="BackgroundImageFix" stdDeviation="2.88747"/>
<feComposite in2="SourceAlpha" operator="in" result="effect1_backgroundBlur_8_446"/>
<feBlend mode="normal" in="SourceGraphic" in2="effect1_backgroundBlur_8_446" result="shape"/>
</filter>
<filter id="filter3_bd_8_446" x="35.4721" y="31.4975" width="27.9786" height="24.2696" filterUnits="userSpaceOnUse" color-interpolation-filters="sRGB">
<feFlood flood-opacity="0" result="BackgroundImageFix"/>
<feGaussianBlur in="BackgroundImageFix" stdDeviation="2.88747"/>
<feComposite in2="SourceAlpha" operator="in" result="effect1_backgroundBlur_8_446"/>
<feColorMatrix in="SourceAlpha" type="matrix" values="0 0 0 0 0 0 0 0 0 0 0 0 0 0 0 0 0 0 127 0" result="hardAlpha"/>
<feOffset dx="1.92498" dy="1.92498"/>
<feGaussianBlur stdDeviation="1.92498"/>
<feColorMatrix type="matrix" values="0 0 0 0 1 0 0 0 0 0.447059 0 0 0 0 0.368627 0 0 0 0.5 0"/>
<feBlend mode="normal" in2="effect1_backgroundBlur_8_446" result="effect2_dropShadow_8_446"/>
<feBlend mode="normal" in="SourceGraphic" in2="effect2_dropShadow_8_446" result="shape"/>
</filter>
<radialGradient id="paint0_radial_8_446" cx="0" cy="0" r="1" gradientUnits="userSpaceOnUse" gradientTransform="translate(42.5586 37.8823) rotate(90) scale(33.9097 32)">
<stop stopColor="white"/>
<stop offset="1" stopColor="white"/>
</radialGradient>
<linearGradient id="paint1_linear_8_446" x1="39.4417" y1="36.0363" x2="23.854" y2="52.984" gradientUnits="userSpaceOnUse">
<stop stopColor="#FFA78F"/>
<stop offset="1" stopColor="#F23E2C"/>
</linearGradient>
<linearGradient id="paint2_linear_8_446" x1="36.71" y1="30.8806" x2="61.7463" y2="57.2718" gradientUnits="userSpaceOnUse">
<stop stopColor="white" stop-opacity="0.25"/>
<stop offset="1" stopColor="white" stop-opacity="0.15"/>
</linearGradient>
<linearGradient id="paint3_linear_8_446" x1="56.5106" y1="39.5694" x2="38.224" y2="40.3394" gradientUnits="userSpaceOnUse">
<stop stopColor="white"/>
<stop offset="1" stopColor="white" stop-opacity="0.2"/>
</linearGradient>
<linearGradient id="paint4_linear_8_446" x1="56.9715" y1="43.9013" x2="41.018" y2="44.7597" gradientUnits="userSpaceOnUse">
<stop stopColor="white"/>
<stop offset="1" stopColor="white" stop-opacity="0"/>
</linearGradient>
<linearGradient id="paint5_linear_8_446" x1="58.561" y1="25.3408" x2="52.0012" y2="27.5734" gradientUnits="userSpaceOnUse">
<stop stopColor="#FFA78F"/>
<stop offset="1" stopColor="#F23E2C"/>
</linearGradient>
</defs>
</svg>
