<svg width="88" height="91" viewBox="0 0 88 91" fill="none" xmlns="http://www.w3.org/2000/svg">
<g filter="url(#filter0_bd_8_7720)">
<rect x="12" y="5" width="64" height="67.8193" rx="20" fill="url(#paint0_radial_8_7720)" fill-opacity="0.7" shape-rendering="crispEdges"/>
<rect x="11.5" y="4.5" width="65" height="68.8193" rx="20.5" stroke="#EAEAEA" shape-rendering="crispEdges"/>
</g>
<path fill-rule="evenodd" clip-rule="evenodd" d="M59.8337 30.6875C59.8337 29.9873 59.5566 29.3157 59.0618 28.8209C58.567 28.3261 57.8941 28.0478 57.1952 28.0478H50.8717L47.7645 24.943C47.642 24.8193 47.4738 24.75 47.2993 24.75H40.7013C40.5269 24.75 40.3587 24.8193 40.2362 24.943L37.1289 28.0478H30.8054C30.1066 28.0478 29.4337 28.3261 28.9389 28.8209C28.4441 29.3157 28.167 29.9873 28.167 30.6875V49.1591C28.167 49.8593 28.4441 50.5309 28.9389 51.0257C29.4337 51.5205 30.1066 51.7976 30.8054 51.7976H57.1938C57.8926 51.7976 58.5655 51.5193 59.0603 51.0245C59.5564 50.5309 59.8334 49.8593 59.8334 49.1591L59.8337 30.6875ZM58.5138 30.6875V49.1591C58.5138 49.5092 58.3753 49.8444 58.1278 50.0918C57.8804 50.3392 57.544 50.479 57.1952 50.479H30.8056C30.4568 50.479 30.1203 50.3392 29.8729 50.0918C29.6256 49.8444 29.487 49.5092 29.487 49.1591V30.6875C29.487 30.3374 29.6255 30.0022 29.8729 29.7548C30.1203 29.5062 30.4568 29.3676 30.8056 29.3676H37.4024C37.5768 29.3676 37.745 29.2983 37.8675 29.1746L40.976 26.0686H47.0259L50.1331 29.1734C50.2544 29.2983 50.4226 29.3676 50.597 29.3676H57.1938C57.5438 29.3676 57.8803 29.5061 58.1277 29.7548C58.3751 30.0022 58.5138 30.3374 58.5138 30.6875ZM51.551 39.1633C51.5745 39.4132 51.5868 39.6667 51.5868 39.9228C51.5868 44.1101 48.1865 47.5104 44.0005 47.5104C39.8145 47.5104 36.4142 44.1101 36.4142 39.9228C36.4142 35.7355 39.8145 32.3365 44.0005 32.3365C44.3728 32.3365 44.7427 32.3637 45.1027 32.4156C45.4626 32.4676 45.7954 32.2177 45.8486 31.8578C45.9005 31.4978 45.6494 31.1626 45.2907 31.1106C44.8677 31.0488 44.4397 31.0166 44.0005 31.0166C39.0859 31.0166 35.0943 35.0072 35.0943 39.9228C35.0943 44.8384 39.0859 48.829 44.0005 48.829C48.9152 48.829 52.9067 44.8384 52.9067 39.9228C52.9067 39.6222 52.8907 39.3254 52.8634 39.0334C52.8276 38.671 52.5035 38.4063 52.1411 38.4421C51.7786 38.478 51.5139 38.8021 51.551 39.1633ZM42.641 38.3754C42.5457 38.1156 42.2983 37.9436 42.0213 37.9436C41.7442 37.9436 41.4968 38.1156 41.4016 38.3741L40.6161 40.498L38.4947 41.2835C38.2349 41.38 38.063 41.6261 38.063 41.902C38.063 42.1778 38.2349 42.4252 38.4947 42.5204L40.6161 43.3059L41.4016 45.4298C41.4968 45.6883 41.7442 45.8603 42.0213 45.8603C42.2983 45.8603 42.5457 45.6883 42.641 45.4298L43.4265 43.3059L45.5479 42.5204C45.8076 42.4252 45.9796 42.179 45.9796 41.902C45.9796 41.6261 45.8076 41.38 45.5479 41.2835L43.4265 40.498L42.641 38.3754ZM42.0213 40.5054L42.2946 41.2414C42.3602 41.422 42.5024 41.5643 42.6843 41.6311L43.4203 41.902L42.6843 42.1741C42.5025 42.2409 42.3615 42.3832 42.2946 42.5638L42.0213 43.2998L41.7504 42.5638C41.6811 42.3832 41.5388 42.2409 41.3582 42.1741L40.6222 41.902L41.3582 41.6298C41.5401 41.563 41.6811 41.4208 41.7504 41.2402L42.0213 40.5054ZM48.5661 29.7984C48.4696 29.5398 48.2222 29.3679 47.9489 29.3679C47.6718 29.3679 47.4244 29.5398 47.3291 29.7984L45.7421 34.0882L41.451 35.6752C41.1937 35.7717 41.0217 36.0179 41.0217 36.2937C41.0217 36.5696 41.1937 36.8169 41.451 36.9122L45.7421 38.4992L47.3291 42.7891C47.4244 43.0476 47.6718 43.2196 47.9489 43.2196C48.2222 43.2196 48.4696 43.0476 48.5661 42.7891L50.1556 38.4992L54.4442 36.9122C54.7052 36.8157 54.8759 36.5696 54.8759 36.2937C54.8759 36.0179 54.704 35.7705 54.4442 35.6752L50.1556 34.0882L48.5661 29.7984ZM47.9489 31.9284L49.0213 34.8304C49.0906 35.011 49.2328 35.1532 49.4134 35.22L52.3129 36.295L49.4134 37.3686C49.2316 37.4354 49.0906 37.5777 49.0213 37.7583L47.9489 40.6602L46.8739 37.7583C46.8084 37.5777 46.6661 37.4355 46.4843 37.3686L43.5811 36.295L46.4843 35.2213C46.6661 35.1545 46.8071 35.0122 46.8739 34.8316L47.9489 31.9284ZM52.9066 31.6773H52.2473C51.8848 31.6773 51.588 31.973 51.588 32.3366C51.588 32.7003 51.8848 32.9959 52.2473 32.9959H52.9066V33.6552C52.9066 34.0189 53.2034 34.3145 53.5659 34.3145C53.9283 34.3145 54.2251 34.0189 54.2251 33.6552V32.9959H54.8844C55.2469 32.9959 55.5437 32.7003 55.5437 32.3366C55.5437 31.973 55.2469 31.6773 54.8844 31.6773H54.2251V31.018C54.2251 30.6544 53.9283 30.3587 53.5659 30.3587C53.2034 30.3587 52.9066 30.6544 52.9066 31.018V31.6773Z" fill="#034737"/>
<defs>
<filter id="filter0_bd_8_7720" x="-31.1333" y="-38.1333" width="150.267" height="154.086" filterUnits="userSpaceOnUse" color-interpolation-filters="sRGB">
<feFlood flood-opacity="0" result="BackgroundImageFix"/>
<feGaussianBlur in="BackgroundImageFix" stdDeviation="21.0667"/>
<feComposite in2="SourceAlpha" operator="in" result="effect1_backgroundBlur_8_7720"/>
<feColorMatrix in="SourceAlpha" type="matrix" values="0 0 0 0 0 0 0 0 0 0 0 0 0 0 0 0 0 0 127 0" result="hardAlpha"/>
<feOffset dy="6.4"/>
<feGaussianBlur stdDeviation="5.06667"/>
<feComposite in2="hardAlpha" operator="out"/>
<feColorMatrix type="matrix" values="0 0 0 0 0.0867708 0 0 0 0 0.115317 0 0 0 0 0.141667 0 0 0 0.08 0"/>
<feBlend mode="normal" in2="effect1_backgroundBlur_8_7720" result="effect2_dropShadow_8_7720"/>
<feBlend mode="normal" in="SourceGraphic" in2="effect2_dropShadow_8_7720" result="shape"/>
</filter>
<radialGradient id="paint0_radial_8_7720" cx="0" cy="0" r="1" gradientUnits="userSpaceOnUse" gradientTransform="translate(44 38.9097) rotate(90) scale(33.9097 32)">
<stop stopColor="white"/>
<stop offset="1" stopColor="white"/>
</radialGradient>
</defs>
</svg>
