<svg width="88" height="91" viewBox="0 0 88 91" fill="none" xmlns="http://www.w3.org/2000/svg">
<g filter="url(#filter0_bd_8_7936)">
<rect x="12" y="5" width="64" height="67.8193" rx="20" fill="#5ABA87"/>
<rect x="11.5" y="4.5" width="65" height="68.8193" rx="20.5" stroke="#EAEAEA"/>
</g>
<path d="M56.875 19H33.125C32.2966 19.0014 31.5026 19.331 30.9168 19.9168C30.331 20.5026 30.0014 21.2966 30 22.125V55.875C30.0014 56.7034 30.331 57.4974 30.9168 58.0832C31.5026 58.669 32.2966 58.9986 33.125 59H56.875C57.7034 58.9986 58.4974 58.669 59.0832 58.0832C59.669 57.4974 59.9986 56.7034 60 55.875V22.125C59.9986 21.2966 59.669 20.5026 59.0832 19.9168C58.4974 19.331 57.7034 19.0014 56.875 19ZM35.625 24C35.625 23.8358 35.6573 23.6733 35.7201 23.5216C35.7829 23.3699 35.8749 23.2321 35.991 23.116C36.1071 22.9999 36.2449 22.9079 36.3966 22.8451C36.5483 22.7823 36.7108 22.75 36.875 22.75H53.125C53.2892 22.75 53.4517 22.7823 53.6034 22.8451C53.7551 22.9079 53.8929 22.9999 54.009 23.116C54.1251 23.2321 54.2171 23.3699 54.2799 23.5216C54.3427 23.6733 54.375 23.8358 54.375 24V25.875C54.375 26.0392 54.3427 26.2017 54.2799 26.3534C54.2171 26.5051 54.1251 26.6429 54.009 26.759C53.8929 26.8751 53.7551 26.9671 53.6034 27.0299C53.4517 27.0927 53.2892 27.125 53.125 27.125H36.875C36.7108 27.125 36.5483 27.0927 36.3966 27.0299C36.2449 26.9671 36.1071 26.8751 35.991 26.759C35.8749 26.6429 35.7829 26.5051 35.7201 26.3534C35.6573 26.2017 35.625 26.0392 35.625 25.875V24ZM51.875 32.75C52.0408 32.75 52.1997 32.8158 52.3169 32.9331C52.4342 33.0503 52.5 33.2092 52.5 33.375C52.5 33.5408 52.4342 33.6997 52.3169 33.8169C52.1997 33.9342 52.0408 34 51.875 34H38.125C37.9592 34 37.8003 33.9342 37.6831 33.8169C37.5658 33.6997 37.5 33.5408 37.5 33.375C37.5 33.2092 37.5658 33.0503 37.6831 32.9331C37.8003 32.8158 37.9592 32.75 38.125 32.75H51.875ZM40.625 30.25C40.6255 30.0844 40.6915 29.9257 40.8086 29.8086C40.9257 29.6915 41.0844 29.6255 41.25 29.625H48.75C48.9158 29.625 49.0747 29.6908 49.1919 29.8081C49.3092 29.9253 49.375 30.0842 49.375 30.25C49.375 30.4158 49.3092 30.5747 49.1919 30.6919C49.0747 30.8092 48.9158 30.875 48.75 30.875H41.25C41.0844 30.8745 40.9257 30.8085 40.8086 30.6914C40.6915 30.5743 40.6255 30.4156 40.625 30.25ZM34.6875 35.875H55.3125C55.4783 35.875 55.6372 35.9408 55.7544 36.0581C55.8717 36.1753 55.9375 36.3342 55.9375 36.5C55.9375 36.6658 55.8717 36.8247 55.7544 36.9419C55.6372 37.0592 55.4783 37.125 55.3125 37.125H34.6875C34.5217 37.125 34.3628 37.0592 34.2456 36.9419C34.1283 36.8247 34.0625 36.6658 34.0625 36.5C34.0625 36.3342 34.1283 36.1753 34.2456 36.0581C34.3628 35.9408 34.5217 35.875 34.6875 35.875ZM43.4375 55.875H34.6875C34.5217 55.875 34.3628 55.8092 34.2456 55.6919C34.1283 55.5747 34.0625 55.4158 34.0625 55.25C34.0625 55.0842 34.1283 54.9253 34.2456 54.8081C34.3628 54.6908 34.5217 54.625 34.6875 54.625H43.4375C43.6033 54.625 43.7622 54.6908 43.8794 54.8081C43.9967 54.9253 44.0625 55.0842 44.0625 55.25C44.0625 55.4158 43.9967 55.5747 43.8794 55.6919C43.7622 55.8092 43.6033 55.875 43.4375 55.875ZM43.4375 52.75H34.6875C34.5217 52.75 34.3628 52.6842 34.2456 52.5669C34.1283 52.4497 34.0625 52.2908 34.0625 52.125C34.0625 51.9592 34.1283 51.8003 34.2456 51.6831C34.3628 51.5658 34.5217 51.5 34.6875 51.5H43.4375C43.6033 51.5 43.7622 51.5658 43.8794 51.6831C43.9967 51.8003 44.0625 51.9592 44.0625 52.125C44.0625 52.2908 43.9967 52.4497 43.8794 52.5669C43.7622 52.6842 43.6033 52.75 43.4375 52.75ZM43.4375 49.625H34.6875C34.5217 49.625 34.3628 49.5592 34.2456 49.4419C34.1283 49.3247 34.0625 49.1658 34.0625 49C34.0625 48.8342 34.1283 48.6753 34.2456 48.5581C34.3628 48.4408 34.5217 48.375 34.6875 48.375H43.4375C43.6033 48.375 43.7622 48.4408 43.8794 48.5581C43.9967 48.6753 44.0625 48.8342 44.0625 49C44.0625 49.1658 43.9967 49.3247 43.8794 49.4419C43.7622 49.5592 43.6033 49.625 43.4375 49.625ZM43.4375 46.5H34.6875C34.5217 46.5 34.3628 46.4342 34.2456 46.3169C34.1283 46.1997 34.0625 46.0408 34.0625 45.875C34.0625 45.7092 34.1283 45.5503 34.2456 45.4331C34.3628 45.3158 34.5217 45.25 34.6875 45.25H43.4375C43.6033 45.25 43.7622 45.3158 43.8794 45.4331C43.9967 45.5503 44.0625 45.7092 44.0625 45.875C44.0625 46.0408 43.9967 46.1997 43.8794 46.3169C43.7622 46.4342 43.6033 46.5 43.4375 46.5ZM43.4375 43.375H34.6875C34.5217 43.375 34.3628 43.3092 34.2456 43.1919C34.1283 43.0747 34.0625 42.9158 34.0625 42.75C34.0625 42.5842 34.1283 42.4253 34.2456 42.3081C34.3628 42.1908 34.5217 42.125 34.6875 42.125H43.4375C43.6033 42.125 43.7622 42.1908 43.8794 42.3081C43.9967 42.4253 44.0625 42.5842 44.0625 42.75C44.0625 42.9158 43.9967 43.0747 43.8794 43.1919C43.7622 43.3092 43.6033 43.375 43.4375 43.375ZM43.4375 40.25H34.6875C34.5217 40.25 34.3628 40.1842 34.2456 40.0669C34.1283 39.9497 34.0625 39.7908 34.0625 39.625C34.0625 39.4592 34.1283 39.3003 34.2456 39.1831C34.3628 39.0658 34.5217 39 34.6875 39H43.4375C43.6033 39 43.7622 39.0658 43.8794 39.1831C43.9967 39.3003 44.0625 39.4592 44.0625 39.625C44.0625 39.7908 43.9967 39.9497 43.8794 40.0669C43.7622 40.1842 43.6033 40.25 43.4375 40.25ZM56.25 49.5215V55.25C56.25 55.6115 56.1455 55.9652 55.9491 56.2687C55.7528 56.5722 55.4728 56.8124 55.1431 56.9605C54.8133 57.1086 54.4478 57.1582 54.0905 57.1033C53.7332 57.0485 53.3994 56.8915 53.1293 56.6514L51.5625 55.2585L49.9957 56.6514C49.724 56.8885 49.3905 57.0435 49.034 57.0983C48.6776 57.1531 48.3129 57.1054 47.9825 56.9608C47.6528 56.8124 47.373 56.5721 47.1766 56.2686C46.9801 55.9652 46.8754 55.6115 46.875 55.25V49.5215C45.9706 48.5984 45.3589 47.429 45.1165 46.1597C44.8741 44.8904 45.0118 43.5777 45.5124 42.3864C46.013 41.1951 46.8542 40.1781 47.9305 39.4629C49.0068 38.7477 50.2703 38.3662 51.5625 38.3662C52.8547 38.3662 54.1182 38.7477 55.1945 39.4629C56.2708 40.1781 57.112 41.1951 57.6126 42.3864C58.1132 43.5777 58.2509 44.8904 58.0085 46.1597C57.7661 47.429 57.1544 48.5984 56.25 49.5215Z" fill="white"/>
<path d="M53.7273 54.1179L51.9229 52.6478C51.8063 52.553 51.6559 52.5006 51.5 52.5006C51.3441 52.5006 51.1937 52.553 51.0771 52.6478L49.2727 54.1179V51.56C48.828 51.4153 48.4014 51.2275 48 51V55.4168C48 55.5292 48.0355 55.6392 48.1022 55.7336C48.1689 55.828 48.2639 55.9027 48.3758 55.9488C48.4877 55.9949 48.6117 56.0103 48.733 55.9933C48.8542 55.9762 48.9675 55.9274 49.0593 55.8528L51.5 53.8641L53.9407 55.8528C54.0325 55.9274 54.1458 55.9762 54.267 55.9933C54.3883 56.0103 54.5123 55.9949 54.6242 55.9488C54.7361 55.9027 54.8311 55.828 54.8978 55.7336C54.9645 55.6392 55 55.5292 55 55.4168V51C54.5986 51.2275 54.172 51.4153 53.7273 51.56V54.1179Z" fill="white"/>
<path d="M51.5 40C50.4122 40 49.3488 40.3226 48.4444 40.9269C47.5399 41.5313 46.8349 42.3902 46.4187 43.3952C46.0024 44.4002 45.8935 45.5061 46.1057 46.573C46.3179 47.6399 46.8417 48.6199 47.6109 49.3891C48.3801 50.1583 49.3601 50.6821 50.427 50.8943C51.4939 51.1065 52.5998 50.9976 53.6048 50.5813C54.6098 50.1651 55.4687 49.4601 56.0731 48.5556C56.6774 47.6512 57 46.5878 57 45.5C56.9984 44.0418 56.4184 42.6438 55.3873 41.6127C54.3562 40.5816 52.9582 40.0016 51.5 40ZM52.4608 46.4608C52.133 46.7887 52.0003 47.7647 51.5 47.7647C50.9997 47.7647 50.867 46.7887 50.5392 46.4608C50.2113 46.133 49.2353 46.0003 49.2353 45.5C49.2353 44.9997 50.2113 44.867 50.5392 44.5392C50.867 44.2113 50.9997 43.2353 51.5 43.2353C52.0003 43.2353 52.133 44.2113 52.4608 44.5392C52.7887 44.867 53.7647 44.9997 53.7647 45.5C53.7647 46.0003 52.7887 46.133 52.4608 46.4608Z" fill="white"/>
<defs>
<filter id="filter0_bd_8_7936" x="-31.1333" y="-38.1333" width="150.267" height="154.086" filterUnits="userSpaceOnUse" color-interpolation-filters="sRGB">
<feFlood flood-opacity="0" result="BackgroundImageFix"/>
<feGaussianBlur in="BackgroundImageFix" stdDeviation="21.0667"/>
<feComposite in2="SourceAlpha" operator="in" result="effect1_backgroundBlur_8_7936"/>
<feColorMatrix in="SourceAlpha" type="matrix" values="0 0 0 0 0 0 0 0 0 0 0 0 0 0 0 0 0 0 127 0" result="hardAlpha"/>
<feOffset dy="6.4"/>
<feGaussianBlur stdDeviation="5.06667"/>
<feComposite in2="hardAlpha" operator="out"/>
<feColorMatrix type="matrix" values="0 0 0 0 0.0867708 0 0 0 0 0.115317 0 0 0 0 0.141667 0 0 0 0.08 0"/>
<feBlend mode="normal" in2="effect1_backgroundBlur_8_7936" result="effect2_dropShadow_8_7936"/>
<feBlend mode="normal" in="SourceGraphic" in2="effect2_dropShadow_8_7936" result="shape"/>
</filter>
</defs>
</svg>
