<svg width="88" height="91" viewBox="0 0 88 91" fill="none" xmlns="http://www.w3.org/2000/svg">
<g filter="url(#filter0_bd_8_6652)">
<rect x="12" y="5" width="64" height="67.8193" rx="20" fill="url(#paint0_radial_8_6652)" fill-opacity="0.7" shape-rendering="crispEdges"/>
<rect x="11.5" y="4.5" width="65" height="68.8193" rx="20.5" stroke="#EAEAEA" shape-rendering="crispEdges"/>
</g>
<path fill-rule="evenodd" clip-rule="evenodd" d="M55.1238 33.5014C57.27 35.196 58.6662 37.8625 58.6662 40.8682C58.6662 43.4935 57.5799 45.9901 55.6924 47.7475C55.5224 47.9056 55.4287 48.1514 55.4424 48.4046L55.6624 52.6897L53.7461 51.1809C52.7499 50.395 51.5561 50.0219 50.3561 50.1229C50.3461 50.1229 50.3398 50.1243 50.3298 50.1258C50.0836 50.158 49.8336 50.1682 49.5836 50.1682C48.9898 50.1682 48.4098 50.1097 47.8498 49.9985C47.4861 49.9268 47.1436 50.2121 47.0798 50.638C47.0198 51.0624 47.2636 51.4662 47.6261 51.538C48.2598 51.6638 48.9123 51.7297 49.5823 51.7297C49.8786 51.7297 50.1761 51.7165 50.4686 51.6784C51.3623 51.6067 52.2548 51.8877 53.0023 52.4775L56.0361 54.8672C56.2461 55.0326 56.5198 55.0443 56.7398 54.8979C56.9598 54.7501 57.0899 54.4692 57.0736 54.1735L56.7936 48.7076C58.8436 46.6589 60 43.8273 60 40.8681C60 37.3412 58.3862 34.1962 55.8662 32.2077C55.5625 31.9662 55.1462 32.0614 54.9425 32.4184C54.7362 32.7755 54.8162 33.2613 55.1225 33.5028L55.1238 33.5014ZM54.6663 36.8745C54.6663 29.2444 48.7136 23 41.3338 23C33.9539 23 28 29.2444 28 36.8745C28 40.6883 29.5062 44.335 32.1699 46.9574L31.7999 54.1721C31.7862 54.4692 31.9162 54.7487 32.1362 54.8965C32.3562 55.0443 32.63 55.0326 32.8399 54.8657L36.6163 51.8892C37.7125 51.0258 39.02 50.6058 40.3363 50.6965C40.6725 50.7375 41.0025 50.7506 41.3325 50.7506C48.7124 50.7506 54.6663 44.5048 54.6663 36.8761L54.6663 36.8745ZM53.3325 36.8745C53.3325 43.6985 47.9363 49.1891 41.3325 49.1891C41.0425 49.1891 40.7562 49.1788 40.4687 49.1437C40.4587 49.1423 40.4487 49.1408 40.4387 49.1408C38.8187 49.0252 37.2151 49.5359 35.8688 50.5954L33.2126 52.6895L33.5226 46.6516C33.5363 46.397 33.4426 46.1526 33.2726 45.9945C30.7701 43.6663 29.3337 40.3544 29.3337 36.8745C29.3337 30.0505 34.7337 24.5599 41.3337 24.5599C47.9363 24.5599 53.3337 30.0505 53.3337 36.8745L53.3325 36.8745ZM38.3024 37.9472C38.2062 37.6414 37.9562 37.4379 37.6762 37.4379C37.3999 37.4379 37.1499 37.6414 37.0524 37.9472L36.2587 40.4599L34.1124 41.3892C33.8487 41.5033 33.6762 41.7945 33.6762 42.1209C33.6762 42.4472 33.8499 42.7399 34.1124 42.8525L36.2587 43.7818L37.0524 46.2945C37.1487 46.6003 37.3987 46.8038 37.6762 46.8038C37.9562 46.8038 38.2062 46.6003 38.3024 46.2945L39.0962 43.7818L41.2424 42.8525C41.5024 42.7384 41.6762 42.4472 41.6762 42.1209C41.6762 41.7945 41.5024 41.5018 41.2424 41.3892L39.0962 40.4599L38.3024 37.9472ZM37.6762 40.4672L37.9524 41.3379C38.0187 41.5516 38.1624 41.7199 38.3462 41.7989L39.0899 42.1209L38.3462 42.4428C38.1624 42.5219 38.0199 42.6902 37.9524 42.9038L37.6762 43.7745L37.4024 42.9038C37.3362 42.6902 37.1887 42.5219 37.0087 42.4428L36.2662 42.1209L37.0099 41.7989C37.1899 41.7199 37.3361 41.5516 37.4037 41.3379L37.6762 40.4672ZM44.2938 27.8013C44.1963 27.4954 43.9463 27.292 43.6663 27.292C43.3863 27.292 43.1363 27.4954 43.04 27.8013L41.4363 32.8764L37.1025 34.754C36.84 34.8681 36.6663 35.1608 36.6663 35.4871C36.6663 35.8135 36.84 36.1061 37.1025 36.2188L41.4363 38.0964L43.04 43.1715C43.1363 43.4788 43.3863 43.6822 43.6663 43.6822C43.9463 43.6822 44.1963 43.4788 44.2925 43.173L45.8963 38.0978L50.23 36.2203C50.4938 36.1061 50.6663 35.8135 50.6663 35.4871C50.6663 35.1608 50.4938 34.8681 50.23 34.7554L45.8963 32.8779L44.2925 27.8027L44.2938 27.8013ZM43.6675 30.3213L44.7538 33.7544C44.82 33.9681 44.9638 34.1364 45.1475 34.2154L48.08 35.4871L45.1463 36.7573C44.9625 36.8364 44.82 37.0047 44.7525 37.2183L43.6663 40.653L42.58 37.2198C42.5138 37.0061 42.37 36.8379 42.1863 36.7588L39.2538 35.4871L42.1875 34.2169C42.3713 34.1379 42.5138 33.9696 42.5813 33.7559L43.6675 30.3213ZM37 30.0242H36.3338C35.9675 30.0242 35.6675 30.3739 35.6675 30.8042C35.6675 31.2344 35.9675 31.5842 36.3338 31.5842H37V32.3641C37 32.7944 37.3 33.1441 37.6662 33.1441C38.0325 33.1441 38.3325 32.7944 38.3325 32.3641V31.5842H38.9987C39.365 31.5842 39.665 31.2344 39.665 30.8042C39.665 30.3739 39.365 30.0242 38.9987 30.0242H38.3325V29.2442C38.3325 28.814 38.0325 28.4642 37.6662 28.4642C37.3 28.4642 37 28.814 37 29.2442V30.0242Z" fill="#034737"/>
<defs>
<filter id="filter0_bd_8_6652" x="-31.1333" y="-38.1333" width="150.267" height="154.086" filterUnits="userSpaceOnUse" color-interpolation-filters="sRGB">
<feFlood flood-opacity="0" result="BackgroundImageFix"/>
<feGaussianBlur in="BackgroundImageFix" stdDeviation="21.0667"/>
<feComposite in2="SourceAlpha" operator="in" result="effect1_backgroundBlur_8_6652"/>
<feColorMatrix in="SourceAlpha" type="matrix" values="0 0 0 0 0 0 0 0 0 0 0 0 0 0 0 0 0 0 127 0" result="hardAlpha"/>
<feOffset dy="6.4"/>
<feGaussianBlur stdDeviation="5.06667"/>
<feComposite in2="hardAlpha" operator="out"/>
<feColorMatrix type="matrix" values="0 0 0 0 0.0867708 0 0 0 0 0.115317 0 0 0 0 0.141667 0 0 0 0.08 0"/>
<feBlend mode="normal" in2="effect1_backgroundBlur_8_6652" result="effect2_dropShadow_8_6652"/>
<feBlend mode="normal" in="SourceGraphic" in2="effect2_dropShadow_8_6652" result="shape"/>
</filter>
<radialGradient id="paint0_radial_8_6652" cx="0" cy="0" r="1" gradientUnits="userSpaceOnUse" gradientTransform="translate(44 38.9097) rotate(90) scale(33.9097 32)">
<stop stopColor="white"/>
<stop offset="1" stopColor="white"/>
</radialGradient>
</defs>
</svg>
