<svg width="85" height="89" viewBox="0 0 85 89" fill="none" xmlns="http://www.w3.org/2000/svg">
<g filter="url(#filter0_bd_8_406)">
<rect x="10.5586" y="3.97266" width="64" height="67.8193" rx="21.3333" fill="url(#paint0_radial_8_406)" fill-opacity="0.7" shape-rendering="crispEdges"/>
<rect x="11.6253" y="5.03932" width="61.8667" height="65.686" rx="20.2667" stroke="white" strokeWidth="2.13333" shape-rendering="crispEdges"/>
</g>
<path d="M48.8742 30.4072C56.0185 30.4072 61.1953 36.2358 61.1953 42.7038C61.1953 44.7696 60.5928 46.8969 59.5353 48.8397C59.3385 49.1595 59.3139 49.5652 59.4492 49.9464L60.2731 52.7009C60.4575 53.3649 59.8919 53.8567 59.2648 53.66L56.7809 52.9222C56.1045 52.7009 55.5758 52.9837 54.9474 53.3649C53.1521 54.4224 50.9154 54.9634 48.8988 54.9634C42.7997 54.9634 36.6022 50.2538 36.6022 42.6669C36.6022 36.1251 41.8897 30.4072 48.8742 30.4072Z" fill="url(#paint1_linear_8_406)"/>
<g opacity="0.5" filter="url(#filter1_f_8_406)">
<path d="M56.7268 42.8263C56.7268 47.2132 53.1714 50.7678 48.7853 50.7678C44.3992 50.7678 40.8438 47.2132 40.8438 42.8263C40.8438 38.441 44.3992 34.8848 48.7853 34.8848C53.1714 34.8848 56.7268 38.441 56.7268 42.8263Z" fill="#8237FF"/>
</g>
<g filter="url(#filter2_b_8_406)">
<mask id="path-5-outside-1_8_406" maskUnits="userSpaceOnUse" x="22.9219" y="19.8008" width="33" height="33" fill="black">
<rect fill="white" x="22.9219" y="19.8008" width="33" height="33"/>
<path d="M39.6441 20.8008C30.5277 20.8008 23.9219 28.2383 23.9219 36.4917C23.9219 39.1277 24.6907 41.8423 26.0401 44.3214C26.2912 44.7294 26.3226 45.2472 26.15 45.7336L25.0987 49.2484C24.8633 50.0957 25.5851 50.7233 26.3853 50.4722L29.5549 49.5308C30.4179 49.2484 31.0926 49.6092 31.8944 50.0957C34.1853 51.4451 37.0395 52.1355 39.6128 52.1355C47.3954 52.1355 55.3036 46.1259 55.3036 36.4446C55.3036 28.097 48.5566 20.8008 39.6441 20.8008Z"/>
</mask>
<path d="M39.6441 20.8008C30.5277 20.8008 23.9219 28.2383 23.9219 36.4917C23.9219 39.1277 24.6907 41.8423 26.0401 44.3214C26.2912 44.7294 26.3226 45.2472 26.15 45.7336L25.0987 49.2484C24.8633 50.0957 25.5851 50.7233 26.3853 50.4722L29.5549 49.5308C30.4179 49.2484 31.0926 49.6092 31.8944 50.0957C34.1853 51.4451 37.0395 52.1355 39.6128 52.1355C47.3954 52.1355 55.3036 46.1259 55.3036 36.4446C55.3036 28.097 48.5566 20.8008 39.6441 20.8008Z" fill="#BA90FF" fill-opacity="0.35"/>
<path d="M39.6441 21.185C39.8564 21.185 40.0284 21.013 40.0284 20.8008C40.0284 20.5886 39.8564 20.4165 39.6441 20.4165V21.185ZM26.0401 44.3214L25.7026 44.5051C25.7059 44.5111 25.7093 44.517 25.7129 44.5228L26.0401 44.3214ZM26.15 45.7336L25.7878 45.6051C25.7857 45.6112 25.7837 45.6173 25.7818 45.6235L26.15 45.7336ZM25.0987 49.2484L24.7305 49.1382L24.7284 49.1455L25.0987 49.2484ZM26.3853 50.4722L26.2759 50.1038L26.2703 50.1056L26.3853 50.4722ZM29.5549 49.5308L29.6644 49.8993L29.6744 49.896L29.5549 49.5308ZM31.8944 50.0957L31.6951 50.4242L31.6994 50.4268L31.8944 50.0957ZM39.6441 20.4165C39.4319 20.4165 39.2599 20.5886 39.2599 20.8008C39.2599 21.013 39.4319 21.185 39.6441 21.185V20.4165ZM39.6441 20.4165C30.3029 20.4165 23.5376 28.0389 23.5376 36.4917H24.3061C24.3061 28.4376 30.7526 21.185 39.6441 21.185V20.4165ZM23.5376 36.4917C23.5376 39.2011 24.3273 41.9783 25.7026 44.5051L26.3777 44.1377C25.0542 41.7062 24.3061 39.0544 24.3061 36.4917H23.5376ZM25.7129 44.5228C25.8937 44.8167 25.9279 45.2104 25.7878 45.6051L26.5121 45.8621C26.7173 45.284 26.6887 44.6421 26.3674 44.12L25.7129 44.5228ZM25.7818 45.6235L24.7305 49.1382L25.4668 49.3585L26.5181 45.8437L25.7818 45.6235ZM24.7284 49.1455C24.5744 49.7002 24.7303 50.2202 25.0932 50.5547C25.4518 50.8853 25.9776 51.0029 26.5004 50.8389L26.2703 50.1056C25.9928 50.1927 25.7576 50.122 25.6141 49.9897C25.4749 49.8613 25.3877 49.6438 25.4689 49.3512L24.7284 49.1455ZM26.4948 50.8406L29.6643 49.8991L29.4455 49.1624L26.2759 50.1039L26.4948 50.8406ZM29.6744 49.896C30.3527 49.674 30.8836 49.9319 31.6951 50.4242L32.0937 49.7671C31.3016 49.2866 30.4831 48.8227 29.4354 49.1656L29.6744 49.896ZM31.6994 50.4268C34.0554 51.8145 36.9782 52.5197 39.6128 52.5197V51.7512C37.1007 51.7512 34.3152 51.0756 32.0894 49.7646L31.6994 50.4268ZM39.6128 52.5197C47.5767 52.5197 55.6879 46.3678 55.6879 36.4446H54.9194C54.9194 45.8839 47.2142 51.7512 39.6128 51.7512V52.5197ZM55.6879 36.4446C55.6879 27.8934 48.7773 20.4165 39.6441 20.4165V21.185C48.3359 21.185 54.9194 28.3007 54.9194 36.4446H55.6879Z" fill="url(#paint2_linear_8_406)" mask="url(#path-5-outside-1_8_406)"/>
</g>
<g filter="url(#filter3_bd_8_406)">
<mask id="path-7-inside-2_8_406" fill="white">
<path fill-rule="evenodd" clip-rule="evenodd" d="M32.3483 38.5149C31.2499 38.5149 30.3398 37.6048 30.3398 36.5065C30.3398 35.3924 31.2342 34.498 32.3483 34.498C33.4623 34.498 34.3567 35.3924 34.3567 36.5065C34.3567 37.6048 33.4623 38.4992 32.3483 38.5149ZM39.5823 38.5151C38.4683 38.4994 37.5739 37.6051 37.5739 36.491C37.5739 35.3926 38.484 34.4826 39.5823 34.4983C40.6964 34.4983 41.5908 35.3926 41.5908 36.5067C41.5908 37.6051 40.6964 38.5151 39.5823 38.5151ZM44.8072 36.5067C44.8072 37.605 45.7016 38.5151 46.8157 38.5151C47.9297 38.5151 48.8241 37.605 48.8241 36.5067C48.8241 35.3926 47.9297 34.4982 46.8157 34.4982C45.7016 34.4982 44.8072 35.3926 44.8072 36.5067Z"/>
</mask>
<path fill-rule="evenodd" clip-rule="evenodd" d="M32.3483 38.5149C31.2499 38.5149 30.3398 37.6048 30.3398 36.5065C30.3398 35.3924 31.2342 34.498 32.3483 34.498C33.4623 34.498 34.3567 35.3924 34.3567 36.5065C34.3567 37.6048 33.4623 38.4992 32.3483 38.5149ZM39.5823 38.5151C38.4683 38.4994 37.5739 37.6051 37.5739 36.491C37.5739 35.3926 38.484 34.4826 39.5823 34.4983C40.6964 34.4983 41.5908 35.3926 41.5908 36.5067C41.5908 37.6051 40.6964 38.5151 39.5823 38.5151ZM44.8072 36.5067C44.8072 37.605 45.7016 38.5151 46.8157 38.5151C47.9297 38.5151 48.8241 37.605 48.8241 36.5067C48.8241 35.3926 47.9297 34.4982 46.8157 34.4982C45.7016 34.4982 44.8072 35.3926 44.8072 36.5067Z" fill="url(#paint3_linear_8_406)"/>
<path d="M32.3483 38.5149V38.6686L32.3504 38.6686L32.3483 38.5149ZM39.5823 38.5151L39.5802 38.6688H39.5823V38.5151ZM39.5823 34.4983L39.5801 34.652H39.5823V34.4983ZM30.1861 36.5065C30.1861 37.6897 31.165 38.6686 32.3483 38.6686V38.3612C31.3348 38.3612 30.4936 37.52 30.4936 36.5065H30.1861ZM32.3483 34.3443C31.1493 34.3443 30.1861 35.3075 30.1861 36.5065H30.4936C30.4936 35.4773 31.3191 34.6518 32.3483 34.6518V34.3443ZM34.5104 36.5065C34.5104 35.3075 33.5472 34.3443 32.3483 34.3443V34.6518C33.3774 34.6518 34.203 35.4773 34.203 36.5065H34.5104ZM32.3504 38.6686C33.5465 38.6518 34.5104 37.6909 34.5104 36.5065H34.203C34.203 37.5188 33.3782 38.3467 32.3461 38.3612L32.3504 38.6686ZM37.4202 36.491C37.4202 37.6903 38.3833 38.652 39.5802 38.6688L39.5845 38.3614C38.5532 38.3469 37.7276 37.5198 37.7276 36.491H37.4202ZM39.5845 34.3446C38.3991 34.3276 37.4202 35.3082 37.4202 36.491H37.7276C37.7276 35.4771 38.5688 34.6375 39.5801 34.652L39.5845 34.3446ZM41.7445 36.5067C41.7445 35.3077 40.7813 34.3446 39.5823 34.3446V34.652C40.6115 34.652 41.4371 35.4775 41.4371 36.5067H41.7445ZM39.5823 38.6688C40.7821 38.6688 41.7445 37.6892 41.7445 36.5067H41.4371C41.4371 37.5209 40.6107 38.3614 39.5823 38.3614V38.6688ZM46.8157 38.3614C45.7873 38.3614 44.9609 37.5209 44.9609 36.5067H44.6535C44.6535 37.6891 45.6159 38.6688 46.8157 38.6688V38.3614ZM48.6704 36.5067C48.6704 37.5209 47.8441 38.3614 46.8157 38.3614V38.6688C48.0154 38.6688 48.9778 37.6891 48.9778 36.5067H48.6704ZM46.8157 34.652C47.8448 34.652 48.6704 35.4775 48.6704 36.5067H48.9778C48.9778 35.3077 48.0146 34.3445 46.8157 34.3445V34.652ZM44.9609 36.5067C44.9609 35.4775 45.7865 34.652 46.8157 34.652V34.3445C45.6167 34.3445 44.6535 35.3077 44.6535 36.5067H44.9609Z" fill="url(#paint4_linear_8_406)" mask="url(#path-7-inside-2_8_406)"/>
</g>
<defs>
<filter id="filter0_bd_8_406" x="-31.5747" y="-38.1607" width="148.267" height="152.086" filterUnits="userSpaceOnUse" color-interpolation-filters="sRGB">
<feFlood flood-opacity="0" result="BackgroundImageFix"/>
<feGaussianBlur in="BackgroundImageFix" stdDeviation="21.0667"/>
<feComposite in2="SourceAlpha" operator="in" result="effect1_backgroundBlur_8_406"/>
<feColorMatrix in="SourceAlpha" type="matrix" values="0 0 0 0 0 0 0 0 0 0 0 0 0 0 0 0 0 0 127 0" result="hardAlpha"/>
<feOffset dy="6.4"/>
<feGaussianBlur stdDeviation="5.06667"/>
<feComposite in2="hardAlpha" operator="out"/>
<feColorMatrix type="matrix" values="0 0 0 0 0.0867708 0 0 0 0 0.115317 0 0 0 0 0.141667 0 0 0 0.08 0"/>
<feBlend mode="normal" in2="effect1_backgroundBlur_8_406" result="effect2_dropShadow_8_406"/>
<feBlend mode="normal" in="SourceGraphic" in2="effect2_dropShadow_8_406" result="shape"/>
</filter>
<filter id="filter1_f_8_406" x="34.3112" y="28.3522" width="28.9479" height="28.9479" filterUnits="userSpaceOnUse" color-interpolation-filters="sRGB">
<feFlood flood-opacity="0" result="BackgroundImageFix"/>
<feBlend mode="normal" in="SourceGraphic" in2="BackgroundImageFix" result="shape"/>
<feGaussianBlur stdDeviation="3.26627" result="effect1_foregroundBlur_8_406"/>
</filter>
<filter id="filter2_b_8_406" x="14.3157" y="11.1946" width="50.5942" height="50.5473" filterUnits="userSpaceOnUse" color-interpolation-filters="sRGB">
<feFlood flood-opacity="0" result="BackgroundImageFix"/>
<feGaussianBlur in="BackgroundImageFix" stdDeviation="4.6112"/>
<feComposite in2="SourceAlpha" operator="in" result="effect1_backgroundBlur_8_406"/>
<feBlend mode="normal" in="SourceGraphic" in2="effect1_backgroundBlur_8_406" result="shape"/>
</filter>
<filter id="filter3_bd_8_406" x="24.5758" y="28.734" width="30.0124" height="15.5446" filterUnits="userSpaceOnUse" color-interpolation-filters="sRGB">
<feFlood flood-opacity="0" result="BackgroundImageFix"/>
<feGaussianBlur in="BackgroundImageFix" stdDeviation="2.882"/>
<feComposite in2="SourceAlpha" operator="in" result="effect1_backgroundBlur_8_406"/>
<feColorMatrix in="SourceAlpha" type="matrix" values="0 0 0 0 0 0 0 0 0 0 0 0 0 0 0 0 0 0 127 0" result="hardAlpha"/>
<feOffset dx="1.92133" dy="1.92133"/>
<feGaussianBlur stdDeviation="1.92133"/>
<feColorMatrix type="matrix" values="0 0 0 0 0.577356 0 0 0 0 0.359375 0 0 0 0 0.9375 0 0 0 0.5 0"/>
<feBlend mode="normal" in2="effect1_backgroundBlur_8_406" result="effect2_dropShadow_8_406"/>
<feBlend mode="normal" in="SourceGraphic" in2="effect2_dropShadow_8_406" result="shape"/>
</filter>
<radialGradient id="paint0_radial_8_406" cx="0" cy="0" r="1" gradientUnits="userSpaceOnUse" gradientTransform="translate(42.5586 37.8823) rotate(90) scale(33.9097 32)">
<stop stopColor="white"/>
<stop offset="1" stopColor="white"/>
</radialGradient>
<linearGradient id="paint1_linear_8_406" x1="48.8988" y1="30.4072" x2="48.8988" y2="54.9634" gradientUnits="userSpaceOnUse">
<stop stopColor="#BC94FF"/>
<stop offset="1" stopColor="#9F66FF"/>
</linearGradient>
<linearGradient id="paint2_linear_8_406" x1="28.9173" y1="24.4513" x2="48.8992" y2="49.2365" gradientUnits="userSpaceOnUse">
<stop stopColor="white" stop-opacity="0.25"/>
<stop offset="1" stopColor="white" stop-opacity="0"/>
</linearGradient>
<linearGradient id="paint3_linear_8_406" x1="47.5135" y1="35.2234" x2="27.3557" y2="38.2477" gradientUnits="userSpaceOnUse">
<stop stopColor="white"/>
<stop offset="1" stopColor="white" stop-opacity="0.2"/>
</linearGradient>
<linearGradient id="paint4_linear_8_406" x1="33.2822" y1="34.966" x2="34.1747" y2="40.0521" gradientUnits="userSpaceOnUse">
<stop stopColor="white" stop-opacity="0.25"/>
<stop offset="1" stopColor="white" stop-opacity="0"/>
</linearGradient>
</defs>
</svg>
