<svg width="88" height="91" viewBox="0 0 88 91" fill="none" xmlns="http://www.w3.org/2000/svg">
<g filter="url(#filter0_bd_8_7948)">
<rect x="12" y="5" width="64" height="67.8193" rx="20" fill="#DD504E"/>
<rect x="11.5" y="4.5" width="65" height="68.8193" rx="20.5" stroke="#EAEAEA"/>
</g>
<path d="M44 49.2857C43.1594 49.2857 42.3353 49.0524 41.6193 48.6119L26 39V54.4286C26 55.8487 27.1513 57 28.5714 57H59.4286C60.8487 57 62 55.8487 62 54.4286V39L46.3807 48.6119C45.6648 49.0524 44.8407 49.2857 44 49.2857Z" fill="white"/>
<path d="M60.3504 35.1426H48.4045L48.4002 35.1432L48.3964 35.1426H47.4892C47.3791 35.3308 47.2623 35.5169 47.1038 35.6749C46.8803 35.8984 46.6229 36.0761 46.3429 36.2023C45.938 37.0931 45.0402 37.714 44 37.714C42.9598 37.714 42.062 37.0931 41.6571 36.2023C41.3771 36.0761 41.1197 35.8984 40.8962 35.6749C40.7377 35.5169 40.6209 35.3308 40.5108 35.1426H39.6036L39.5998 35.1432L39.5955 35.1426H27.6496C26.7386 35.1426 26 35.8811 26 36.7922C26 37.365 26.2972 37.8969 26.7851 38.1971L41.6193 47.3259C42.3353 47.7664 43.1594 47.9997 44 47.9997C44.8406 47.9997 45.6647 47.7664 46.3807 47.3259L61.2149 38.1971C61.7028 37.8969 62 37.365 62 36.7922C62 35.8811 61.2614 35.1426 60.3504 35.1426Z" fill="white"/>
<path d="M51.0248 30.9392L50.9779 30.9146C51.1519 30.6324 51.2185 30.2842 51.134 29.9366C50.9658 29.2467 50.2721 28.8198 49.5809 28.9911L48.025 29.3693L46.7735 28.7143L48.025 28.0593L49.5809 28.4374C49.6832 28.4625 49.7849 28.4738 49.886 28.4738C50.4655 28.4738 50.9909 28.0796 51.134 27.492C51.2185 27.1443 51.1519 26.7962 50.9779 26.514L51.0248 26.4894C51.6539 26.1598 51.8968 25.3832 51.5679 24.7536C51.2389 24.1245 50.4623 23.8816 49.832 24.2105L49.5642 24.3507C49.4177 24.0143 49.1446 23.7365 48.7654 23.6242C48.0849 23.4233 47.3698 23.8119 47.1677 24.4924L46.7784 25.8086L45.2856 26.5898V25.3895L46.1946 24.4805C46.6968 23.9782 46.6968 23.1646 46.1946 22.6624C45.9435 22.4113 45.6145 22.2857 45.2856 22.2857C45.2856 21.5757 44.7099 21 43.9998 21C43.2898 21 42.7141 21.5757 42.7141 22.2857C42.3852 22.2857 42.0562 22.4113 41.8051 22.6624C41.3029 23.1646 41.3029 23.9782 41.8051 24.4805L42.7141 25.3895V26.5898L41.2213 25.8086L40.832 24.4924C40.6299 23.8119 39.9179 23.4226 39.2343 23.6242C38.8551 23.7365 38.582 24.0143 38.4355 24.3507L38.1677 24.2105C37.5374 23.8816 36.7614 24.1245 36.4318 24.7536C36.1029 25.3832 36.3458 26.1598 36.9749 26.4894L37.0218 26.514C36.8477 26.7962 36.7812 27.1443 36.8656 27.492C37.0088 28.0796 37.5342 28.4738 38.1137 28.4738C38.2141 28.4738 38.3165 28.4625 38.4188 28.4374L39.9747 28.0593L41.2262 28.7143L39.9747 29.3693L38.4188 28.9911C37.7301 28.8235 37.0339 29.2467 36.8656 29.9366C36.7812 30.2842 36.8477 30.6324 37.0218 30.9146L36.9749 30.9392C36.3458 31.2688 36.1029 32.0453 36.4318 32.675C36.6616 33.1138 37.1092 33.3643 37.5725 33.3643C37.7734 33.3643 37.9768 33.3172 38.1677 33.2181L38.4355 33.0779C38.582 33.4143 38.8551 33.6921 39.2343 33.8044C39.3561 33.8402 39.4791 33.8578 39.5997 33.8578C40.1546 33.8578 40.6663 33.4955 40.832 32.9362L41.2213 31.6199L42.7141 30.8387V32.0391L41.8051 32.9481C41.3029 33.4503 41.3029 34.264 41.8051 34.7662C42.0562 35.0173 42.3852 35.1429 42.7141 35.1429C42.7141 35.8529 43.2898 36.4286 43.9998 36.4286C44.7099 36.4286 45.2856 35.8529 45.2856 35.1429C45.6145 35.1429 45.9435 35.0173 46.1946 34.7662C46.6968 34.264 46.6968 33.4503 46.1946 32.9481L45.2856 32.0391V30.8387L46.7784 31.6199L47.1677 32.9362C47.3334 33.4955 47.8451 33.8578 48.4 33.8578C48.5206 33.8578 48.6436 33.8402 48.7654 33.8044C49.1446 33.6921 49.4177 33.4143 49.5642 33.0779L49.832 33.2181C50.0229 33.3172 50.2263 33.3643 50.4272 33.3643C50.8905 33.3643 51.3381 33.1138 51.5679 32.675C51.8968 32.0453 51.6539 31.2688 51.0248 30.9392Z" fill="white"/>
<defs>
<filter id="filter0_bd_8_7948" x="-31.1333" y="-38.1333" width="150.267" height="154.086" filterUnits="userSpaceOnUse" color-interpolation-filters="sRGB">
<feFlood flood-opacity="0" result="BackgroundImageFix"/>
<feGaussianBlur in="BackgroundImageFix" stdDeviation="21.0667"/>
<feComposite in2="SourceAlpha" operator="in" result="effect1_backgroundBlur_8_7948"/>
<feColorMatrix in="SourceAlpha" type="matrix" values="0 0 0 0 0 0 0 0 0 0 0 0 0 0 0 0 0 0 127 0" result="hardAlpha"/>
<feOffset dy="6.4"/>
<feGaussianBlur stdDeviation="5.06667"/>
<feComposite in2="hardAlpha" operator="out"/>
<feColorMatrix type="matrix" values="0 0 0 0 0.0867708 0 0 0 0 0.115317 0 0 0 0 0.141667 0 0 0 0.08 0"/>
<feBlend mode="normal" in2="effect1_backgroundBlur_8_7948" result="effect2_dropShadow_8_7948"/>
<feBlend mode="normal" in="SourceGraphic" in2="effect2_dropShadow_8_7948" result="shape"/>
</filter>
</defs>
</svg>
