<svg width="88" height="91" viewBox="0 0 88 91" fill="none" xmlns="http://www.w3.org/2000/svg">
<g filter="url(#filter0_bd_8_2572)">
<rect x="12" y="5" width="64" height="67.8193" rx="20" fill="url(#paint0_radial_8_2572)" fill-opacity="0.7" shape-rendering="crispEdges"/>
<rect x="11.5" y="4.5" width="65" height="68.8193" rx="20.5" stroke="#EAEAEA" shape-rendering="crispEdges"/>
</g>
<path d="M43.9955 23C34.053 23 26 29.8473 26 38.2962C26 41.7513 27.4306 45.0715 29.6351 47.4739C30.6788 48.6076 28.9693 52.1167 28.2494 53.4754C27.8625 54.2132 28.5284 54.969 29.3382 54.7891C31.3987 54.3302 33.99 52.1887 35.1417 52.1887C36.7523 52.1887 39.7576 53.5924 44.0045 53.5924C53.947 53.5924 62 46.7451 62 38.2962C62 29.8473 53.947 23 44.0045 23H43.9955ZM37.6971 40.5456C36.4554 40.5456 35.4476 39.5379 35.4476 38.2962C35.4476 37.0545 36.4554 36.0467 37.6971 36.0467C38.9388 36.0467 39.9465 37.0545 39.9465 38.2962C39.9465 39.5379 38.9388 40.5456 37.6971 40.5456ZM43.9955 40.5456C42.7538 40.5456 41.7461 39.5379 41.7461 38.2962C41.7461 37.0545 42.7538 36.0467 43.9955 36.0467C45.2372 36.0467 46.2449 37.0545 46.2449 38.2962C46.2449 39.5379 45.2372 40.5456 43.9955 40.5456ZM50.2939 40.5456C49.0522 40.5456 48.0445 39.5379 48.0445 38.2962C48.0445 37.0545 49.0522 36.0467 50.2939 36.0467C51.5356 36.0467 52.5434 37.0545 52.5434 38.2962C52.5434 39.5379 51.5356 40.5456 50.2939 40.5456Z" fill="#034737"/>
<defs>
<filter id="filter0_bd_8_2572" x="-31.1333" y="-38.1333" width="150.267" height="154.086" filterUnits="userSpaceOnUse" color-interpolation-filters="sRGB">
<feFlood flood-opacity="0" result="BackgroundImageFix"/>
<feGaussianBlur in="BackgroundImageFix" stdDeviation="21.0667"/>
<feComposite in2="SourceAlpha" operator="in" result="effect1_backgroundBlur_8_2572"/>
<feColorMatrix in="SourceAlpha" type="matrix" values="0 0 0 0 0 0 0 0 0 0 0 0 0 0 0 0 0 0 127 0" result="hardAlpha"/>
<feOffset dy="6.4"/>
<feGaussianBlur stdDeviation="5.06667"/>
<feComposite in2="hardAlpha" operator="out"/>
<feColorMatrix type="matrix" values="0 0 0 0 0.0867708 0 0 0 0 0.115317 0 0 0 0 0.141667 0 0 0 0.08 0"/>
<feBlend mode="normal" in2="effect1_backgroundBlur_8_2572" result="effect2_dropShadow_8_2572"/>
<feBlend mode="normal" in="SourceGraphic" in2="effect2_dropShadow_8_2572" result="shape"/>
</filter>
<radialGradient id="paint0_radial_8_2572" cx="0" cy="0" r="1" gradientUnits="userSpaceOnUse" gradientTransform="translate(44 38.9097) rotate(90) scale(33.9097 32)">
<stop stopColor="white"/>
<stop offset="1" stopColor="white"/>
</radialGradient>
</defs>
</svg>
