<svg width="88" height="91" viewBox="0 0 88 91" fill="none" xmlns="http://www.w3.org/2000/svg">
<g filter="url(#filter0_bd_8_7731)">
<rect x="12" y="5" width="64" height="67.8193" rx="20" fill="#E6A55B"/>
<rect x="11.5" y="4.5" width="65" height="68.8193" rx="20.5" stroke="#EAEAEA"/>
</g>
<path d="M60.8196 39.0012C59.6773 39.0012 58.6911 39.6271 58.1561 40.5455H45.3633V43.6369H58.1561C58.6911 44.5577 59.6773 45.1827 60.8196 45.1827C61.2254 45.1826 61.6273 45.1025 62.0021 44.9471C62.377 44.7916 62.7176 44.5639 63.0044 44.2768C63.2912 43.9897 63.5187 43.6489 63.6738 43.2739C63.8289 42.8989 63.9086 42.497 63.9083 42.0912C63.9079 41.272 63.5825 40.4865 63.0033 39.9071C62.4242 39.3277 61.6388 39.0019 60.8196 39.0012ZM60.8196 26.6367C59.6773 26.6367 58.6911 27.2645 58.1561 28.1824H45.3633V31.2744H58.1561C58.6911 32.1951 59.6773 32.8201 60.8196 32.8201C61.6392 32.8196 62.425 32.4936 63.0043 31.9138C63.5835 31.3339 63.9087 30.5478 63.9083 29.7282C63.9083 28.9088 63.583 28.1228 63.0038 27.5432C62.4247 26.9635 61.6391 26.6375 60.8196 26.6367Z" fill="white"/>
<path d="M42.2719 25.0915H48.4548C48.455 24.6854 48.3751 24.2834 48.2198 23.9083C48.0645 23.5331 47.8367 23.1923 47.5497 22.9052C47.2626 22.6181 46.9217 22.3904 46.5466 22.2351C46.1715 22.0798 45.7694 21.9999 45.3634 22H29.9084C29.0888 22.0004 28.3028 22.3262 27.7233 22.906C27.1439 23.4857 26.8184 24.2718 26.8184 25.0915V52.9095C26.8183 53.3153 26.8982 53.7172 27.0534 54.0921C27.2087 54.4671 27.4363 54.8078 27.7233 55.0948C28.0102 55.3818 28.3509 55.6094 28.7258 55.7647C29.1007 55.9201 29.5026 56 29.9084 56H45.3634C45.7693 56.0002 46.1713 55.9204 46.5464 55.7651C46.9215 55.6099 47.2624 55.3823 47.5495 55.0953C47.8366 54.8083 48.0643 54.4675 48.2196 54.0924C48.375 53.7174 48.4549 53.3154 48.4548 52.9095H42.2719V25.0915ZM39.1819 49.8185H29.9084V46.7279H39.1819V49.8185ZM39.1819 43.6365H29.9084V40.545H39.1819V43.6365ZM39.1819 37.455H29.9084V34.364H39.1819V37.455ZM39.1819 31.2734H29.9084V28.1815H39.1819V31.2734Z" fill="white"/>
<path d="M51.5462 45.1814C50.4038 45.1814 49.4191 45.8082 48.8827 46.7271H45.3633V49.8177H48.8827C49.4191 50.7384 50.4038 51.3634 51.5462 51.3634C51.9521 51.3634 52.3541 51.2834 52.7291 51.1281C53.1041 50.9727 53.4449 50.7449 53.7319 50.4579C54.0189 50.1708 54.2465 49.83 54.4017 49.4549C54.557 49.0798 54.6368 48.6779 54.6367 48.2719C54.6362 47.4524 54.3105 46.6666 53.731 46.0871C53.1515 45.5077 52.3657 45.1819 51.5462 45.1814ZM54.6377 32.8184C53.4953 32.8184 52.5091 33.4447 51.9741 34.3627H45.3633V37.4542H51.9741C52.5091 38.3749 53.4953 38.9999 54.6377 38.9999C55.0435 38.9998 55.4453 38.9197 55.8202 38.7643C56.1951 38.6088 56.5357 38.3811 56.8226 38.094C57.1094 37.8069 57.3369 37.4662 57.4921 37.0912C57.6472 36.7162 57.727 36.3143 57.7268 35.9084C57.7264 35.0892 57.4009 34.3035 56.8217 33.7242C56.2424 33.1448 55.4569 32.819 54.6377 32.8184Z" fill="white"/>
<defs>
<filter id="filter0_bd_8_7731" x="-31.1333" y="-38.1333" width="150.267" height="154.086" filterUnits="userSpaceOnUse" color-interpolation-filters="sRGB">
<feFlood flood-opacity="0" result="BackgroundImageFix"/>
<feGaussianBlur in="BackgroundImageFix" stdDeviation="21.0667"/>
<feComposite in2="SourceAlpha" operator="in" result="effect1_backgroundBlur_8_7731"/>
<feColorMatrix in="SourceAlpha" type="matrix" values="0 0 0 0 0 0 0 0 0 0 0 0 0 0 0 0 0 0 127 0" result="hardAlpha"/>
<feOffset dy="6.4"/>
<feGaussianBlur stdDeviation="5.06667"/>
<feComposite in2="hardAlpha" operator="out"/>
<feColorMatrix type="matrix" values="0 0 0 0 0.0867708 0 0 0 0 0.115317 0 0 0 0 0.141667 0 0 0 0.08 0"/>
<feBlend mode="normal" in2="effect1_backgroundBlur_8_7731" result="effect2_dropShadow_8_7731"/>
<feBlend mode="normal" in="SourceGraphic" in2="effect2_dropShadow_8_7731" result="shape"/>
</filter>
</defs>
</svg>
