<svg width="87" height="91" viewBox="0 0 87 91" fill="none" xmlns="http://www.w3.org/2000/svg">
<g filter="url(#filter0_bd_8_2956)">
<rect x="11.5586" y="5" width="64" height="67.8193" rx="20" fill="url(#paint0_radial_8_2956)" fill-opacity="0.7" shape-rendering="crispEdges"/>
<rect x="11.0586" y="4.5" width="65" height="68.8193" rx="20.5" stroke="#EAEAEA" shape-rendering="crispEdges"/>
</g>
<path fill-rule="evenodd" clip-rule="evenodd" d="M27.4335 26.2891H34.0761C34.3141 26.2891 34.5096 26.4832 34.5096 26.7226V31.3822C34.5096 31.6202 34.3155 31.8157 34.0761 31.8157H27.4335C27.1941 31.8142 27 31.6202 27 31.3822V26.7226C27 26.4846 27.1941 26.2891 27.4335 26.2891ZM41.1568 35.3021H46.8449C47.0489 35.3021 47.2161 35.4693 47.2161 35.6733V39.6626C47.2161 39.8666 47.0489 40.0338 46.8449 40.0338L41.1568 40.0323C40.9528 40.0323 40.7857 39.8652 40.7857 39.6612V35.6733C40.7857 35.4693 40.9529 35.3021 41.1568 35.3021ZM40.4896 45.3875C41.3977 45.2317 42.0848 45.1198 42.6599 45.0475C42.6741 45.0461 42.6897 45.0447 42.7039 45.0419C43.2153 44.9795 43.6389 44.9498 44.054 44.9512C44.4435 44.9526 44.8359 44.9824 45.2936 45.039C45.3091 45.0419 45.3247 45.0433 45.3417 45.0447C45.9169 45.1169 46.5983 45.2317 47.5121 45.3861C47.7175 45.4201 47.9116 45.2813 47.9456 45.0759C47.9795 44.8704 47.8407 44.6763 47.6353 44.6424C46.8576 44.5106 46.2427 44.4086 45.7157 44.3349L45.608 43.0543H50.8199C51.0636 43.0543 51.286 42.9551 51.4461 42.7936L51.4447 42.7922C51.6062 42.6307 51.7054 42.4097 51.7054 42.166V33.1632C51.7054 32.9195 51.6062 32.6971 51.4447 32.537L51.4433 32.5384L51.4419 32.537C51.2818 32.3769 51.0594 32.2763 50.8171 32.2763L37.179 32.2806C36.9368 32.2806 36.7158 32.3798 36.5542 32.5398L36.5514 32.5427C36.3913 32.7042 36.2907 32.9252 36.2907 33.1674V42.1703C36.2907 42.3998 36.38 42.6094 36.5259 42.7681C36.5344 42.778 36.5429 42.7879 36.5514 42.7964C36.7115 42.9565 36.9339 43.0571 37.1776 43.0571H42.3895L42.2818 44.3392C41.752 44.4114 41.1343 44.5134 40.3594 44.6466C40.154 44.682 40.0166 44.8761 40.0506 45.0815C40.0888 45.2841 40.2842 45.4229 40.4896 45.3875ZM43.1487 43.0557H44.8501L44.9493 44.2457C44.639 44.2173 44.35 44.2017 44.0554 44.2003C43.7295 44.1989 43.4051 44.2145 43.0481 44.2471L43.1487 43.0557ZM50.8213 33.0356H37.1788C37.142 33.0356 37.1094 33.0497 37.0867 33.0724L37.0853 33.0738C37.0627 33.0965 37.0485 33.1291 37.0485 33.1659V42.1687C37.0485 42.1999 37.0584 42.2282 37.0768 42.2509L37.0867 42.2608C37.1108 42.2849 37.1434 42.2991 37.1788 42.2991H50.8198C50.8552 42.2991 50.8878 42.2849 50.9119 42.2608L50.9133 42.2622L50.9147 42.2608C50.9374 42.2381 50.9516 42.2056 50.9516 42.1687V33.1659C50.9516 33.1305 50.9374 33.0979 50.9133 33.0738L50.9147 33.0724C50.8892 33.0497 50.8567 33.0356 50.8213 33.0356ZM45.4168 37.9939V37.9925C45.472 37.9599 45.5202 37.9146 45.5542 37.8537C45.6576 37.6738 45.5953 37.4443 45.4154 37.3408L44.5158 36.8209C44.5087 36.8167 44.503 36.8124 44.496 36.8082L43.5978 36.2897C43.5369 36.2486 43.4646 36.2245 43.3867 36.2245C43.1784 36.2245 43.0084 36.3931 43.0084 36.6028V38.7292H43.0098C43.0098 38.7929 43.0254 38.8581 43.0608 38.9176C43.1657 39.0975 43.3966 39.1584 43.5751 39.055L45.4168 37.9939ZM44.1177 37.8735L44.4747 37.6681L44.139 37.474C44.1319 37.4712 44.1248 37.4669 44.1177 37.4627L43.7636 37.2587V38.0775L44.1177 37.8735ZM30.0756 36.726C30.1833 36.0106 30.3448 35.3122 30.5559 34.6364C30.7783 33.9224 31.0574 33.2325 31.3875 32.5709H32.2346C31.8479 33.2963 31.5249 34.0627 31.2755 34.8617C31.0432 35.6069 30.8746 36.3818 30.7755 37.1765L30.2952 36.3463L30.0756 36.726ZM35.265 27.7924C36.1859 27.0643 37.1988 26.448 38.2854 25.9649C39.7431 25.3175 41.3298 24.9095 42.9942 24.7905C43.0027 24.7891 43.0126 24.7891 43.0211 24.7891V24L44 24.5653L44.9804 25.1319L43.0197 26.2653V25.5456C41.4515 25.6603 39.9597 26.0442 38.5912 26.652C37.3757 27.1932 36.2551 27.91 35.2634 28.7714V27.7924L35.265 27.7924ZM46.1109 24.9124C47.3661 25.1008 48.5674 25.4549 49.6909 25.9522C50.7859 26.4367 51.8088 27.0572 52.7367 27.7924V28.7714C51.7393 27.9058 50.6117 27.1847 49.3863 26.6435C48.2218 26.1293 46.9708 25.7751 45.6606 25.6136L46.4908 25.1334L46.1109 24.9124ZM56.6141 32.5708C56.94 33.2239 57.2162 33.9067 57.4372 34.6122C57.7602 35.6393 57.9684 36.7174 58.0464 37.8309C58.0478 37.8394 58.0478 37.8493 58.0478 37.8578H58.8369L58.2716 38.8367L57.705 39.817L56.5716 37.8564H57.2913C57.2148 36.8109 57.0193 35.7994 56.7161 34.8346C56.4682 34.0441 56.1481 33.2876 55.7656 32.5694L56.6141 32.5708ZM57.9245 40.9477C57.8169 41.6631 57.6554 42.3615 57.4443 43.0372C57.2219 43.7513 56.9428 44.4412 56.6127 45.1027H55.7656C56.1523 44.3774 56.4753 43.611 56.7246 42.812C56.957 42.0668 57.1256 41.2919 57.2247 40.4972L57.705 41.3273L57.9245 40.9477ZM43.0197 52.5418L44.9803 53.6751V52.886C44.9888 52.886 44.9987 52.886 45.0072 52.8846C46.6718 52.767 48.2585 52.359 49.7161 51.7102C50.8027 51.2271 51.8156 50.6108 52.7364 49.8826V48.9037C51.7448 49.7651 50.6256 50.4819 49.4087 51.0231C48.0402 51.6323 46.5484 52.0162 44.9802 52.1295V51.4098L43.9998 51.9751L43.0197 52.5418ZM41.8892 52.7613C40.634 52.5729 39.4327 52.2188 38.3093 51.7215C37.2142 51.237 36.1914 50.6165 35.2634 49.8813V48.9024C36.2608 49.7679 37.3884 50.489 38.6139 51.0302C39.7783 51.5445 41.0293 51.8986 42.3395 52.0601L41.5094 52.5403L41.8892 52.7613ZM31.386 45.1029C31.0601 44.4498 30.7839 43.767 30.5629 43.0615C30.2399 42.0344 30.0317 40.9563 29.9537 39.8428C29.9523 39.8343 29.9523 39.8244 29.9523 39.8159H29.1632L29.7285 38.837L30.2952 37.8567L31.4285 39.8173H30.7088C30.7853 40.8628 30.9808 41.8743 31.284 42.8391C31.5319 43.6296 31.852 44.3861 32.2345 45.1043L31.386 45.1029ZM53.9239 45.8594H60.5665C60.8045 45.8594 61 46.0535 61 46.2929V50.9524C61 51.1904 60.8059 51.3859 60.5665 51.3859L53.9239 51.3845C53.6859 51.3845 53.4904 51.1904 53.4904 50.951L53.4918 46.2915C53.4918 46.0535 53.6859 45.8594 53.9239 45.8594ZM55.7429 48.8018L56.6255 49.6844C56.7728 49.8317 57.0122 49.8317 57.1596 49.6844L58.7505 48.0935C58.8978 47.9462 58.8978 47.7068 58.7505 47.5594C58.6032 47.412 58.3637 47.4121 58.2164 47.5594L56.8932 48.8826L56.2784 48.2677C56.1311 48.1204 55.8917 48.1204 55.7443 48.2677C55.5941 48.4151 55.5941 48.6545 55.7429 48.8018ZM27.4335 45.8594H34.0761C34.3141 45.8594 34.5096 46.0535 34.5096 46.2929V50.9524C34.5096 51.1904 34.3155 51.3859 34.0761 51.3859L27.4335 51.3845C27.1941 51.3845 27 51.189 27 50.951V46.2915C27 46.0535 27.1941 45.8594 27.4335 45.8594ZM29.2511 48.8018L30.1337 49.6844C30.281 49.8317 30.5204 49.8317 30.6678 49.6844L32.2587 48.0935C32.406 47.9462 32.406 47.7068 32.2587 47.5594C32.1113 47.412 31.8719 47.4121 31.7246 47.5594L30.4014 48.8826L29.7866 48.2677C29.6393 48.1204 29.3998 48.1204 29.2525 48.2677C29.1037 48.4151 29.1037 48.6545 29.2511 48.8018ZM53.9236 26.2897H60.5662C60.8043 26.2897 60.9997 26.4837 60.9997 26.7231V31.3827C60.9997 31.6207 60.8057 31.8162 60.5662 31.8162H53.9236C53.6856 31.8162 53.4902 31.6221 53.4902 31.3827L53.4916 26.7231C53.4916 26.4851 53.6857 26.2897 53.9236 26.2897ZM55.7426 29.2321L56.6252 30.1147C56.7726 30.262 57.012 30.262 57.1593 30.1147L58.7502 28.5238C58.8976 28.3764 58.8976 28.137 58.7502 27.9897C58.6029 27.8423 58.3635 27.8423 58.2161 27.9897L56.893 29.3128L56.2782 28.698C56.1308 28.5506 55.8914 28.5506 55.7441 28.698C55.5939 28.8453 55.5939 29.0847 55.7426 29.2321ZM29.2509 29.2321L30.1335 30.1147C30.2808 30.262 30.5203 30.262 30.6676 30.1147L32.2585 28.5238C32.4059 28.3764 32.4059 28.137 32.2585 27.9897C32.1112 27.8423 31.8718 27.8423 31.7244 27.9897L30.4013 29.3128L29.7864 28.698C29.6391 28.5506 29.3997 28.5506 29.2523 28.698C29.1036 28.8453 29.1036 29.0847 29.2509 29.2321Z" fill="#034737"/>
<defs>
<filter id="filter0_bd_8_2956" x="-31.5747" y="-38.1333" width="150.267" height="154.086" filterUnits="userSpaceOnUse" color-interpolation-filters="sRGB">
<feFlood flood-opacity="0" result="BackgroundImageFix"/>
<feGaussianBlur in="BackgroundImageFix" stdDeviation="21.0667"/>
<feComposite in2="SourceAlpha" operator="in" result="effect1_backgroundBlur_8_2956"/>
<feColorMatrix in="SourceAlpha" type="matrix" values="0 0 0 0 0 0 0 0 0 0 0 0 0 0 0 0 0 0 127 0" result="hardAlpha"/>
<feOffset dy="6.4"/>
<feGaussianBlur stdDeviation="5.06667"/>
<feComposite in2="hardAlpha" operator="out"/>
<feColorMatrix type="matrix" values="0 0 0 0 0.0867708 0 0 0 0 0.115317 0 0 0 0 0.141667 0 0 0 0.08 0"/>
<feBlend mode="normal" in2="effect1_backgroundBlur_8_2956" result="effect2_dropShadow_8_2956"/>
<feBlend mode="normal" in="SourceGraphic" in2="effect2_dropShadow_8_2956" result="shape"/>
</filter>
<radialGradient id="paint0_radial_8_2956" cx="0" cy="0" r="1" gradientUnits="userSpaceOnUse" gradientTransform="translate(43.5586 38.9097) rotate(90) scale(33.9097 32)">
<stop stopColor="white"/>
<stop offset="1" stopColor="white"/>
</radialGradient>
</defs>
</svg>
