<svg width="88" height="91" viewBox="0 0 88 91" fill="none" xmlns="http://www.w3.org/2000/svg">
<g filter="url(#filter0_bd_8_2966)">
<rect x="12" y="5" width="64" height="67.8193" rx="20" fill="url(#paint0_radial_8_2966)" fill-opacity="0.7" shape-rendering="crispEdges"/>
<rect x="11.5" y="4.5" width="65" height="68.8193" rx="20.5" stroke="#EAEAEA" shape-rendering="crispEdges"/>
</g>
<path fill-rule="evenodd" clip-rule="evenodd" d="M28.5828 30.4938C28.9748 33.6631 31.8629 35.9144 35.032 35.5223C35.8938 35.4147 36.6861 35.1236 37.3775 34.6936C37.4023 34.6787 37.4304 34.6787 37.4553 34.6936L39.9513 36.2352C40.0075 36.2699 40.077 36.2187 40.0605 36.1541L39.2334 32.8806C39.2285 32.8608 39.2318 32.8426 39.2417 32.8244C39.9116 31.7426 40.2308 30.4342 40.0621 29.0729C39.6701 25.9036 36.782 23.6522 33.6129 24.0444C30.4403 24.4364 28.189 27.3247 28.5828 30.4938ZM57.303 33.5837L59.7412 36.0218C59.7693 36.0499 59.8156 36.0499 59.8438 36.0218L60.8412 35.0244C61.0529 34.8126 61.0529 34.4636 60.8412 34.2519L59.0729 32.4837C58.8612 32.2719 58.5122 32.2719 58.3005 32.4837L57.303 33.4811C57.2749 33.5092 57.2749 33.5555 57.303 33.5837ZM46.2471 44.6396C46.219 44.6115 46.219 44.5652 46.2471 44.537L56.4248 34.3593C56.4529 34.3312 56.4992 34.3312 56.5274 34.3593L58.9655 36.7975C58.9936 36.8256 58.9936 36.8719 58.9655 36.9001L48.7895 47.0777C48.7614 47.1059 48.7151 47.1059 48.687 47.0777L46.2471 44.6396ZM45.3986 48.014L47.4927 47.5955C47.5506 47.5839 47.5721 47.5128 47.5307 47.4715L45.8551 45.7958C45.8137 45.7545 45.7426 45.776 45.731 45.8339L45.3126 47.928C45.301 47.9793 45.3473 48.0239 45.3986 48.014ZM58.9376 52.3231H27.0728C27.0331 52.3231 27 52.3561 27 52.3958V53.3023C27 53.342 27.0331 53.3751 27.0728 53.3751H58.9376C58.9773 53.3751 59.0104 53.342 59.0104 53.3023V52.3958C59.0104 52.3561 58.9773 52.3231 58.9376 52.3231ZM41.6057 44.6446C41.0119 47.8916 38.1651 50.2951 34.8156 50.2951C33.0904 50.2951 31.4479 49.655 30.1839 48.512C30.1541 48.4839 30.1078 48.4872 30.0797 48.517L27.7788 51.1057C27.7375 51.1537 27.7705 51.2281 27.8334 51.2281H58.1746C58.2375 51.2281 58.2706 51.1537 58.2292 51.1057L52.6731 44.853C52.645 44.8215 52.597 44.8199 52.5672 44.8497L49.125 48.2919C49.0407 48.3762 48.9431 48.4225 48.8356 48.444L44.6986 49.2711C44.3165 49.3472 43.9725 49.0097 44.0552 48.6161L44.8442 44.671C44.8542 44.6263 44.8194 44.5833 44.7731 44.5833H41.6783C41.6419 44.585 41.6123 44.6082 41.6057 44.6446ZM40.6215 43.3908C40.6215 46.57 38.0494 49.1967 34.8155 49.1967C31.6016 49.1967 29.0096 46.5899 29.0096 43.3908C29.0096 40.1835 31.6082 37.5848 34.8155 37.5848C38.0229 37.5848 40.6215 40.1851 40.6215 43.3908ZM35.9885 41.0784C36.8503 41.0784 37.5467 41.7764 37.5467 42.6365C37.5467 44.0392 36.0861 45.6371 34.8455 46.1995C34.8257 46.2078 34.8042 46.2078 34.7843 46.1995C33.5454 45.6371 32.0832 44.0409 32.0832 42.6365C32.0832 41.2239 33.8084 40.5606 34.7612 41.5514C34.7909 41.5812 34.8372 41.5812 34.8654 41.5514C35.1515 41.2603 35.5485 41.0784 35.9885 41.0784ZM46.7552 27.4203L51.2942 30.0404C51.4166 30.1099 51.4166 30.2869 51.2926 30.3563L46.7553 32.9765C46.6329 33.0459 46.4823 32.9583 46.4823 32.8193V27.5774C46.4823 27.4385 46.6328 27.3508 46.7552 27.4203ZM45.1044 25.1707C42.3272 26.7736 41.3761 30.325 42.9789 33.102C44.5818 35.8792 48.1332 36.8304 50.9102 35.2275C53.6872 33.6246 54.6386 30.0732 53.0357 27.2962C51.4328 24.519 47.8814 23.5662 45.1044 25.1707ZM37.1681 30.6061C36.8654 30.6061 36.6205 30.3597 36.6205 30.0586C36.6205 29.7559 36.867 29.5111 37.1681 29.5111H37.2326C37.5353 29.5111 37.7801 29.7576 37.7801 30.0586C37.7801 30.3613 37.5336 30.6061 37.2326 30.6061H37.1681ZM34.9019 30.0586C34.9019 30.3613 34.6555 30.6061 34.3544 30.6061H34.2899C33.9872 30.6061 33.7424 30.3597 33.7424 30.0586C33.7424 29.7559 33.9888 29.5111 34.2899 29.5111H34.3544C34.6571 29.5094 34.9019 29.7559 34.9019 30.0586ZM31.4117 30.6061C31.109 30.6061 30.8642 30.3597 30.8642 30.0586C30.8642 29.7559 31.1107 29.5111 31.4117 29.5111H31.4762C31.7789 29.5111 32.0238 29.7576 32.0238 30.0586C32.0238 30.3613 31.7773 30.6061 31.4762 30.6061H31.4117Z" fill="#034737"/>
<defs>
<filter id="filter0_bd_8_2966" x="-31.1333" y="-38.1333" width="150.267" height="154.086" filterUnits="userSpaceOnUse" color-interpolation-filters="sRGB">
<feFlood flood-opacity="0" result="BackgroundImageFix"/>
<feGaussianBlur in="BackgroundImageFix" stdDeviation="21.0667"/>
<feComposite in2="SourceAlpha" operator="in" result="effect1_backgroundBlur_8_2966"/>
<feColorMatrix in="SourceAlpha" type="matrix" values="0 0 0 0 0 0 0 0 0 0 0 0 0 0 0 0 0 0 127 0" result="hardAlpha"/>
<feOffset dy="6.4"/>
<feGaussianBlur stdDeviation="5.06667"/>
<feComposite in2="hardAlpha" operator="out"/>
<feColorMatrix type="matrix" values="0 0 0 0 0.0867708 0 0 0 0 0.115317 0 0 0 0 0.141667 0 0 0 0.08 0"/>
<feBlend mode="normal" in2="effect1_backgroundBlur_8_2966" result="effect2_dropShadow_8_2966"/>
<feBlend mode="normal" in="SourceGraphic" in2="effect2_dropShadow_8_2966" result="shape"/>
</filter>
<radialGradient id="paint0_radial_8_2966" cx="0" cy="0" r="1" gradientUnits="userSpaceOnUse" gradientTransform="translate(44 38.9097) rotate(90) scale(33.9097 32)">
<stop stopColor="white"/>
<stop offset="1" stopColor="white"/>
</radialGradient>
</defs>
</svg>
