<svg width="88" height="91" viewBox="0 0 88 91" fill="none" xmlns="http://www.w3.org/2000/svg">
<g filter="url(#filter0_bd_8_7692)">
<rect x="12" y="5" width="64" height="67.8193" rx="20" fill="#DD504E"/>
<rect x="11.5" y="4.5" width="65" height="68.8193" rx="20.5" stroke="#EAEAEA"/>
</g>
<path d="M48.7995 23.2305H40.0833C39.1386 23.2311 38.2329 23.6066 37.5649 24.2746C36.8969 24.9426 36.5214 25.8483 36.5208 26.793V51.208C36.5214 52.1526 36.8969 53.0584 37.5649 53.7263C38.2329 54.3943 39.1386 54.7698 40.0833 54.7705H48.7995C49.7442 54.7698 50.6499 54.3943 51.3179 53.7263C51.9859 53.0584 52.3614 52.1526 52.362 51.208V26.793C52.3614 25.8483 51.9859 24.9426 51.3179 24.2746C50.6499 23.6066 49.7442 23.2311 48.7995 23.2305ZM31.7577 25.6007H29.0039C28.689 25.6007 28.3869 25.7258 28.1642 25.9485C27.9415 26.1712 27.8164 26.4733 27.8164 26.7882C27.8164 27.1032 27.9415 27.4052 28.1642 27.6279C28.3869 27.8506 28.689 27.9757 29.0039 27.9757H31.7577C32.0378 27.976 32.3063 28.0875 32.5043 28.2857C32.7022 28.4839 32.8134 28.7525 32.8134 29.0326V47.4899C32.8134 47.7702 32.7021 48.039 32.5039 48.2372C32.3057 48.4354 32.0368 48.5468 31.7565 48.5468H29.0039C28.689 48.5468 28.3869 48.6719 28.1642 48.8946C27.9415 49.1173 27.8164 49.4193 27.8164 49.7343C27.8164 50.0492 27.9415 50.3513 28.1642 50.574C28.3869 50.7967 28.689 50.9218 29.0039 50.9218H31.7577C32.6675 50.9208 33.5398 50.5589 34.183 49.9155C34.8262 49.2721 35.1878 48.3997 35.1884 47.4899V29.0314C35.1878 28.1214 34.826 27.2489 34.1825 26.6054C33.5391 25.9619 32.6665 25.6002 31.7565 25.5995L31.7577 25.6007ZM59.8789 48.5468H57.1263C56.8461 48.5465 56.5774 48.435 56.3793 48.2369C56.1812 48.0387 56.0697 47.7701 56.0694 47.4899V29.0314C56.0697 28.7512 56.1812 28.4826 56.3793 28.2844C56.5774 28.0863 56.8461 27.9748 57.1263 27.9745H59.8789C60.1939 27.9745 60.4959 27.8494 60.7186 27.6267C60.9413 27.404 61.0664 27.102 61.0664 26.787C61.0664 26.4721 60.9413 26.17 60.7186 25.9473C60.4959 25.7246 60.1939 25.5995 59.8789 25.5995H57.1263C56.2163 25.6002 55.3437 25.9619 54.7003 26.6054C54.0568 27.2489 53.695 28.1214 53.6944 29.0314V47.4911C53.695 48.4011 54.0568 49.2736 54.7003 49.9171C55.3437 50.5606 56.2163 50.9223 57.1263 50.923H59.8789C60.1939 50.923 60.4959 50.7979 60.7186 50.5752C60.9413 50.3525 61.0664 50.0504 61.0664 49.7355C61.0664 49.4205 60.9413 49.1185 60.7186 48.8958C60.4959 48.6731 60.1939 48.548 59.8789 48.548V48.5468Z" fill="white"/>
<defs>
<filter id="filter0_bd_8_7692" x="-31.1333" y="-38.1333" width="150.267" height="154.086" filterUnits="userSpaceOnUse" color-interpolation-filters="sRGB">
<feFlood flood-opacity="0" result="BackgroundImageFix"/>
<feGaussianBlur in="BackgroundImageFix" stdDeviation="21.0667"/>
<feComposite in2="SourceAlpha" operator="in" result="effect1_backgroundBlur_8_7692"/>
<feColorMatrix in="SourceAlpha" type="matrix" values="0 0 0 0 0 0 0 0 0 0 0 0 0 0 0 0 0 0 127 0" result="hardAlpha"/>
<feOffset dy="6.4"/>
<feGaussianBlur stdDeviation="5.06667"/>
<feComposite in2="hardAlpha" operator="out"/>
<feColorMatrix type="matrix" values="0 0 0 0 0.0867708 0 0 0 0 0.115317 0 0 0 0 0.141667 0 0 0 0.08 0"/>
<feBlend mode="normal" in2="effect1_backgroundBlur_8_7692" result="effect2_dropShadow_8_7692"/>
<feBlend mode="normal" in="SourceGraphic" in2="effect2_dropShadow_8_7692" result="shape"/>
</filter>
</defs>
</svg>
