<svg width="88" height="91" viewBox="0 0 88 91" fill="none" xmlns="http://www.w3.org/2000/svg">
<g filter="url(#filter0_bd_8_3173)">
<rect x="12" y="5" width="64" height="67.8193" rx="20" fill="url(#paint0_radial_8_3173)" fill-opacity="0.7" shape-rendering="crispEdges"/>
<rect x="11.5" y="4.5" width="65" height="68.8193" rx="20.5" stroke="#EAEAEA" shape-rendering="crispEdges"/>
</g>
<path d="M48.0233 22.7602C47.4817 22.2186 46.704 21.9843 45.9543 22.1323C45.2028 22.2823 44.575 22.7976 44.2807 23.5042C43.9865 24.2126 44.0652 25.0184 44.4906 25.6575C44.9142 26.2947 45.6282 26.6789 46.3947 26.6808H46.4022C47.3299 26.6789 48.1658 26.1185 48.52 25.2621C48.8742 24.4038 48.6793 23.4161 48.0233 22.7602ZM46.3985 21.0547C47.7309 21.0529 48.936 21.8475 49.4607 23.0731C49.9836 24.2988 49.725 25.7193 48.8029 26.6807H51.0106C51.0743 26.5495 51.1343 26.4202 51.1868 26.2928H51.1849C51.2749 26.0679 51.348 25.8374 51.4061 25.6031L51.4735 25.3258L52.7873 24.9003L52.7854 23.8659L51.4717 23.4405L51.4023 23.1631C51.3405 22.9063 51.2599 22.6533 51.1568 22.4097C51.0575 22.1661 50.9394 21.9318 50.8026 21.7069L50.6508 21.4614L51.2749 20.2377L50.5459 19.5049L49.3221 20.1309L49.0728 19.9791V19.9809C48.8498 19.8422 48.6156 19.7223 48.3738 19.6211C48.1283 19.5218 47.8772 19.4393 47.6204 19.3756L47.3412 19.3081L46.9139 18H45.8832L45.4578 19.3137L45.1785 19.3812H45.1766C44.9218 19.4431 44.6706 19.5255 44.4251 19.6248C44.1834 19.726 43.9472 19.8479 43.7224 19.9847L43.4769 20.1365L42.2531 19.5049L41.5222 20.2358L42.1444 21.4596L41.9926 21.7051H41.9945C41.8577 21.93 41.7396 22.1642 41.6365 22.4078C41.5353 22.6515 41.4547 22.9045 41.3929 23.1612L41.3254 23.4386L40.0117 23.864V24.8985L41.3254 25.3239L41.3929 25.6013C41.4491 25.8355 41.5241 26.066 41.6122 26.2909C41.6628 26.4184 41.7209 26.5477 41.7865 26.6789H43.9942C43.074 25.7174 42.8154 24.2988 43.3382 23.0731C43.863 21.8493 45.066 21.0547 46.3985 21.0547ZM46.9589 49.942H38.3173V53.1954H46.9589V49.942ZM33.6943 40.4234H31.6234V45.2042H33.6943V40.4234ZM31.1118 39.3964H34.2096H34.2078C34.4926 39.3964 34.7212 39.6269 34.7212 39.9118V45.7194C34.7212 45.8543 34.6669 45.9855 34.5713 46.0811C34.4757 46.1766 34.3446 46.231 34.2077 46.231H31.1099C30.9731 46.231 30.8438 46.1785 30.7463 46.0811C30.6489 45.9855 30.5945 45.8543 30.5945 45.7194V39.9118C30.5945 39.6269 30.825 39.3964 31.1099 39.3964H31.1118ZM38.6868 36.9058H36.6159L36.6141 45.2043H38.6849L38.6868 36.9058ZM36.0987 35.8769H39.2003C39.4833 35.8788 39.7119 36.1093 39.7119 36.3923V45.7194C39.7119 45.8543 39.6576 45.9855 39.562 46.0811C39.4664 46.1786 39.3352 46.231 39.2003 46.231H36.0987C35.9619 46.231 35.8326 46.1786 35.737 46.0811C35.6396 45.9855 35.5852 45.8543 35.5871 45.7194V36.3923C35.5852 36.1093 35.8157 35.8788 36.0987 35.8769ZM43.6737 38.868H41.6029V45.2042H43.6737V38.868ZM41.0875 37.841H44.1854C44.4702 37.841 44.7007 38.0715 44.7007 38.3563V45.7198C44.6989 46.0028 44.4683 46.2314 44.1854 46.2314H41.0894C40.8064 46.2333 40.5759 46.0028 40.574 45.7198V38.3563C40.574 38.0715 40.8045 37.841 41.0894 37.841H41.0875ZM48.6626 35.3765H46.5917V45.2041H48.6626V35.3765ZM46.0801 34.3477H49.1779C49.4628 34.3496 49.6914 34.5801 49.6895 34.8631V45.7216C49.6914 45.8566 49.6371 45.9877 49.5396 46.0833C49.444 46.1789 49.3147 46.2332 49.1779 46.2332H46.0801C45.9432 46.2332 45.8121 46.1808 45.7165 46.0833C45.619 45.9877 45.5647 45.8584 45.5647 45.7216V34.8631C45.5647 34.5782 45.7952 34.3477 46.0801 34.3477ZM53.6551 32.2394H51.5842V45.2041H53.6551V32.2394ZM51.0707 31.2068H54.1723H54.1705C54.4553 31.2086 54.684 31.4391 54.684 31.7221V45.7198C54.684 45.8547 54.6296 45.9859 54.534 46.0815C54.4385 46.179 54.3073 46.2314 54.1705 46.2314H51.0707C50.9339 46.2314 50.8046 46.179 50.7072 46.0815C50.6116 45.9859 50.5572 45.8547 50.5572 45.7198V31.724C50.5572 31.5872 50.6116 31.456 50.7072 31.3586C50.8027 31.2611 50.9339 31.2068 51.0707 31.2068ZM58.2768 48.1017V27.7097H27.0004V48.913H51.5246C53.4418 47.3931 56.0524 47.0783 58.2749 48.1015L58.2768 48.1017ZM49.073 54.2226H33.2968C32.684 54.2245 32.1892 54.7211 32.1892 55.3339V56.4453H49.5453C49.2567 55.7387 49.0974 54.9853 49.073 54.2226ZM56.0747 48.5609V53.4862H61V53.4843C60.7545 50.8737 58.6874 48.8046 56.0747 48.5609ZM61 54.5129H55.5594C55.4245 54.5129 55.2933 54.4585 55.1977 54.3629C55.1022 54.2655 55.0478 54.1362 55.0478 53.9994V48.5607C52.9395 48.7594 51.1366 50.1574 50.4188 52.1478C49.7011 54.1399 50.1996 56.3663 51.697 57.8637C53.1925 59.3611 55.4208 59.8577 57.411 59.14C59.4031 58.4222 60.8013 56.6193 61 54.5129ZM31.11 30.5284C30.9714 30.5321 30.8364 30.4796 30.7371 30.3822C30.6359 30.2866 30.5797 30.1535 30.5797 30.013C30.5797 29.8743 30.6359 29.7412 30.7371 29.6438C30.8364 29.5482 30.9714 29.4957 31.11 29.4995H36.8202C37.0976 29.5089 37.3188 29.7356 37.3188 30.013C37.3188 30.2922 37.0976 30.519 36.8202 30.5283L31.11 30.5284ZM31.11 33.2383C30.8271 33.2383 30.5965 33.0078 30.5965 32.7248C30.5965 32.4399 30.8271 32.2113 31.11 32.2113H39.6355C39.9204 32.2113 40.149 32.4399 40.149 32.7248C40.149 33.0078 39.9204 33.2383 39.6355 33.2383H31.11ZM50.4917 49.9418H47.986V53.1952H49.1179C49.2679 52.0052 49.742 50.8789 50.4917 49.9418ZM35.6712 21.1875C35.9354 21.2156 36.136 21.4367 36.136 21.701C36.136 21.9652 35.9354 22.1882 35.6712 22.2145H27.4648C27.2024 22.1882 27.0019 21.9652 27.0019 21.701C27.0019 21.4367 27.2024 21.2156 27.4648 21.1875H35.6712ZM35.6712 24.0792C35.9336 24.1073 36.1322 24.3284 36.1322 24.5927C36.1322 24.8569 35.9336 25.0781 35.6712 25.1062H27.4648C27.2005 25.0799 27 24.8588 27 24.5927C27 24.3284 27.2005 24.1054 27.4648 24.0792H35.6712Z" fill="#034737"/>
<defs>
<filter id="filter0_bd_8_3173" x="-31.1333" y="-38.1333" width="150.267" height="154.086" filterUnits="userSpaceOnUse" color-interpolation-filters="sRGB">
<feFlood flood-opacity="0" result="BackgroundImageFix"/>
<feGaussianBlur in="BackgroundImageFix" stdDeviation="21.0667"/>
<feComposite in2="SourceAlpha" operator="in" result="effect1_backgroundBlur_8_3173"/>
<feColorMatrix in="SourceAlpha" type="matrix" values="0 0 0 0 0 0 0 0 0 0 0 0 0 0 0 0 0 0 127 0" result="hardAlpha"/>
<feOffset dy="6.4"/>
<feGaussianBlur stdDeviation="5.06667"/>
<feComposite in2="hardAlpha" operator="out"/>
<feColorMatrix type="matrix" values="0 0 0 0 0.0867708 0 0 0 0 0.115317 0 0 0 0 0.141667 0 0 0 0.08 0"/>
<feBlend mode="normal" in2="effect1_backgroundBlur_8_3173" result="effect2_dropShadow_8_3173"/>
<feBlend mode="normal" in="SourceGraphic" in2="effect2_dropShadow_8_3173" result="shape"/>
</filter>
<radialGradient id="paint0_radial_8_3173" cx="0" cy="0" r="1" gradientUnits="userSpaceOnUse" gradientTransform="translate(44 38.9097) rotate(90) scale(33.9097 32)">
<stop stopColor="white"/>
<stop offset="1" stopColor="white"/>
</radialGradient>
</defs>
</svg>
