<svg width="88" height="91" viewBox="0 0 88 91" fill="none" xmlns="http://www.w3.org/2000/svg">
<g filter="url(#filter0_bd_8_2971)">
<rect x="12" y="5" width="64" height="67.8193" rx="20" fill="url(#paint0_radial_8_2971)" fill-opacity="0.7" shape-rendering="crispEdges"/>
<rect x="11.5" y="4.5" width="65" height="68.8193" rx="20.5" stroke="#EAEAEA" shape-rendering="crispEdges"/>
</g>
<path d="M32.4398 45.1081C34.2656 45.1081 35.7321 43.6402 35.7321 41.8158C35.7321 39.9899 34.2642 38.5234 32.4398 38.5234C30.614 38.5234 29.1475 39.9914 29.1475 41.8158C29.1475 43.6402 30.6154 45.1081 32.4398 45.1081Z" fill="#034737"/>
<path d="M37.8445 51.7291V49.5817C37.8445 47.6846 36.4493 46.1104 34.5871 45.8604C33.9426 46.2182 33.1919 46.3972 32.4034 46.3972C31.6163 46.3972 30.8641 46.1819 30.2197 45.8604C28.3952 46.1456 27 47.6848 27 49.6168V51.7642C27 52.1584 27.3215 52.5163 27.7522 52.5163H37.1286C37.5215 52.48 37.8445 52.1583 37.8445 51.7291Z" fill="#034737"/>
<path d="M55.5604 45.1081C57.3862 45.1081 58.8527 43.6402 58.8527 41.8158C58.8527 39.9899 57.3848 38.5234 55.5604 38.5234C53.7346 38.5234 52.2681 39.9914 52.2681 41.8158C52.2681 43.6402 53.7709 45.1081 55.5604 45.1081Z" fill="#034737"/>
<path d="M60.9999 51.7291V49.5817C60.9999 47.6846 59.6047 46.1104 57.7425 45.8604C57.098 46.2182 56.3473 46.3972 55.5588 46.3972C54.7717 46.3972 54.0196 46.1819 53.3751 45.8604C51.5493 46.1106 50.1177 47.6862 50.1177 49.5817V51.7291C50.1177 52.1234 50.4392 52.4812 50.8698 52.4812H60.2463C60.6783 52.4799 60.9999 52.1583 60.9999 51.7291Z" fill="#034737"/>
<path d="M49.5471 37.0555C49.7261 36.5899 49.7974 36.4823 49.9763 36.0181L51.4792 35.8029C51.8734 35.7316 52.1586 35.4086 52.1586 35.0158V33.2976C52.1586 32.9033 51.872 32.5454 51.4792 32.5105L49.9763 32.2952C49.7973 31.8297 49.726 31.722 49.5471 31.2579L50.4418 30.0416C50.6921 29.7201 50.6571 29.2546 50.3705 29.0043L49.1543 27.788C48.8677 27.5015 48.4385 27.4665 48.117 27.7167L46.9007 28.6115C46.4351 28.4325 46.3275 28.3612 45.8634 28.1823L45.6481 26.6794C45.5768 26.2852 45.2538 26 44.861 26H43.1428C42.7486 26 42.3907 26.2866 42.3557 26.6794L42.1404 28.1823C41.6749 28.3612 41.5672 28.4325 41.1031 28.6115L39.8868 27.7167C39.5653 27.4665 39.0998 27.5015 38.8495 27.788L37.6333 29.0043C37.3467 29.2909 37.3117 29.7201 37.562 30.0416L38.4567 31.2579C38.2777 31.7234 38.2064 31.8311 38.0275 32.2952L36.5246 32.5105C36.1304 32.5818 35.8452 32.9048 35.8452 33.2976V35.0158C35.8452 35.41 36.1318 35.7679 36.5246 35.8029L38.0275 36.0181C38.2065 36.4837 38.2778 36.5914 38.4567 37.0555L37.562 38.2717C37.3117 38.5933 37.3467 39.0588 37.6333 39.3091L38.8495 40.5253C39.1361 40.8119 39.5653 40.8469 39.8868 40.5966L41.1031 39.7019C41.5687 39.8808 41.6763 39.9521 42.1404 40.1311L42.3557 41.6339C42.427 42.0282 42.75 42.3134 43.1428 42.3134H44.861C45.2552 42.3134 45.6131 42.0268 45.6481 41.6339L45.8634 40.1311C46.3289 39.9521 46.4366 39.8808 46.9007 39.7019L48.117 40.5966C48.4385 40.8469 48.904 40.8119 49.1543 40.5253L50.3705 39.3091C50.6571 39.0225 50.6921 38.5933 50.4418 38.2717L49.5471 37.0555ZM43.9997 37.4483C42.1739 37.4483 40.671 35.9804 40.671 34.1196C40.671 32.2938 42.139 30.7909 43.9997 30.7909C45.8256 30.7909 47.3284 32.2589 47.3284 34.1196C47.3284 35.9818 45.8256 37.4483 43.9997 37.4483Z" fill="#034737"/>
<path d="M48.3661 46.574C48.4738 46.4664 48.5451 46.2874 48.5451 46.1449C48.5451 46.0023 48.4738 45.8233 48.3661 45.7157L46.469 43.8185C46.2188 43.5683 45.8609 43.5683 45.6106 43.8185C45.3604 44.0688 45.3604 44.4267 45.6106 44.6769L46.4341 45.5004H40.0632C39.7417 45.5004 39.4551 45.787 39.4551 46.1085C39.4551 46.43 39.7417 46.7166 40.0632 46.7166H46.4688L45.6454 47.5401C45.3951 47.7903 45.3951 48.1482 45.6454 48.3984C45.8956 48.6487 46.2535 48.6487 46.5037 48.3984L48.3661 46.574Z" fill="#034737"/>
<path d="M39.634 50.0113C39.5264 50.119 39.4551 50.2979 39.4551 50.4405C39.4551 50.5831 39.5264 50.7621 39.634 50.8697L41.5312 52.7668C41.7814 53.0171 42.1393 53.0171 42.3895 52.7668C42.6398 52.5166 42.6398 52.1587 42.3895 51.9085L41.5661 51.085H47.937C48.2585 51.085 48.5451 50.7984 48.5451 50.4769C48.5451 50.1539 48.2585 49.8324 47.937 49.8324H41.5314L42.3548 49.009C42.6051 48.7587 42.6051 48.4008 42.3548 48.1506C42.1046 47.9003 41.7467 47.9003 41.4964 48.1506L39.634 50.0113Z" fill="#034737"/>
<defs>
<filter id="filter0_bd_8_2971" x="-31.1333" y="-38.1333" width="150.267" height="154.086" filterUnits="userSpaceOnUse" color-interpolation-filters="sRGB">
<feFlood flood-opacity="0" result="BackgroundImageFix"/>
<feGaussianBlur in="BackgroundImageFix" stdDeviation="21.0667"/>
<feComposite in2="SourceAlpha" operator="in" result="effect1_backgroundBlur_8_2971"/>
<feColorMatrix in="SourceAlpha" type="matrix" values="0 0 0 0 0 0 0 0 0 0 0 0 0 0 0 0 0 0 127 0" result="hardAlpha"/>
<feOffset dy="6.4"/>
<feGaussianBlur stdDeviation="5.06667"/>
<feComposite in2="hardAlpha" operator="out"/>
<feColorMatrix type="matrix" values="0 0 0 0 0.0867708 0 0 0 0 0.115317 0 0 0 0 0.141667 0 0 0 0.08 0"/>
<feBlend mode="normal" in2="effect1_backgroundBlur_8_2971" result="effect2_dropShadow_8_2971"/>
<feBlend mode="normal" in="SourceGraphic" in2="effect2_dropShadow_8_2971" result="shape"/>
</filter>
<radialGradient id="paint0_radial_8_2971" cx="0" cy="0" r="1" gradientUnits="userSpaceOnUse" gradientTransform="translate(44 38.9097) rotate(90) scale(33.9097 32)">
<stop stopColor="white"/>
<stop offset="1" stopColor="white"/>
</radialGradient>
</defs>
</svg>
