<svg width="88" height="91" viewBox="0 0 88 91" fill="none" xmlns="http://www.w3.org/2000/svg">
<g filter="url(#filter0_bd_8_6724)">
<rect x="12" y="5" width="64" height="67.8193" rx="20" fill="#CC63D4"/>
<rect x="11.5" y="4.5" width="65" height="68.8193" rx="20.5" stroke="#EAEAEA"/>
</g>
<path d="M53.5 52.6562H34.5C34.3425 52.6562 34.1915 52.7188 34.0802 52.8302C33.9688 52.9415 33.9062 53.0925 33.9062 53.25C33.9062 53.4075 33.9688 53.5585 34.0802 53.6698C34.1915 53.7812 34.3425 53.8438 34.5 53.8438H53.5C53.6575 53.8438 53.8085 53.7812 53.9198 53.6698C54.0312 53.5585 54.0938 53.4075 54.0938 53.25C54.0938 53.0925 54.0312 52.9415 53.9198 52.8302C53.8085 52.7188 53.6575 52.6562 53.5 52.6562Z" fill="white"/>
<path d="M41.0964 34.2498L40.4374 32.1123L39.7783 34.2498H41.0964Z" fill="white"/>
<path d="M54.0938 21.1875H33.9062C33.1189 21.1875 32.3638 21.5003 31.807 22.057C31.2503 22.6138 30.9375 23.3689 30.9375 24.1562V53.25C30.9375 54.1948 31.3128 55.101 31.9809 55.7691C32.649 56.4372 33.5552 56.8125 34.5 56.8125H54.0938C54.8811 56.8125 55.6362 56.4997 56.193 55.943C56.7497 55.3862 57.0625 54.6311 57.0625 53.8438V24.1562C57.0625 23.3689 56.7497 22.6138 56.193 22.057C55.6362 21.5003 54.8811 21.1875 54.0938 21.1875ZM47.5625 29.5H52.3125C52.4177 29.5002 52.521 29.5283 52.6117 29.5815C52.7025 29.6347 52.7775 29.7111 52.8291 29.8028C52.8812 29.8931 52.9086 29.9955 52.9086 30.0997C52.9086 30.2039 52.8812 30.3063 52.8291 30.3966L48.6253 37.2188H52.3125C52.47 37.2188 52.621 37.2813 52.7323 37.3927C52.8437 37.504 52.9062 37.655 52.9062 37.8125C52.9062 37.97 52.8437 38.121 52.7323 38.2323C52.621 38.3437 52.47 38.4062 52.3125 38.4062H47.5625C47.4573 38.4061 47.354 38.3779 47.2633 38.3247C47.1725 38.2715 47.0975 38.1952 47.0459 38.1034C46.9938 38.0132 46.9664 37.9108 46.9664 37.8066C46.9664 37.7023 46.9938 37.5999 47.0459 37.5097L51.2497 30.6875H47.5625C47.405 30.6875 47.254 30.6249 47.1427 30.5136C47.0313 30.4022 46.9688 30.2512 46.9688 30.0938C46.9688 29.9363 47.0313 29.7853 47.1427 29.6739C47.254 29.5626 47.405 29.5 47.5625 29.5ZM44 33.0625H46.375C46.5325 33.0625 46.6835 33.1251 46.7948 33.2364C46.9062 33.3478 46.9688 33.4988 46.9688 33.6562C46.9688 33.8137 46.9062 33.9647 46.7948 34.0761C46.6835 34.1874 46.5325 34.25 46.375 34.25H44C43.8425 34.25 43.6915 34.1874 43.5802 34.0761C43.4688 33.9647 43.4062 33.8137 43.4062 33.6562C43.4062 33.4988 43.4688 33.3478 43.5802 33.2364C43.6915 33.1251 43.8425 33.0625 44 33.0625ZM37.4688 37.6403L39.8438 29.9216C39.8797 29.7982 39.9547 29.6899 40.0575 29.6128C40.1603 29.5357 40.2853 29.4941 40.4137 29.4941C40.5422 29.4941 40.6672 29.5357 40.77 29.6128C40.8728 29.6899 40.9478 29.7982 40.9838 29.9216L43.3588 37.6403C43.3857 37.7151 43.3974 37.7945 43.3931 37.8739C43.3889 37.9533 43.3687 38.031 43.3338 38.1024C43.2989 38.1739 43.25 38.2376 43.1901 38.2898C43.1301 38.3419 43.0603 38.3816 42.9847 38.4062C42.9277 38.4154 42.8695 38.4154 42.8125 38.4062C42.6808 38.4119 42.5509 38.3735 42.4434 38.2972C42.3359 38.2208 42.2569 38.1109 42.2188 37.9847L41.4587 35.4375H39.4163L38.6562 37.9847C38.6106 38.1422 38.5042 38.275 38.3606 38.3541C38.2169 38.4332 38.0478 38.4519 37.8903 38.4062C37.7328 38.3606 37.6 38.2542 37.5209 38.1106C37.4418 37.9669 37.4231 37.7978 37.4688 37.6403ZM32.125 24.1562C32.126 23.7888 32.2407 23.4306 32.4533 23.1308C32.6659 22.831 32.966 22.6044 33.3125 22.4819V49.8953C32.8735 50.0492 32.4697 50.2895 32.125 50.6019V24.1562ZM55.875 53.8438C55.875 54.3162 55.6873 54.7692 55.3533 55.1033C55.0192 55.4373 54.5662 55.625 54.0938 55.625H34.5C33.8701 55.625 33.266 55.3748 32.8206 54.9294C32.3752 54.484 32.125 53.8799 32.125 53.25C32.125 52.6201 32.3752 52.016 32.8206 51.5706C33.266 51.1252 33.8701 50.875 34.5 50.875H54.0938C54.7367 50.8785 55.3628 50.6698 55.875 50.2812V53.8438Z" fill="white"/>
<defs>
<filter id="filter0_bd_8_6724" x="-31.1333" y="-38.1333" width="150.267" height="154.086" filterUnits="userSpaceOnUse" color-interpolation-filters="sRGB">
<feFlood flood-opacity="0" result="BackgroundImageFix"/>
<feGaussianBlur in="BackgroundImageFix" stdDeviation="21.0667"/>
<feComposite in2="SourceAlpha" operator="in" result="effect1_backgroundBlur_8_6724"/>
<feColorMatrix in="SourceAlpha" type="matrix" values="0 0 0 0 0 0 0 0 0 0 0 0 0 0 0 0 0 0 127 0" result="hardAlpha"/>
<feOffset dy="6.4"/>
<feGaussianBlur stdDeviation="5.06667"/>
<feComposite in2="hardAlpha" operator="out"/>
<feColorMatrix type="matrix" values="0 0 0 0 0.0867708 0 0 0 0 0.115317 0 0 0 0 0.141667 0 0 0 0.08 0"/>
<feBlend mode="normal" in2="effect1_backgroundBlur_8_6724" result="effect2_dropShadow_8_6724"/>
<feBlend mode="normal" in="SourceGraphic" in2="effect2_dropShadow_8_6724" result="shape"/>
</filter>
</defs>
</svg>
