<svg width="88" height="91" viewBox="0 0 88 91" fill="none" xmlns="http://www.w3.org/2000/svg">
<g filter="url(#filter0_bd_8_2753)">
<rect x="12" y="5" width="64" height="67.8193" rx="20" fill="url(#paint0_radial_8_2753)" fill-opacity="0.7" shape-rendering="crispEdges"/>
<rect x="11.5" y="4.5" width="65" height="68.8193" rx="20.5" stroke="#EAEAEA" shape-rendering="crispEdges"/>
</g>
<path fill-rule="evenodd" clip-rule="evenodd" d="M44.396 22.375H28.9585C28.3291 22.375 27.7235 22.6252 27.2802 23.0705C26.8329 23.5162 26.5835 24.1202 26.5835 24.75C26.5835 30.4548 26.5835 49.9202 26.5835 55.625C26.5835 56.9368 27.6483 58 28.9585 58H52.7085C54.0187 58 55.0835 56.9368 55.0835 55.625C55.0835 51.6148 55.0835 41.375 55.0835 41.375C55.0835 40.938 54.7272 40.5833 54.2918 40.5833C53.8564 40.5833 53.5002 40.938 53.5002 41.375C53.5002 41.375 53.5002 51.6148 53.5002 55.625C53.5002 56.0624 53.1479 56.4167 52.7085 56.4167H28.9585C28.5191 56.4167 28.1668 56.0624 28.1668 55.625C28.1668 49.9202 28.1668 30.4548 28.1668 24.75C28.1668 24.5402 28.25 24.3387 28.4004 24.1903C28.5469 24.0419 28.7487 23.9583 28.9585 23.9583H44.396C44.8314 23.9583 45.1877 23.6037 45.1877 23.1667C45.1877 22.7297 44.8314 22.375 44.396 22.375ZM32.7189 49.2917H48.9481C49.3835 49.2917 49.7397 48.937 49.7397 48.5C49.7397 48.063 49.3835 47.7083 48.9481 47.7083H32.7189C32.2835 47.7083 31.9272 48.063 31.9272 48.5C31.9272 48.937 32.2835 49.2917 32.7189 49.2917ZM32.7189 44.9375H48.9481C49.3835 44.9375 49.7397 44.5828 49.7397 44.1458C49.7397 43.7088 49.3835 43.3542 48.9481 43.3542H32.7189C32.2835 43.3542 31.9272 43.7088 31.9272 44.1458C31.9272 44.5828 32.2835 44.9375 32.7189 44.9375ZM40.0418 31.4792H32.9168C32.4814 31.4792 32.1252 31.8338 32.1252 32.2708C32.1252 32.7078 32.4814 33.0625 32.9168 33.0625H35.6877V40.9792C35.6877 41.4162 36.0439 41.7708 36.4793 41.7708C36.9147 41.7708 37.271 41.4162 37.271 40.9792V33.0625H40.0418C40.4772 33.0625 40.8335 32.7078 40.8335 32.2708C40.8335 31.8338 40.4772 31.4792 40.0418 31.4792ZM41.0314 40.9792H48.9481C49.3835 40.9792 49.7397 40.6245 49.7397 40.1875C49.7397 39.7505 49.3835 39.3958 48.9481 39.3958H41.0314C40.596 39.3958 40.2397 39.7505 40.2397 40.1875C40.2397 40.6245 40.596 40.9792 41.0314 40.9792ZM57.3952 30.8086C57.2804 30.4979 56.9835 30.2917 56.6549 30.2917C56.3224 30.2917 56.0256 30.4979 55.9108 30.8086L54.9687 33.3566L52.4195 34.2991C52.1108 34.4143 51.9049 34.7104 51.9049 35.0417C51.9049 35.373 52.1108 35.6691 52.4195 35.7843L54.9687 36.7267L55.9108 39.2747C56.0256 39.5854 56.3224 39.7917 56.6549 39.7917C56.9835 39.7917 57.2804 39.5854 57.3952 39.2747L58.3372 36.7267L60.8864 35.7843C61.1991 35.6691 61.4049 35.373 61.4049 35.0417C61.4049 34.7104 61.1991 34.4143 60.8864 34.2991L58.3372 33.3566L57.3952 30.8086ZM43.2085 37.0208H46.3752C46.8106 37.0208 47.1668 36.6662 47.1668 36.2292C47.1668 35.7922 46.8106 35.4375 46.3752 35.4375H43.2085C42.7731 35.4375 42.4168 35.7922 42.4168 36.2292C42.4168 36.6662 42.7731 37.0208 43.2085 37.0208ZM56.6549 33.3645L56.9796 34.2472C57.0587 34.4641 57.2329 34.6348 57.4466 34.7151L58.3293 35.0417L57.4466 35.3682C57.2329 35.4486 57.0587 35.6192 56.9796 35.8361L56.6549 36.7188L56.3264 35.8361C56.2472 35.6192 56.077 35.4486 55.8593 35.3682L54.9766 35.0417L55.8593 34.7151C56.077 34.6348 56.2472 34.4641 56.3264 34.2472L56.6549 33.3645ZM50.2859 20.517C50.1712 20.2062 49.8743 20 49.5418 20C49.2093 20 48.9125 20.2062 48.7977 20.517L46.8937 25.6652L41.7479 27.5699C41.4352 27.6851 41.2293 27.9812 41.2293 28.3125C41.2293 28.6438 41.4352 28.9399 41.7479 29.0551L46.8937 30.9598L48.7977 36.108C48.9125 36.4188 49.2093 36.625 49.5418 36.625C49.8743 36.625 50.1712 36.4188 50.2859 36.108L52.1899 30.9598L57.3358 29.0551C57.6485 28.9399 57.8543 28.6438 57.8543 28.3125C57.8543 27.9812 57.6485 27.6851 57.3358 27.5699L52.1899 25.6652L50.2859 20.517ZM49.5418 23.0729L50.8322 26.5558C50.9114 26.7727 51.0816 26.9433 51.2993 27.0237L54.7827 28.3125L51.2993 29.6013C51.0816 29.6817 50.9114 29.8523 50.8322 30.0692L49.5418 33.5521L48.2514 30.0692C48.1722 29.8523 48.0021 29.6817 47.7844 29.6013L44.301 28.3125L47.7844 27.0237C48.0021 26.9433 48.1722 26.7727 48.2514 26.5558L49.5418 23.0729ZM43.2085 33.0625H44.7918C45.2272 33.0625 45.5835 32.7078 45.5835 32.2708C45.5835 31.8338 45.2272 31.4792 44.7918 31.4792H43.2085C42.7731 31.4792 42.4168 31.8338 42.4168 32.2708C42.4168 32.7078 42.7731 33.0625 43.2085 33.0625ZM55.8752 22.7708H55.0835C54.6481 22.7708 54.2918 23.1255 54.2918 23.5625C54.2918 23.9995 54.6481 24.3542 55.0835 24.3542H55.8752V25.1458C55.8752 25.5828 56.2314 25.9375 56.6668 25.9375C57.1022 25.9375 57.4585 25.5828 57.4585 25.1458V24.3542H58.2502C58.6856 24.3542 59.0418 23.9995 59.0418 23.5625C59.0418 23.1255 58.6856 22.7708 58.2502 22.7708H57.4585V21.9792C57.4585 21.5422 57.1022 21.1875 56.6668 21.1875C56.2314 21.1875 55.8752 21.5422 55.8752 21.9792V22.7708Z" fill="#034737"/>
<defs>
<filter id="filter0_bd_8_2753" x="-31.1333" y="-38.1333" width="150.267" height="154.086" filterUnits="userSpaceOnUse" color-interpolation-filters="sRGB">
<feFlood flood-opacity="0" result="BackgroundImageFix"/>
<feGaussianBlur in="BackgroundImageFix" stdDeviation="21.0667"/>
<feComposite in2="SourceAlpha" operator="in" result="effect1_backgroundBlur_8_2753"/>
<feColorMatrix in="SourceAlpha" type="matrix" values="0 0 0 0 0 0 0 0 0 0 0 0 0 0 0 0 0 0 127 0" result="hardAlpha"/>
<feOffset dy="6.4"/>
<feGaussianBlur stdDeviation="5.06667"/>
<feComposite in2="hardAlpha" operator="out"/>
<feColorMatrix type="matrix" values="0 0 0 0 0.0867708 0 0 0 0 0.115317 0 0 0 0 0.141667 0 0 0 0.08 0"/>
<feBlend mode="normal" in2="effect1_backgroundBlur_8_2753" result="effect2_dropShadow_8_2753"/>
<feBlend mode="normal" in="SourceGraphic" in2="effect2_dropShadow_8_2753" result="shape"/>
</filter>
<radialGradient id="paint0_radial_8_2753" cx="0" cy="0" r="1" gradientUnits="userSpaceOnUse" gradientTransform="translate(44 38.9097) rotate(90) scale(33.9097 32)">
<stop stopColor="white"/>
<stop offset="1" stopColor="white"/>
</radialGradient>
</defs>
</svg>
