<svg width="88" height="91" viewBox="0 0 88 91" fill="none" xmlns="http://www.w3.org/2000/svg">
<g filter="url(#filter0_bd_8_7927)">
<rect x="12" y="5" width="64" height="67.8193" rx="20" fill="#CC63D4"/>
<rect x="11.5" y="4.5" width="65" height="68.8193" rx="20.5" stroke="#EAEAEA"/>
</g>
<path d="M58.3273 19.791H28.6208C27.0353 19.791 25.7002 21.1261 25.7002 22.7116V58.0089H54.3219V36.1463V24.2971C54.2385 21.9606 56.0742 20.0414 58.3273 19.791ZM42.9733 49.4141H30.2897V46.9107H42.9733V49.4141ZM46.0608 40.1516H30.2062V37.6483H46.0608V40.1516ZM47.8132 30.8892H30.2897V28.3859H47.8966V30.8892H47.8132Z" fill="white"/>
<path d="M58.411 19.791H57.9103C55.407 19.791 53.4043 21.7937 53.4043 24.2971V36.1463H63.0005V24.2971C62.917 21.7937 60.9144 19.791 58.411 19.791ZM60.9978 34.1436H55.2401V25.3818C55.2401 23.4626 56.4918 21.9606 57.9103 21.9606H58.2441C59.7461 21.9606 60.9144 23.4626 60.9144 25.3818V34.1436H60.9978Z" fill="white"/>
<defs>
<filter id="filter0_bd_8_7927" x="-31.1333" y="-38.1333" width="150.267" height="154.086" filterUnits="userSpaceOnUse" color-interpolation-filters="sRGB">
<feFlood flood-opacity="0" result="BackgroundImageFix"/>
<feGaussianBlur in="BackgroundImageFix" stdDeviation="21.0667"/>
<feComposite in2="SourceAlpha" operator="in" result="effect1_backgroundBlur_8_7927"/>
<feColorMatrix in="SourceAlpha" type="matrix" values="0 0 0 0 0 0 0 0 0 0 0 0 0 0 0 0 0 0 127 0" result="hardAlpha"/>
<feOffset dy="6.4"/>
<feGaussianBlur stdDeviation="5.06667"/>
<feComposite in2="hardAlpha" operator="out"/>
<feColorMatrix type="matrix" values="0 0 0 0 0.0867708 0 0 0 0 0.115317 0 0 0 0 0.141667 0 0 0 0.08 0"/>
<feBlend mode="normal" in2="effect1_backgroundBlur_8_7927" result="effect2_dropShadow_8_7927"/>
<feBlend mode="normal" in="SourceGraphic" in2="effect2_dropShadow_8_7927" result="shape"/>
</filter>
</defs>
</svg>
