<svg width="88" height="91" viewBox="0 0 88 91" fill="none" xmlns="http://www.w3.org/2000/svg">
<g filter="url(#filter0_bd_8_7725)">
<rect x="12" y="5" width="64" height="67.8193" rx="20" fill="#7243D5"/>
<rect x="11.5" y="4.5" width="65" height="68.8193" rx="20.5" stroke="#EAEAEA"/>
</g>
<path d="M52.2922 21C52.287 21 52.2817 21 52.2765 21C52.2115 21.0025 52.1468 21.0095 52.0829 21.021H27.3921C27.2087 21.0203 27.0269 21.0559 26.8573 21.1256C26.6878 21.1954 26.5338 21.298 26.4043 21.4275C26.2749 21.5569 26.1725 21.7107 26.1031 21.8799C26.0337 22.0491 25.9986 22.2303 26 22.413V51.4631C26 54.5037 28.4911 57 31.5369 57H56.4579C56.5512 56.9988 56.6441 56.9883 56.7353 56.9686C56.7388 56.9686 56.7422 56.9686 56.7457 56.9686C58.1593 56.8938 59.4908 56.2815 60.4676 55.257C61.4444 54.2325 61.9926 52.8734 62 51.4579V40.3947C62.0014 40.2124 61.9665 40.0316 61.8974 39.8628C61.8284 39.6939 61.7264 39.5404 61.5975 39.411C61.4686 39.2816 61.3152 39.1789 61.1463 39.1088C60.9774 39.0387 60.7962 39.0026 60.6132 39.0026H53.6947V22.413C53.6989 22.2281 53.6658 22.0442 53.5974 21.8722C53.5289 21.7003 53.4265 21.5438 53.2962 21.412C53.1659 21.2802 53.0103 21.1758 52.8388 21.1051C52.6672 21.0343 52.4779 20.9986 52.2922 21ZM32.9289 29.321H46.7606C47.1298 29.321 47.4839 29.4671 47.7449 29.7272C48.006 29.9873 48.1527 30.34 48.1527 30.7078C48.1527 31.0756 48.006 31.4284 47.7449 31.6885C47.4839 31.9485 47.1298 32.0947 46.7606 32.0947H32.9289C32.5597 32.0947 32.2057 31.9485 31.9446 31.6885C31.6835 31.4284 31.5369 31.0756 31.5369 30.7078C31.5369 30.34 31.6835 29.9873 31.9446 29.7272C32.2057 29.4671 32.5597 29.321 32.9289 29.321ZM32.9289 34.8578H46.7606C47.1298 34.8578 47.4839 35.004 47.7449 35.264C48.006 35.5241 48.1527 35.8769 48.1527 36.2447C48.1527 36.6125 48.006 36.9652 47.7449 37.2253C47.4839 37.4854 47.1298 37.6315 46.7606 37.6315H32.9289C32.5597 37.6315 32.2057 37.4854 31.9446 37.2253C31.6835 36.9652 31.5369 36.6125 31.5369 36.2447C31.5369 35.8769 31.6835 35.5241 31.9446 35.264C32.2057 35.004 32.5597 34.8578 32.9289 34.8578ZM32.9237 40.3947C32.922 40.3947 32.9255 40.3947 32.9237 40.3947H46.7606C47.1284 40.3947 47.4811 40.5408 47.7412 40.8009C48.0013 41.061 48.1474 41.4137 48.1474 41.7815C48.1474 42.1493 48.0013 42.5021 47.7412 42.7621C47.4811 43.0222 47.1284 43.1683 46.7606 43.1683H32.9289C32.5611 43.1871 32.2009 43.0589 31.9276 42.8121C31.6543 42.5653 31.4902 42.22 31.4715 41.8522C31.4527 41.4844 31.5809 41.1242 31.8277 40.8508C32.0745 40.5775 32.4198 40.4134 32.7876 40.3947C32.833 40.3925 32.8784 40.3925 32.9237 40.3947ZM53.6947 41.7763H59.2316V51.4684C59.2316 53.0279 58.0174 54.242 56.4579 54.242C56.093 54.2463 55.7309 54.1773 55.3931 54.0393C55.0552 53.9013 54.7484 53.697 54.4909 53.4384C54.2333 53.1799 54.0301 52.8723 53.8934 52.534C53.7567 52.1956 53.6891 51.8333 53.6947 51.4684V41.7763ZM32.9237 45.9315C32.922 45.9315 32.9255 45.9315 32.9237 45.9315H46.7606C47.1298 45.9315 47.4839 46.0776 47.7449 46.3377C48.006 46.5978 48.1527 46.9505 48.1527 47.3184C48.1527 47.6862 48.006 48.0389 47.7449 48.299C47.4839 48.5591 47.1298 48.7052 46.7606 48.7052H32.9289C32.5611 48.7239 32.2009 48.5958 31.9276 48.3489C31.6543 48.1021 31.4902 47.7568 31.4715 47.389C31.4527 47.0212 31.5809 46.661 31.8277 46.3877C32.0745 46.1143 32.4198 45.9503 32.7876 45.9315C32.833 45.9293 32.8784 45.9293 32.9237 45.9315Z" fill="white"/>
<defs>
<filter id="filter0_bd_8_7725" x="-31.1333" y="-38.1333" width="150.267" height="154.086" filterUnits="userSpaceOnUse" color-interpolation-filters="sRGB">
<feFlood flood-opacity="0" result="BackgroundImageFix"/>
<feGaussianBlur in="BackgroundImageFix" stdDeviation="21.0667"/>
<feComposite in2="SourceAlpha" operator="in" result="effect1_backgroundBlur_8_7725"/>
<feColorMatrix in="SourceAlpha" type="matrix" values="0 0 0 0 0 0 0 0 0 0 0 0 0 0 0 0 0 0 127 0" result="hardAlpha"/>
<feOffset dy="6.4"/>
<feGaussianBlur stdDeviation="5.06667"/>
<feComposite in2="hardAlpha" operator="out"/>
<feColorMatrix type="matrix" values="0 0 0 0 0.0867708 0 0 0 0 0.115317 0 0 0 0 0.141667 0 0 0 0.08 0"/>
<feBlend mode="normal" in2="effect1_backgroundBlur_8_7725" result="effect2_dropShadow_8_7725"/>
<feBlend mode="normal" in="SourceGraphic" in2="effect2_dropShadow_8_7725" result="shape"/>
</filter>
</defs>
</svg>
