<svg width="87" height="91" viewBox="0 0 87 91" fill="none" xmlns="http://www.w3.org/2000/svg">
<g filter="url(#filter0_bd_8_3183)">
<rect x="11.5586" y="5" width="64" height="67.8193" rx="20" fill="url(#paint0_radial_8_3183)" fill-opacity="0.7" shape-rendering="crispEdges"/>
<rect x="11.0586" y="4.5" width="65" height="68.8193" rx="20.5" stroke="#EAEAEA" shape-rendering="crispEdges"/>
</g>
<path fill-rule="evenodd" clip-rule="evenodd" d="M30.2108 39.2338C30.2108 38.9261 30.4595 38.6774 30.7672 38.6774C31.0749 38.6774 31.3236 38.9261 31.3236 39.2338C31.3236 39.4044 31.3937 39.5606 31.5053 39.6722C31.6169 39.7838 31.7716 39.854 31.9437 39.854C32.1127 39.854 32.2658 39.7854 32.3774 39.6738C32.4921 39.559 32.5639 39.4012 32.5655 39.2291C32.5703 38.8401 32.1988 38.73 31.821 38.6185C31.0382 38.3857 30.2411 38.1498 30.214 36.8919C30.2124 36.817 30.2108 36.9111 30.2108 36.8553C30.2108 36.3866 30.4037 35.9641 30.7146 35.6564C30.9011 35.4715 31.1307 35.328 31.3874 35.2419V34.8529C31.3874 34.5452 31.636 34.2965 31.9437 34.2965C32.2514 34.2965 32.5001 34.5452 32.5001 34.8529V35.2403C32.7552 35.3264 32.9832 35.4699 33.1681 35.6564C33.4822 35.9705 33.6751 36.4025 33.6751 36.8824C33.6751 37.19 33.4264 37.4387 33.1187 37.4387C32.811 37.4387 32.5623 37.19 32.5623 36.8824C32.5623 36.7118 32.4921 36.5555 32.3805 36.444C32.2689 36.3324 32.1143 36.2622 31.9421 36.2622H31.9198L31.9071 36.2606C31.7477 36.2686 31.6026 36.3371 31.4958 36.444C31.389 36.5508 31.322 36.6959 31.322 36.8569C31.322 36.9063 31.3204 36.868 31.3204 36.8568V36.8712C31.33 37.316 31.7349 37.4355 32.1319 37.5535C32.9162 37.7863 33.6862 38.0143 33.6719 39.2386C33.6671 39.7185 33.4726 40.1505 33.1617 40.4614C32.9768 40.6463 32.7504 40.7898 32.4969 40.8759V41.2633C32.4969 41.5709 32.2482 41.8196 31.9405 41.8196C31.6329 41.8196 31.3842 41.5709 31.3842 41.2633V40.8759C31.1291 40.7898 30.9011 40.6463 30.7162 40.4598C30.4021 40.1457 30.2092 39.7137 30.2092 39.2338L30.2108 39.2338ZM54.1033 42.0046C54.0427 41.944 53.9598 41.9073 53.869 41.9073C53.7781 41.9073 53.6936 41.944 53.6346 42.0046C53.574 42.0652 53.5374 42.1481 53.5374 42.2389C53.5374 42.3298 53.574 42.4143 53.6346 42.4733C53.6952 42.5339 53.7781 42.5705 53.869 42.5705C53.9598 42.5705 54.0443 42.5339 54.1033 42.4733C54.1639 42.4127 54.2006 42.3298 54.2006 42.2389C54.2006 42.1481 54.1639 42.0636 54.1033 42.0046ZM53.869 40.7946C54.2675 40.7946 54.6294 40.9556 54.8909 41.2171C55.1523 41.4786 55.3133 41.8404 55.3133 42.239C55.3133 42.6375 55.1523 42.9994 54.8909 43.2609C54.6294 43.5223 54.2675 43.6833 53.869 43.6833C53.4704 43.6833 53.1085 43.5223 52.8471 43.2609C52.5856 42.9994 52.4246 42.6375 52.4246 42.239C52.4246 41.8404 52.5856 41.4785 52.8471 41.2171C53.1085 40.9556 53.4704 40.7946 53.869 40.7946ZM47.8382 42.0046C47.7776 41.944 47.6947 41.9073 47.6038 41.9073C47.513 41.9073 47.4285 41.944 47.3695 42.0046C47.3089 42.0652 47.2722 42.1481 47.2722 42.2389C47.2722 42.3298 47.3089 42.4143 47.3695 42.4733C47.4301 42.5339 47.513 42.5705 47.6038 42.5705C47.6947 42.5705 47.7792 42.5339 47.8382 42.4733C47.8988 42.4127 47.9354 42.3298 47.9354 42.2389C47.9354 42.1481 47.8988 42.0636 47.8382 42.0046ZM47.6038 40.7946C48.0024 40.7946 48.3643 40.9556 48.6257 41.2171C48.8872 41.4785 49.0482 41.8404 49.0482 42.239C49.0482 42.6375 48.8872 42.9994 48.6257 43.2609C48.3643 43.5223 48.0024 43.6833 47.6038 43.6833C47.2053 43.6833 46.8434 43.5223 46.582 43.2609C46.3205 42.9994 46.1595 42.6375 46.1595 42.239C46.1595 41.8404 46.3205 41.4785 46.582 41.2171C46.8434 40.9556 47.2053 40.7946 47.6038 40.7946ZM35.3076 34.6953C36.1685 35.5561 36.701 36.7454 36.701 38.0591C36.701 39.3727 36.1685 40.562 35.3076 41.4229C34.4467 42.2837 33.2575 42.8162 31.9438 42.8162C30.6302 42.8162 29.4409 42.2837 28.58 41.4229C27.7191 40.562 27.1867 39.3727 27.1867 38.0591C27.1867 36.7454 27.7191 35.5561 28.58 34.6953C29.4409 33.8344 30.6302 33.3019 31.9438 33.3019C33.2575 33.3019 34.4467 33.8344 35.3076 34.6953ZM55.4234 54.1589H35.3378C35.2804 54.1589 35.2262 54.1828 35.188 54.221C35.1497 54.2593 35.1258 54.3135 35.1258 54.3709V55.6989C35.1258 55.7563 35.1497 55.8105 35.188 55.8487C35.2262 55.887 35.2804 55.9109 35.3378 55.9109H55.4234C55.4808 55.9109 55.535 55.887 55.5733 55.8487C55.6115 55.8105 55.6354 55.7563 55.6354 55.6989V54.3709C55.6354 54.3135 55.6115 54.2593 55.5733 54.221C55.535 54.1828 55.4808 54.1589 55.4234 54.1589ZM32.3296 47.4502C32.0219 47.4502 31.7732 47.2015 31.7732 46.8938C31.7732 46.5861 32.0219 46.3374 32.3296 46.3374H32.3503C32.658 46.3374 32.9067 46.5861 32.9067 46.8938C32.9067 47.2015 32.658 47.4502 32.3503 47.4502H32.3296ZM49.3845 53.0459V49.2118H41.38V53.0459H49.3845ZM49.9409 48.0991H49.9424H60.8119C60.8693 48.0991 60.9203 48.0784 60.9554 48.0449C60.9825 48.0194 61 47.9843 61 47.9477V45.6935H30.278V47.9477C30.278 47.9843 30.2956 48.0194 30.3227 48.0449C30.3577 48.0784 30.4088 48.0991 30.4662 48.0991H40.8238H40.8254H49.9409ZM47.0585 34.9214H45.4308L45.7513 36.5937C45.7863 36.7723 45.8453 36.9556 45.933 37.0672C45.9505 37.0895 45.9617 37.1039 45.9633 37.1039H47.4698L47.0585 34.9214ZM49.7575 34.9214H48.1888L48.6001 37.1039H49.7575L49.7575 34.9214ZM52.27 34.9214H50.8703V37.1039H51.8603L52.2716 34.9214H52.27ZM55.2113 34.9214H53.4003L52.989 37.1039H54.6517C54.6517 37.1039 54.6613 37.0895 54.6772 37.0688C54.7681 36.954 54.8287 36.7611 54.8685 36.5762L55.2129 34.9198L55.2113 34.9214ZM53.6091 33.8086H55.4425L55.8299 31.9402L53.971 31.8828L53.6091 33.8086ZM50.8703 33.8086H52.4788L52.8471 31.8493L50.8686 31.7887V33.8086L50.8703 33.8086ZM47.98 33.8086H49.7575V31.7536L47.5798 31.6867L47.9784 33.8086L47.98 33.8086ZM45.2172 33.8086H46.8497L46.4447 31.6532L44.7931 31.6022L45.2172 33.8086ZM55.5814 39.3166C55.8891 39.3166 56.1378 39.5653 56.1378 39.8729C56.1378 40.1806 55.8891 40.4293 55.5814 40.4293H46.4114C45.6206 40.4293 45.1121 39.9893 44.8857 39.4266C44.8012 39.2161 44.7582 38.9898 44.7582 38.7682C44.7582 38.5466 44.8012 38.3202 44.8857 38.1097C44.9335 37.9886 44.9957 37.8754 45.069 37.7686L45.0595 37.7558C44.849 37.488 44.7231 37.1309 44.6609 36.8025L43.5928 31.2435C43.5625 31.1734 43.5465 31.0953 43.5481 31.014L43.1352 28.865L40.8236 27.5067C40.559 27.3521 40.4713 27.0125 40.6259 26.7478C40.7806 26.4832 41.1201 26.3955 41.3848 26.5502L43.9148 28.036C44.0583 28.1204 44.1491 28.2591 44.1794 28.4106H44.181L44.5796 30.4847L56.4995 30.8497C56.5394 30.8481 56.5808 30.8529 56.6223 30.8609C56.922 30.9231 57.1149 31.2164 57.0527 31.5177L56.4469 34.4367C56.4437 34.4638 56.4373 34.4909 56.431 34.5164L55.9559 36.8025C55.8889 37.1246 55.763 37.4817 55.5525 37.7511C55.3341 38.0301 55.0408 38.2166 54.6534 38.2166H50.3155H50.3139H46.4129C46.1498 38.2166 45.9856 38.3489 45.9171 38.5195C45.8868 38.5944 45.8724 38.6773 45.8724 38.765C45.8724 38.8527 45.8868 38.9372 45.9171 39.0105C45.9856 39.1811 46.1498 39.3134 46.4129 39.3134H55.5829L55.5814 39.3166ZM32.8063 23.9354H27V27.8779H32.8063C33.114 27.8779 33.3627 28.1266 33.3627 28.4343V29.8101L38.276 25.9058L37.1011 24.9716C37.082 24.9589 37.0644 24.9445 37.0469 24.9286L33.3627 22V23.3758C33.3627 23.6835 33.114 23.9322 32.8063 23.9322L32.8063 23.9354ZM39.0126 25.0737H60.8118C60.8692 25.0737 60.9202 25.0944 60.9553 25.1279C60.9824 25.1534 61 25.1884 61 25.2251V44.5806H30.278V43.6878C30.8073 43.844 31.3653 43.9285 31.9455 43.9285C33.5669 43.9285 35.0335 43.2717 36.0969 42.2084C37.1587 41.1466 37.817 39.6784 37.817 38.057C37.817 36.4357 37.1602 34.969 36.0969 33.9056C35.0351 32.8438 33.5669 32.1855 31.9455 32.1855C31.3668 32.1855 30.8072 32.27 30.278 32.4262V28.9906H32.25V30.9627H32.2516C32.2516 31.0838 32.2915 31.2066 32.3728 31.3086C32.5641 31.5493 32.9132 31.5892 33.1524 31.3979L39.5068 26.3474C39.5418 26.3203 39.5753 26.2884 39.604 26.2518C39.7953 26.0111 39.7555 25.6619 39.5147 25.4722L39.0126 25.0737Z" fill="#034737"/>
<defs>
<filter id="filter0_bd_8_3183" x="-31.5747" y="-38.1333" width="150.267" height="154.086" filterUnits="userSpaceOnUse" color-interpolation-filters="sRGB">
<feFlood flood-opacity="0" result="BackgroundImageFix"/>
<feGaussianBlur in="BackgroundImageFix" stdDeviation="21.0667"/>
<feComposite in2="SourceAlpha" operator="in" result="effect1_backgroundBlur_8_3183"/>
<feColorMatrix in="SourceAlpha" type="matrix" values="0 0 0 0 0 0 0 0 0 0 0 0 0 0 0 0 0 0 127 0" result="hardAlpha"/>
<feOffset dy="6.4"/>
<feGaussianBlur stdDeviation="5.06667"/>
<feComposite in2="hardAlpha" operator="out"/>
<feColorMatrix type="matrix" values="0 0 0 0 0.0867708 0 0 0 0 0.115317 0 0 0 0 0.141667 0 0 0 0.08 0"/>
<feBlend mode="normal" in2="effect1_backgroundBlur_8_3183" result="effect2_dropShadow_8_3183"/>
<feBlend mode="normal" in="SourceGraphic" in2="effect2_dropShadow_8_3183" result="shape"/>
</filter>
<radialGradient id="paint0_radial_8_3183" cx="0" cy="0" r="1" gradientUnits="userSpaceOnUse" gradientTransform="translate(43.5586 38.9097) rotate(90) scale(33.9097 32)">
<stop stopColor="white"/>
<stop offset="1" stopColor="white"/>
</radialGradient>
</defs>
</svg>
