<svg width="88" height="91" viewBox="0 0 88 91" fill="none" xmlns="http://www.w3.org/2000/svg">
<g filter="url(#filter0_bd_8_2424)">
<rect x="12" y="5" width="64" height="67.8193" rx="20" fill="url(#paint0_radial_8_2424)" fill-opacity="0.7" shape-rendering="crispEdges"/>
<rect x="11.5" y="4.5" width="65" height="68.8193" rx="20.5" stroke="#EAEAEA" shape-rendering="crispEdges"/>
</g>
<g clip-path="url(#clip0_8_2424)">
<path fill-rule="evenodd" clip-rule="evenodd" d="M34.071 55.99C33.9336 55.9721 33.8007 55.9329 33.6772 55.8758H33.6766C33.654 55.8645 33.6307 55.8532 33.6082 55.8413H33.6075C33.5909 55.832 33.5736 55.8227 33.557 55.8127H33.5564C33.5471 55.8074 33.5378 55.8014 33.5285 55.7955C33.468 55.7583 33.4109 55.7164 33.3571 55.67C33.2947 55.6168 33.2376 55.5577 33.1858 55.4933V55.4927H33.1852C33.134 55.4296 33.0882 55.3605 33.049 55.2881V55.2875H33.0484C33.0344 55.2616 33.0211 55.235 33.0085 55.2078V55.2071C32.9839 55.154 32.9634 55.0995 32.9461 55.0424V55.0418H32.9454C32.9414 55.0291 32.9381 55.0159 32.9341 55.0032V55.0019C32.9282 54.9793 32.9222 54.9561 32.9175 54.9335V54.9328C32.9155 54.9242 32.9135 54.9149 32.9116 54.9056V54.9043C32.9069 54.8824 32.9036 54.8605 32.9003 54.8379V54.8359H32.8996C32.8976 54.822 32.8963 54.8073 32.8943 54.7934V54.7901C32.8916 54.7702 32.8903 54.7502 32.889 54.7296V54.7217H32.8883L32.8863 54.6805L32.883 54.5736L32.8199 52.5402L32.7927 51.655C32.7841 51.2805 32.6141 50.9319 32.3378 50.6855C32.3119 50.6623 32.286 50.639 32.2601 50.6151L32.2548 50.6105V50.6091H32.2541C32.2355 50.5925 32.2163 50.5753 32.1977 50.558H32.197L32.1917 50.5534V50.552H32.1911L32.1864 50.548V50.5467H32.1844L32.1233 50.4896L32.1173 50.4843V50.4836L32.112 50.479V50.4783H32.1107C32.0463 50.4179 31.9819 50.3568 31.9175 50.2957V50.295L31.9121 50.2904V50.2897H31.9115L31.9062 50.2844V50.2838H31.9055L31.9009 50.2791V50.2784H31.8995L31.8949 50.2738V50.2725H31.8936L31.8889 50.2685V50.2665H31.8876L31.8836 50.2632V50.2612H31.8816C31.7428 50.1266 31.6064 49.9896 31.4725 49.8501H31.4719L31.4666 49.8441C31.434 49.8103 31.4015 49.7764 31.3696 49.7419V49.7412H31.3689L31.3636 49.7359L31.3583 49.7299H31.3577L31.2952 49.6635V49.6615H31.2932L31.2893 49.6569V49.6555H31.2879L31.2839 49.6509V49.6496H31.2833L31.278 49.6449V49.6443C31.2567 49.6217 31.2361 49.5991 31.2149 49.5765V49.5759L31.2096 49.5699C31.173 49.53 31.1372 49.4902 31.1007 49.4504C31.0874 49.4351 31.0741 49.4205 31.0608 49.4059V49.4045H31.0595L31.0555 49.3992V49.3986H31.0548L31.0495 49.3932V49.3926L31.0157 49.3547V49.3527H31.0137L31.0097 49.3481V49.3474H31.009L30.9698 49.3023V49.3016H30.9692C30.9559 49.2863 30.9426 49.2717 30.9293 49.2564V49.2558L30.8556 49.1701H30.855C30.8457 49.1588 30.8364 49.1475 30.8271 49.1369V49.1356H30.8264L30.7925 49.0964V49.0957H30.7919C30.7826 49.0851 30.7733 49.0738 30.764 49.0625V49.0619H30.7633L30.758 49.0559L30.7354 49.0287V49.0273H30.7341L30.7294 49.022V49.0214C30.7221 49.0127 30.7142 49.0034 30.7069 48.9941V48.9928H30.7062L30.6783 48.9596V48.9589H30.6777C30.6358 48.9078 30.594 48.8567 30.5528 48.8055V48.8049H30.5521L30.5296 48.777V48.7763H30.5289C30.5216 48.767 30.5143 48.7577 30.507 48.7491V48.7478H30.5057L30.501 48.7418L30.4844 48.7205V48.7192H30.4831L30.4612 48.6913V48.6907H30.4605L30.4386 48.6621H30.4379C30.4173 48.6355 30.3961 48.609 30.3755 48.5818C30.3562 48.5572 30.3377 48.5326 30.3184 48.5074L30.3011 48.4855V48.4848L30.2845 48.4629V48.4616H30.2839L30.2673 48.4403V48.439H30.2659L30.25 48.4177V48.4164H30.2487L30.2327 48.3952V48.3932H30.2314L30.2274 48.3879H30.2268L30.2155 48.3726V48.3706H30.2141L30.1989 48.3493V48.348H30.1975C30.1537 48.2889 30.1099 48.2298 30.0674 48.1707L30.0388 48.1315V48.1309H30.0382C30.0289 48.1176 30.0196 48.105 30.0103 48.0917V48.0904H30.0096C30.0036 48.083 29.9983 48.0757 29.993 48.0678L29.9817 48.0518V48.0505H29.9804L29.9532 48.0113V48.0107H29.9525C29.9392 47.9921 29.9259 47.9735 29.9133 47.9542V47.9536H29.9127C29.9034 47.9403 29.8934 47.927 29.8848 47.9137H29.8841C29.8635 47.8832 29.8423 47.8526 29.8217 47.8221L29.8104 47.8055V47.8048H29.8097L29.7984 47.7889V47.7882H29.7978L29.7871 47.7723V47.7709H29.7865L29.7759 47.7557V47.7537H29.7745C29.7174 47.6687 29.6603 47.583 29.6045 47.4973V47.4967L29.5647 47.4349V47.4336H29.564L29.5534 47.4177V47.417H29.5527L29.5414 47.3997C29.5361 47.3904 29.5302 47.3818 29.5248 47.3732V47.3712H29.5235L29.5129 47.3552V47.3539H29.5122L29.5016 47.3366C29.4963 47.3273 29.4903 47.3187 29.4843 47.3094V47.3081H29.4837L29.473 47.2915V47.2908L29.4445 47.2457V47.245C29.4139 47.1959 29.3834 47.1467 29.3535 47.0969L29.3362 47.069V47.0684H29.3356C29.3303 47.0591 29.3243 47.0498 29.319 47.0405V47.0398H29.3183C29.313 47.0305 29.307 47.0212 29.3017 47.0126V47.0113H29.3011C29.2957 47.002 29.2904 46.9927 29.2844 46.9834V46.9827L29.2678 46.9541H29.2672C29.2346 46.899 29.2028 46.8439 29.1702 46.7881C29.1629 46.7748 29.155 46.7616 29.1477 46.7483L29.1244 46.7084L29.1191 46.6985V46.6971H29.1184C29.1131 46.6879 29.1071 46.6779 29.1018 46.6686L29.0959 46.6586V46.6573H29.0952L29.0733 46.6175V46.6168L29.0673 46.6075V46.6055H29.0666L29.0447 46.5663V46.5657C29.0348 46.5484 29.0255 46.5318 29.0162 46.5145V46.5139C28.9929 46.4727 28.9703 46.4309 28.9478 46.389V46.3884L28.9418 46.3784V46.3771H28.9411C28.9305 46.3565 28.9186 46.3352 28.9079 46.3146L28.9019 46.304V46.3027H28.9013L28.8966 46.2934V46.2914H28.8953L28.8907 46.2828V46.2801H28.8893C28.8761 46.2555 28.8634 46.2303 28.8508 46.2057L28.8448 46.1951V46.1945L28.8395 46.1838V46.1832H28.8389C28.8003 46.1088 28.7625 46.0351 28.7246 45.96L28.7193 45.9488L28.7134 45.9375L28.708 45.9262H28.7074L28.7021 45.9149V45.9142L28.6961 45.9036V45.9029L28.6908 45.8916C28.6463 45.8013 28.6025 45.7104 28.5593 45.6187V45.6174H28.5586L28.5533 45.6068V45.6061C28.544 45.5862 28.5341 45.5662 28.5248 45.5463V45.543H28.5234L28.5194 45.5344V45.5317H28.5181L28.5135 45.5218V45.5204H28.5128L28.5082 45.5091C28.5002 45.4925 28.4929 45.4759 28.4849 45.4587V45.4573H28.4843L28.4796 45.4461C28.4696 45.4255 28.4603 45.4049 28.4511 45.3836H28.4504C28.4351 45.3491 28.4198 45.3152 28.4052 45.2814V45.2807H28.4046C28.3973 45.2634 28.39 45.2462 28.382 45.2296V45.2289C28.3767 45.2163 28.3707 45.203 28.3654 45.1904V45.1891H28.3647C28.3594 45.1764 28.3534 45.1638 28.3481 45.1512V45.1492H28.3468L28.3421 45.1379C28.3382 45.1286 28.3348 45.12 28.3309 45.1114V45.1094H28.3302C28.3242 45.0961 28.3189 45.0835 28.3136 45.0709V45.0689H28.3129L28.2963 45.0304V45.029C28.2903 45.0157 28.285 45.0031 28.2797 44.9898V44.9892H28.2791C28.2737 44.9759 28.2678 44.9626 28.2625 44.9493C28.2412 44.8982 28.22 44.8464 28.1994 44.7953L28.1881 44.7674V44.7667H28.1874L28.1768 44.7388V44.7382H28.1761C28.1728 44.7289 28.1688 44.7189 28.1655 44.7096H28.1648L28.0852 44.5044V44.5037C28.0792 44.4885 28.0739 44.4739 28.0679 44.4586V44.4579L28.0506 44.4134V44.4121L28.0453 44.3982V44.3955H28.044L28.034 44.3683V44.367H28.0334L28.028 44.353V44.3497H28.0267C28.0234 44.3404 28.0201 44.3304 28.0168 44.3211L28.0108 44.3059V44.3039H28.0101L27.9942 44.258L27.9882 44.2428V44.2408H27.9875C27.9703 44.1936 27.9537 44.1458 27.9371 44.0987V44.098H27.9364L27.9311 44.0821V44.0807L27.9251 44.0655V44.0641L27.9198 44.0489V44.0469H27.9191C27.9078 44.0143 27.8966 43.9825 27.8853 43.9506V43.9499L27.88 43.9333V43.9327H27.8793L27.874 43.9161V43.9154L27.868 43.8988V43.8981L27.8627 43.8815V43.8809L27.8567 43.8643L27.8514 43.847H27.8507L27.8454 43.8297L27.8394 43.8131V43.8125L27.8341 43.7959L27.8282 43.7786L27.8228 43.7613H27.8222C27.8109 43.7255 27.7996 43.6896 27.7883 43.6544V43.6524H27.7877L27.7823 43.6365V43.6358C27.7764 43.6179 27.7711 43.6 27.7657 43.582V43.5787H27.7644L27.7598 43.5641V43.5614H27.7584L27.7538 43.5462V43.5442H27.7531L27.7485 43.5276V43.5269H27.7478C27.7445 43.515 27.7405 43.5023 27.7365 43.4904V43.4871H27.7359L27.7312 43.4711V43.4698H27.7305C27.7232 43.4452 27.7159 43.4207 27.708 43.3961V43.3954C27.6907 43.3377 27.6734 43.2792 27.6568 43.2208V43.2188H27.6562L27.6455 43.1816V43.1789H27.6449L27.6396 43.1617L27.6343 43.1418V43.1384H27.6329L27.6283 43.1218C27.6263 43.1145 27.6243 43.1079 27.6223 43.1012V43.0986H27.6216C27.6183 43.086 27.615 43.0727 27.611 43.0594V43.0588L27.6057 43.0388V43.0355H27.6044L27.5937 42.997V42.9957C27.5805 42.9465 27.5672 42.8974 27.5539 42.8476L27.5486 42.8263V42.8243H27.5479L27.5426 42.8037V42.8018H27.5419L27.5366 42.7818V42.7792H27.536L27.5313 42.7599V42.7559H27.53L27.5253 42.738V42.7334H27.524L27.52 42.7161L27.5141 42.6935V42.6929L27.5081 42.6703C27.4908 42.6005 27.4736 42.5302 27.4569 42.4598V42.4591C27.451 42.4345 27.4457 42.41 27.4397 42.3861V42.3847C27.4357 42.3688 27.4324 42.3529 27.4284 42.3369V42.3336H27.4277L27.4224 42.3123V42.3104C27.4203 42.3029 27.4186 42.2954 27.4171 42.2878V42.2818H27.4158L27.4111 42.2619V42.2592H27.4105C27.4091 42.2512 27.4071 42.2433 27.4058 42.2353V42.2307H27.4045L27.3998 42.2094V42.2074H27.3992L27.3886 42.157V42.1563C27.3726 42.0846 27.3573 42.0122 27.3427 41.9398V41.9391L27.3368 41.9119V41.9106L27.3314 41.884V41.882H27.3308C27.3294 41.8734 27.3275 41.8648 27.3255 41.8561V41.8535H27.3248C27.3235 41.8442 27.3215 41.8355 27.3202 41.8263V41.8249H27.3195C27.3162 41.8057 27.3122 41.7857 27.3082 41.7665V41.7625H27.3075L27.3029 41.7366V41.7339H27.3022L27.2969 41.7067V41.7054L27.2916 41.6768V41.6762C27.2836 41.635 27.2763 41.5932 27.2684 41.5507L27.263 41.5188V41.5168H27.2624L27.2571 41.4862V41.4823H27.2564L27.2511 41.4544V41.4477H27.2504C27.2491 41.4391 27.2471 41.4305 27.2458 41.4218V41.4139H27.2444C27.2425 41.4052 27.2411 41.3959 27.2398 41.3873V41.3853L27.2345 41.3528V41.3508H27.2338L27.2285 41.3176V41.3169L27.2225 41.283V41.2824C27.2132 41.222 27.2033 41.1609 27.194 41.1004V41.0998L27.1887 41.0619V41.0599H27.188L27.1827 41.0241V41.0194H27.182C27.1807 41.0088 27.1787 40.9975 27.1774 40.9862V40.9796H27.1761C27.1747 40.9683 27.1727 40.9563 27.1714 40.945V40.9397H27.1707L27.1654 40.9032V40.8999L27.1601 40.862V40.8594H27.1594L27.1541 40.8202V40.8195C27.1502 40.791 27.1468 40.7631 27.1428 40.7339C27.1389 40.7033 27.1355 40.6728 27.1316 40.6416V40.6369H27.1309L27.1256 40.5957V40.5911H27.1249C27.1236 40.5771 27.1216 40.5632 27.1203 40.5493V40.54H27.1189C27.1169 40.5267 27.1156 40.5127 27.1143 40.4995V40.4941H27.1136C27.1116 40.4789 27.1103 40.4629 27.1083 40.4477V40.443L27.103 40.3959V40.3912H27.1023C27.0984 40.3573 27.095 40.3235 27.0917 40.2896V40.2883H27.0911C27.0897 40.269 27.0877 40.2498 27.0857 40.2305V40.2259H27.0851L27.0798 40.1721V40.1628H27.0791C27.0778 40.1462 27.0758 40.1296 27.0744 40.113V40.1004H27.0731C27.0711 40.0831 27.0698 40.0658 27.0685 40.0492V40.0373H27.0678C27.0658 40.0187 27.0645 40.0001 27.0632 39.9815V39.9742H27.0625C27.0605 39.9543 27.0585 39.9337 27.0572 39.9131V39.9118C27.0532 39.862 27.0492 39.8115 27.0459 39.7617V39.7517H27.0452C27.0432 39.7285 27.0419 39.7046 27.0399 39.6813V39.6661H27.0393C27.0373 39.6415 27.0359 39.6176 27.0346 39.593V39.5744H27.0333C27.0313 39.5479 27.03 39.5213 27.0286 39.4941V39.4887L27.0227 39.3918C27.0207 39.35 27.0193 39.3075 27.0173 39.265V39.243H27.016C27.0147 39.2032 27.0127 39.1627 27.0114 39.1222V39.095H27.0107C27.0087 39.0432 27.0074 38.9914 27.0061 38.9396V38.9349H27.0054C26.9913 38.3615 27.0048 37.7878 27.0459 37.2157V37.215C27.0771 36.7754 27.1249 36.3411 27.1887 35.9134V35.9128C27.2059 35.7939 27.2259 35.6764 27.2458 35.5595V35.5588C27.2637 35.4539 27.283 35.3496 27.3029 35.2454C27.3089 35.2148 27.3142 35.1843 27.3202 35.1538C27.35 34.999 27.3826 34.8443 27.4171 34.6909V34.6902C27.4457 34.5621 27.4762 34.4352 27.5081 34.3084V34.3077C27.536 34.1988 27.5645 34.0906 27.5937 33.983V33.9823C27.6017 33.9545 27.609 33.9259 27.617 33.8973V33.8967C27.6515 33.7725 27.688 33.649 27.7252 33.5261V33.5255C27.7997 33.282 27.8796 33.0402 27.965 32.8003H27.9656C28.0134 32.6662 28.0626 32.5334 28.1137 32.4005C28.1708 32.2531 28.2293 32.1064 28.2903 31.9609H28.291V31.9603C28.3886 31.7292 28.4916 31.5007 28.5991 31.2756C28.724 31.0146 28.8555 30.757 28.9936 30.5046C29.0514 30.3991 29.1105 30.2941 29.1702 30.1905V30.1899C29.2413 30.067 29.3137 29.9455 29.3874 29.8246C29.4418 29.7363 29.4976 29.6493 29.5534 29.5623C29.7121 29.314 29.8775 29.0696 30.0501 28.8312C30.2028 28.6194 30.3609 28.4122 30.5243 28.2083C30.681 28.0124 30.843 27.8198 31.0097 27.6319V27.6313C34.065 24.1682 38.6252 22.0445 43.8347 22H44.1654C49.0596 22.0412 53.3813 23.9198 56.4207 27.0203C56.7082 27.3145 56.9845 27.6193 57.2488 27.9341C57.3278 28.0284 57.4062 28.124 57.4832 28.2196C57.817 28.6377 58.1295 29.0723 58.4195 29.5218V29.5225C58.5703 29.7556 58.715 29.994 58.8538 30.2357V30.2364C58.9056 30.3267 58.9574 30.4177 59.0079 30.51V30.5106C59.2111 30.8818 59.3997 31.263 59.5737 31.6521V31.6528C59.6241 31.7664 59.6739 31.8799 59.7218 31.9948V31.9955C59.7689 32.107 59.8147 32.2186 59.8592 32.3321C59.9103 32.4623 59.9595 32.5938 60.0073 32.7259V32.7266C60.0531 32.8508 60.0963 32.9763 60.1388 33.1025V33.1031C60.1408 33.1091 60.1428 33.1144 60.1448 33.1204C60.1879 33.2505 60.2298 33.382 60.2703 33.5142V33.5148C60.3141 33.6583 60.3559 33.803 60.3958 33.9485C60.4615 34.1875 60.5233 34.4293 60.5784 34.6736V34.6743H60.5791C60.585 34.7002 60.5897 34.7268 60.5957 34.7533V34.754C60.6554 35.0229 60.7085 35.2952 60.7557 35.5701V35.5708C60.7995 35.8271 60.838 36.0861 60.8699 36.3471V36.3477L60.8759 36.3989C60.8779 36.4161 60.8792 36.4327 60.8812 36.45V36.4507L60.8872 36.5011V36.5018C60.9476 37.0324 60.9841 37.5729 60.9954 38.1221V38.1241C60.9981 38.2463 61.0001 38.3691 61.0001 38.4927C61.0001 38.6155 60.9981 38.7384 60.9954 38.8605C60.9675 40.2325 60.7829 41.5507 60.4589 42.8018C60.2862 43.4671 60.0744 44.1133 59.8247 44.7382C59.5996 45.3026 59.3432 45.8491 59.059 46.3771C59.0085 46.4714 58.9574 46.5643 58.905 46.6573C58.4867 47.3989 58.0092 48.1056 57.4772 48.7704C56.7228 49.7127 55.8629 50.566 54.9126 51.3177C54.7572 51.4405 54.5992 51.5601 54.4385 51.6776C54.1596 51.8821 53.8747 52.0787 53.5818 52.266C53.372 52.4001 53.1588 52.5289 52.9423 52.6545C51.7696 53.3318 50.4986 53.8743 49.1499 54.2648C49.0058 54.3066 48.861 54.3465 48.7156 54.385C48.7003 54.389 48.685 54.3923 48.6698 54.3963C47.8789 54.6015 47.0627 54.7549 46.2253 54.8532C46.0607 54.8724 45.8946 54.8897 45.7286 54.9043C45.4006 54.9342 45.0692 54.9548 44.7345 54.9674L44.5692 54.9734C44.3806 54.9793 44.1907 54.9827 44.0001 54.9827C43.927 54.9827 43.854 54.982 43.7809 54.9813V54.9787H43.6302C43.5658 54.9773 43.502 54.976 43.4383 54.974V54.9734H43.4024C43.3573 54.972 43.3121 54.97 43.2669 54.9687V54.9674H43.2404L43.1527 54.9634V54.9614H43.1076L43.0385 54.9581V54.9561H42.9927L42.9296 54.9528V54.9501H42.8891L42.8154 54.9461V54.9448H42.7948C42.7423 54.9415 42.6905 54.9375 42.6387 54.9342V54.9328H42.6261L42.5697 54.9289V54.9275H42.5491L42.5013 54.9236V54.9216H42.4754L42.4329 54.9182V54.9162H42.4057L42.3645 54.9123V54.9103H42.3393L42.2954 54.9063V54.9043H42.2755L42.227 54.9003V54.899H42.2137L42.1646 54.8943V54.893H42.154L42.0955 54.8877L42.0444 54.8824V54.8817H42.0404L41.9986 54.8771V54.8757H41.986L41.9475 54.8718V54.8704H41.9328L41.9016 54.8671V54.8645H41.8817L41.8505 54.8611V54.8591H41.8312L41.7987 54.8552V54.8532H41.7821L41.7529 54.8498V54.8472H41.7343L41.7018 54.8439V54.8419H41.6871L41.6559 54.8379V54.8359H41.6413L41.6048 54.8312V54.8306H41.5962L41.559 54.8253V54.8246H41.5517C41.5105 54.8193 41.4687 54.814 41.4275 54.808V54.8073H41.4235L41.3877 54.8027V54.802H41.3823L41.3531 54.7974V54.7961H41.3418L41.3133 54.7921V54.7901H41.302L41.2734 54.7861V54.7848H41.2628L41.2389 54.7814V54.7788H41.2243L41.1991 54.7755V54.7735H41.1858L41.1652 54.7702V54.7675H41.1479L41.1247 54.7642V54.7615H41.1107L41.0848 54.7575V54.7562H41.0742L41.0503 54.7522V54.7502H41.0384L41.0105 54.7463V54.7449H41.0025L40.9766 54.7403V54.7389H40.9673L40.9361 54.7336V54.733H40.9321L40.7993 54.7111V54.7104H40.7966L40.7707 54.7057V54.7044H40.7641L40.7362 54.6998V54.6991H40.7316L40.7077 54.6951V54.6931H40.699L40.6791 54.6898V54.6878H40.6671L40.6452 54.6838V54.6818H40.6359L40.6167 54.6785V54.6759H40.6047L40.5821 54.6719V54.6705H40.5735L40.5536 54.6666V54.6646H40.543L40.525 54.6613V54.6593H40.5124L40.4912 54.6546V54.6533H40.4825L40.4626 54.6493V54.6473H40.4527L40.4341 54.644V54.642H40.4228L40.3995 54.6373V54.636H40.3936L40.371 54.6314V54.6307H40.3643L40.3364 54.6247H40.3358L40.3079 54.6194V54.6188H40.3072L40.2793 54.6134H40.2787L40.2508 54.6075L40.1996 54.5968V54.5962H40.195L40.1711 54.5909V54.5902H40.1678L40.1425 54.5849H40.1405L40.12 54.5802V54.5789H40.1133L40.0914 54.5743V54.5736H40.0868L40.0682 54.5696V54.5676H40.0602L40.0396 54.563V54.5616H40.033L40.017 54.5583V54.5563H40.0071L39.9885 54.5523V54.5504H39.9812L39.9652 54.547V54.545H39.9553L39.9367 54.5404V54.5391H39.9294L39.9141 54.5357V54.5331H39.9035L39.8855 54.5291V54.5278H39.8782L39.8623 54.5238V54.5218H39.853L39.8337 54.5178V54.5165H39.8284L39.8112 54.5125V54.5105H39.8032L39.7826 54.5059V54.5045H39.7786L39.76 54.5005V54.4992H39.7541L39.7315 54.4939V54.4932H39.7295C39.6976 54.4859 39.6657 54.478 39.6339 54.4707H39.6332L39.6113 54.4654V54.4647H39.61L39.5887 54.4594H39.5861L39.5655 54.4541V54.4534H39.5628L39.5429 54.4487V54.4474H39.5396L39.5196 54.4428V54.4421H39.5163L39.4971 54.4375V54.4361H39.4931L39.4745 54.4315V54.4308H39.4705L39.4512 54.4255V54.4248H39.4473L39.434 54.4215V54.4189H39.4247L39.4114 54.4155V54.4136H39.4021L39.3888 54.4096V54.4076H39.3795L39.3656 54.4043V54.4023H39.3576L39.343 54.3983V54.3963H39.3357L39.3198 54.3923V54.3903H39.3131L39.2972 54.3863V54.385H39.2912L39.2746 54.3804V54.379H39.2693L39.2514 54.3744V54.3737H39.248L39.2288 54.3684V54.3677H39.2261L39.2115 54.3638V54.3618H39.2049L39.1889 54.3578V54.3564H39.1836L39.1657 54.3518V54.3505H39.1617L39.1431 54.3452H39.1405L39.1199 54.3392L39.0787 54.3279C38.7766 54.2475 38.4538 54.2688 38.1689 54.3956L37.0414 54.893L34.7948 55.8831C34.7782 55.8904 34.7616 55.8977 34.745 55.9044C34.7298 55.9104 34.7145 55.9157 34.6999 55.921H34.6992V55.9216L34.6833 55.927H34.6819V55.9276C34.6773 55.9289 34.672 55.9309 34.6667 55.9329H34.6647C34.6594 55.9349 34.6541 55.9369 34.6487 55.9382H34.6481V55.9389C34.6049 55.9522 34.5611 55.9635 34.5179 55.9728H34.5166C34.5073 55.9748 34.498 55.9768 34.4887 55.9781H34.488V55.9787C34.4648 55.9827 34.4416 55.9867 34.4183 55.99H34.4137C34.2981 56.0053 34.1832 56.0047 34.071 55.99Z" fill="#034737"/>
<path d="M33.7913 43.3113L38.7851 35.3897C39.5799 34.1273 41.2799 33.8172 42.4739 34.7097L46.4477 37.6887C46.8136 37.961 47.3149 37.961 47.6762 37.6847L53.0398 33.6127C53.7537 33.0688 54.6887 33.9275 54.2126 34.6885L49.2148 42.6061C48.4199 43.8685 46.7199 44.1786 45.526 43.2861L41.5522 40.3064C41.1863 40.0348 40.6849 40.0348 40.3237 40.3111L34.9601 44.3825C34.2462 44.9263 33.3112 44.0723 33.7913 43.3113Z" fill="white"/>
</g>
<defs>
<filter id="filter0_bd_8_2424" x="-31.1333" y="-38.1333" width="150.267" height="154.086" filterUnits="userSpaceOnUse" color-interpolation-filters="sRGB">
<feFlood flood-opacity="0" result="BackgroundImageFix"/>
<feGaussianBlur in="BackgroundImageFix" stdDeviation="21.0667"/>
<feComposite in2="SourceAlpha" operator="in" result="effect1_backgroundBlur_8_2424"/>
<feColorMatrix in="SourceAlpha" type="matrix" values="0 0 0 0 0 0 0 0 0 0 0 0 0 0 0 0 0 0 127 0" result="hardAlpha"/>
<feOffset dy="6.4"/>
<feGaussianBlur stdDeviation="5.06667"/>
<feComposite in2="hardAlpha" operator="out"/>
<feColorMatrix type="matrix" values="0 0 0 0 0.0867708 0 0 0 0 0.115317 0 0 0 0 0.141667 0 0 0 0.08 0"/>
<feBlend mode="normal" in2="effect1_backgroundBlur_8_2424" result="effect2_dropShadow_8_2424"/>
<feBlend mode="normal" in="SourceGraphic" in2="effect2_dropShadow_8_2424" result="shape"/>
</filter>
<radialGradient id="paint0_radial_8_2424" cx="0" cy="0" r="1" gradientUnits="userSpaceOnUse" gradientTransform="translate(44 38.9097) rotate(90) scale(33.9097 32)">
<stop stopColor="white"/>
<stop offset="1" stopColor="white"/>
</radialGradient>
<clip-path id="clip0_8_2424">
<rect width="34" height="34.0013" fill="white" transform="translate(27 22)"/>
</clip-path>
</defs>
</svg>
