<svg width="88" height="91" viewBox="0 0 88 91" fill="none" xmlns="http://www.w3.org/2000/svg">
<g filter="url(#filter0_bd_8_3178)">
<rect x="12" y="5" width="64" height="67.8193" rx="20" fill="url(#paint0_radial_8_3178)" fill-opacity="0.7" shape-rendering="crispEdges"/>
<rect x="11.5" y="4.5" width="65" height="68.8193" rx="20.5" stroke="#EAEAEA" shape-rendering="crispEdges"/>
</g>
<path d="M29.5993 55.8009H36.7997C38.2352 55.7994 39.3978 54.6369 39.3993 53.2013V48.6008H43.9998C44.2653 48.6008 44.5188 48.4958 44.7063 48.3083C44.8938 48.1207 45.0003 47.8657 45.0003 47.6017V46.2007H51.0006V53.2013C51.0021 54.6369 52.1646 55.7994 53.6002 55.8009H58.4004C59.836 55.7994 60.9985 54.6369 61 53.2013V42.4008C60.9985 40.9653 59.836 39.8027 58.4004 39.8012H53.6002C52.1646 39.8027 51.0021 40.9653 51.0006 42.4008V44.2009H45.0003V37.2003H52.0478C53.5284 37.2003 54.7299 36.0002 54.7299 34.5182V28.2598C54.7299 26.7778 53.5284 25.5762 52.0478 25.5762H45.3409C44.4964 25.5762 43.7014 25.1787 43.1958 24.5036L42.1218 23.0726C41.6163 22.3975 40.8212 22 39.9767 22H35.9522C35.2412 22 34.5586 22.282 34.0561 22.786C33.5521 23.2886 33.2701 23.9711 33.2701 24.6821V34.518C33.2701 35.229 33.5521 35.9115 34.0561 36.4155C34.5586 36.9181 35.2412 37.2001 35.9522 37.2001H42.9997V46.6008H39.3995V42.0003C39.398 40.5647 38.2355 39.4022 36.7999 39.4007H29.5996C28.164 39.4022 27.0015 40.5647 27 42.0003V53.2013C27.0015 54.6369 28.1638 55.7994 29.5993 55.8009ZM55.201 43.2677H56.8016H56.8001C57.3536 43.2677 57.8006 43.7148 57.8006 44.2668C57.8006 44.8188 57.3536 45.2673 56.8001 45.2673H55.201C54.6475 45.2673 54.2004 44.8188 54.2004 44.2668C54.2004 43.7148 54.6475 43.2677 55.201 43.2677ZM55.201 46.7344H56.8016H56.8001C57.3536 46.7344 57.8006 47.1829 57.8006 47.7349C57.8006 48.2869 57.3536 48.734 56.8001 48.734H55.201C54.6475 48.734 54.2004 48.2869 54.2004 47.7349C54.2004 47.1829 54.6475 46.7344 55.201 46.7344ZM55.201 50.201H56.8016H56.8001C57.3536 50.201 57.8006 50.648 57.8006 51.2016C57.8006 51.7536 57.3536 52.2006 56.8001 52.2006H55.201C54.6475 52.2006 54.2004 51.7536 54.2004 51.2016C54.2004 50.648 54.6475 50.201 55.201 50.201ZM31.6004 43.0007H34.8001C35.3521 43.0007 35.7991 43.4477 35.7991 44.0012C35.7991 44.5533 35.3521 45.0003 34.8001 45.0003H31.5989C31.0469 45.0003 30.5999 44.5533 30.5999 44.0012C30.5999 43.4477 31.0469 43.0007 31.5989 43.0007H31.6004ZM31.6004 46.6008H34.8001C35.3521 46.6008 35.7991 47.0479 35.7991 47.6014C35.7991 48.1534 35.3521 48.6005 34.8001 48.6005H31.5989C31.0469 48.6005 30.5999 48.1534 30.5999 47.6014C30.5999 47.0479 31.0469 46.6008 31.5989 46.6008H31.6004ZM31.6004 50.201H34.8001C35.3521 50.201 35.7991 50.648 35.7991 51.2016C35.7991 51.7536 35.3521 52.2006 34.8001 52.2006H31.5989C31.0469 52.2006 30.5999 51.7536 30.5999 51.2016C30.5999 50.648 31.0469 50.201 31.5989 50.201H31.6004Z" fill="#034737"/>
<defs>
<filter id="filter0_bd_8_3178" x="-31.1333" y="-38.1333" width="150.267" height="154.086" filterUnits="userSpaceOnUse" color-interpolation-filters="sRGB">
<feFlood flood-opacity="0" result="BackgroundImageFix"/>
<feGaussianBlur in="BackgroundImageFix" stdDeviation="21.0667"/>
<feComposite in2="SourceAlpha" operator="in" result="effect1_backgroundBlur_8_3178"/>
<feColorMatrix in="SourceAlpha" type="matrix" values="0 0 0 0 0 0 0 0 0 0 0 0 0 0 0 0 0 0 127 0" result="hardAlpha"/>
<feOffset dy="6.4"/>
<feGaussianBlur stdDeviation="5.06667"/>
<feComposite in2="hardAlpha" operator="out"/>
<feColorMatrix type="matrix" values="0 0 0 0 0.0867708 0 0 0 0 0.115317 0 0 0 0 0.141667 0 0 0 0.08 0"/>
<feBlend mode="normal" in2="effect1_backgroundBlur_8_3178" result="effect2_dropShadow_8_3178"/>
<feBlend mode="normal" in="SourceGraphic" in2="effect2_dropShadow_8_3178" result="shape"/>
</filter>
<radialGradient id="paint0_radial_8_3178" cx="0" cy="0" r="1" gradientUnits="userSpaceOnUse" gradientTransform="translate(44 38.9097) rotate(90) scale(33.9097 32)">
<stop stopColor="white"/>
<stop offset="1" stopColor="white"/>
</radialGradient>
</defs>
</svg>
