<svg width="88" height="91" viewBox="0 0 88 91" fill="none" xmlns="http://www.w3.org/2000/svg">
<g filter="url(#filter0_bd_8_2614)">
<rect x="12" y="5" width="64" height="67.8193" rx="20" fill="url(#paint0_radial_8_2614)" fill-opacity="0.7" shape-rendering="crispEdges"/>
<rect x="11.5" y="4.5" width="65" height="68.8193" rx="20.5" stroke="#EAEAEA" shape-rendering="crispEdges"/>
</g>
<path d="M47.8905 32.9103C50.0884 35.1081 50.0884 38.672 47.8905 40.8713C45.6927 43.0692 42.1272 43.0692 39.9295 40.8713C37.7316 38.6719 37.7316 35.108 39.9295 32.9103C42.1273 30.7109 45.6928 30.7109 47.8905 32.9103Z" fill="#034737"/>
<path d="M49.0955 43.0518C47.6929 44.2342 45.8852 44.9506 43.9104 44.9506C41.9355 44.9506 40.1278 44.2341 38.7253 43.0518C37.1345 43.8502 36.0326 45.4773 36.0326 47.3777V48.8607C36.0326 50.0598 36.9069 51.0676 38.0893 51.2619C39.7756 51.5382 41.7337 51.737 43.9089 51.737C46.0855 51.737 48.0437 51.5397 49.7286 51.2619C50.9125 51.0676 51.7853 50.0598 51.7853 48.8607V47.3777C51.7883 45.4774 50.6862 43.8487 49.0955 43.0518Z" fill="#034737"/>
<path d="M51.9691 36.8901C51.9691 37.306 51.9281 37.7098 51.8674 38.1075C52.2726 38.2001 52.69 38.2592 53.1226 38.2592C56.2327 38.2592 58.7523 35.7381 58.7523 32.6296C58.7523 29.5195 56.2311 27 53.1226 27C50.949 27 49.085 28.2446 48.147 30.0479C50.4359 31.4716 51.9691 34.0019 51.9691 36.8901Z" fill="#034737"/>
<path d="M34.8776 38.2609C35.248 38.2609 35.6092 38.2199 35.9599 38.1516C35.8946 37.7402 35.8506 37.3213 35.8506 36.8902C35.8506 33.9456 37.4443 31.3729 39.8078 29.9659C38.8561 28.2082 37.0164 27 34.8764 27C31.7663 27 29.2468 29.5212 29.2468 32.6296C29.2483 35.7412 31.7691 38.2609 34.8776 38.2609Z" fill="#034737"/>
<path d="M36.6947 40.4571C36.1088 40.5937 35.5062 40.6908 34.8778 40.6908C32.9031 40.6908 31.0953 39.9744 29.6927 38.792C28.1019 39.5889 27 41.2175 27 43.118V44.6009C27 45.8 27.8743 46.8079 29.0567 47.0022C30.4061 47.2238 31.9345 47.3892 33.6026 47.4484V47.3786C33.6026 44.7497 35.0066 42.4484 37.0997 41.1676C36.9556 40.9369 36.8161 40.7014 36.6947 40.4571Z" fill="#034737"/>
<path d="M58.3074 38.7913C56.9049 39.9737 55.0972 40.6901 53.1223 40.6901C52.4378 40.6901 51.7836 40.5763 51.1476 40.4138C51.0201 40.6749 50.8759 40.9254 50.7211 41.1682C52.8127 42.4493 54.2167 44.7504 54.2167 47.3791V47.455C55.9562 47.4019 57.5469 47.2334 58.9433 47.0042C60.1257 46.8084 61 45.8005 61 44.5999V43.117C61 41.2181 59.8982 39.5897 58.3074 38.7913Z" fill="#034737"/>
<defs>
<filter id="filter0_bd_8_2614" x="-31.1333" y="-38.1333" width="150.267" height="154.086" filterUnits="userSpaceOnUse" color-interpolation-filters="sRGB">
<feFlood flood-opacity="0" result="BackgroundImageFix"/>
<feGaussianBlur in="BackgroundImageFix" stdDeviation="21.0667"/>
<feComposite in2="SourceAlpha" operator="in" result="effect1_backgroundBlur_8_2614"/>
<feColorMatrix in="SourceAlpha" type="matrix" values="0 0 0 0 0 0 0 0 0 0 0 0 0 0 0 0 0 0 127 0" result="hardAlpha"/>
<feOffset dy="6.4"/>
<feGaussianBlur stdDeviation="5.06667"/>
<feComposite in2="hardAlpha" operator="out"/>
<feColorMatrix type="matrix" values="0 0 0 0 0.0867708 0 0 0 0 0.115317 0 0 0 0 0.141667 0 0 0 0.08 0"/>
<feBlend mode="normal" in2="effect1_backgroundBlur_8_2614" result="effect2_dropShadow_8_2614"/>
<feBlend mode="normal" in="SourceGraphic" in2="effect2_dropShadow_8_2614" result="shape"/>
</filter>
<radialGradient id="paint0_radial_8_2614" cx="0" cy="0" r="1" gradientUnits="userSpaceOnUse" gradientTransform="translate(44 38.9097) rotate(90) scale(33.9097 32)">
<stop stopColor="white"/>
<stop offset="1" stopColor="white"/>
</radialGradient>
</defs>
</svg>
