<svg width="88" height="91" viewBox="0 0 88 91" fill="none" xmlns="http://www.w3.org/2000/svg">
<g filter="url(#filter0_bd_8_7492)">
<rect x="12" y="5" width="64" height="67.8193" rx="20" fill="#E6A55B"/>
<rect x="11.5" y="4.5" width="65" height="68.8193" rx="20.5" stroke="#EAEAEA"/>
</g>
<path d="M63 28.5052C63 24.366 59.6268 21 55.4787 21C51.8362 21 48.7904 23.601 48.1067 27.0372H27.0347C25.9117 27.0372 25 27.9469 25 29.0675V49.0441C25 50.1647 25.9117 51.0744 27.0347 51.0744H35.2646V53.113H29.6537C28.9948 53.113 28.4643 53.6465 28.4643 54.3039V55.8091C28.4643 56.4666 28.9989 57 29.6537 57H51.5544C52.2133 57 52.7437 56.4666 52.7437 55.8091V54.3039C52.7437 53.6465 52.2092 53.113 51.5544 53.113H45.9435V51.0744H54.1775C55.3005 51.0744 56.2122 50.1647 56.2122 49.0441V43.2963H59.1171C59.718 43.2963 60.2028 42.8084 60.2028 42.213V39.4879C60.2028 38.8884 59.7139 38.4045 59.1171 38.4045H56.2122V35.9731C60.0164 35.6051 63 32.3963 63 28.5093V28.5052ZM55.4787 31.102C56.0257 31.102 56.4733 30.6554 56.4733 30.1096C56.4733 29.4025 56.1998 29.3074 55.3378 29.1006C54.5091 28.9021 53.2617 28.6085 53.2617 26.9008C53.2617 25.8918 53.9413 25.0358 54.8696 24.7712V23.6175C54.8696 23.2784 55.1431 23.0055 55.4829 23.0055C55.8227 23.0055 56.0962 23.2784 56.0962 23.6175V24.7712C57.0244 25.0358 57.704 25.8918 57.704 26.9008C57.704 26.9504 57.704 27 57.704 27.0455C57.6833 27.3846 57.3932 27.6409 57.0534 27.6203C56.7136 27.5996 56.4567 27.3101 56.4774 26.9711C56.4774 26.9462 56.4774 26.9214 56.4774 26.8966C56.4774 26.3467 56.0299 25.9042 55.4829 25.9042C54.9359 25.9042 54.4883 26.3508 54.4883 26.8966C54.4883 27.5996 54.7618 27.6988 55.6238 27.9056C56.4526 28.1041 57.704 28.3977 57.704 30.1054C57.704 31.1144 57.0244 31.9662 56.0962 32.235V33.3887C56.0962 33.7278 55.8227 34.0007 55.4829 34.0007C55.1431 34.0007 54.8696 33.7278 54.8696 33.3887V32.235C53.9413 31.9704 53.2617 31.1144 53.2617 30.1054C53.2617 30.0558 53.2617 30.0062 53.2659 29.9566C53.2866 29.6175 53.5767 29.3611 53.9123 29.3818C54.2521 29.4025 54.5091 29.6919 54.4883 30.0269C54.4883 30.0517 54.4883 30.0765 54.4883 30.1054C54.4883 30.6513 54.9359 31.0979 55.4829 31.0979L55.4787 31.102ZM44.7169 53.113H36.4953V51.0744H44.721V53.113H44.7169ZM41.9322 49.1433H39.2718C38.932 49.1433 38.6585 48.8704 38.6585 48.5314C38.6585 48.1923 38.932 47.9194 39.2718 47.9194H41.9322C42.272 47.9194 42.5455 48.1923 42.5455 48.5314C42.5455 48.8704 42.272 49.1433 41.9322 49.1433ZM54.9815 45.6864V45.7857H26.2266V29.0675C26.2266 28.6251 26.5913 28.2612 27.0347 28.2612H47.9699C47.9699 28.3398 47.9658 28.4225 47.9658 28.501C47.9658 32.4707 51.0737 35.7292 54.9897 35.9855V38.4004H52.0848C51.484 38.4004 50.9991 38.8884 50.9991 39.4838V42.2088C50.9991 42.8084 51.4881 43.2922 52.0848 43.2922H54.9897V45.6823L54.9815 45.6864ZM58.9721 39.6244V42.0724H52.2133V39.6244H58.9721ZM49.039 37.0234C49.039 37.3625 48.7655 37.6354 48.4257 37.6354H46.0513C45.7115 37.6354 45.438 37.3625 45.438 37.0234C45.438 36.6844 45.7115 36.4114 46.0513 36.4114H48.4257C48.7655 36.4114 49.039 36.6844 49.039 37.0234ZM41.7167 34.3563V31.2757C41.7167 30.5148 41.0205 29.9607 40.0632 29.9607C39.106 29.9607 38.4098 30.5148 38.4098 31.2757V31.7264L32.0198 34.8525H29.9437C28.742 34.8525 27.764 35.8284 27.764 37.0276C27.764 38.1316 28.5887 39.0455 29.6578 39.1861V41.9359C29.6578 42.7298 30.3291 43.3294 31.2201 43.3294C32.111 43.3294 32.7823 42.7298 32.7823 41.9359V39.5748L38.414 42.3329V42.7795C38.414 43.5403 39.1101 44.0944 40.0674 44.0944C41.0246 44.0944 41.7208 43.5403 41.7208 42.7795V39.6947C43.3535 39.5955 44.2113 38.297 44.2113 37.0152C44.2113 36.3246 43.971 35.6795 43.5359 35.1957C43.2127 34.836 42.6408 34.4142 41.7208 34.3563H41.7167ZM31.5516 41.9359C31.5516 42.1013 31.2201 42.1054 31.2201 42.1054C31.2201 42.1054 30.8885 42.1013 30.8885 41.9359V39.2026H31.5557V41.9359H31.5516ZM31.5516 37.9786H29.9437C29.4174 37.9786 28.9906 37.5527 28.9906 37.0276C28.9906 36.5024 29.4174 36.0765 29.9437 36.0765H31.5516V37.9828V37.9786ZM40.4901 42.7629C40.4445 42.8043 40.287 42.8704 40.0674 42.8704C39.8478 42.8704 39.6903 42.8043 39.6447 42.7629V31.2922C39.6903 31.2509 39.8478 31.1847 40.0674 31.1847C40.287 31.1847 40.4445 31.2509 40.4901 31.2922V42.7671V42.7629ZM47.137 40.6706C47.3773 40.9063 47.3815 41.295 47.1453 41.5348C47.0251 41.6547 46.8676 41.7167 46.7101 41.7167C46.5527 41.7167 46.3993 41.6589 46.2792 41.5389L44.5967 39.889C44.3564 39.6533 44.3522 39.2646 44.5884 39.0248C44.8246 38.785 45.2142 38.7808 45.4545 39.0165L47.137 40.6664V40.6706ZM44.5884 35.0303C44.3522 34.7905 44.3522 34.4018 44.5967 34.1661L46.2792 32.5162C46.5195 32.2805 46.909 32.2805 47.1453 32.5245C47.3815 32.7643 47.3815 33.153 47.137 33.3887L45.4545 35.0386C45.3344 35.1544 45.181 35.2123 45.0236 35.2123C44.8661 35.2123 44.7045 35.1502 44.5843 35.0303H44.5884Z" fill="white"/>
<defs>
<filter id="filter0_bd_8_7492" x="-31.1333" y="-38.1333" width="150.267" height="154.086" filterUnits="userSpaceOnUse" color-interpolation-filters="sRGB">
<feFlood flood-opacity="0" result="BackgroundImageFix"/>
<feGaussianBlur in="BackgroundImageFix" stdDeviation="21.0667"/>
<feComposite in2="SourceAlpha" operator="in" result="effect1_backgroundBlur_8_7492"/>
<feColorMatrix in="SourceAlpha" type="matrix" values="0 0 0 0 0 0 0 0 0 0 0 0 0 0 0 0 0 0 127 0" result="hardAlpha"/>
<feOffset dy="6.4"/>
<feGaussianBlur stdDeviation="5.06667"/>
<feComposite in2="hardAlpha" operator="out"/>
<feColorMatrix type="matrix" values="0 0 0 0 0.0867708 0 0 0 0 0.115317 0 0 0 0 0.141667 0 0 0 0.08 0"/>
<feBlend mode="normal" in2="effect1_backgroundBlur_8_7492" result="effect2_dropShadow_8_7492"/>
<feBlend mode="normal" in="SourceGraphic" in2="effect2_dropShadow_8_7492" result="shape"/>
</filter>
</defs>
</svg>
