<svg width="88" height="91" viewBox="0 0 88 91" fill="none" xmlns="http://www.w3.org/2000/svg">
<g filter="url(#filter0_bd_8_7424)">
<rect x="12" y="5" width="64" height="67.8193" rx="20" fill="#CC63D4"/>
<rect x="11.5" y="4.5" width="65" height="68.8193" rx="20.5" stroke="#EAEAEA"/>
</g>
<path d="M56.3636 22H31.6364C30.4067 22 29.2274 22.4885 28.358 23.358C27.4885 24.2274 27 25.4067 27 26.6364V48.2727C27 49.5023 27.4885 50.6816 28.358 51.5511C29.2274 52.4206 30.4067 52.909 31.6364 52.909H36.2727V49.8181H31.6364C31.2265 49.8181 30.8334 49.6553 30.5436 49.3655C30.2537 49.0757 30.0909 48.6826 30.0909 48.2727V34.3636H57.909V37.4545H61V26.6364C61 25.4067 60.5115 24.2274 59.642 23.358C58.7725 22.4885 57.5932 22 56.3636 22ZM36.2727 29.7273H33.1818V26.6364H36.2727V29.7273ZM42.4545 29.7273H39.3636V26.6364H42.4545V29.7273ZM56.3636 39V54.4545C56.3625 54.6997 56.303 54.9411 56.1901 55.1587C56.0773 55.3764 55.9142 55.5641 55.7145 55.7063C55.4567 55.9012 55.1413 56.0045 54.8181 55.9999C54.6505 55.9968 54.4842 55.9709 54.3236 55.9227L45.2982 52.909H40.9091C40.4992 52.909 40.1061 52.7462 39.8163 52.4564C39.5264 52.1666 39.3636 51.7735 39.3636 51.3636V42.0909C39.3636 41.681 39.5264 41.2879 39.8163 40.9981C40.1061 40.7083 40.4992 40.5454 40.9091 40.5454H45.2982L54.3236 37.5318C54.556 37.4552 54.8033 37.4348 55.0451 37.4724C55.2869 37.51 55.5163 37.6045 55.7145 37.7482C55.9142 37.8904 56.0773 38.0781 56.1901 38.2957C56.303 38.5134 56.3625 38.7548 56.3636 39ZM61 46.7272C60.9973 47.6838 60.6988 48.6161 60.1454 49.3963C59.592 50.1766 58.8109 50.7666 57.909 51.0854V42.3691C58.8109 42.6879 59.592 43.2779 60.1454 44.0581C60.6988 44.8384 60.9973 45.7707 61 46.7272Z" fill="white"/>
<defs>
<filter id="filter0_bd_8_7424" x="-31.1333" y="-38.1333" width="150.267" height="154.086" filterUnits="userSpaceOnUse" color-interpolation-filters="sRGB">
<feFlood flood-opacity="0" result="BackgroundImageFix"/>
<feGaussianBlur in="BackgroundImageFix" stdDeviation="21.0667"/>
<feComposite in2="SourceAlpha" operator="in" result="effect1_backgroundBlur_8_7424"/>
<feColorMatrix in="SourceAlpha" type="matrix" values="0 0 0 0 0 0 0 0 0 0 0 0 0 0 0 0 0 0 127 0" result="hardAlpha"/>
<feOffset dy="6.4"/>
<feGaussianBlur stdDeviation="5.06667"/>
<feComposite in2="hardAlpha" operator="out"/>
<feColorMatrix type="matrix" values="0 0 0 0 0.0867708 0 0 0 0 0.115317 0 0 0 0 0.141667 0 0 0 0.08 0"/>
<feBlend mode="normal" in2="effect1_backgroundBlur_8_7424" result="effect2_dropShadow_8_7424"/>
<feBlend mode="normal" in="SourceGraphic" in2="effect2_dropShadow_8_7424" result="shape"/>
</filter>
</defs>
</svg>
