<svg width="88" height="91" viewBox="0 0 88 91" fill="none" xmlns="http://www.w3.org/2000/svg">
<g filter="url(#filter0_bd_8_2801)">
<rect x="12" y="5" width="64" height="67.8193" rx="20" fill="url(#paint0_radial_8_2801)" fill-opacity="0.7" shape-rendering="crispEdges"/>
<rect x="11.5" y="4.5" width="65" height="68.8193" rx="20.5" stroke="#EAEAEA" shape-rendering="crispEdges"/>
</g>
<path fill-rule="evenodd" clip-rule="evenodd" d="M46.3748 55.1797H41.6216C41.5426 55.1814 41.4765 55.2473 41.4765 55.3298V55.9054V55.9038C41.5152 56.4398 41.6651 56.9626 41.9166 57.4343C42.0875 57.7559 42.2842 58 42.46 58H45.541C45.7571 58 45.9876 57.6619 46.1763 57.2496V57.2479C46.3746 56.829 46.4907 56.3771 46.5229 55.9136C46.5229 55.7174 46.5213 55.5228 46.5181 55.3265C46.5165 55.2457 46.452 55.1797 46.373 55.1797H46.3748ZM40.8976 51.1307C40.7606 51.1373 40.6219 51.134 40.4849 51.1241C40.3124 51.1241 40.6574 51.1357 40.6574 51.2082V52.1863C40.68 52.7916 40.7944 53.3903 40.9944 53.9592C41.1217 54.3122 41.2491 54.5777 41.3329 54.5777H46.6648C46.7519 54.5777 46.8808 54.3122 47.0082 53.9576C47.2081 53.3885 47.3194 52.7899 47.3387 52.1846V51.2082C47.3387 51.1158 47.2178 51.129 47.2033 51.129L40.8976 51.1307ZM43.5095 41.9094H43.5111C43.5514 41.9375 43.574 41.9837 43.574 42.0315V50.3817C43.574 50.4642 43.5095 50.5302 43.4289 50.5302H41.2362C41.1701 50.5302 41.1137 50.4856 41.0959 50.4213C40.9782 49.9743 40.7445 49.1431 40.4349 48.2706L39.8367 46.585C39.4659 45.5361 38.9871 45.0974 38.118 44.2958C38.06 44.243 37.9729 44.2447 37.9181 44.3007L35.0192 47.2661C34.9692 47.3173 34.9612 47.3964 35.0015 47.4542C35.6142 48.4009 35.6706 49.6147 35.145 50.6159C34.621 51.6154 33.602 52.2404 32.4912 52.2404C31.5383 52.2421 30.6402 51.7803 30.0711 50.9969C29.502 50.2135 29.3295 49.2008 29.6052 48.2673C29.8825 47.3322 30.5742 46.5867 31.4722 46.2585C32.3686 45.9286 33.3666 46.0523 34.1598 46.5933C34.2179 46.6329 34.2953 46.6263 34.3436 46.5751L37.2071 43.646C37.2345 43.618 37.2506 43.5784 37.249 43.5388C37.249 43.4976 37.2329 43.4596 37.2038 43.4332L36.7282 42.978C35.9817 42.2144 35.3852 41.3123 34.9708 40.321C34.9515 40.2748 34.9112 40.2418 34.8644 40.2336C34.8177 40.2237 34.7693 40.2385 34.7355 40.2732L33.0635 41.9835C32.9474 42.1023 32.7797 42.1517 32.6201 42.1155L31.5125 41.9225C31.4464 41.9109 31.3819 41.9456 31.3561 42.0066C30.8805 43.0737 29.7067 43.613 28.612 43.27C27.5173 42.9269 26.8417 41.8054 27.032 40.6509C27.2238 39.4964 28.2234 38.6652 29.3665 38.7097C30.5113 38.7542 31.4464 39.6613 31.5512 40.8273C31.556 40.895 31.606 40.9494 31.6705 40.9609L32.488 41.1028C32.5347 41.111 32.5815 41.0945 32.6137 41.0599L34.4582 39.1731C34.5001 39.1302 34.5549 39.089 34.5324 38.9983C34.2534 37.857 34.1776 36.6728 34.3131 35.5051C34.3195 35.4473 34.2937 35.3913 34.2454 35.3616C34.1373 35.2923 32.8185 33.9217 32.6154 33.7123H32.6137C32.5815 33.6777 32.5347 33.6612 32.488 33.6711L31.6705 33.8129V33.8113C31.6061 33.8228 31.5561 33.8772 31.5512 33.9449C31.4464 35.1125 30.5113 36.018 29.3666 36.0625C28.2235 36.1071 27.2239 35.2758 27.032 34.1213C26.8418 32.9668 27.5173 31.8453 28.612 31.5022C29.7068 31.1592 30.8805 31.7001 31.3561 32.7656C31.3835 32.8266 31.4464 32.8613 31.5125 32.8497L32.6121 32.6584V32.66C32.775 32.6205 32.9459 32.6699 33.0619 32.7936L34.3421 34.1032V34.1015C34.3776 34.1395 34.4308 34.1543 34.4824 34.1411C34.5323 34.1263 34.571 34.0867 34.5839 34.0356C34.9257 32.7211 35.5158 31.4891 36.322 30.4088C36.3671 30.3494 36.3607 30.2653 36.3091 30.2142L34.3421 28.202H34.3437C34.2953 28.1526 34.2179 28.1443 34.1599 28.1839C33.6665 28.5187 33.0861 28.6985 32.4912 28.6985C30.8273 28.6985 29.4794 27.3181 29.4794 25.616C29.4778 24.7979 29.7938 24.0145 30.3597 23.4356C30.924 22.8583 31.6899 22.5334 32.4896 22.5334V22.5351C33.6004 22.5334 34.6226 23.1585 35.1482 24.1596C35.6738 25.1624 35.6174 26.3779 35.0015 27.3246C34.9628 27.3824 34.9709 27.4615 35.0192 27.5127L36.9217 29.4572C36.9491 29.4869 36.9862 29.5017 37.0249 29.5017C37.0636 29.5017 37.1023 29.4869 37.1281 29.4572C38.0229 28.5221 39.0903 27.7782 40.2689 27.2686C40.3124 27.2488 40.3446 27.2092 40.3543 27.1597C40.364 27.1119 40.3479 27.0608 40.314 27.0261L39.5079 26.2015C39.3918 26.0827 39.3434 25.9112 39.3789 25.7479L39.5675 24.6149C39.5788 24.5489 39.5449 24.4813 39.4853 24.4549C38.7259 24.1003 38.2164 23.3515 38.1551 22.5005C38.0955 21.6495 38.4937 20.833 39.195 20.3712C39.898 19.9094 40.7896 19.8764 41.5216 20.2838C42.2535 20.6928 42.7098 21.4779 42.7098 22.3306H42.7082C42.7098 23.5363 41.8118 24.544 40.638 24.6528C40.5719 24.6594 40.5187 24.7105 40.5074 24.7765L40.3672 25.616C40.3591 25.6638 40.3752 25.7117 40.4091 25.7447L41.3748 26.7326C41.4184 26.7771 41.4571 26.848 41.5586 26.82H41.557C43.1645 26.3846 44.8542 26.3763 46.4666 26.7985C46.5214 26.8134 46.5795 26.7936 46.615 26.7474L47.5904 25.743C47.6243 25.7084 47.6404 25.6605 47.6323 25.6127L47.4937 24.7765C47.4824 24.7105 47.4292 24.6594 47.3631 24.6544C46.2232 24.5456 45.338 23.5907 45.2945 22.4196C45.2526 21.2503 46.0636 20.2277 47.1922 20.0331C48.3224 19.8385 49.4171 20.5296 49.7525 21.6494C50.0878 22.7693 49.559 23.97 48.5159 24.4549C48.4562 24.4813 48.4223 24.5489 48.4336 24.6148L48.6206 25.7397C48.661 25.9046 48.6126 26.0811 48.4933 26.2015L47.7146 26.9965C47.6807 27.0311 47.6646 27.0822 47.6742 27.1301C47.6839 27.1795 47.7162 27.2191 47.7613 27.2389C48.9447 27.7403 50.0185 28.4759 50.9214 29.4061C50.9488 29.4341 50.9859 29.4506 51.0246 29.4506C51.0632 29.4506 51.1003 29.4341 51.1277 29.4061L52.9803 27.511C53.0286 27.4615 53.0367 27.3824 52.998 27.3247C52.3837 26.378 52.3289 25.1641 52.8529 24.1629C53.3785 23.1635 54.3975 22.5384 55.5067 22.5384V22.5367C56.4612 22.5351 57.3576 22.9969 57.9268 23.7803C58.4959 24.5637 58.6684 25.5764 58.3927 26.5099C58.117 27.4433 57.4237 28.1889 56.5273 28.5187C55.6293 28.8486 54.6312 28.7249 53.838 28.1839C53.78 28.1443 53.7042 28.1509 53.6542 28.202L51.7469 30.1548C51.6953 30.2076 51.6905 30.2917 51.734 30.3511C52.5482 31.4281 53.1351 32.6667 53.4591 33.9878C53.472 34.0389 53.5107 34.0801 53.5607 34.095C53.6107 34.1098 53.6655 34.095 53.7026 34.057L54.9376 32.7937C55.0537 32.6749 55.2214 32.6254 55.381 32.6617L56.4886 32.853V32.8547C56.5531 32.8662 56.6176 32.8316 56.645 32.7706C57.119 31.7035 58.2928 31.1625 59.3891 31.5056C60.4838 31.8503 61.1594 32.9702 60.9675 34.1263C60.7773 35.2808 59.7777 36.112 58.633 36.0675C57.4899 36.023 56.5547 35.1159 56.4499 33.9498C56.4451 33.8822 56.3951 33.8261 56.329 33.8162L55.5116 33.6744H55.5132C55.4664 33.6662 55.418 33.681 55.3858 33.7173L53.8719 35.2627C53.7945 35.3402 53.6961 35.3583 53.7074 35.4788C53.8138 36.6464 53.7187 37.8241 53.4252 38.9571C53.4011 39.0495 53.4559 39.0891 53.4978 39.1319L55.3858 41.0633H55.3842C55.4164 41.0979 55.4648 41.1144 55.5115 41.1061L56.329 40.9643H56.3274C56.3935 40.9528 56.4434 40.8983 56.4483 40.8307C56.5531 39.6647 57.4866 38.7592 58.6313 38.713C59.776 38.6685 60.7741 39.4997 60.9659 40.6543C61.1578 41.8088 60.4806 42.9303 59.3859 43.2733C58.2912 43.6164 57.1174 43.0754 56.6434 42.01C56.616 41.9489 56.5515 41.9143 56.487 41.9259L55.3874 42.1172C55.2246 42.1584 55.0537 42.1089 54.9359 41.9869L53.2205 40.232C53.185 40.1958 53.1367 40.1809 53.0899 40.1908C53.0415 40.2007 53.0028 40.2337 52.9835 40.2782C52.4982 41.4525 51.7952 42.518 50.9133 43.4185C50.8375 43.496 50.7521 43.6082 50.8488 43.7071L53.6558 46.5785C53.7042 46.6297 53.7816 46.6379 53.8396 46.5983C54.333 46.2619 54.9134 46.0821 55.5084 46.0821C56.3064 46.0804 57.0739 46.4053 57.6382 46.9826C58.2041 47.5599 58.5217 48.3449 58.5217 49.1613C58.5217 49.9794 58.2057 50.7628 57.6414 51.3417C57.0755 51.919 56.3097 52.2439 55.5116 52.2439C54.3991 52.2455 53.3769 51.6204 52.8513 50.6193C52.3257 49.6182 52.3821 48.401 52.998 47.4543C53.0367 47.3966 53.0287 47.3174 52.9803 47.2663L50.1959 44.4179V44.4196C50.1394 44.3619 50.0508 44.3602 49.9943 44.4146C49.293 45.0826 48.6142 45.6054 48.266 46.5851L47.6678 48.2707C47.3583 49.1415 47.1245 49.9744 47.0068 50.4214H47.0052C46.989 50.4857 46.931 50.5303 46.8649 50.5303H44.6738C44.5932 50.5303 44.5287 50.4643 44.5287 50.3818V42.0645C44.5287 42.0117 44.5561 41.9639 44.6012 41.9375L47.2551 40.3707C47.4824 40.2355 47.5614 39.937 47.4292 39.7044C47.297 39.4702 47.0052 39.391 46.7778 39.5263L44.1514 41.0766C44.1031 41.1063 44.0434 41.103 43.9966 41.07L41.6991 39.4652H41.7008C41.4847 39.3399 41.2106 39.4042 41.0704 39.6137C40.9301 39.8231 40.9704 40.1068 41.1639 40.2668L43.5095 41.9094Z" fill="#034737"/>
<defs>
<filter id="filter0_bd_8_2801" x="-31.1333" y="-38.1333" width="150.267" height="154.086" filterUnits="userSpaceOnUse" color-interpolation-filters="sRGB">
<feFlood flood-opacity="0" result="BackgroundImageFix"/>
<feGaussianBlur in="BackgroundImageFix" stdDeviation="21.0667"/>
<feComposite in2="SourceAlpha" operator="in" result="effect1_backgroundBlur_8_2801"/>
<feColorMatrix in="SourceAlpha" type="matrix" values="0 0 0 0 0 0 0 0 0 0 0 0 0 0 0 0 0 0 127 0" result="hardAlpha"/>
<feOffset dy="6.4"/>
<feGaussianBlur stdDeviation="5.06667"/>
<feComposite in2="hardAlpha" operator="out"/>
<feColorMatrix type="matrix" values="0 0 0 0 0.0867708 0 0 0 0 0.115317 0 0 0 0 0.141667 0 0 0 0.08 0"/>
<feBlend mode="normal" in2="effect1_backgroundBlur_8_2801" result="effect2_dropShadow_8_2801"/>
<feBlend mode="normal" in="SourceGraphic" in2="effect2_dropShadow_8_2801" result="shape"/>
</filter>
<radialGradient id="paint0_radial_8_2801" cx="0" cy="0" r="1" gradientUnits="userSpaceOnUse" gradientTransform="translate(44 38.9097) rotate(90) scale(33.9097 32)">
<stop stopColor="white"/>
<stop offset="1" stopColor="white"/>
</radialGradient>
</defs>
</svg>
