<svg width="87" height="91" viewBox="0 0 87 91" fill="none" xmlns="http://www.w3.org/2000/svg">
<g filter="url(#filter0_bd_8_7413)">
<rect x="11.5586" y="5" width="64" height="67.8193" rx="20" fill="#E6A55B"/>
<rect x="11.0586" y="4.5" width="65" height="68.8193" rx="20.5" stroke="#EAEAEA"/>
</g>
<path d="M33.2963 25.7778C31.9111 25.7778 30.7778 26.9111 30.7778 28.2963C30.7778 29.6815 31.9111 30.8148 33.2963 30.8148C34.6815 30.8148 35.8148 29.6815 35.8148 28.2963C35.8148 26.9111 34.6815 25.7778 33.2963 25.7778ZM33.2963 25.7778C31.9111 25.7778 30.7778 26.9111 30.7778 28.2963C30.7778 29.6815 31.9111 30.8148 33.2963 30.8148C34.6815 30.8148 35.8148 29.6815 35.8148 28.2963C35.8148 26.9111 34.6815 25.7778 33.2963 25.7778ZM59.7407 22H28.2593C27.5667 22 27 22.5667 27 23.2593V38.3704H35.8148C36.1296 34.1519 39.6556 30.8148 44 30.8148C48.3444 30.8148 51.8074 34.1519 52.1852 38.3704H61V23.2593C61 22.5667 60.4333 22 59.7407 22ZM33.2963 32.0741C31.2185 32.0741 29.5185 30.3741 29.5185 28.2963C29.5185 26.2185 31.2185 24.5185 33.2963 24.5185C35.3741 24.5185 37.0741 26.2185 37.0741 28.2963C37.0741 30.3741 35.3741 32.0741 33.2963 32.0741ZM33.2963 25.7778C31.9111 25.7778 30.7778 26.9111 30.7778 28.2963C30.7778 29.6815 31.9111 30.8148 33.2963 30.8148C34.6815 30.8148 35.8148 29.6815 35.8148 28.2963C35.8148 26.9111 34.6815 25.7778 33.2963 25.7778ZM52.8148 45.2963V56H55.3333V45.2963H52.8148ZM49.2259 45.2963C49.037 45.4222 48.9111 45.5481 48.7222 45.6741V56H51.5556V45.2963H49.2259ZM32.6667 45.2963V56H35.1852V45.2963H32.6667ZM38.7741 45.2963H36.4444V56H39.2778V45.6741C39.0889 45.5481 38.963 45.4222 38.7741 45.2963ZM40.537 46.4296V56H43.3704V47.1852C42.363 47.0593 41.4185 46.8074 40.537 46.4296ZM44.6296 47.1852V56H47.463V46.4296C46.5815 46.8074 45.637 47.0593 44.6296 47.1852ZM44 32.0741C40.1593 32.0741 37.0741 35.1593 37.0741 39C37.0741 42.8407 40.1593 45.9259 44 45.9259C47.8407 45.9259 50.9259 42.8407 50.9259 39C50.9259 35.1593 47.8407 32.0741 44 32.0741ZM44 44.6667C40.8519 44.6667 38.3333 42.1481 38.3333 39C38.3333 35.8519 40.8519 33.3333 44 33.3333C47.1481 33.3333 49.6667 35.8519 49.6667 39C49.6667 42.1481 47.1481 44.6667 44 44.6667ZM44 34.5926C41.5444 34.5926 39.5926 36.5444 39.5926 39C39.5926 41.4556 41.5444 43.4074 44 43.4074C46.4556 43.4074 48.4074 41.4556 48.4074 39C48.4074 36.5444 46.4556 34.5926 44 34.5926ZM35.8148 39.6296H27V54.7407C27 55.4333 27.5667 56 28.2593 56H31.4074V45.2963C31.4074 44.6037 31.9741 44.037 32.6667 44.037H37.5778C36.5704 42.7778 36.0037 41.2667 35.8148 39.6296ZM52.1852 39.6296C52.0593 41.2667 51.4296 42.7778 50.4852 44.037H55.3333C56.0259 44.037 56.5926 44.6037 56.5926 45.2963V56H59.7407C60.4333 56 61 55.4333 61 54.7407V39.6296H52.1852Z" fill="white"/>
<defs>
<filter id="filter0_bd_8_7413" x="-31.5747" y="-38.1333" width="150.267" height="154.086" filterUnits="userSpaceOnUse" color-interpolation-filters="sRGB">
<feFlood flood-opacity="0" result="BackgroundImageFix"/>
<feGaussianBlur in="BackgroundImageFix" stdDeviation="21.0667"/>
<feComposite in2="SourceAlpha" operator="in" result="effect1_backgroundBlur_8_7413"/>
<feColorMatrix in="SourceAlpha" type="matrix" values="0 0 0 0 0 0 0 0 0 0 0 0 0 0 0 0 0 0 127 0" result="hardAlpha"/>
<feOffset dy="6.4"/>
<feGaussianBlur stdDeviation="5.06667"/>
<feComposite in2="hardAlpha" operator="out"/>
<feColorMatrix type="matrix" values="0 0 0 0 0.0867708 0 0 0 0 0.115317 0 0 0 0 0.141667 0 0 0 0.08 0"/>
<feBlend mode="normal" in2="effect1_backgroundBlur_8_7413" result="effect2_dropShadow_8_7413"/>
<feBlend mode="normal" in="SourceGraphic" in2="effect2_dropShadow_8_7413" result="shape"/>
</filter>
</defs>
</svg>
