<svg width="88" height="91" viewBox="0 0 88 91" fill="none" xmlns="http://www.w3.org/2000/svg">
<g filter="url(#filter0_bd_8_7419)">
<rect x="12" y="5" width="64" height="67.8193" rx="20" fill="#7243D5"/>
<rect x="11.5" y="4.5" width="65" height="68.8193" rx="20.5" stroke="#EAEAEA"/>
</g>
<path d="M63 30.8026V31.9413H41.1551C41.0127 31.9413 40.8736 31.9737 40.7482 32.0367L37.5473 33.6572H31.1456V30.8026C31.1456 28.7973 32.7647 27.1718 34.7618 27.1718H59.3836C60.3414 27.1718 61.262 27.5531 61.9402 28.2356C62.6183 28.9165 63 29.8391 63 30.8026ZM40.9381 48.6468V40.888C40.9381 39.8853 41.7468 39.0734 42.7454 39.0734H51.3988C51.8786 39.0734 52.3397 39.264 52.6788 39.6045C53.0178 39.945 53.2078 40.4062 53.2078 40.888V48.6468C53.2078 49.1286 53.0179 49.5899 52.6788 49.9303C52.3397 50.2707 51.8785 50.4614 51.3988 50.4614H42.7454C41.7468 50.4614 40.9381 49.6494 40.9381 48.6468ZM50.1236 41.2693C50.1168 41.7306 50.3864 42.1493 50.8068 42.3331C51.2273 42.517 51.7173 42.4268 52.0462 42.1084C52.3768 41.7884 52.4819 41.2999 52.3157 40.871C52.1479 40.4437 51.7393 40.1577 51.2815 40.1492C50.9798 40.1424 50.6882 40.2582 50.4712 40.4676C50.2541 40.6786 50.1287 40.9663 50.1236 41.2693ZM43.5964 44.769C43.5947 45.2967 43.7134 45.8158 43.944 46.2908C44.1695 46.7266 44.7001 46.9036 45.1409 46.6891C45.5817 46.4763 45.7716 45.9487 45.5715 45.5009C45.2477 44.8235 45.4071 44.0132 45.9649 43.5145C46.5227 43.014 47.3432 42.9442 47.9756 43.3442C48.6079 43.7443 48.9012 44.5154 48.6944 45.2371C48.4876 45.9571 47.8297 46.4542 47.0821 46.4542C46.582 46.4542 46.1768 46.8593 46.1768 47.3615C46.1768 47.8636 46.582 48.2688 47.0821 48.2688C48.491 48.2688 49.7625 47.416 50.3016 46.1087C50.8408 44.8014 50.5424 43.2966 49.5455 42.2957C48.5486 41.2948 47.0499 40.9952 45.7478 41.5365C44.4458 42.0778 43.5964 43.3545 43.5964 44.769ZM41.3805 33.7571H62.9998V52.3675C62.9998 53.3309 62.6183 54.2552 61.9402 54.9361C61.262 55.617 60.3414 56 59.3836 56H34.7618C32.7646 56 31.1456 54.3744 31.1456 52.3675V35.4728H37.7643C37.905 35.4711 38.0458 35.4353 38.1712 35.3689L41.3805 33.7571ZM42.7369 37.2569C40.7397 37.2569 39.1206 38.8825 39.1206 40.8877V48.6465C39.1206 49.6083 39.5004 50.5326 40.1802 51.2135C40.8584 51.8944 41.7773 52.2774 42.7369 52.2774H51.3985C52.3581 52.2774 53.2787 51.8944 53.9568 51.2135C54.635 50.5326 55.0164 49.6083 55.0164 48.6465V40.8877C55.0164 39.926 54.635 39.0017 53.9568 38.3208C53.2787 37.6399 52.3581 37.2569 51.3985 37.2569H42.7369ZM29.3366 50.7709V30.7971C29.3366 27.7893 31.7661 25.35 34.7618 25.35H57.7968C57.4764 23.4196 55.8132 22.0034 53.8635 22H29.9926C27.7886 22.0034 26.0017 23.7958 26 26.0087V46.8219C26.0017 48.7794 27.4123 50.4492 29.3366 50.7709Z" fill="white"/>
<defs>
<filter id="filter0_bd_8_7419" x="-31.1333" y="-38.1333" width="150.267" height="154.086" filterUnits="userSpaceOnUse" color-interpolation-filters="sRGB">
<feFlood flood-opacity="0" result="BackgroundImageFix"/>
<feGaussianBlur in="BackgroundImageFix" stdDeviation="21.0667"/>
<feComposite in2="SourceAlpha" operator="in" result="effect1_backgroundBlur_8_7419"/>
<feColorMatrix in="SourceAlpha" type="matrix" values="0 0 0 0 0 0 0 0 0 0 0 0 0 0 0 0 0 0 127 0" result="hardAlpha"/>
<feOffset dy="6.4"/>
<feGaussianBlur stdDeviation="5.06667"/>
<feComposite in2="hardAlpha" operator="out"/>
<feColorMatrix type="matrix" values="0 0 0 0 0.0867708 0 0 0 0 0.115317 0 0 0 0 0.141667 0 0 0 0.08 0"/>
<feBlend mode="normal" in2="effect1_backgroundBlur_8_7419" result="effect2_dropShadow_8_7419"/>
<feBlend mode="normal" in="SourceGraphic" in2="effect2_dropShadow_8_7419" result="shape"/>
</filter>
</defs>
</svg>
