<svg width="88" height="91" viewBox="0 0 88 91" fill="none" xmlns="http://www.w3.org/2000/svg">
<g filter="url(#filter0_bd_8_2213)">
<rect x="12" y="5" width="64" height="67.8193" rx="20" fill="url(#paint0_radial_8_2213)" fill-opacity="0.7" shape-rendering="crispEdges"/>
<rect x="11.5" y="4.5" width="65" height="68.8193" rx="20.5" stroke="#EAEAEA" shape-rendering="crispEdges"/>
</g>
<g filter="url(#filter1_bd_8_2213)">
<rect x="12" y="5" width="64" height="67.8193" rx="20" fill="url(#paint1_radial_8_2213)" fill-opacity="0.7" shape-rendering="crispEdges"/>
<rect x="11.5" y="4.5" width="65" height="68.8193" rx="20.5" stroke="#EAEAEA" shape-rendering="crispEdges"/>
</g>
<path d="M49.12 32.4285C50.7918 32.3471 51.049 35.0863 49.2143 34.8463C47.6925 34.8034 47.4996 32.4714 49.12 32.4285Z" fill="white"/>
<path d="M54.5984 38.9524C54.7313 29.1486 50.8047 27.8797 41.8496 28.4241C35.681 27.9483 33.259 32.6208 33.2419 38.1464C32.9075 43.5563 34.575 50.3937 41.3095 49.8192C49.7158 49.6692 54.9886 48.8161 54.5984 38.9524ZM39.8992 22.0797C49.5272 21.1838 60.6728 22.5641 60.8056 34.6142C61.1443 40.1612 61.3243 46.1069 58.6065 51.1396C55.713 56.0607 50.8904 55.855 45.8749 55.9707C41.4638 56.1465 36.9156 56.528 32.6632 55.0834C28.3293 53.583 27.1504 50.3122 27.2447 46.034C27.0947 42.3518 26.9446 38.678 27.0089 34.9914C27.2233 26.255 31.0385 21.8782 39.8992 22.0797Z" fill="#034737"/>
<path d="M41.8494 28.4235C50.8044 27.8791 54.7268 29.1479 54.5982 38.9517C54.9883 48.8155 49.7156 49.6643 41.3135 49.8186C34.5748 50.3931 32.9115 43.5514 33.2459 38.1458C33.2588 32.6202 35.6808 27.9476 41.8494 28.4235ZM52.712 39.2604C52.712 33.1904 51.9661 29.9753 45.073 30.2839C43.0239 30.4854 40.6277 30.181 38.57 30.8798C34.4376 32.8988 35.0078 38.4502 35.3893 42.2997C35.7622 48.5197 40.9192 48.3354 45.746 47.641C51.6746 47.328 52.7678 44.7688 52.712 39.2604Z" fill="white"/>
<path d="M44.6534 35.2787C40.2895 35.0558 38.9435 42.2447 43.7318 42.4376C48.2328 42.3304 48.923 36.5605 44.6534 35.2787ZM43.7403 33.6283C51.2764 33.1182 50.8135 44.2552 43.7061 44.178C36.9716 43.9723 37.6017 34.2285 43.7403 33.6283Z" fill="white"/>
<path d="M43.736 42.4376C38.9477 42.2404 40.2895 35.0515 44.6577 35.2787C48.923 36.5605 48.2328 42.3304 43.736 42.4376Z" fill="#034737"/>
<path d="M45.0733 30.2845C51.9663 29.9716 52.7165 33.1909 52.7122 39.2609C52.7637 44.7694 51.6749 47.3286 45.7463 47.6415C40.9194 48.336 35.7624 48.5203 35.3895 42.3003C35.008 38.4465 34.4421 32.8994 38.5703 30.8804C40.6279 30.1816 43.0242 30.486 45.0733 30.2845ZM43.7101 44.1779C50.8132 44.255 51.2805 33.118 43.7444 33.6282C37.6014 34.2283 36.9713 43.9721 43.7101 44.1779ZM49.2142 34.8456C51.049 35.0857 50.7918 32.3507 49.1199 32.4279C47.4996 32.4708 47.6925 34.8027 49.2142 34.8456Z" fill="#034737"/>
<defs>
<filter id="filter0_bd_8_2213" x="-31.1333" y="-38.1333" width="150.267" height="154.086" filterUnits="userSpaceOnUse" color-interpolation-filters="sRGB">
<feFlood flood-opacity="0" result="BackgroundImageFix"/>
<feGaussianBlur in="BackgroundImageFix" stdDeviation="21.0667"/>
<feComposite in2="SourceAlpha" operator="in" result="effect1_backgroundBlur_8_2213"/>
<feColorMatrix in="SourceAlpha" type="matrix" values="0 0 0 0 0 0 0 0 0 0 0 0 0 0 0 0 0 0 127 0" result="hardAlpha"/>
<feOffset dy="6.4"/>
<feGaussianBlur stdDeviation="5.06667"/>
<feComposite in2="hardAlpha" operator="out"/>
<feColorMatrix type="matrix" values="0 0 0 0 0.0867708 0 0 0 0 0.115317 0 0 0 0 0.141667 0 0 0 0.08 0"/>
<feBlend mode="normal" in2="effect1_backgroundBlur_8_2213" result="effect2_dropShadow_8_2213"/>
<feBlend mode="normal" in="SourceGraphic" in2="effect2_dropShadow_8_2213" result="shape"/>
</filter>
<filter id="filter1_bd_8_2213" x="-31.1333" y="-38.1333" width="150.267" height="154.086" filterUnits="userSpaceOnUse" color-interpolation-filters="sRGB">
<feFlood flood-opacity="0" result="BackgroundImageFix"/>
<feGaussianBlur in="BackgroundImageFix" stdDeviation="21.0667"/>
<feComposite in2="SourceAlpha" operator="in" result="effect1_backgroundBlur_8_2213"/>
<feColorMatrix in="SourceAlpha" type="matrix" values="0 0 0 0 0 0 0 0 0 0 0 0 0 0 0 0 0 0 127 0" result="hardAlpha"/>
<feOffset dy="6.4"/>
<feGaussianBlur stdDeviation="5.06667"/>
<feComposite in2="hardAlpha" operator="out"/>
<feColorMatrix type="matrix" values="0 0 0 0 0.0867708 0 0 0 0 0.115317 0 0 0 0 0.141667 0 0 0 0.08 0"/>
<feBlend mode="normal" in2="effect1_backgroundBlur_8_2213" result="effect2_dropShadow_8_2213"/>
<feBlend mode="normal" in="SourceGraphic" in2="effect2_dropShadow_8_2213" result="shape"/>
</filter>
<radialGradient id="paint0_radial_8_2213" cx="0" cy="0" r="1" gradientUnits="userSpaceOnUse" gradientTransform="translate(44 38.9097) rotate(90) scale(33.9097 32)">
<stop stopColor="white"/>
<stop offset="1" stopColor="white"/>
</radialGradient>
<radialGradient id="paint1_radial_8_2213" cx="0" cy="0" r="1" gradientUnits="userSpaceOnUse" gradientTransform="translate(44 38.9097) rotate(90) scale(33.9097 32)">
<stop stopColor="white"/>
<stop offset="1" stopColor="white"/>
</radialGradient>
</defs>
</svg>
