<svg width="88" height="91" viewBox="0 0 88 91" fill="none" xmlns="http://www.w3.org/2000/svg">
<g filter="url(#filter0_bd_8_2400)">
<rect x="12" y="5" width="64" height="67.8193" rx="20" fill="url(#paint0_radial_8_2400)" fill-opacity="0.7" shape-rendering="crispEdges"/>
<rect x="11.5" y="4.5" width="65" height="68.8193" rx="20.5" stroke="#EAEAEA" shape-rendering="crispEdges"/>
</g>
<g filter="url(#filter1_bd_8_2400)">
<rect x="12" y="5" width="64" height="67.8193" rx="20" fill="url(#paint1_radial_8_2400)" fill-opacity="0.7" shape-rendering="crispEdges"/>
<rect x="11.5" y="4.5" width="65" height="68.8193" rx="20.5" stroke="#EAEAEA" shape-rendering="crispEdges"/>
</g>
<g clip-path="url(#clip0_8_2400)">
<path fill-rule="evenodd" clip-rule="evenodd" d="M43.3858 50.6316C42.5406 53.9756 41.5163 56.9801 38.3885 59.7536C44.3681 58.2241 48.9853 55.1323 52.3733 50.6316H43.3858ZM53.3945 22H34.6049C30.4221 22 27 25.4224 27 29.6049V43.0264C27 47.2092 30.4221 50.6316 34.6049 50.6316H53.3945C57.5776 50.6316 61 47.2092 61 43.0264V29.6049C61 25.4224 57.5776 22 53.3945 22ZM35.0562 32.7894C36.7764 32.7894 38.1719 34.1849 38.1719 35.9052C38.1719 37.6254 36.7764 39.0209 35.0562 39.0209C33.3356 39.0209 31.9404 37.6254 31.9404 35.9052C31.9404 34.1846 33.3356 32.7894 35.0562 32.7894ZM52.9438 32.7894C54.6644 32.7894 56.0595 34.1849 56.0595 35.9052C56.0595 37.6254 54.6644 39.0209 52.9438 39.0209C51.2233 39.0209 49.8281 37.6254 49.8281 35.9052C49.8284 34.1846 51.2236 32.7894 52.9438 32.7894ZM44 32.7894C45.7202 32.7894 47.116 34.1849 47.116 35.9052C47.116 37.6254 45.7202 39.0209 44 39.0209C42.2794 39.0209 40.8843 37.6254 40.8843 35.9052C40.8843 34.1846 42.2794 32.7894 44 32.7894Z" fill="#034737"/>
</g>
<defs>
<filter id="filter0_bd_8_2400" x="-31.1333" y="-38.1333" width="150.267" height="154.086" filterUnits="userSpaceOnUse" color-interpolation-filters="sRGB">
<feFlood flood-opacity="0" result="BackgroundImageFix"/>
<feGaussianBlur in="BackgroundImageFix" stdDeviation="21.0667"/>
<feComposite in2="SourceAlpha" operator="in" result="effect1_backgroundBlur_8_2400"/>
<feColorMatrix in="SourceAlpha" type="matrix" values="0 0 0 0 0 0 0 0 0 0 0 0 0 0 0 0 0 0 127 0" result="hardAlpha"/>
<feOffset dy="6.4"/>
<feGaussianBlur stdDeviation="5.06667"/>
<feComposite in2="hardAlpha" operator="out"/>
<feColorMatrix type="matrix" values="0 0 0 0 0.0867708 0 0 0 0 0.115317 0 0 0 0 0.141667 0 0 0 0.08 0"/>
<feBlend mode="normal" in2="effect1_backgroundBlur_8_2400" result="effect2_dropShadow_8_2400"/>
<feBlend mode="normal" in="SourceGraphic" in2="effect2_dropShadow_8_2400" result="shape"/>
</filter>
<filter id="filter1_bd_8_2400" x="-31.1333" y="-38.1333" width="150.267" height="154.086" filterUnits="userSpaceOnUse" color-interpolation-filters="sRGB">
<feFlood flood-opacity="0" result="BackgroundImageFix"/>
<feGaussianBlur in="BackgroundImageFix" stdDeviation="21.0667"/>
<feComposite in2="SourceAlpha" operator="in" result="effect1_backgroundBlur_8_2400"/>
<feColorMatrix in="SourceAlpha" type="matrix" values="0 0 0 0 0 0 0 0 0 0 0 0 0 0 0 0 0 0 127 0" result="hardAlpha"/>
<feOffset dy="6.4"/>
<feGaussianBlur stdDeviation="5.06667"/>
<feComposite in2="hardAlpha" operator="out"/>
<feColorMatrix type="matrix" values="0 0 0 0 0.0867708 0 0 0 0 0.115317 0 0 0 0 0.141667 0 0 0 0.08 0"/>
<feBlend mode="normal" in2="effect1_backgroundBlur_8_2400" result="effect2_dropShadow_8_2400"/>
<feBlend mode="normal" in="SourceGraphic" in2="effect2_dropShadow_8_2400" result="shape"/>
</filter>
<radialGradient id="paint0_radial_8_2400" cx="0" cy="0" r="1" gradientUnits="userSpaceOnUse" gradientTransform="translate(44 38.9097) rotate(90) scale(33.9097 32)">
<stop stopColor="white"/>
<stop offset="1" stopColor="white"/>
</radialGradient>
<radialGradient id="paint1_radial_8_2400" cx="0" cy="0" r="1" gradientUnits="userSpaceOnUse" gradientTransform="translate(44 38.9097) rotate(90) scale(33.9097 32)">
<stop stopColor="white"/>
<stop offset="1" stopColor="white"/>
</radialGradient>
<clip-path id="clip0_8_2400">
<rect width="34" height="37.7539" fill="white" transform="translate(27 22)"/>
</clip-path>
</defs>
</svg>
