<svg width="88" height="91" viewBox="0 0 88 91" fill="none" xmlns="http://www.w3.org/2000/svg">
<g filter="url(#filter0_bd_8_2562)">
<rect x="12" y="5" width="64" height="67.8193" rx="20" fill="url(#paint0_radial_8_2562)" fill-opacity="0.7" shape-rendering="crispEdges"/>
<rect x="11.5" y="4.5" width="65" height="68.8193" rx="20.5" stroke="#EAEAEA" shape-rendering="crispEdges"/>
</g>
<path fill-rule="evenodd" clip-rule="evenodd" d="M53.91 38.4669C51.5316 38.4666 49.1524 38.4673 46.7744 38.4647C47.1165 37.7196 47.5342 35.7445 47.0082 33.0224C46.8008 31.9465 46.166 31.2308 45.3567 31.2452C44.7053 31.2561 44.0829 31.7588 44.0176 32.3857C43.9466 33.0745 43.777 34.0556 43.6169 34.7263C43.1048 36.8714 40.3646 39.7026 38.6319 40.6905V51.1672C39.8072 51.8319 41.0817 52.0641 42.4428 52.0385C44.5935 51.9973 50.7367 52.0328 51.85 52.026C52.6381 52.0207 53.4236 51.645 53.8013 50.694C54.3175 49.3957 52.9871 48.7465 52.9871 48.7465C52.9871 48.7465 54.4437 48.8183 54.7767 47.5112C55.1181 46.1698 53.7779 45.6392 53.7779 45.6392C54.6838 45.5399 55.2647 45.3043 55.4841 44.487C55.742 43.5252 55.123 42.8023 54.1431 42.3843C54.2918 42.3696 55.7881 42.1279 55.9225 40.6097C56.0698 38.9511 54.5237 38.4669 53.91 38.4669ZM37.1236 39.0255H33.1213C32.7131 39.0255 32.3826 39.3563 32.3826 39.7642V51.6174C32.3826 52.0252 32.7131 52.3561 33.1213 52.3561H37.1236C37.5318 52.3561 37.8627 52.0252 37.8627 51.6174V39.7642C37.8627 39.3563 37.5318 39.0255 37.1236 39.0255ZM56.0177 35.1282L57.56 34.3173L59.1023 35.1282L58.8081 33.4102L60.0559 32.1938L58.3315 31.9435L57.5604 30.3804L56.7892 31.9435L55.0649 32.1938L56.3126 33.4102L56.0177 35.1282ZM61 52.6654L59.2757 52.415L58.5045 50.8519L57.7333 52.415L56.009 52.6654L57.2568 53.8818L56.9626 55.5997L58.5049 54.7889L60.0472 55.5997L59.753 53.8818L61 52.6654ZM47.2763 27.7478L48.8186 26.937L50.3609 27.7478L50.0667 26.0299L51.3145 24.8135L49.5901 24.5631L48.819 23L48.0474 24.5631L46.3231 24.8135L47.5708 26.0299L47.2763 27.7478ZM33.491 33.6187L35.0333 32.8079L36.5756 33.6187L36.2814 31.9008L37.5292 30.6844L35.8049 30.434L35.0337 28.8709L34.2625 30.434L32.5382 30.6844L33.786 31.9008L33.491 33.6187ZM30.2667 51.7175L29.4955 50.1544L28.7243 51.7175L27 51.9678L28.2477 53.1842L27.9536 54.9022L29.4959 54.0914L31.0382 54.9022L30.744 53.1842L31.9917 51.9678L30.2667 51.7175Z" fill="#034737"/>
<defs>
<filter id="filter0_bd_8_2562" x="-31.1333" y="-38.1333" width="150.267" height="154.086" filterUnits="userSpaceOnUse" color-interpolation-filters="sRGB">
<feFlood flood-opacity="0" result="BackgroundImageFix"/>
<feGaussianBlur in="BackgroundImageFix" stdDeviation="21.0667"/>
<feComposite in2="SourceAlpha" operator="in" result="effect1_backgroundBlur_8_2562"/>
<feColorMatrix in="SourceAlpha" type="matrix" values="0 0 0 0 0 0 0 0 0 0 0 0 0 0 0 0 0 0 127 0" result="hardAlpha"/>
<feOffset dy="6.4"/>
<feGaussianBlur stdDeviation="5.06667"/>
<feComposite in2="hardAlpha" operator="out"/>
<feColorMatrix type="matrix" values="0 0 0 0 0.0867708 0 0 0 0 0.115317 0 0 0 0 0.141667 0 0 0 0.08 0"/>
<feBlend mode="normal" in2="effect1_backgroundBlur_8_2562" result="effect2_dropShadow_8_2562"/>
<feBlend mode="normal" in="SourceGraphic" in2="effect2_dropShadow_8_2562" result="shape"/>
</filter>
<radialGradient id="paint0_radial_8_2562" cx="0" cy="0" r="1" gradientUnits="userSpaceOnUse" gradientTransform="translate(44 38.9097) rotate(90) scale(33.9097 32)">
<stop stopColor="white"/>
<stop offset="1" stopColor="white"/>
</radialGradient>
</defs>
</svg>
