<svg width="88" height="91" viewBox="0 0 88 91" fill="none" xmlns="http://www.w3.org/2000/svg">
<g filter="url(#filter0_bd_8_7478)">
<rect x="12" y="5" width="64" height="67.8193" rx="20" fill="#5ABE86"/>
<rect x="11.5" y="4.5" width="65" height="68.8193" rx="20.5" stroke="#EAEAEA"/>
</g>
<path d="M36.1095 21H29.5158C28.6821 21 28 21.6821 28 22.5158V29.1095C28 29.9432 28.6821 30.6253 29.5158 30.6253H36.1095C36.9432 30.6253 37.6253 29.9432 37.6253 29.1095V22.5158C37.6253 21.6821 36.9432 21 36.1095 21Z" fill="white"/>
<path d="M41.6799 24.0316H59.5283C60.362 24.0316 61.0441 23.3495 61.0441 22.5158C61.0441 21.6821 60.362 21 59.5283 21H41.6799C40.8462 21 40.1641 21.6821 40.1641 22.5158C40.1641 23.3495 40.8462 24.0316 41.6799 24.0316Z" fill="white"/>
<path d="M41.6799 30.6253H55.8904C56.7241 30.6253 57.4062 29.9432 57.4062 29.1095C57.4062 28.2759 56.7241 27.5938 55.8904 27.5938H41.6799C40.8462 27.5938 40.1641 28.2759 40.1641 29.1095C40.1641 29.9432 40.8462 30.6253 41.6799 30.6253Z" fill="white"/>
<path d="M36.1095 34.1875H29.5158C28.6821 34.1875 28 34.8696 28 35.7033V42.297C28 43.1307 28.6821 43.8128 29.5158 43.8128H36.1095C36.9432 43.8128 37.6253 43.1307 37.6253 42.297V35.7033C37.6253 34.8696 36.9432 34.1875 36.1095 34.1875Z" fill="white"/>
<path d="M59.5283 34.1875H41.6799C40.8462 34.1875 40.1641 34.8696 40.1641 35.7033C40.1641 36.537 40.8462 37.2191 41.6799 37.2191H59.5283C60.362 37.2191 61.0441 36.537 61.0441 35.7033C61.0441 34.8696 60.362 34.1875 59.5283 34.1875Z" fill="white"/>
<path d="M41.6799 43.8128H55.8904C56.7241 43.8128 57.4062 43.1307 57.4062 42.297C57.4062 41.4634 56.7241 40.7812 55.8904 40.7812H41.6799C40.8462 40.7812 40.1641 41.4634 40.1641 42.297C40.1641 43.1307 40.8462 43.8128 41.6799 43.8128Z" fill="white"/>
<path d="M36.1095 47.375H29.5158C28.6821 47.375 28 48.0571 28 48.8908V55.4845C28 56.3182 28.6821 57.0003 29.5158 57.0003H36.1095C36.9432 57.0003 37.6253 56.3182 37.6253 55.4845V48.8908C37.6253 48.0571 36.9432 47.375 36.1095 47.375Z" fill="white"/>
<path d="M59.5283 47.375H41.6799C40.8462 47.375 40.1641 48.0571 40.1641 48.8908C40.1641 49.7245 40.8462 50.4066 41.6799 50.4066H59.5283C60.362 50.4066 61.0441 49.7245 61.0441 48.8908C61.0441 48.0571 60.362 47.375 59.5283 47.375Z" fill="white"/>
<path d="M55.8904 53.9688H41.6799C40.8462 53.9688 40.1641 54.6509 40.1641 55.4845C40.1641 56.3182 40.8462 57.0003 41.6799 57.0003H55.8904C56.7241 57.0003 57.4062 56.3182 57.4062 55.4845C57.4062 54.6509 56.7241 53.9688 55.8904 53.9688Z" fill="white"/>
<defs>
<filter id="filter0_bd_8_7478" x="-31.1333" y="-38.1333" width="150.267" height="154.086" filterUnits="userSpaceOnUse" color-interpolation-filters="sRGB">
<feFlood flood-opacity="0" result="BackgroundImageFix"/>
<feGaussianBlur in="BackgroundImageFix" stdDeviation="21.0667"/>
<feComposite in2="SourceAlpha" operator="in" result="effect1_backgroundBlur_8_7478"/>
<feColorMatrix in="SourceAlpha" type="matrix" values="0 0 0 0 0 0 0 0 0 0 0 0 0 0 0 0 0 0 127 0" result="hardAlpha"/>
<feOffset dy="6.4"/>
<feGaussianBlur stdDeviation="5.06667"/>
<feComposite in2="hardAlpha" operator="out"/>
<feColorMatrix type="matrix" values="0 0 0 0 0.0867708 0 0 0 0 0.115317 0 0 0 0 0.141667 0 0 0 0.08 0"/>
<feBlend mode="normal" in2="effect1_backgroundBlur_8_7478" result="effect2_dropShadow_8_7478"/>
<feBlend mode="normal" in="SourceGraphic" in2="effect2_dropShadow_8_7478" result="shape"/>
</filter>
</defs>
</svg>
