<svg width="88" height="91" viewBox="0 0 88 91" fill="none" xmlns="http://www.w3.org/2000/svg">
<g filter="url(#filter0_bd_8_7451)">
<rect x="12" y="5" width="64" height="67.8193" rx="20" fill="#7243D5"/>
<rect x="11.5" y="4.5" width="65" height="68.8193" rx="20.5" stroke="#EAEAEA"/>
</g>
<path d="M62.1029 19H36.1486C35.1023 19 34.2517 19.8654 34.2517 20.9269C34.2517 45.9615 34.2592 54.4385 34.2366 54.9346C34.1011 56.7038 33.3823 58.0462 32.1816 59H59.7619C62.0992 59 63.9998 57.0692 63.9998 54.6923V20.9269C63.9998 19.8654 63.1492 19 62.1029 19ZM38.1207 37.4308C38.1207 37.1115 38.3729 36.8538 38.6853 36.8538H47.3606C47.673 36.8538 47.9251 37.1115 47.9251 37.4308V46.25C47.9251 46.5692 47.673 46.8269 47.3606 46.8269H38.6853C38.3729 46.8269 38.1207 46.5692 38.1207 46.25V37.4308ZM59.5662 54.8462H38.6853C37.9401 54.8462 37.9401 53.6923 38.6853 53.6923H59.5662C60.3114 53.6923 60.3114 54.8462 59.5662 54.8462ZM59.5662 50.4385H38.6853C37.9401 50.4385 37.9401 49.2846 38.6853 49.2846H59.5662C60.3114 49.2846 60.3114 50.4385 59.5662 50.4385ZM59.5662 46.0308H51.4969C50.7517 46.0308 50.7517 44.8769 51.4969 44.8769H59.5662C60.3114 44.8769 60.3114 46.0308 59.5662 46.0308ZM59.5662 41.6231H51.4969C50.7517 41.6231 50.7517 40.4692 51.4969 40.4692H59.5662C60.3114 40.4692 60.3114 41.6231 59.5662 41.6231ZM59.5662 37.2154H51.4969C50.7517 37.2154 50.7517 36.0615 51.4969 36.0615H59.5662C60.3114 36.0615 60.3114 37.2154 59.5662 37.2154ZM60.1308 32.1808C60.1308 32.5 59.8786 32.7577 59.5662 32.7577H38.6853C38.3729 32.7577 38.1207 32.5 38.1207 32.1808V22.7269C38.1207 22.4077 38.3729 22.15 38.6853 22.15H59.5662C59.8786 22.15 60.1308 22.4077 60.1308 22.7269V32.1731V32.1808Z" fill="white"/>
<path d="M32.1818 38.0908H25.8319C24.8215 38.0908 24 38.9528 24 40.0101V54.7097C24 55.8666 24.4325 56.947 25.214 57.7591C27.831 60.4715 32.1818 58.4372 32.1818 54.5526V38.0908Z" fill="white"/>
<path d="M59.4541 23.5459H39.4541V31.7277H59.4541V23.5459Z" fill="white"/>
<path d="M46.7268 38.0908H39.4541V45.3635H46.7268V38.0908Z" fill="white"/>
<defs>
<filter id="filter0_bd_8_7451" x="-31.1333" y="-38.1333" width="150.267" height="154.086" filterUnits="userSpaceOnUse" color-interpolation-filters="sRGB">
<feFlood flood-opacity="0" result="BackgroundImageFix"/>
<feGaussianBlur in="BackgroundImageFix" stdDeviation="21.0667"/>
<feComposite in2="SourceAlpha" operator="in" result="effect1_backgroundBlur_8_7451"/>
<feColorMatrix in="SourceAlpha" type="matrix" values="0 0 0 0 0 0 0 0 0 0 0 0 0 0 0 0 0 0 127 0" result="hardAlpha"/>
<feOffset dy="6.4"/>
<feGaussianBlur stdDeviation="5.06667"/>
<feComposite in2="hardAlpha" operator="out"/>
<feColorMatrix type="matrix" values="0 0 0 0 0.0867708 0 0 0 0 0.115317 0 0 0 0 0.141667 0 0 0 0.08 0"/>
<feBlend mode="normal" in2="effect1_backgroundBlur_8_7451" result="effect2_dropShadow_8_7451"/>
<feBlend mode="normal" in="SourceGraphic" in2="effect2_dropShadow_8_7451" result="shape"/>
</filter>
</defs>
</svg>
