<svg width="88" height="91" viewBox="0 0 88 91" fill="none" xmlns="http://www.w3.org/2000/svg">
<g filter="url(#filter0_bd_8_3228)">
<rect x="12" y="5" width="64" height="67.8193" rx="20" fill="url(#paint0_radial_8_3228)" fill-opacity="0.7" shape-rendering="crispEdges"/>
<rect x="11.5" y="4.5" width="65" height="68.8193" rx="20.5" stroke="#EAEAEA" shape-rendering="crispEdges"/>
</g>
<path d="M47.5866 42.5285V34.0723C47.2367 34.4805 46.7702 34.8304 46.2453 35.0054L42.4546 36.4633V40.1375L46.2453 41.5955C46.7701 41.7704 47.2367 42.1202 47.5866 42.5285Z" fill="#034737"/>
<path d="M41.2881 39.9622V36.6963H38.2555C37.7889 36.6963 37.3807 36.8712 37.0891 37.1628C36.7975 37.4544 36.6226 37.8627 36.6226 38.3292C36.6226 39.204 37.3807 39.9622 38.2555 39.9622H41.2881Z" fill="#034737"/>
<path d="M42.8632 43.987V43.3455C42.8632 43.1122 42.6299 42.8789 42.3966 42.8789H42.2217L42.5133 43.987H42.8632Z" fill="#034737"/>
<path d="M48.9867 44.8032H49.1033C49.22 44.8032 49.3366 44.6866 49.3366 44.5699V32.0311C49.3366 31.9145 49.22 31.7979 49.1033 31.7979H48.9867C48.8701 31.7979 48.7534 31.9145 48.7534 32.0311V44.5699C48.7534 44.6866 48.8701 44.8032 48.9867 44.8032Z" fill="#034737"/>
<path d="M39.0723 41.1294L40.5303 46.0282H41.0551C41.3467 46.0282 41.6383 45.6783 41.6383 45.2701C41.6383 45.1535 41.6383 45.0368 41.58 44.9202L40.5302 41.0713H39.0723L39.0723 41.1294Z" fill="#034737"/>
<path d="M51.2028 39.3213V37.2801C51.2028 36.9302 50.9112 36.5803 50.5029 36.4053V40.2542C50.9112 40.0209 51.2028 39.7295 51.2028 39.3213Z" fill="#034737"/>
<path d="M43.9128 49.8764C49.978 49.8764 54.8769 44.9775 54.8769 38.9123C54.8769 32.8471 49.978 27.9482 43.9128 27.9482C37.8476 27.9482 32.9487 32.8471 32.9487 38.9123C32.9487 44.9775 37.8476 49.8764 43.9128 49.8764ZM35.4566 38.3289C35.4566 37.5708 35.7482 36.871 36.273 36.3461C36.7979 35.8212 37.4977 35.5296 38.2559 35.5296H41.7551L45.779 33.9549C46.2456 33.78 46.6538 33.4301 46.8871 33.0218L47.5286 31.9721C47.587 31.2139 48.1702 30.6307 48.9283 30.6307H49.045C49.8031 30.6307 50.4446 31.2722 50.4446 32.0304V35.1796C51.5527 35.4712 52.3108 36.2877 52.3108 37.2791V39.3203C52.3108 40.3118 51.4944 41.1866 50.4446 41.4198V44.5691C50.4446 45.3272 49.8031 45.9688 49.045 45.9688H48.9283C48.1702 45.9688 47.5869 45.3856 47.5286 44.6274L46.8871 43.5776C46.5955 43.1694 46.2456 42.8195 45.779 42.6445L41.7551 41.0699H41.6968L41.8717 41.7114H42.3966C43.2714 41.7114 44.0295 42.4696 44.0295 43.3444V44.2192C44.0295 44.744 43.6213 45.1523 43.0964 45.1523H42.8048V45.2689C42.8048 46.377 42.0467 47.1935 41.0552 47.1935H40.472C39.9472 47.1935 39.5389 46.8435 39.3639 46.3186L37.7893 41.0115C36.5063 40.8365 35.4566 39.7286 35.4566 38.3289Z" fill="#034737"/>
<path d="M60.3588 34.8302L57.5011 34.1303C57.3262 33.6638 57.1512 33.1972 56.918 32.7307L58.4343 30.1646C58.5509 29.9313 58.5509 29.6398 58.3176 29.4648L53.3606 24.5077C53.1856 24.3328 52.894 24.2744 52.6607 24.3911L50.0947 25.9074C49.6281 25.6741 49.1616 25.4991 48.695 25.3242L47.9952 22.4666C47.9368 22.175 47.7036 22 47.412 22H40.4136C40.122 22 39.8888 22.175 39.8304 22.4666L39.1306 25.3242C38.664 25.4992 38.1975 25.6741 37.7309 25.9074L35.1649 24.3911C34.9316 24.2744 34.64 24.2744 34.465 24.5077L29.508 29.4648C29.2747 29.6981 29.2747 30.048 29.508 30.2813C29.7412 30.5145 30.0912 30.5145 30.3244 30.2813L34.99 25.6157L37.4394 27.0737C37.6144 27.1903 37.8477 27.1903 38.0226 27.0737C38.6058 26.7821 39.2473 26.4905 39.8888 26.3155C40.0638 26.2572 40.2388 26.0823 40.2971 25.9073L40.8803 23.1662H47.0037L47.7036 25.9073C47.7619 26.0822 47.8785 26.2572 48.1118 26.3155C48.695 26.4905 49.3365 26.7821 49.9781 27.0737C50.153 27.1903 50.3863 27.132 50.5613 27.0737L53.0107 25.6157L57.3261 29.9312L55.8682 32.3806C55.7515 32.5555 55.7515 32.7888 55.8682 32.9638C56.1598 33.547 56.4514 34.1885 56.6263 34.83C56.6846 35.005 56.8596 35.1799 57.0346 35.2382L59.7756 35.9381V42.0615L57.0346 42.7614C56.8596 42.8197 56.6846 42.9363 56.6263 43.1696C56.4513 43.7528 56.1597 44.3943 55.8682 45.0359C55.7515 45.3275 55.8098 45.6774 56.1014 45.794C56.1598 45.8523 56.2764 45.8523 56.393 45.8523C56.6263 45.8523 56.8013 45.7357 56.9179 45.5607C57.2095 44.9775 57.4428 44.4526 57.676 43.8695L60.5337 43.1696C60.7669 43.1113 61.0002 42.878 61.0002 42.5864V35.413C60.8253 35.1214 60.6504 34.8885 60.3588 34.8302Z" fill="#034737"/>
<path d="M57.5592 47.5443L52.8937 52.2099L50.4443 50.7519C50.2693 50.6353 50.036 50.6353 49.8611 50.7519C49.2195 51.0435 48.6364 51.3351 47.9948 51.51C47.8199 51.5684 47.6449 51.7433 47.5866 51.9183L46.9451 54.6593H40.8798L40.18 51.9183C40.1217 51.7433 40.005 51.5684 39.7717 51.51C39.1885 51.3351 38.547 51.0435 37.9055 50.7519C37.7305 50.6353 37.4973 50.6936 37.3223 50.7519L34.8729 52.2099L30.5574 47.8944L32.0154 45.445C32.132 45.27 32.132 45.0367 32.0154 44.8618C31.7238 44.2203 31.4322 43.6371 31.2573 42.9956C31.1989 42.8206 31.024 42.6457 30.849 42.5873L28.1663 41.9458V35.8806L30.9074 35.1807C31.0823 35.1224 31.2573 35.0058 31.3156 34.7725C31.4906 34.1893 31.7822 33.5478 32.0737 32.9062C32.1904 32.6146 32.1321 32.2647 31.8405 32.1481C31.5489 32.0315 31.1989 32.0898 31.0823 32.3814C30.7907 32.9646 30.5575 33.4895 30.3242 34.0726L27.4666 34.8308C27.175 34.8891 27 35.1224 27 35.414V42.4123C27 42.7039 27.175 42.9372 27.4666 42.9955L30.3242 43.6953C30.4992 44.1619 30.6741 44.6284 30.9074 45.095L29.3911 47.6611C29.2744 47.8943 29.2744 48.1859 29.5077 48.3609L34.4648 53.318C34.6397 53.4929 34.9313 53.5512 35.1646 53.4346L37.7307 51.9183C38.1972 52.1516 38.6638 52.3265 39.1303 52.5015L39.8302 55.3591C39.8885 55.5924 40.1218 55.8257 40.4134 55.8257H47.4117C47.7033 55.8257 47.9366 55.6507 47.9949 55.3591L48.6947 52.5015C49.1613 52.3265 49.6279 52.1516 50.0944 51.9183L52.6605 53.4346C52.8938 53.5512 53.1853 53.5512 53.3603 53.318L58.3174 48.3609C58.5507 48.1276 58.5507 47.7777 58.3174 47.5444C58.0841 47.3111 57.7342 47.311 57.5592 47.5443Z" fill="#034737"/>
<defs>
<filter id="filter0_bd_8_3228" x="-31.1333" y="-38.1333" width="150.267" height="154.086" filterUnits="userSpaceOnUse" color-interpolation-filters="sRGB">
<feFlood flood-opacity="0" result="BackgroundImageFix"/>
<feGaussianBlur in="BackgroundImageFix" stdDeviation="21.0667"/>
<feComposite in2="SourceAlpha" operator="in" result="effect1_backgroundBlur_8_3228"/>
<feColorMatrix in="SourceAlpha" type="matrix" values="0 0 0 0 0 0 0 0 0 0 0 0 0 0 0 0 0 0 127 0" result="hardAlpha"/>
<feOffset dy="6.4"/>
<feGaussianBlur stdDeviation="5.06667"/>
<feComposite in2="hardAlpha" operator="out"/>
<feColorMatrix type="matrix" values="0 0 0 0 0.0867708 0 0 0 0 0.115317 0 0 0 0 0.141667 0 0 0 0.08 0"/>
<feBlend mode="normal" in2="effect1_backgroundBlur_8_3228" result="effect2_dropShadow_8_3228"/>
<feBlend mode="normal" in="SourceGraphic" in2="effect2_dropShadow_8_3228" result="shape"/>
</filter>
<radialGradient id="paint0_radial_8_3228" cx="0" cy="0" r="1" gradientUnits="userSpaceOnUse" gradientTransform="translate(44 38.9097) rotate(90) scale(33.9097 32)">
<stop stopColor="white"/>
<stop offset="1" stopColor="white"/>
</radialGradient>
</defs>
</svg>
