<svg width="88" height="91" viewBox="0 0 88 91" fill="none" xmlns="http://www.w3.org/2000/svg">
<g filter="url(#filter0_bd_8_2202)">
<rect x="12" y="5" width="64" height="67.8193" rx="20" fill="url(#paint0_radial_8_2202)" fill-opacity="0.7" shape-rendering="crispEdges"/>
<rect x="11.5" y="4.5" width="65" height="68.8193" rx="20.5" stroke="#EAEAEA" shape-rendering="crispEdges"/>
</g>
<path d="M44.2656 30.6328C39.5055 30.6328 35.6328 34.5055 35.6328 39.2656C35.6328 44.0258 39.5055 47.8984 44.2656 47.8984C49.0258 47.8984 52.8984 44.0258 52.8984 39.2656C52.8984 34.5055 49.0258 30.6328 44.2656 30.6328ZM44.2656 46.5703C40.2378 46.5703 36.9609 43.2934 36.9609 39.2656C36.9609 35.2378 40.2378 31.9609 44.2656 31.9609C48.2934 31.9609 51.5703 35.2378 51.5703 39.2656C51.5703 43.2934 48.2934 46.5703 44.2656 46.5703Z" fill="#034737"/>
<path d="M44.2654 33.8086C41.2565 33.8086 38.8086 36.2565 38.8086 39.2655C38.8086 42.2744 41.2565 44.7223 44.2654 44.7223C47.2744 44.7223 49.7223 42.2744 49.7223 39.2655C49.7223 36.2565 47.2744 33.8086 44.2654 33.8086ZM44.2654 43.3942C41.9888 43.3942 40.1367 41.5421 40.1367 39.2655C40.1367 36.9888 41.9888 35.1367 44.2654 35.1367C46.542 35.1367 48.3942 36.9888 48.3942 39.2655C48.3942 41.5421 46.542 43.3942 44.2654 43.3942ZM42.0076 26.5155L43.6014 25.3201V28.6405C43.6014 29.0072 43.8987 29.3045 44.2654 29.3045C44.6321 29.3045 44.9295 29.0072 44.9295 28.6405V25.3201L46.5232 26.5155C46.815 26.7342 47.2315 26.6777 47.4529 26.3826C47.6729 26.0893 47.6135 25.673 47.3201 25.453C44.4844 23.3271 44.6394 23.4366 44.5624 23.3981C44.3111 23.2779 44.0458 23.325 43.867 23.4608L41.2107 25.453C40.9174 25.673 40.8579 26.0893 41.0779 26.3826C41.2979 26.676 41.7142 26.7355 42.0076 26.5155ZM46.5232 52.0155L44.9295 53.2108V49.8905C44.9295 49.5238 44.6321 49.2264 44.2654 49.2264C43.8987 49.2264 43.6014 49.5238 43.6014 49.8905V53.2108L42.0076 52.0155C41.7142 51.7954 41.2979 51.8548 41.0779 52.1483C40.8579 52.4416 40.9174 52.8579 41.2107 53.078L43.867 55.0701C43.9386 55.1241 44.0286 55.1665 44.1261 55.1877C44.2385 55.2119 44.3199 55.2047 44.4167 55.1856C44.5029 55.1654 44.5896 55.1257 44.6639 55.0702L47.3201 53.078C47.6135 52.858 47.6729 52.4417 47.4529 52.1483C47.2329 51.8549 46.8167 51.7955 46.5232 52.0155ZM51.3284 32.222C51.5878 32.4813 52.0081 32.4813 52.2676 32.222L54.6153 29.8742L54.8971 31.8464C54.9487 32.2079 55.2835 32.4619 55.6483 32.4099C56.0114 32.358 56.2637 32.0217 56.2118 31.6586C55.7457 28.4478 55.7545 28.3718 55.7149 28.2556C55.6439 28.0467 55.4812 27.8937 55.2802 27.8316C55.2043 27.808 55.4558 27.848 51.8919 27.3386C51.5289 27.2864 51.1924 27.539 51.1406 27.9021C51.0887 28.2651 51.341 28.6015 51.7041 28.6533L53.6762 28.9351L51.3284 31.2829C51.0691 31.5422 51.0691 31.9627 51.3284 32.222ZM37.2415 46.3088C36.9822 46.0496 36.5617 46.0496 36.3024 46.3088L33.9546 48.6566L33.6728 46.6845C33.621 46.3214 33.2842 46.069 32.9216 46.121C32.5585 46.1729 32.3062 46.5093 32.3581 46.8723L32.8277 50.1593C32.8683 50.4188 33.044 50.6159 33.2702 50.6934C33.3724 50.7287 33.1777 50.6891 36.6781 51.1923C37.0404 51.244 37.3774 50.9927 37.4294 50.6289C37.4812 50.2658 37.229 49.9295 36.8659 49.8776L34.8938 49.5959L37.2416 47.2481C37.5009 46.9887 37.5008 46.5682 37.2415 46.3088ZM60.0718 38.8697C59.9616 38.7264 60.611 39.5888 58.0779 36.2108C57.8579 35.9174 57.4417 35.8579 57.1482 36.078C56.8549 36.298 56.7954 36.7143 57.0154 37.0076L58.2107 38.6014H54.8904C54.5237 38.6014 54.2264 38.8987 54.2264 39.2655C54.2264 39.6321 54.5237 39.9295 54.8904 39.9295H58.2107L57.0154 41.5233C56.6833 41.9661 57.0087 42.5858 57.5461 42.5858C57.748 42.5858 57.9474 42.4941 58.0779 42.3201C60.1913 39.4992 60.1178 39.6248 60.1673 39.4793C60.2406 39.2595 60.1941 39.0343 60.0718 38.8697ZM30.3201 39.9295H33.6404C34.0072 39.9295 34.3045 39.6321 34.3045 39.2655C34.3045 38.8987 34.0072 38.6014 33.6404 38.6014H30.3201L31.5154 37.0076C31.7354 36.7143 31.676 36.298 31.3826 36.078C31.0892 35.8579 30.673 35.9174 30.4529 36.2108C28.3465 39.0228 28.4539 38.8675 28.4127 38.9415C28.2884 39.1615 28.3008 39.438 28.4518 39.6507C28.4848 39.6968 29.9925 41.7059 30.4529 42.3201C30.5834 42.4941 30.7828 42.5858 30.9847 42.5858C31.5213 42.5858 31.8483 41.9671 31.5154 41.5233L30.3201 39.9295ZM55.6484 46.121C55.2853 46.0694 54.949 46.3215 54.8971 46.6845L54.6154 48.6566L52.2676 46.3088C52.0084 46.0496 51.588 46.0496 51.3285 46.3088C51.0691 46.5681 51.0691 46.9886 51.3285 47.248L53.6763 49.5958L51.7041 49.8776C51.341 49.9294 51.0887 50.2658 51.1407 50.6288C51.188 50.9601 51.472 51.1991 51.7972 51.1991C51.8865 51.1991 51.7149 51.2152 55.1789 50.7227C55.497 50.6718 55.7028 50.4289 55.7418 50.1623C55.77 49.9361 55.6 51.1538 56.212 46.8723C56.2638 46.5093 56.0115 46.173 55.6484 46.121ZM33.0163 32.4166C33.3415 32.4166 33.6256 32.1775 33.6729 31.8463L33.9546 29.8742L36.3024 32.222C36.4321 32.3517 36.602 32.4165 36.7719 32.4165C36.9419 32.4165 37.1119 32.3517 37.2415 32.222C37.5008 31.9627 37.5008 31.5422 37.2415 31.2828L34.8937 28.935L36.8658 28.6533C37.2289 28.6014 37.4812 28.2651 37.4293 27.902C37.3774 27.5389 37.0406 27.2867 36.678 27.3386C33.1986 27.8358 33.3866 27.8017 33.291 27.831C33.0367 27.9093 32.8623 28.1258 32.8276 28.3716L32.3581 31.6586C32.3009 32.0583 32.6111 32.4166 33.0163 32.4166Z" fill="#034737"/>
<defs>
<filter id="filter0_bd_8_2202" x="-31.1333" y="-38.1333" width="150.267" height="154.086" filterUnits="userSpaceOnUse" color-interpolation-filters="sRGB">
<feFlood flood-opacity="0" result="BackgroundImageFix"/>
<feGaussianBlur in="BackgroundImageFix" stdDeviation="21.0667"/>
<feComposite in2="SourceAlpha" operator="in" result="effect1_backgroundBlur_8_2202"/>
<feColorMatrix in="SourceAlpha" type="matrix" values="0 0 0 0 0 0 0 0 0 0 0 0 0 0 0 0 0 0 127 0" result="hardAlpha"/>
<feOffset dy="6.4"/>
<feGaussianBlur stdDeviation="5.06667"/>
<feComposite in2="hardAlpha" operator="out"/>
<feColorMatrix type="matrix" values="0 0 0 0 0.0867708 0 0 0 0 0.115317 0 0 0 0 0.141667 0 0 0 0.08 0"/>
<feBlend mode="normal" in2="effect1_backgroundBlur_8_2202" result="effect2_dropShadow_8_2202"/>
<feBlend mode="normal" in="SourceGraphic" in2="effect2_dropShadow_8_2202" result="shape"/>
</filter>
<radialGradient id="paint0_radial_8_2202" cx="0" cy="0" r="1" gradientUnits="userSpaceOnUse" gradientTransform="translate(44 38.9097) rotate(90) scale(33.9097 32)">
<stop stopColor="white"/>
<stop offset="1" stopColor="white"/>
</radialGradient>
</defs>
</svg>
