<svg width="87" height="87" viewBox="0 0 87 87" fill="none" xmlns="http://www.w3.org/2000/svg">
<g filter="url(#filter0_bd_6860_1911)">
<rect x="11.5" y="5" width="64" height="64" rx="20" fill="#5ABE86" shape-rendering="crispEdges"/>
<rect x="11" y="4.5" width="65" height="65" rx="20.5" stroke="#EAEAEA" shape-rendering="crispEdges"/>
<path d="M51.2297 51.4761L51.6848 49.262L54.0376 45.4997H54.6758V35.367H44.3932C43.6163 35.367 42.9837 35.9996 42.9837 36.7765V38.1733C43.1217 38.1282 43.2663 38.0975 43.4193 38.0975H45.7663V39.1396H43.4193C43.2144 39.1396 43.0475 39.3063 43.0475 39.5114C43.0475 39.5638 43.0485 40.7549 43.0486 40.8324C43.1019 40.8324 45.6021 40.831 45.7663 40.8309V41.873H42.9987C42.9934 41.873 42.989 41.8758 42.9837 41.8761V43.4798C42.4843 43.6962 42.1403 44.1901 42.1403 44.7672V45.8548C42.1403 46.3931 42.5787 46.8315 43.1169 46.8315H48.5162C47.5515 49.4705 47.5507 49.3663 47.5507 49.5339V51.1432C47.5507 52.1698 48.383 52.9966 49.4041 52.9966C50.3086 52.9966 51.0744 52.3529 51.2297 51.4761ZM61.5012 35.3115H55.719V45.4997H61.5012V35.3115ZM58.3943 38.6218H57.3528V37.6724H58.3943V38.6218ZM26.9117 43.6743L27.8589 43.2408C26.9848 41.33 26.5415 39.2784 26.5415 37.1427H25.5C25.5 39.429 25.9747 41.6264 26.9117 43.6743ZM41.3573 51.9579C39.2211 51.9579 37.1694 51.5149 35.2592 50.6408L34.8257 51.5881C36.873 52.525 39.0704 53 41.3573 53V51.9579ZM60.4579 32.8573H61.4995C61.4995 30.3743 60.9126 27.91 59.8017 25.7307L58.8739 26.2038C59.91 28.2373 60.4579 30.5379 60.4579 32.8573ZM45.6422 17V18.0421C47.9892 18.0421 50.2299 18.5732 52.3027 19.6212L52.7731 18.6913C50.5529 17.5693 48.1539 17 45.6422 17ZM30.4427 51.6093C32.396 51.6093 33.9886 50.0167 33.9886 48.0578C33.9886 46.1046 32.396 44.512 30.4427 44.512C28.4838 44.512 26.8912 46.1046 26.8912 48.0578C26.8912 50.0167 28.4838 51.6093 30.4427 51.6093ZM60.0085 22.038C60.0085 20.0791 58.4214 18.4865 56.4626 18.4865C54.5093 18.4865 52.9167 20.0791 52.9167 22.038C52.9167 23.9913 54.5093 25.5838 56.4626 25.5838C58.4214 25.5838 60.0085 23.9913 60.0085 22.038ZM39.4669 18.858C39.4669 17.8314 38.6346 17.0045 37.6135 17.0045C36.709 17.0045 35.9432 17.6482 35.7878 18.525L35.3328 20.7391L32.98 24.5014H32.3418V34.6341H42.6244C43.4012 34.6341 44.0338 34.0015 44.0338 33.2246V31.8278C43.8958 31.8729 43.7512 31.9036 43.5983 31.9036H41.2513V30.8615H43.5983C43.8032 30.8615 43.9701 30.6948 43.9701 30.4897C43.97 30.4373 43.969 29.2463 43.969 29.1687C43.9156 29.1687 41.4155 29.1701 41.2513 29.1702V28.1281H44.0188C44.0242 28.1281 44.0286 28.1253 44.0338 28.1251V26.5213C44.5332 26.3049 44.8773 25.811 44.8773 25.2339V24.1463C44.8773 23.608 44.4389 23.1696 43.9007 23.1696H38.5013C39.466 20.5306 39.4669 20.6347 39.4669 20.4672V18.858ZM31.2986 24.5014H25.5164V34.6896H31.2986V24.5014ZM29.6648 32.3287H28.6233V31.3793H29.6648V32.3287Z" fill="white"/>
</g>
<defs>
<filter id="filter0_bd_6860_1911" x="-31.6333" y="-38.1333" width="150.267" height="150.267" filterUnits="userSpaceOnUse" color-interpolation-filters="sRGB">
<feFlood flood-opacity="0" result="BackgroundImageFix"/>
<feGaussianBlur in="BackgroundImageFix" stdDeviation="21.0667"/>
<feComposite in2="SourceAlpha" operator="in" result="effect1_backgroundBlur_6860_1911"/>
<feColorMatrix in="SourceAlpha" type="matrix" values="0 0 0 0 0 0 0 0 0 0 0 0 0 0 0 0 0 0 127 0" result="hardAlpha"/>
<feOffset dy="6.4"/>
<feGaussianBlur stdDeviation="5.06667"/>
<feComposite in2="hardAlpha" operator="out"/>
<feColorMatrix type="matrix" values="0 0 0 0 0.0867708 0 0 0 0 0.115317 0 0 0 0 0.141667 0 0 0 0.08 0"/>
<feBlend mode="normal" in2="effect1_backgroundBlur_6860_1911" result="effect2_dropShadow_6860_1911"/>
<feBlend mode="normal" in="SourceGraphic" in2="effect2_dropShadow_6860_1911" result="shape"/>
</filter>
</defs>
</svg>
