<svg width="88" height="91" viewBox="0 0 88 91" fill="none" xmlns="http://www.w3.org/2000/svg">
<g filter="url(#filter0_bd_8_7956)">
<rect x="12" y="5" width="64" height="67.8193" rx="20" fill="#7243D5"/>
<rect x="11.5" y="4.5" width="65" height="68.8193" rx="20.5" stroke="#EAEAEA"/>
</g>
<path d="M39.2737 47.1104L26.0694 57.1962C26.0308 57.0158 26 56.8354 26 56.6472V36.0599L32.1666 41.1892L39.2737 47.1104ZM56.8331 41.2598L49.7263 47.1104L62.9306 57.1962C62.9692 57.0158 63 56.8354 63 56.6472V36.1854L56.8331 41.2598ZM32.1669 29.2762L26.3007 34.2799L32.1669 39.158V29.2762ZM44.5 45.079L26.9174 58.5138C27.3028 58.8118 27.7884 59 28.3126 59H60.687C61.2112 59 61.6968 58.8118 62.0822 58.5138L48.4926 48.1298L44.5 45.079ZM44.9933 19.1823C44.7081 18.9392 44.2919 18.9392 44.0067 19.1823L41.463 21.3548H47.5368L44.9933 19.1823ZM62.7224 34.295L56.8331 29.2757V39.2436L62.7683 34.3576C62.7683 34.3576 62.7456 34.3107 62.7224 34.295ZM50.6666 29.9031C49.1558 29.5894 47.9687 28.3817 47.6603 26.8444H41.3399C41.0315 28.3816 39.8445 29.5894 38.3336 29.9031V33.1186H50.6668L50.6666 29.9031ZM40.5455 46.1376L33.7085 40.4437V25.2758C33.7085 23.9818 34.7491 22.923 36.021 22.923H52.979C54.2509 22.923 55.2915 23.9818 55.2915 25.2758V40.514L48.4545 46.1451L44.9627 43.4786C44.6852 43.2669 44.3152 43.2669 44.0377 43.4786L40.5459 46.1451L40.5455 46.1376ZM46.0416 40.1772C46.0416 39.7458 45.6948 39.3929 45.2708 39.3929H43.7292C43.3052 39.3929 42.9584 39.7458 42.9584 40.1772C42.9584 40.6085 43.3052 40.9614 43.7292 40.9614H45.2708C45.6948 40.9614 46.0416 40.6085 46.0416 40.1772ZM46.0416 37.0401C46.0416 36.6087 45.6948 36.2558 45.2708 36.2558H43.7292C43.3052 36.2558 42.9584 36.6087 42.9584 37.0401C42.9584 37.4714 43.3052 37.8244 43.7292 37.8244H45.2708C45.6948 37.8244 46.0416 37.4714 46.0416 37.0401ZM52.2082 40.1772C52.2082 39.7458 51.8613 39.3929 51.4374 39.3929H48.3541C47.9301 39.3929 47.5833 39.7458 47.5833 40.1772C47.5833 40.6085 47.9301 40.9614 48.3541 40.9614H51.4374C51.8613 40.9614 52.2082 40.6085 52.2082 40.1772ZM52.2082 37.0401C52.2082 36.6087 51.8613 36.2558 51.4374 36.2558H48.3541C47.9301 36.2558 47.5833 36.6087 47.5833 37.0401C47.5833 37.4714 47.9301 37.8244 48.3541 37.8244H51.4374C51.8613 37.8244 52.2082 37.4714 52.2082 37.0401ZM36.7918 33.903C36.7918 34.3344 37.1387 34.6873 37.5626 34.6873H51.4374C51.8613 34.6873 52.2082 34.3344 52.2082 33.903V29.1974C52.2082 28.766 51.8613 28.4131 51.4374 28.4131C50.1655 28.4131 49.1249 27.3544 49.1249 26.0603C49.1249 25.629 48.7781 25.2761 48.3541 25.2761H40.6459C40.2219 25.2761 39.8751 25.629 39.8751 26.0603C39.8751 27.3544 38.8345 28.4131 37.5626 28.4131C37.1387 28.4131 36.7918 28.766 36.7918 29.1974V33.903ZM36.7918 37.0401C36.7918 37.4714 37.1387 37.8244 37.5626 37.8244H40.6459C41.0699 37.8244 41.4167 37.4714 41.4167 37.0401C41.4167 36.6087 41.0699 36.2558 40.6459 36.2558H37.5626C37.1387 36.2558 36.7918 36.6087 36.7918 37.0401ZM37.5626 40.9614H40.6459C41.0699 40.9614 41.4167 40.6085 41.4167 40.1772C41.4167 39.7458 41.0699 39.3929 40.6459 39.3929H37.5626C37.1387 39.3929 36.7918 39.7458 36.7918 40.1772C36.7918 40.6085 37.1387 40.9614 37.5626 40.9614Z" fill="white"/>
<defs>
<filter id="filter0_bd_8_7956" x="-31.1333" y="-38.1333" width="150.267" height="154.086" filterUnits="userSpaceOnUse" color-interpolation-filters="sRGB">
<feFlood flood-opacity="0" result="BackgroundImageFix"/>
<feGaussianBlur in="BackgroundImageFix" stdDeviation="21.0667"/>
<feComposite in2="SourceAlpha" operator="in" result="effect1_backgroundBlur_8_7956"/>
<feColorMatrix in="SourceAlpha" type="matrix" values="0 0 0 0 0 0 0 0 0 0 0 0 0 0 0 0 0 0 127 0" result="hardAlpha"/>
<feOffset dy="6.4"/>
<feGaussianBlur stdDeviation="5.06667"/>
<feComposite in2="hardAlpha" operator="out"/>
<feColorMatrix type="matrix" values="0 0 0 0 0.0867708 0 0 0 0 0.115317 0 0 0 0 0.141667 0 0 0 0.08 0"/>
<feBlend mode="normal" in2="effect1_backgroundBlur_8_7956" result="effect2_dropShadow_8_7956"/>
<feBlend mode="normal" in="SourceGraphic" in2="effect2_dropShadow_8_7956" result="shape"/>
</filter>
</defs>
</svg>
