<svg width="88" height="91" viewBox="0 0 88 91" fill="none" xmlns="http://www.w3.org/2000/svg">
<g filter="url(#filter0_bd_8_2806)">
<rect x="12" y="5" width="64" height="67.8193" rx="20" fill="url(#paint0_radial_8_2806)" fill-opacity="0.7" shape-rendering="crispEdges"/>
<rect x="11.5" y="4.5" width="65" height="68.8193" rx="20.5" stroke="#EAEAEA" shape-rendering="crispEdges"/>
</g>
<path fill-rule="evenodd" clip-rule="evenodd" d="M29.3532 27.4064C29.7464 26.9298 30.4508 26.8627 30.9266 27.2565C31.4024 27.6503 31.4694 28.3559 31.0762 28.8325C30.1826 29.9156 29.4268 31.1066 28.8286 32.3768C28.5652 32.9359 27.8992 33.1754 27.341 32.9116C26.7828 32.6478 26.5437 31.9807 26.807 31.4216C27.4849 29.9823 28.3411 28.6331 29.3532 27.4064ZM25.1434 37.172C25.2191 36.5585 25.7771 36.1226 26.3897 36.1985C27.0022 36.2744 27.4374 36.8333 27.3616 37.4468C27.2236 38.5651 27.198 39.7014 27.2878 40.8442C27.3074 41.0935 27.3323 41.3418 27.3627 41.5888C27.438 42.2024 27.0024 42.761 26.3898 42.8364C25.7772 42.9119 25.2195 42.4756 25.1442 41.862C25.1099 41.5825 25.0816 41.3018 25.0595 41.0198C24.9579 39.7268 24.9869 38.4395 25.1434 37.172ZM26.7738 47.5651C26.5131 47.0047 26.7552 46.3388 27.3147 46.0776C27.8741 45.8165 28.539 46.059 28.7998 46.6194C29.3924 47.8931 30.1431 49.0854 31.0324 50.1703C31.4241 50.6481 31.3549 51.3534 30.8778 51.7457C30.4008 52.138 29.6965 52.0687 29.3049 51.5909C28.297 50.3614 27.4459 49.0096 26.7738 47.5651ZM44 51.2803C37.5191 51.2803 32.2653 46.0181 32.2653 39.5268C32.2653 33.0355 37.5191 27.7733 44 27.7733C50.4809 27.7733 55.7347 33.0355 55.7347 39.5268C55.7347 46.0181 50.4809 51.2803 44 51.2803ZM56.9238 28.8325C56.5306 28.3559 56.5976 27.6503 57.0734 27.2565C57.5492 26.8627 58.2536 26.9298 58.6468 27.4064C59.6589 28.6331 60.5151 29.9823 61.193 31.4216C61.4563 31.9807 61.2172 32.6478 60.659 32.9116C60.1008 33.1754 59.4348 32.9359 59.1714 32.3768C58.5732 31.1066 57.8174 29.9156 56.9238 28.8325ZM60.6384 37.4468C60.5626 36.8333 60.9978 36.2744 61.6103 36.1985C62.2229 36.1226 62.7809 36.5585 62.8566 37.172C63.0131 38.4395 63.0421 39.7268 62.9405 41.0198C62.9184 41.3018 62.8901 41.5825 62.8558 41.862C62.7805 42.4756 62.2228 42.9119 61.6102 42.8364C60.9976 42.761 60.562 42.2024 60.6373 41.5888C60.6677 41.3418 60.6926 41.0935 60.7122 40.8442C60.802 39.7014 60.7765 38.5651 60.6384 37.4468ZM59.2002 46.6194C59.461 46.059 60.1259 45.8165 60.6853 46.0776C61.2448 46.3388 61.4869 47.0047 61.2262 47.5651C60.5541 49.0096 59.703 50.3614 58.6951 51.5909C58.3035 52.0687 57.5992 52.138 57.1222 51.7457C56.6451 51.3534 56.5759 50.6481 56.9676 50.1703C57.8569 49.0854 58.6076 47.8931 59.2002 46.6194Z" fill="#034737"/>
<defs>
<filter id="filter0_bd_8_2806" x="-31.1333" y="-38.1333" width="150.267" height="154.086" filterUnits="userSpaceOnUse" color-interpolation-filters="sRGB">
<feFlood flood-opacity="0" result="BackgroundImageFix"/>
<feGaussianBlur in="BackgroundImageFix" stdDeviation="21.0667"/>
<feComposite in2="SourceAlpha" operator="in" result="effect1_backgroundBlur_8_2806"/>
<feColorMatrix in="SourceAlpha" type="matrix" values="0 0 0 0 0 0 0 0 0 0 0 0 0 0 0 0 0 0 127 0" result="hardAlpha"/>
<feOffset dy="6.4"/>
<feGaussianBlur stdDeviation="5.06667"/>
<feComposite in2="hardAlpha" operator="out"/>
<feColorMatrix type="matrix" values="0 0 0 0 0.0867708 0 0 0 0 0.115317 0 0 0 0 0.141667 0 0 0 0.08 0"/>
<feBlend mode="normal" in2="effect1_backgroundBlur_8_2806" result="effect2_dropShadow_8_2806"/>
<feBlend mode="normal" in="SourceGraphic" in2="effect2_dropShadow_8_2806" result="shape"/>
</filter>
<radialGradient id="paint0_radial_8_2806" cx="0" cy="0" r="1" gradientUnits="userSpaceOnUse" gradientTransform="translate(44 38.9097) rotate(90) scale(33.9097 32)">
<stop stopColor="white"/>
<stop offset="1" stopColor="white"/>
</radialGradient>
</defs>
</svg>
