<svg width="88" height="91" viewBox="0 0 88 91" fill="none" xmlns="http://www.w3.org/2000/svg">
<g filter="url(#filter0_bd_8_7710)">
<rect x="12" y="5" width="64" height="67.8193" rx="20" fill="#CC63D4"/>
<rect x="11.5" y="4.5" width="65" height="68.8193" rx="20.5" stroke="#EAEAEA"/>
</g>
<g clip-path="url(#clip0_8_7710)">
<path d="M59 28.5H49.25C49.0511 28.5 48.8603 28.579 48.7197 28.7197C48.579 28.8603 48.5 29.0511 48.5 29.25V32.25C48.5 32.8467 48.2629 33.419 47.841 33.841C47.419 34.2629 46.8467 34.5 46.25 34.5H41.75C41.1533 34.5 40.581 34.2629 40.159 33.841C39.7371 33.419 39.5 32.8467 39.5 32.25V29.25C39.5 29.0511 39.421 28.8603 39.2803 28.7197C39.1397 28.579 38.9489 28.5 38.75 28.5H29C28.2044 28.5 27.4413 28.8161 26.8787 29.3787C26.3161 29.9413 26 30.7044 26 31.5V49.5C26 50.2956 26.3161 51.0587 26.8787 51.6213C27.4413 52.1839 28.2044 52.5 29 52.5H59C59.7957 52.5 60.5587 52.1839 61.1213 51.6213C61.6839 51.0587 62 50.2956 62 49.5V31.5C62 30.7044 61.6839 29.9413 61.1213 29.3787C60.5587 28.8161 59.7957 28.5 59 28.5ZM35.75 34.5C36.4917 34.5 37.2167 34.7199 37.8334 35.132C38.4501 35.544 38.9307 36.1297 39.2145 36.8149C39.4984 37.5002 39.5726 38.2542 39.4279 38.9816C39.2833 39.709 38.9261 40.3772 38.4017 40.9017C37.8772 41.4261 37.209 41.7833 36.4816 41.9279C35.7542 42.0726 35.0002 41.9984 34.3149 41.7145C33.6297 41.4307 33.044 40.9501 32.632 40.3334C32.2199 39.7167 32 38.9917 32 38.25C32 37.2554 32.3951 36.3016 33.0983 35.5983C33.8016 34.8951 34.7554 34.5 35.75 34.5ZM42.5 47.76C42.5163 48.2031 42.3567 48.6347 42.056 48.9607C41.7553 49.2866 41.338 49.4805 40.895 49.5H30.605C30.162 49.4805 29.7447 49.2866 29.444 48.9607C29.1433 48.6347 28.9837 48.2031 29 47.76V47.28C28.987 46.6825 29.1295 46.0918 29.4135 45.5659C29.6975 45.04 30.1132 44.5969 30.62 44.28C32.1703 43.3421 33.9386 42.825 35.75 42.78C37.5614 42.825 39.3297 43.3421 40.88 44.28C41.3868 44.5969 41.8025 45.04 42.0865 45.5659C42.3705 46.0918 42.513 46.6825 42.5 47.28V47.76ZM56.75 45H47.75C47.5511 45 47.3603 44.921 47.2197 44.7803C47.079 44.6397 47 44.4489 47 44.25C47 44.0511 47.079 43.8603 47.2197 43.7197C47.3603 43.579 47.5511 43.5 47.75 43.5H56.75C56.9489 43.5 57.1397 43.579 57.2803 43.7197C57.421 43.8603 57.5 44.0511 57.5 44.25C57.5 44.4489 57.421 44.6397 57.2803 44.7803C57.1397 44.921 56.9489 45 56.75 45ZM56.75 40.5H44.75C44.5511 40.5 44.3603 40.421 44.2197 40.2803C44.079 40.1397 44 39.9489 44 39.75C44 39.5511 44.079 39.3603 44.2197 39.2197C44.3603 39.079 44.5511 39 44.75 39H56.75C56.9489 39 57.1397 39.079 57.2803 39.2197C57.421 39.3603 57.5 39.5511 57.5 39.75C57.5 39.9489 57.421 40.1397 57.2803 40.2803C57.1397 40.421 56.9489 40.5 56.75 40.5Z" fill="white"/>
<path d="M41.75 33H46.25C46.4489 33 46.6397 32.921 46.7803 32.7803C46.921 32.6397 47 32.4489 47 32.25V28.5C47 27.7044 46.6839 26.9413 46.1213 26.3787C45.5587 25.8161 44.7956 25.5 44 25.5C43.2044 25.5 42.4413 25.8161 41.8787 26.3787C41.3161 26.9413 41 27.7044 41 28.5V32.25C41 32.4489 41.079 32.6397 41.2197 32.7803C41.3603 32.921 41.5511 33 41.75 33Z" fill="white"/>
</g>
<defs>
<filter id="filter0_bd_8_7710" x="-31.1333" y="-38.1333" width="150.267" height="154.086" filterUnits="userSpaceOnUse" color-interpolation-filters="sRGB">
<feFlood flood-opacity="0" result="BackgroundImageFix"/>
<feGaussianBlur in="BackgroundImageFix" stdDeviation="21.0667"/>
<feComposite in2="SourceAlpha" operator="in" result="effect1_backgroundBlur_8_7710"/>
<feColorMatrix in="SourceAlpha" type="matrix" values="0 0 0 0 0 0 0 0 0 0 0 0 0 0 0 0 0 0 127 0" result="hardAlpha"/>
<feOffset dy="6.4"/>
<feGaussianBlur stdDeviation="5.06667"/>
<feComposite in2="hardAlpha" operator="out"/>
<feColorMatrix type="matrix" values="0 0 0 0 0.0867708 0 0 0 0 0.115317 0 0 0 0 0.141667 0 0 0 0.08 0"/>
<feBlend mode="normal" in2="effect1_backgroundBlur_8_7710" result="effect2_dropShadow_8_7710"/>
<feBlend mode="normal" in="SourceGraphic" in2="effect2_dropShadow_8_7710" result="shape"/>
</filter>
<clip-path id="clip0_8_7710">
<rect width="36" height="36" fill="white" transform="translate(26 21)"/>
</clip-path>
</defs>
</svg>
