<svg width="87" height="91" viewBox="0 0 87 91" fill="none" xmlns="http://www.w3.org/2000/svg">
<g filter="url(#filter0_bd_8_3188)">
<rect x="11.5586" y="5" width="64" height="67.8193" rx="20" fill="url(#paint0_radial_8_3188)" fill-opacity="0.7" shape-rendering="crispEdges"/>
<rect x="11.0586" y="4.5" width="65" height="68.8193" rx="20.5" stroke="#EAEAEA" shape-rendering="crispEdges"/>
</g>
<path d="M37.1429 47.4996C39.1548 47.4996 40.7857 45.8686 40.7857 43.8567C40.7857 41.8448 39.1548 40.2139 37.1429 40.2139C35.131 40.2139 33.5 41.8448 33.5 43.8567C33.5 45.8686 35.131 47.4996 37.1429 47.4996Z" fill="#034737"/>
<path d="M44.8655 48.7139H43.2143C42.0952 48.7139 41.1627 47.9529 40.8811 46.9231C39.9903 48.0076 38.6558 48.7139 37.1429 48.7139C34.4603 48.7139 32.2857 46.5392 32.2857 43.8567C32.2857 41.1742 34.4603 38.9996 37.1429 38.9996C38.6019 38.9996 39.8954 39.6562 40.7857 40.6747V36.2032C40.3233 35.9833 39.8464 35.7894 39.3423 35.6544L38.4721 32.1737C38.4046 31.9035 38.1617 31.7139 37.8831 31.7139H36.4026C36.124 31.7139 35.8811 31.9035 35.8136 32.1737L34.9434 35.6544C34.2182 35.8485 33.5318 36.1334 32.8968 36.5008L29.8216 34.6557C29.5828 34.5123 29.277 34.55 29.08 34.747L28.0331 35.7938C27.8361 35.9908 27.7985 36.2966 27.9418 36.5355L29.7869 39.6107C29.4195 40.2457 29.1347 40.9321 28.9406 41.6573L25.4599 42.5275C25.1896 42.595 25 42.8379 25 43.1165V44.597C25 44.8756 25.1896 45.1184 25.4599 45.186L28.9406 46.0561C29.1347 46.7813 29.4195 47.4678 29.7869 48.1028L27.9418 51.1779C27.7985 51.4168 27.8361 51.7226 28.0331 51.9196L29.08 52.9665C29.277 53.1635 29.5828 53.2011 29.8216 53.0578L32.8968 51.2127C33.5318 51.5801 34.2182 51.8649 34.9434 52.059L35.8136 55.5397C35.8811 55.81 36.124 55.9996 36.4026 55.9996H37.8831C38.1617 55.9996 38.4046 55.81 38.4721 55.5397L39.3423 52.059C40.0675 51.8649 40.7539 51.5801 41.3889 51.2127L44.4641 53.0578C44.7029 53.2011 45.0087 53.1635 45.2057 52.9665L46.2526 51.9196C46.4496 51.7226 46.4872 51.4168 46.3439 51.1779L44.8655 48.7139Z" fill="#034737"/>
<path d="M54.1426 25.6429H46.8569V23.2143C46.8569 22.5437 47.4006 22 48.0712 22H52.9284C53.599 22 54.1426 22.5437 54.1426 23.2143V25.6429Z" fill="#034737"/>
<path d="M57.7857 24.4287H55.3571V25.643C55.3571 26.3136 54.8135 26.8573 54.1429 26.8573H46.8571C46.1865 26.8573 45.6429 26.3136 45.6429 25.643V24.4287H43.2143C42.5436 24.4287 42 24.9723 42 25.643V46.2859C42 46.9564 42.5436 47.5001 43.2143 47.5001H57.7857C58.4564 47.5001 59 46.9564 59 46.2859V25.643C59 24.9723 58.4564 24.4287 57.7857 24.4287ZM49.1078 42.4651L46.6793 44.8937C46.5607 45.0123 46.4053 45.0716 46.25 45.0716C46.0947 45.0716 45.9393 45.0123 45.8207 44.8937L44.6064 43.6794C44.3693 43.4422 44.3693 43.058 44.6064 42.8209C44.8436 42.5837 45.2278 42.5837 45.465 42.8209L46.25 43.6059L48.2493 41.6066C48.4865 41.3694 48.8707 41.3694 49.1078 41.6066C49.345 41.8438 49.345 42.228 49.1078 42.4651ZM49.1078 36.3937L46.6793 38.8223C46.5607 38.9408 46.4053 39.0001 46.25 39.0001C46.0947 39.0001 45.9393 38.9408 45.8207 38.8223L44.6064 37.608C44.3693 37.3708 44.3693 36.9866 44.6064 36.7494C44.8436 36.5123 45.2278 36.5123 45.465 36.7494L46.25 37.5345L48.2493 35.5352C48.4865 35.298 48.8707 35.298 49.1078 35.5352C49.345 35.7723 49.345 36.1565 49.1078 36.3937ZM49.1078 30.3223L46.6793 32.7508C46.5607 32.8694 46.4053 32.9287 46.25 32.9287C46.0947 32.9287 45.9393 32.8694 45.8207 32.7508L44.6064 31.5366C44.3693 31.2994 44.3693 30.9152 44.6064 30.678C44.8436 30.4408 45.2278 30.4408 45.465 30.678L46.25 31.463L48.2493 29.4637C48.4865 29.2266 48.8707 29.2266 49.1078 29.4637C49.345 29.7009 49.345 30.0851 49.1078 30.3223Z" fill="#034737"/>
<defs>
<filter id="filter0_bd_8_3188" x="-31.5747" y="-38.1333" width="150.267" height="154.086" filterUnits="userSpaceOnUse" color-interpolation-filters="sRGB">
<feFlood flood-opacity="0" result="BackgroundImageFix"/>
<feGaussianBlur in="BackgroundImageFix" stdDeviation="21.0667"/>
<feComposite in2="SourceAlpha" operator="in" result="effect1_backgroundBlur_8_3188"/>
<feColorMatrix in="SourceAlpha" type="matrix" values="0 0 0 0 0 0 0 0 0 0 0 0 0 0 0 0 0 0 127 0" result="hardAlpha"/>
<feOffset dy="6.4"/>
<feGaussianBlur stdDeviation="5.06667"/>
<feComposite in2="hardAlpha" operator="out"/>
<feColorMatrix type="matrix" values="0 0 0 0 0.0867708 0 0 0 0 0.115317 0 0 0 0 0.141667 0 0 0 0.08 0"/>
<feBlend mode="normal" in2="effect1_backgroundBlur_8_3188" result="effect2_dropShadow_8_3188"/>
<feBlend mode="normal" in="SourceGraphic" in2="effect2_dropShadow_8_3188" result="shape"/>
</filter>
<radialGradient id="paint0_radial_8_3188" cx="0" cy="0" r="1" gradientUnits="userSpaceOnUse" gradientTransform="translate(43.5586 38.9097) rotate(90) scale(33.9097 32)">
<stop stopColor="white"/>
<stop offset="1" stopColor="white"/>
</radialGradient>
</defs>
</svg>
