<svg width="88" height="91" viewBox="0 0 88 91" fill="none" xmlns="http://www.w3.org/2000/svg">
<g filter="url(#filter0_bd_8_2233)">
<rect x="12" y="5" width="64" height="67.8193" rx="20" fill="url(#paint0_radial_8_2233)" fill-opacity="0.7" shape-rendering="crispEdges"/>
<rect x="11.5" y="4.5" width="65" height="68.8193" rx="20.5" stroke="#EAEAEA" shape-rendering="crispEdges"/>
</g>
<path d="M46.9318 50.3182C46.9202 50.3182 46.9105 50.3248 46.8988 50.3248H37.2816C37.0561 50.3248 36.8399 50.2353 36.6805 50.0758C36.5211 49.9164 36.4316 49.7002 36.4316 49.4748C36.4316 49.2494 36.5211 49.0332 36.6805 48.8738C36.8399 48.7144 37.0561 48.6248 37.2816 48.6248H46.8741L46.8988 48.6199C48.6496 48.62 50.3618 48.1057 51.8227 47.1409C53.2837 46.1761 54.4289 44.8033 55.1162 43.1931C55.8035 41.5828 56.0025 39.8062 55.6885 38.0838C55.3745 36.3614 54.5614 34.7692 53.3501 33.5051C52.1388 32.241 50.5828 31.3606 48.8753 30.9734C47.1679 30.5862 45.3844 30.7092 43.7463 31.3272C42.1082 31.9451 40.6878 33.0308 39.6615 34.4492C38.6352 35.8677 38.0483 37.5564 37.9738 39.3056C37.961 39.5284 37.8611 39.7372 37.6956 39.887C37.5302 40.0368 37.3125 40.1155 37.0895 40.1061C36.8665 40.0967 36.6562 40 36.5039 39.8369C36.3516 39.6738 36.2695 39.4573 36.2755 39.2342C36.3713 36.8656 37.2584 34.5976 38.7949 32.7925L38.2849 32.2825C38.2037 32.2041 38.139 32.1103 38.0944 32.0066C38.0499 31.9029 38.0264 31.7914 38.0254 31.6785C38.0244 31.5657 38.046 31.4537 38.0887 31.3493C38.1314 31.2448 38.1945 31.1499 38.2744 31.0701C38.3542 30.9903 38.4491 30.9272 38.5535 30.8844C38.658 30.8417 38.7699 30.8202 38.8828 30.8212C38.9956 30.8222 39.1072 30.8456 39.2109 30.8901C39.3146 30.9347 39.4084 30.9995 39.4868 31.0806L40.001 31.5944C41.3034 30.4827 42.855 29.7019 44.5238 29.3184C46.1927 28.935 47.9294 28.9601 49.5865 29.3918C51.2435 29.8235 52.7718 30.6489 54.0414 31.7979C55.311 32.9469 56.2844 34.3854 56.8788 35.9913C57.4732 37.5971 57.6711 39.3228 57.4556 41.0215C57.24 42.7202 56.6175 44.3418 55.6409 45.7483C54.6643 47.1548 53.3625 48.3048 51.8462 49.1003C50.3299 49.8958 48.6441 50.314 46.9318 50.3182ZM50.8142 35.7752C50.6548 35.6158 50.4387 35.5263 50.2133 35.5263C49.9879 35.5263 49.7717 35.6158 49.6123 35.7752L47.1494 38.2378C47.0675 38.2133 46.9837 38.1963 46.8988 38.1868C46.6015 38.1868 46.3108 38.275 46.0636 38.4402C45.8164 38.6054 45.6237 38.8402 45.5099 39.1149C45.3961 39.3896 45.3664 39.6918 45.4244 39.9835C45.4824 40.2751 45.6256 40.5429 45.8358 40.7532C46.0461 40.9634 46.314 41.1066 46.6056 41.1646C46.8972 41.2225 47.1995 41.1928 47.4742 41.0789C47.7489 40.9651 47.9837 40.7724 48.1488 40.5252C48.314 40.2779 48.4021 39.9873 48.4021 39.6899C48.3926 39.6051 48.3756 39.5212 48.3511 39.4394L50.8141 36.9764C50.9732 36.8171 51.0626 36.6011 51.0627 36.3758C51.0627 36.1506 50.9734 35.9346 50.8142 35.7752ZM45.5175 27.3748H48.2809C48.5063 27.3748 48.7225 27.2853 48.8819 27.1258C49.0413 26.9664 49.1309 26.7502 49.1309 26.5248C49.1309 26.2994 49.0413 26.0832 48.8819 25.9238C48.7225 25.7644 48.5063 25.6748 48.2809 25.6748H45.5175C45.2921 25.6748 45.0759 25.7644 44.9165 25.9238C44.7571 26.0832 44.6675 26.2994 44.6675 26.5248C44.6675 26.7502 44.7571 26.9664 44.9165 27.1258C45.0759 27.2853 45.2921 27.3748 45.5175 27.3748ZM44.91 46.0748C44.91 45.8494 44.8204 45.6332 44.661 45.4738C44.5016 45.3144 44.2854 45.2248 44.06 45.2248H33.4805C33.2551 45.2248 33.0389 45.3144 32.8795 45.4738C32.7201 45.6332 32.6305 45.8494 32.6305 46.0748C32.6305 46.3002 32.7201 46.5164 32.8795 46.6758C33.0389 46.8353 33.2551 46.9248 33.4805 46.9248H44.06C44.2854 46.9248 44.5016 46.8353 44.661 46.6758C44.8204 46.5164 44.91 46.3002 44.91 46.0748ZM45.2452 42.6748C45.2452 42.4494 45.1556 42.2332 44.9962 42.0738C44.8368 41.9144 44.6206 41.8248 44.3952 41.8248H31.31C31.0845 41.8248 30.8683 41.9144 30.7089 42.0738C30.5495 42.2332 30.46 42.4494 30.46 42.6748C30.46 42.9002 30.5495 43.1164 30.7089 43.2758C30.8683 43.4353 31.0845 43.5248 31.31 43.5248H44.3952C44.6206 43.5248 44.8368 43.4353 44.9962 43.2758C45.1556 43.1164 45.2452 42.9002 45.2452 42.6748Z" fill="#034737"/>
<defs>
<filter id="filter0_bd_8_2233" x="-31.1333" y="-38.1333" width="150.267" height="154.086" filterUnits="userSpaceOnUse" color-interpolation-filters="sRGB">
<feFlood flood-opacity="0" result="BackgroundImageFix"/>
<feGaussianBlur in="BackgroundImageFix" stdDeviation="21.0667"/>
<feComposite in2="SourceAlpha" operator="in" result="effect1_backgroundBlur_8_2233"/>
<feColorMatrix in="SourceAlpha" type="matrix" values="0 0 0 0 0 0 0 0 0 0 0 0 0 0 0 0 0 0 127 0" result="hardAlpha"/>
<feOffset dy="6.4"/>
<feGaussianBlur stdDeviation="5.06667"/>
<feComposite in2="hardAlpha" operator="out"/>
<feColorMatrix type="matrix" values="0 0 0 0 0.0867708 0 0 0 0 0.115317 0 0 0 0 0.141667 0 0 0 0.08 0"/>
<feBlend mode="normal" in2="effect1_backgroundBlur_8_2233" result="effect2_dropShadow_8_2233"/>
<feBlend mode="normal" in="SourceGraphic" in2="effect2_dropShadow_8_2233" result="shape"/>
</filter>
<radialGradient id="paint0_radial_8_2233" cx="0" cy="0" r="1" gradientUnits="userSpaceOnUse" gradientTransform="translate(44 38.9097) rotate(90) scale(33.9097 32)">
<stop stopColor="white"/>
<stop offset="1" stopColor="white"/>
</radialGradient>
</defs>
</svg>
