<svg width="88" height="91" viewBox="0 0 88 91" fill="none" xmlns="http://www.w3.org/2000/svg">
<g filter="url(#filter0_bd_8_2994)">
<rect x="12" y="5" width="64" height="67.8193" rx="20" fill="url(#paint0_radial_8_2994)" fill-opacity="0.7" shape-rendering="crispEdges"/>
<rect x="11.5" y="4.5" width="65" height="68.8193" rx="20.5" stroke="#EAEAEA" shape-rendering="crispEdges"/>
</g>
<g filter="url(#filter1_bd_8_2994)">
<rect x="12" y="5" width="64" height="67.8193" rx="20" fill="url(#paint1_radial_8_2994)" fill-opacity="0.7" shape-rendering="crispEdges"/>
<rect x="11.5" y="4.5" width="65" height="68.8193" rx="20.5" stroke="#EAEAEA" shape-rendering="crispEdges"/>
</g>
<path d="M60.4847 35.9092H58.4241C58.2874 35.9092 58.1564 35.9635 58.0598 36.0601C57.9632 36.1567 57.9089 36.2877 57.9089 36.4243C57.9089 36.561 57.9632 36.692 58.0598 36.7886C58.1564 36.8852 58.2874 36.9395 58.4241 36.9395H59.2431L48.6362 47.5465L45.3959 44.301C45.2986 44.2045 45.1671 44.1503 45.0301 44.1503C44.8931 44.1503 44.7616 44.2045 44.6644 44.301L37.6944 51.271C37.271 50.9962 36.7773 50.8495 36.2725 50.8486C35.7631 50.8486 35.2651 50.9996 34.8415 51.2827C34.4179 51.5657 34.0878 51.968 33.8928 52.4386C33.6979 52.9093 33.6469 53.4272 33.7463 53.9268C33.8457 54.4265 34.091 54.8854 34.4512 55.2457C34.8114 55.6059 35.2704 55.8512 35.77 55.9506C36.2697 56.05 36.7876 55.999 37.2582 55.804C37.7289 55.6091 38.1312 55.2789 38.4142 54.8553C38.6972 54.4318 38.8483 53.9338 38.8483 53.4243C38.8474 52.9196 38.7007 52.4259 38.4259 52.0025L45.0301 45.3931L48.2704 48.6386C48.3677 48.7351 48.4992 48.7892 48.6362 48.7892C48.7732 48.7892 48.9047 48.7351 49.0019 48.6386L59.9695 37.6658V38.4849C59.9695 38.6216 60.0238 38.7526 60.1204 38.8492C60.217 38.9458 60.348 39.0001 60.4847 39.0001C60.6213 39.0001 60.7523 38.9458 60.8489 38.8492C60.9455 38.7526 60.9998 38.6216 60.9998 38.4849V36.4243C60.9994 36.2878 60.945 36.157 60.8485 36.0605C60.752 35.964 60.6212 35.9096 60.4847 35.9092Z" fill="#034737"/>
<path d="M45.5453 34.3635C45.5453 33.1408 45.1827 31.9456 44.5035 30.929C43.8242 29.9124 42.8587 29.1201 41.7291 28.6522C40.5996 28.1843 39.3566 28.0619 38.1574 28.3004C36.9583 28.539 35.8568 29.1277 34.9923 29.9923C34.1277 30.8568 33.539 31.9583 33.3004 33.1574C33.0619 34.3566 33.1843 35.5996 33.6522 36.7291C34.1201 37.8587 34.9124 38.8242 35.929 39.5035C36.9456 40.1827 38.1408 40.5453 39.3635 40.5453C41.0026 40.544 42.5742 39.8923 43.7332 38.7332C44.8923 37.5742 45.544 36.0026 45.5453 34.3635ZM38.8483 34.3635V29.7271C38.8483 29.5905 38.9026 29.4594 38.9992 29.3628C39.0958 29.2662 39.2268 29.2119 39.3635 29.2119C39.5001 29.2119 39.6311 29.2662 39.7277 29.3628C39.8243 29.4594 39.8786 29.5905 39.8786 29.7271V33.8483H42.9695C43.1061 33.8483 43.2372 33.9026 43.3338 33.9992C43.4304 34.0958 43.4847 34.2268 43.4847 34.3635C43.4847 34.5001 43.4304 34.6311 43.3338 34.7277C43.2372 34.8243 43.1061 34.8786 42.9695 34.8786H39.3635C39.227 34.8782 39.0962 34.8238 38.9996 34.7273C38.9031 34.6308 38.8487 34.5 38.8483 34.3635Z" fill="#034737"/>
<path d="M43.9382 43.5745C44.2279 43.2851 44.6207 43.1225 45.0303 43.1225C45.4399 43.1225 45.8327 43.2851 46.1224 43.5745L48.6364 46.0885L52.2424 42.4824V27.1515C52.2422 26.4685 51.9707 25.8134 51.4877 25.3305C51.0047 24.8475 50.3497 24.576 49.6667 24.5758C49.6659 23.8929 49.3942 23.2382 48.9114 22.7553C48.4285 22.2724 47.7738 22.0008 47.0909 22H29.5758C28.8929 22.0008 28.2382 22.2724 27.7553 22.7553C27.2724 23.2382 27.0008 23.8929 27 24.5758V44.6667C27.0008 45.3496 27.2724 46.0042 27.7553 46.4871C28.2382 46.97 28.8929 47.2416 29.5758 47.2424C29.576 47.9255 29.8475 48.5805 30.3305 49.0635C30.8134 49.5465 31.4685 49.8179 32.1515 49.8182H37.6945L43.9382 43.5745ZM29.5758 27.1515V46.2121C29.166 46.2117 28.7732 46.0487 28.4835 45.759C28.1937 45.4692 28.0308 45.0764 28.0303 44.6667V24.5758C28.0308 24.166 28.1937 23.7732 28.4835 23.4835C28.7732 23.1937 29.166 23.0308 29.5758 23.0303H47.0909C47.5007 23.0308 47.8935 23.1937 48.1832 23.4835C48.4729 23.7732 48.6359 24.166 48.6364 24.5758H32.1515C31.4685 24.576 30.8134 24.8475 30.3305 25.3305C29.8475 25.8134 29.576 26.4685 29.5758 27.1515ZM32.1515 34.3636C32.1515 32.9372 32.5745 31.5428 33.367 30.3568C34.1595 29.1708 35.2858 28.2464 36.6037 27.7005C37.9215 27.1546 39.3716 27.0118 40.7707 27.2901C42.1697 27.5684 43.4547 28.2553 44.4634 29.2639C45.472 30.2725 46.1589 31.5576 46.4372 32.9566C46.7155 34.3556 46.5726 35.8058 46.0268 37.1236C45.4809 38.4414 44.5565 39.5678 43.3705 40.3603C42.1844 41.1528 40.7901 41.5758 39.3636 41.5758C37.4515 41.5737 35.6183 40.8131 34.2662 39.4611C32.9141 38.109 32.1536 36.2758 32.1515 34.3636Z" fill="#034737"/>
<path d="M57.0298 42.757L52.3934 47.3933C52.3449 47.441 52.3063 47.4978 52.2798 47.5605C52.2534 47.6232 52.2396 47.6905 52.2393 47.7585C52.239 47.8265 52.2521 47.894 52.278 47.9569C52.3039 48.0198 52.342 48.077 52.3901 48.1251C52.4382 48.1732 52.4954 48.2113 52.5583 48.2372C52.6212 48.2631 52.6886 48.2762 52.7567 48.2759C52.8247 48.2756 52.892 48.2618 52.9547 48.2354C53.0174 48.2089 53.0742 48.1703 53.1219 48.1217L57.7582 43.4854C57.8534 43.3885 57.9064 43.2579 57.9058 43.1221C57.9052 42.9863 57.851 42.8563 57.7549 42.7602C57.6589 42.6642 57.5289 42.61 57.393 42.6094C57.2572 42.6088 57.1267 42.6618 57.0298 42.757Z" fill="#034737"/>
<path d="M50.8481 48.9386L49.8178 49.9689C49.7692 50.0166 49.7306 50.0734 49.7041 50.1361C49.6777 50.1987 49.6639 50.266 49.6636 50.3341C49.6633 50.4021 49.6764 50.4695 49.7023 50.5325C49.7282 50.5954 49.7663 50.6525 49.8144 50.7006C49.8626 50.7487 49.9197 50.7869 49.9826 50.8127C50.0455 50.8386 50.113 50.8518 50.181 50.8515C50.249 50.8512 50.3163 50.8374 50.379 50.811C50.4417 50.7845 50.4985 50.7459 50.5462 50.6973L51.5765 49.667C51.6716 49.5701 51.7247 49.4396 51.7241 49.3038C51.7234 49.168 51.6692 49.0379 51.5732 48.9419C51.4772 48.8459 51.3471 48.7916 51.2113 48.791C51.0755 48.7904 50.945 48.8434 50.8481 48.9386Z" fill="#034737"/>
<defs>
<filter id="filter0_bd_8_2994" x="-31.1333" y="-38.1333" width="150.267" height="154.086" filterUnits="userSpaceOnUse" color-interpolation-filters="sRGB">
<feFlood flood-opacity="0" result="BackgroundImageFix"/>
<feGaussianBlur in="BackgroundImageFix" stdDeviation="21.0667"/>
<feComposite in2="SourceAlpha" operator="in" result="effect1_backgroundBlur_8_2994"/>
<feColorMatrix in="SourceAlpha" type="matrix" values="0 0 0 0 0 0 0 0 0 0 0 0 0 0 0 0 0 0 127 0" result="hardAlpha"/>
<feOffset dy="6.4"/>
<feGaussianBlur stdDeviation="5.06667"/>
<feComposite in2="hardAlpha" operator="out"/>
<feColorMatrix type="matrix" values="0 0 0 0 0.0867708 0 0 0 0 0.115317 0 0 0 0 0.141667 0 0 0 0.08 0"/>
<feBlend mode="normal" in2="effect1_backgroundBlur_8_2994" result="effect2_dropShadow_8_2994"/>
<feBlend mode="normal" in="SourceGraphic" in2="effect2_dropShadow_8_2994" result="shape"/>
</filter>
<filter id="filter1_bd_8_2994" x="-31.1333" y="-38.1333" width="150.267" height="154.086" filterUnits="userSpaceOnUse" color-interpolation-filters="sRGB">
<feFlood flood-opacity="0" result="BackgroundImageFix"/>
<feGaussianBlur in="BackgroundImageFix" stdDeviation="21.0667"/>
<feComposite in2="SourceAlpha" operator="in" result="effect1_backgroundBlur_8_2994"/>
<feColorMatrix in="SourceAlpha" type="matrix" values="0 0 0 0 0 0 0 0 0 0 0 0 0 0 0 0 0 0 127 0" result="hardAlpha"/>
<feOffset dy="6.4"/>
<feGaussianBlur stdDeviation="5.06667"/>
<feComposite in2="hardAlpha" operator="out"/>
<feColorMatrix type="matrix" values="0 0 0 0 0.0867708 0 0 0 0 0.115317 0 0 0 0 0.141667 0 0 0 0.08 0"/>
<feBlend mode="normal" in2="effect1_backgroundBlur_8_2994" result="effect2_dropShadow_8_2994"/>
<feBlend mode="normal" in="SourceGraphic" in2="effect2_dropShadow_8_2994" result="shape"/>
</filter>
<radialGradient id="paint0_radial_8_2994" cx="0" cy="0" r="1" gradientUnits="userSpaceOnUse" gradientTransform="translate(44 38.9097) rotate(90) scale(33.9097 32)">
<stop stopColor="white"/>
<stop offset="1" stopColor="white"/>
</radialGradient>
<radialGradient id="paint1_radial_8_2994" cx="0" cy="0" r="1" gradientUnits="userSpaceOnUse" gradientTransform="translate(44 38.9097) rotate(90) scale(33.9097 32)">
<stop stopColor="white"/>
<stop offset="1" stopColor="white"/>
</radialGradient>
</defs>
</svg>
