<svg width="87" height="91" viewBox="0 0 87 91" fill="none" xmlns="http://www.w3.org/2000/svg">
<g filter="url(#filter0_bd_8_2567)">
<rect x="11.5586" y="5" width="64" height="67.8193" rx="20" fill="url(#paint0_radial_8_2567)" fill-opacity="0.7" shape-rendering="crispEdges"/>
<rect x="11.0586" y="4.5" width="65" height="68.8193" rx="20.5" stroke="#EAEAEA" shape-rendering="crispEdges"/>
</g>
<path d="M45.8516 31.0595C45.8516 35.2371 49.2501 38.6337 53.4258 38.6337C57.6034 38.6337 61 35.2353 61 31.0595C61 26.882 57.6016 23.4823 53.4258 23.4823C49.2483 23.4823 45.8516 26.8807 45.8516 31.0595ZM48.8353 31.1487C49.0806 30.9094 49.473 30.9153 49.7124 31.1606L51.5498 33.0531L56.194 28.5768C56.4407 28.3389 56.8332 28.3464 57.0711 28.5931C57.3089 28.8399 57.3015 29.2324 57.0547 29.4702L51.9661 34.3747C51.8456 34.4907 51.691 34.5486 51.5364 34.5486C51.3744 34.5486 51.2138 34.4862 51.0919 34.3613L48.8234 32.0273C48.584 31.782 48.59 31.3896 48.8353 31.1502L48.8353 31.1487ZM57.7787 38.7214C56.4943 39.4543 55.0077 39.8735 53.4257 39.8735C51.8438 39.8735 50.3589 39.4542 49.0743 38.7214C47.0495 40.1426 45.8513 42.4335 45.8513 44.9221C45.8513 49.0996 49.2497 52.4962 53.4254 52.4962C57.603 52.4962 60.9996 49.0978 60.9996 44.9221C60.9996 42.4335 59.8014 40.1424 57.7781 38.7214H57.7787ZM56.7812 47.2946C57.028 47.5324 57.0354 47.9249 56.7976 48.1717C56.6757 48.298 56.5136 48.362 56.3516 48.362C56.197 48.362 56.0424 48.304 55.922 48.188L53.4259 45.7842L50.9299 48.188C50.8095 48.304 50.6549 48.362 50.5003 48.362C50.3382 48.362 50.1747 48.298 50.0543 48.1717C49.8164 47.9249 49.8238 47.5324 50.0706 47.2946L52.5325 44.9234L50.0706 42.5522C49.8238 42.3144 49.8164 41.9219 50.0543 41.6751C50.2921 41.4283 50.6846 41.4209 50.9314 41.6588L53.4274 44.0626L55.9234 41.6588C56.1702 41.4209 56.5627 41.4283 56.8005 41.6751C57.0384 41.9219 57.031 42.3144 56.7842 42.5522L54.3223 44.9234L56.7842 47.2946H56.7812ZM44.6105 44.9234C44.6105 42.1865 45.8562 39.6547 47.9821 37.9882C45.9306 36.3722 44.6105 33.8673 44.6105 31.0591C44.6105 26.3407 48.336 22.4753 52.9979 22.2522V21.5149C52.9979 20.6794 52.3201 20 51.486 20H35.065V25.795C35.065 27.0467 34.0467 28.0666 32.7935 28.0666L27 28.0651V54.4674C27 55.3029 27.6794 55.9823 28.5149 55.9823H51.4874C52.3214 55.9823 52.9993 55.3029 52.9993 54.4674V53.7271C48.3358 53.5041 44.6119 49.6404 44.6119 44.9232L44.6105 44.9234ZM33.6987 34.2121H41.8007C42.1426 34.2121 42.4206 34.4901 42.4206 34.8321C42.4206 35.174 42.1426 35.452 41.8007 35.452H33.7002C33.3583 35.452 33.0803 35.174 33.0803 34.8321C33.0803 34.4901 33.3583 34.2121 33.7002 34.2121H33.6987ZM33.6987 41.5976H42.2037C42.5457 41.5976 42.8236 41.8756 42.8236 42.2175C42.8236 42.5594 42.5456 42.8374 42.2037 42.8374H33.7002C33.3583 42.8374 33.0803 42.5594 33.0803 42.2175C33.0803 41.8756 33.3583 41.5976 33.7002 41.5976H33.6987ZM42.3552 50.2229H33.7002C33.3583 50.2229 33.0803 49.9449 33.0803 49.603C33.0803 49.261 33.3583 48.983 33.7002 48.983H42.3567C42.6986 48.983 42.9766 49.261 42.9766 49.603C42.9766 49.9449 42.6986 50.2229 42.3567 50.2229H42.3552ZM43.4702 28.0647H39.0384C38.6965 28.0647 38.4185 27.7867 38.4185 27.4448C38.4185 27.1029 38.6965 26.8249 39.0384 26.8249H43.4702C43.8121 26.8249 44.0901 27.1029 44.0901 27.4448C44.0901 27.7867 43.8121 28.0647 43.4702 28.0647ZM32.7932 26.8249H27.8769L33.8249 20.8769V25.7947C33.8249 26.3626 33.3626 26.8264 32.7932 26.8264L32.7932 26.8249Z" fill="#034737"/>
<defs>
<filter id="filter0_bd_8_2567" x="-31.5747" y="-38.1333" width="150.267" height="154.086" filterUnits="userSpaceOnUse" color-interpolation-filters="sRGB">
<feFlood flood-opacity="0" result="BackgroundImageFix"/>
<feGaussianBlur in="BackgroundImageFix" stdDeviation="21.0667"/>
<feComposite in2="SourceAlpha" operator="in" result="effect1_backgroundBlur_8_2567"/>
<feColorMatrix in="SourceAlpha" type="matrix" values="0 0 0 0 0 0 0 0 0 0 0 0 0 0 0 0 0 0 127 0" result="hardAlpha"/>
<feOffset dy="6.4"/>
<feGaussianBlur stdDeviation="5.06667"/>
<feComposite in2="hardAlpha" operator="out"/>
<feColorMatrix type="matrix" values="0 0 0 0 0.0867708 0 0 0 0 0.115317 0 0 0 0 0.141667 0 0 0 0.08 0"/>
<feBlend mode="normal" in2="effect1_backgroundBlur_8_2567" result="effect2_dropShadow_8_2567"/>
<feBlend mode="normal" in="SourceGraphic" in2="effect2_dropShadow_8_2567" result="shape"/>
</filter>
<radialGradient id="paint0_radial_8_2567" cx="0" cy="0" r="1" gradientUnits="userSpaceOnUse" gradientTransform="translate(43.5586 38.9097) rotate(90) scale(33.9097 32)">
<stop stopColor="white"/>
<stop offset="1" stopColor="white"/>
</radialGradient>
</defs>
</svg>
