<svg width="88" height="91" viewBox="0 0 88 91" fill="none" xmlns="http://www.w3.org/2000/svg">
<g filter="url(#filter0_bd_8_3197)">
<rect x="12" y="5" width="64" height="67.8193" rx="20" fill="url(#paint0_radial_8_3197)" fill-opacity="0.7" shape-rendering="crispEdges"/>
<rect x="11.5" y="4.5" width="65" height="68.8193" rx="20.5" stroke="#EAEAEA" shape-rendering="crispEdges"/>
</g>
<path fill-rule="evenodd" clip-rule="evenodd" d="M32.2383 32.7001V35.8258H29.8501V32.7001H27.7735C27.3478 32.7001 27 33.0479 27 33.4736V40.2385C27 40.6642 27.3478 41.012 27.7735 41.012H34.5572C34.9829 41.012 35.3307 40.6642 35.3307 40.2385V33.4736C35.3307 33.0479 34.9829 32.7001 34.5572 32.7001H32.2383ZM53.4786 32.6929C53.7903 33.6915 55.1467 33.7564 55.8538 33.2716C56.1223 33.0883 56.307 32.7954 56.307 32.4057C56.307 31.5673 55.4613 31.3855 54.6172 31.2037C52.7946 30.8126 50.9735 30.4215 50.9735 27.596C50.9735 25.8225 52.1669 24.5757 53.7109 24.1414V22.5121H56.1742V24.1716C57.258 24.5093 58.1902 25.2814 58.6 26.5354L56.2623 27.2958C55.9376 26.3016 54.5782 26.2482 53.8841 26.736C53.62 26.9221 53.4382 27.2122 53.4382 27.596C53.4382 28.4344 54.2839 28.6162 55.128 28.7981C56.9492 29.1891 58.7718 29.5802 58.7718 32.4057C58.7718 34.1244 57.6505 35.3495 56.1757 35.8185V37.4073H53.7124V35.8719C52.5508 35.5545 51.5464 34.7507 51.1322 33.426L53.4801 32.6943L53.4786 32.6929ZM37.5993 22V25.1256H35.2111V22H33.1345C32.7089 22 32.3611 22.3478 32.3611 22.7735V29.5384C32.3611 29.964 32.7088 30.3118 33.1345 30.3118H39.9182C40.3439 30.3118 40.6917 29.9641 40.6917 29.5384V22.7735C40.6917 22.3478 40.344 22 39.9182 22H37.5993ZM43.1998 32.7003V35.8259H40.8115V32.7003H38.4926C38.0669 32.7003 37.7191 33.0481 37.7191 33.4738V40.2387C37.7191 40.6643 38.0668 41.0122 38.4926 41.0122H45.2763C45.702 41.0122 46.0498 40.6644 46.0498 40.2387V33.4738C46.0498 33.0481 45.702 32.7003 45.2763 32.7003H43.1998ZM58.5352 43.555L45.1784 55.6795C44.708 56.1066 43.9965 56.1023 43.5333 55.6896L35.5128 48.5638L29.1041 55.0113C28.625 55.4918 27.8472 55.4947 27.3667 55.0156C26.8861 54.538 26.8832 53.7602 27.3623 53.2782L34.5417 46.0542C35.0208 45.5376 35.7755 45.5015 36.2805 45.9503L44.3428 53.1152L56.5814 42.0067H50.115C49.4354 42.0067 48.8827 41.4554 48.8827 40.7743C48.8827 40.0947 49.4339 39.542 50.115 39.542H59.7676C60.4488 39.542 61 40.0932 61 40.7743V50.1251C61 50.8063 60.4487 51.3575 59.7676 51.3575C59.0865 51.3575 58.5353 50.8062 58.5353 50.1251V43.5535L58.5352 43.555Z" fill="#034737"/>
<defs>
<filter id="filter0_bd_8_3197" x="-31.1333" y="-38.1333" width="150.267" height="154.086" filterUnits="userSpaceOnUse" color-interpolation-filters="sRGB">
<feFlood flood-opacity="0" result="BackgroundImageFix"/>
<feGaussianBlur in="BackgroundImageFix" stdDeviation="21.0667"/>
<feComposite in2="SourceAlpha" operator="in" result="effect1_backgroundBlur_8_3197"/>
<feColorMatrix in="SourceAlpha" type="matrix" values="0 0 0 0 0 0 0 0 0 0 0 0 0 0 0 0 0 0 127 0" result="hardAlpha"/>
<feOffset dy="6.4"/>
<feGaussianBlur stdDeviation="5.06667"/>
<feComposite in2="hardAlpha" operator="out"/>
<feColorMatrix type="matrix" values="0 0 0 0 0.0867708 0 0 0 0 0.115317 0 0 0 0 0.141667 0 0 0 0.08 0"/>
<feBlend mode="normal" in2="effect1_backgroundBlur_8_3197" result="effect2_dropShadow_8_3197"/>
<feBlend mode="normal" in="SourceGraphic" in2="effect2_dropShadow_8_3197" result="shape"/>
</filter>
<radialGradient id="paint0_radial_8_3197" cx="0" cy="0" r="1" gradientUnits="userSpaceOnUse" gradientTransform="translate(44 38.9097) rotate(90) scale(33.9097 32)">
<stop stopColor="white"/>
<stop offset="1" stopColor="white"/>
</radialGradient>
</defs>
</svg>
