<svg width="88" height="91" viewBox="0 0 88 91" fill="none" xmlns="http://www.w3.org/2000/svg">
<g filter="url(#filter0_bd_8_2983)">
<rect x="12" y="5" width="64" height="67.8193" rx="20" fill="url(#paint0_radial_8_2983)" fill-opacity="0.7" shape-rendering="crispEdges"/>
<rect x="11.5" y="4.5" width="65" height="68.8193" rx="20.5" stroke="#EAEAEA" shape-rendering="crispEdges"/>
</g>
<g filter="url(#filter1_bd_8_2983)">
<rect x="12" y="5" width="64" height="67.8193" rx="20" fill="url(#paint1_radial_8_2983)" fill-opacity="0.7" shape-rendering="crispEdges"/>
<rect x="11.5" y="4.5" width="65" height="68.8193" rx="20.5" stroke="#EAEAEA" shape-rendering="crispEdges"/>
</g>
<path d="M50.7534 44.8032C50.4801 44.5299 50.1168 44.3799 49.7268 44.3799C49.3401 44.3799 48.9735 44.5299 48.7001 44.8032L48.6701 44.8366L48.2901 44.4566C48.1567 44.6332 48.0167 44.8066 47.8667 44.9766L48.1967 45.3066L47.0267 46.4766L46.6967 46.1466C46.5267 46.2966 46.3534 46.4366 46.1767 46.5699L46.5568 46.9499L46.5234 46.9799C46.2501 47.2532 46.1001 47.6199 46.1001 48.0065C46.1001 48.3965 46.2501 48.7598 46.5234 49.0332L52.6134 55.1231C53.1767 55.6898 53.93 55.9997 54.7267 55.9997C55.5267 55.9997 56.2767 55.6898 56.8433 55.1231C58.01 53.9565 58.01 52.0598 56.8433 50.8931L50.7534 44.8032Z" fill="#034737"/>
<path d="M32.0934 30.3733C34.1234 28.3466 36.8234 27.2266 39.7 27.2266C42.5767 27.2266 45.2767 28.3466 47.3067 30.3733C47.7167 30.7833 48.0934 31.2233 48.4234 31.6866H50.1234V22H31.8433C29.17 22 27 24.1733 27 26.8433C27 29.2366 28.74 31.2299 31.0266 31.6166C31.3467 31.18 31.7 30.7666 32.0934 30.3733Z" fill="#034737"/>
<path d="M55.4938 25.5557C55.2205 25.5557 54.947 25.6597 54.7389 25.8678C54.324 26.2829 54.324 26.9581 54.7389 27.3732C55.1537 27.788 55.829 27.7883 56.2443 27.3732C56.6601 26.9573 56.6608 26.2814 56.2459 25.8664C56.0387 25.6592 55.7664 25.5557 55.4938 25.5557Z" fill="#034737"/>
<path d="M56.1534 22H50.79V31.6866H56.1534C58.8267 31.6866 61 29.5133 61 26.8433C61 24.1733 58.8267 22 56.1534 22ZM56.7167 27.8433C56.3767 28.1833 55.9334 28.35 55.49 28.35C55.1534 28.35 54.8167 28.2499 54.5267 28.0567L53.7301 28.8533C53.6668 28.9166 53.5801 28.95 53.4934 28.95C53.4101 28.95 53.3234 28.9166 53.26 28.8533C53.1301 28.7233 53.1301 28.5134 53.26 28.38L54.0567 27.5833C53.6034 26.9133 53.6734 25.99 54.2667 25.3967C54.9434 24.72 56.0434 24.72 56.7167 25.3933C57.3934 26.07 57.39 27.17 56.7167 27.8433Z" fill="#034737"/>
<path d="M46.364 31.3173C42.6898 27.6429 36.7112 27.643 33.0374 31.3172C29.3632 34.9915 29.3632 40.9697 33.0374 44.6438C34.8746 46.481 37.2872 47.3994 39.7006 47.3994C42.1135 47.3994 44.5271 46.4807 46.3639 44.6438C50.0381 40.9697 50.0381 34.9915 46.364 31.3173ZM33.5087 44.1724C30.0945 40.7582 30.0945 35.2028 33.5087 31.7885C35.2159 30.0815 37.4581 29.228 39.7006 29.228C41.9429 29.228 44.1854 30.0815 45.8926 31.7887C49.3068 35.2028 49.3068 40.7582 45.8926 44.1724C42.4784 47.5866 36.923 47.5867 33.5087 44.1724Z" fill="#034737"/>
<path d="M34.8638 33.1438C34.7336 33.274 34.7336 33.4849 34.8638 33.6151C34.994 33.7454 35.2049 33.7454 35.3351 33.6151C37.7424 31.2079 41.6587 31.2083 44.0656 33.6151C44.1307 33.6803 44.2159 33.7128 44.3012 33.7128C44.3865 33.7128 44.4718 33.6803 44.5369 33.6151C44.6671 33.4849 44.6671 33.274 44.5369 33.1438C41.8703 30.4768 37.5308 30.4768 34.8638 33.1438Z" fill="#034737"/>
<defs>
<filter id="filter0_bd_8_2983" x="-31.1333" y="-38.1333" width="150.267" height="154.086" filterUnits="userSpaceOnUse" color-interpolation-filters="sRGB">
<feFlood flood-opacity="0" result="BackgroundImageFix"/>
<feGaussianBlur in="BackgroundImageFix" stdDeviation="21.0667"/>
<feComposite in2="SourceAlpha" operator="in" result="effect1_backgroundBlur_8_2983"/>
<feColorMatrix in="SourceAlpha" type="matrix" values="0 0 0 0 0 0 0 0 0 0 0 0 0 0 0 0 0 0 127 0" result="hardAlpha"/>
<feOffset dy="6.4"/>
<feGaussianBlur stdDeviation="5.06667"/>
<feComposite in2="hardAlpha" operator="out"/>
<feColorMatrix type="matrix" values="0 0 0 0 0.0867708 0 0 0 0 0.115317 0 0 0 0 0.141667 0 0 0 0.08 0"/>
<feBlend mode="normal" in2="effect1_backgroundBlur_8_2983" result="effect2_dropShadow_8_2983"/>
<feBlend mode="normal" in="SourceGraphic" in2="effect2_dropShadow_8_2983" result="shape"/>
</filter>
<filter id="filter1_bd_8_2983" x="-31.1333" y="-38.1333" width="150.267" height="154.086" filterUnits="userSpaceOnUse" color-interpolation-filters="sRGB">
<feFlood flood-opacity="0" result="BackgroundImageFix"/>
<feGaussianBlur in="BackgroundImageFix" stdDeviation="21.0667"/>
<feComposite in2="SourceAlpha" operator="in" result="effect1_backgroundBlur_8_2983"/>
<feColorMatrix in="SourceAlpha" type="matrix" values="0 0 0 0 0 0 0 0 0 0 0 0 0 0 0 0 0 0 127 0" result="hardAlpha"/>
<feOffset dy="6.4"/>
<feGaussianBlur stdDeviation="5.06667"/>
<feComposite in2="hardAlpha" operator="out"/>
<feColorMatrix type="matrix" values="0 0 0 0 0.0867708 0 0 0 0 0.115317 0 0 0 0 0.141667 0 0 0 0.08 0"/>
<feBlend mode="normal" in2="effect1_backgroundBlur_8_2983" result="effect2_dropShadow_8_2983"/>
<feBlend mode="normal" in="SourceGraphic" in2="effect2_dropShadow_8_2983" result="shape"/>
</filter>
<radialGradient id="paint0_radial_8_2983" cx="0" cy="0" r="1" gradientUnits="userSpaceOnUse" gradientTransform="translate(44 38.9097) rotate(90) scale(33.9097 32)">
<stop stopColor="white"/>
<stop offset="1" stopColor="white"/>
</radialGradient>
<radialGradient id="paint1_radial_8_2983" cx="0" cy="0" r="1" gradientUnits="userSpaceOnUse" gradientTransform="translate(44 38.9097) rotate(90) scale(33.9097 32)">
<stop stopColor="white"/>
<stop offset="1" stopColor="white"/>
</radialGradient>
</defs>
</svg>
