<svg width="88" height="91" viewBox="0 0 88 91" fill="none" xmlns="http://www.w3.org/2000/svg">
<g filter="url(#filter0_bd_8_6913)">
<rect x="12" y="5" width="64" height="67.8193" rx="20" fill="#5ABA87"/>
<rect x="11.5" y="4.5" width="65" height="68.8193" rx="20.5" stroke="#EAEAEA"/>
</g>
<path d="M60.2855 25.4287H45.3574V30.8571H62.9997V28.1429C62.9997 26.6433 61.7851 25.4287 60.2855 25.4287ZM52.1429 28.8215H50.7858C50.4126 28.8215 50.1073 28.5161 50.1073 28.1429C50.1073 27.7697 50.4126 27.4644 50.7858 27.4644H52.1429C52.5161 27.4644 52.8215 27.7697 52.8215 28.1429C52.8215 28.5161 52.5161 28.8215 52.1429 28.8215ZM56.2142 28.8215H54.8571C54.4839 28.8215 54.1786 28.5161 54.1786 28.1429C54.1786 27.7697 54.4839 27.4644 54.8571 27.4644H56.2142C56.5874 27.4644 56.8928 27.7697 56.8928 28.1429C56.8928 28.5161 56.5874 28.8215 56.2142 28.8215ZM60.2855 28.8215H58.9284C58.5552 28.8215 58.2499 28.5161 58.2499 28.1429C58.2499 27.7697 58.5552 27.4644 58.9284 27.4644H60.2855C60.6587 27.4644 60.964 27.7697 60.964 28.1429C60.964 28.5161 60.6587 28.8215 60.2855 28.8215Z" fill="white"/>
<path d="M55.5361 56.6426C55.5361 57.0158 55.8415 57.3212 56.2147 57.3212C56.5879 57.3212 56.8932 57.0158 56.8932 56.6426V51.8926H55.5361V56.6426Z" fill="white"/>
<path d="M62.3218 41.7141C62.3218 38.3485 59.5805 35.6074 56.2151 35.6074C52.8497 35.6074 50.1084 38.3488 50.1084 41.7141C50.1084 45.0795 52.8497 47.8209 56.2151 47.8209C59.5805 47.8209 62.3218 45.0795 62.3218 41.7141ZM56.2151 38.3214C54.3423 38.3214 52.8224 39.8414 52.8224 41.7141C52.8224 42.0873 52.517 42.3927 52.1438 42.3927C51.7706 42.3927 51.4653 42.0873 51.4653 41.7141C51.4653 39.095 53.5959 36.9641 56.2153 36.9641C56.5885 36.9641 56.8939 37.2694 56.8939 37.6426C56.8939 38.0158 56.5883 38.3214 56.2151 38.3214Z" fill="white"/>
<path d="M45.3573 36.2861C45.3573 38.5322 43.532 40.3575 41.2859 40.3575H30.4287V55.2861C30.4287 56.7858 31.6434 58.0004 33.143 58.0004H54.7014C54.3757 57.6408 54.1789 57.159 54.1789 56.6433V51.2147C54.1789 50.8415 54.4843 50.5361 54.8575 50.5361H55.5361V49.1451C51.7361 48.799 48.7503 45.6029 48.7503 41.7149C48.7503 37.5959 52.0957 34.2503 56.2148 34.2503C59.2209 34.2503 61.8197 36.035 63.0006 38.6002V32.2148H45.3577L45.3573 36.2861ZM41.2859 51.2147H34.5001C34.1269 51.2147 33.8216 50.9093 33.8216 50.5361C33.8216 50.1629 34.1269 49.8575 34.5001 49.8575H41.2859C41.6591 49.8575 41.9644 50.1629 41.9644 50.5361C41.9644 50.9093 41.6591 51.2147 41.2859 51.2147ZM44.0002 48.5004H34.5001C34.1269 48.5004 33.8216 48.195 33.8216 47.8218C33.8216 47.4486 34.1269 47.1433 34.5001 47.1433H44.0002C44.3734 47.1433 44.6787 47.4486 44.6787 47.8218C44.6787 48.195 44.3734 48.5004 44.0002 48.5004ZM44.0002 45.7861H34.5001C34.1269 45.7861 33.8216 45.4808 33.8216 45.1075C33.8216 44.7343 34.1269 44.429 34.5001 44.429H44.0002C44.3734 44.429 44.6787 44.7343 44.6787 45.1075C44.6787 45.4808 44.3734 45.7861 44.0002 45.7861Z" fill="white"/>
<path d="M56.8936 49.1447V50.5358H57.5721C57.9453 50.5358 58.2507 50.8411 58.2507 51.2143V56.6427C58.2507 57.1584 58.0539 57.6402 57.7282 57.9998H60.2863C61.7859 57.9998 63.0005 56.7852 63.0005 55.2856V44.8223C61.908 47.1972 59.6075 48.9005 56.8936 49.1447Z" fill="white"/>
<path d="M43.9994 36.2852V22.7142C43.9994 21.2146 42.7848 20 41.2852 20H27.7142C26.2146 20 25 21.2146 25 22.7142V36.2852C25 37.7848 26.2146 38.9994 27.7142 38.9994H41.2852C42.7848 38.9994 43.9994 37.7848 43.9994 36.2852ZM31.587 31.0552C31.8517 31.3199 31.8517 31.7491 31.587 32.0154C31.4547 32.1477 31.2817 32.2139 31.1069 32.2139C30.9339 32.2139 30.7592 32.1477 30.6269 32.0154L28.5912 29.9797C28.3266 29.7151 28.3266 29.2859 28.5912 29.0196L30.6269 26.984C30.8915 26.7193 31.3207 26.7193 31.587 26.984C31.8516 27.2486 31.8516 27.6778 31.587 27.9441L30.0314 29.4996L31.587 31.0552ZM35.8365 26.95L34.4794 32.3784C34.403 32.6872 34.1265 32.8924 33.8212 32.8924C33.7669 32.8924 33.7109 32.8856 33.6566 32.8721C33.2936 32.7805 33.0714 32.4124 33.163 32.0493L34.5201 26.621C34.6117 26.2579 34.9781 26.034 35.3428 26.1273C35.7058 26.2189 35.9281 26.587 35.8365 26.95ZM40.408 29.9798L38.3724 32.0154C38.2401 32.1477 38.067 32.2139 37.8923 32.2139C37.7193 32.2139 37.5445 32.1477 37.4122 32.0154C37.1476 31.7508 37.1476 31.3216 37.4122 31.0553L38.9678 29.4997L37.4122 27.9442C37.1476 27.6795 37.1476 27.2503 37.4122 26.984C37.6768 26.7194 38.106 26.7194 38.3723 26.984L40.408 29.0197C40.6726 29.2843 40.6727 29.7135 40.408 29.9798Z" fill="white"/>
<defs>
<filter id="filter0_bd_8_6913" x="-31.1333" y="-38.1333" width="150.267" height="154.086" filterUnits="userSpaceOnUse" color-interpolation-filters="sRGB">
<feFlood flood-opacity="0" result="BackgroundImageFix"/>
<feGaussianBlur in="BackgroundImageFix" stdDeviation="21.0667"/>
<feComposite in2="SourceAlpha" operator="in" result="effect1_backgroundBlur_8_6913"/>
<feColorMatrix in="SourceAlpha" type="matrix" values="0 0 0 0 0 0 0 0 0 0 0 0 0 0 0 0 0 0 127 0" result="hardAlpha"/>
<feOffset dy="6.4"/>
<feGaussianBlur stdDeviation="5.06667"/>
<feComposite in2="hardAlpha" operator="out"/>
<feColorMatrix type="matrix" values="0 0 0 0 0.0867708 0 0 0 0 0.115317 0 0 0 0 0.141667 0 0 0 0.08 0"/>
<feBlend mode="normal" in2="effect1_backgroundBlur_8_6913" result="effect2_dropShadow_8_6913"/>
<feBlend mode="normal" in="SourceGraphic" in2="effect2_dropShadow_8_6913" result="shape"/>
</filter>
</defs>
</svg>
