<svg width="88" height="91" viewBox="0 0 88 91" fill="none" xmlns="http://www.w3.org/2000/svg">
<g filter="url(#filter0_bd_8_6930)">
<rect x="12" y="5" width="64" height="67.8193" rx="20" fill="#7243D5"/>
<rect x="11.5" y="4.5" width="65" height="68.8193" rx="20.5" stroke="#EAEAEA"/>
</g>
<path d="M51.9551 37.8379L53.7282 35.3837L51.9489 32.316L48.9671 32.6411L46.9792 31.4938L45.7521 28.7451H42.2058L40.9788 31.4938L38.9909 32.6411L36.0029 32.3344L34.2236 35.4021L35.9968 37.8563V40.151L34.2236 42.6051L36.0029 45.6729L38.9847 45.3477L40.9726 46.495L42.1997 49.2437H45.7522L46.9792 46.495L48.9671 45.3477L51.949 45.6729L53.7282 42.6051L51.9551 40.151L51.9551 37.8379ZM43.9792 43.8017C42.0312 43.8017 40.2749 42.6283 39.5295 40.8291C38.784 39.0284 39.1966 36.9576 40.574 35.5803C41.9515 34.203 44.0221 33.7903 45.8228 34.5357C47.622 35.2812 48.7955 37.0375 48.7955 38.9854C48.7955 40.2631 48.2877 41.4872 47.3843 42.3906C46.4808 43.2941 45.2569 43.8017 43.9792 43.8017Z" fill="white"/>
<path d="M32.0521 23.5179C32.0521 23.9842 31.9585 24.4444 31.776 24.8738C31.4155 25.7359 30.7299 26.4215 29.8678 26.782C28.9874 27.1562 27.9935 27.1562 27.113 26.782C26.0255 26.3233 25.2356 25.3539 25.0086 24.1959C24.7815 23.0363 25.1466 21.8414 25.981 21.0054C26.817 20.171 28.0119 19.806 29.1715 20.033C30.3295 20.26 31.299 21.0499 31.7576 22.1374C31.9493 22.5731 32.049 23.0424 32.0521 23.5179Z" fill="white"/>
<path d="M32.0525 54.453C32.054 54.9269 31.9574 55.3978 31.7702 55.8334C31.3116 56.9209 30.3422 57.7109 29.1842 57.9379C28.0246 58.1649 26.8297 57.7998 25.9937 56.9654C25.1593 56.1295 24.7942 54.9346 25.0212 53.775C25.2483 52.6169 26.0382 51.6475 27.1257 51.1889C28.0062 50.8146 29.0001 50.8146 29.8805 51.1889C30.738 51.5509 31.419 52.2365 31.7764 53.097C31.9589 53.5265 32.0525 53.9867 32.0525 54.453Z" fill="white"/>
<path d="M62.9995 23.5179C63.0026 24.9443 62.1451 26.2328 60.8276 26.7819C59.9471 27.1562 58.9532 27.1562 58.0728 26.7819C57.2169 26.4184 56.5389 25.7327 56.183 24.8738C55.8088 23.9933 55.8088 22.9994 56.183 22.119C56.838 20.5575 58.5069 19.6755 60.1667 20.016C61.8263 20.3566 63.0118 21.8245 62.9995 23.5179Z" fill="white"/>
<path d="M62.9995 54.453C63.0041 56.1433 61.8138 57.602 60.1572 57.9379C58.5007 58.2723 56.8364 57.3919 56.183 55.8334C55.8088 54.953 55.8088 53.9591 56.183 53.0786C56.5466 52.2227 57.2322 51.5448 58.0912 51.1889C58.9716 50.8146 59.9655 50.8146 60.846 51.1889C62.1559 51.7426 63.0056 53.0295 62.9995 54.453Z" fill="white"/>
<path d="M33.8125 53.0977C34.0472 54.0011 34.0472 54.949 33.8125 55.8525H54.1453C53.9106 54.949 53.9106 54.0011 54.1453 53.0977H33.8125Z" fill="white"/>
<path d="M29.8681 49.1521V28.8193C28.9646 29.054 28.0167 29.054 27.1133 28.8193V49.1521C28.0167 48.9174 28.9646 48.9174 29.8681 49.1521Z" fill="white"/>
<path d="M33.8125 22.1377C34.0472 23.0411 34.0472 23.9891 33.8125 24.8925H54.1453C53.9106 23.9891 53.9106 23.0411 54.1453 22.1377H33.8125Z" fill="white"/>
<path d="M58.0908 28.8193V49.1521C58.9943 48.9174 59.9422 48.9174 60.8456 49.1521V28.8193C59.9422 29.054 58.9943 29.054 58.0908 28.8193Z" fill="white"/>
<defs>
<filter id="filter0_bd_8_6930" x="-31.1333" y="-38.1333" width="150.267" height="154.086" filterUnits="userSpaceOnUse" color-interpolation-filters="sRGB">
<feFlood flood-opacity="0" result="BackgroundImageFix"/>
<feGaussianBlur in="BackgroundImageFix" stdDeviation="21.0667"/>
<feComposite in2="SourceAlpha" operator="in" result="effect1_backgroundBlur_8_6930"/>
<feColorMatrix in="SourceAlpha" type="matrix" values="0 0 0 0 0 0 0 0 0 0 0 0 0 0 0 0 0 0 127 0" result="hardAlpha"/>
<feOffset dy="6.4"/>
<feGaussianBlur stdDeviation="5.06667"/>
<feComposite in2="hardAlpha" operator="out"/>
<feColorMatrix type="matrix" values="0 0 0 0 0.0867708 0 0 0 0 0.115317 0 0 0 0 0.141667 0 0 0 0.08 0"/>
<feBlend mode="normal" in2="effect1_backgroundBlur_8_6930" result="effect2_dropShadow_8_6930"/>
<feBlend mode="normal" in="SourceGraphic" in2="effect2_dropShadow_8_6930" result="shape"/>
</filter>
</defs>
</svg>
