<svg width="88" height="91" viewBox="0 0 88 91" fill="none" xmlns="http://www.w3.org/2000/svg">
<g filter="url(#filter0_bd_8_6944)">
<rect x="12" y="5" width="64" height="67.8193" rx="20" fill="#CC63D4"/>
<rect x="11.5" y="4.5" width="65" height="68.8193" rx="20.5" stroke="#EAEAEA"/>
</g>
<path fill-rule="evenodd" clip-rule="evenodd" d="M47.0479 21.1559C46.6217 20.9801 46.1777 20.838 45.716 20.7368C45.5899 20.7137 45.4869 20.6125 45.4656 20.4775L45.0856 18H42.9102L42.5302 20.4793C42.5124 20.6036 42.4183 20.7084 42.2887 20.7368C41.367 20.9375 40.488 21.3051 39.7013 21.8095C39.5965 21.877 39.4562 21.877 39.3497 21.7988L37.327 20.3141L35.7892 21.8521L37.2684 23.8679C37.3484 23.9691 37.359 24.1129 37.2844 24.2266C36.8014 24.9778 36.393 25.9245 36.2136 26.8071C36.1905 26.9332 36.0893 27.0362 35.9543 27.0575L33.4753 27.4376V29.6132L35.9525 29.9933C36.0769 30.011 36.1816 30.1051 36.21 30.2348C36.4107 31.1565 36.7783 32.0356 37.2826 32.8224C37.3501 32.9272 37.3501 33.0675 37.272 33.174L35.7874 35.1969L37.3253 36.7349L39.3408 35.2555C39.4421 35.1756 39.5859 35.1649 39.6995 35.2395C40.4507 35.7226 41.3972 36.131 42.2798 36.3104C42.4059 36.3335 42.5089 36.4348 42.5302 36.5697L42.9102 39.049H45.0856L45.4656 36.5715C45.4834 36.4472 45.5775 36.3424 45.7072 36.314C46.6288 36.1133 47.5078 35.7457 48.2945 35.2413C48.3993 35.1738 48.5396 35.1738 48.6461 35.2519L50.6688 36.7366L52.2066 35.1986L50.7274 33.1829C50.6475 33.0817 50.6368 32.9378 50.7114 32.8242C51.1944 32.0729 51.6028 31.1263 51.7822 30.2436C51.8053 30.1175 51.9065 30.0145 52.0415 29.9932L54.5205 29.6132V27.4376L52.0433 27.0575C51.919 27.0397 51.8142 26.9456 51.7858 26.816C51.5851 25.8943 51.2175 25.0151 50.7132 24.2284C50.6457 24.1236 50.6457 23.9833 50.7238 23.8767L52.2084 21.8539L50.6705 20.3159L48.655 21.7953C48.5538 21.8752 48.4099 21.8859 48.2963 21.8113C47.902 21.5573 47.4847 21.337 47.0479 21.1559ZM47.4936 25.0276C49.4239 26.958 49.4239 30.0874 47.4936 32.0178C45.5633 33.9483 42.4343 33.9483 40.504 32.0178C38.5737 30.0873 38.5737 26.958 40.504 25.0276C42.4343 23.0971 45.5633 23.0971 47.4936 25.0276ZM43.9988 22.9585C47.0727 22.9585 49.5641 25.4502 49.5641 28.5244C49.5641 31.5985 47.0726 34.0902 43.9988 34.0902C40.925 34.0902 38.4335 31.5985 38.4335 28.5244C38.4335 25.4502 40.925 22.9585 43.9988 22.9585ZM29.9718 39.9671C30.1956 40.0594 30.4087 40.1713 30.6093 40.3009C30.723 40.3738 30.8668 40.3631 30.968 40.2832L31.9288 39.5781L32.5645 40.2139L31.8542 41.1818C31.776 41.2884 31.776 41.4287 31.8435 41.5334C32.101 41.9348 32.2892 42.3824 32.3905 42.853C32.4189 42.9826 32.5236 43.075 32.648 43.0945L33.8342 43.2757V44.1743L32.648 44.3555C32.513 44.375 32.4135 44.4798 32.3887 44.6059C32.2963 45.0534 32.0886 45.5365 31.8435 45.9183C31.7707 46.032 31.7814 46.1759 31.8613 46.2771L32.5663 47.2379L31.9306 47.8737L30.9627 47.1633C30.8562 47.0851 30.7159 47.0851 30.6111 47.1526C30.2098 47.4102 29.7623 47.5984 29.2917 47.6996C29.1621 47.728 29.0697 47.8328 29.0502 47.9571L28.8691 49.1435H27.9669L27.7858 47.9571C27.7663 47.8222 27.6615 47.7227 27.5354 47.6979C27.0879 47.6055 26.6049 47.3977 26.2231 47.1526C26.1094 47.0798 25.9656 47.0905 25.8644 47.1704L24.9037 47.8755L24.2679 47.2397L24.9783 46.2718C25.0564 46.1652 25.0564 46.0249 24.9889 45.9201C24.7314 45.5188 24.5432 45.0712 24.442 44.6006C24.4136 44.4709 24.3088 44.3786 24.1845 44.3591L23 44.1761V43.2775L24.1863 43.0963C24.3212 43.0768 24.4207 42.972 24.4455 42.8459C24.5379 42.3966 24.7456 41.9153 24.9907 41.5335C25.0635 41.4198 25.0528 41.2759 24.9747 41.1747L24.2697 40.2139L24.9054 39.5781L25.8732 40.2885C25.9798 40.3667 26.1201 40.3667 26.2249 40.2992C26.6262 40.0416 27.0737 39.8534 27.5443 39.7522C27.6739 39.7238 27.7662 39.619 27.7858 39.4947L27.9669 38.3083H28.8655L29.0466 39.4947C29.0662 39.6296 29.1709 39.7291 29.297 39.7539C29.5314 39.8054 29.7569 39.8783 29.9718 39.9671ZM30.1601 41.9828C28.6098 40.4323 25.9496 41.537 25.9496 43.7268C25.9496 45.9184 28.6116 47.0212 30.1601 45.4708C31.1243 44.5082 31.1243 42.9454 30.1601 41.9828ZM28.4162 40.6384C26.7115 40.6384 25.3281 42.0219 25.3281 43.7268C25.3281 45.4318 26.7115 46.8153 28.4162 46.8153C30.121 46.8153 31.5044 45.4318 31.5044 43.7268C31.5044 42.0201 30.1228 40.6384 28.4162 40.6384ZM61.1376 39.9671C61.3614 40.0594 61.5745 40.1713 61.7751 40.3009C61.8888 40.3738 62.0326 40.3631 62.1338 40.2832L63.0946 39.5781L63.7303 40.2139L63.02 41.1818C62.9418 41.2884 62.9418 41.4287 63.0093 41.5334C63.2668 41.9348 63.455 42.3824 63.5563 42.853C63.5847 42.9826 63.6894 43.075 63.8137 43.0945L65 43.2757V44.1743L63.8137 44.3555C63.6788 44.375 63.5793 44.4798 63.5545 44.6059C63.4621 45.0534 63.2544 45.5365 63.0093 45.9183C62.9365 46.032 62.9472 46.1759 63.0271 46.2771L63.7321 47.2379L63.0964 47.8737L62.1285 47.1633C62.022 47.0851 61.8817 47.0851 61.7769 47.1526C61.3756 47.4102 60.9281 47.5984 60.4575 47.6996C60.3279 47.728 60.2355 47.8328 60.216 47.9571L60.0349 49.1435H59.1363L58.9552 47.9571C58.9356 47.8222 58.8308 47.7227 58.7048 47.6979C58.2573 47.6055 57.7742 47.3977 57.3924 47.1526C57.2788 47.0798 57.1349 47.0905 57.0337 47.1704L56.073 47.8755L55.4373 47.2397L56.1476 46.2718C56.2257 46.1652 56.2257 46.0249 56.1583 45.9201C55.9008 45.5188 55.7125 45.0712 55.6113 44.6006C55.5829 44.4709 55.4781 44.3786 55.3538 44.3591L54.1676 44.1779V43.2792L55.3538 43.0981C55.4888 43.0786 55.5882 42.9738 55.6131 42.8477C55.7054 42.3984 55.9132 41.9171 56.1583 41.5352C56.2311 41.4216 56.2204 41.2777 56.1423 41.1765L55.4373 40.2157L56.073 39.5799L57.0408 40.2903C57.1474 40.3684 57.2877 40.3684 57.3924 40.3009C57.7938 40.0434 58.2413 39.8552 58.7118 39.7539C58.8415 39.7255 58.9338 39.6207 58.9533 39.4964L59.1345 38.3101H60.0331L60.2142 39.4964C60.2337 39.6314 60.3385 39.7309 60.4646 39.7557C60.6972 39.8054 60.9227 39.8783 61.1376 39.9671ZM61.3259 41.9828C59.7756 40.4323 57.1154 41.537 57.1154 43.7268C57.1154 45.9184 59.7774 47.0212 61.3259 45.4708C62.2901 44.5082 62.2901 42.9454 61.3259 41.9828ZM59.582 40.6384C57.8772 40.6384 56.4939 42.0219 56.4939 43.7268C56.4939 45.4318 57.8772 46.8153 59.582 46.8153C61.2868 46.8153 62.6702 45.4318 62.6702 43.7268C62.6702 42.0201 61.2868 40.6384 59.582 40.6384ZM37.1412 50.8253C36.9263 50.7365 36.7008 50.6655 36.4663 50.6122C36.3403 50.5891 36.2373 50.4879 36.216 50.3529L36.0348 49.1665H35.1362L34.9551 50.3529C34.9373 50.4772 34.8432 50.582 34.7136 50.6104C34.243 50.7117 33.7955 50.8999 33.3942 51.1574C33.2894 51.2249 33.1491 51.2249 33.0426 51.1468L32.0748 50.4364L31.439 51.0722L32.144 52.033C32.2239 52.1342 32.2346 52.2781 32.16 52.3917C31.915 52.7736 31.7054 53.2548 31.6149 53.7042C31.5918 53.8303 31.4905 53.9333 31.3556 53.9546L30.1693 54.1357V55.0344L31.3556 55.2155C31.4799 55.2333 31.5847 55.3274 31.6131 55.4571C31.7161 55.9277 31.9025 56.3752 32.16 56.7766C32.2275 56.8814 32.2275 57.0217 32.1494 57.1283L31.439 58.0962L32.0748 58.732L33.0355 58.0269C33.1367 57.947 33.2805 57.9363 33.3942 58.0091C33.776 58.2542 34.2572 58.4638 34.7065 58.5543C34.8326 58.5774 34.9356 58.6787 34.9569 58.8136L35.138 60H36.0366L36.2178 58.8136C36.2355 58.6893 36.3296 58.5845 36.4593 58.5561C36.9299 58.4531 37.3774 58.2666 37.7787 58.0091C37.8835 57.9416 38.0237 57.9416 38.1303 58.0198L39.0981 58.7302L39.7338 58.0944L39.0288 57.1336C38.9489 57.0323 38.9383 56.8885 39.0111 56.7748C39.2561 56.393 39.4657 55.9117 39.5562 55.4624C39.5793 55.3363 39.6805 55.2333 39.8155 55.212L41.0018 55.0308V54.1321L39.8155 53.951C39.6912 53.9332 39.5864 53.8391 39.558 53.7095C39.455 53.2388 39.2686 52.7913 39.0111 52.3899C38.9436 52.2851 38.9436 52.1448 39.0217 52.0383L39.7321 51.0704L39.0963 50.4346L38.1356 51.1397C38.0344 51.2196 37.8905 51.2302 37.7769 51.1574C37.578 51.0295 37.3649 50.9177 37.1412 50.8253ZM37.3294 52.8411C38.2919 53.8037 38.2919 55.3665 37.3294 56.3309C35.7791 57.8813 33.1189 56.7767 33.1189 54.5869C33.1189 52.3936 35.7809 51.2906 37.3294 52.8411ZM35.5856 51.4967C37.2904 51.4967 38.6737 52.8802 38.6737 54.5851C38.6737 56.2901 37.2904 57.6736 35.5856 57.6736C33.8808 57.6736 32.4974 56.2901 32.4974 54.5851C32.4974 52.8784 33.8808 51.4967 35.5856 51.4967ZM53.969 50.8253C53.7542 50.7365 53.5286 50.6655 53.2942 50.6122C53.1681 50.5891 53.0651 50.4879 53.0438 50.3529L52.8627 49.1665H51.9641L51.783 50.3529C51.7652 50.4772 51.6711 50.582 51.5415 50.6104C51.0709 50.7117 50.6234 50.8999 50.2221 51.1574C50.1173 51.2249 49.977 51.2249 49.8704 51.1468L48.9026 50.4364L48.2669 51.0722L48.9719 52.033C49.0518 52.1342 49.0625 52.2781 48.9879 52.3917C48.7428 52.7736 48.5333 53.2548 48.4427 53.7042C48.4196 53.8303 48.3184 53.9333 48.1835 53.9546L46.9972 54.1357V55.0344L48.1835 55.2155C48.3078 55.2333 48.4125 55.3274 48.441 55.4571C48.544 55.9277 48.7304 56.3752 48.9879 56.7766C49.0554 56.8814 49.0554 57.0217 48.9772 57.1283L48.2669 58.0962L48.9026 58.732L49.8634 58.0269C49.9646 57.947 50.1084 57.9363 50.2221 58.0091C50.6039 58.2542 51.0851 58.4638 51.5344 58.5543C51.6605 58.5774 51.7635 58.6787 51.7848 58.8136L51.9659 60H52.8645L53.0456 58.8136C53.0634 58.6893 53.1575 58.5845 53.2871 58.5561C53.7578 58.4531 54.2052 58.2666 54.6066 58.0091C54.7113 57.9416 54.8516 57.9416 54.9582 58.0198L55.926 58.7302L56.5617 58.0944L55.8567 57.1336C55.7768 57.0323 55.7661 56.8885 55.839 56.7748C56.084 56.393 56.2936 55.9117 56.3841 55.4624C56.4072 55.3363 56.5084 55.2333 56.6434 55.212L57.8296 55.0308V54.1321L56.6434 53.951C56.5191 53.9332 56.4143 53.8391 56.3859 53.7095C56.2829 53.2388 56.0964 52.7913 55.839 52.3899C55.7715 52.2851 55.7715 52.1448 55.8496 52.0383L56.5599 51.0704L55.9242 50.4346L54.9635 51.1397C54.8623 51.2196 54.7184 51.2302 54.6048 51.1574C54.4059 51.0295 54.1928 50.9177 53.969 50.8253ZM54.1573 52.8411C55.1198 53.8037 55.1198 55.3665 54.1573 56.3309C52.607 57.8813 49.9468 56.7767 49.9468 54.5869C49.9468 52.3936 52.607 51.2906 54.1573 52.8411ZM52.4134 51.4967C54.1182 51.4967 55.5016 52.8802 55.5016 54.5851C55.5016 56.2901 54.1182 57.6736 52.4134 57.6736C50.7087 57.6736 49.3253 56.2901 49.3253 54.5851C49.3253 52.8784 50.7069 51.4967 52.4134 51.4967ZM52.1098 36.1717L55.5211 39.2477L55.0825 39.6864L51.6712 36.6104L52.1098 36.1717ZM44.3105 39.6668H43.689V44.8617H35.586C35.4138 44.8617 35.2753 45.0002 35.2753 45.1725V48.5469H35.8968V45.4833H52.1027V48.5469H52.7242V45.1725C52.7242 45.0002 52.5857 44.8617 52.4135 44.8617H44.3105L44.3105 39.6668ZM36.328 36.6104L32.9167 39.6863L32.4781 39.2477L35.8894 36.1717L36.328 36.6104Z" fill="white"/>
<defs>
<filter id="filter0_bd_8_6944" x="-31.1333" y="-38.1333" width="150.267" height="154.086" filterUnits="userSpaceOnUse" color-interpolation-filters="sRGB">
<feFlood flood-opacity="0" result="BackgroundImageFix"/>
<feGaussianBlur in="BackgroundImageFix" stdDeviation="21.0667"/>
<feComposite in2="SourceAlpha" operator="in" result="effect1_backgroundBlur_8_6944"/>
<feColorMatrix in="SourceAlpha" type="matrix" values="0 0 0 0 0 0 0 0 0 0 0 0 0 0 0 0 0 0 127 0" result="hardAlpha"/>
<feOffset dy="6.4"/>
<feGaussianBlur stdDeviation="5.06667"/>
<feComposite in2="hardAlpha" operator="out"/>
<feColorMatrix type="matrix" values="0 0 0 0 0.0867708 0 0 0 0 0.115317 0 0 0 0 0.141667 0 0 0 0.08 0"/>
<feBlend mode="normal" in2="effect1_backgroundBlur_8_6944" result="effect2_dropShadow_8_6944"/>
<feBlend mode="normal" in="SourceGraphic" in2="effect2_dropShadow_8_6944" result="shape"/>
</filter>
</defs>
</svg>
