<svg width="88" height="91" viewBox="0 0 88 91" fill="none" xmlns="http://www.w3.org/2000/svg">
<g filter="url(#filter0_bd_8_2606)">
<rect x="12" y="5" width="64" height="67.8193" rx="20" fill="url(#paint0_radial_8_2606)" fill-opacity="0.7" shape-rendering="crispEdges"/>
<rect x="11.5" y="4.5" width="65" height="68.8193" rx="20.5" stroke="#EAEAEA" shape-rendering="crispEdges"/>
</g>
<path d="M47.1191 31.3572L40.553 34.402C39.2112 32.4515 36.9693 31.1689 34.433 31.1689C30.3347 31.1689 27 34.5113 27 38.6217C27 42.7322 30.3347 46.0761 34.433 46.0761C36.9663 46.0761 39.205 44.7965 40.5468 42.8506L47.095 45.8863C47.2604 45.9637 47.4334 45.9987 47.605 45.9987C48.0634 45.9987 48.502 45.7376 48.7084 45.2959C48.9907 44.6872 48.7266 43.9647 48.118 43.6839L41.5791 40.6528C41.7613 40.0062 41.866 39.3277 41.866 38.6234C41.866 37.9236 41.7628 37.2482 41.5806 36.6046L48.1424 33.5629C48.7511 33.2806 49.0152 32.5581 48.7329 31.9509C48.4521 31.3423 47.7341 31.0751 47.1194 31.3575L47.1191 31.3572Z" fill="#034737"/>
<path d="M55.1214 23C51.8808 23 49.2427 25.6441 49.2427 28.8954C49.2427 32.1451 51.8807 34.7892 55.1214 34.7892C58.362 34.7892 61 32.1436 61 28.8954C61 25.6441 58.362 23 55.1214 23Z" fill="#034737"/>
<path d="M55.1214 42.3936C51.8808 42.3936 49.2427 45.0377 49.2427 48.2874C49.2427 51.5371 51.8807 54.1828 55.1214 54.1828C58.362 54.1828 61 51.5387 61 48.2874C61 45.0392 58.362 42.3936 55.1214 42.3936Z" fill="#034737"/>
<defs>
<filter id="filter0_bd_8_2606" x="-31.1333" y="-38.1333" width="150.267" height="154.086" filterUnits="userSpaceOnUse" color-interpolation-filters="sRGB">
<feFlood flood-opacity="0" result="BackgroundImageFix"/>
<feGaussianBlur in="BackgroundImageFix" stdDeviation="21.0667"/>
<feComposite in2="SourceAlpha" operator="in" result="effect1_backgroundBlur_8_2606"/>
<feColorMatrix in="SourceAlpha" type="matrix" values="0 0 0 0 0 0 0 0 0 0 0 0 0 0 0 0 0 0 127 0" result="hardAlpha"/>
<feOffset dy="6.4"/>
<feGaussianBlur stdDeviation="5.06667"/>
<feComposite in2="hardAlpha" operator="out"/>
<feColorMatrix type="matrix" values="0 0 0 0 0.0867708 0 0 0 0 0.115317 0 0 0 0 0.141667 0 0 0 0.08 0"/>
<feBlend mode="normal" in2="effect1_backgroundBlur_8_2606" result="effect2_dropShadow_8_2606"/>
<feBlend mode="normal" in="SourceGraphic" in2="effect2_dropShadow_8_2606" result="shape"/>
</filter>
<radialGradient id="paint0_radial_8_2606" cx="0" cy="0" r="1" gradientUnits="userSpaceOnUse" gradientTransform="translate(44 38.9097) rotate(90) scale(33.9097 32)">
<stop stopColor="white"/>
<stop offset="1" stopColor="white"/>
</radialGradient>
</defs>
</svg>
