<svg width="88" height="91" viewBox="0 0 88 91" fill="none" xmlns="http://www.w3.org/2000/svg">
<g filter="url(#filter0_bd_8_2961)">
<rect x="12" y="5" width="64" height="67.8193" rx="20" fill="url(#paint0_radial_8_2961)" fill-opacity="0.7" shape-rendering="crispEdges"/>
<rect x="11.5" y="4.5" width="65" height="68.8193" rx="20.5" stroke="#EAEAEA" shape-rendering="crispEdges"/>
</g>
<path fill-rule="evenodd" clip-rule="evenodd" d="M55.2857 48.3833C55.5166 48.1525 55.8354 48.0097 56.1875 48.0097C56.5396 48.0097 56.8584 48.1525 57.0892 48.3833C57.3201 48.6138 57.4629 48.933 57.4629 49.2851C57.4629 49.6376 57.3201 49.956 57.0892 50.1868C56.8584 50.4177 56.5396 50.5605 56.1875 50.5605C55.8354 50.5605 55.5166 50.4177 55.2857 50.1868C55.0549 49.9564 54.9121 49.6376 54.9121 49.2851C54.9121 48.933 55.0549 48.6142 55.2857 48.3833ZM44.2675 51.0848H43.6109H36.5412H33.6258C33.4861 51.0848 33.3588 51.1419 33.2662 51.2344C33.1736 51.327 33.1162 51.4543 33.1162 51.5941V52.1037H47.692V51.5941C47.692 51.4543 47.6346 51.327 47.542 51.2344C47.4495 51.1419 47.3222 51.0848 47.1824 51.0848H44.2675ZM50.7838 31.4328H29.1333C28.547 31.4328 28.0136 31.6731 27.6267 32.0596C27.2403 32.4468 27 32.9798 27 33.5661V46.0252C27 46.6116 27.2403 47.1446 27.6271 47.5314C28.014 47.9183 28.5474 48.1582 29.1337 48.1582H38.1214L38.1271 48.1484L38.1456 48.1582H42.6634L42.6819 48.1484L42.6872 48.1582H50.7838C50.8423 48.1238 50.9099 48.1038 50.9828 48.1038H51.6047C52.1868 48.1038 52.7161 47.8654 53.0999 47.4816C53.4837 47.0978 53.7221 46.5685 53.7221 45.9863V33.6047C53.7221 33.0229 53.4837 32.4936 53.0999 32.1094C52.7161 31.7252 52.1868 31.4872 51.6047 31.4872H50.9828C50.9099 31.4872 50.8419 31.4672 50.7838 31.4328ZM42.2214 48.9436H38.5872L37.8543 50.3002H42.9539L42.2214 48.9436ZM51.375 30.6486H51.6749C52.4777 30.6486 53.2072 30.9765 53.7361 31.5054C54.265 32.0342 54.5929 32.7634 54.5929 33.5665V46.0256C54.5929 46.8284 54.2646 47.5579 53.7361 48.0864C53.2076 48.6149 52.4777 48.9436 51.6749 48.9436H51.375V52.0727C51.375 52.0814 51.378 52.0893 51.3837 52.095C51.3893 52.1007 51.3973 52.1037 51.406 52.1037H60.969C60.9777 52.1037 60.9856 52.1003 60.9913 52.095L60.9906 52.0942C60.9966 52.0886 61 52.0806 61 52.0727V26.031C61 26.0223 60.9966 26.0144 60.9913 26.0083C60.9856 26.0026 60.9777 26 60.969 26H51.406C51.398 26 51.3901 26.0038 51.3844 26.0091C51.3784 26.0151 51.375 26.0227 51.375 26.031V30.6486ZM48.1117 33.4588L48.0932 33.3168C48.0653 33.103 48.2164 32.9065 48.4302 32.8786C48.5046 32.8691 48.5768 32.8808 48.6406 32.9096L49.8971 33.4743L51.154 34.0395C51.3512 34.1271 51.4396 34.3587 51.3516 34.5555C51.3255 34.6145 51.2862 34.6636 51.239 34.7017L50.1627 35.5804L49.0841 36.461C48.9164 36.597 48.6705 36.5717 48.5341 36.4044C48.4831 36.3417 48.4548 36.268 48.448 36.1924L48.4276 36.0334C48.3286 36.0432 48.2311 36.0568 48.1359 36.0727C47.5258 36.1781 46.9852 36.415 46.5254 36.7406C46.0188 37.0995 45.6078 37.5676 45.3079 38.0862C45.1976 38.2778 45.1016 38.4754 45.0219 38.6775C44.9426 38.8788 44.7148 38.9778 44.5134 38.8981C44.3453 38.8316 44.2486 38.662 44.2675 38.4908C44.3015 37.2736 44.5572 36.121 45.1968 35.2087C45.8005 34.3489 46.7298 33.715 48.1117 33.4588ZM48.9243 33.8944L49.5783 34.1883L50.2575 34.494L49.6693 34.9741L49.1091 35.432C49.1057 35.4256 49.1019 35.4199 49.0981 35.4135L49.097 35.412L49.094 35.407L49.0902 35.401C49.0875 35.3968 49.0845 35.3931 49.0819 35.3893L49.0781 35.3844L49.0773 35.3836L49.0728 35.378C49.009 35.2986 48.9153 35.245 48.8091 35.234L48.8023 35.2333H48.8016L48.794 35.2329C48.7891 35.2325 48.7846 35.2321 48.7796 35.2321H48.7778H48.7717H48.7642H48.7619C48.7498 35.2321 48.7381 35.2325 48.726 35.2329C48.1401 35.2472 47.598 35.3602 47.1057 35.5502C46.7328 35.6938 46.3883 35.8815 46.0748 36.1037C45.7918 36.3039 45.5345 36.5321 45.3041 36.7803C45.4284 36.3704 45.6022 35.9911 45.8368 35.656C46.3135 34.976 47.0566 34.4679 48.168 34.2435C48.301 34.217 48.4393 34.194 48.5828 34.1751C48.5881 34.1747 48.5934 34.1744 48.5987 34.1736C48.6032 34.1728 48.6074 34.1721 48.6119 34.1717C48.7653 34.1468 48.8839 34.0353 48.9243 33.8944ZM58.9725 28.9792C59.1893 28.9792 59.365 29.1548 59.365 29.3713C59.365 29.5878 59.1893 29.7634 58.9725 29.7634H53.4021C53.1857 29.7634 53.01 29.5878 53.01 29.3713C53.01 29.1548 53.1857 28.9792 53.4021 28.9792H58.9725ZM58.9725 27.2788C59.1893 27.2788 59.365 27.4544 59.365 27.6709C59.365 27.8874 59.1893 28.063 58.9725 28.063H53.4021C53.1857 28.063 53.01 27.8874 53.01 27.6709C53.01 27.4544 53.1857 27.2788 53.4021 27.2788H58.9725ZM47.9157 43.3037C48.2217 43.2901 48.5095 43.2769 48.6901 43.3253C48.7653 43.3457 48.8118 43.4072 48.808 43.5478H48.1155C47.899 43.5478 47.7234 43.7238 47.7234 43.9399C47.7234 44.1568 47.899 44.3324 48.1155 44.3324H48.9232C48.9311 44.3808 48.9168 44.425 48.896 44.4616L48.0241 44.4571C47.8084 44.4563 47.6327 44.6305 47.632 44.8462C47.6312 45.0619 47.8054 45.2376 48.0211 45.2383L48.7381 45.2417C48.7324 45.2686 48.723 45.2969 48.7079 45.326L48.0082 45.3418C47.7925 45.3464 47.621 45.5243 47.6252 45.7404C47.6293 45.9565 47.8076 46.1272 48.0233 46.1235L48.6085 46.1102C48.6093 46.1212 48.6096 46.1322 48.6096 46.1427C48.6096 46.168 48.6074 46.1896 48.6021 46.2058L48.5681 46.2085L48.5443 46.2104L48.5352 46.2111L48.4895 46.2145C47.0177 46.3184 46.0853 46.1786 44.7952 45.9852C44.4888 45.9391 44.1621 45.89 43.7677 45.836V43.5463C46.1363 43.2595 46.5923 41.8568 46.8979 40.9158C46.9682 40.7005 47.0252 40.524 47.0611 40.4458C47.1208 40.4882 47.1741 40.5614 47.2036 40.6903C47.2852 41.0458 47.2326 41.68 46.8877 42.8115C46.825 43.0178 46.9418 43.2357 47.148 43.2984C47.1813 43.3083 47.2145 43.3139 47.2478 43.3151C47.4759 43.3234 47.7 43.3136 47.9157 43.3037ZM42.9845 46.1775V46.2496H42.4205V44.6569V43.1167H42.9845V43.1893V46.1775ZM40.8958 34.6402C41.3567 35.101 41.6415 35.7376 41.6415 36.441C41.6415 37.1444 41.3567 37.7814 40.8958 38.2423C40.4349 38.7032 39.798 38.9884 39.0949 38.9884C38.3915 38.9884 37.755 38.7032 37.2937 38.2423C36.8328 37.7814 36.548 37.1448 36.548 36.441C36.548 35.738 36.8328 35.101 37.2937 34.6402C37.7546 34.1793 38.3915 33.894 39.0949 33.894C39.798 33.8944 40.4349 34.1796 40.8958 34.6402ZM39.0949 33.1098C40.0148 33.1098 40.8474 33.4823 41.4504 34.0856C42.0533 34.6885 42.4262 35.5211 42.4262 36.4406C42.4262 37.3609 42.0533 38.1935 41.4504 38.7961C41.0182 39.2283 40.4682 39.5422 39.8528 39.6854C40.8165 39.7662 41.739 39.9997 42.595 40.3616C43.6033 40.7881 44.5176 41.3922 45.2973 42.1341C45.8232 41.6925 46.0098 41.1183 46.1548 40.6729C46.3354 40.1176 46.4714 39.6982 46.9841 39.6261C47.0419 39.6181 47.0985 39.6234 47.151 39.6393C47.4737 39.7216 47.8295 39.9139 47.9678 40.515C48.0607 40.9192 48.0381 41.5444 47.7816 42.5266L47.882 42.5217C48.2519 42.5051 48.5987 42.4896 48.8926 42.5678C49.4196 42.7087 49.7177 43.045 49.5616 43.836C49.9164 44.3196 49.6988 44.7283 49.5118 44.9554C49.5598 45.1609 49.5745 45.4642 49.3452 45.7929C49.3754 45.9089 49.3924 46.0275 49.3924 46.1416C49.3924 46.2954 49.3629 46.4434 49.2976 46.5723C49.2904 46.5862 49.2828 46.5991 49.2742 46.6119C49.1967 46.7453 49.083 46.8522 48.927 46.9198C48.8322 46.961 48.723 46.9863 48.5994 46.9908L48.5398 46.9954L48.5148 46.9973H48.5137H48.5126C46.9773 47.103 46.0139 46.9584 44.6838 46.7589C44.3921 46.7151 44.0831 46.669 43.7696 46.6248V46.6422C43.7696 46.8586 43.5939 47.0343 43.3774 47.0343H42.0291C41.8127 47.0343 41.637 46.8586 41.637 46.6422V45.0494H35.3357C35.0512 45.5009 34.6712 45.8866 34.2246 46.1779C33.6428 46.5568 32.9474 46.7763 32.2005 46.7732C31.1828 46.7691 30.2629 46.3535 29.5991 45.6841C29.0483 45.1292 28.6732 44.3997 28.5632 43.5859L28.4934 43.6573C28.3419 43.8115 28.0944 43.8134 27.9403 43.6622C27.7862 43.5108 27.7843 43.2629 27.9358 43.1092L28.6637 42.365C28.7476 42.2735 28.8738 42.2229 29.006 42.2414C29.1001 42.2543 29.1817 42.3 29.2414 42.3653L29.9659 43.1179C30.1155 43.2735 30.1106 43.521 29.9554 43.6709C29.7997 43.8205 29.5519 43.816 29.4023 43.6604L29.3592 43.6154C29.4669 44.2013 29.7506 44.7261 30.1541 45.1326C30.6777 45.6603 31.4026 45.989 32.2039 45.9916C32.7921 45.9939 33.3402 45.8209 33.7992 45.5217C34.1952 45.2633 34.5246 44.9112 34.755 44.4956C34.763 44.4782 34.772 44.4612 34.7826 44.445C34.8166 44.3808 34.8483 44.315 34.8774 44.2482C34.9639 44.0502 35.194 43.9596 35.392 44.0461C35.4921 44.0895 35.565 44.17 35.6009 44.2648H41.6362V42.7238C41.6362 42.5074 41.8119 42.3317 42.0284 42.3317H43.3767C43.5931 42.3317 43.7688 42.5074 43.7688 42.7238V42.7537C44.085 42.7076 44.3559 42.6354 44.5897 42.5448C43.9146 41.9369 43.139 41.4394 42.2917 41.0809C41.3114 40.6665 40.2313 40.4375 39.0949 40.4375C38.3711 40.4375 37.6726 40.5297 37.01 40.7031C36.4618 40.8463 35.9348 41.0458 35.435 41.2951C35.6549 41.6891 35.8041 42.1273 35.8668 42.5931L35.9326 42.5259C36.084 42.3721 36.3315 42.3699 36.4856 42.5214C36.6398 42.6725 36.6416 42.9203 36.4902 43.0744L35.7656 43.8152C35.6817 43.9067 35.5555 43.9569 35.4233 43.9388C35.3289 43.9256 35.2469 43.8798 35.1872 43.8141L34.4664 43.0657C34.3168 42.9101 34.3213 42.6626 34.477 42.5127C34.6326 42.3627 34.8801 42.3676 35.03 42.5232L35.0716 42.5663C34.9934 42.1356 34.82 41.7382 34.5744 41.3956C34.5658 41.385 34.5574 41.3737 34.5499 41.3616C34.4664 41.249 34.375 41.1425 34.2764 41.0431C33.7524 40.5154 33.0278 40.1867 32.2266 40.184C31.6376 40.1818 31.0887 40.3552 30.6293 40.6551C30.1563 40.9638 29.7789 41.4073 29.5511 41.932C29.4646 42.1296 29.2346 42.2206 29.0362 42.1341C28.8383 42.0476 28.7476 41.8172 28.8341 41.6196C29.1231 40.9547 29.6025 40.3922 30.2036 39.9997C30.7857 39.6196 31.482 39.3998 32.2296 39.4028C33.2477 39.407 34.1672 39.8225 34.831 40.4919C34.8816 40.5429 34.9307 40.5951 34.9779 40.6487C35.5548 40.3518 36.1698 40.1145 36.8143 39.946C37.3084 39.8168 37.8173 39.7288 38.3379 39.685C37.7221 39.5418 37.172 39.2279 36.7399 38.7957C36.1369 38.1928 35.7641 37.3602 35.7641 36.4403C35.7641 35.5204 36.1369 34.6878 36.7399 34.0852C37.342 33.4826 38.175 33.1098 39.0949 33.1098ZM56.1875 48.794C56.0519 48.794 55.9291 48.8491 55.8403 48.9379C55.7515 49.0267 55.6968 49.1498 55.6968 49.2851C55.6968 49.4207 55.7515 49.5439 55.8403 49.6323C55.9291 49.721 56.0519 49.7762 56.1875 49.7762C56.3231 49.7762 56.4459 49.721 56.5347 49.6323C56.6234 49.5439 56.6786 49.4207 56.6786 49.2851C56.6786 49.1498 56.6234 49.0267 56.5347 48.9379C56.4459 48.8491 56.3231 48.794 56.1875 48.794Z" fill="#034737"/>
<defs>
<filter id="filter0_bd_8_2961" x="-31.1333" y="-38.1333" width="150.267" height="154.086" filterUnits="userSpaceOnUse" color-interpolation-filters="sRGB">
<feFlood flood-opacity="0" result="BackgroundImageFix"/>
<feGaussianBlur in="BackgroundImageFix" stdDeviation="21.0667"/>
<feComposite in2="SourceAlpha" operator="in" result="effect1_backgroundBlur_8_2961"/>
<feColorMatrix in="SourceAlpha" type="matrix" values="0 0 0 0 0 0 0 0 0 0 0 0 0 0 0 0 0 0 127 0" result="hardAlpha"/>
<feOffset dy="6.4"/>
<feGaussianBlur stdDeviation="5.06667"/>
<feComposite in2="hardAlpha" operator="out"/>
<feColorMatrix type="matrix" values="0 0 0 0 0.0867708 0 0 0 0 0.115317 0 0 0 0 0.141667 0 0 0 0.08 0"/>
<feBlend mode="normal" in2="effect1_backgroundBlur_8_2961" result="effect2_dropShadow_8_2961"/>
<feBlend mode="normal" in="SourceGraphic" in2="effect2_dropShadow_8_2961" result="shape"/>
</filter>
<radialGradient id="paint0_radial_8_2961" cx="0" cy="0" r="1" gradientUnits="userSpaceOnUse" gradientTransform="translate(44 38.9097) rotate(90) scale(33.9097 32)">
<stop stopColor="white"/>
<stop offset="1" stopColor="white"/>
</radialGradient>
</defs>
</svg>
