<svg width="85" height="89" viewBox="0 0 85 89" fill="none" xmlns="http://www.w3.org/2000/svg">
<g filter="url(#filter0_bd_8_422)">
<rect x="10.5586" y="4" width="64" height="67.8193" rx="21.3333" fill="url(#paint0_radial_8_422)" fill-opacity="0.7" shape-rendering="crispEdges"/>
<rect x="11.6253" y="5.06667" width="61.8667" height="65.686" rx="20.2667" stroke="white" strokeWidth="2.13333" shape-rendering="crispEdges"/>
</g>
<path d="M35.7158 32.4068C34.234 31.1232 33.493 30.4814 33.0569 29.7446C32.3139 28.4893 32.1251 26.9819 32.5357 25.5821C32.7766 24.7605 33.3365 23.9558 34.4561 22.3464C35.5757 20.7371 36.1355 19.9324 36.8221 19.4208C37.9918 18.5491 39.4707 18.202 40.9061 18.4621C41.7486 18.6149 42.608 19.0864 44.3268 20.0295L49.2142 22.7113C51.8324 24.148 53.1415 24.8663 53.8485 25.8882C54.6056 26.9823 54.9202 28.3225 54.729 29.6392C54.5505 30.869 53.6977 32.0948 51.9922 34.5463C50.2866 36.9979 49.4338 38.2237 48.3429 38.8187C47.1748 39.4557 45.8088 39.6268 44.5197 39.2974C43.3157 38.9898 42.187 38.0121 39.9296 36.0568L35.7158 32.4068Z" fill="url(#paint1_linear_8_422)"/>
<g opacity="0.5" filter="url(#filter1_f_8_422)">
<path d="M38.2009 30.8278C36.4689 29.3275 36.1476 26.7622 37.4563 24.8812C38.7649 23.0002 41.2818 22.4094 43.2907 23.5117L46.1796 25.0969C48.6964 26.4779 49.4612 29.7358 47.8217 32.0924C46.1821 34.449 42.8616 34.8648 40.6916 32.9852L38.2009 30.8278Z" fill="#0062FF"/>
</g>
<g filter="url(#filter2_b_8_422)">
<mask id="path-5-outside-1_8_422" maskUnits="userSpaceOnUse" x="25.0254" y="24.8164" width="35" height="32" fill="black">
<rect fill="white" x="25.0254" y="24.8164" width="35" height="32"/>
<path d="M57.8514 43.137C56.494 43.137 55.3896 42.0427 55.3896 40.6977C55.3896 39.3511 56.494 38.2568 57.8514 38.2568C58.1804 38.2568 58.4962 38.1274 58.7277 37.8981C58.9608 37.6671 59.0914 37.3542 59.0914 37.0282L59.0897 32.6018C59.0897 28.8602 56.0162 25.8164 52.2401 25.8164H32.8767C29.1005 25.8164 26.027 28.8602 26.027 32.6018L26.0254 37.1707C26.0254 37.4967 26.156 37.8096 26.3891 38.0406C26.6206 38.2699 26.9364 38.3994 27.2654 38.3994C28.669 38.3994 29.7271 39.3872 29.7271 40.6977C29.7271 42.0427 28.6227 43.137 27.2654 43.137C26.5809 43.137 26.0254 43.6874 26.0254 44.3656V48.7888C26.0254 52.5304 29.0972 55.5758 32.875 55.5758H52.2418C56.0195 55.5758 59.0914 52.5304 59.0914 48.7888V44.3656C59.0914 43.6874 58.5359 43.137 57.8514 43.137Z"/>
</mask>
<path d="M57.8514 43.137C56.494 43.137 55.3896 42.0427 55.3896 40.6977C55.3896 39.3511 56.494 38.2568 57.8514 38.2568C58.1804 38.2568 58.4962 38.1274 58.7277 37.8981C58.9608 37.6671 59.0914 37.3542 59.0914 37.0282L59.0897 32.6018C59.0897 28.8602 56.0162 25.8164 52.2401 25.8164H32.8767C29.1005 25.8164 26.027 28.8602 26.027 32.6018L26.0254 37.1707C26.0254 37.4967 26.156 37.8096 26.3891 38.0406C26.6206 38.2699 26.9364 38.3994 27.2654 38.3994C28.669 38.3994 29.7271 39.3872 29.7271 40.6977C29.7271 42.0427 28.6227 43.137 27.2654 43.137C26.5809 43.137 26.0254 43.6874 26.0254 44.3656V48.7888C26.0254 52.5304 29.0972 55.5758 32.875 55.5758H52.2418C56.0195 55.5758 59.0914 52.5304 59.0914 48.7888V44.3656C59.0914 43.6874 58.5359 43.137 57.8514 43.137Z" fill="#3EA0FE" fill-opacity="0.35"/>
<path d="M57.8514 43.5419C58.075 43.5419 58.2563 43.3606 58.2563 43.137C58.2563 42.9134 58.075 42.7321 57.8514 42.7321V43.5419ZM58.7277 37.8981L58.4427 37.6105V37.6105L58.7277 37.8981ZM59.0914 37.0282H59.4963V37.028L59.0914 37.0282ZM59.0897 32.6018H58.6848V32.6019L59.0897 32.6018ZM26.027 32.6018L26.4319 32.6019V32.6018H26.027ZM26.0254 37.1707L25.6205 37.1706V37.1707H26.0254ZM26.3891 38.0406L26.6741 37.753L26.3891 38.0406ZM57.8514 42.7321C57.6278 42.7321 57.4465 42.9134 57.4465 43.137C57.4465 43.3606 57.6278 43.5419 57.8514 43.5419V42.7321ZM57.8514 42.7321C56.7141 42.7321 55.7945 41.8156 55.7945 40.6977H54.9848C54.9848 42.2698 56.2739 43.5419 57.8514 43.5419V42.7321ZM55.7945 40.6977C55.7945 39.5781 56.7143 38.6617 57.8514 38.6617V37.8519C56.2738 37.8519 54.9848 39.1242 54.9848 40.6977H55.7945ZM57.8514 38.6617C58.2862 38.6617 58.7046 38.4909 59.0126 38.1857L58.4427 37.6105C58.2877 37.764 58.0747 37.8519 57.8514 37.8519V38.6617ZM59.0126 38.1857C59.3221 37.879 59.4963 37.4627 59.4963 37.0282H58.6865C58.6865 37.2456 58.5994 37.4551 58.4427 37.6105L59.0126 38.1857ZM59.4963 37.028L59.4946 32.6016L58.6848 32.6019L58.6865 37.0283L59.4963 37.028ZM59.4946 32.6018C59.4946 28.6329 56.2362 25.4115 52.2401 25.4115V26.2213C55.7963 26.2213 58.6848 29.0874 58.6848 32.6018H59.4946ZM52.2401 25.4115H32.8767V26.2213H52.2401V25.4115ZM32.8767 25.4115C28.8806 25.4115 25.6222 28.6329 25.6222 32.6018H26.4319C26.4319 29.0874 29.3205 26.2213 32.8767 26.2213V25.4115ZM25.6222 32.6016L25.6205 37.1706L26.4303 37.1709L26.4319 32.6019L25.6222 32.6016ZM25.6205 37.1707C25.6205 37.6053 25.7947 38.0215 26.1041 38.3282L26.6741 37.753C26.5174 37.5977 26.4303 37.3882 26.4303 37.1707H25.6205ZM26.1041 38.3282C26.4121 38.6334 26.8306 38.8042 27.2654 38.8042V37.9945C27.0421 37.9945 26.829 37.9065 26.6741 37.753L26.1041 38.3282ZM27.2654 38.8042C28.472 38.8042 29.3222 39.6365 29.3222 40.6977H30.132C30.132 39.1378 28.866 37.9945 27.2654 37.9945V38.8042ZM29.3222 40.6977C29.3222 41.8156 28.4026 42.7321 27.2654 42.7321V43.5419C28.8428 43.5419 30.132 42.2698 30.132 40.6977H29.3222ZM27.2654 42.7321C26.3608 42.7321 25.6205 43.4603 25.6205 44.3656H26.4303C26.4303 43.9145 26.801 43.5419 27.2654 43.5419V42.7321ZM25.6205 44.3656V48.7888H26.4303V44.3656H25.6205ZM25.6205 48.7888C25.6205 52.7574 28.8771 55.9807 32.875 55.9807V55.1709C29.3174 55.1709 26.4303 52.3033 26.4303 48.7888H25.6205ZM32.875 55.9807H52.2418V55.1709H32.875V55.9807ZM52.2418 55.9807C56.2397 55.9807 59.4963 52.7574 59.4963 48.7888H58.6865C58.6865 52.3033 55.7994 55.1709 52.2418 55.1709V55.9807ZM59.4963 48.7888V44.3656H58.6865V48.7888H59.4963ZM59.4963 44.3656C59.4963 43.4603 58.756 42.7321 57.8514 42.7321V43.5419C58.3158 43.5419 58.6865 43.9145 58.6865 44.3656H59.4963Z" fill="url(#paint2_linear_8_422)" mask="url(#path-5-outside-1_8_422)"/>
</g>
<g filter="url(#filter3_bd_8_422)">
<path d="M48.2301 40.0154L46.2809 41.9134L46.7421 44.5967C46.8215 45.0613 46.6347 45.5193 46.2527 45.7937C45.8741 46.0715 45.3798 46.1062 44.9632 45.8847L42.5576 44.6199L40.1471 45.8863C39.9686 45.9805 39.7735 46.0301 39.58 46.0301C39.3271 46.0301 39.0774 45.9508 38.8625 45.7954C38.4822 45.5193 38.2954 45.0613 38.3748 44.5967L38.8344 41.9134L36.8852 40.0154C36.5479 39.6881 36.4305 39.207 36.576 38.7589C36.7231 38.3125 37.1034 37.9951 37.568 37.929L40.2562 37.5371L41.4615 35.0952C41.6715 34.6753 42.0914 34.4141 42.5576 34.4141H42.5609C43.0288 34.4157 43.4488 34.6769 43.6554 35.0969L44.8607 37.5371L47.5539 37.9306C48.0135 37.9951 48.3938 38.3125 48.5393 38.7589C48.6864 39.207 48.569 39.6881 48.2301 40.0154Z" fill="url(#paint3_linear_8_422)"/>
<path d="M48.202 39.9863L48.2018 39.9864L46.2526 41.8844L46.2373 41.8993L46.2409 41.9203L46.7022 44.6035C46.779 45.053 46.5984 45.4955 46.2291 45.7608L46.2288 45.7611C45.8628 46.0296 45.3852 46.0632 44.9822 45.8489L44.982 45.8488L42.5765 44.584L42.5576 44.5741L42.5388 44.584L40.1283 45.8505L40.1282 45.8505C39.9552 45.9418 39.7666 45.9897 39.58 45.9897C39.3357 45.9897 39.0943 45.913 38.8863 45.7626C38.5185 45.4956 38.3379 45.053 38.4147 44.6036C38.4147 44.6036 38.4147 44.6036 38.4147 44.6035L38.8743 41.9203L38.8779 41.8993L38.8626 41.8844L36.9134 39.9864L36.9134 39.9864C36.5873 39.6699 36.4737 39.205 36.6145 38.7715C36.7568 38.3398 37.1243 38.033 37.5737 37.9691L37.5738 37.969L40.2621 37.5772L40.2831 37.5741L40.2925 37.5551L41.4977 35.1133C41.4977 35.1133 41.4977 35.1133 41.4977 35.1132C41.7009 34.7069 42.1069 34.4546 42.5576 34.4546H42.5609C43.0134 34.4562 43.4193 34.7087 43.6191 35.1148L43.6191 35.1148L44.8244 37.5551L44.8338 37.5741L44.8548 37.5772L47.548 37.9707L47.5483 37.9707C47.9925 38.0331 48.3601 38.3398 48.5008 38.7715L48.5008 38.7716C48.6431 39.205 48.5296 39.6698 48.202 39.9863Z" stroke="url(#paint4_linear_8_422)" strokeOpacity="0.5" strokeWidth="0.0809779"/>
</g>
<defs>
<filter id="filter0_bd_8_422" x="-31.5747" y="-38.1333" width="148.267" height="152.086" filterUnits="userSpaceOnUse" color-interpolation-filters="sRGB">
<feFlood flood-opacity="0" result="BackgroundImageFix"/>
<feGaussianBlur in="BackgroundImageFix" stdDeviation="21.0667"/>
<feComposite in2="SourceAlpha" operator="in" result="effect1_backgroundBlur_8_422"/>
<feColorMatrix in="SourceAlpha" type="matrix" values="0 0 0 0 0 0 0 0 0 0 0 0 0 0 0 0 0 0 127 0" result="hardAlpha"/>
<feOffset dy="6.4"/>
<feGaussianBlur stdDeviation="5.06667"/>
<feComposite in2="hardAlpha" operator="out"/>
<feColorMatrix type="matrix" values="0 0 0 0 0.0867708 0 0 0 0 0.115317 0 0 0 0 0.141667 0 0 0 0.08 0"/>
<feBlend mode="normal" in2="effect1_backgroundBlur_8_422" result="effect2_dropShadow_8_422"/>
<feBlend mode="normal" in="SourceGraphic" in2="effect2_dropShadow_8_422" result="shape"/>
</filter>
<filter id="filter1_f_8_422" x="28.5555" y="14.8612" width="28.2307" height="27.4016" filterUnits="userSpaceOnUse" color-interpolation-filters="sRGB">
<feFlood flood-opacity="0" result="BackgroundImageFix"/>
<feBlend mode="normal" in="SourceGraphic" in2="BackgroundImageFix" result="shape"/>
<feGaussianBlur stdDeviation="4.0489" result="effect1_foregroundBlur_8_422"/>
</filter>
<filter id="filter2_b_8_422" x="15.9028" y="15.6938" width="53.3107" height="50.004" filterUnits="userSpaceOnUse" color-interpolation-filters="sRGB">
<feFlood flood-opacity="0" result="BackgroundImageFix"/>
<feGaussianBlur in="BackgroundImageFix" stdDeviation="4.85868"/>
<feComposite in2="SourceAlpha" operator="in" result="effect1_backgroundBlur_8_422"/>
<feBlend mode="normal" in="SourceGraphic" in2="effect1_backgroundBlur_8_422" result="shape"/>
</filter>
<filter id="filter3_bd_8_422" x="30.4413" y="28.3407" width="24.2336" height="23.7629" filterUnits="userSpaceOnUse" color-interpolation-filters="sRGB">
<feFlood flood-opacity="0" result="BackgroundImageFix"/>
<feGaussianBlur in="BackgroundImageFix" stdDeviation="3.03667"/>
<feComposite in2="SourceAlpha" operator="in" result="effect1_backgroundBlur_8_422"/>
<feColorMatrix in="SourceAlpha" type="matrix" values="0 0 0 0 0 0 0 0 0 0 0 0 0 0 0 0 0 0 127 0" result="hardAlpha"/>
<feOffset dx="2.02445" dy="2.02445"/>
<feGaussianBlur stdDeviation="2.02445"/>
<feColorMatrix type="matrix" values="0 0 0 0 0.15375 0 0 0 0 0.522433 0 0 0 0 0.9 0 0 0 0.5 0"/>
<feBlend mode="normal" in2="effect1_backgroundBlur_8_422" result="effect2_dropShadow_8_422"/>
<feBlend mode="normal" in="SourceGraphic" in2="effect2_dropShadow_8_422" result="shape"/>
</filter>
<radialGradient id="paint0_radial_8_422" cx="0" cy="0" r="1" gradientUnits="userSpaceOnUse" gradientTransform="translate(42.5586 37.9097) rotate(90) scale(33.9097 32)">
<stop stopColor="white"/>
<stop offset="1" stopColor="white"/>
</radialGradient>
<linearGradient id="paint1_linear_8_422" x1="38.9048" y1="15.9518" x2="37.0467" y2="40.1543" gradientUnits="userSpaceOnUse">
<stop stopColor="#39AFFD"/>
<stop offset="1" stopColor="#477FFF"/>
</linearGradient>
<linearGradient id="paint2_linear_8_422" x1="31.289" y1="29.2834" x2="55.4354" y2="56.6138" gradientUnits="userSpaceOnUse">
<stop stopColor="white" stop-opacity="0.25"/>
<stop offset="1" stopColor="white" stop-opacity="0"/>
</linearGradient>
<linearGradient id="paint3_linear_8_422" x1="47.7446" y1="36.5117" x2="34.2821" y2="36.9684" gradientUnits="userSpaceOnUse">
<stop stopColor="white"/>
<stop offset="1" stopColor="white" stop-opacity="0.2"/>
</linearGradient>
<linearGradient id="paint4_linear_8_422" x1="37.8167" y1="38.3107" x2="48.0801" y2="38.3697" gradientUnits="userSpaceOnUse">
<stop stopColor="white"/>
<stop offset="1" stopColor="white" stop-opacity="0"/>
</linearGradient>
</defs>
</svg>
