<svg width="88" height="91" viewBox="0 0 88 91" fill="none" xmlns="http://www.w3.org/2000/svg">
<g filter="url(#filter0_bd_8_2419)">
<rect x="12" y="5" width="64" height="67.8193" rx="20" fill="url(#paint0_radial_8_2419)" fill-opacity="0.7" shape-rendering="crispEdges"/>
<rect x="11.5" y="4.5" width="65" height="68.8193" rx="20.5" stroke="#EAEAEA" shape-rendering="crispEdges"/>
</g>
<path d="M58.8265 24.2307L28.5807 35.9208C26.5396 36.663 26.5396 37.9619 28.2096 38.333L35.8174 40.7453L38.7864 49.652C39.1575 50.5798 38.9719 50.9509 39.8997 50.9509C40.6419 50.9509 41.013 50.5798 41.3842 50.2087C41.5697 50.0231 43.2397 48.3531 45.0953 46.4976L52.8887 52.2498C54.3732 52.9921 55.3009 52.6209 55.6721 50.9509L60.8677 26.643C61.4243 24.6018 60.1254 23.4885 58.8265 24.2307ZM54.9298 29.7974L40.4564 42.972L39.8997 49.0954L36.9308 40.1886L54.002 29.4263C54.7443 28.8696 55.4865 29.2408 54.9298 29.7974Z" fill="#034737"/>
<defs>
<filter id="filter0_bd_8_2419" x="-31.1333" y="-38.1333" width="150.267" height="154.086" filterUnits="userSpaceOnUse" color-interpolation-filters="sRGB">
<feFlood flood-opacity="0" result="BackgroundImageFix"/>
<feGaussianBlur in="BackgroundImageFix" stdDeviation="21.0667"/>
<feComposite in2="SourceAlpha" operator="in" result="effect1_backgroundBlur_8_2419"/>
<feColorMatrix in="SourceAlpha" type="matrix" values="0 0 0 0 0 0 0 0 0 0 0 0 0 0 0 0 0 0 127 0" result="hardAlpha"/>
<feOffset dy="6.4"/>
<feGaussianBlur stdDeviation="5.06667"/>
<feComposite in2="hardAlpha" operator="out"/>
<feColorMatrix type="matrix" values="0 0 0 0 0.0867708 0 0 0 0 0.115317 0 0 0 0 0.141667 0 0 0 0.08 0"/>
<feBlend mode="normal" in2="effect1_backgroundBlur_8_2419" result="effect2_dropShadow_8_2419"/>
<feBlend mode="normal" in="SourceGraphic" in2="effect2_dropShadow_8_2419" result="shape"/>
</filter>
<radialGradient id="paint0_radial_8_2419" cx="0" cy="0" r="1" gradientUnits="userSpaceOnUse" gradientTransform="translate(44 38.9097) rotate(90) scale(33.9097 32)">
<stop stopColor="white"/>
<stop offset="1" stopColor="white"/>
</radialGradient>
</defs>
</svg>
