<svg width="88" height="91" viewBox="0 0 88 91" fill="none" xmlns="http://www.w3.org/2000/svg">
<g filter="url(#filter0_bd_8_7674)">
<rect x="12" y="5" width="64" height="67.8193" rx="20" fill="#5ABE86"/>
<rect x="11.5" y="4.5" width="65" height="68.8193" rx="20.5" stroke="#EAEAEA"/>
</g>
<path d="M51.7297 55.4761L52.1848 53.262L54.5376 49.4997H55.1758V39.367H44.8932C44.1163 39.367 43.4837 39.9996 43.4837 40.7765V42.1733C43.6217 42.1282 43.7663 42.0975 43.9193 42.0975H46.2663V43.1396H43.9193C43.7144 43.1396 43.5475 43.3063 43.5475 43.5114C43.5475 43.5638 43.5485 44.7549 43.5486 44.8324C43.6019 44.8324 46.1021 44.831 46.2663 44.8309V45.873H43.4987C43.4934 45.873 43.489 45.8758 43.4837 45.8761V47.4798C42.9843 47.6962 42.6403 48.1901 42.6403 48.7672V49.8548C42.6403 50.3931 43.0787 50.8315 43.6169 50.8315H49.0162C48.0515 53.4705 48.0507 53.3663 48.0507 53.5339V55.1432C48.0507 56.1698 48.883 56.9966 49.9041 56.9966C50.8086 56.9966 51.5744 56.3529 51.7297 55.4761ZM62.0012 39.3115H56.219V49.4997H62.0012V39.3115ZM58.8943 42.6218H57.8528V41.6724H58.8943V42.6218ZM27.4117 47.6743L28.3589 47.2408C27.4848 45.33 27.0415 43.2784 27.0415 41.1427H26C26 43.429 26.4747 45.6264 27.4117 47.6743ZM41.8573 55.9579C39.7211 55.9579 37.6694 55.5149 35.7592 54.6408L35.3257 55.5881C37.373 56.525 39.5704 57 41.8573 57V55.9579ZM60.9579 36.8573H61.9995C61.9995 34.3743 61.4126 31.91 60.3017 29.7307L59.3739 30.2038C60.41 32.2373 60.9579 34.5379 60.9579 36.8573ZM46.1422 21V22.0421C48.4892 22.0421 50.7299 22.5732 52.8027 23.6212L53.2731 22.6913C51.0529 21.5693 48.6539 21 46.1422 21ZM30.9427 55.6093C32.896 55.6093 34.4886 54.0167 34.4886 52.0578C34.4886 50.1046 32.896 48.512 30.9427 48.512C28.9838 48.512 27.3912 50.1046 27.3912 52.0578C27.3912 54.0167 28.9838 55.6093 30.9427 55.6093ZM60.5085 26.038C60.5085 24.0791 58.9214 22.4865 56.9626 22.4865C55.0093 22.4865 53.4167 24.0791 53.4167 26.038C53.4167 27.9913 55.0093 29.5838 56.9626 29.5838C58.9214 29.5838 60.5085 27.9913 60.5085 26.038ZM39.9669 22.858C39.9669 21.8314 39.1346 21.0045 38.1135 21.0045C37.209 21.0045 36.4432 21.6482 36.2878 22.525L35.8328 24.7391L33.48 28.5014H32.8418V38.6341H43.1244C43.9012 38.6341 44.5338 38.0015 44.5338 37.2246V35.8278C44.3958 35.8729 44.2512 35.9036 44.0983 35.9036H41.7513V34.8615H44.0983C44.3032 34.8615 44.4701 34.6948 44.4701 34.4897C44.47 34.4373 44.469 33.2463 44.469 33.1687C44.4156 33.1687 41.9155 33.1701 41.7513 33.1702V32.1281H44.5188C44.5242 32.1281 44.5286 32.1253 44.5338 32.1251V30.5213C45.0332 30.3049 45.3773 29.811 45.3773 29.2339V28.1463C45.3773 27.608 44.9389 27.1696 44.4007 27.1696H39.0013C39.966 24.5306 39.9669 24.6347 39.9669 24.4672V22.858ZM31.7986 28.5014H26.0164V38.6896H31.7986V28.5014ZM30.1648 36.3287H29.1233V35.3793H30.1648V36.3287Z" fill="white"/>
<defs>
<filter id="filter0_bd_8_7674" x="-31.1333" y="-38.1333" width="150.267" height="154.086" filterUnits="userSpaceOnUse" color-interpolation-filters="sRGB">
<feFlood flood-opacity="0" result="BackgroundImageFix"/>
<feGaussianBlur in="BackgroundImageFix" stdDeviation="21.0667"/>
<feComposite in2="SourceAlpha" operator="in" result="effect1_backgroundBlur_8_7674"/>
<feColorMatrix in="SourceAlpha" type="matrix" values="0 0 0 0 0 0 0 0 0 0 0 0 0 0 0 0 0 0 127 0" result="hardAlpha"/>
<feOffset dy="6.4"/>
<feGaussianBlur stdDeviation="5.06667"/>
<feComposite in2="hardAlpha" operator="out"/>
<feColorMatrix type="matrix" values="0 0 0 0 0.0867708 0 0 0 0 0.115317 0 0 0 0 0.141667 0 0 0 0.08 0"/>
<feBlend mode="normal" in2="effect1_backgroundBlur_8_7674" result="effect2_dropShadow_8_7674"/>
<feBlend mode="normal" in="SourceGraphic" in2="effect2_dropShadow_8_7674" result="shape"/>
</filter>
</defs>
</svg>
