<svg width="88" height="91" viewBox="0 0 88 91" fill="none" xmlns="http://www.w3.org/2000/svg">
<g filter="url(#filter0_bd_8_7396)">
<rect x="12" y="5" width="64" height="67.8193" rx="20" fill="#5ABA87"/>
<rect x="11.5" y="4.5" width="65" height="68.8193" rx="20.5" stroke="#EAEAEA"/>
</g>
<path fill-rule="evenodd" clip-rule="evenodd" d="M51.2962 55.7734H37.5137C37.3396 55.7734 37.1734 55.8415 37.0504 55.9645C36.9274 56.0875 36.8594 56.2537 36.8594 56.4278V57.3203H51.9505V56.4278C51.9505 56.2537 51.8825 56.0875 51.7595 55.9645C51.6365 55.8415 51.4703 55.7734 51.2962 55.7734Z" fill="white"/>
<path fill-rule="evenodd" clip-rule="evenodd" d="M39.7402 54.4651H49.0708V49.1377H39.7402V54.4651Z" fill="white"/>
<path fill-rule="evenodd" clip-rule="evenodd" d="M56.5402 25.9121V39.59C56.5402 40.6735 55.6608 41.5529 54.5772 41.5529H47.8639L44.9286 45.4658C44.8056 45.6307 44.6106 45.7275 44.4052 45.7275C44.1997 45.7275 44.0047 45.6307 43.8817 45.4658L40.9464 41.5529H34.2331C33.1496 41.5529 32.2702 40.6735 32.2702 39.59V25.9121H27.4649C27.2921 25.9121 27.1259 25.9815 27.0029 26.1032C26.8799 26.2262 26.8105 26.3924 26.8105 26.5664V47.1748C26.8105 47.3476 26.8799 47.5151 27.0029 47.6368C27.1259 47.7598 27.2921 47.8292 27.4649 47.8292H61.3455C61.5182 47.8292 61.6844 47.7598 61.8074 47.6368C61.9304 47.5151 61.9998 47.3476 61.9998 47.1748V26.5664C61.9998 26.3924 61.9304 26.2262 61.8074 26.1032C61.6844 25.9815 61.5182 25.9121 61.3455 25.9121H56.5402Z" fill="white"/>
<path fill-rule="evenodd" clip-rule="evenodd" d="M55.2318 21.333V39.5898C55.2318 39.951 54.9387 40.2441 54.5775 40.2441H47.537C47.3303 40.2441 47.1366 40.341 47.0136 40.5058L44.4055 43.9816L41.7973 40.5058C41.6743 40.341 41.4807 40.2441 41.2739 40.2441H34.2334C33.8722 40.2441 33.5791 39.951 33.5791 39.5898V21.333C33.5791 20.9718 33.8722 20.6787 34.2334 20.6787H54.5775C54.9387 20.6787 55.2318 20.9718 55.2318 21.333ZM37.2119 38.2825H48.3837C49.6623 38.2825 50.768 37.3874 51.0311 36.135L52.1958 30.6112C52.3633 29.813 52.1631 28.982 51.6488 28.3486C51.1345 27.7152 50.3623 27.3475 49.5471 27.3475H47.4925V24.1217C47.4925 22.9492 46.5425 21.9991 45.3712 21.9991H45.3686C44.6017 21.9991 43.9147 22.4768 43.6465 23.1965C43.3978 23.8679 43.0249 24.8716 42.6911 25.7693C42.3457 26.6997 41.4676 27.3227 40.4796 27.3462C40.4599 27.3475 37.2119 27.3475 37.2119 27.3475C36.8507 27.3475 36.5576 27.6406 36.5576 28.0018V37.6282C36.5576 37.9906 36.8507 38.2825 37.2119 38.2825ZM39.7663 28.6561V36.9738H37.8662V28.6561H39.7663ZM41.075 36.9738V28.5986C42.36 28.3696 43.4528 27.4784 43.9186 26.2247L44.874 23.6519C44.9512 23.4452 45.1488 23.3078 45.3686 23.3078H45.3712C45.8201 23.3078 46.1839 23.6716 46.1839 24.1204V28.0018C46.1839 28.363 46.477 28.6561 46.8382 28.6561C46.8382 28.6561 48.2083 28.6561 49.5471 28.6561C49.9685 28.6561 50.3676 28.8459 50.6319 29.1731C50.8976 29.5002 51.001 29.9295 50.9146 30.3417L49.7512 35.8654C49.6138 36.5119 49.0446 36.9738 48.3837 36.9738H41.075Z" fill="white"/>
<defs>
<filter id="filter0_bd_8_7396" x="-31.1333" y="-38.1333" width="150.267" height="154.086" filterUnits="userSpaceOnUse" color-interpolation-filters="sRGB">
<feFlood flood-opacity="0" result="BackgroundImageFix"/>
<feGaussianBlur in="BackgroundImageFix" stdDeviation="21.0667"/>
<feComposite in2="SourceAlpha" operator="in" result="effect1_backgroundBlur_8_7396"/>
<feColorMatrix in="SourceAlpha" type="matrix" values="0 0 0 0 0 0 0 0 0 0 0 0 0 0 0 0 0 0 127 0" result="hardAlpha"/>
<feOffset dy="6.4"/>
<feGaussianBlur stdDeviation="5.06667"/>
<feComposite in2="hardAlpha" operator="out"/>
<feColorMatrix type="matrix" values="0 0 0 0 0.0867708 0 0 0 0 0.115317 0 0 0 0 0.141667 0 0 0 0.08 0"/>
<feBlend mode="normal" in2="effect1_backgroundBlur_8_7396" result="effect2_dropShadow_8_7396"/>
<feBlend mode="normal" in="SourceGraphic" in2="effect2_dropShadow_8_7396" result="shape"/>
</filter>
</defs>
</svg>
