<svg width="87" height="91" viewBox="0 0 87 91" fill="none" xmlns="http://www.w3.org/2000/svg">
<g filter="url(#filter0_bd_8_7409)">
<rect x="11.5586" y="5" width="64" height="67.8193" rx="20" fill="#E6A55B"/>
<rect x="11.0586" y="4.5" width="65" height="68.8193" rx="20.5" stroke="#EAEAEA"/>
</g>
<path d="M55.7583 27.9691C55.5068 27.8391 55.2619 27.6966 55.0247 27.5422C54.3348 27.0861 53.7023 26.5487 53.1407 25.9415C51.7357 24.3339 51.211 22.703 51.0177 21.5611H51.0254C50.8639 20.6132 50.9308 20 50.9408 20H44.5413V44.7457C44.5413 45.078 44.5413 45.4063 44.5273 45.7308C44.5273 45.7712 44.5234 45.8085 44.5211 45.8519C44.5211 45.8698 44.5211 45.8884 44.5172 45.907V45.921C44.4498 46.8089 44.1651 47.6665 43.6885 48.4186C43.2117 49.1707 42.5575 49.794 41.7833 50.234C40.9764 50.6929 40.0637 50.9338 39.1354 50.9326C36.1538 50.9326 33.7373 48.5013 33.7373 45.4987C33.7373 42.4962 36.1538 40.0649 39.1354 40.0649C39.6998 40.0644 40.2607 40.1531 40.7974 40.328L40.8051 33.812C39.176 33.6016 37.521 33.7311 35.9444 34.1923C34.3679 34.6535 32.9041 35.4364 31.6452 36.4917C30.5422 37.4501 29.6149 38.5937 28.905 39.8708C28.6349 40.3365 27.6156 42.2081 27.4922 45.2457C27.4146 46.9698 27.9323 48.756 28.1792 49.4941V49.5097C28.3345 49.9444 28.936 51.4278 29.9165 52.6784C30.7071 53.6815 31.6411 54.5627 32.6885 55.2936V55.2781L32.7041 55.2936C35.8021 57.3989 39.2371 57.2607 39.2371 57.2607C39.8317 57.2366 41.8236 57.2607 44.0856 56.1886C46.5945 55.0002 48.0229 53.2296 48.0229 53.2296C48.9353 52.1715 49.6609 50.9659 50.1684 49.6641C50.7475 48.1419 50.9408 46.3161 50.9408 45.5864V32.4582C51.0185 32.5048 52.0524 33.1887 52.0524 33.1887C52.0524 33.1887 53.5421 34.1436 55.8662 34.7653C57.5336 35.2078 59.7802 35.301 59.7802 35.301V28.948C58.993 29.0334 57.3947 28.785 55.7583 27.9691Z" fill="white"/>
<defs>
<filter id="filter0_bd_8_7409" x="-31.5747" y="-38.1333" width="150.267" height="154.086" filterUnits="userSpaceOnUse" color-interpolation-filters="sRGB">
<feFlood flood-opacity="0" result="BackgroundImageFix"/>
<feGaussianBlur in="BackgroundImageFix" stdDeviation="21.0667"/>
<feComposite in2="SourceAlpha" operator="in" result="effect1_backgroundBlur_8_7409"/>
<feColorMatrix in="SourceAlpha" type="matrix" values="0 0 0 0 0 0 0 0 0 0 0 0 0 0 0 0 0 0 127 0" result="hardAlpha"/>
<feOffset dy="6.4"/>
<feGaussianBlur stdDeviation="5.06667"/>
<feComposite in2="hardAlpha" operator="out"/>
<feColorMatrix type="matrix" values="0 0 0 0 0.0867708 0 0 0 0 0.115317 0 0 0 0 0.141667 0 0 0 0.08 0"/>
<feBlend mode="normal" in2="effect1_backgroundBlur_8_7409" result="effect2_dropShadow_8_7409"/>
<feBlend mode="normal" in="SourceGraphic" in2="effect2_dropShadow_8_7409" result="shape"/>
</filter>
</defs>
</svg>
