<svg width="88" height="91" viewBox="0 0 88 91" fill="none" xmlns="http://www.w3.org/2000/svg">
<g filter="url(#filter0_bd_8_2378)">
<rect x="12" y="5" width="64" height="67.8193" rx="20" fill="url(#paint0_radial_8_2378)" fill-opacity="0.7" shape-rendering="crispEdges"/>
<rect x="11.5" y="4.5" width="65" height="68.8193" rx="20.5" stroke="#EAEAEA" shape-rendering="crispEdges"/>
</g>
<g clip-path="url(#clip0_8_2378)">
<path fill-rule="evenodd" clip-rule="evenodd" d="M56.0459 26.9645C52.8503 23.7647 48.6 22.0017 44.0714 22C34.7399 22 27.1453 29.5937 27.1421 38.9277C27.1405 41.9116 27.9205 44.8241 29.4019 47.3908L27 56.1639L35.9745 53.8099C38.4469 55.1591 41.2311 55.8693 44.0641 55.8701H44.0714C53.4013 55.8701 60.9967 48.2756 60.9999 38.9415C61.0015 34.4179 59.2425 30.1652 56.0459 26.9653V26.9645ZM44.0714 53.0112H44.0657C41.5412 53.0105 39.0647 52.3317 36.9039 51.0501L36.3901 50.7449L31.0643 52.1418L32.4857 46.9492L32.1512 46.4167C30.7429 44.1764 29.9985 41.5869 30.0001 38.9286C30.0034 31.1709 36.3154 24.8589 44.0771 24.8589C47.8353 24.8605 51.3681 26.3257 54.0247 28.9857C56.6816 31.6449 58.1435 35.1809 58.1419 38.9399C58.1385 46.6984 51.8267 53.0105 44.0714 53.0105V53.0112ZM51.7893 42.4734C51.3663 42.2615 49.2868 41.2387 48.8987 41.0975C48.5107 40.9562 48.2291 40.8857 47.9474 41.3093C47.6657 41.7331 46.8549 42.6861 46.6081 42.9677C46.3613 43.2502 46.1145 43.2851 45.6916 43.0732C45.2687 42.8613 43.9058 42.4149 42.2897 40.9741C41.0323 39.8523 40.1832 38.4675 39.9365 38.0437C39.6897 37.6201 39.9105 37.3911 40.1215 37.1809C40.3115 36.991 40.5445 36.6866 40.7563 36.4398C40.9682 36.193 41.038 36.0161 41.1792 35.7344C41.3205 35.4519 41.2499 35.2053 41.1444 34.9933C41.0388 34.7815 40.193 32.6993 39.8399 31.8527C39.4965 31.0281 39.1475 31.1401 38.8886 31.1263C38.6417 31.1141 38.3601 31.1117 38.0777 31.1117C37.7952 31.1117 37.3373 31.2171 36.9493 31.6409C36.5613 32.0645 35.4687 33.0882 35.4687 35.1694C35.4687 37.2507 36.9843 39.2631 37.1961 39.5455C37.4079 39.828 40.1791 44.1001 44.4221 45.933C45.4311 46.3689 46.2192 46.6294 46.8337 46.8242C47.8468 47.1465 48.7689 47.1011 49.4977 46.9922C50.3104 46.8705 52.0004 45.9687 52.3527 44.9807C52.7049 43.9929 52.7049 43.1455 52.5994 42.9693C52.4939 42.7932 52.2115 42.6868 51.7885 42.475L51.7893 42.4734Z" fill="#034737"/>
</g>
<defs>
<filter id="filter0_bd_8_2378" x="-31.1333" y="-38.1333" width="150.267" height="154.086" filterUnits="userSpaceOnUse" color-interpolation-filters="sRGB">
<feFlood flood-opacity="0" result="BackgroundImageFix"/>
<feGaussianBlur in="BackgroundImageFix" stdDeviation="21.0667"/>
<feComposite in2="SourceAlpha" operator="in" result="effect1_backgroundBlur_8_2378"/>
<feColorMatrix in="SourceAlpha" type="matrix" values="0 0 0 0 0 0 0 0 0 0 0 0 0 0 0 0 0 0 127 0" result="hardAlpha"/>
<feOffset dy="6.4"/>
<feGaussianBlur stdDeviation="5.06667"/>
<feComposite in2="hardAlpha" operator="out"/>
<feColorMatrix type="matrix" values="0 0 0 0 0.0867708 0 0 0 0 0.115317 0 0 0 0 0.141667 0 0 0 0.08 0"/>
<feBlend mode="normal" in2="effect1_backgroundBlur_8_2378" result="effect2_dropShadow_8_2378"/>
<feBlend mode="normal" in="SourceGraphic" in2="effect2_dropShadow_8_2378" result="shape"/>
</filter>
<radialGradient id="paint0_radial_8_2378" cx="0" cy="0" r="1" gradientUnits="userSpaceOnUse" gradientTransform="translate(44 38.9097) rotate(90) scale(33.9097 32)">
<stop stopColor="white"/>
<stop offset="1" stopColor="white"/>
</radialGradient>
<clip-path id="clip0_8_2378">
<rect width="34" height="34.1639" fill="white" transform="translate(27 22)"/>
</clip-path>
</defs>
</svg>
