<svg width="120" height="120" viewBox="0 0 120 120" fill="none" xmlns="http://www.w3.org/2000/svg">
<path d="M74.2452 112.353C74.4843 112.215 74.5663 111.909 74.4282 111.67L81.5526 107.557C81.6906 107.796 81.9964 107.878 82.2356 107.74L90.226 103.126C90.4651 102.988 90.547 102.683 90.409 102.443L97.5333 98.3301C97.6714 98.5693 97.9772 98.6512 98.2163 98.5131L102.212 96.2065C103.784 95.2987 105.207 94.1999 106.458 92.949C106.653 92.7537 106.653 92.4371 106.458 92.2419C106.456 92.2404 106.455 92.2389 106.453 92.2375C108.638 89.9397 110.248 87.1521 111.145 84.1108C111.147 84.1114 111.149 84.1119 111.151 84.1125C111.418 84.184 111.692 84.0257 111.763 83.759C112.221 82.0503 112.462 80.2687 112.462 78.453L112.462 73.8397C112.462 73.5636 112.238 73.3397 111.962 73.3397L111.962 65.1133C112.238 65.1133 112.462 64.8894 112.462 64.6133L112.462 55.3867C112.462 55.1106 112.238 54.8867 111.962 54.8867L111.962 46.6603C112.238 46.6603 112.462 46.4364 112.462 46.1603L112.462 41.547C112.462 39.7313 112.221 37.9497 111.763 36.241C111.692 35.9743 111.418 35.816 111.151 35.8875C111.149 35.8881 111.147 35.8886 111.145 35.8892C110.248 32.8479 108.638 30.0603 106.453 27.7625C106.455 27.7611 106.456 27.7596 106.458 27.7581C106.653 27.5629 106.653 27.2463 106.458 27.051C105.207 25.8001 103.784 24.7013 102.212 23.7935L98.2163 21.4869C97.9772 21.3488 97.6714 21.4307 97.5333 21.6699L90.409 17.5566C90.547 17.3175 90.4651 17.0117 90.226 16.8736L82.2356 12.2604C81.9964 12.1223 81.6906 12.2042 81.5526 12.4434L74.4282 8.33012C74.5663 8.09097 74.4843 7.78518 74.2452 7.64711L70.25 5.34048C68.6776 4.43264 67.0146 3.7498 65.3059 3.29206C65.0391 3.22061 64.765 3.37892 64.6935 3.64566C64.693 3.64767 64.6924 3.64969 64.6919 3.65171C61.6094 2.90811 58.3906 2.9081 55.3081 3.65171C55.3076 3.64969 55.3071 3.64768 55.3065 3.64565C55.2351 3.37892 54.9609 3.22061 54.6942 3.29207C52.9855 3.74981 51.3224 4.43265 49.75 5.34049L45.7548 7.64711C45.5157 7.78518 45.4337 8.09097 45.5718 8.33013L38.4475 12.4434C38.3094 12.2042 38.0036 12.1223 37.7644 12.2604L29.7741 16.8736C29.5349 17.0117 29.453 17.3175 29.591 17.5566L22.4667 21.6699C22.3286 21.4307 22.0228 21.3488 21.7837 21.4869L17.7885 23.7935C16.2161 24.7013 14.7932 25.8001 13.5424 27.051C13.3472 27.2463 13.3472 27.5629 13.5425 27.7581C13.5439 27.7596 13.5454 27.7611 13.5469 27.7625C11.3617 30.0602 9.75227 32.8478 8.855 35.8892C8.853 35.8886 8.85099 35.8881 8.84898 35.8875C8.58224 35.816 8.30807 35.9743 8.23658 36.241C7.77865 37.9497 7.53848 39.7313 7.53848 41.547L7.53848 46.1602C7.53848 46.4364 7.76234 46.6602 8.03848 46.6602L8.03848 54.8867C7.76233 54.8867 7.53848 55.1106 7.53848 55.3867L7.53848 64.6132C7.53848 64.8894 7.76233 65.1132 8.03848 65.1132L8.03848 73.3397C7.76233 73.3397 7.53848 73.5636 7.53848 73.8397L7.53848 78.453C7.53848 80.2687 7.77864 82.0503 8.23658 83.759C8.30806 84.0257 8.58224 84.184 8.84896 84.1125C8.85099 84.1119 8.85299 84.1114 8.855 84.1108C9.75226 87.1521 11.3617 89.9397 13.5469 92.2374C13.5454 92.2389 13.5439 92.2404 13.5425 92.2418C13.3472 92.4371 13.3472 92.7537 13.5424 92.949C14.7932 94.1999 16.2161 95.2987 17.7885 96.2065L21.7837 98.5131C22.0228 98.6512 22.3286 98.5693 22.4667 98.3301L29.591 102.443C29.453 102.683 29.5349 102.988 29.774 103.126L37.7644 107.74C38.0036 107.878 38.3094 107.796 38.4474 107.557L45.5718 111.67C45.4337 111.909 45.5157 112.215 45.7548 112.353L49.75 114.66C51.3224 115.567 52.9855 116.25 54.6942 116.708C54.9609 116.779 55.235 116.621 55.3065 116.354C55.307 116.352 55.3076 116.35 55.3081 116.348C58.3906 117.092 61.6094 117.092 64.6919 116.348C64.6924 116.35 64.693 116.352 64.6935 116.354C64.765 116.621 65.0391 116.779 65.3058 116.708C67.0145 116.25 68.6776 115.567 70.25 114.66L74.2452 112.353Z" fill="#FCE1E4" stroke="#2DA771" strokeLinecap="round" stroke-dasharray="8 8"/>
<rect x="95" y="25" width="70" height="70" rx="35" transform="rotate(90 95 25)" fill="white"/>
</svg>
