<svg width="20" height="20" viewBox="0 0 20 20" fill="none" xmlns="http://www.w3.org/2000/svg">
<path d="M3.32812 5.83464H16.6615" stroke="#4B465C" strokeWidth="1.45833" strokeLinecap="round" strokeLinejoin="round"/>
<path d="M3.32812 5.83464H16.6615" stroke="white" strokeOpacity="0.2" strokeWidth="1.45833" strokeLinecap="round" strokeLinejoin="round"/>
<path d="M8.33073 9.16797V14.168" stroke="#4B465C" strokeWidth="1.45833" strokeLinecap="round" strokeLinejoin="round"/>
<path d="M8.33073 9.16797V14.168" stroke="white" strokeOpacity="0.2" strokeWidth="1.45833" strokeLinecap="round" strokeLinejoin="round"/>
<path d="M11.6667 9.16797V14.168" stroke="#4B465C" strokeWidth="1.45833" strokeLinecap="round" strokeLinejoin="round"/>
<path d="M11.6667 9.16797V14.168" stroke="white" strokeOpacity="0.2" strokeWidth="1.45833" strokeLinecap="round" strokeLinejoin="round"/>
<path d="M4.16406 5.83203L4.9974 15.832C4.9974 16.7525 5.74359 17.4987 6.66406 17.4987H13.3307C14.2512 17.4987 14.9974 16.7525 14.9974 15.832L15.8307 5.83203" stroke="#4B465C" strokeWidth="1.45833" strokeLinecap="round" strokeLinejoin="round"/>
<path d="M4.16406 5.83203L4.9974 15.832C4.9974 16.7525 5.74359 17.4987 6.66406 17.4987H13.3307C14.2512 17.4987 14.9974 16.7525 14.9974 15.832L15.8307 5.83203" stroke="white" strokeOpacity="0.2" strokeWidth="1.45833" strokeLinecap="round" strokeLinejoin="round"/>
<path d="M7.5 5.83333V3.33333C7.5 2.8731 7.8731 2.5 8.33333 2.5H11.6667C12.1269 2.5 12.5 2.8731 12.5 3.33333V5.83333" stroke="#4B465C" strokeWidth="1.45833" strokeLinecap="round" strokeLinejoin="round"/>
<path d="M7.5 5.83333V3.33333C7.5 2.8731 7.8731 2.5 8.33333 2.5H11.6667C12.1269 2.5 12.5 2.8731 12.5 3.33333V5.83333" stroke="white" strokeOpacity="0.2" strokeWidth="1.45833" strokeLinecap="round" strokeLinejoin="round"/>
</svg>
