<svg width="20" height="20" viewBox="0 0 20 20" fill="none" xmlns="http://www.w3.org/2000/svg">
<path d="M3.27383 15.5137H0.23577C0.10778 15.5137 0 15.6428 0 15.796V19.717C0 19.8703 0.10778 19.9993 0.23577 19.9993H3.27383C3.40182 19.9993 3.5096 19.8703 3.5096 19.717V15.796C3.5096 15.6428 3.40855 15.5137 3.27383 15.5137Z" fill="black"/>
<path d="M8.77041 6.9707H5.73235C5.60436 6.9707 5.49658 7.09979 5.49658 7.25307V19.7178C5.49658 19.871 5.60436 20.0001 5.73235 20.0001H8.77041C8.8984 20.0001 9.00618 19.871 9.00618 19.7178V7.25307C9.00618 7.09979 8.8984 6.9707 8.77041 6.9707Z" fill="black"/>
<path d="M14.2675 9.48828H11.2294C11.1014 9.48828 10.9937 9.61737 10.9937 9.77065V19.7101C10.9937 19.8634 11.1014 19.9925 11.2294 19.9925H14.2675C14.3955 19.9925 14.5033 19.8634 14.5033 19.7101V9.77065C14.5033 9.61737 14.3955 9.48828 14.2675 9.48828Z" fill="black"/>
<path d="M19.7641 6.9707H16.726C16.598 6.9707 16.4902 7.09979 16.4902 7.25307V19.7178C16.4902 19.871 16.598 20.0001 16.726 20.0001H19.7641C19.8921 20.0001 19.9998 19.871 19.9998 19.7178V7.25307C19.9998 7.09979 19.8921 6.9707 19.7641 6.9707Z" fill="black"/>
<path d="M14.0315 3.81538C13.9777 3.56528 13.8699 3.33938 13.7284 3.15382C13.7217 3.14575 13.7217 3.13769 13.7149 3.13769C13.6947 3.11348 13.6745 3.08928 13.6543 3.06508C13.6476 3.05701 13.6408 3.04894 13.6274 3.04087C13.6072 3.01667 13.5869 3.00053 13.5667 2.97633C13.5533 2.96826 13.5465 2.9602 13.5331 2.94406C13.5129 2.92792 13.4926 2.91179 13.4724 2.88759C13.459 2.87952 13.4455 2.86338 13.432 2.85531C13.3983 2.83111 13.3714 2.81497 13.3377 2.79077C13.3175 2.77464 13.2973 2.76657 13.2771 2.7585C13.2636 2.75043 13.2434 2.74237 13.2299 2.7343C13.2097 2.72623 13.1895 2.71009 13.1626 2.70203C13.1491 2.69396 13.1289 2.68589 13.1154 2.68589C13.0885 2.67782 13.0683 2.66976 13.0413 2.66169C13.0278 2.65362 13.0076 2.65362 12.9942 2.64555C12.9672 2.63749 12.9403 2.63748 12.9133 2.62942C12.8998 2.62942 12.8864 2.62135 12.8729 2.62135C12.8325 2.61328 12.7921 2.61328 12.7449 2.61328C12.6978 2.61328 12.6573 2.61328 12.6169 2.62135C12.6035 2.62135 12.59 2.62942 12.5765 2.62942C12.5496 2.63748 12.5226 2.63749 12.4957 2.64555C12.4822 2.64555 12.462 2.65362 12.4485 2.66169C12.4216 2.66976 12.4014 2.67782 12.3744 2.68589C12.3609 2.69396 12.3407 2.69396 12.3273 2.70203C12.3071 2.71009 12.2801 2.71816 12.2599 2.7343C12.2464 2.74237 12.2262 2.75043 12.2127 2.7585C12.1925 2.76657 12.1723 2.7827 12.1521 2.79077C12.1184 2.80691 12.0848 2.83111 12.0578 2.85531C12.0443 2.86338 12.0309 2.87145 12.0174 2.88759C11.9972 2.90372 11.977 2.91986 11.9568 2.94406C11.9433 2.95213 11.9366 2.96019 11.9231 2.97633C11.9029 2.99247 11.8827 3.01667 11.8625 3.04087C11.8557 3.04894 11.849 3.05701 11.8355 3.06508C11.8153 3.08928 11.7951 3.11348 11.7749 3.13769C11.7682 3.14575 11.7682 3.15382 11.7614 3.15382C11.62 3.33938 11.5122 3.56528 11.4583 3.81538C11.4313 3.94446 11.4111 4.08161 11.4111 4.22683C11.4111 4.29137 11.4179 4.35592 11.4246 4.41239C11.4515 4.65442 11.5189 4.87225 11.62 5.07395C11.6267 5.08201 11.6267 5.09008 11.6334 5.09815C11.6469 5.13042 11.6671 5.15463 11.6873 5.1869C11.6941 5.19496 11.7008 5.2111 11.7075 5.21917C11.721 5.24337 11.7412 5.26757 11.7614 5.29178C11.7682 5.30791 11.7816 5.31598 11.7884 5.33211C11.8086 5.35632 11.822 5.37245 11.8423 5.39666C11.8557 5.41279 11.8692 5.42086 11.8827 5.437C11.9029 5.45313 11.9164 5.46927 11.9366 5.49347C11.95 5.50961 11.9635 5.51767 11.9837 5.53381C12.0039 5.54994 12.0174 5.56608 12.0376 5.58222C12.0511 5.59835 12.0713 5.60642 12.0915 5.62255C12.1117 5.63869 12.1252 5.64676 12.1454 5.66289C12.1656 5.67096 12.1858 5.6871 12.206 5.69516C12.2262 5.70323 12.2397 5.7113 12.2599 5.72744C12.2801 5.7355 12.3003 5.74357 12.3273 5.75164C12.3475 5.75971 12.3609 5.76777 12.3812 5.77584C12.4014 5.78391 12.4283 5.79198 12.4553 5.80004C12.4755 5.80811 12.4889 5.80811 12.5091 5.81618C12.5361 5.82425 12.563 5.82425 12.59 5.83232C12.6035 5.83232 12.6169 5.84038 12.6371 5.84038C12.6776 5.84845 12.7247 5.84845 12.7651 5.84845C12.8055 5.84845 12.8527 5.84845 12.8931 5.84038C12.9066 5.84038 12.9201 5.83232 12.9403 5.83232C12.9672 5.82425 12.9942 5.82425 13.0211 5.81618C13.0413 5.80811 13.0548 5.80811 13.075 5.80004C13.1019 5.79198 13.1221 5.78391 13.1491 5.77584C13.1693 5.76777 13.1828 5.75971 13.203 5.75164C13.2232 5.74357 13.2434 5.7355 13.2703 5.72744C13.2906 5.71937 13.304 5.7113 13.3242 5.69516C13.3444 5.6871 13.3647 5.67096 13.3849 5.66289C13.4051 5.65483 13.4185 5.63869 13.4387 5.62255C13.459 5.61449 13.4724 5.59835 13.4926 5.58222C13.5129 5.56608 13.5263 5.54994 13.5465 5.53381C13.56 5.51767 13.5735 5.50961 13.5937 5.49347C13.6139 5.47733 13.6274 5.4612 13.6476 5.437C13.661 5.42086 13.6745 5.41279 13.688 5.39666C13.7082 5.37245 13.7217 5.35632 13.7419 5.33211C13.7486 5.31598 13.7621 5.30791 13.7688 5.29178C13.789 5.26757 13.8025 5.24337 13.8227 5.21917C13.8295 5.2111 13.8362 5.19496 13.8429 5.1869C13.8631 5.15463 13.8766 5.13042 13.8968 5.09815C13.9036 5.09008 13.9036 5.08201 13.9103 5.07395C14.0113 4.88032 14.0787 4.65442 14.1056 4.41239C14.1124 4.34785 14.1191 4.29137 14.1191 4.22683C14.0787 4.08161 14.0652 3.94446 14.0315 3.81538Z" fill="black"/>
<path d="M18.242 0C17.5077 0 16.9082 0.718031 16.9082 1.59742C16.9082 1.65389 16.9082 1.71036 16.9149 1.75877C16.9149 1.76684 16.9149 1.77491 16.9149 1.77491C16.9217 1.82331 16.9284 1.87172 16.9351 1.92013C16.9351 1.92013 16.9351 1.92013 16.9351 1.92819C16.9554 2.03307 16.9823 2.12989 17.016 2.2267C17.0833 2.40419 17.1709 2.56555 17.2854 2.7027C17.373 2.81565 17.4808 2.91246 17.5953 2.98507C17.629 3.00927 17.6694 3.03348 17.7031 3.04961C17.7031 3.04961 17.7098 3.04961 17.7098 3.05768C17.7435 3.07381 17.7839 3.08995 17.8176 3.10609C17.8243 3.10609 17.8311 3.11415 17.8378 3.11415C17.8715 3.13029 17.9052 3.13836 17.9389 3.14642C17.9456 3.14642 17.9591 3.15449 17.9658 3.15449C17.9995 3.16256 18.0332 3.17063 18.0668 3.17063C18.0803 3.17063 18.0871 3.1787 18.1005 3.1787C18.1477 3.18676 18.1948 3.18676 18.2352 3.18676C18.9695 3.18676 19.569 2.46873 19.569 1.58935C19.569 0.709962 18.9762 0 18.242 0Z" fill="black"/>
<path d="M8.55517 1.92794C8.56191 1.87146 8.56864 1.83113 8.57538 1.78272C8.57538 1.77465 8.57538 1.76658 8.57538 1.76658C8.58212 1.71011 8.58211 1.65363 8.58211 1.60523C8.58211 0.725843 7.98259 0.0078125 7.24833 0.0078125C6.51408 0.0078125 5.91455 0.725843 5.91455 1.60523C5.91455 1.65363 5.91455 1.70204 5.92129 1.75045C5.92129 1.75852 5.92129 1.77465 5.92129 1.78272C5.92802 1.83113 5.92802 1.87146 5.9415 1.91987C5.9415 1.92794 5.9415 1.93601 5.94823 1.94407C5.95497 1.98441 5.9617 2.02475 5.97518 2.06509C5.97518 2.07316 5.98191 2.08123 5.98191 2.08929C5.99539 2.12963 6.00886 2.16997 6.02233 2.21031C6.02907 2.21838 6.02907 2.23451 6.0358 2.24258C6.11664 2.46848 6.23789 2.6621 6.39283 2.81539C6.41977 2.83959 6.43998 2.8638 6.46693 2.888C6.47366 2.89607 6.4804 2.90414 6.48713 2.90414C6.50734 2.92027 6.53429 2.94448 6.5545 2.96061C6.56797 2.96868 6.57471 2.97675 6.58818 2.98481C6.60839 3.00095 6.63533 3.01709 6.65554 3.02515C6.66901 3.03322 6.68249 3.04129 6.69596 3.04936C6.71617 3.05743 6.73638 3.07356 6.76332 3.08163C6.78353 3.0897 6.797 3.09776 6.81721 3.10583C6.83742 3.1139 6.85763 3.12197 6.87784 3.13003C6.89805 3.1381 6.91826 3.14617 6.93846 3.14617C6.95867 3.15424 6.97888 3.15424 6.99235 3.16231C7.0193 3.17037 7.04624 3.17037 7.07319 3.17844C7.08666 3.17844 7.10687 3.18651 7.12034 3.18651C7.16076 3.19458 7.20791 3.19458 7.24833 3.19458C7.29549 3.19458 7.34264 3.19458 7.38306 3.18651C7.39653 3.18651 7.40327 3.17844 7.41674 3.17844C7.45042 3.17037 7.4841 3.17037 7.51778 3.16231C7.52452 3.16231 7.53799 3.15424 7.54473 3.15424C7.57841 3.14617 7.61209 3.1381 7.64577 3.12197C7.65251 3.12197 7.65925 3.1139 7.66598 3.1139C7.69966 3.09776 7.74008 3.08163 7.77376 3.06549C7.77376 3.06549 7.7805 3.06549 7.7805 3.05742C7.82092 3.04129 7.8546 3.01709 7.88828 2.99288C8.00279 2.9122 8.10384 2.82346 8.19815 2.71051C8.30593 2.57336 8.40024 2.412 8.4676 2.23451C8.50802 2.12963 8.53496 2.03282 8.55517 1.92794Z" fill="black"/>
<path d="M5.86737 2.71875L2.21631 9.16489C2.37124 9.22136 2.51944 9.30204 2.65417 9.40692L6.19745 3.14634C6.06946 3.02532 5.96168 2.88011 5.86737 2.71875Z" fill="black"/>
<path d="M11.0742 4.22689C11.0742 4.02519 11.1012 3.83157 11.1483 3.65408L8.78391 2.39551C8.71655 2.573 8.63571 2.73435 8.53467 2.87957L11.0742 4.22689Z" fill="black"/>
<path d="M16.9618 2.87957C16.8608 2.73435 16.7732 2.573 16.7126 2.39551L14.3481 3.65408C14.3953 3.83964 14.4222 4.03326 14.4222 4.22689C14.4222 4.22689 14.4222 4.22689 14.4222 4.23496L16.9618 2.87957Z" fill="black"/>
<path d="M3.08525 10.9398C3.08525 10.9317 3.08525 10.9156 3.08525 10.9075C3.07851 10.8591 3.07851 10.8187 3.06504 10.7703C3.06504 10.7623 3.06504 10.7542 3.0583 10.7461C3.05156 10.7058 3.04483 10.6735 3.03135 10.6332C3.03135 10.617 3.02462 10.609 3.02462 10.5928C3.01115 10.5525 3.00441 10.5122 2.99094 10.4718C2.9842 10.4557 2.97746 10.4396 2.97746 10.4315C2.97073 10.4073 2.95726 10.3831 2.94378 10.3508C2.93705 10.3347 2.93031 10.3185 2.92357 10.3024C2.9101 10.2701 2.88989 10.2379 2.87642 10.2056C2.86295 10.1895 2.85621 10.1653 2.84274 10.1491C2.836 10.133 2.82253 10.1168 2.81579 10.1088C2.78885 10.0684 2.76864 10.0362 2.74169 10.0039C2.73496 9.99583 2.72822 9.98776 2.72822 9.97969C2.71475 9.95549 2.69454 9.93935 2.67433 9.91515C2.6676 9.90708 2.6676 9.90708 2.66086 9.89902C2.62718 9.85868 2.58676 9.82641 2.55308 9.79413L2.54634 9.78607C2.52613 9.76993 2.50593 9.74573 2.47898 9.72959C2.34426 9.62471 2.19606 9.5521 2.03439 9.51176C1.94681 9.48756 1.85924 9.47949 1.76493 9.47949C1.03068 9.47949 0.431152 10.1975 0.431152 11.0769C0.431152 11.9563 1.03068 12.6743 1.76493 12.6743C2.49919 12.6743 3.09872 11.9563 3.09872 11.0769C3.08525 11.0366 3.08525 10.9882 3.08525 10.9398Z" fill="blue"/>
</svg>
