<svg width="25" height="20" viewBox="0 0 25 20" fill="none" xmlns="http://www.w3.org/2000/svg">
<path fill-rule="evenodd" clip-rule="evenodd" d="M14.9542 4.0147C14.9542 6.26127 13.8552 9.12937 12.5001 9.12937C11.1449 9.12937 10.0459 6.26286 10.0459 4.0147C10.0459 -1.33823 14.9542 -1.33823 14.9542 4.0147ZM21.8842 4.60526C21.8842 6.55484 20.9311 9.04136 19.7551 9.04136C18.5791 9.04136 17.6259 6.55475 17.6259 4.60526C17.6259 -0.0381706 21.8842 -0.0381706 21.8842 4.60526ZM7.374 4.60526C7.374 6.55484 6.42089 9.04136 5.24485 9.04136C4.06881 9.04136 3.1157 6.55475 3.1157 4.60526C3.1157 -0.0381706 7.374 -0.0381706 7.374 4.60526ZM6.10527 18.1505H0C0 13.3484 2.34893 9.45601 5.24474 9.45601C6.50828 9.45601 7.66762 10.1968 8.57378 11.4315C7.2967 13.0426 6.39068 15.4188 6.10527 18.1505ZM18.8947 18.1505L25 18.1488C24.999 13.3466 22.6511 9.45605 19.7553 9.45605C18.4917 9.45605 17.3324 10.1969 16.4262 11.4315C17.7033 13.0426 18.6093 15.4188 18.8947 18.1505ZM6.45326 19.9999L18.5459 19.9965C18.5449 14.4618 15.8388 9.97578 12.5001 9.97578C9.1615 9.97578 6.45326 14.4635 6.45326 19.9999Z" fill="#800080"/>
</svg>
