<svg width="20" height="20" viewBox="0 0 20 20" fill="none" xmlns="http://www.w3.org/2000/svg">
<path d="M4.13375 0C2.20378 0 0.00287723 0.933418 0.000283048 2.80022L0.00120416 2.88551C0.0638488 4.70065 2.23519 5.60885 4.13939 5.60885C6.04356 5.60885 8.21484 4.70069 8.27757 2.88551L8.27849 2.80022C8.27573 0.932219 6.06663 0 4.13583 0H4.13375ZM13.2907 5.26524H13.2898C12.4377 5.26524 12.0167 5.62081 12.0167 6.32837V6.78367C12.0167 7.39154 12.3741 7.77232 13.0881 7.92609L13.2981 7.96813L13.2907 5.26524ZM8.27642 4.46157V4.46277C7.39112 5.76378 5.49522 6.24669 4.13918 6.24669C2.78773 6.24669 0.888199 5.76498 0.00193388 4.46157L9.13131e-05 6.48454C0.0452324 7.78675 1.17466 8.62163 2.51314 8.98922H2.51406C3.13497 6.83651 5.72259 6.189 7.26023 6.17941C7.2851 6.17821 7.29339 6.17821 7.29339 6.17821C7.58635 6.17821 7.92536 6.19983 8.27819 6.25269L8.27642 4.46157ZM12.1087 9.07576C12.1797 9.34966 12.2174 9.64998 12.2183 9.97673V9.97914L12.2193 12.0177C12.4238 12.2748 12.7831 12.4033 13.298 12.4033V9.40851L13.088 9.36527C12.7158 9.28959 12.3888 9.19589 12.1097 9.07576L12.1087 9.07576ZM14.0074 9.5707V9.5719L13.9963 12.4033C14.8042 12.4033 15.2077 12.049 15.2077 11.3402V10.7323C15.2234 10.1245 14.866 9.74489 14.1363 9.58992L14.0074 9.5707ZM0 10.0873C0.0460608 11.3426 1.09809 12.1619 2.37485 12.5475L2.37669 9.99476C2.37762 9.86021 2.38314 9.73167 2.39604 9.60555V9.60434C1.4573 9.34246 0.543443 8.85594 0.00350049 8.06309L0 10.0873ZM7.29247 7.19576H7.29155C5.36157 7.19576 3.16067 8.13038 3.15808 9.99599L3.159 10.0813C3.22256 11.8976 5.39299 12.8046 7.29718 12.8046C9.20228 12.8046 11.3726 11.8964 11.4354 10.0813L11.4372 9.99599C11.4335 8.12798 9.22443 7.19576 7.2936 7.19576H7.29247ZM0 13.6899C0.0488248 14.9428 1.09533 15.7585 2.36943 16.1441L2.3768 13.1974C1.44452 12.9331 0.53986 12.449 0.00383234 11.6609L0 13.6899ZM11.4307 11.6657C10.5454 12.9667 8.65323 13.4424 7.29718 13.4424C5.94666 13.4424 4.04527 12.9595 3.159 11.6561L3.15808 13.6803C3.22072 15.4966 5.39299 16.4024 7.29721 16.4024C9.2023 16.4024 11.3727 15.4954 11.4354 13.6791L11.4307 11.6657ZM13.6453 0.703785H13.6444C11.8544 0.703785 10.2387 1.66962 9.08426 3.22289L9.08611 6.42306C9.70333 6.59004 10.3261 6.85431 10.8521 7.24595V6.02422C10.8521 4.70882 11.6674 4.05049 13.2979 4.05049V3.29249H13.9962V4.05049C15.6268 4.05049 16.4421 4.70879 16.4421 6.02422V6.93599H15.2776V6.32813C15.2776 5.62056 14.852 5.26619 13.9999 5.26619L13.9962 8.08923L14.2062 8.1505C15.6968 8.45443 16.4421 9.21363 16.4421 10.4281V11.6438C16.4421 12.9592 15.6268 13.6176 13.9962 13.6176V14.6807H13.2979V13.6176C12.8871 13.6176 12.5269 13.5755 12.2192 13.4926L12.2183 17.0594C12.678 17.1975 13.1561 17.2696 13.6471 17.2696C17.1551 17.2696 20 13.5611 20 8.98657C20 4.41081 17.1544 0.703526 13.6464 0.703526L13.6453 0.703785ZM0.00014158 17.2526C0.0415965 18.9801 1.98539 19.8931 3.81122 19.9916H3.8103C2.9941 19.4029 2.39438 18.5248 2.3778 17.2466L2.37688 16.7949C1.4446 16.5306 0.53718 16.0429 0.00202519 15.2549L0.00014158 17.2526ZM11.4235 15.2753C10.5382 16.5751 8.65337 17.04 7.29733 17.04C5.9468 17.04 4.04541 16.5583 3.16009 15.2549L3.15824 17.2827C3.22549 19.0954 5.39499 20 7.29737 20C9.20246 20 11.3728 19.093 11.4356 17.2767L11.4235 15.2753Z" fill="green"/>
</svg>
