<svg width="22" height="22" viewBox="5 5 22 22" fill="none" xmlns="http://www.w3.org/2000/svg">
<path fill-rule="evenodd" clip-rule="evenodd" d="M7.64844 16C7.64844 13.6794 8.57031 11.4538 10.2113 9.81282C11.8522 8.17187 14.0778 7.25 16.3984 7.25C18.7191 7.25 20.9447 8.17187 22.5856 9.81282C24.2266 11.4538 25.1484 13.6794 25.1484 16C25.1484 18.3206 24.2266 20.5462 22.5856 22.1872C20.9447 23.8281 18.7191 24.75 16.3984 24.75C14.0778 24.75 11.8522 23.8281 10.2113 22.1872C8.57031 20.5462 7.64844 18.3206 7.64844 16ZM16.3984 5.75C10.7384 5.75 6.14844 10.34 6.14844 16C6.14844 21.66 10.7384 26.25 16.3984 26.25C22.0584 26.25 26.6484 21.66 26.6484 16C26.6484 10.34 22.0584 5.75 16.3984 5.75ZM13.3984 15C13.7963 15 14.1778 14.842 14.4591 14.5607C14.7404 14.2794 14.8984 13.8978 14.8984 13.5C14.8984 13.1022 14.7404 12.7206 14.4591 12.4393C14.1778 12.158 13.7963 12 13.3984 12C13.0006 12 12.6191 12.158 12.3378 12.4393C12.0565 12.7206 11.8984 13.1022 11.8984 13.5C11.8984 13.8978 12.0565 14.2794 12.3378 14.5607C12.6191 14.842 13.0006 15 13.3984 15ZM20.8984 13.5C20.8984 13.8978 20.7404 14.2794 20.4591 14.5607C20.1778 14.842 19.7963 15 19.3984 15C19.0006 15 18.6191 14.842 18.3378 14.5607C18.0565 14.2794 17.8984 13.8978 17.8984 13.5C17.8984 13.1022 18.0565 12.7206 18.3378 12.4393C18.6191 12.158 19.0006 12 19.3984 12C19.7963 12 20.1778 12.158 20.4591 12.4393C20.7404 12.7206 20.8984 13.1022 20.8984 13.5ZM21.5214 18.61C21.6036 18.4338 21.6141 18.2326 21.5507 18.0488C21.4874 17.865 21.3551 17.713 21.1818 17.6248C21.0086 17.5366 20.8079 17.5191 20.622 17.5761C20.4361 17.633 20.2796 17.7599 20.1854 17.93C19.8296 18.6285 19.2876 19.215 18.6193 19.6246C17.9509 20.0342 17.1823 20.251 16.3984 20.251C15.6146 20.251 14.846 20.0342 14.1776 19.6246C13.5093 19.215 12.9672 18.6285 12.6114 17.93C12.5689 17.8387 12.5084 17.757 12.4336 17.6896C12.3588 17.6222 12.2712 17.5706 12.176 17.5378C12.0809 17.505 11.98 17.4917 11.8796 17.4986C11.7792 17.5056 11.6812 17.5328 11.5914 17.5784C11.5017 17.6241 11.4221 17.6874 11.3573 17.7645C11.2926 17.8416 11.244 17.9309 11.2145 18.0272C11.185 18.1234 11.1752 18.2246 11.1857 18.3248C11.1962 18.4249 11.2267 18.5219 11.2754 18.61C11.7569 19.5547 12.4902 20.3479 13.3943 20.9018C14.2984 21.4558 15.3381 21.749 16.3984 21.749C17.4588 21.749 18.4984 21.4558 19.4025 20.9018C20.3066 20.3479 21.04 19.5547 21.5214 18.61Z" fill="#FFA500"/>
</svg>
