<svg width="20" height="20" viewBox="0 0 20 20" fill="none" xmlns="http://www.w3.org/2000/svg">
<path d="M11.7773 2.97932e-06C9.68239 -0.00178261 7.66521 0.799106 6.14158 2.2375C4.61795 3.67589 3.70121 5.64273 3.58079 7.73483C3.46029 9.82766 4.14491 11.8866 5.49358 13.4911L0.209539 18.7805C-0.0698464 19.059 -0.0698464 19.5117 0.209539 19.7903C0.488034 20.0698 0.940553 20.0698 1.21905 19.7912L6.50217 14.5002C8.55331 16.227 11.3185 16.8431 13.9087 16.1502C16.499 15.4574 18.5877 13.5441 19.5051 11.0234C20.4218 8.5039 20.0505 5.69409 18.5117 3.49845C16.972 1.30292 14.4586 -0.00324116 11.7771 0.000187391L11.7773 2.97932e-06ZM11.7773 14.9999C9.97784 14.9999 8.25245 14.2847 6.98062 13.0124C5.70871 11.7401 4.99376 10.0143 4.99376 8.21427C4.99376 6.41429 5.70871 4.68836 6.98062 3.41614C8.25254 2.14383 9.97784 1.42866 11.7773 1.42866C13.5767 1.42866 15.3021 2.14383 16.5739 3.41614C17.8458 4.68845 18.5608 6.41429 18.5608 8.21427C18.559 10.0134 17.8432 11.7384 16.5712 13.0097C15.3002 14.282 13.5758 14.9981 11.7773 14.9999ZM12.4913 5.35699V11.0712C12.4913 11.4659 12.1718 11.7855 11.7773 11.7855C11.3827 11.7855 11.0632 11.4659 11.0632 11.0712V5.35699C11.0632 4.96234 11.3827 4.64271 11.7773 4.64271C12.1718 4.64271 12.4913 4.96234 12.4913 5.35699ZM9.6351 6.78555V11.0712C9.6351 11.4659 9.31556 11.7855 8.92104 11.7855C8.52651 11.7855 8.20698 11.4659 8.20698 11.0712V6.78555C8.20698 6.39091 8.52651 6.07127 8.92104 6.07127C9.31556 6.07127 9.6351 6.39091 9.6351 6.78555ZM15.3476 8.21412V11.0712C15.3476 11.4659 15.028 11.7855 14.6335 11.7855C14.239 11.7855 13.9194 11.4659 13.9194 11.0712V8.21412C13.9194 7.81947 14.239 7.49983 14.6335 7.49983C15.028 7.49983 15.3476 7.81947 15.3476 8.21412Z" fill="blue"/>
</svg>
