<svg width="20" height="20" viewBox="0 0 20 20" fill="none" xmlns="http://www.w3.org/2000/svg">
<path d="M15.4565 6.27832C14.9851 6.27832 14.5882 6.76837 14.5882 7.3503C14.5882 7.47281 14.613 7.5647 14.6378 7.68721L11.6854 10.7194C11.5365 10.505 11.3132 10.3825 11.0403 10.3825C10.9411 10.3825 10.8667 10.4131 10.7674 10.4437L9.67579 8.69794C9.72541 8.57542 9.75022 8.42228 9.75022 8.26914C9.75022 7.68721 9.35326 7.19716 8.88187 7.19716C8.41048 7.19716 8.01352 7.68721 8.01352 8.26914C8.01352 8.3304 8.01352 8.36103 8.01352 8.42228L4.93709 11.4545C4.81304 11.3626 4.66418 11.3013 4.51532 11.3013C4.04393 11.3013 3.64697 11.7914 3.64697 12.3733C3.64697 12.9552 4.04393 13.4453 4.51532 13.4453C4.98671 13.4453 5.38367 12.9552 5.38367 12.3733C5.38367 12.2508 5.35886 12.1589 5.35886 12.067L8.36086 9.0961C8.50972 9.21861 8.68339 9.3105 8.88187 9.3105C9.00592 9.3105 9.10516 9.27987 9.22921 9.21861L10.2712 10.9032C10.1968 11.0563 10.172 11.2401 10.172 11.4238C10.172 12.0058 10.5689 12.4958 11.0403 12.4958C11.5117 12.4958 11.8839 12.0364 11.9087 11.4851L15.0347 8.26914C15.1588 8.36103 15.3077 8.39166 15.4565 8.39166C15.9279 8.39166 16.3249 7.90161 16.3249 7.31967C16.3497 6.76837 15.9527 6.27832 15.4565 6.27832Z" fill="black"/>
<path d="M7.93918 0.704446H12.0576C12.1072 0.704446 12.1321 0.673817 12.1321 0.612561V0.0918845C12.1321 0.0306284 12.1072 0 12.0576 0H7.93918C7.88956 0 7.86475 0.0306284 7.86475 0.0918845V0.612561C7.86475 0.673817 7.88956 0.704446 7.93918 0.704446Z" fill="black"/>
<path d="M19.7487 1.10254H0.2481C0.0992398 1.10254 0 1.25568 0 1.40882V2.32766C0 2.51143 0.12405 2.63394 0.2481 2.63394H1.21569V16.5391C1.21569 16.5697 1.21569 16.6003 1.21569 16.631H0.793918C0.694679 16.631 0.595439 16.7535 0.595439 16.876V17.3354C0.595439 17.4579 0.694679 17.5804 0.793918 17.5804H9.82474V18.7443C9.62626 18.8362 9.4774 19.0812 9.4774 19.3569C9.4774 19.7244 9.7255 20.0001 9.99841 20.0001C10.2713 20.0001 10.5194 19.6938 10.5194 19.3569C10.5194 19.0812 10.3706 18.8362 10.1721 18.7443V17.5804H19.2029C19.3021 17.5804 19.4014 17.4579 19.4014 17.3354V16.876C19.4014 16.7535 19.3021 16.631 19.2029 16.631H18.7811C18.7811 16.6003 18.7811 16.5697 18.7811 16.5391V2.66457H19.7487C19.8976 2.66457 19.9968 2.51143 19.9968 2.35829V1.43945C20.0216 1.25568 19.8976 1.10254 19.7487 1.10254ZM17.8135 15.804C17.8135 16.1409 17.5903 16.4472 17.2925 16.4472H2.70429C2.43138 16.4472 2.18328 16.1715 2.18328 15.804V3.30776C2.18328 2.97085 2.40657 2.66457 2.70429 2.66457H17.3173C17.5903 2.66457 17.8384 2.94022 17.8384 3.30776V15.804H17.8135Z" fill="blue"/>
</svg>
