<svg width="20" height="20" viewBox="0 0 20 20" fill="none" xmlns="http://www.w3.org/2000/svg">
<path d="M15.8333 16.25H4.16667C3.93667 16.25 3.75 16.0625 3.75 15.8333V4.16667C3.75 3.93667 3.93667 3.75 4.16667 3.75H15.8333C16.0625 3.75 16.25 3.93667 16.25 4.16667V15.8333C16.25 16.0625 16.0625 16.25 15.8333 16.25ZM4.58333 15.4167H15.4167V4.58333H4.58333V15.4167Z" fill="black"/>
<path d="M13.3333 13.75H6.66667C6.43667 13.75 6.25 13.5625 6.25 13.3333V6.66667C6.25 6.43667 6.43667 6.25 6.66667 6.25H13.3333C13.5625 6.25 13.75 6.43667 13.75 6.66667V13.3333C13.75 13.5625 13.5625 13.75 13.3333 13.75ZM7.08333 12.9167H12.9167V7.08333H7.08333V12.9167Z" fill="black"/>
<path d="M6.66667 4.16667C6.43667 4.16667 6.25 3.98 6.25 3.75V0.416667C6.25 0.186667 6.43667 0 6.66667 0C6.89667 0 7.08333 0.186667 7.08333 0.416667V3.75C7.08333 3.98 6.89667 4.16667 6.66667 4.16667Z" fill="black"/>
<path d="M10.0002 4.16667C9.77016 4.16667 9.5835 3.98 9.5835 3.75V0.416667C9.5835 0.186667 9.77016 0 10.0002 0C10.2302 0 10.4168 0.186667 10.4168 0.416667V3.75C10.4168 3.98 10.2302 4.16667 10.0002 4.16667Z" fill="black"/>
<path d="M13.3332 4.16667C13.104 4.16667 12.9165 3.98 12.9165 3.75V0.416667C12.9165 0.186667 13.104 0 13.3332 0C13.5623 0 13.7498 0.186667 13.7498 0.416667V3.75C13.7498 3.98 13.5623 4.16667 13.3332 4.16667Z" fill="black"/>
<path d="M6.66667 19.9997C6.43667 19.9997 6.25 19.8122 6.25 19.583V16.2497C6.25 16.0205 6.43667 15.833 6.66667 15.833C6.89667 15.833 7.08333 16.0205 7.08333 16.2497V19.583C7.08333 19.8122 6.89667 19.9997 6.66667 19.9997Z" fill="black"/>
<path d="M10.0002 19.9997C9.77016 19.9997 9.5835 19.8122 9.5835 19.583V16.2497C9.5835 16.0205 9.77016 15.833 10.0002 15.833C10.2302 15.833 10.4168 16.0205 10.4168 16.2497V19.583C10.4168 19.8122 10.2302 19.9997 10.0002 19.9997Z" fill="black"/>
<path d="M13.3332 19.9997C13.104 19.9997 12.9165 19.8122 12.9165 19.583V16.2497C12.9165 16.0205 13.104 15.833 13.3332 15.833C13.5623 15.833 13.7498 16.0205 13.7498 16.2497V19.583C13.7498 19.8122 13.5623 19.9997 13.3332 19.9997Z" fill="black"/>
<path d="M3.75 13.7503H0.416667C0.186667 13.7503 0 13.5628 0 13.3337C0 13.1045 0.186667 12.917 0.416667 12.917H3.75C3.98 12.917 4.16667 13.1045 4.16667 13.3337C4.16667 13.5628 3.98 13.7503 3.75 13.7503Z" fill="black"/>
<path d="M3.75 10.4163H0.416667C0.186667 10.4163 0 10.2297 0 9.99967C0 9.76967 0.186667 9.58301 0.416667 9.58301H3.75C3.98 9.58301 4.16667 9.76967 4.16667 9.99967C4.16667 10.2297 3.98 10.4163 3.75 10.4163Z" fill="black"/>
<path d="M3.75 7.08333H0.416667C0.186667 7.08333 0 6.89667 0 6.66667C0 6.43667 0.186667 6.25 0.416667 6.25H3.75C3.98 6.25 4.16667 6.43667 4.16667 6.66667C4.16667 6.89667 3.98 7.08333 3.75 7.08333Z" fill="black"/>
<path d="M19.5835 13.7503H16.2502C16.021 13.7503 15.8335 13.5628 15.8335 13.3337C15.8335 13.1045 16.021 12.917 16.2502 12.917H19.5835C19.8127 12.917 20.0002 13.1045 20.0002 13.3337C20.0002 13.5628 19.8127 13.7503 19.5835 13.7503Z" fill="black"/>
<path d="M19.5835 10.4163H16.2502C16.021 10.4163 15.8335 10.2297 15.8335 9.99967C15.8335 9.76967 16.021 9.58301 16.2502 9.58301H19.5835C19.8127 9.58301 20.0002 9.76967 20.0002 9.99967C20.0002 10.2297 19.8127 10.4163 19.5835 10.4163Z" fill="black"/>
<path d="M19.5835 7.08333H16.2502C16.021 7.08333 15.8335 6.89667 15.8335 6.66667C15.8335 6.43667 16.021 6.25 16.2502 6.25H19.5835C19.8127 6.25 20.0002 6.43667 20.0002 6.66667C20.0002 6.89667 19.8127 7.08333 19.5835 7.08333Z" fill="green"/>
</svg>
